<svg width="28" height="22" viewBox="0 0 28 22" fill="none" xmlns="http://www.w3.org/2000/svg">
<g filter="url(#filter0_d_33418_10288)">
<mask id="path-1-outside-1_33418_10288" maskUnits="userSpaceOnUse" x="-1" y="3" width="29" height="15" fill="black">
<rect fill="white" x="-1" y="3" width="29" height="15"/>
<path d="M7.9041 6.088V8.552H4.0121V9.924H6.8121V12.262H4.0121V16H0.904102V6.088H7.9041ZM8.53684 12.052C8.53684 11.2213 8.67684 10.5027 8.95684 9.896C9.24617 9.28 9.63817 8.81333 10.1328 8.496C10.6275 8.16933 11.1828 8.006 11.7988 8.006C12.3122 8.006 12.7555 8.11333 13.1288 8.328C13.5022 8.53333 13.7868 8.818 13.9828 9.182V8.104H17.0768V16H13.9828V14.922C13.7868 15.286 13.5022 15.5753 13.1288 15.79C12.7555 15.9953 12.3122 16.098 11.7988 16.098C11.1828 16.098 10.6275 15.9393 10.1328 15.622C9.63817 15.2953 9.24617 14.8287 8.95684 14.222C8.67684 13.606 8.53684 12.8827 8.53684 12.052ZM13.9828 12.052C13.9828 11.632 13.8755 11.3053 13.6608 11.072C13.4462 10.8387 13.1708 10.722 12.8348 10.722C12.4988 10.722 12.2235 10.8387 12.0088 11.072C11.7942 11.3053 11.6868 11.632 11.6868 12.052C11.6868 12.472 11.7942 12.7987 12.0088 13.032C12.2235 13.2653 12.4988 13.382 12.8348 13.382C13.1708 13.382 13.4462 13.2653 13.6608 13.032C13.8755 12.7987 13.9828 12.472 13.9828 12.052ZM20.0405 7.474C19.4991 7.474 19.0651 7.32933 18.7385 7.04C18.4118 6.75067 18.2485 6.38667 18.2485 5.948C18.2485 5.5 18.4118 5.13133 18.7385 4.842C19.0651 4.54333 19.4991 4.394 20.0405 4.394C20.5725 4.394 21.0018 4.54333 21.3285 4.842C21.6551 5.13133 21.8185 5.5 21.8185 5.948C21.8185 6.38667 21.6551 6.75067 21.3285 7.04C21.0018 7.32933 20.5725 7.474 20.0405 7.474ZM21.5805 8.104V16H18.4725V8.104H21.5805ZM26.0922 5.64V16H22.9842V5.64H26.0922Z"/>
</mask>
<path d="M7.9041 6.088V8.552H4.0121V9.924H6.8121V12.262H4.0121V16H0.904102V6.088H7.9041ZM8.53684 12.052C8.53684 11.2213 8.67684 10.5027 8.95684 9.896C9.24617 9.28 9.63817 8.81333 10.1328 8.496C10.6275 8.16933 11.1828 8.006 11.7988 8.006C12.3122 8.006 12.7555 8.11333 13.1288 8.328C13.5022 8.53333 13.7868 8.818 13.9828 9.182V8.104H17.0768V16H13.9828V14.922C13.7868 15.286 13.5022 15.5753 13.1288 15.79C12.7555 15.9953 12.3122 16.098 11.7988 16.098C11.1828 16.098 10.6275 15.9393 10.1328 15.622C9.63817 15.2953 9.24617 14.8287 8.95684 14.222C8.67684 13.606 8.53684 12.8827 8.53684 12.052ZM13.9828 12.052C13.9828 11.632 13.8755 11.3053 13.6608 11.072C13.4462 10.8387 13.1708 10.722 12.8348 10.722C12.4988 10.722 12.2235 10.8387 12.0088 11.072C11.7942 11.3053 11.6868 11.632 11.6868 12.052C11.6868 12.472 11.7942 12.7987 12.0088 13.032C12.2235 13.2653 12.4988 13.382 12.8348 13.382C13.1708 13.382 13.4462 13.2653 13.6608 13.032C13.8755 12.7987 13.9828 12.472 13.9828 12.052ZM20.0405 7.474C19.4991 7.474 19.0651 7.32933 18.7385 7.04C18.4118 6.75067 18.2485 6.38667 18.2485 5.948C18.2485 5.5 18.4118 5.13133 18.7385 4.842C19.0651 4.54333 19.4991 4.394 20.0405 4.394C20.5725 4.394 21.0018 4.54333 21.3285 4.842C21.6551 5.13133 21.8185 5.5 21.8185 5.948C21.8185 6.38667 21.6551 6.75067 21.3285 7.04C21.0018 7.32933 20.5725 7.474 20.0405 7.474ZM21.5805 8.104V16H18.4725V8.104H21.5805ZM26.0922 5.64V16H22.9842V5.64H26.0922Z" fill="white"/>
<path d="M7.9041 6.088H8.9041V5.088H7.9041V6.088ZM7.9041 8.552V9.552H8.9041V8.552H7.9041ZM4.0121 8.552V7.552H3.0121V8.552H4.0121ZM4.0121 9.924H3.0121V10.924H4.0121V9.924ZM6.8121 9.924H7.8121V8.924H6.8121V9.924ZM6.8121 12.262V13.262H7.8121V12.262H6.8121ZM4.0121 12.262V11.262H3.0121V12.262H4.0121ZM4.0121 16V17H5.0121V16H4.0121ZM0.904102 16H-0.0958984V17H0.904102V16ZM0.904102 6.088V5.088H-0.0958984V6.088H0.904102ZM6.9041 6.088V8.552H8.9041V6.088H6.9041ZM7.9041 7.552H4.0121V9.552H7.9041V7.552ZM3.0121 8.552V9.924H5.0121V8.552H3.0121ZM4.0121 10.924H6.8121V8.924H4.0121V10.924ZM5.8121 9.924V12.262H7.8121V9.924H5.8121ZM6.8121 11.262H4.0121V13.262H6.8121V11.262ZM3.0121 12.262V16H5.0121V12.262H3.0121ZM4.0121 15H0.904102V17H4.0121V15ZM1.9041 16V6.088H-0.0958984V16H1.9041ZM0.904102 7.088H7.9041V5.088H0.904102V7.088ZM8.95684 9.896L8.05169 9.47085L8.04888 9.47694L8.95684 9.896ZM10.1328 8.496L10.6728 9.33777L10.6839 9.33046L10.1328 8.496ZM13.1288 8.328L12.6304 9.19491L12.6386 9.19964L12.6469 9.20422L13.1288 8.328ZM13.9828 9.182L13.1024 9.6561L14.9828 9.182H13.9828ZM13.9828 8.104V7.104H12.9828V8.104H13.9828ZM17.0768 8.104H18.0768V7.104H17.0768V8.104ZM17.0768 16V17H18.0768V16H17.0768ZM13.9828 16H12.9828V17H13.9828V16ZM13.9828 14.922H14.9828L13.1024 14.4479L13.9828 14.922ZM13.1288 15.79L13.6108 16.6662L13.6191 16.6616L13.6273 16.6569L13.1288 15.79ZM10.1328 15.622L9.58173 16.4565L9.59288 16.4637L10.1328 15.622ZM8.95684 14.222L8.04647 14.6358L8.05027 14.6442L8.05423 14.6525L8.95684 14.222ZM13.6608 11.072L14.3968 10.3949V10.3949L13.6608 11.072ZM12.0088 11.072L11.2729 10.3949V10.3949L12.0088 11.072ZM9.53684 12.052C9.53684 11.3318 9.65831 10.7624 9.8648 10.3151L8.04888 9.47694C7.69536 10.2429 7.53684 11.1109 7.53684 12.052H9.53684ZM9.86197 10.3211C10.0841 9.84813 10.3604 9.5381 10.6728 9.33769L9.59288 7.65431C8.91595 8.08856 8.40821 8.71187 8.05171 9.47086L9.86197 10.3211ZM10.6839 9.33046C11.0084 9.11615 11.3707 9.006 11.7988 9.006V7.006C10.995 7.006 10.2466 7.22251 9.58177 7.66154L10.6839 9.33046ZM11.7988 9.006C12.1709 9.006 12.4354 9.08282 12.6304 9.19491L13.6273 7.46109C13.0756 7.14385 12.4534 7.006 11.7988 7.006V9.006ZM12.6469 9.20422C12.8569 9.31971 13.0006 9.46714 13.1024 9.6561L14.8633 8.7079C14.5731 8.16886 14.1474 7.74696 13.6108 7.45178L12.6469 9.20422ZM14.9828 9.182V8.104H12.9828V9.182H14.9828ZM13.9828 9.104H17.0768V7.104H13.9828V9.104ZM16.0768 8.104V16H18.0768V8.104H16.0768ZM17.0768 15H13.9828V17H17.0768V15ZM14.9828 16V14.922H12.9828V16H14.9828ZM13.1024 14.4479C12.9984 14.6409 12.8493 14.7972 12.6304 14.9231L13.6273 16.6569C14.155 16.3535 14.5752 15.9311 14.8633 15.3961L13.1024 14.4479ZM12.6469 14.9138C12.4487 15.0228 12.178 15.098 11.7988 15.098V17.098C12.4463 17.098 13.0623 16.9678 13.6108 16.6662L12.6469 14.9138ZM11.7988 15.098C11.3646 15.098 10.9984 14.9892 10.6728 14.7803L9.59288 16.4637C10.2566 16.8895 11.0011 17.098 11.7988 17.098V15.098ZM10.6839 14.7875C10.3605 14.5739 10.0812 14.2565 9.85944 13.7915L8.05423 14.6525C8.41113 15.4008 8.91588 16.0167 9.58177 16.4565L10.6839 14.7875ZM9.8672 13.8082C9.65813 13.3482 9.53684 12.7716 9.53684 12.052H7.53684C7.53684 12.9937 7.69555 13.8638 8.04647 14.6358L9.8672 13.8082ZM14.9828 12.052C14.9828 11.4645 14.8303 10.8661 14.3968 10.3949L12.9249 11.7491C12.9277 11.7521 12.9394 11.7647 12.9523 11.8042C12.9665 11.8473 12.9828 11.9254 12.9828 12.052H14.9828ZM14.3968 10.3949C13.9804 9.94235 13.4317 9.722 12.8348 9.722V11.722C12.8609 11.722 12.8781 11.7242 12.888 11.7261C12.8977 11.728 12.9021 11.7298 12.9032 11.7303C12.9041 11.7307 12.9051 11.7311 12.9072 11.7326C12.9094 11.7342 12.9155 11.7388 12.9249 11.7491L14.3968 10.3949ZM12.8348 9.722C12.238 9.722 11.6893 9.94235 11.2729 10.3949L12.7448 11.7491C12.7542 11.7388 12.7602 11.7342 12.7624 11.7326C12.7645 11.7311 12.7655 11.7307 12.7665 11.7303C12.7675 11.7298 12.772 11.728 12.7817 11.7261C12.7916 11.7242 12.8088 11.722 12.8348 11.722V9.722ZM11.2729 10.3949C10.8394 10.8661 10.6868 11.4645 10.6868 12.052H12.6868C12.6868 11.9254 12.7032 11.8473 12.7174 11.8042C12.7303 11.7647 12.7419 11.7521 12.7448 11.7491L11.2729 10.3949ZM10.6868 12.052C10.6868 12.6395 10.8394 13.2379 11.2729 13.7091L12.7448 12.3549C12.7419 12.3519 12.7303 12.3393 12.7174 12.2998C12.7032 12.2567 12.6868 12.1786 12.6868 12.052H10.6868ZM11.2729 13.7091C11.6893 14.1617 12.238 14.382 12.8348 14.382V12.382C12.8088 12.382 12.7916 12.3798 12.7817 12.3779C12.772 12.376 12.7675 12.3742 12.7665 12.3737C12.7655 12.3733 12.7645 12.3729 12.7624 12.3714C12.7602 12.3698 12.7542 12.3652 12.7448 12.3549L11.2729 13.7091ZM12.8348 14.382C13.4317 14.382 13.9804 14.1617 14.3968 13.7091L12.9249 12.3549C12.9155 12.3652 12.9094 12.3698 12.9072 12.3714C12.9051 12.3729 12.9041 12.3733 12.9032 12.3737C12.9021 12.3742 12.8977 12.376 12.888 12.3779C12.8781 12.3798 12.8609 12.382 12.8348 12.382V14.382ZM14.3968 13.7091C14.8303 13.2379 14.9828 12.6395 14.9828 12.052H12.9828C12.9828 12.1786 12.9665 12.2567 12.9523 12.2998C12.9394 12.3393 12.9277 12.3519 12.9249 12.3549L14.3968 13.7091ZM18.7385 7.04L19.4015 6.29141L19.4015 6.29141L18.7385 7.04ZM18.7385 4.842L19.4015 5.59059L19.4074 5.58535L19.4132 5.58003L18.7385 4.842ZM21.3285 4.842L20.6537 5.58003L20.6595 5.58535L20.6654 5.59059L21.3285 4.842ZM21.3285 7.04L20.6654 6.29141V6.29141L21.3285 7.04ZM21.5805 8.104H22.5805V7.104H21.5805V8.104ZM21.5805 16V17H22.5805V16H21.5805ZM18.4725 16H17.4725V17H18.4725V16ZM18.4725 8.104V7.104H17.4725V8.104H18.4725ZM20.0405 6.474C19.6823 6.474 19.5042 6.38237 19.4015 6.29141L18.0754 7.78859C18.6261 8.27629 19.3159 8.474 20.0405 8.474V6.474ZM19.4015 6.29141C19.2904 6.19302 19.2485 6.10213 19.2485 5.948H17.2485C17.2485 6.6712 17.5332 7.30832 18.0754 7.78859L19.4015 6.29141ZM19.2485 5.948C19.2485 5.77755 19.2956 5.68442 19.4015 5.59059L18.0754 4.09341C17.528 4.57824 17.2485 5.22245 17.2485 5.948H19.2485ZM19.4132 5.58003C19.5166 5.48556 19.6904 5.394 20.0405 5.394V3.394C19.3078 3.394 18.6137 3.60111 18.0637 4.10397L19.4132 5.58003ZM20.0405 5.394C20.3759 5.394 20.5472 5.48265 20.6537 5.58003L22.0032 4.10397C21.4564 3.60402 20.769 3.394 20.0405 3.394V5.394ZM20.6654 5.59059C20.7714 5.68442 20.8185 5.77755 20.8185 5.948H22.8185C22.8185 5.22245 22.5389 4.57824 21.9915 4.09341L20.6654 5.59059ZM20.8185 5.948C20.8185 6.10213 20.7765 6.19302 20.6654 6.29141L21.9915 7.78859C22.5337 7.30832 22.8185 6.6712 22.8185 5.948H20.8185ZM20.6654 6.29141C20.5596 6.38513 20.3841 6.474 20.0405 6.474V8.474C20.7608 8.474 21.444 8.27353 21.9915 7.78859L20.6654 6.29141ZM20.5805 8.104V16H22.5805V8.104H20.5805ZM21.5805 15H18.4725V17H21.5805V15ZM19.4725 16V8.104H17.4725V16H19.4725ZM18.4725 9.104H21.5805V7.104H18.4725V9.104ZM26.0922 5.64H27.0922V4.64H26.0922V5.64ZM26.0922 16V17H27.0922V16H26.0922ZM22.9842 16H21.9842V17H22.9842V16ZM22.9842 5.64V4.64H21.9842V5.64H22.9842ZM25.0922 5.64V16H27.0922V5.64H25.0922ZM26.0922 15H22.9842V17H26.0922V15ZM23.9842 16V5.64H21.9842V16H23.9842ZM22.9842 6.64H26.0922V4.64H22.9842V6.64Z" fill="black" mask="url(#path-1-outside-1_33418_10288)"/>
</g>
<defs>
<filter id="filter0_d_33418_10288" x="0.904053" y="4.39404" width="26.1881" height="12.704" filterUnits="userSpaceOnUse" color-interpolation-filters="sRGB">
<feFlood flood-opacity="0" result="BackgroundImageFix"/>
<feColorMatrix in="SourceAlpha" type="matrix" values="0 0 0 0 0 0 0 0 0 0 0 0 0 0 0 0 0 0 127 0" result="hardAlpha"/>
<feOffset dx="1" dy="1"/>
<feComposite in2="hardAlpha" operator="out"/>
<feColorMatrix type="matrix" values="0 0 0 0 0 0 0 0 0 0 0 0 0 0 0 0 0 0 1 0"/>
<feBlend mode="normal" in2="BackgroundImageFix" result="effect1_dropShadow_33418_10288"/>
<feBlend mode="normal" in="SourceGraphic" in2="effect1_dropShadow_33418_10288" result="shape"/>
</filter>
</defs>
</svg>
