<svg width="53" height="22" viewBox="0 0 53 22" fill="none" xmlns="http://www.w3.org/2000/svg">
<g filter="url(#filter0_d_33555_152851)">
<mask id="path-1-outside-1_33555_152851" maskUnits="userSpaceOnUse" x="-0.5" y="3" width="54" height="15" fill="black">
<rect fill="white" x="-0.5" y="3" width="54" height="15"/>
<path d="M8.44219 6.088V8.552H4.55019V9.924H7.35019V12.262H4.55019V16H1.44219V6.088H8.44219ZM9.07492 12.052C9.07492 11.2213 9.21492 10.5027 9.49492 9.896C9.78426 9.28 10.1763 8.81333 10.6709 8.496C11.1656 8.16933 11.7209 8.006 12.3369 8.006C12.8503 8.006 13.2936 8.11333 13.6669 8.328C14.0403 8.53333 14.3249 8.818 14.5209 9.182V8.104H17.6149V16H14.5209V14.922C14.3249 15.286 14.0403 15.5753 13.6669 15.79C13.2936 15.9953 12.8503 16.098 12.3369 16.098C11.7209 16.098 11.1656 15.9393 10.6709 15.622C10.1763 15.2953 9.78426 14.8287 9.49492 14.222C9.21492 13.606 9.07492 12.8827 9.07492 12.052ZM14.5209 12.052C14.5209 11.632 14.4136 11.3053 14.1989 11.072C13.9843 10.8387 13.7089 10.722 13.3729 10.722C13.0369 10.722 12.7616 10.8387 12.5469 11.072C12.3323 11.3053 12.2249 11.632 12.2249 12.052C12.2249 12.472 12.3323 12.7987 12.5469 13.032C12.7616 13.2653 13.0369 13.382 13.3729 13.382C13.7089 13.382 13.9843 13.2653 14.1989 13.032C14.4136 12.7987 14.5209 12.472 14.5209 12.052ZM20.5785 7.474C20.0372 7.474 19.6032 7.32933 19.2765 7.04C18.9499 6.75067 18.7865 6.38667 18.7865 5.948C18.7865 5.5 18.9499 5.13133 19.2765 4.842C19.6032 4.54333 20.0372 4.394 20.5785 4.394C21.1105 4.394 21.5399 4.54333 21.8665 4.842C22.1932 5.13133 22.3565 5.5 22.3565 5.948C22.3565 6.38667 22.1932 6.75067 21.8665 7.04C21.5399 7.32933 21.1105 7.474 20.5785 7.474ZM22.1185 8.104V16H19.0105V8.104H22.1185ZM26.6303 5.64V16H23.5223V5.64H26.6303ZM36.392 8.104V16H33.284V14.796C33.0413 15.1693 32.7147 15.4727 32.304 15.706C31.9027 15.9393 31.422 16.056 30.862 16.056C29.9567 16.056 29.2473 15.7527 28.734 15.146C28.23 14.5393 27.978 13.718 27.978 12.682V8.104H31.072V12.29C31.072 12.6633 31.17 12.962 31.366 13.186C31.5713 13.4007 31.842 13.508 32.178 13.508C32.5233 13.508 32.794 13.4007 32.99 13.186C33.186 12.962 33.284 12.6633 33.284 12.29V8.104H36.392ZM40.9037 9.56C41.221 9.10267 41.6084 8.73867 42.0657 8.468C42.523 8.188 42.999 8.048 43.4937 8.048V11.366H42.6117C42.0237 11.366 41.5897 11.4687 41.3097 11.674C41.039 11.8793 40.9037 12.2433 40.9037 12.766V16H37.7957V8.104H40.9037V9.56ZM51.9749 11.982C51.9749 12.1967 51.9609 12.402 51.9329 12.598H46.9349C46.9815 13.2793 47.2662 13.62 47.7889 13.62C48.1249 13.62 48.3675 13.466 48.5169 13.158H51.8069C51.6949 13.718 51.4569 14.222 51.0929 14.67C50.7382 15.1087 50.2855 15.4587 49.7349 15.72C49.1935 15.972 48.5962 16.098 47.9429 16.098C47.1589 16.098 46.4589 15.9347 45.8429 15.608C45.2362 15.2813 44.7602 14.8147 44.4149 14.208C44.0789 13.592 43.9109 12.8733 43.9109 12.052C43.9109 11.2307 44.0789 10.5167 44.4149 9.91C44.7602 9.294 45.2362 8.82267 45.8429 8.496C46.4589 8.16933 47.1589 8.006 47.9429 8.006C48.7269 8.006 49.4222 8.16933 50.0289 8.496C50.6449 8.81333 51.1209 9.27067 51.4569 9.868C51.8022 10.4653 51.9749 11.17 51.9749 11.982ZM48.8249 11.24C48.8249 10.9787 48.7409 10.7827 48.5729 10.652C48.4049 10.512 48.1949 10.442 47.9429 10.442C47.3922 10.442 47.0702 10.708 46.9769 11.24H48.8249Z"/>
</mask>
<path d="M8.44219 6.088V8.552H4.55019V9.924H7.35019V12.262H4.55019V16H1.44219V6.088H8.44219ZM9.07492 12.052C9.07492 11.2213 9.21492 10.5027 9.49492 9.896C9.78426 9.28 10.1763 8.81333 10.6709 8.496C11.1656 8.16933 11.7209 8.006 12.3369 8.006C12.8503 8.006 13.2936 8.11333 13.6669 8.328C14.0403 8.53333 14.3249 8.818 14.5209 9.182V8.104H17.6149V16H14.5209V14.922C14.3249 15.286 14.0403 15.5753 13.6669 15.79C13.2936 15.9953 12.8503 16.098 12.3369 16.098C11.7209 16.098 11.1656 15.9393 10.6709 15.622C10.1763 15.2953 9.78426 14.8287 9.49492 14.222C9.21492 13.606 9.07492 12.8827 9.07492 12.052ZM14.5209 12.052C14.5209 11.632 14.4136 11.3053 14.1989 11.072C13.9843 10.8387 13.7089 10.722 13.3729 10.722C13.0369 10.722 12.7616 10.8387 12.5469 11.072C12.3323 11.3053 12.2249 11.632 12.2249 12.052C12.2249 12.472 12.3323 12.7987 12.5469 13.032C12.7616 13.2653 13.0369 13.382 13.3729 13.382C13.7089 13.382 13.9843 13.2653 14.1989 13.032C14.4136 12.7987 14.5209 12.472 14.5209 12.052ZM20.5785 7.474C20.0372 7.474 19.6032 7.32933 19.2765 7.04C18.9499 6.75067 18.7865 6.38667 18.7865 5.948C18.7865 5.5 18.9499 5.13133 19.2765 4.842C19.6032 4.54333 20.0372 4.394 20.5785 4.394C21.1105 4.394 21.5399 4.54333 21.8665 4.842C22.1932 5.13133 22.3565 5.5 22.3565 5.948C22.3565 6.38667 22.1932 6.75067 21.8665 7.04C21.5399 7.32933 21.1105 7.474 20.5785 7.474ZM22.1185 8.104V16H19.0105V8.104H22.1185ZM26.6303 5.64V16H23.5223V5.64H26.6303ZM36.392 8.104V16H33.284V14.796C33.0413 15.1693 32.7147 15.4727 32.304 15.706C31.9027 15.9393 31.422 16.056 30.862 16.056C29.9567 16.056 29.2473 15.7527 28.734 15.146C28.23 14.5393 27.978 13.718 27.978 12.682V8.104H31.072V12.29C31.072 12.6633 31.17 12.962 31.366 13.186C31.5713 13.4007 31.842 13.508 32.178 13.508C32.5233 13.508 32.794 13.4007 32.99 13.186C33.186 12.962 33.284 12.6633 33.284 12.29V8.104H36.392ZM40.9037 9.56C41.221 9.10267 41.6084 8.73867 42.0657 8.468C42.523 8.188 42.999 8.048 43.4937 8.048V11.366H42.6117C42.0237 11.366 41.5897 11.4687 41.3097 11.674C41.039 11.8793 40.9037 12.2433 40.9037 12.766V16H37.7957V8.104H40.9037V9.56ZM51.9749 11.982C51.9749 12.1967 51.9609 12.402 51.9329 12.598H46.9349C46.9815 13.2793 47.2662 13.62 47.7889 13.62C48.1249 13.62 48.3675 13.466 48.5169 13.158H51.8069C51.6949 13.718 51.4569 14.222 51.0929 14.67C50.7382 15.1087 50.2855 15.4587 49.7349 15.72C49.1935 15.972 48.5962 16.098 47.9429 16.098C47.1589 16.098 46.4589 15.9347 45.8429 15.608C45.2362 15.2813 44.7602 14.8147 44.4149 14.208C44.0789 13.592 43.9109 12.8733 43.9109 12.052C43.9109 11.2307 44.0789 10.5167 44.4149 9.91C44.7602 9.294 45.2362 8.82267 45.8429 8.496C46.4589 8.16933 47.1589 8.006 47.9429 8.006C48.7269 8.006 49.4222 8.16933 50.0289 8.496C50.6449 8.81333 51.1209 9.27067 51.4569 9.868C51.8022 10.4653 51.9749 11.17 51.9749 11.982ZM48.8249 11.24C48.8249 10.9787 48.7409 10.7827 48.5729 10.652C48.4049 10.512 48.1949 10.442 47.9429 10.442C47.3922 10.442 47.0702 10.708 46.9769 11.24H48.8249Z" fill="white"/>
<path d="M8.44219 6.088H9.44219V5.088H8.44219V6.088ZM8.44219 8.552V9.552H9.44219V8.552H8.44219ZM4.55019 8.552V7.552H3.55019V8.552H4.55019ZM4.55019 9.924H3.55019V10.924H4.55019V9.924ZM7.35019 9.924H8.35019V8.924H7.35019V9.924ZM7.35019 12.262V13.262H8.35019V12.262H7.35019ZM4.55019 12.262V11.262H3.55019V12.262H4.55019ZM4.55019 16V17H5.55019V16H4.55019ZM1.44219 16H0.442188V17H1.44219V16ZM1.44219 6.088V5.088H0.442188V6.088H1.44219ZM7.44219 6.088V8.552H9.44219V6.088H7.44219ZM8.44219 7.552H4.55019V9.552H8.44219V7.552ZM3.55019 8.552V9.924H5.55019V8.552H3.55019ZM4.55019 10.924H7.35019V8.924H4.55019V10.924ZM6.35019 9.924V12.262H8.35019V9.924H6.35019ZM7.35019 11.262H4.55019V13.262H7.35019V11.262ZM3.55019 12.262V16H5.55019V12.262H3.55019ZM4.55019 15H1.44219V17H4.55019V15ZM2.44219 16V6.088H0.442188V16H2.44219ZM1.44219 7.088H8.44219V5.088H1.44219V7.088ZM9.49492 9.896L8.58977 9.47085L8.58696 9.47694L9.49492 9.896ZM10.6709 8.496L11.2109 9.33777L11.222 9.33046L10.6709 8.496ZM13.6669 8.328L13.1685 9.19491L13.1767 9.19964L13.185 9.20422L13.6669 8.328ZM14.5209 9.182L13.6405 9.6561L15.5209 9.182H14.5209ZM14.5209 8.104V7.104H13.5209V8.104H14.5209ZM17.6149 8.104H18.6149V7.104H17.6149V8.104ZM17.6149 16V17H18.6149V16H17.6149ZM14.5209 16H13.5209V17H14.5209V16ZM14.5209 14.922H15.5209L13.6405 14.4479L14.5209 14.922ZM13.6669 15.79L14.1488 16.6662L14.1572 16.6616L14.1654 16.6569L13.6669 15.79ZM10.6709 15.622L10.1198 16.4565L10.131 16.4637L10.6709 15.622ZM9.49492 14.222L8.58456 14.6358L8.58836 14.6442L8.59232 14.6525L9.49492 14.222ZM14.1989 11.072L14.9349 10.3949V10.3949L14.1989 11.072ZM12.5469 11.072L11.811 10.3949V10.3949L12.5469 11.072ZM10.0749 12.052C10.0749 11.3318 10.1964 10.7624 10.4029 10.3151L8.58696 9.47694C8.23344 10.2429 8.07492 11.1109 8.07492 12.052H10.0749ZM10.4001 10.3211C10.6222 9.84813 10.8985 9.5381 11.2109 9.33769L10.131 7.65431C9.45403 8.08856 8.94629 8.71187 8.58979 9.47086L10.4001 10.3211ZM11.222 9.33046C11.5465 9.11615 11.9088 9.006 12.3369 9.006V7.006C11.5331 7.006 10.7847 7.22251 10.1199 7.66154L11.222 9.33046ZM12.3369 9.006C12.709 9.006 12.9735 9.08282 13.1685 9.19491L14.1654 7.46109C13.6137 7.14385 12.9915 7.006 12.3369 7.006V9.006ZM13.185 9.20422C13.395 9.31971 13.5387 9.46714 13.6405 9.6561L15.4014 8.7079C15.1111 8.16886 14.6855 7.74696 14.1488 7.45178L13.185 9.20422ZM15.5209 9.182V8.104H13.5209V9.182H15.5209ZM14.5209 9.104H17.6149V7.104H14.5209V9.104ZM16.6149 8.104V16H18.6149V8.104H16.6149ZM17.6149 15H14.5209V17H17.6149V15ZM15.5209 16V14.922H13.5209V16H15.5209ZM13.6405 14.4479C13.5365 14.6409 13.3874 14.7972 13.1685 14.9231L14.1654 16.6569C14.6931 16.3535 15.1133 15.9311 15.4014 15.3961L13.6405 14.4479ZM13.185 14.9138C12.9867 15.0228 12.7161 15.098 12.3369 15.098V17.098C12.9844 17.098 13.6004 16.9678 14.1488 16.6662L13.185 14.9138ZM12.3369 15.098C11.9027 15.098 11.5365 14.9892 11.2109 14.7803L10.131 16.4637C10.7947 16.8895 11.5392 17.098 12.3369 17.098V15.098ZM11.222 14.7875C10.8985 14.5739 10.6193 14.2565 10.3975 13.7915L8.59232 14.6525C8.94922 15.4008 9.45397 16.0167 10.1199 16.4565L11.222 14.7875ZM10.4053 13.8082C10.1962 13.3482 10.0749 12.7716 10.0749 12.052H8.07492C8.07492 12.9937 8.23363 13.8638 8.58456 14.6358L10.4053 13.8082ZM15.5209 12.052C15.5209 11.4645 15.3684 10.8661 14.9349 10.3949L13.463 11.7491C13.4658 11.7521 13.4774 11.7647 13.4904 11.8042C13.5046 11.8473 13.5209 11.9254 13.5209 12.052H15.5209ZM14.9349 10.3949C14.5185 9.94235 13.9698 9.722 13.3729 9.722V11.722C13.399 11.722 13.4161 11.7242 13.4261 11.7261C13.4358 11.728 13.4402 11.7298 13.4413 11.7303C13.4422 11.7307 13.4432 11.7311 13.4453 11.7326C13.4475 11.7342 13.4536 11.7388 13.463 11.7491L14.9349 10.3949ZM13.3729 9.722C12.776 9.722 12.2274 9.94235 11.811 10.3949L13.2829 11.7491C13.2923 11.7388 13.2983 11.7342 13.3005 11.7326C13.3026 11.7311 13.3036 11.7307 13.3046 11.7303C13.3056 11.7298 13.3101 11.728 13.3198 11.7261C13.3297 11.7242 13.3469 11.722 13.3729 11.722V9.722ZM11.811 10.3949C11.3775 10.8661 11.2249 11.4645 11.2249 12.052H13.2249C13.2249 11.9254 13.2413 11.8473 13.2555 11.8042C13.2684 11.7647 13.28 11.7521 13.2829 11.7491L11.811 10.3949ZM11.2249 12.052C11.2249 12.6395 11.3775 13.2379 11.811 13.7091L13.2829 12.3549C13.28 12.3519 13.2684 12.3393 13.2555 12.2998C13.2413 12.2567 13.2249 12.1786 13.2249 12.052H11.2249ZM11.811 13.7091C12.2274 14.1617 12.776 14.382 13.3729 14.382V12.382C13.3469 12.382 13.3297 12.3798 13.3198 12.3779C13.3101 12.376 13.3056 12.3742 13.3046 12.3737C13.3036 12.3733 13.3026 12.3729 13.3005 12.3714C13.2983 12.3698 13.2923 12.3652 13.2829 12.3549L11.811 13.7091ZM13.3729 14.382C13.9698 14.382 14.5185 14.1617 14.9349 13.7091L13.463 12.3549C13.4536 12.3652 13.4475 12.3698 13.4453 12.3714C13.4432 12.3729 13.4422 12.3733 13.4413 12.3737C13.4402 12.3742 13.4358 12.376 13.4261 12.3779C13.4161 12.3798 13.399 12.382 13.3729 12.382V14.382ZM14.9349 13.7091C15.3684 13.2379 15.5209 12.6395 15.5209 12.052H13.5209C13.5209 12.1786 13.5046 12.2567 13.4904 12.2998C13.4774 12.3393 13.4658 12.3519 13.463 12.3549L14.9349 13.7091ZM19.2765 7.04L19.9396 6.29141L19.9396 6.29141L19.2765 7.04ZM19.2765 4.842L19.9396 5.59059L19.9455 5.58535L19.9513 5.58003L19.2765 4.842ZM21.8665 4.842L21.1918 5.58003L21.1976 5.58535L21.2035 5.59059L21.8665 4.842ZM21.8665 7.04L21.2035 6.29141V6.29141L21.8665 7.04ZM22.1185 8.104H23.1185V7.104H22.1185V8.104ZM22.1185 16V17H23.1185V16H22.1185ZM19.0105 16H18.0105V17H19.0105V16ZM19.0105 8.104V7.104H18.0105V8.104H19.0105ZM20.5785 6.474C20.2204 6.474 20.0423 6.38237 19.9396 6.29141L18.6135 7.78859C19.1641 8.27629 19.854 8.474 20.5785 8.474V6.474ZM19.9396 6.29141C19.8285 6.19302 19.7865 6.10213 19.7865 5.948H17.7865C17.7865 6.6712 18.0713 7.30832 18.6135 7.78859L19.9396 6.29141ZM19.7865 5.948C19.7865 5.77755 19.8336 5.68442 19.9396 5.59059L18.6135 4.09341C18.0661 4.57824 17.7865 5.22245 17.7865 5.948H19.7865ZM19.9513 5.58003C20.0546 5.48556 20.2285 5.394 20.5785 5.394V3.394C19.8459 3.394 19.1518 3.60111 18.6018 4.10397L19.9513 5.58003ZM20.5785 5.394C20.914 5.394 21.0853 5.48265 21.1918 5.58003L22.5413 4.10397C21.9945 3.60402 21.3071 3.394 20.5785 3.394V5.394ZM21.2035 5.59059C21.3095 5.68442 21.3565 5.77755 21.3565 5.948H23.3565C23.3565 5.22245 23.077 4.57824 22.5296 4.09341L21.2035 5.59059ZM21.3565 5.948C21.3565 6.10213 21.3146 6.19302 21.2035 6.29141L22.5296 7.78859C23.0718 7.30832 23.3565 6.6712 23.3565 5.948H21.3565ZM21.2035 6.29141C21.0977 6.38513 20.9222 6.474 20.5785 6.474V8.474C21.2989 8.474 21.9821 8.27353 22.5296 7.78859L21.2035 6.29141ZM21.1185 8.104V16H23.1185V8.104H21.1185ZM22.1185 15H19.0105V17H22.1185V15ZM20.0105 16V8.104H18.0105V16H20.0105ZM19.0105 9.104H22.1185V7.104H19.0105V9.104ZM26.6303 5.64H27.6303V4.64H26.6303V5.64ZM26.6303 16V17H27.6303V16H26.6303ZM23.5223 16H22.5223V17H23.5223V16ZM23.5223 5.64V4.64H22.5223V5.64H23.5223ZM25.6303 5.64V16H27.6303V5.64H25.6303ZM26.6303 15H23.5223V17H26.6303V15ZM24.5223 16V5.64H22.5223V16H24.5223ZM23.5223 6.64H26.6303V4.64H23.5223V6.64ZM36.392 8.104H37.392V7.104H36.392V8.104ZM36.392 16V17H37.392V16H36.392ZM33.284 16H32.284V17H33.284V16ZM33.284 14.796H34.284V11.4226L32.4455 14.251L33.284 14.796ZM32.304 15.706L31.81 14.8365L31.8014 14.8415L32.304 15.706ZM28.734 15.146L27.9648 15.785L27.9706 15.7919L28.734 15.146ZM27.978 8.104V7.104H26.978V8.104H27.978ZM31.072 8.104H32.072V7.104H31.072V8.104ZM31.366 13.186L30.6134 13.8445L30.628 13.8612L30.6433 13.8772L31.366 13.186ZM32.99 13.186L33.7285 13.8603L33.7356 13.8525L33.7426 13.8445L32.99 13.186ZM33.284 8.104V7.104H32.284V8.104H33.284ZM35.392 8.104V16H37.392V8.104H35.392ZM36.392 15H33.284V17H36.392V15ZM34.284 16V14.796H32.284V16H34.284ZM32.4455 14.251C32.2954 14.4821 32.0902 14.6773 31.81 14.8365L32.798 16.5755C33.3391 16.268 33.7873 15.8566 34.1224 15.341L32.4455 14.251ZM31.8014 14.8415C31.5813 14.9694 31.2818 15.056 30.862 15.056V17.056C31.5621 17.056 32.224 16.9093 32.8066 16.5705L31.8014 14.8415ZM30.862 15.056C30.205 15.056 29.793 14.8494 29.4974 14.5001L27.9706 15.7919C28.7016 16.6559 29.7083 17.056 30.862 17.056V15.056ZM29.5032 14.507C29.1896 14.1296 28.978 13.5586 28.978 12.682H26.978C26.978 13.8774 27.2703 14.9491 27.9648 15.785L29.5032 14.507ZM28.978 12.682V8.104H26.978V12.682H28.978ZM27.978 9.104H31.072V7.104H27.978V9.104ZM30.072 8.104V12.29H32.072V8.104H30.072ZM30.072 12.29C30.072 12.8418 30.2204 13.3954 30.6134 13.8445L32.1186 12.5275C32.114 12.5222 32.1051 12.5112 32.0956 12.4822C32.0852 12.4504 32.072 12.3901 32.072 12.29H30.072ZM30.6433 13.8772C31.0629 14.3158 31.6083 14.508 32.178 14.508V12.508C32.117 12.508 32.093 12.4985 32.0916 12.4979C32.0904 12.4974 32.0912 12.4977 32.0925 12.4986C32.0938 12.4995 32.0925 12.4989 32.0886 12.4948L30.6433 13.8772ZM32.178 14.508C32.7467 14.508 33.3074 14.3215 33.7285 13.8603L32.2515 12.5117C32.2522 12.5109 32.2555 12.5076 32.2611 12.5038C32.2666 12.5 32.2707 12.4982 32.2714 12.4979C32.273 12.4973 32.2474 12.508 32.178 12.508V14.508ZM33.7426 13.8445C34.1355 13.3954 34.284 12.8418 34.284 12.29H32.284C32.284 12.3901 32.2708 12.4504 32.2603 12.4822C32.2508 12.5112 32.242 12.5222 32.2374 12.5275L33.7426 13.8445ZM34.284 12.29V8.104H32.284V12.29H34.284ZM33.284 9.104H36.392V7.104H33.284V9.104ZM40.9037 9.56H39.9037V12.7553L41.7253 10.1301L40.9037 9.56ZM42.0657 8.468L42.575 9.32858L42.5815 9.32476L42.5879 9.32085L42.0657 8.468ZM43.4937 8.048H44.4937V7.048H43.4937V8.048ZM43.4937 11.366V12.366H44.4937V11.366H43.4937ZM41.3097 11.674L40.7183 10.8676L40.7118 10.8724L40.7053 10.8773L41.3097 11.674ZM40.9037 16V17H41.9037V16H40.9037ZM37.7957 16H36.7957V17H37.7957V16ZM37.7957 8.104V7.104H36.7957V8.104H37.7957ZM40.9037 8.104H41.9037V7.104H40.9037V8.104ZM41.7253 10.1301C41.9646 9.78517 42.2473 9.52252 42.575 9.32858L41.5564 7.60742C40.9694 7.95482 40.4775 8.42016 40.0821 8.98992L41.7253 10.1301ZM42.5879 9.32085C42.9017 9.12869 43.1987 9.048 43.4937 9.048V7.048C42.7993 7.048 42.1444 7.24731 41.5435 7.61515L42.5879 9.32085ZM42.4937 8.048V11.366H44.4937V8.048H42.4937ZM43.4937 10.366H42.6117V12.366H43.4937V10.366ZM42.6117 10.366C41.944 10.366 41.2527 10.4758 40.7183 10.8676L41.9011 12.4804C41.9267 12.4616 42.1034 12.366 42.6117 12.366V10.366ZM40.7053 10.8773C40.0743 11.356 39.9037 12.1029 39.9037 12.766H41.9037C41.9037 12.5851 41.9279 12.4888 41.9425 12.4495C41.9537 12.4194 41.9508 12.4429 41.9141 12.4707L40.7053 10.8773ZM39.9037 12.766V16H41.9037V12.766H39.9037ZM40.9037 15H37.7957V17H40.9037V15ZM38.7957 16V8.104H36.7957V16H38.7957ZM37.7957 9.104H40.9037V7.104H37.7957V9.104ZM39.9037 8.104V9.56H41.9037V8.104H39.9037ZM51.9329 12.598V13.598H52.8002L52.9228 12.7394L51.9329 12.598ZM46.9349 12.598V11.598H45.864L45.9372 12.6663L46.9349 12.598ZM48.5169 13.158V12.158H47.8904L47.617 12.7217L48.5169 13.158ZM51.8069 13.158L52.7874 13.3541L53.0267 12.158H51.8069V13.158ZM51.0929 14.67L50.3167 14.0394L50.3152 14.0413L51.0929 14.67ZM49.7349 15.72L50.1569 16.6266L50.1636 16.6234L49.7349 15.72ZM45.8429 15.608L45.3688 16.4885L45.3744 16.4915L45.8429 15.608ZM44.4149 14.208L43.537 14.6869L43.5413 14.6948L43.5458 14.7027L44.4149 14.208ZM44.4149 9.91L43.5426 9.42099L43.5401 9.4255L44.4149 9.91ZM45.8429 8.496L45.3743 7.61252L45.3688 7.61553L45.8429 8.496ZM50.0289 8.496L49.5548 9.37647L49.5628 9.3808L49.5709 9.38497L50.0289 8.496ZM51.4569 9.868L50.5852 10.3583L50.5911 10.3685L51.4569 9.868ZM48.8249 11.24V12.24H49.8249V11.24H48.8249ZM48.5729 10.652L47.9327 11.4202L47.9456 11.431L47.9589 11.4414L48.5729 10.652ZM46.9769 11.24L45.9919 11.0672L45.7861 12.24H46.9769V11.24ZM50.9749 11.982C50.9749 12.1533 50.9637 12.3111 50.9429 12.4566L52.9228 12.7394C52.958 12.4929 52.9749 12.2401 52.9749 11.982H50.9749ZM51.9329 11.598H46.9349V13.598H51.9329V11.598ZM45.9372 12.6663C45.9677 13.1113 46.0832 13.6075 46.416 14.0057C46.7828 14.4447 47.2895 14.62 47.7889 14.62V12.62C47.7665 12.62 47.7868 12.6165 47.8303 12.6348C47.8517 12.6439 47.8748 12.6566 47.8973 12.6734C47.9198 12.69 47.9376 12.7076 47.9507 12.7233C47.9768 12.7545 47.9758 12.7677 47.9657 12.7367C47.9553 12.7045 47.94 12.6393 47.9325 12.5297L45.9372 12.6663ZM47.7889 14.62C48.114 14.62 48.4516 14.5437 48.7587 14.3488C49.0646 14.1547 49.2766 13.8832 49.4167 13.5943L47.617 12.7217C47.6078 12.7408 47.6238 12.7003 47.687 12.6602C47.716 12.6418 47.7441 12.6306 47.7662 12.6248C47.7873 12.6192 47.7965 12.62 47.7889 12.62V14.62ZM48.5169 14.158H51.8069V12.158H48.5169V14.158ZM50.8263 12.9619C50.7465 13.3608 50.5795 13.7161 50.3167 14.0394L51.869 15.3006C52.3343 14.7279 52.6432 14.0752 52.7874 13.3541L50.8263 12.9619ZM50.3152 14.0413C50.0622 14.3542 49.7325 14.6142 49.3061 14.8166L50.1636 16.6234C50.8386 16.3031 51.4142 15.8631 51.8705 15.2987L50.3152 14.0413ZM49.3128 14.8134C48.9157 14.9983 48.4643 15.098 47.9429 15.098V17.098C48.7281 17.098 49.4713 16.9457 50.1569 16.6266L49.3128 14.8134ZM47.9429 15.098C47.3016 15.098 46.7659 14.9656 46.3114 14.7245L45.3744 16.4915C46.1518 16.9038 47.0161 17.098 47.9429 17.098V15.098ZM46.317 14.7275C45.8778 14.4911 45.5377 14.1591 45.2839 13.7133L43.5458 14.7027C43.9827 15.4702 44.5946 16.0716 45.3688 16.4885L46.317 14.7275ZM45.2928 13.7291C45.0496 13.2833 44.9109 12.7347 44.9109 12.052H42.9109C42.9109 13.012 43.1082 13.9007 43.537 14.6869L45.2928 13.7291ZM44.9109 12.052C44.9109 11.3689 45.0497 10.8277 45.2896 10.3945L43.5401 9.4255C43.108 10.2056 42.9109 11.0925 42.9109 12.052H44.9109ZM45.2871 10.399C45.5421 9.94429 45.8818 9.61076 46.317 9.37647L45.3688 7.61553C44.5905 8.03457 43.9783 8.6437 43.5426 9.42099L45.2871 10.399ZM46.3114 9.37946C46.7659 9.13842 47.3016 9.006 47.9429 9.006V7.006C47.0161 7.006 46.1518 7.20024 45.3744 7.61254L46.3114 9.37946ZM47.9429 9.006C48.5844 9.006 49.1128 9.13852 49.5548 9.37647L50.503 7.61553C49.7315 7.20015 48.8693 7.006 47.9429 7.006V9.006ZM49.5709 9.38497C50.015 9.61378 50.3463 9.93342 50.5853 10.3583L52.3284 9.37774C51.8954 8.60791 51.2747 8.01289 50.4868 7.60703L49.5709 9.38497ZM50.5911 10.3685C50.8341 10.7887 50.9749 11.3144 50.9749 11.982H52.9749C52.9749 11.0256 52.7703 10.142 52.3226 9.3675L50.5911 10.3685ZM49.8249 11.24C49.8249 10.748 49.6539 10.226 49.1868 9.86265L47.9589 11.4414C47.9091 11.4026 47.8672 11.3481 47.8427 11.2909C47.8208 11.2397 47.8249 11.215 47.8249 11.24H49.8249ZM49.213 9.88378C48.8384 9.57158 48.3912 9.442 47.9429 9.442V11.442C47.976 11.442 47.9831 11.4465 47.9731 11.4432C47.9684 11.4416 47.9614 11.4388 47.9533 11.4343C47.9453 11.4298 47.9382 11.4248 47.9327 11.4202L49.213 9.88378ZM47.9429 9.442C47.5098 9.442 47.0419 9.54802 46.6515 9.87054C46.2586 10.1951 46.0674 10.6369 45.9919 11.0672L47.9618 11.4128C47.9709 11.361 47.9804 11.3455 47.9768 11.3526C47.9748 11.3564 47.9697 11.3652 47.9605 11.3767C47.9512 11.3884 47.9394 11.4008 47.9252 11.4125C47.9111 11.4241 47.8973 11.4329 47.8855 11.4392C47.8738 11.4454 47.8661 11.4479 47.8643 11.4484C47.8617 11.4492 47.8843 11.442 47.9429 11.442V9.442ZM46.9769 12.24H48.8249V10.24H46.9769V12.24Z" fill="black" mask="url(#path-1-outside-1_33555_152851)"/>
</g>
<defs>
<filter id="filter0_d_33555_152851" x="1.4422" y="4.39404" width="51.5327" height="12.704" filterUnits="userSpaceOnUse" color-interpolation-filters="sRGB">
<feFlood flood-opacity="0" result="BackgroundImageFix"/>
<feColorMatrix in="SourceAlpha" type="matrix" values="0 0 0 0 0 0 0 0 0 0 0 0 0 0 0 0 0 0 127 0" result="hardAlpha"/>
<feOffset dx="1" dy="1"/>
<feComposite in2="hardAlpha" operator="out"/>
<feColorMatrix type="matrix" values="0 0 0 0 0 0 0 0 0 0 0 0 0 0 0 0 0 0 1 0"/>
<feBlend mode="normal" in2="BackgroundImageFix" result="effect1_dropShadow_33555_152851"/>
<feBlend mode="normal" in="SourceGraphic" in2="effect1_dropShadow_33555_152851" result="shape"/>
</filter>
</defs>
</svg>
