<svg width="18" height="18" viewBox="0 0 18 18" fill="none" xmlns="http://www.w3.org/2000/svg">
<path d="M11.236 5.625C11.236 4.22703 10.1027 3.09375 8.70471 3.09375C7.30674 3.09375 6.17346 4.22703 6.17346 5.625C6.17346 7.02297 7.30674 8.15625 8.70471 8.15625C10.1027 8.15625 11.236 7.02297 11.236 5.625ZM12.6422 5.625C12.6422 7.79962 10.8793 9.5625 8.70471 9.5625C6.53009 9.5625 4.76721 7.79962 4.76721 5.625C4.76721 3.45038 6.53009 1.6875 8.70471 1.6875C10.8793 1.6875 12.6422 3.45038 12.6422 5.625ZM11.7702 14.4844C11.646 14.4844 11.5452 14.3836 11.5452 14.2594V13.3031C11.5452 13.1789 11.646 13.0781 11.7702 13.0781H13.3734V11.475C13.3734 11.3507 13.4741 11.25 13.5984 11.25H14.5546C14.6789 11.25 14.7796 11.3507 14.7796 11.475V13.0781H16.3827C16.507 13.0781 16.6077 13.1789 16.6077 13.3031V14.2594C16.6077 14.3836 16.507 14.4844 16.3827 14.4844H14.7796V16.0875C14.7796 16.2118 14.6789 16.3125 14.5546 16.3125H13.5984C13.4741 16.3125 13.3734 16.2118 13.3734 16.0875V14.4844H11.7702ZM2.79846 14.9062H10.2633V16.3125H1.95471C1.64405 16.3125 1.39221 16.0607 1.39221 15.75V12.4837C1.39221 12.2751 1.5095 12.0841 1.69562 11.9898C4.37547 10.6316 7.35141 10.0995 10.2633 10.3935V11.8077C7.7385 11.527 5.15534 11.9305 2.79846 13.0181V14.9062Z" fill="#1A1A1A"/>
</svg>
