<svg width="14" height="14" viewBox="0 0 14 14" fill="none" xmlns="http://www.w3.org/2000/svg">
<path d="M8.73926 4.375C8.73926 3.28769 7.85782 2.40625 6.77051 2.40625C5.6832 2.40625 4.80176 3.28769 4.80176 4.375C4.80176 5.46231 5.6832 6.34375 6.77051 6.34375C7.85782 6.34375 8.73926 5.46231 8.73926 4.375ZM9.83301 4.375C9.83301 6.06637 8.46188 7.4375 6.77051 7.4375C5.07914 7.4375 3.70801 6.06637 3.70801 4.375C3.70801 2.68363 5.07914 1.3125 6.77051 1.3125C8.46188 1.3125 9.83301 2.68363 9.83301 4.375ZM9.1548 11.2656C9.05815 11.2656 8.9798 11.1873 8.9798 11.0906V10.3469C8.9798 10.2502 9.05815 10.1719 9.1548 10.1719H10.4017V8.925C10.4017 8.82835 10.48 8.75 10.5767 8.75H11.3204C11.4171 8.75 11.4954 8.82835 11.4954 8.925V10.1719H12.7423C12.8389 10.1719 12.9173 10.2502 12.9173 10.3469V11.0906C12.9173 11.1873 12.8389 11.2656 12.7423 11.2656H11.4954V12.5125C11.4954 12.6092 11.4171 12.6875 11.3204 12.6875H10.5767C10.48 12.6875 10.4017 12.6092 10.4017 12.5125V11.2656H9.1548ZM2.17676 11.5937H7.98271V12.6875H1.52051C1.27888 12.6875 1.08301 12.4916 1.08301 12.25V9.70957C1.08301 9.54729 1.17423 9.39878 1.31899 9.32542C3.40332 8.26904 5.71794 7.85519 7.98271 8.08387V9.18374C6.01901 8.96545 4.00989 9.27927 2.17676 10.1252V11.5937Z" fill="#3888FF"/>
</svg>
