<svg xmlns="http://www.w3.org/2000/svg" width="18" height="18" viewBox="0 0 18 18" fill="none">
  <path fill-rule="evenodd" clip-rule="evenodd" d="M10.5806 7.09903L10.0927 5.92608C9.68847 4.95409 8.31153 4.95408 7.90725 5.92608L7.41939 7.09903L6.1531 7.20055C5.10374 7.28468 4.67824 8.59423 5.47774 9.27908L6.44253 10.1055L6.14777 11.3412C5.90351 12.3652 7.01748 13.1746 7.91587 12.6258L9 11.9636L10.0841 12.6258C10.9825 13.1746 12.0965 12.3652 11.8522 11.3412L11.5575 10.1055L12.5223 9.27908C13.3218 8.59423 12.8963 7.28468 11.8469 7.20055L10.5806 7.09903ZM8.27335 8.2744L9 6.52733L9.72665 8.2744L11.6128 8.42561L10.1757 9.65657L10.6148 11.4971L9 10.5108L7.38523 11.4971L7.82426 9.65657L6.38724 8.42561L8.27335 8.2744Z" fill="#1A1A1A"/>
  <path fill-rule="evenodd" clip-rule="evenodd" d="M1.125 9C1.125 13.3492 4.65076 16.875 9 16.875C13.3492 16.875 16.875 13.3492 16.875 9C16.875 4.65076 13.3492 1.125 9 1.125C4.65076 1.125 1.125 4.65076 1.125 9ZM15.4688 9C15.4688 12.5726 12.5726 15.4687 9 15.4687C5.42741 15.4687 2.53125 12.5726 2.53125 9C2.53125 5.42741 5.42741 2.53125 9 2.53125C12.5726 2.53125 15.4688 5.42741 15.4688 9Z" fill="#1A1A1A"/>
</svg>