<svg width="62" height="22" viewBox="0 0 62 22" fill="none" xmlns="http://www.w3.org/2000/svg">
<g filter="url(#filter0_d_33418_10296)">
<mask id="path-1-outside-1_33418_10296" maskUnits="userSpaceOnUse" x="-1" y="4" width="63" height="14" fill="black">
<rect fill="white" x="-1" y="4" width="63" height="14"/>
<path d="M4.86999 16.098C3.68466 16.098 2.70466 15.8227 1.92999 15.272C1.16466 14.712 0.749326 13.8953 0.683992 12.822H3.98799C4.03466 13.3913 4.28666 13.676 4.74399 13.676C4.91199 13.676 5.05199 13.6387 5.16399 13.564C5.28533 13.48 5.34599 13.354 5.34599 13.186C5.34599 12.9527 5.21999 12.766 4.96799 12.626C4.71599 12.4767 4.32399 12.3087 3.79199 12.122C3.15733 11.898 2.62999 11.6787 2.20999 11.464C1.79933 11.2493 1.44466 10.9367 1.14599 10.526C0.847326 10.1153 0.702659 9.588 0.711992 8.944C0.711992 8.3 0.875326 7.754 1.20199 7.306C1.53799 6.84867 1.99066 6.50333 2.55999 6.27C3.13866 6.03667 3.78733 5.92 4.50599 5.92C5.71933 5.92 6.68066 6.2 7.38999 6.76C8.10866 7.32 8.48666 8.10867 8.52399 9.126H5.17799C5.16866 8.846 5.09866 8.64533 4.96799 8.524C4.83733 8.40267 4.67866 8.342 4.49199 8.342C4.36133 8.342 4.25399 8.38867 4.16999 8.482C4.08599 8.566 4.04399 8.68733 4.04399 8.846C4.04399 9.07 4.16533 9.25667 4.40799 9.406C4.65999 9.546 5.05666 9.71867 5.59799 9.924C6.22333 10.1573 6.73666 10.3813 7.13799 10.596C7.54866 10.8107 7.90333 11.1093 8.20199 11.492C8.50066 11.8747 8.64999 12.3553 8.64999 12.934C8.64999 13.5407 8.50066 14.0867 8.20199 14.572C7.90333 15.048 7.46933 15.4213 6.89999 15.692C6.33066 15.9627 5.65399 16.098 4.86999 16.098ZM18.1 8.104V16H14.992V14.796C14.7493 15.1693 14.4227 15.4727 14.012 15.706C13.6107 15.9393 13.13 16.056 12.57 16.056C11.6647 16.056 10.9553 15.7527 10.442 15.146C9.93799 14.5393 9.68599 13.718 9.68599 12.682V8.104H12.78V12.29C12.78 12.6633 12.878 12.962 13.074 13.186C13.2793 13.4007 13.55 13.508 13.886 13.508C14.2313 13.508 14.502 13.4007 14.698 13.186C14.894 12.962 14.992 12.6633 14.992 12.29V8.104H18.1ZM19.0837 12.052C19.0837 11.2307 19.2517 10.5167 19.5877 9.91C19.933 9.294 20.409 8.82267 21.0157 8.496C21.6317 8.16933 22.3317 8.006 23.1157 8.006C24.1424 8.006 25.0057 8.29533 25.7057 8.874C26.415 9.45267 26.863 10.2553 27.0497 11.282H23.7597C23.6384 10.8713 23.4004 10.666 23.0457 10.666C22.7937 10.666 22.593 10.7827 22.4437 11.016C22.3037 11.2493 22.2337 11.5947 22.2337 12.052C22.2337 12.5093 22.3037 12.8547 22.4437 13.088C22.593 13.3213 22.7937 13.438 23.0457 13.438C23.4004 13.438 23.6384 13.2327 23.7597 12.822H27.0497C26.863 13.8487 26.415 14.6513 25.7057 15.23C25.0057 15.8087 24.1424 16.098 23.1157 16.098C22.3317 16.098 21.6317 15.9347 21.0157 15.608C20.409 15.2813 19.933 14.8147 19.5877 14.208C19.2517 13.592 19.0837 12.8733 19.0837 12.052ZM27.615 12.052C27.615 11.2307 27.783 10.5167 28.119 9.91C28.4643 9.294 28.9403 8.82267 29.547 8.496C30.163 8.16933 30.863 8.006 31.647 8.006C32.6736 8.006 33.537 8.29533 34.237 8.874C34.9463 9.45267 35.3943 10.2553 35.581 11.282H32.291C32.1696 10.8713 31.9316 10.666 31.577 10.666C31.325 10.666 31.1243 10.7827 30.975 11.016C30.835 11.2493 30.765 11.5947 30.765 12.052C30.765 12.5093 30.835 12.8547 30.975 13.088C31.1243 13.3213 31.325 13.438 31.577 13.438C31.9316 13.438 32.1696 13.2327 32.291 12.822H35.581C35.3943 13.8487 34.9463 14.6513 34.237 15.23C33.537 15.8087 32.6736 16.098 31.647 16.098C30.863 16.098 30.163 15.9347 29.547 15.608C28.9403 15.2813 28.4643 14.8147 28.119 14.208C27.783 13.592 27.615 12.8733 27.615 12.052ZM44.2102 11.982C44.2102 12.1967 44.1962 12.402 44.1682 12.598H39.1702C39.2169 13.2793 39.5015 13.62 40.0242 13.62C40.3602 13.62 40.6029 13.466 40.7522 13.158H44.0422C43.9302 13.718 43.6922 14.222 43.3282 14.67C42.9735 15.1087 42.5209 15.4587 41.9702 15.72C41.4289 15.972 40.8315 16.098 40.1782 16.098C39.3942 16.098 38.6942 15.9347 38.0782 15.608C37.4715 15.2813 36.9955 14.8147 36.6502 14.208C36.3142 13.592 36.1462 12.8733 36.1462 12.052C36.1462 11.2307 36.3142 10.5167 36.6502 9.91C36.9955 9.294 37.4715 8.82267 38.0782 8.496C38.6942 8.16933 39.3942 8.006 40.1782 8.006C40.9622 8.006 41.6575 8.16933 42.2642 8.496C42.8802 8.81333 43.3562 9.27067 43.6922 9.868C44.0375 10.4653 44.2102 11.17 44.2102 11.982ZM41.0602 11.24C41.0602 10.9787 40.9762 10.7827 40.8082 10.652C40.6402 10.512 40.4302 10.442 40.1782 10.442C39.6275 10.442 39.3055 10.708 39.2122 11.24H41.0602ZM48.7072 16.098C47.9605 16.098 47.2978 15.9767 46.7192 15.734C46.1498 15.4913 45.6972 15.1553 45.3612 14.726C45.0252 14.2967 44.8338 13.8113 44.7872 13.27H47.7692C47.8065 13.5033 47.9045 13.676 48.0632 13.788C48.2312 13.9 48.4412 13.956 48.6932 13.956C48.8518 13.956 48.9778 13.9233 49.0712 13.858C49.1645 13.7833 49.2112 13.6947 49.2112 13.592C49.2112 13.4147 49.1132 13.2887 48.9172 13.214C48.7212 13.1393 48.3898 13.0553 47.9232 12.962C47.3538 12.85 46.8825 12.7287 46.5092 12.598C46.1452 12.4673 45.8232 12.2433 45.5432 11.926C45.2725 11.6087 45.1372 11.17 45.1372 10.61C45.1372 10.1247 45.2632 9.686 45.5152 9.294C45.7765 8.89267 46.1592 8.58 46.6632 8.356C47.1672 8.12267 47.7785 8.006 48.4972 8.006C49.5612 8.006 50.3918 8.26733 50.9892 8.79C51.5958 9.31267 51.9598 9.994 52.0812 10.834H49.3232C49.2765 10.6193 49.1785 10.456 49.0292 10.344C48.8798 10.2227 48.6792 10.162 48.4272 10.162C48.2685 10.162 48.1472 10.1947 48.0632 10.26C47.9792 10.316 47.9372 10.4047 47.9372 10.526C47.9372 10.6847 48.0352 10.806 48.2312 10.89C48.4272 10.9647 48.7398 11.044 49.1692 11.128C49.7385 11.24 50.2192 11.366 50.6112 11.506C51.0032 11.646 51.3438 11.8887 51.6332 12.234C51.9225 12.57 52.0672 13.0367 52.0672 13.634C52.0672 14.1007 51.9318 14.5207 51.6612 14.894C51.3905 15.2673 50.9985 15.5613 50.4852 15.776C49.9812 15.9907 49.3885 16.098 48.7072 16.098ZM56.8146 16.098C56.0679 16.098 55.4053 15.9767 54.8266 15.734C54.2573 15.4913 53.8046 15.1553 53.4686 14.726C53.1326 14.2967 52.9413 13.8113 52.8946 13.27H55.8766C55.9139 13.5033 56.0119 13.676 56.1706 13.788C56.3386 13.9 56.5486 13.956 56.8006 13.956C56.9593 13.956 57.0853 13.9233 57.1786 13.858C57.2719 13.7833 57.3186 13.6947 57.3186 13.592C57.3186 13.4147 57.2206 13.2887 57.0246 13.214C56.8286 13.1393 56.4973 13.0553 56.0306 12.962C55.4613 12.85 54.9899 12.7287 54.6166 12.598C54.2526 12.4673 53.9306 12.2433 53.6506 11.926C53.3799 11.6087 53.2446 11.17 53.2446 10.61C53.2446 10.1247 53.3706 9.686 53.6226 9.294C53.8839 8.89267 54.2666 8.58 54.7706 8.356C55.2746 8.12267 55.8859 8.006 56.6046 8.006C57.6686 8.006 58.4993 8.26733 59.0966 8.79C59.7033 9.31267 60.0673 9.994 60.1886 10.834H57.4306C57.3839 10.6193 57.2859 10.456 57.1366 10.344C56.9873 10.2227 56.7866 10.162 56.5346 10.162C56.3759 10.162 56.2546 10.1947 56.1706 10.26C56.0866 10.316 56.0446 10.4047 56.0446 10.526C56.0446 10.6847 56.1426 10.806 56.3386 10.89C56.5346 10.9647 56.8473 11.044 57.2766 11.128C57.8459 11.24 58.3266 11.366 58.7186 11.506C59.1106 11.646 59.4513 11.8887 59.7406 12.234C60.0299 12.57 60.1746 13.0367 60.1746 13.634C60.1746 14.1007 60.0393 14.5207 59.7686 14.894C59.4979 15.2673 59.1059 15.5613 58.5926 15.776C58.0886 15.9907 57.4959 16.098 56.8146 16.098Z"/>
</mask>
<path d="M4.86999 16.098C3.68466 16.098 2.70466 15.8227 1.92999 15.272C1.16466 14.712 0.749326 13.8953 0.683992 12.822H3.98799C4.03466 13.3913 4.28666 13.676 4.74399 13.676C4.91199 13.676 5.05199 13.6387 5.16399 13.564C5.28533 13.48 5.34599 13.354 5.34599 13.186C5.34599 12.9527 5.21999 12.766 4.96799 12.626C4.71599 12.4767 4.32399 12.3087 3.79199 12.122C3.15733 11.898 2.62999 11.6787 2.20999 11.464C1.79933 11.2493 1.44466 10.9367 1.14599 10.526C0.847326 10.1153 0.702659 9.588 0.711992 8.944C0.711992 8.3 0.875326 7.754 1.20199 7.306C1.53799 6.84867 1.99066 6.50333 2.55999 6.27C3.13866 6.03667 3.78733 5.92 4.50599 5.92C5.71933 5.92 6.68066 6.2 7.38999 6.76C8.10866 7.32 8.48666 8.10867 8.52399 9.126H5.17799C5.16866 8.846 5.09866 8.64533 4.96799 8.524C4.83733 8.40267 4.67866 8.342 4.49199 8.342C4.36133 8.342 4.25399 8.38867 4.16999 8.482C4.08599 8.566 4.04399 8.68733 4.04399 8.846C4.04399 9.07 4.16533 9.25667 4.40799 9.406C4.65999 9.546 5.05666 9.71867 5.59799 9.924C6.22333 10.1573 6.73666 10.3813 7.13799 10.596C7.54866 10.8107 7.90333 11.1093 8.20199 11.492C8.50066 11.8747 8.64999 12.3553 8.64999 12.934C8.64999 13.5407 8.50066 14.0867 8.20199 14.572C7.90333 15.048 7.46933 15.4213 6.89999 15.692C6.33066 15.9627 5.65399 16.098 4.86999 16.098ZM18.1 8.104V16H14.992V14.796C14.7493 15.1693 14.4227 15.4727 14.012 15.706C13.6107 15.9393 13.13 16.056 12.57 16.056C11.6647 16.056 10.9553 15.7527 10.442 15.146C9.93799 14.5393 9.68599 13.718 9.68599 12.682V8.104H12.78V12.29C12.78 12.6633 12.878 12.962 13.074 13.186C13.2793 13.4007 13.55 13.508 13.886 13.508C14.2313 13.508 14.502 13.4007 14.698 13.186C14.894 12.962 14.992 12.6633 14.992 12.29V8.104H18.1ZM19.0837 12.052C19.0837 11.2307 19.2517 10.5167 19.5877 9.91C19.933 9.294 20.409 8.82267 21.0157 8.496C21.6317 8.16933 22.3317 8.006 23.1157 8.006C24.1424 8.006 25.0057 8.29533 25.7057 8.874C26.415 9.45267 26.863 10.2553 27.0497 11.282H23.7597C23.6384 10.8713 23.4004 10.666 23.0457 10.666C22.7937 10.666 22.593 10.7827 22.4437 11.016C22.3037 11.2493 22.2337 11.5947 22.2337 12.052C22.2337 12.5093 22.3037 12.8547 22.4437 13.088C22.593 13.3213 22.7937 13.438 23.0457 13.438C23.4004 13.438 23.6384 13.2327 23.7597 12.822H27.0497C26.863 13.8487 26.415 14.6513 25.7057 15.23C25.0057 15.8087 24.1424 16.098 23.1157 16.098C22.3317 16.098 21.6317 15.9347 21.0157 15.608C20.409 15.2813 19.933 14.8147 19.5877 14.208C19.2517 13.592 19.0837 12.8733 19.0837 12.052ZM27.615 12.052C27.615 11.2307 27.783 10.5167 28.119 9.91C28.4643 9.294 28.9403 8.82267 29.547 8.496C30.163 8.16933 30.863 8.006 31.647 8.006C32.6736 8.006 33.537 8.29533 34.237 8.874C34.9463 9.45267 35.3943 10.2553 35.581 11.282H32.291C32.1696 10.8713 31.9316 10.666 31.577 10.666C31.325 10.666 31.1243 10.7827 30.975 11.016C30.835 11.2493 30.765 11.5947 30.765 12.052C30.765 12.5093 30.835 12.8547 30.975 13.088C31.1243 13.3213 31.325 13.438 31.577 13.438C31.9316 13.438 32.1696 13.2327 32.291 12.822H35.581C35.3943 13.8487 34.9463 14.6513 34.237 15.23C33.537 15.8087 32.6736 16.098 31.647 16.098C30.863 16.098 30.163 15.9347 29.547 15.608C28.9403 15.2813 28.4643 14.8147 28.119 14.208C27.783 13.592 27.615 12.8733 27.615 12.052ZM44.2102 11.982C44.2102 12.1967 44.1962 12.402 44.1682 12.598H39.1702C39.2169 13.2793 39.5015 13.62 40.0242 13.62C40.3602 13.62 40.6029 13.466 40.7522 13.158H44.0422C43.9302 13.718 43.6922 14.222 43.3282 14.67C42.9735 15.1087 42.5209 15.4587 41.9702 15.72C41.4289 15.972 40.8315 16.098 40.1782 16.098C39.3942 16.098 38.6942 15.9347 38.0782 15.608C37.4715 15.2813 36.9955 14.8147 36.6502 14.208C36.3142 13.592 36.1462 12.8733 36.1462 12.052C36.1462 11.2307 36.3142 10.5167 36.6502 9.91C36.9955 9.294 37.4715 8.82267 38.0782 8.496C38.6942 8.16933 39.3942 8.006 40.1782 8.006C40.9622 8.006 41.6575 8.16933 42.2642 8.496C42.8802 8.81333 43.3562 9.27067 43.6922 9.868C44.0375 10.4653 44.2102 11.17 44.2102 11.982ZM41.0602 11.24C41.0602 10.9787 40.9762 10.7827 40.8082 10.652C40.6402 10.512 40.4302 10.442 40.1782 10.442C39.6275 10.442 39.3055 10.708 39.2122 11.24H41.0602ZM48.7072 16.098C47.9605 16.098 47.2978 15.9767 46.7192 15.734C46.1498 15.4913 45.6972 15.1553 45.3612 14.726C45.0252 14.2967 44.8338 13.8113 44.7872 13.27H47.7692C47.8065 13.5033 47.9045 13.676 48.0632 13.788C48.2312 13.9 48.4412 13.956 48.6932 13.956C48.8518 13.956 48.9778 13.9233 49.0712 13.858C49.1645 13.7833 49.2112 13.6947 49.2112 13.592C49.2112 13.4147 49.1132 13.2887 48.9172 13.214C48.7212 13.1393 48.3898 13.0553 47.9232 12.962C47.3538 12.85 46.8825 12.7287 46.5092 12.598C46.1452 12.4673 45.8232 12.2433 45.5432 11.926C45.2725 11.6087 45.1372 11.17 45.1372 10.61C45.1372 10.1247 45.2632 9.686 45.5152 9.294C45.7765 8.89267 46.1592 8.58 46.6632 8.356C47.1672 8.12267 47.7785 8.006 48.4972 8.006C49.5612 8.006 50.3918 8.26733 50.9892 8.79C51.5958 9.31267 51.9598 9.994 52.0812 10.834H49.3232C49.2765 10.6193 49.1785 10.456 49.0292 10.344C48.8798 10.2227 48.6792 10.162 48.4272 10.162C48.2685 10.162 48.1472 10.1947 48.0632 10.26C47.9792 10.316 47.9372 10.4047 47.9372 10.526C47.9372 10.6847 48.0352 10.806 48.2312 10.89C48.4272 10.9647 48.7398 11.044 49.1692 11.128C49.7385 11.24 50.2192 11.366 50.6112 11.506C51.0032 11.646 51.3438 11.8887 51.6332 12.234C51.9225 12.57 52.0672 13.0367 52.0672 13.634C52.0672 14.1007 51.9318 14.5207 51.6612 14.894C51.3905 15.2673 50.9985 15.5613 50.4852 15.776C49.9812 15.9907 49.3885 16.098 48.7072 16.098ZM56.8146 16.098C56.0679 16.098 55.4053 15.9767 54.8266 15.734C54.2573 15.4913 53.8046 15.1553 53.4686 14.726C53.1326 14.2967 52.9413 13.8113 52.8946 13.27H55.8766C55.9139 13.5033 56.0119 13.676 56.1706 13.788C56.3386 13.9 56.5486 13.956 56.8006 13.956C56.9593 13.956 57.0853 13.9233 57.1786 13.858C57.2719 13.7833 57.3186 13.6947 57.3186 13.592C57.3186 13.4147 57.2206 13.2887 57.0246 13.214C56.8286 13.1393 56.4973 13.0553 56.0306 12.962C55.4613 12.85 54.9899 12.7287 54.6166 12.598C54.2526 12.4673 53.9306 12.2433 53.6506 11.926C53.3799 11.6087 53.2446 11.17 53.2446 10.61C53.2446 10.1247 53.3706 9.686 53.6226 9.294C53.8839 8.89267 54.2666 8.58 54.7706 8.356C55.2746 8.12267 55.8859 8.006 56.6046 8.006C57.6686 8.006 58.4993 8.26733 59.0966 8.79C59.7033 9.31267 60.0673 9.994 60.1886 10.834H57.4306C57.3839 10.6193 57.2859 10.456 57.1366 10.344C56.9873 10.2227 56.7866 10.162 56.5346 10.162C56.3759 10.162 56.2546 10.1947 56.1706 10.26C56.0866 10.316 56.0446 10.4047 56.0446 10.526C56.0446 10.6847 56.1426 10.806 56.3386 10.89C56.5346 10.9647 56.8473 11.044 57.2766 11.128C57.8459 11.24 58.3266 11.366 58.7186 11.506C59.1106 11.646 59.4513 11.8887 59.7406 12.234C60.0299 12.57 60.1746 13.0367 60.1746 13.634C60.1746 14.1007 60.0393 14.5207 59.7686 14.894C59.4979 15.2673 59.1059 15.5613 58.5926 15.776C58.0886 15.9907 57.4959 16.098 56.8146 16.098Z" fill="white"/>
<path d="M1.92999 15.272L1.33943 16.0791L1.35061 16.0871L1.92999 15.272ZM0.683992 12.822V11.822H-0.378728L-0.31416 12.8828L0.683992 12.822ZM3.98799 12.822L4.98465 12.7403L4.90938 11.822H3.98799V12.822ZM5.16399 13.564L5.71869 14.3961L5.72599 14.3912L5.7332 14.3862L5.16399 13.564ZM4.96799 12.626L4.45819 13.4863L4.47017 13.4934L4.48235 13.5002L4.96799 12.626ZM3.79199 12.122L3.45917 13.065L3.4609 13.0656L3.79199 12.122ZM2.20999 11.464L1.74672 12.3503L1.75488 12.3544L2.20999 11.464ZM1.14599 10.526L1.95473 9.93783H1.95473L1.14599 10.526ZM0.711992 8.944L1.71189 8.95849L1.71199 8.95125V8.944H0.711992ZM1.20199 7.306L0.396105 6.71392L0.393985 6.71683L1.20199 7.306ZM2.55999 6.27L2.18602 5.34254L2.18077 5.34469L2.55999 6.27ZM7.38999 6.76L6.77034 7.5449L6.77534 7.5488L7.38999 6.76ZM8.52399 9.126V10.126H9.56136L9.52332 9.08933L8.52399 9.126ZM5.17799 9.126L4.17855 9.15931L4.21077 10.126H5.17799V9.126ZM4.16999 8.482L4.8771 9.18911L4.8957 9.17051L4.91329 9.15096L4.16999 8.482ZM4.40799 9.406L3.88389 10.2577L3.90287 10.2693L3.92235 10.2802L4.40799 9.406ZM5.59799 9.924L5.24333 10.859L5.2484 10.8609L5.59799 9.924ZM7.13799 10.596L6.66632 11.4778L6.67474 11.4822L7.13799 10.596ZM8.20199 11.492L7.41368 12.1073H7.41368L8.20199 11.492ZM8.20199 14.572L9.04909 15.1035L9.05365 15.0961L8.20199 14.572ZM6.89999 15.692L6.47063 14.7889L6.89999 15.692ZM4.86999 15.098C3.8405 15.098 3.07697 14.8604 2.50937 14.4569L1.35061 16.0871C2.33234 16.7849 3.52882 17.098 4.86999 17.098V15.098ZM2.5205 14.465C2.02925 14.1055 1.73212 13.5822 1.68214 12.7612L-0.31416 12.8828C-0.233468 14.2084 0.300072 15.3185 1.33948 16.079L2.5205 14.465ZM0.683992 13.822H3.98799V11.822H0.683992V13.822ZM2.99133 12.9037C3.0239 13.301 3.13806 13.758 3.46323 14.1253C3.81735 14.5254 4.29237 14.676 4.74399 14.676V12.676C4.73272 12.676 4.76136 12.6743 4.81194 12.6946C4.86685 12.7166 4.92009 12.7537 4.96075 12.7997C4.99847 12.8423 5.00789 12.8725 5.00543 12.8655C5.00237 12.8568 4.9911 12.819 4.98465 12.7403L2.99133 12.9037ZM4.74399 14.676C5.06033 14.676 5.40585 14.6046 5.71869 14.3961L4.60929 12.7319C4.65101 12.7041 4.68973 12.6891 4.71733 12.6818C4.74349 12.6748 4.7545 12.676 4.74399 12.676V14.676ZM5.7332 14.3862C6.16493 14.0873 6.34599 13.6295 6.34599 13.186H4.34599C4.34599 13.1496 4.35285 13.0696 4.39949 12.9727C4.44846 12.871 4.52126 12.7927 4.59478 12.7418L5.7332 14.3862ZM6.34599 13.186C6.34599 12.4988 5.93504 12.0193 5.45364 11.7518L4.48235 13.5002C4.50816 13.5145 4.46885 13.4989 4.42264 13.4305C4.36991 13.3523 4.34599 13.2611 4.34599 13.186H6.34599ZM5.47779 11.7657C5.13873 11.5648 4.67141 11.3708 4.12308 11.1784L3.4609 13.0656C3.97657 13.2465 4.29326 13.3886 4.45819 13.4863L5.47779 11.7657ZM4.12481 11.179C3.51595 10.9641 3.03282 10.7615 2.6651 10.5736L1.75488 12.3544C2.22716 12.5958 2.7987 12.8319 3.45917 13.065L4.12481 11.179ZM2.67325 10.5778C2.41187 10.4411 2.17157 10.236 1.95473 9.93783L0.337256 11.1142C0.71775 11.6374 1.18678 12.0575 1.74674 12.3502L2.67325 10.5778ZM1.95473 9.93783C1.81392 9.74422 1.70484 9.44485 1.71189 8.95849L-0.287903 8.92951C-0.299521 9.73115 -0.119268 10.4865 0.337256 11.1142L1.95473 9.93783ZM1.71199 8.944C1.71199 8.47635 1.82746 8.14551 2.01 7.89517L0.393985 6.71683C-0.0768089 7.36249 -0.288008 8.12365 -0.288008 8.944H1.71199ZM2.00787 7.89808C2.22587 7.60136 2.52518 7.36499 2.93922 7.1953L2.18077 5.34469C1.45614 5.64167 0.850116 6.09597 0.396111 6.71392L2.00787 7.89808ZM2.93396 7.19744C3.37714 7.01874 3.89623 6.92 4.50599 6.92V4.92C3.67842 4.92 2.90018 5.05459 2.18602 5.34256L2.93396 7.19744ZM4.50599 6.92C5.57126 6.92 6.28957 7.16532 6.77035 7.54488L8.00964 5.97512C7.07175 5.23468 5.8674 4.92 4.50599 4.92V6.92ZM6.77534 7.5488C7.23185 7.90452 7.49673 8.40155 7.52466 9.16267L9.52332 9.08933C9.47658 7.81578 8.98547 6.73548 8.00464 5.9712L6.77534 7.5488ZM8.52399 8.126H5.17799V10.126H8.52399V8.126ZM6.17744 9.09269C6.16415 8.69402 6.06107 8.17436 5.64844 7.79121L4.28754 9.25679C4.21246 9.18708 4.18274 9.11908 4.17429 9.09487C4.16739 9.07508 4.17624 9.09011 4.17855 9.15931L6.17744 9.09269ZM5.64844 7.79121C5.32349 7.48946 4.91805 7.342 4.49199 7.342V9.342C4.47533 9.342 4.4393 9.33893 4.39385 9.32155C4.34762 9.30387 4.31135 9.2789 4.28754 9.25679L5.64844 7.79121ZM4.49199 7.342C4.0909 7.342 3.70891 7.49947 3.4267 7.81304L4.91329 9.15096C4.86661 9.20283 4.79923 9.25624 4.71222 9.29407C4.62618 9.33148 4.54784 9.342 4.49199 9.342V7.342ZM3.46289 7.77489C3.13507 8.10271 3.04399 8.51403 3.04399 8.846H5.04399C5.04399 8.85277 5.04333 8.8971 5.02048 8.96311C4.99604 9.0337 4.9506 9.1156 4.8771 9.18911L3.46289 7.77489ZM3.04399 8.846C3.04399 9.51312 3.43751 9.98296 3.88389 10.2577L4.93209 8.55434C4.90285 8.53635 4.93403 8.54839 4.97344 8.60901C5.01889 8.67894 5.04399 8.7658 5.04399 8.846H3.04399ZM3.92235 10.2802C4.24009 10.4567 4.69234 10.65 5.24334 10.859L5.95265 8.989C5.42098 8.78734 5.07989 8.63532 4.89363 8.53184L3.92235 10.2802ZM5.2484 10.8609C5.84926 11.0851 6.31796 11.2914 6.66634 11.4778L7.60964 9.71422C7.15536 9.47123 6.5974 9.22956 5.94758 8.9871L5.2484 10.8609ZM6.67474 11.4822C6.95296 11.6277 7.19852 11.8316 7.41368 12.1073L8.99031 10.8767C8.60813 10.3871 8.14436 9.99368 7.60125 9.70977L6.67474 11.4822ZM7.41368 12.1073C7.55017 12.2822 7.64999 12.5339 7.64999 12.934H9.64999C9.64999 12.1767 9.45115 11.4672 8.99031 10.8767L7.41368 12.1073ZM7.64999 12.934C7.64999 13.3681 7.54568 13.7305 7.35033 14.0479L9.05365 15.0961C9.45564 14.4429 9.64999 13.7133 9.64999 12.934H7.64999ZM7.35493 14.0405C7.16931 14.3363 6.88979 14.5896 6.47063 14.7889L7.32935 16.5951C8.04886 16.2531 8.63734 15.7597 9.04906 15.1035L7.35493 14.0405ZM6.47063 14.7889C6.06404 14.9822 5.54075 15.098 4.86999 15.098V17.098C5.76723 17.098 6.59727 16.9432 7.32935 16.5951L6.47063 14.7889ZM18.1 8.104H19.1V7.104H18.1V8.104ZM18.1 16V17H19.1V16H18.1ZM14.992 16H13.992V17H14.992V16ZM14.992 14.796H15.992V11.4226L14.1535 14.251L14.992 14.796ZM14.012 15.706L13.518 14.8365L13.5094 14.8415L14.012 15.706ZM10.442 15.146L9.67277 15.785L9.67861 15.7919L10.442 15.146ZM9.68599 8.104V7.104H8.68599V8.104H9.68599ZM12.78 8.104H13.78V7.104H12.78V8.104ZM13.074 13.186L12.3214 13.8445L12.336 13.8612L12.3514 13.8772L13.074 13.186ZM14.698 13.186L15.4365 13.8603L15.4436 13.8525L15.4506 13.8445L14.698 13.186ZM14.992 8.104V7.104H13.992V8.104H14.992ZM17.1 8.104V16H19.1V8.104H17.1ZM18.1 15H14.992V17H18.1V15ZM15.992 16V14.796H13.992V16H15.992ZM14.1535 14.251C14.0034 14.4821 13.7982 14.6773 13.518 14.8365L14.506 16.5755C15.0471 16.268 15.4953 15.8566 15.8304 15.341L14.1535 14.251ZM13.5094 14.8415C13.2894 14.9694 12.9899 15.056 12.57 15.056V17.056C13.2701 17.056 13.932 16.9093 14.5146 16.5705L13.5094 14.8415ZM12.57 15.056C11.913 15.056 11.501 14.8494 11.2054 14.5001L9.67861 15.7919C10.4097 16.6559 11.4163 17.056 12.57 17.056V15.056ZM11.2112 14.507C10.8976 14.1296 10.686 13.5586 10.686 12.682H8.68599C8.68599 13.8774 8.97835 14.9491 9.6728 15.785L11.2112 14.507ZM10.686 12.682V8.104H8.68599V12.682H10.686ZM9.68599 9.104H12.78V7.104H9.68599V9.104ZM11.78 8.104V12.29H13.78V8.104H11.78ZM11.78 12.29C11.78 12.8418 11.9284 13.3954 12.3214 13.8445L13.8266 12.5275C13.822 12.5222 13.8131 12.5112 13.8036 12.4822C13.7932 12.4504 13.78 12.3901 13.78 12.29H11.78ZM12.3514 13.8772C12.7709 14.3158 13.3163 14.508 13.886 14.508V12.508C13.825 12.508 13.801 12.4985 13.7996 12.4979C13.7984 12.4974 13.7992 12.4977 13.8006 12.4986C13.8018 12.4995 13.8005 12.4989 13.7966 12.4948L12.3514 13.8772ZM13.886 14.508C14.4548 14.508 15.0154 14.3215 15.4365 13.8603L13.9595 12.5117C13.9602 12.5109 13.9635 12.5076 13.9691 12.5038C13.9746 12.5 13.9787 12.4982 13.9794 12.4979C13.981 12.4973 13.9554 12.508 13.886 12.508V14.508ZM15.4506 13.8445C15.8436 13.3954 15.992 12.8418 15.992 12.29H13.992C13.992 12.3901 13.9788 12.4504 13.9683 12.4822C13.9588 12.5112 13.95 12.5222 13.9454 12.5275L15.4506 13.8445ZM15.992 12.29V8.104H13.992V12.29H15.992ZM14.992 9.104H18.1V7.104H14.992V9.104ZM19.5877 9.91L18.7154 9.42099L18.7129 9.4255L19.5877 9.91ZM21.0157 8.496L20.5472 7.61252L20.5416 7.61553L21.0157 8.496ZM25.7057 8.874L25.0686 9.64476L25.0736 9.64886L25.7057 8.874ZM27.0497 11.282V12.282H28.2479L28.0336 11.1031L27.0497 11.282ZM23.7597 11.282L22.8007 11.5653L23.0124 12.282H23.7597V11.282ZM22.4437 11.016L21.6014 10.4769L21.5937 10.4891L21.5862 10.5015L22.4437 11.016ZM22.4437 13.088L21.5862 13.6025L21.5937 13.6149L21.6014 13.6271L22.4437 13.088ZM23.7597 12.822V11.822H23.0124L22.8007 12.5387L23.7597 12.822ZM27.0497 12.822L28.0336 13.0009L28.2479 11.822H27.0497V12.822ZM25.7057 15.23L25.0736 14.4551L25.0686 14.4593L25.7057 15.23ZM21.0157 15.608L20.5416 16.4885L20.5472 16.4915L21.0157 15.608ZM19.5877 14.208L18.7098 14.6869L18.7142 14.6948L18.7186 14.7027L19.5877 14.208ZM20.0837 12.052C20.0837 11.3689 20.2226 10.8277 20.4625 10.3945L18.7129 9.4255C18.2809 10.2056 18.0837 11.0925 18.0837 12.052H20.0837ZM20.46 10.399C20.7149 9.94429 21.0547 9.61076 21.4898 9.37647L20.5416 7.61553C19.7634 8.03457 19.1512 8.6437 18.7154 9.42099L20.46 10.399ZM21.4842 9.37946C21.9387 9.13842 22.4745 9.006 23.1157 9.006V7.006C22.189 7.006 21.3247 7.20024 20.5472 7.61254L21.4842 9.37946ZM23.1157 9.006C23.942 9.006 24.5711 9.23354 25.0686 9.64474L26.3429 8.10326C25.4403 7.35713 24.3428 7.006 23.1157 7.006V9.006ZM25.0736 9.64886C25.5728 10.0561 25.9154 10.6336 26.0658 11.4609L28.0336 11.1031C27.8107 9.87706 27.2573 8.84921 26.3378 8.09913L25.0736 9.64886ZM27.0497 10.282H23.7597V12.282H27.0497V10.282ZM24.7187 10.9987C24.6228 10.6739 24.4515 10.3286 24.1434 10.0628C23.8195 9.78333 23.43 9.666 23.0457 9.666V11.666C23.0374 11.666 23.0065 11.6646 22.9625 11.6494C22.9168 11.6336 22.873 11.6083 22.837 11.5772C22.767 11.5167 22.7753 11.4794 22.8007 11.5653L24.7187 10.9987ZM23.0457 9.666C22.4143 9.666 21.9129 9.99033 21.6014 10.4769L23.286 11.5551C23.2914 11.5466 23.2702 11.5823 23.2088 11.618C23.1436 11.6559 23.0807 11.666 23.0457 11.666V9.666ZM21.5862 10.5015C21.3094 10.9629 21.2337 11.5228 21.2337 12.052H23.2337C23.2337 11.8715 23.2478 11.74 23.2663 11.6487C23.285 11.5563 23.3041 11.5257 23.3012 11.5305L21.5862 10.5015ZM21.2337 12.052C21.2337 12.5812 21.3094 13.1411 21.5862 13.6025L23.3012 12.5735C23.3041 12.5783 23.285 12.5477 23.2663 12.4553C23.2478 12.364 23.2337 12.2325 23.2337 12.052H21.2337ZM21.6014 13.6271C21.9129 14.1137 22.4143 14.438 23.0457 14.438V12.438C23.0807 12.438 23.1436 12.4481 23.2088 12.486C23.2702 12.5217 23.2914 12.5574 23.286 12.5489L21.6014 13.6271ZM23.0457 14.438C23.43 14.438 23.8195 14.3207 24.1434 14.0412C24.4515 13.7754 24.6228 13.4301 24.7187 13.1053L22.8007 12.5387C22.7753 12.6246 22.767 12.5873 22.837 12.5268C22.873 12.4957 22.9168 12.4704 22.9625 12.4546C23.0065 12.4394 23.0374 12.438 23.0457 12.438V14.438ZM23.7597 13.822H27.0497V11.822H23.7597V13.822ZM26.0658 12.6431C25.9154 13.4704 25.5728 14.0479 25.0736 14.4551L26.3378 16.0049C27.2573 15.2548 27.8107 14.2269 28.0336 13.0009L26.0658 12.6431ZM25.0686 14.4593C24.5711 14.8705 23.942 15.098 23.1157 15.098V17.098C24.3428 17.098 25.4403 16.7469 26.3429 16.0007L25.0686 14.4593ZM23.1157 15.098C22.4745 15.098 21.9387 14.9656 21.4842 14.7245L20.5472 16.4915C21.3247 16.9038 22.189 17.098 23.1157 17.098V15.098ZM21.4898 14.7275C21.0507 14.4911 20.7106 14.1591 20.4568 13.7133L18.7186 14.7027C19.1555 15.4702 19.7674 16.0716 20.5416 16.4885L21.4898 14.7275ZM20.4656 13.7291C20.2224 13.2833 20.0837 12.7347 20.0837 12.052H18.0837C18.0837 13.012 18.281 13.9007 18.7098 14.6869L20.4656 13.7291ZM28.119 9.91L27.2467 9.42099L27.2442 9.4255L28.119 9.91ZM29.547 8.496L29.0784 7.61252L29.0729 7.61553L29.547 8.496ZM34.237 8.874L33.5998 9.64476L33.6048 9.64886L34.237 8.874ZM35.581 11.282V12.282H36.7792L36.5648 11.1031L35.581 11.282ZM32.291 11.282L31.3319 11.5653L31.5437 12.282H32.291V11.282ZM30.975 11.016L30.1327 10.4769L30.1249 10.4891L30.1175 10.5015L30.975 11.016ZM30.975 13.088L30.1175 13.6025L30.1249 13.6149L30.1327 13.6271L30.975 13.088ZM32.291 12.822V11.822H31.5437L31.3319 12.5387L32.291 12.822ZM35.581 12.822L36.5648 13.0009L36.7792 11.822H35.581V12.822ZM34.237 15.23L33.6048 14.4551L33.5998 14.4593L34.237 15.23ZM29.547 15.608L29.0729 16.4885L29.0785 16.4915L29.547 15.608ZM28.119 14.208L27.2411 14.6869L27.2454 14.6948L27.2499 14.7027L28.119 14.208ZM28.615 12.052C28.615 11.3689 28.7538 10.8277 28.9938 10.3945L27.2442 9.4255C26.8121 10.2056 26.615 11.0925 26.615 12.052H28.615ZM28.9912 10.399C29.2462 9.94429 29.5859 9.61076 30.0211 9.37647L29.0729 7.61553C28.2946 8.03457 27.6824 8.6437 27.2467 9.42099L28.9912 10.399ZM30.0155 9.37946C30.47 9.13842 31.0057 9.006 31.647 9.006V7.006C30.7202 7.006 29.8559 7.20024 29.0785 7.61254L30.0155 9.37946ZM31.647 9.006C32.4732 9.006 33.1024 9.23354 33.5998 9.64474L34.8741 8.10326C33.9715 7.35713 32.874 7.006 31.647 7.006V9.006ZM33.6048 9.64886C34.104 10.0561 34.4467 10.6336 34.5971 11.4609L36.5648 11.1031C36.3419 9.87706 35.7885 8.84921 34.8691 8.09913L33.6048 9.64886ZM35.581 10.282H32.291V12.282H35.581V10.282ZM33.25 10.9987C33.154 10.6739 32.9827 10.3286 32.6747 10.0628C32.3507 9.78333 31.9613 9.666 31.577 9.666V11.666C31.5686 11.666 31.5377 11.6646 31.4937 11.6494C31.448 11.6336 31.4043 11.6083 31.3682 11.5772C31.2982 11.5167 31.3066 11.4794 31.3319 11.5653L33.25 10.9987ZM31.577 9.666C30.9456 9.666 30.4441 9.99033 30.1327 10.4769L31.8172 11.5551C31.8226 11.5466 31.8014 11.5823 31.7401 11.618C31.6748 11.6559 31.6119 11.666 31.577 11.666V9.666ZM30.1175 10.5015C29.8406 10.9629 29.765 11.5228 29.765 12.052H31.765C31.765 11.8715 31.779 11.74 31.7975 11.6487C31.8162 11.5563 31.8354 11.5257 31.8325 11.5305L30.1175 10.5015ZM29.765 12.052C29.765 12.5812 29.8406 13.1411 30.1175 13.6025L31.8325 12.5735C31.8354 12.5783 31.8162 12.5477 31.7975 12.4553C31.779 12.364 31.765 12.2325 31.765 12.052H29.765ZM30.1327 13.6271C30.4441 14.1137 30.9456 14.438 31.577 14.438V12.438C31.6119 12.438 31.6748 12.4481 31.7401 12.486C31.8014 12.5217 31.8226 12.5574 31.8172 12.5489L30.1327 13.6271ZM31.577 14.438C31.9613 14.438 32.3507 14.3207 32.6747 14.0412C32.9827 13.7754 33.154 13.4301 33.25 13.1053L31.3319 12.5387C31.3066 12.6246 31.2982 12.5873 31.3682 12.5268C31.4043 12.4957 31.448 12.4704 31.4937 12.4546C31.5377 12.4394 31.5686 12.438 31.577 12.438V14.438ZM32.291 13.822H35.581V11.822H32.291V13.822ZM34.5971 12.6431C34.4467 13.4704 34.104 14.0479 33.6048 14.4551L34.8691 16.0049C35.7885 15.2548 36.3419 14.2269 36.5648 13.0009L34.5971 12.6431ZM33.5998 14.4593C33.1024 14.8705 32.4732 15.098 31.647 15.098V17.098C32.874 17.098 33.9715 16.7469 34.8741 16.0007L33.5998 14.4593ZM31.647 15.098C31.0057 15.098 30.47 14.9656 30.0155 14.7245L29.0785 16.4915C29.8559 16.9038 30.7202 17.098 31.647 17.098V15.098ZM30.0211 14.7275C29.5819 14.4911 29.2418 14.1591 28.988 13.7133L27.2499 14.7027C27.6868 15.4702 28.2987 16.0716 29.0729 16.4885L30.0211 14.7275ZM28.9969 13.7291C28.7537 13.2833 28.615 12.7347 28.615 12.052H26.615C26.615 13.012 26.8123 13.9007 27.2411 14.6869L28.9969 13.7291ZM44.1682 12.598V13.598H45.0355L45.1582 12.7394L44.1682 12.598ZM39.1702 12.598V11.598H38.0994L38.1726 12.6663L39.1702 12.598ZM40.7522 13.158V12.158H40.1257L39.8524 12.7217L40.7522 13.158ZM44.0422 13.158L45.0228 13.3541L45.262 12.158H44.0422V13.158ZM43.3282 14.67L42.5521 14.0394L42.5506 14.0413L43.3282 14.67ZM41.9702 15.72L42.3923 16.6266L42.399 16.6234L41.9702 15.72ZM38.0782 15.608L37.6041 16.4885L37.6097 16.4915L38.0782 15.608ZM36.6502 14.208L35.7723 14.6869L35.7767 14.6948L35.7811 14.7027L36.6502 14.208ZM36.6502 9.91L35.7779 9.42099L35.7754 9.4255L36.6502 9.91ZM38.0782 8.496L37.6097 7.61252L37.6041 7.61553L38.0782 8.496ZM42.2642 8.496L41.7901 9.37647L41.7981 9.3808L41.8063 9.38497L42.2642 8.496ZM43.6922 9.868L42.8206 10.3583L42.8265 10.3685L43.6922 9.868ZM41.0602 11.24V12.24H42.0602V11.24H41.0602ZM40.8082 10.652L40.168 11.4202L40.181 11.431L40.1943 11.4414L40.8082 10.652ZM39.2122 11.24L38.2273 11.0672L38.0215 12.24H39.2122V11.24ZM43.2102 11.982C43.2102 12.1533 43.199 12.3111 43.1783 12.4566L45.1582 12.7394C45.1934 12.4929 45.2102 12.2401 45.2102 11.982H43.2102ZM44.1682 11.598H39.1702V13.598H44.1682V11.598ZM38.1726 12.6663C38.203 13.1113 38.3186 13.6075 38.6514 14.0057C39.0181 14.4447 39.5249 14.62 40.0242 14.62V12.62C40.0018 12.62 40.0222 12.6165 40.0656 12.6348C40.0871 12.6439 40.1102 12.6566 40.1327 12.6734C40.1552 12.69 40.1729 12.7076 40.1861 12.7233C40.2122 12.7545 40.2111 12.7677 40.2011 12.7367C40.1906 12.7045 40.1754 12.6393 40.1679 12.5297L38.1726 12.6663ZM40.0242 14.62C40.3493 14.62 40.687 14.5437 40.994 14.3488C41.3 14.1547 41.5119 13.8832 41.652 13.5943L39.8524 12.7217C39.8432 12.7408 39.8591 12.7003 39.9224 12.6602C39.9514 12.6418 39.9794 12.6306 40.0015 12.6248C40.0226 12.6192 40.0318 12.62 40.0242 12.62V14.62ZM40.7522 14.158H44.0422V12.158H40.7522V14.158ZM43.0616 12.9619C42.9818 13.3608 42.8148 13.7161 42.5521 14.0394L44.1043 15.3006C44.5696 14.7279 44.8786 14.0752 45.0228 13.3541L43.0616 12.9619ZM42.5506 14.0413C42.2976 14.3542 41.9678 14.6142 41.5415 14.8166L42.399 16.6234C43.0739 16.3031 43.6495 15.8631 44.1058 15.2987L42.5506 14.0413ZM41.5482 14.8134C41.1511 14.9983 40.6996 15.098 40.1782 15.098V17.098C40.9635 17.098 41.7067 16.9457 42.3922 16.6266L41.5482 14.8134ZM40.1782 15.098C39.537 15.098 39.0012 14.9656 38.5467 14.7245L37.6097 16.4915C38.3872 16.9038 39.2515 17.098 40.1782 17.098V15.098ZM38.5523 14.7275C38.1132 14.4911 37.7731 14.1591 37.5193 13.7133L35.7811 14.7027C36.218 15.4702 36.8299 16.0716 37.6041 16.4885L38.5523 14.7275ZM37.5281 13.7291C37.2849 13.2833 37.1462 12.7347 37.1462 12.052H35.1462C35.1462 13.012 35.3435 13.9007 35.7723 14.6869L37.5281 13.7291ZM37.1462 12.052C37.1462 11.3689 37.2851 10.8277 37.525 10.3945L35.7754 9.4255C35.3434 10.2056 35.1462 11.0925 35.1462 12.052H37.1462ZM37.5225 10.399C37.7774 9.94429 38.1172 9.61076 38.5523 9.37647L37.6041 7.61553C36.8259 8.03457 36.2137 8.6437 35.7779 9.42099L37.5225 10.399ZM38.5467 9.37946C39.0012 9.13842 39.537 9.006 40.1782 9.006V7.006C39.2515 7.006 38.3872 7.20024 37.6097 7.61254L38.5467 9.37946ZM40.1782 9.006C40.8198 9.006 41.3482 9.13852 41.7901 9.37647L42.7383 7.61553C41.9669 7.20015 41.1046 7.006 40.1782 7.006V9.006ZM41.8063 9.38497C42.2504 9.61378 42.5817 9.93342 42.8206 10.3583L44.5638 9.37774C44.1308 8.60791 43.51 8.01289 42.7222 7.60703L41.8063 9.38497ZM42.8265 10.3685C43.0694 10.7887 43.2102 11.3144 43.2102 11.982H45.2102C45.2102 11.0256 45.0057 10.142 44.5579 9.3675L42.8265 10.3685ZM42.0602 11.24C42.0602 10.748 41.8893 10.226 41.4222 9.86265L40.1943 11.4414C40.1445 11.4026 40.1026 11.3481 40.0781 11.2909C40.0561 11.2397 40.0602 11.215 40.0602 11.24H42.0602ZM41.4484 9.88378C41.0738 9.57158 40.6265 9.442 40.1782 9.442V11.442C40.2114 11.442 40.2185 11.4465 40.2085 11.4432C40.2037 11.4416 40.1968 11.4388 40.1887 11.4343C40.1806 11.4298 40.1736 11.4248 40.168 11.4202L41.4484 9.88378ZM40.1782 9.442C39.7451 9.442 39.2772 9.54802 38.8868 9.87054C38.494 10.1951 38.3027 10.6369 38.2273 11.0672L40.1972 11.4128C40.2063 11.361 40.2158 11.3455 40.2121 11.3526C40.2101 11.3564 40.2051 11.3652 40.1959 11.3767C40.1866 11.3884 40.1747 11.4008 40.1606 11.4125C40.1465 11.4241 40.1327 11.4329 40.1208 11.4392C40.1091 11.4454 40.1014 11.4479 40.0997 11.4484C40.097 11.4492 40.1196 11.442 40.1782 11.442V9.442ZM39.2122 12.24H41.0602V10.24H39.2122V12.24ZM46.7192 15.734L46.3271 16.6539L46.3324 16.6562L46.7192 15.734ZM44.7872 13.27V12.27H43.6972L43.7909 13.3559L44.7872 13.27ZM47.7692 13.27L48.7566 13.112L48.6219 12.27H47.7692V13.27ZM48.0632 13.788L47.4865 14.605L47.4974 14.6127L47.5085 14.6201L48.0632 13.788ZM49.0712 13.858L49.6446 14.6772L49.6709 14.6589L49.6959 14.6389L49.0712 13.858ZM47.9232 12.962L48.1193 11.9814L48.1162 11.9808L47.9232 12.962ZM46.5092 12.598L46.1713 13.5392L46.1788 13.5419L46.5092 12.598ZM45.5432 11.926L44.7823 12.5749L44.7878 12.5813L44.7933 12.5876L45.5432 11.926ZM45.5152 9.294L44.6772 8.74832L44.674 8.75324L45.5152 9.294ZM46.6632 8.356L47.0693 9.26981L47.0763 9.26669L47.0833 9.26347L46.6632 8.356ZM50.9892 8.79L50.3306 9.5426L50.3365 9.54761L50.9892 8.79ZM52.0812 10.834V11.834H53.236L53.0709 10.691L52.0812 10.834ZM49.3232 10.834L48.346 11.0464L48.5172 11.834H49.3232V10.834ZM49.0292 10.344L48.3986 11.1201L48.4136 11.1324L48.4292 11.144L49.0292 10.344ZM48.0632 10.26L48.6179 11.092L48.6483 11.0718L48.6771 11.0494L48.0632 10.26ZM48.2312 10.89L47.8372 11.8091L47.856 11.8172L47.8752 11.8245L48.2312 10.89ZM49.1692 11.128L49.3622 10.1468L49.3612 10.1466L49.1692 11.128ZM50.6112 11.506L50.2748 12.4477H50.2748L50.6112 11.506ZM51.6332 12.234L50.8666 12.8763L50.8754 12.8865L51.6332 12.234ZM51.6612 14.894L52.4708 15.481L51.6612 14.894ZM50.4852 15.776L50.0993 14.8534L50.0933 14.856L50.4852 15.776ZM48.7072 15.098C48.0685 15.098 47.5412 14.9943 47.1059 14.8118L46.3324 16.6562C47.0545 16.959 47.8525 17.098 48.7072 17.098V15.098ZM47.1113 14.8141C46.676 14.6285 46.3672 14.389 46.1487 14.1097L44.5737 15.3423C45.0271 15.9217 45.6237 16.3541 46.3271 16.6539L47.1113 14.8141ZM46.1487 14.1097C45.9318 13.8326 45.8134 13.5314 45.7835 13.1841L43.7909 13.3559C43.8543 14.0912 44.1185 14.7607 44.5737 15.3423L46.1487 14.1097ZM44.7872 14.27H47.7692V12.27H44.7872V14.27ZM46.7817 13.428C46.8518 13.8657 47.0615 14.3049 47.4865 14.605L48.6398 12.971C48.6835 13.0019 48.7183 13.0421 48.7403 13.0809C48.7604 13.1162 48.7599 13.1326 48.7566 13.112L46.7817 13.428ZM47.5085 14.6201C47.8773 14.8659 48.2928 14.956 48.6932 14.956V12.956C48.6407 12.956 48.6132 12.9501 48.6043 12.9478C48.5969 12.9458 48.6041 12.9468 48.6179 12.9559L47.5085 14.6201ZM48.6932 14.956C48.9789 14.956 49.3289 14.8982 49.6446 14.6772L48.4977 13.0388C48.6268 12.9484 48.7248 12.956 48.6932 12.956V14.956ZM49.6959 14.6389C49.9827 14.4094 50.2112 14.0503 50.2112 13.592H48.2112C48.2112 13.4852 48.2371 13.3727 48.2912 13.2698C48.3432 13.1711 48.406 13.1095 48.4465 13.0771L49.6959 14.6389ZM50.2112 13.592C50.2112 13.307 50.1277 13.0086 49.927 12.7506C49.7356 12.5044 49.4898 12.362 49.2732 12.2795L48.5612 14.1485C48.5405 14.1406 48.4418 14.0986 48.3483 13.9784C48.2456 13.8464 48.2112 13.6996 48.2112 13.592H50.2112ZM49.2732 12.2795C48.9926 12.1726 48.5897 12.0755 48.1193 11.9814L47.727 13.9426C48.19 14.0352 48.4497 14.106 48.5612 14.1485L49.2732 12.2795ZM48.1162 11.9808C47.5741 11.8742 47.1526 11.7637 46.8395 11.6541L46.1788 13.5419C46.6124 13.6936 47.1336 13.8258 47.7301 13.9432L48.1162 11.9808ZM46.847 11.6568C46.6564 11.5884 46.4722 11.4675 46.293 11.2644L44.7933 12.5876C45.1741 13.0192 45.6339 13.3463 46.1713 13.5392L46.847 11.6568ZM46.304 11.2771C46.2337 11.1946 46.1372 11.0142 46.1372 10.61H44.1372C44.1372 11.3258 44.3113 12.0227 44.7823 12.5749L46.304 11.2771ZM46.1372 10.61C46.1372 10.308 46.2125 10.0586 46.3563 9.83476L44.674 8.75324C44.3139 9.31344 44.1372 9.94129 44.1372 10.61H46.1372ZM46.3532 9.83967C46.4939 9.62362 46.7144 9.42756 47.0693 9.26981L46.257 7.44219C45.604 7.73244 45.0591 8.16172 44.6772 8.74833L46.3532 9.83967ZM47.0833 9.26347C47.4229 9.10624 47.8826 9.006 48.4972 9.006V7.006C47.6744 7.006 46.9114 7.13909 46.243 7.44853L47.0833 9.26347ZM48.4972 9.006C49.4023 9.006 49.9699 9.22689 50.3307 9.54258L51.6477 8.03742C50.8138 7.30778 49.72 7.006 48.4972 7.006V9.006ZM50.3365 9.54761C50.7487 9.90281 51.0024 10.3602 51.0914 10.977L53.0709 10.691C52.9173 9.62775 52.4429 8.72253 51.6419 8.03239L50.3365 9.54761ZM52.0812 9.834H49.3232V11.834H52.0812V9.834ZM50.3003 10.6216C50.2121 10.2159 50.0038 9.82496 49.6292 9.544L48.4292 11.144C48.3982 11.1208 48.3733 11.0919 48.3572 11.065C48.3422 11.0401 48.3423 11.0296 48.346 11.0464L50.3003 10.6216ZM49.6598 9.56789C49.2835 9.26214 48.837 9.162 48.4272 9.162V11.162C48.4743 11.162 48.4875 11.1678 48.4773 11.1647C48.4718 11.163 48.4608 11.1592 48.4462 11.1516C48.4314 11.1439 48.4151 11.1335 48.3986 11.1201L49.6598 9.56789ZM48.4272 9.162C48.1506 9.162 47.7764 9.21614 47.4492 9.47065L48.6771 11.0494C48.5968 11.1118 48.5221 11.14 48.4771 11.1521C48.4342 11.1637 48.4138 11.162 48.4272 11.162V9.162ZM47.5085 9.42795C47.0874 9.70864 46.9372 10.1478 46.9372 10.526H48.9372C48.9372 10.5792 48.928 10.6793 48.8724 10.7966C48.8135 10.921 48.7221 11.0226 48.6179 11.092L47.5085 9.42795ZM46.9372 10.526C46.9372 10.8297 47.0374 11.1225 47.2327 11.3643C47.4148 11.5897 47.6418 11.7254 47.8372 11.8091L48.6251 9.97085C48.6275 9.97187 48.6465 9.98018 48.6751 10.0002C48.7042 10.0205 48.7459 10.0548 48.7886 10.1077C48.886 10.2282 48.9372 10.381 48.9372 10.526H46.9372ZM47.8752 11.8245C48.1554 11.9312 48.5384 12.0236 48.9772 12.1094L49.3612 10.1466C48.9412 10.0644 48.6989 9.99808 48.5872 9.95551L47.8752 11.8245ZM48.9761 12.1092C49.5142 12.215 49.9437 12.3295 50.2748 12.4477L50.9475 10.5643C50.4946 10.4025 49.9628 10.265 49.3622 10.1468L48.9761 12.1092ZM50.2748 12.4477C50.4857 12.523 50.6818 12.6556 50.8666 12.8762L52.3997 11.5918C52.0059 11.1217 51.5207 10.769 50.9475 10.5643L50.2748 12.4477ZM50.8754 12.8865C50.9613 12.9863 51.0672 13.1924 51.0672 13.634H53.0672C53.0672 12.8809 52.8837 12.1537 52.3909 11.5815L50.8754 12.8865ZM51.0672 13.634C51.0672 13.8926 50.9969 14.1066 50.8516 14.307L52.4708 15.481C52.8668 14.9347 53.0672 14.3088 53.0672 13.634H51.0672ZM50.8516 14.307C50.709 14.5036 50.4784 14.6949 50.0994 14.8534L50.871 16.6986C51.5186 16.4278 52.072 16.031 52.4708 15.481L50.8516 14.307ZM50.0933 14.856C49.7394 15.0067 49.2856 15.098 48.7072 15.098V17.098C49.4914 17.098 50.2229 16.9746 50.877 16.696L50.0933 14.856ZM54.8266 15.734L54.4345 16.6539L54.4399 16.6562L54.8266 15.734ZM52.8946 13.27V12.27H51.8047L51.8983 13.3559L52.8946 13.27ZM55.8766 13.27L56.864 13.112L56.7293 12.27H55.8766V13.27ZM56.1706 13.788L55.5939 14.605L55.6048 14.6127L55.6159 14.6201L56.1706 13.788ZM57.1786 13.858L57.752 14.6772L57.7783 14.6589L57.8033 14.6389L57.1786 13.858ZM56.0306 12.962L56.2267 11.9814L56.2236 11.9808L56.0306 12.962ZM54.6166 12.598L54.2787 13.5392L54.2862 13.5419L54.6166 12.598ZM53.6506 11.926L52.8898 12.5749L52.8952 12.5813L52.9007 12.5876L53.6506 11.926ZM53.6226 9.294L52.7846 8.74832L52.7814 8.75324L53.6226 9.294ZM54.7706 8.356L55.1767 9.26981L55.1837 9.26669L55.1907 9.26347L54.7706 8.356ZM59.0966 8.79L58.4381 9.5426L58.4439 9.54761L59.0966 8.79ZM60.1886 10.834V11.834H61.3434L61.1783 10.691L60.1886 10.834ZM57.4306 10.834L56.4534 11.0464L56.6246 11.834H57.4306V10.834ZM57.1366 10.344L56.506 11.1201L56.5211 11.1324L56.5366 11.144L57.1366 10.344ZM56.1706 10.26L56.7253 11.092L56.7557 11.0718L56.7845 11.0494L56.1706 10.26ZM56.3386 10.89L55.9447 11.8091L55.9635 11.8172L55.9826 11.8245L56.3386 10.89ZM57.2766 11.128L57.4696 10.1468L57.4686 10.1466L57.2766 11.128ZM58.7186 11.506L58.3822 12.4477H58.3823L58.7186 11.506ZM59.7406 12.234L58.974 12.8763L58.9828 12.8865L59.7406 12.234ZM59.7686 14.894L60.5782 15.481L59.7686 14.894ZM58.5926 15.776L58.2068 14.8534L58.2007 14.856L58.5926 15.776ZM56.8146 15.098C56.176 15.098 55.6486 14.9943 55.2133 14.8118L54.4399 16.6562C55.1619 16.959 55.9599 17.098 56.8146 17.098V15.098ZM55.2187 14.8141C54.7834 14.6285 54.4746 14.389 54.2561 14.1097L52.6811 15.3423C53.1345 15.9217 53.7311 16.3541 54.4345 16.6539L55.2187 14.8141ZM54.2561 14.1097C54.0392 13.8326 53.9208 13.5314 53.8909 13.1841L51.8983 13.3559C51.9617 14.0912 52.2259 14.7607 52.6811 15.3423L54.2561 14.1097ZM52.8946 14.27H55.8766V12.27H52.8946V14.27ZM54.8891 13.428C54.9592 13.8657 55.1689 14.3049 55.5939 14.605L56.7473 12.971C56.791 13.0019 56.8258 13.0421 56.8478 13.0809C56.8678 13.1162 56.8673 13.1326 56.864 13.112L54.8891 13.428ZM55.6159 14.6201C55.9847 14.8659 56.4002 14.956 56.8006 14.956V12.956C56.7481 12.956 56.7206 12.9501 56.7118 12.9478C56.7043 12.9458 56.7116 12.9468 56.7253 12.9559L55.6159 14.6201ZM56.8006 14.956C57.0863 14.956 57.4363 14.8982 57.752 14.6772L56.6051 13.0388C56.7342 12.9484 56.8322 12.956 56.8006 12.956V14.956ZM57.8033 14.6389C58.0901 14.4094 58.3186 14.0503 58.3186 13.592H56.3186C56.3186 13.4852 56.3445 13.3727 56.3987 13.2698C56.4506 13.1711 56.5134 13.1095 56.5539 13.0771L57.8033 14.6389ZM58.3186 13.592C58.3186 13.307 58.2352 13.0086 58.0344 12.7506C57.843 12.5044 57.5972 12.362 57.3806 12.2795L56.6686 14.1485C56.6479 14.1406 56.5492 14.0986 56.4557 13.9784C56.353 13.8464 56.3186 13.6996 56.3186 13.592H58.3186ZM57.3806 12.2795C57.1 12.1726 56.6971 12.0755 56.2267 11.9814L55.8345 13.9426C56.2974 14.0352 56.5572 14.106 56.6686 14.1485L57.3806 12.2795ZM56.2236 11.9808C55.6815 11.8742 55.26 11.7637 54.9469 11.6541L54.2862 13.5419C54.7198 13.6936 55.241 13.8258 55.8376 13.9432L56.2236 11.9808ZM54.9544 11.6568C54.7638 11.5884 54.5796 11.4675 54.4004 11.2644L52.9007 12.5876C53.2815 13.0192 53.7414 13.3463 54.2787 13.5392L54.9544 11.6568ZM54.4114 11.2771C54.3411 11.1946 54.2446 11.0142 54.2446 10.61H52.2446C52.2446 11.3258 52.4187 12.0227 52.8898 12.5749L54.4114 11.2771ZM54.2446 10.61C54.2446 10.308 54.3199 10.0586 54.4638 9.83476L52.7814 8.75324C52.4213 9.31344 52.2446 9.94129 52.2446 10.61H54.2446ZM54.4606 9.83967C54.6013 9.62362 54.8218 9.42756 55.1767 9.26981L54.3644 7.44219C53.7114 7.73244 53.1666 8.16172 52.7846 8.74833L54.4606 9.83967ZM55.1907 9.26347C55.5303 9.10624 55.99 9.006 56.6046 9.006V7.006C55.7818 7.006 55.0188 7.13909 54.3505 7.44853L55.1907 9.26347ZM56.6046 9.006C57.5098 9.006 58.0773 9.22689 58.4381 9.54258L59.7551 8.03742C58.9212 7.30778 57.8274 7.006 56.6046 7.006V9.006ZM58.4439 9.54761C58.8562 9.90281 59.1098 10.3602 59.1989 10.977L61.1783 10.691C61.0247 9.62775 60.5503 8.72253 59.7493 8.03239L58.4439 9.54761ZM60.1886 9.834H57.4306V11.834H60.1886V9.834ZM58.4078 10.6216C58.3196 10.2159 58.1112 9.82496 57.7366 9.544L56.5366 11.144C56.5056 11.1208 56.4808 11.0919 56.4646 11.065C56.4496 11.0401 56.4498 11.0296 56.4534 11.0464L58.4078 10.6216ZM57.7672 9.56789C57.3909 9.26214 56.9445 9.162 56.5346 9.162V11.162C56.5817 11.162 56.5949 11.1678 56.5847 11.1647C56.5792 11.163 56.5682 11.1592 56.5536 11.1516C56.5388 11.1439 56.5225 11.1335 56.506 11.1201L57.7672 9.56789ZM56.5346 9.162C56.258 9.162 55.8839 9.21614 55.5566 9.47065L56.7845 11.0494C56.7042 11.1118 56.6296 11.14 56.5846 11.1521C56.5417 11.1637 56.5212 11.162 56.5346 11.162V9.162ZM55.6159 9.42795C55.1949 9.70864 55.0446 10.1478 55.0446 10.526H57.0446C57.0446 10.5792 57.0354 10.6793 56.9798 10.7966C56.9209 10.921 56.8295 11.0226 56.7253 11.092L55.6159 9.42795ZM55.0446 10.526C55.0446 10.8297 55.1448 11.1225 55.3401 11.3643C55.5222 11.5897 55.7492 11.7254 55.9447 11.8091L56.7325 9.97085C56.7349 9.97187 56.754 9.98018 56.7826 10.0002C56.8116 10.0205 56.8534 10.0548 56.896 10.1077C56.9934 10.2282 57.0446 10.381 57.0446 10.526H55.0446ZM55.9826 11.8245C56.2628 11.9312 56.6458 12.0236 57.0846 12.1094L57.4686 10.1466C57.0487 10.0644 56.8063 9.99808 56.6946 9.95551L55.9826 11.8245ZM57.0836 12.1092C57.6216 12.215 58.0511 12.3295 58.3822 12.4477L59.0549 10.5643C58.602 10.4025 58.0702 10.265 57.4696 10.1468L57.0836 12.1092ZM58.3823 12.4477C58.5931 12.523 58.7892 12.6556 58.9741 12.8762L60.5071 11.5918C60.1133 11.1217 59.6281 10.769 59.0549 10.5643L58.3823 12.4477ZM58.9828 12.8865C59.0688 12.9863 59.1746 13.1924 59.1746 13.634H61.1746C61.1746 12.8809 60.9911 12.1537 60.4984 11.5815L58.9828 12.8865ZM59.1746 13.634C59.1746 13.8926 59.1043 14.1066 58.959 14.307L60.5782 15.481C60.9742 14.9347 61.1746 14.3088 61.1746 13.634H59.1746ZM58.959 14.307C58.8164 14.5036 58.5859 14.6949 58.2068 14.8534L58.9784 16.6986C59.626 16.4278 60.1794 16.031 60.5782 15.481L58.959 14.307ZM58.2007 14.856C57.8469 15.0067 57.393 15.098 56.8146 15.098V17.098C57.5988 17.098 58.3303 16.9746 58.9844 16.696L58.2007 14.856Z" fill="black" mask="url(#path-1-outside-1_33418_10296)"/>
</g>
<defs>
<filter id="filter0_d_33418_10296" x="0.684082" y="5.92004" width="60.5044" height="11.178" filterUnits="userSpaceOnUse" color-interpolation-filters="sRGB">
<feFlood flood-opacity="0" result="BackgroundImageFix"/>
<feColorMatrix in="SourceAlpha" type="matrix" values="0 0 0 0 0 0 0 0 0 0 0 0 0 0 0 0 0 0 127 0" result="hardAlpha"/>
<feOffset dx="1" dy="1"/>
<feComposite in2="hardAlpha" operator="out"/>
<feColorMatrix type="matrix" values="0 0 0 0 0 0 0 0 0 0 0 0 0 0 0 0 0 0 1 0"/>
<feBlend mode="normal" in2="BackgroundImageFix" result="effect1_dropShadow_33418_10296"/>
<feBlend mode="normal" in="SourceGraphic" in2="effect1_dropShadow_33418_10296" result="shape"/>
</filter>
</defs>
</svg>
