<svg width="161" height="32" viewBox="0 0 161 32" fill="none" xmlns="http://www.w3.org/2000/svg">
<path fill-rule="evenodd" clip-rule="evenodd" d="M109.775 9.30132C110.106 9.60596 110.516 9.75827 111.005 9.75827C111.494 9.75827 111.897 9.60596 112.215 9.30132C112.545 8.98344 112.711 8.59271 112.711 8.12914C112.711 7.66556 112.545 7.28146 112.215 6.97682C111.897 6.65894 111.494 6.5 111.005 6.5C110.516 6.5 110.106 6.65894 109.775 6.97682C109.458 7.28146 109.299 7.66556 109.299 8.12914C109.299 8.59271 109.458 8.98344 109.775 9.30132ZM112.373 22.0761V11.0695H109.597V22.0761H112.373ZM151.886 16.3344C151.886 16.7318 151.86 17.0894 151.807 17.4073H143.774C143.84 18.202 144.118 18.8245 144.607 19.2748C145.097 19.7251 145.698 19.9503 146.412 19.9503C147.444 19.9503 148.177 19.5066 148.614 18.6192H151.609C151.291 19.6788 150.683 20.553 149.784 21.2417C148.885 21.9172 147.781 22.2549 146.472 22.2549C145.414 22.2549 144.462 22.0232 143.616 21.5596C142.783 21.0828 142.128 20.4139 141.652 19.553C141.189 18.692 140.958 17.6987 140.958 16.5728C140.958 15.4338 141.189 14.4338 141.652 13.5728C142.115 12.7119 142.763 12.0497 143.596 11.5861C144.429 11.1225 145.387 10.8907 146.472 10.8907C147.516 10.8907 148.448 11.1159 149.268 11.5662C150.101 12.0165 150.743 12.6589 151.192 13.4934C151.655 14.3146 151.886 15.2616 151.886 16.3344ZM149.01 15.5397C148.997 14.8245 148.739 14.255 148.237 13.8311C147.734 13.394 147.12 13.1755 146.392 13.1755C145.705 13.1755 145.123 13.3874 144.647 13.8112C144.184 14.2218 143.9 14.798 143.794 15.5397H149.01ZM156.69 12.7781C157.047 12.1954 157.51 11.7384 158.079 11.4073C158.661 11.0761 159.322 10.9106 160.062 10.9106V13.8311H159.328C158.456 13.8311 157.794 14.0364 157.345 14.447C156.909 14.8576 156.69 15.5728 156.69 16.5927V22.0761H153.914V11.0695H156.69V12.7781ZM134.696 11.3874C134.074 11.0563 133.354 10.8907 132.534 10.8907C131.595 10.8907 130.742 11.1225 129.975 11.5861C129.221 12.0497 128.62 12.7119 128.17 13.5729C127.734 14.4338 127.516 15.4205 127.516 16.5331C127.516 17.659 127.734 18.659 128.17 19.5331C128.62 20.394 129.228 21.0629 129.995 21.5397C130.762 22.0166 131.608 22.255 132.534 22.255C133.34 22.255 134.054 22.0828 134.676 21.7384C135.31 21.394 135.806 20.9636 136.163 20.447V22.1556C136.163 23.1358 135.912 23.8642 135.41 24.3411C134.907 24.8311 134.253 25.0762 133.446 25.0762C132.758 25.0762 132.17 24.9238 131.681 24.6192C131.205 24.3278 130.894 23.9305 130.749 23.4272H127.992C128.124 24.6854 128.686 25.6788 129.678 26.4073C130.683 27.1358 131.965 27.5 133.525 27.5C134.689 27.5 135.681 27.2616 136.501 26.7848C137.32 26.3212 137.935 25.6854 138.345 24.8775C138.755 24.0828 138.96 23.1755 138.96 22.1556V11.0696H136.163V12.6391C135.806 12.1225 135.317 11.7053 134.696 11.3874ZM135.767 14.8444C136.031 15.3212 136.163 15.8974 136.163 16.5729C136.163 17.2484 136.031 17.8311 135.767 18.3212C135.502 18.798 135.145 19.1689 134.696 19.4338C134.246 19.6854 133.763 19.8113 133.248 19.8113C132.745 19.8113 132.269 19.6788 131.82 19.4139C131.383 19.149 131.026 18.7715 130.749 18.2815C130.484 17.7782 130.352 17.1954 130.352 16.5331C130.352 15.8709 130.484 15.3013 130.749 14.8245C131.026 14.3345 131.383 13.9636 131.82 13.7119C132.256 13.4603 132.732 13.3345 133.248 13.3345C133.763 13.3345 134.246 13.4669 134.696 13.7318C135.145 13.9835 135.502 14.3543 135.767 14.8444ZM121.206 10.9106C122.515 10.9106 123.572 11.3278 124.379 12.1623C125.186 12.9835 125.589 14.1358 125.589 15.6192V22.0762H122.812V15.9967C122.812 15.1225 122.594 14.4537 122.158 13.9901C121.721 13.5133 121.126 13.2749 120.373 13.2749C119.606 13.2749 118.997 13.5133 118.548 13.9901C118.111 14.4537 117.893 15.1225 117.893 15.9967V22.0762H115.117V11.0696H117.893V12.4404C118.264 11.9636 118.733 11.5927 119.302 11.3278C119.883 11.0497 120.518 10.9106 121.206 10.9106ZM95.4407 16.5331C95.4407 15.4205 95.6589 14.4337 96.0952 13.5728C96.5448 12.7119 97.1531 12.0496 97.92 11.5861C98.6869 11.1225 99.5397 10.8907 100.479 10.8907C101.193 10.8907 101.874 11.0496 102.521 11.3675C103.169 11.6722 103.685 12.0827 104.069 12.5993V7.37415H106.885V22.0761H104.069V20.447C103.725 20.99 103.242 21.4271 102.621 21.7582C101.999 22.0894 101.279 22.2549 100.459 22.2549C99.5331 22.2549 98.6869 22.0165 97.92 21.5397C97.1531 21.0629 96.5448 20.394 96.0952 19.5331C95.6589 18.6589 95.4407 17.6589 95.4407 16.5331ZM104.088 16.5728C104.088 15.8973 103.956 15.3212 103.692 14.8443C103.427 14.3543 103.07 13.9834 102.621 13.7318C102.171 13.4669 101.688 13.3344 101.173 13.3344C100.657 13.3344 100.181 13.4602 99.7447 13.7119C99.3084 13.9635 98.9513 14.3344 98.6737 14.8245C98.4092 15.3013 98.277 15.8708 98.277 16.5331C98.277 17.1953 98.4092 17.7781 98.6737 18.2814C98.9513 18.7715 99.3084 19.149 99.7447 19.4139C100.194 19.6788 100.67 19.8112 101.173 19.8112C101.688 19.8112 102.171 19.6854 102.621 19.4337C103.07 19.1688 103.427 18.798 103.692 18.3212C103.956 17.8311 104.088 17.2483 104.088 16.5728ZM85.5299 21.5596C86.3761 22.0232 87.3282 22.255 88.386 22.255C89.457 22.255 90.4223 22.0232 91.2817 21.5596C92.1544 21.0828 92.842 20.4139 93.3445 19.553C93.8602 18.6921 94.118 17.6987 94.118 16.5729C94.118 15.4471 93.8668 14.4537 93.3643 13.5928C92.8751 12.7318 92.2007 12.0696 91.3412 11.606C90.4818 11.1292 89.5231 10.8908 88.4653 10.8908C87.4075 10.8908 86.4488 11.1292 85.5894 11.606C84.7299 12.0696 84.0489 12.7318 83.5465 13.5928C83.0572 14.4537 82.8126 15.4471 82.8126 16.5729C82.8126 17.6987 83.0506 18.6921 83.5266 19.553C84.0159 20.4139 84.6836 21.0828 85.5299 21.5596ZM89.7942 19.4735C89.3578 19.7119 88.8884 19.8312 88.386 19.8312C87.5926 19.8312 86.9315 19.553 86.4026 18.9967C85.8869 18.4272 85.629 17.6192 85.629 16.5729C85.629 15.5265 85.8935 14.7252 86.4224 14.1689C86.9645 13.5994 87.6323 13.3146 88.4256 13.3146C89.219 13.3146 89.8867 13.5994 90.4289 14.1689C90.9842 14.7252 91.2619 15.5265 91.2619 16.5729C91.2619 17.2749 91.1297 17.8709 90.8652 18.361C90.6008 18.851 90.2438 19.2219 89.7942 19.4735ZM78.2643 12.7782C78.6214 12.1954 79.0841 11.7384 79.6527 11.4073C80.2345 11.0762 80.8957 10.9106 81.6361 10.9106V13.8311H80.9023C80.0296 13.8311 79.3684 14.0364 78.9189 14.447C78.4825 14.8576 78.2643 15.5729 78.2643 16.5927V22.0762H75.4876V11.0696H78.2643V12.7782ZM70.7838 11.4669C70.1359 11.096 69.3954 10.9106 68.5624 10.9106C67.8351 10.9106 67.174 11.0496 66.579 11.3278C65.984 11.5927 65.5079 11.9635 65.1509 12.4404V7.37414H62.3742V22.0761H65.1509V15.9967C65.1509 15.1225 65.3691 14.4536 65.8055 13.99C66.255 13.5132 66.8633 13.2748 67.6302 13.2748C68.3839 13.2748 68.9789 13.5132 69.4153 13.99C69.8516 14.4536 70.0698 15.1225 70.0698 15.9967V22.0761H72.8465V15.6192C72.8465 14.6258 72.6614 13.7781 72.2912 13.0761C71.9342 12.3609 71.4317 11.8245 70.7838 11.4669ZM49.7292 16.5729C49.7292 15.4338 49.9606 14.4404 50.4234 13.5927C50.8862 12.7318 51.5275 12.0696 52.3473 11.606C53.1671 11.1292 54.1059 10.8907 55.1637 10.8907C56.5257 10.8907 57.6496 11.2351 58.5355 11.9239C59.4347 12.5994 60.0363 13.553 60.3404 14.7848H57.3455C57.1868 14.308 56.9158 13.9371 56.5323 13.6722C56.1621 13.3941 55.6993 13.255 55.1439 13.255C54.3505 13.255 53.7225 13.5464 53.2597 14.1292C52.7969 14.6987 52.5655 15.5133 52.5655 16.5729C52.5655 17.6192 52.7969 18.4338 53.2597 19.0166C53.7225 19.5861 54.3505 19.8709 55.1439 19.8709C56.2678 19.8709 57.0017 19.3676 57.3455 18.3609H60.3404C60.0363 19.553 59.4347 20.5 58.5355 21.202C57.6364 21.904 56.5125 22.255 55.1637 22.255C54.1059 22.255 53.1671 22.0232 52.3473 21.5596C51.5275 21.0828 50.8862 20.4205 50.4234 19.5729C49.9606 18.7119 49.7292 17.7119 49.7292 16.5729ZM40.5187 21.7186C41.2988 22.0497 42.1715 22.2152 43.1368 22.2152C44.1549 22.2152 45.0342 22.0298 45.7747 21.659C46.5152 21.2748 47.0771 20.7649 47.4606 20.1292C47.844 19.4934 48.0358 18.8047 48.0358 18.0629C48.0358 17.202 47.8308 16.5066 47.4209 15.9768C47.011 15.447 46.5218 15.0497 45.9532 14.7848C45.3846 14.5199 44.6508 14.255 43.7516 13.9901C43.0905 13.7914 42.5748 13.6192 42.2046 13.4735C41.8476 13.3146 41.5434 13.1159 41.2922 12.8775C41.0542 12.6259 40.9352 12.3146 40.9352 11.9437C40.9352 11.4139 41.0939 11.01 41.4112 10.7318C41.7418 10.4537 42.1781 10.3146 42.7203 10.3146C43.3417 10.3146 43.8376 10.4735 44.2078 10.7914C44.5913 11.0961 44.7962 11.4868 44.8227 11.9636H47.8771C47.7845 10.7186 47.2887 9.75169 46.3896 9.06294C45.5036 8.36096 44.3466 8.00997 42.9186 8.00997C41.9666 8.00997 41.1203 8.17553 40.3798 8.50665C39.6394 8.82453 39.0642 9.28811 38.6543 9.89738C38.2444 10.5067 38.0394 11.2219 38.0394 12.0431C38.0394 12.9172 38.2378 13.6192 38.6344 14.149C39.0443 14.6656 39.527 15.0563 40.0823 15.3212C40.6509 15.5729 41.3848 15.8311 42.2839 16.096C42.945 16.2815 43.4607 16.4537 43.831 16.6126C44.2144 16.7583 44.5318 16.9636 44.783 17.2285C45.0342 17.4934 45.1598 17.8311 45.1598 18.2417C45.1598 18.7451 44.9747 19.1556 44.6045 19.4735C44.2343 19.7782 43.7252 19.9305 43.0773 19.9305C42.4426 19.9305 41.9401 19.7649 41.5699 19.4338C41.2129 19.1027 41.0145 18.6523 40.9749 18.0828H37.9998C38.013 18.9305 38.2444 19.6656 38.6939 20.2881C39.1435 20.9106 39.7518 21.3874 40.5187 21.7186Z" fill="#1A1A1A"/>
<path d="M28.4964 9.46046C28.4494 8.87158 28.2446 8.30831 27.916 7.83038C27.8819 7.76637 27.8435 7.70236 27.7965 7.64689L24.6174 3.9728C24.4852 3.81918 24.2803 3.74237 24.0755 3.77224C23.8749 3.80211 23.7 3.93439 23.6189 4.12215L23.3373 4.77077L15.7629 0.405387C15.413 0.204827 15.029 0.0768102 14.6406 0.0256034C14.3846 -0.00853447 14.1243 -0.00853447 13.8683 0.0256034C13.4757 0.0768102 13.0959 0.20056 12.746 0.405387L1.63411 6.81478C1.6085 6.83184 1.5829 6.84891 1.5573 6.86598L1.45062 6.92999C0.554497 7.44633 -0.000244141 8.41072 -0.000244141 9.44339V22.5481C-0.000244141 23.5807 0.554497 24.5451 1.45062 25.0615L1.46768 25.07C1.46768 25.07 1.49329 25.0871 1.50609 25.0956L12.618 31.5093C12.618 31.5093 12.6478 31.5221 12.6606 31.5306L12.7972 31.6117C13.2453 31.872 13.7488 32 14.2481 32C14.7473 32 15.2509 31.872 15.6989 31.6117L15.8355 31.5349C15.8355 31.5349 15.8696 31.5178 15.8867 31.5093L26.9943 25.0956C26.9943 25.0956 27.0242 25.0743 27.0412 25.0657L27.054 25.0572C27.9501 24.5409 28.5049 23.5765 28.5049 22.5438V22.4926C28.5049 22.4926 28.5049 22.4841 28.5049 22.4798V9.65249C28.5049 9.58421 28.5006 9.5202 28.4921 9.45193L28.4964 9.46046ZM2.20592 7.86878L13.3605 1.42952C13.5653 1.31004 13.7915 1.2375 14.0219 1.20763C14.0987 1.19909 14.1755 1.19483 14.2523 1.19483C14.3249 1.19483 14.3974 1.19909 14.47 1.20763C14.47 1.20763 14.4785 1.20763 14.4828 1.20763C14.7132 1.2375 14.9393 1.31004 15.1442 1.42952L22.8593 5.88452L20.7471 10.7662L18.1184 7.73223C17.9862 7.57861 17.7813 7.5018 17.5765 7.53167C17.3759 7.56154 17.201 7.69383 17.1199 7.88158L14.0347 15.0079C13.7915 14.978 13.5525 14.9055 13.3349 14.7774L2.23152 8.36378C2.09924 8.28697 2.08217 8.15895 2.08217 8.10775C2.08217 8.06081 2.09924 7.94986 2.20165 7.87305L2.20592 7.86878ZM27.3186 22.4969C27.3186 23.1242 26.9815 23.7088 26.4481 24.0416L15.2765 30.4937C15.1527 30.5534 15.0418 30.5107 14.9991 30.4851C14.9564 30.4595 14.8497 30.3827 14.8497 30.2291V17.4018C14.8497 16.7574 15.1911 16.16 15.7459 15.8314L21.3829 12.5755C21.3829 12.5755 21.3829 12.5755 21.3871 12.5755L26.8791 9.40499C26.9303 9.37938 26.9772 9.36658 27.0199 9.36658C27.0882 9.36658 27.1436 9.39219 27.1692 9.40925C27.2076 9.43059 27.2802 9.49033 27.3058 9.60128C27.3058 9.64395 27.3143 9.68662 27.3143 9.7293V22.5054L27.3186 22.4969Z" fill="#1A1A1A"/>
<path d="M22.957 22.8297L22.3596 22.7657V22.0146C22.3596 21.7671 22.1591 21.5666 21.9116 21.5666C21.6641 21.5666 21.4635 21.7671 21.4635 22.0146V23.0174L20.8618 23.8282C20.7167 24.0245 20.7551 24.3061 20.9557 24.4512C21.0368 24.511 21.1307 24.5408 21.2203 24.5408C21.3568 24.5408 21.4934 24.4768 21.5787 24.3616L22.1164 23.6362L22.8589 23.713C22.8589 23.713 22.8888 23.713 22.9058 23.713C23.132 23.713 23.324 23.5423 23.3496 23.3119C23.3752 23.0686 23.196 22.8467 22.9528 22.8211L22.957 22.8297Z" fill="#1A1A1A"/>
<path d="M19.185 17.1884C18.673 17.133 18.1268 17.389 17.6915 17.8883C16.9575 18.7246 16.7271 20.0091 17.1709 20.807C17.3843 21.1954 17.7299 21.4343 18.1396 21.477C18.1865 21.4813 18.2334 21.4855 18.2761 21.4855C18.7455 21.4855 19.232 21.2338 19.6331 20.7772C20.3671 19.9408 20.5975 18.6564 20.158 17.8584C19.9446 17.4701 19.599 17.2311 19.1893 17.1884H19.185ZM18.9589 20.1926C18.7242 20.4614 18.4425 20.615 18.2334 20.5937C18.114 20.5809 18.0243 20.5126 17.9518 20.3803C17.6958 19.9152 17.8878 19.0233 18.3657 18.4771C18.5876 18.2254 18.8437 18.076 19.0485 18.076C19.0613 18.076 19.0784 18.076 19.0912 18.076C19.2106 18.0888 19.3003 18.1571 19.3728 18.2894C19.6288 18.7545 19.4368 19.6464 18.9589 20.1926Z" fill="#1A1A1A"/>
<path d="M24.0456 14.3721C23.5336 14.3166 22.9916 14.5726 22.5521 15.0719C21.8181 15.9083 21.5877 17.1927 22.0272 17.9907C22.2406 18.379 22.5862 18.618 22.9959 18.6606C23.0428 18.6649 23.0898 18.6692 23.1324 18.6692C23.6018 18.6692 24.0883 18.4174 24.4894 17.9608C25.2234 17.1244 25.4538 15.84 25.01 15.042C24.7967 14.6537 24.451 14.4147 24.0414 14.3721H24.0456ZM23.8195 17.3719C23.5848 17.6408 23.3031 17.7944 23.094 17.773C22.9745 17.7602 22.8849 17.692 22.8124 17.5597C22.5564 17.0945 22.7484 16.2027 23.2263 15.6565C23.4482 15.4047 23.7042 15.2554 23.9091 15.2554C23.9219 15.2554 23.9389 15.2554 23.9517 15.2554C24.0712 15.2682 24.1608 15.3364 24.2334 15.4687C24.4894 15.9339 24.2974 16.8257 23.8195 17.3719Z" fill="#1A1A1A"/>
</svg>
