<svg width="18" height="18" viewBox="0 0 18 18" fill="none" xmlns="http://www.w3.org/2000/svg">
<g id="Group 48097663">
<path id="Union" fill-rule="evenodd" clip-rule="evenodd" d="M0 2.66598C0 1.60323 0.861528 0.741699 1.92428 0.741699H16.0757C17.1385 0.741699 18 1.60323 18 2.66598V6.19381C18 7.25656 17.1385 8.11809 16.0757 8.11809H14.4722V15.1341C14.4722 16.3075 13.521 17.2588 12.3475 17.2588H5.61253C4.43908 17.2588 3.48781 16.3075 3.48781 15.1341V8.11809H1.92428C0.861528 8.11809 0 7.25656 0 6.19381V2.66598ZM3.48781 6.91542V5.01154H2.92651C2.59441 5.01154 2.32518 4.74231 2.32518 4.4102C2.32518 4.07809 2.59441 3.80887 2.92651 3.80887H15.0735C15.4056 3.80887 15.6748 4.07809 15.6748 4.4102C15.6748 4.74231 15.4056 5.01154 15.0735 5.01154H14.4722V6.91542H16.0757C16.4743 6.91542 16.7973 6.59234 16.7973 6.19381V2.66598C16.7973 2.26744 16.4743 1.94437 16.0757 1.94437H1.92428C1.52575 1.94437 1.20267 2.26744 1.20267 2.66598V6.19381C1.20267 6.59235 1.52575 6.91542 1.92428 6.91542H3.48781ZM4.69049 15.1341V5.03162H13.2696V15.1341C13.2696 15.6433 12.8567 16.0561 12.3475 16.0561H5.61253C5.1033 16.0561 4.69049 15.6433 4.69049 15.1341ZM6.26967 10.8804C6.50451 10.6455 6.88525 10.6455 7.12009 10.8804L8.41872 12.179V7.91751C8.41872 7.5854 8.68795 7.31617 9.02006 7.31617C9.35217 7.31617 9.6214 7.5854 9.6214 7.91751V12.1389L10.8799 10.8804C11.1148 10.6455 11.4955 10.6455 11.7303 10.8804C11.9652 11.1152 11.9652 11.496 11.7303 11.7308L9 14.4611L6.26967 11.7308C6.03483 11.496 6.03483 11.1152 6.26967 10.8804Z" fill="#1A1A1A"/>
</g>
</svg>
