<svg width="24" height="24" viewBox="0 0 24 24" fill="none" xmlns="http://www.w3.org/2000/svg">
<path fill-rule="evenodd" clip-rule="evenodd" d="M5.25382 15.349C4.90735 15.7223 4.91816 16.3028 5.27829 16.6629L7.33615 18.7208C7.69627 19.0809 8.27672 19.0917 8.65 18.7452L11.9876 15.6475L15.3484 18.749C15.7219 19.0937 16.3009 19.082 16.6602 18.7227L18.7218 16.6611C19.0812 16.3017 19.0928 15.7227 18.7481 15.3492L15.6572 12L18.748 8.65078C19.0927 8.27728 19.0811 7.69829 18.7217 7.33891L16.6601 5.27737C16.3008 4.91798 15.7218 4.90638 15.3483 5.25107L11.9876 8.35255L8.65011 5.2548C8.27683 4.90833 7.69637 4.91914 7.33624 5.27927L5.27838 7.33713C4.91826 7.69725 4.90745 8.2777 5.2539 8.65098L8.36226 12L5.25382 15.349Z" fill="white"/>
</svg>
