<svg width="16" height="16" viewBox="0 0 16 16" fill="none" xmlns="http://www.w3.org/2000/svg">
<g clip-path="url(#clip0_31504_10)">
<rect x="1" y="1" width="14" height="14" rx="2" fill="#FEE14D"/>
<path d="M1 3C1 1.89543 1.89543 1 3 1H13C14.1046 1 15 1.89543 15 3V11C15 12.1046 14.1046 13 13 13H3C1.89543 13 1 12.1046 1 11V3Z" fill="url(#paint0_linear_31504_10)"/>
<path fill-rule="evenodd" clip-rule="evenodd" d="M6.75 11.5C6.75 11.7761 6.97386 12 7.25 12H8.75C9.02614 12 9.25 11.7761 9.25 11.5V9.25H11.5C11.7761 9.25 12 9.02614 12 8.75V7.25C12 6.97386 11.7761 6.75 11.5 6.75L9.25 6.75V4.5C9.25 4.22386 9.02614 4 8.75 4H7.25C6.97386 4 6.75 4.22386 6.75 4.5V6.75L4.5 6.75C4.22386 6.75 4 6.97386 4 7.25V8.75C4 9.02614 4.22386 9.25 4.5 9.25H6.75V11.5Z" fill="#A9431D"/>
</g>
<rect x="1.35" y="1.35" width="13.3" height="13.3" rx="1.65" stroke="#2D0513" stroke-width="0.7"/>
<defs>
<linearGradient id="paint0_linear_31504_10" x1="8" y1="1" x2="8" y2="14" gradientUnits="userSpaceOnUse">
<stop stop-color="#E99245"/>
<stop offset="1" stop-color="#EEBF4B"/>
</linearGradient>
<clipPath id="clip0_31504_10">
<rect x="1" y="1" width="14" height="14" rx="2" fill="white"/>
</clipPath>
</defs>
</svg>
