<svg width="60" height="10" viewBox="0 0 60 10" fill="none" xmlns="http://www.w3.org/2000/svg">
<path d="M0.133297 9.154V2.462H1.3653V1.272H2.5973V0.0679998H4.3893V1.272H5.6213V2.462H6.8673V9.154H5.0753V6.76H1.9113V9.154H0.133297ZM1.9113 4.842H5.0753V3.176H3.8433V1.986H3.1433V3.176H1.9113V4.842ZM12.6036 9.154V7.964H11.3716V3.666H12.6036V2.462H16.8596V3.666H18.1056V5.556H16.3136V4.366H13.1496V7.25H16.3136V6.046H18.1056V7.964H16.8596V9.154H12.6036ZM19.5337 9.154V0.0679998H21.3117V3.666H21.9977V2.462H25.0217V3.666H26.2677V9.154H24.4757V4.366H22.5437V5.556H21.3117V9.154H19.5337ZM28.9278 9.154V7.964H27.6958V3.666H28.9278V2.462H33.1838V3.666H34.4298V7.25H35.6758V9.154H33.8838V7.964H33.1838V9.154H28.9278ZM29.4738 7.25H32.6378V4.366H29.4738V7.25ZM36.9653 9.154V2.462H42.4533V3.666H43.6993V9.154H41.9073V4.366H38.7433V9.154H36.9653ZM46.3594 9.154V7.964H45.1274V3.666H46.3594V2.462H50.6154V3.666H51.8614V5.556H50.0694V4.366H46.9054V7.25H50.0694V6.046H51.8614V7.964H50.6154V9.154H46.3594ZM54.3712 9.154V7.964H53.1392V3.666H54.3712V2.462H58.6272V3.666H59.8732V5.556H58.0812V4.366H54.9172V4.842H57.3952V6.76H54.9172V7.25H58.0812V6.032H59.8732V7.95H58.6272V9.154H54.3712Z" fill="white"/>
</svg>
