<svg width="68" height="12" viewBox="0 0 68 12" fill="none" xmlns="http://www.w3.org/2000/svg">
<path d="M2.59827 9.154V7.964H1.36627V4.366H0.134273V2.462H1.36627V0.0679998H3.14427V2.462H6.86827V4.366H3.14427V7.25H6.32227V6.046H8.11427V7.964H6.86827V9.154H2.59827ZM10.6358 9.154V7.964H9.4038V3.666H10.6358V2.462H14.8918V3.666H16.1378V7.964H14.8918V9.154H10.6358ZM11.1818 7.25H14.3458V4.366H11.1818V7.25ZM20.6421 9.154V2.462H22.4201V7.25H24.3521V2.462H26.1301V7.25H28.0761V2.462H29.8401V7.964H28.6221V9.154H25.5841V7.964H24.8981V9.154H20.6421ZM31.5522 9.154V2.462H33.3302V9.154H31.5522ZM31.5522 1.986V0.0679998H33.3302V1.986H31.5522ZM34.7651 9.154V2.462H40.2531V3.666H41.4991V9.154H39.7071V4.366H36.5431V9.154H34.7651ZM47.2354 9.154V7.964H46.0034V0.0679998H47.7814V2.462H51.4914V3.666H52.7374V7.964H51.4914V9.154H47.2354ZM47.7814 7.25H50.9454V4.366H47.7814V7.25ZM54.439 9.154V2.462H56.217V9.154H54.439ZM54.439 1.986V0.0679998H56.217V1.986H54.439ZM58.8839 11.548V10.358H57.6519V8.454H59.4299V9.644H62.6079V7.964H58.8839V6.76H57.6519V3.666H58.8839V2.462H63.1539V3.666H64.3859V10.358H63.1539V11.548H58.8839ZM59.4299 6.046H62.6079V4.366H59.4299V6.046ZM66.0874 6.76V0.0679998H67.8654V6.76H66.0874ZM66.0874 9.154V7.25H67.8654V9.154H66.0874Z" fill="white"/>
</svg>
