<svg xmlns="http://www.w3.org/2000/svg" width="71" height="60" viewBox="0 0 71 60" fill="none">
  <path fill-rule="evenodd" clip-rule="evenodd" d="M57.3672 0H60.6928V3.32564H64.0185L64.0185 6.65127H67.3441V22.1709H64.0185L64.0185 28.4065H60.6928V31.7321H57.3672V35.0577H54.0416V38.3834V41.709V43.9261H57.3672V60H54.0416V53.3487H50.7159V50.0231H32.1478V53.3487L28.8222 53.3487V60H25.9122V53.3487V50.0231V45.0346L22.8637 45.0346V41.709H19.5381V38.3834H16.2125V41.709H12.8868V45.0346H9.56119V41.709V38.3834H6.65126V35.0577H3.32562V19.3995L9.97689 19.3995V16.0739H25.7737V19.3995L32.4249 19.3995L32.4249 35.0577V38.3834H35.7506V35.0577H39.0762V31.7321H41.5704V28.4065H57.3672V25.0808H60.6928V18.9838H64.0185V9.69977H60.6928V6.37413H57.3672V0Z" fill="#CBCBCB"/>
  <path fill-rule="evenodd" clip-rule="evenodd" d="M13.3026 12.748H9.97693V16.0737H13.3026V12.748ZM25.7736 12.7483H29.0992V19.3995H25.7736V12.7483Z" fill="#9F7577"/>
  <rect x="13.4411" y="28.4062" width="3.32564" height="3.32564" fill="#FD8C83"/>
  <rect width="3.32564" height="8.31409" transform="matrix(-1 0 0 1 16.2125 51.686)" fill="#9B9B9B"/>
  <rect width="3.32564" height="3.32564" transform="matrix(-1 0 0 1 60.6929 31.7319)" fill="#424242"/>
  <path fill-rule="evenodd" clip-rule="evenodd" d="M25.9122 51.686H16.2125V53.3489H25.9122V51.686ZM47.3903 53.3489H44.0647V56.6745V60.0001H47.3903H50.7159V56.6745V53.3489H47.3903Z" fill="#424242"/>
  <rect width="3.32564" height="3.32564" transform="matrix(-1 0 0 1 64.0185 28.4062)" fill="#424242"/>
  <rect width="9.5612" height="3.32564" transform="matrix(-1 0 0 1 25.9122 48.3604)" fill="white"/>
  <path fill-rule="evenodd" clip-rule="evenodd" d="M16.2125 38.3833H19.5381V41.7089H22.8637V45.0346H25.9122V48.3602V51.6858H16.2125V48.3602H12.8868V45.0346V41.7089H16.2125V38.3833Z" fill="white"/>
  <path fill-rule="evenodd" clip-rule="evenodd" d="M64.0185 0H60.6928V3.32564H64.0185V6.65127H67.3441V22.1709L64.0185 22.1709V28.4065H67.3441V22.1709H70.6697V6.65127H67.3441V3.32564H64.0185V0ZM57.3672 35.0577H54.0415V43.9261H57.3672V60H60.6928V43.9261L57.3672 43.9261V35.0577ZM13.3025 9.42263H9.97688V12.7483H6.65125V16.0739V19.3995H9.97688V16.0739V12.7483H13.3025V16.0739H16.6282V12.7483H13.3025V9.42263ZM25.7736 9.42263H29.0993V12.7483H25.7736V9.42263ZM25.7736 12.7483V16.0739H22.448V12.7483H25.7736ZM32.4249 18.4296L32.4249 16.0739V12.7483H29.0993V16.0739V19.3995H32.4249L32.4249 21.7552H35.7506V18.4296H32.4249ZM39.0762 25.0808H35.7506V28.4065H39.0762V25.0808ZM35.7506 31.7321H39.0762V35.0577H35.7506V31.7321ZM35.7506 35.0577V38.3834H32.4249V35.0577H35.7506ZM32.1478 53.3487H28.8221V60H32.1478V53.3487ZM32.1478 53.3487L32.1478 50.0231H50.7159V53.3487L32.1478 53.3487ZM16.2124 53.3487H19.5381V60H16.2124V53.3487ZM12.8868 45.0346H9.56118V48.3603H12.8868L12.8868 51.6859H16.2124V48.3603H12.8868V45.0346Z" fill="#6B6B6B"/>
  <path fill-rule="evenodd" clip-rule="evenodd" d="M10.1155 21.7554H6.78984V25.081H10.1155V21.7554ZM0 21.7555H3.32564V25.0812H0V21.7555ZM0 28.2681H3.32564V31.5937H0V28.2681ZM13.3025 25.081H16.6282V28.4066H13.4411V31.7323H10.1155V28.4066H13.3025V25.081ZM16.6282 28.4066H19.9538V31.7323H16.6282V28.4066ZM26.1894 21.7554H22.8637V25.081H26.1894V21.7554ZM41.5704 21.7554H32.4249V25.081H41.5704V21.7554ZM32.4249 28.4066H41.5704V31.7323H32.4249V28.4066Z" fill="#553530"/>
  <rect opacity="0.4" width="3.32564" height="3.32564" transform="matrix(-1 0 0 1 35.7506 25.0811)" fill="#CBCBCB"/>
  <rect opacity="0.4" width="3.32564" height="3.32564" transform="matrix(-1 0 0 1 35.7506 31.7319)" fill="#CBCBCB"/>
</svg>