<svg width="99" height="76" viewBox="0 0 99 76" fill="none" xmlns="http://www.w3.org/2000/svg">
<path d="M15.2 0H22.8V7.6H15.2V0Z" fill="#691407"/>
<path d="M7.6001 30.4H15.2001V38H7.6001V30.4Z" fill="#691407"/>
<path d="M30.3999 38H37.9999V45.6H30.3999V38Z" fill="#691407"/>
<path d="M68.3999 38H60.7999V45.6H68.3999V38Z" fill="#691407"/>
<path d="M91.2 30.4H83.6V38H91.2V30.4Z" fill="#691407"/>
<path d="M83.6001 0H76.0001V7.6H83.6001V0Z" fill="#691407"/>
<path d="M15.2 7.59998H22.8V15.2H15.2V7.59998Z" fill="#691407"/>
<path d="M7.6001 38H15.2001V45.6H7.6001V38Z" fill="#691407"/>
<path d="M30.3999 45.6H37.9999V53.2H30.3999V45.6Z" fill="#691407"/>
<path d="M68.3999 45.6H60.7999V53.2H68.3999V45.6Z" fill="#691407"/>
<path d="M53.2 53.2H45.6V60.8H53.2V53.2Z" fill="#691407"/>
<path d="M45.6001 60.8H38.0001V68.4H45.6001V60.8Z" fill="#691407"/>
<path d="M60.8 60.8H53.2V68.4H60.8V60.8Z" fill="#691407"/>
<path d="M91.2 38H83.6V45.6H91.2V38Z" fill="#691407"/>
<path d="M83.6001 7.59998H76.0001V15.2H83.6001V7.59998Z" fill="#691407"/>
<path d="M15.2 15.2H22.8V22.8H15.2V15.2Z" fill="#691407"/>
<path d="M7.6001 45.6H15.2001V53.2H7.6001V45.6Z" fill="#691407"/>
<path d="M91.2 45.6H83.6V53.2H91.2V45.6Z" fill="#691407"/>
<path d="M83.6001 15.2H76.0001V22.8H83.6001V15.2Z" fill="#691407"/>
<path d="M15.2 22.8H22.8V30.4H15.2V22.8Z" fill="#691407"/>
<path d="M7.6001 53.2H15.2001V60.8H7.6001V53.2Z" fill="#691407"/>
<path d="M91.2 53.2H83.6V60.8H91.2V53.2Z" fill="#691407"/>
<path d="M83.6001 22.8H76.0001V30.4H83.6001V22.8Z" fill="#691407"/>
<path d="M22.8 0H30.4V7.6H22.8V0Z" fill="#691407"/>
<path d="M0 30.4H7.6V38H0V30.4Z" fill="#691407"/>
<path d="M98.8 30.4H91.2V38H98.8V30.4Z" fill="#691407"/>
<path d="M0 45.6H7.6V53.2H0V45.6Z" fill="#691407"/>
<path d="M98.8 45.6H91.2V53.2H98.8V45.6Z" fill="#691407"/>
<path d="M15.2 60.8H22.8V68.4H15.2V60.8Z" fill="#691407"/>
<path d="M22.8 68.4H30.4V76H22.8V68.4Z" fill="#691407"/>
<path d="M30.3999 68.4H37.9999V76H30.3999V68.4Z" fill="#691407"/>
<path d="M7.80005 68.3999H15.4V75.9999H7.80005V68.3999Z" fill="#FFDE88"/>
<path d="M15.3999 68.3999H22.9999V75.9999H15.3999V68.3999Z" fill="#FFDE88"/>
<path d="M38 68.4H45.6V76H38V68.4Z" fill="#691407"/>
<path d="M45.6001 68.4H53.2001V76H45.6001V68.4Z" fill="#691407"/>
<path d="M53.2 68.4H60.8V76H53.2V68.4Z" fill="#691407"/>
<path d="M60.8 68.4H68.4V76H60.8V68.4Z" fill="#691407"/>
<path d="M68.3999 68.4H75.9999V76H68.3999V68.4Z" fill="#691407"/>
<path d="M75.8 68.3999H83.4V75.9999H75.8V68.3999Z" fill="#FFDE88"/>
<path d="M83.3999 68.3999H90.9999V75.9999H83.3999V68.3999Z" fill="#FFDE88"/>
<path d="M83.6001 60.8H76.0001V68.4H83.6001V60.8Z" fill="#691407"/>
<path d="M76 0H68.4V7.6H76V0Z" fill="#691407"/>
<path d="M30.3999 7.59998H37.9999V15.2H30.3999V7.59998Z" fill="#691407"/>
<path d="M68.3999 7.59998H60.7999V15.2H68.3999V7.59998Z" fill="#691407"/>
<path d="M38 15.2H45.6V22.8H38V15.2Z" fill="#691407"/>
<path d="M45.6001 15.2H53.2001V22.8H45.6001V15.2Z" fill="#691407"/>
<path d="M53.2 15.2H60.8V22.8H53.2V15.2Z" fill="#691407"/>
<path d="M22.8 7.59998H30.4V15.2H22.8V7.59998Z" fill="#FFDE88"/>
<path d="M76 7.59998H68.4V15.2H76V7.59998Z" fill="#FFDE88"/>
<path d="M22.8 15.2H30.4V22.8H22.8V15.2Z" fill="#FFDE88"/>
<path d="M30.3999 53.2H37.9999V60.8H30.3999V53.2Z" fill="#FFDE88"/>
<path d="M68.3999 53.2H60.7999V60.8H68.3999V53.2Z" fill="#FFDE88"/>
<path d="M30.3999 60.8H37.9999V68.4H30.3999V60.8Z" fill="#FFDE88"/>
<path d="M68.3999 60.8H60.7999V68.4H68.3999V60.8Z" fill="#FFDE88"/>
<path d="M38 53.2H45.6V60.8H38V53.2Z" fill="#FFDE88"/>
<path d="M60.8 53.2H53.2V60.8H60.8V53.2Z" fill="#FFDE88"/>
<path d="M76 15.2H68.4V22.8H76V15.2Z" fill="#FFDE88"/>
<path d="M30.3999 15.2H37.9999V22.8H30.3999V15.2Z" fill="#DD532A"/>
<path d="M30.3999 30.4H37.9999V38H30.3999V30.4Z" fill="#DD532A"/>
<path d="M68.3999 30.4H60.7999V38H68.3999V30.4Z" fill="#DD532A"/>
<path d="M53.2 45.6H45.6V53.2H53.2V45.6Z" fill="#DD532A"/>
<path d="M53.2 60.8H45.6V68.4H53.2V60.8Z" fill="#DD532A"/>
<path d="M22.8 45.6H30.4V53.2H22.8V45.6Z" fill="#DD532A"/>
<path d="M76 45.6H68.4V53.2H76V45.6Z" fill="#DD532A"/>
<path d="M68.3999 15.2H60.7999V22.8H68.3999V15.2Z" fill="#DD532A"/>
<path d="M15.2 30.4H22.8V38H15.2V30.4Z" fill="#FF911E"/>
<path d="M83.6001 30.4H76.0001V38H83.6001V30.4Z" fill="#FF911E"/>
<path d="M30.3999 22.8H22.7999V30.4H30.3999V22.8Z" fill="#FF911E"/>
<path d="M30.3999 30.4H22.7999V38H30.3999V30.4Z" fill="#FF911E"/>
<path d="M30.3999 38H22.7999V45.6H30.3999V38Z" fill="#FF911E"/>
<path d="M38 22.8H30.4V30.4H38V22.8Z" fill="#FF911E"/>
<path d="M45.6001 22.8H38.0001V30.4H45.6001V22.8Z" fill="#FF911E"/>
<path d="M45.6001 30.4H38.0001V38H45.6001V30.4Z" fill="#FF911E"/>
<path d="M45.6001 38H38.0001V45.6H45.6001V38Z" fill="#FF911E"/>
<path d="M45.6001 45.6H38.0001V53.2H45.6001V45.6Z" fill="#FF911E"/>
<path d="M53.2 22.8H45.6V30.4H53.2V22.8Z" fill="#FF911E"/>
<path d="M53.2 30.4H45.6V38H53.2V30.4Z" fill="#FF911E"/>
<path d="M53.2 38H45.6V45.6H53.2V38Z" fill="#FF911E"/>
<path d="M60.8 22.8H53.2V30.4H60.8V22.8Z" fill="#FF911E"/>
<path d="M60.8 30.4H53.2V38H60.8V30.4Z" fill="#FF911E"/>
<path d="M60.8 38H53.2V45.6H60.8V38Z" fill="#FF911E"/>
<path d="M60.8 45.6H53.2V53.2H60.8V45.6Z" fill="#FF911E"/>
<path d="M68.3999 22.8H60.7999V30.4H68.3999V22.8Z" fill="#FF911E"/>
<path d="M76 22.8H68.4V30.4H76V22.8Z" fill="#FF911E"/>
<path d="M76 30.4H68.4V38H76V30.4Z" fill="#FF911E"/>
<path d="M76 38H68.4V45.6H76V38Z" fill="#FF911E"/>
<path d="M15.2 38H22.8V45.6H15.2V38Z" fill="#FF911E"/>
<path d="M83.6001 38H76.0001V45.6H83.6001V38Z" fill="#FF911E"/>
<path d="M15.2 45.6H22.8V53.2H15.2V45.6Z" fill="#FF911E"/>
<path d="M83.6001 45.6H76.0001V53.2H83.6001V45.6Z" fill="#FF911E"/>
<path d="M15.2 53.2H22.8V60.8H15.2V53.2Z" fill="#FF911E"/>
<path d="M22.8 53.2H30.4V60.8H22.8V53.2Z" fill="#FF911E"/>
<path d="M68.3999 53.2H75.9999V60.8H68.3999V53.2Z" fill="#FF911E"/>
<path d="M22.8 60.8H30.4V68.4H22.8V60.8Z" fill="#FF911E"/>
<path d="M68.3999 60.8H75.9999V68.4H68.3999V60.8Z" fill="#FF911E"/>
<path d="M83.6001 53.2H76.0001V60.8H83.6001V53.2Z" fill="#FF911E"/>
</svg>
