<svg width="28" height="28" viewBox="0 0 28 28" fill="none" xmlns="http://www.w3.org/2000/svg">
<path d="M26.25 14C26.25 20.7655 20.7655 26.25 14 26.25C7.23451 26.25 1.75 20.7655 1.75 14C1.75 7.23451 7.23451 1.75 14 1.75C20.7655 1.75 26.25 7.23451 26.25 14ZM12.5521 18.4323C12.7841 18.4388 13.0182 18.3535 13.1953 18.1764L20.3725 10.9992C20.5092 10.8626 20.5092 10.6409 20.3725 10.5043L19.3207 9.45244C19.184 9.31576 18.9624 9.31576 18.8257 9.45244L12.5757 15.7024L9.1744 12.3011C9.03772 12.1644 8.81611 12.1644 8.67943 12.3011L7.62761 13.3529C7.49092 13.4896 7.49092 13.7112 7.62761 13.8479L11.956 18.1763C12.1211 18.3414 12.3358 18.4267 12.5521 18.4323Z" fill="#00B73E"/>
</svg>
