<svg width="34" height="34" viewBox="0 0 34 34" fill="none" xmlns="http://www.w3.org/2000/svg">
<g clip-path="url(#clip0_32327_419179)">
<g clip-path="url(#clip1_32327_419179)">
<path d="M0 7C0 4.23858 2.23858 2 5 2H34V34H5C2.23858 34 0 31.7614 0 29V7Z" fill="#2C288E"/>
<g filter="url(#filter0_i_32327_419179)">
<path d="M0 5C0 2.23858 2.23858 0 5 0H34V32H5C2.23858 32 0 29.7614 0 27V5Z" fill="#4743C5"/>
</g>
</g>
<g filter="url(#filter1_d_32327_419179)">
<mask id="path-3-inside-1_32327_419179" fill="white">
<path fill-rule="evenodd" clip-rule="evenodd" d="M9.24805 15.751C9.24805 10.7998 13.2999 6.75 18.2511 6.75C23.2022 6.75 27.2541 10.7998 27.2521 15.747C27.2521 20.6981 23.2002 24.75 18.2491 24.75C16.2686 24.75 14.8277 24.0306 14.8277 24.0306L10.7758 24.1215C10.2363 24.1215 10.0564 23.6729 10.0564 23.4021L10.1473 19.621C10.1473 19.621 9.24805 17.8224 9.24805 15.751ZM18.2501 20.0622C20.393 20.0622 22.1302 18.5181 22.1302 16.6133L18.2501 16.6133L14.37 16.6133C14.37 18.5181 16.1072 20.0622 18.2501 20.0622Z"/>
</mask>
<path fill-rule="evenodd" clip-rule="evenodd" d="M9.24805 15.751C9.24805 10.7998 13.2999 6.75 18.2511 6.75C23.2022 6.75 27.2541 10.7998 27.2521 15.747C27.2521 20.6981 23.2002 24.75 18.2491 24.75C16.2686 24.75 14.8277 24.0306 14.8277 24.0306L10.7758 24.1215C10.2363 24.1215 10.0564 23.6729 10.0564 23.4021L10.1473 19.621C10.1473 19.621 9.24805 17.8224 9.24805 15.751ZM18.2501 20.0622C20.393 20.0622 22.1302 18.5181 22.1302 16.6133L18.2501 16.6133L14.37 16.6133C14.37 18.5181 16.1072 20.0622 18.2501 20.0622Z" fill="#AEABFF"/>
<path d="M27.2521 15.747L26.821 15.7468V15.747H27.2521ZM14.8277 24.0306L15.0203 23.6448L14.9248 23.5972L14.818 23.5996L14.8277 24.0306ZM10.7758 24.1215V24.5527L10.7855 24.5525L10.7758 24.1215ZM10.0564 23.4021L9.62528 23.3917V23.4021H10.0564ZM10.1473 19.621L10.5783 19.6314L10.5809 19.5241L10.5329 19.4282L10.1473 19.621ZM22.1302 16.6133H22.5613V16.1822L22.1302 16.1822L22.1302 16.6133ZM18.2501 16.6133L18.2501 16.1822H18.2501L18.2501 16.6133ZM14.37 16.6133L14.37 16.1822L13.9389 16.1822V16.6133H14.37ZM18.2511 6.31888C13.0619 6.31888 8.81693 10.5616 8.81693 15.751H9.67917C9.67917 11.0381 13.5379 7.18112 18.2511 7.18112V6.31888ZM27.6832 15.7471C27.6853 10.5615 23.4401 6.31888 18.2511 6.31888V7.18112C22.9644 7.18112 26.8229 11.0382 26.821 15.7468L27.6832 15.7471ZM18.2491 25.1811C23.4383 25.1811 27.6832 20.9362 27.6832 15.747H26.821C26.821 20.46 22.9621 24.3189 18.2491 24.3189V25.1811ZM14.8277 24.0306C14.6351 24.4163 14.6352 24.4163 14.6353 24.4164C14.6354 24.4164 14.6355 24.4165 14.6356 24.4165C14.6358 24.4166 14.636 24.4167 14.6362 24.4168C14.6367 24.417 14.6372 24.4173 14.6378 24.4176C14.6391 24.4183 14.6407 24.419 14.6427 24.42C14.6466 24.4219 14.6519 24.4245 14.6586 24.4277C14.672 24.4341 14.6909 24.443 14.715 24.4539C14.7633 24.4759 14.8328 24.5063 14.9215 24.5424C15.099 24.6145 15.3543 24.7093 15.6734 24.8037C16.3103 24.9922 17.2077 25.1811 18.2491 25.1811V24.3189C17.3099 24.3189 16.4966 24.1481 15.918 23.9769C15.6293 23.8914 15.4007 23.8064 15.246 23.7436C15.1688 23.7122 15.1102 23.6864 15.0719 23.669C15.0528 23.6603 15.0388 23.6537 15.0301 23.6496C15.0258 23.6475 15.0228 23.6461 15.0211 23.6453C15.0203 23.6448 15.0198 23.6446 15.0197 23.6445C15.0196 23.6445 15.0196 23.6445 15.0197 23.6446C15.0198 23.6446 15.0198 23.6446 15.0199 23.6447C15.02 23.6447 15.0201 23.6447 15.0201 23.6448C15.0202 23.6448 15.0203 23.6448 14.8277 24.0306ZM10.7855 24.5525L14.8374 24.4616L14.818 23.5996L10.7662 23.6905L10.7855 24.5525ZM9.62528 23.4021C9.62528 23.6186 9.69371 23.8945 9.87217 24.1263C10.064 24.3755 10.3687 24.5526 10.7758 24.5526V23.6904C10.7024 23.6904 10.6566 23.6756 10.6283 23.6614C10.5995 23.6471 10.5758 23.6269 10.5554 23.6003C10.509 23.5401 10.4875 23.4563 10.4875 23.4021H9.62528ZM9.71634 19.6106L9.6254 23.3917L10.4874 23.4124L10.5783 19.6314L9.71634 19.6106ZM8.81693 15.751C8.81693 16.8456 9.05386 17.8591 9.28676 18.5932C9.40368 18.9617 9.52078 19.2634 9.60927 19.4744C9.65354 19.5799 9.69075 19.663 9.71733 19.7205C9.73062 19.7493 9.74126 19.7717 9.7488 19.7873C9.75258 19.7952 9.75558 19.8013 9.75775 19.8058C9.75884 19.808 9.75972 19.8097 9.76038 19.8111C9.76072 19.8118 9.761 19.8123 9.76122 19.8128C9.76133 19.813 9.76143 19.8132 9.76152 19.8134C9.76156 19.8135 9.76161 19.8136 9.76164 19.8136C9.76169 19.8137 9.76173 19.8138 10.1473 19.621C10.5329 19.4282 10.533 19.4283 10.533 19.4284C10.533 19.4284 10.5331 19.4284 10.5331 19.4285C10.5331 19.4285 10.5331 19.4286 10.5331 19.4286C10.5331 19.4286 10.5331 19.4285 10.533 19.4283C10.5328 19.4279 10.5324 19.4271 10.5318 19.4258C10.5305 19.4233 10.5285 19.4191 10.5257 19.4133C10.52 19.4016 10.5114 19.3833 10.5001 19.3589C10.4775 19.3099 10.4444 19.2363 10.4044 19.1408C10.3242 18.9498 10.2165 18.6725 10.1086 18.3324C9.89188 17.6493 9.67917 16.7278 9.67917 15.751H8.81693ZM21.6991 16.6133C21.6991 18.2336 20.2041 19.6311 18.2501 19.6311V20.4934C20.582 20.4934 22.5613 18.8025 22.5613 16.6133H21.6991ZM18.2501 17.0444L22.1302 17.0444L22.1302 16.1822L18.2501 16.1822L18.2501 17.0444ZM14.37 17.0444L18.2501 17.0444L18.2501 16.1822L14.37 16.1822L14.37 17.0444ZM18.2501 19.6311C16.2962 19.6311 14.8012 18.2336 14.8012 16.6133H13.9389C13.9389 18.8025 15.9182 20.4934 18.2501 20.4934V19.6311Z" fill="black" mask="url(#path-3-inside-1_32327_419179)"/>
</g>
<path fill-rule="evenodd" clip-rule="evenodd" d="M14.8012 13.8099C15.3964 13.8099 15.879 13.3274 15.879 12.7321C15.879 12.1368 15.3964 11.6543 14.8012 11.6543C14.2059 11.6543 13.7234 12.1368 13.7234 12.7321C13.7234 13.3274 14.2059 13.8099 14.8012 13.8099ZM21.6991 13.8099C22.2944 13.8099 22.7769 13.3274 22.7769 12.7321C22.7769 12.1369 22.2944 11.6543 21.6991 11.6543C21.1038 11.6543 20.6213 12.1369 20.6213 12.7321C20.6213 13.3274 21.1038 13.8099 21.6991 13.8099Z" fill="black"/>
</g>
<defs>
<filter id="filter0_i_32327_419179" x="0" y="0" width="34" height="32" filterUnits="userSpaceOnUse" color-interpolation-filters="sRGB">
<feFlood flood-opacity="0" result="BackgroundImageFix"/>
<feBlend mode="normal" in="SourceGraphic" in2="BackgroundImageFix" result="shape"/>
<feColorMatrix in="SourceAlpha" type="matrix" values="0 0 0 0 0 0 0 0 0 0 0 0 0 0 0 0 0 0 127 0" result="hardAlpha"/>
<feOffset dy="2"/>
<feComposite in2="hardAlpha" operator="arithmetic" k2="-1" k3="1"/>
<feColorMatrix type="matrix" values="0 0 0 0 0.427451 0 0 0 0 0.407843 0 0 0 0 1 0 0 0 1 0"/>
<feBlend mode="normal" in2="shape" result="effect1_innerShadow_32327_419179"/>
</filter>
<filter id="filter1_d_32327_419179" x="9.24805" y="6.75" width="18.0042" height="19.2934" filterUnits="userSpaceOnUse" color-interpolation-filters="sRGB">
<feFlood flood-opacity="0" result="BackgroundImageFix"/>
<feColorMatrix in="SourceAlpha" type="matrix" values="0 0 0 0 0 0 0 0 0 0 0 0 0 0 0 0 0 0 127 0" result="hardAlpha"/>
<feOffset dy="1.29336"/>
<feComposite in2="hardAlpha" operator="out"/>
<feColorMatrix type="matrix" values="0 0 0 0 0 0 0 0 0 0 0 0 0 0 0 0 0 0 1 0"/>
<feBlend mode="normal" in2="BackgroundImageFix" result="effect1_dropShadow_32327_419179"/>
<feBlend mode="normal" in="SourceGraphic" in2="effect1_dropShadow_32327_419179" result="shape"/>
</filter>
<clipPath id="clip0_32327_419179">
<rect width="34" height="34" fill="white"/>
</clipPath>
<clipPath id="clip1_32327_419179">
<rect width="34" height="34" fill="white"/>
</clipPath>
</defs>
</svg>
