<svg width="32" height="32" viewBox="0 0 32 32" fill="none" xmlns="http://www.w3.org/2000/svg">
<g clip-path="url(#clip0_32328_419275)">
<circle cx="16" cy="16" r="16" fill="#D3D3FB"/>
<g clip-path="url(#clip1_32328_419275)">
<ellipse cx="16" cy="15.9986" rx="13" ry="12.9986" fill="#6B66FF"/>
<path d="M15.8033 19.3853C19.0958 19.3853 21.775 16.7464 21.7748 13.5014C21.7748 10.2566 19.0959 7.61743 15.8033 7.61743C12.5108 7.61743 9.83182 10.2575 9.83182 13.5014C9.83179 16.7454 12.5107 19.3853 15.8033 19.3853ZM18.2641 19.9519H13.7898C9.63189 19.9519 6.25 23.2819 6.25 27.3761V27.8168C6.25 29.9572 9.57776 29.9572 13.7898 29.9572H18.2641C22.3104 29.9572 25.8046 29.9572 25.8046 27.8168V27.3761C25.8045 23.2828 22.4221 19.9519 18.2641 19.9519Z" fill="#AEABFF"/>
</g>
</g>
<defs>
<clipPath id="clip0_32328_419275">
<rect width="32" height="32" fill="white"/>
</clipPath>
<clipPath id="clip1_32328_419275">
<rect x="3" y="3" width="26" height="25.9973" rx="12.9986" fill="white"/>
</clipPath>
</defs>
</svg>
