<svg width="30" height="30" viewBox="0 0 30 30" fill="none" xmlns="http://www.w3.org/2000/svg">
<g clip-path="url(#clip0_28534_152881)">
<path d="M21.6964 7.57208H25.0446C25.9692 7.57208 26.7187 8.32161 26.7187 9.24622V12.6073C26.7187 14.4565 25.2197 15.9556 23.3706 15.9556H21.6964V7.57208ZM4.95539 7.57208H8.30355V15.9556H6.62941C4.7802 15.9556 3.28125 14.4565 3.28125 12.6073V9.24634C3.28125 8.32173 4.03078 7.57208 4.95539 7.57208Z" fill="#FFE07A"/>
<path fill-rule="evenodd" clip-rule="evenodd" d="M19.9929 3.75H9.94829C8.09907 3.75 6.60001 5.24895 6.60001 7.09816V12.1462C6.60001 16.2062 9.49049 19.5911 13.3258 20.3553V22.6623H11.6518C10.5357 22.6623 9.97764 23.2204 9.97764 24.3364V24.3415C9.97764 25.4576 10.5357 26.0156 11.6518 26.0156H18.3481C19.4642 26.0156 20.0222 25.4576 20.0222 24.3415V24.3364C20.0222 23.2204 19.4642 22.6623 18.3481 22.6623H16.674V20.3434C20.4801 19.5566 23.3412 16.1856 23.3412 12.1462V7.09816C23.3412 5.24906 21.8421 3.75 19.9929 3.75Z" fill="#F5B12F"/>
<path d="M15.3474 7.7149L15.3488 7.71631C15.5055 7.87325 15.5935 8.08594 15.5935 8.30769C15.5935 8.52945 15.5055 8.74214 15.3488 8.89908L12.9798 11.2717C12.9021 11.3495 12.8098 11.4112 12.7083 11.4533C12.6067 11.4955 12.4978 11.5171 12.3879 11.5171C12.2779 11.5171 12.169 11.4955 12.0675 11.4533C11.9659 11.4112 11.8736 11.3495 11.796 11.2717L11.7947 11.2703C11.638 11.1133 11.55 10.9006 11.55 10.6789C11.55 10.4571 11.638 10.2444 11.7947 10.0875L14.1635 7.7149C14.2412 7.63708 14.3334 7.57535 14.435 7.53322C14.5366 7.4911 14.6454 7.46942 14.7554 7.46942C14.8654 7.46942 14.9742 7.4911 15.0758 7.53322C15.1774 7.57535 15.2696 7.63708 15.3473 7.7149H15.3474ZM18.2053 11.0683L18.2067 11.0696C18.3634 11.2266 18.4514 11.4393 18.4514 11.6611C18.4514 11.8829 18.3634 12.0956 18.2067 12.2525L14.654 15.8107C14.5764 15.8885 14.4841 15.9502 14.3825 15.9924C14.281 16.0345 14.1721 16.0562 14.0621 16.0562C13.9522 16.0562 13.8433 16.0345 13.7417 15.9924C13.6402 15.9502 13.5479 15.8885 13.4702 15.8107L13.4688 15.8093C13.3121 15.6523 13.2241 15.4396 13.2241 15.2178C13.2241 14.996 13.3121 14.7833 13.4688 14.6264L17.0216 11.0683C17.0993 10.9905 17.1915 10.9288 17.2931 10.8867C17.3946 10.8446 17.5035 10.8229 17.6134 10.8229C17.7234 10.8229 17.8322 10.8446 17.9338 10.8867C18.0354 10.9288 18.1276 10.9905 18.2053 11.0683Z" fill="#FFE07A"/>
</g>
<defs>
<clipPath id="clip0_28534_152881">
<rect width="30" height="30" fill="white"/>
</clipPath>
</defs>
</svg>
