<svg width="30" height="30" viewBox="0 0 30 30" fill="none" xmlns="http://www.w3.org/2000/svg">
<path d="M16.7352 14.8773C18.3546 14.2353 19.5047 12.6566 19.5047 10.8115C19.5047 8.39899 17.5418 6.43652 15.1293 6.43652C12.7168 6.43652 10.7543 8.39899 10.7543 10.8115C10.7543 12.6566 11.9039 14.2353 13.5234 14.8773C9.92253 15.6218 7.20694 18.8175 7.20694 22.6358C7.20694 23.5643 7.85835 23.8719 8.3817 24.1189L8.41176 24.1313C10.5221 24.8762 13.5741 25.0746 15.0449 25.0746C16.6487 25.0746 19.7884 24.8144 21.8736 24.0942C22.6551 23.7945 23.0516 23.3036 23.0516 22.6358C23.0516 18.8171 20.3361 15.6213 16.7352 14.8773Z" fill="#924EFF"/>
<path d="M10.4666 14.5088C9.43023 13.5424 8.77841 12.1691 8.77841 10.6403C8.77841 8.76797 9.75305 7.12627 11.2198 6.18497C11.2107 6.17221 11.1975 6.16439 11.1872 6.15368C11.1765 6.14215 11.1699 6.12774 11.1572 6.11744C10.3806 5.49384 9.41487 5.15329 8.41894 5.15186C6.00641 5.15186 4.04352 7.11433 4.04352 9.52685C4.04352 11.372 5.19358 12.9507 6.81305 13.5926C3.21176 14.3371 0.496582 17.5328 0.496582 21.3511C0.496582 22.0194 0.893111 22.5098 1.68493 22.8137C2.85764 23.2189 4.31282 23.4523 5.35252 23.5791C5.30932 23.2278 5.28732 22.8741 5.28664 22.5201C5.28664 18.9534 7.41341 15.8853 10.4666 14.5088ZM23.5143 13.593C25.1338 12.9511 26.2838 11.3724 26.2838 9.52727C26.2838 7.11474 24.3209 5.15227 21.9084 5.15227C20.8983 5.15227 19.9122 5.50515 19.1327 6.14544L19.0166 6.24056C19.74 6.72401 20.3329 7.37848 20.7429 8.14595C21.1528 8.91343 21.367 9.77018 21.3665 10.6403C21.3665 12.1691 20.7147 13.5424 19.6783 14.5088C22.7315 15.8853 24.8583 18.9534 24.8583 22.5201C24.8583 22.8866 24.8332 23.2469 24.7899 23.6014L24.8118 23.5989C25.8819 23.4746 27.4154 23.2378 28.6531 22.81C29.4346 22.5102 29.8312 22.0194 29.8312 21.3515C29.8312 17.5328 27.1156 14.3371 23.5143 13.593Z" fill="#D3B5FF"/>
</svg>
