<svg width="30" height="30" viewBox="0 0 30 30" fill="none" xmlns="http://www.w3.org/2000/svg">
<path fill-rule="evenodd" clip-rule="evenodd" d="M12.45 14.4C15.3495 14.4 17.7 12.0495 17.7 9.15002C17.7 6.25053 15.3495 3.90002 12.45 3.90002C9.5505 3.90002 7.2 6.25053 7.2 9.15002C7.2 12.0495 9.5505 14.4 12.45 14.4ZM22.2 22.9309C22.2 19.1853 18.8999 16.15 14.8283 16.15H10.0717C6.00007 16.15 2.7 19.1853 2.7 22.9309V23.3678C2.7 24.8978 6.00007 24.9 10.0717 24.9H14.8283C18.8991 24.9 22.2 24.8438 22.2 23.3678V22.9309Z" fill="#D3B5FF"/>
<circle cx="20.55" cy="19.35" r="6.75" fill="#7936E5"/>
<path fill-rule="evenodd" clip-rule="evenodd" d="M19.65 22.2C19.65 22.697 20.0529 23.1 20.55 23.1C21.0471 23.1 21.45 22.697 21.45 22.2V20.4H23.4C23.8971 20.4 24.3 19.997 24.3 19.5C24.3 19.0029 23.8971 18.6 23.4 18.6H21.45V16.5C21.45 16.0029 21.0471 15.6 20.55 15.6C20.0529 15.6 19.65 16.0029 19.65 16.5V18.6H17.7C17.2029 18.6 16.8 19.0029 16.8 19.5C16.8 19.997 17.2029 20.4 17.7 20.4H19.65V22.2Z" fill="#D3B5FF"/>
</svg>
