<svg width="30" height="30" viewBox="0 0 30 30" fill="none" xmlns="http://www.w3.org/2000/svg">
<path d="M23.3922 6.88959H10.8236C11.802 6.41294 12.7804 5.83594 13.6836 5.35929L15.9665 4.10494C16.7191 3.70355 17.271 3.40251 17.7727 3.12655C18.3999 2.80042 19.0271 2.6499 19.5037 2.6499C19.9804 2.6499 20.4821 2.80042 20.8333 2.92586C21.2598 3.12655 21.5859 3.40251 21.887 3.75373L23.3922 6.88959Z" fill="#D3B5FF"/>
<path d="M27 23.4962C27 23.8399 26.926 24.1835 26.8026 24.4535C26.6545 24.7235 26.5311 24.9935 26.3337 25.2635C26.1363 25.4599 25.8648 25.6808 25.5933 25.8035C25.3219 25.9508 24.9764 25.9999 24.6309 25.9999H6.51716C6.17167 25.9999 5.82618 25.9262 5.55472 25.8035C5.20922 25.6562 4.93777 25.5335 4.74034 25.2635C4.54292 25.0672 4.32081 24.7971 4.19742 24.4535C4.04935 24.1835 4 23.8399 4 23.4962V10.5035C4 9.81624 4.27146 9.2026 4.74034 8.73624C5.20923 8.26988 5.82618 7.99988 6.51716 7.99988H24.4582C25.1491 7.99988 25.7661 8.26988 26.235 8.73624C26.7039 9.2026 26.9753 9.81624 26.9753 10.5035V14.1853H20.6084C19.9174 14.1853 19.3004 14.3817 18.8315 14.8726C18.3627 15.339 18.0912 15.9035 18.0912 16.6399C18.0912 17.1062 18.2393 17.5235 18.3627 17.8672C18.5107 18.2108 18.7822 18.4808 19.103 18.6772C19.4485 18.9472 19.9174 19.0944 20.5343 19.0944H26.9753L27 23.4962Z" fill="#924EFF"/>
<path d="M14 17C14 14.7909 15.7909 13 18 13H27V21H18C15.7909 21 14 19.2091 14 17Z" fill="#D3B5FF"/>
<circle cx="18" cy="17" r="2" fill="#924EFF"/>
</svg>
