<svg width="72" height="72" viewBox="0 0 72 72" fill="none" xmlns="http://www.w3.org/2000/svg">
<g filter="url(#filter0_d_31513_486864)">
<mask id="path-1-inside-1_31513_486864" fill="white">
<path fill-rule="evenodd" clip-rule="evenodd" d="M18 22.5C18 12.5589 26.0589 4.5 36 4.5C45.9411 4.5 54 12.5589 54 22.5V30.1808C57.1297 34.1097 59 39.0864 59 44.5C59 57.2025 48.7025 67.5 36 67.5C23.2975 67.5 13 57.2025 13 44.5C13 39.0864 14.8703 34.1097 18 30.1808V22.5ZM27 23.3275C29.7643 22.151 32.8061 21.5 36 21.5C39.1939 21.5 42.2357 22.151 45 23.3275V22.5C45 17.5294 40.9706 13.5 36 13.5C31.0294 13.5 27 17.5294 27 22.5V23.3275ZM40.2001 48.1004C41.9003 46.8233 43 44.7901 43 42.5C43 38.634 39.866 35.5 36 35.5C32.134 35.5 29 38.634 29 42.5C29 44.7901 30.0997 46.8233 31.7999 48.1004L30 53.5H42L40.2001 48.1004Z"/>
</mask>
<path fill-rule="evenodd" clip-rule="evenodd" d="M18 22.5C18 12.5589 26.0589 4.5 36 4.5C45.9411 4.5 54 12.5589 54 22.5V30.1808C57.1297 34.1097 59 39.0864 59 44.5C59 57.2025 48.7025 67.5 36 67.5C23.2975 67.5 13 57.2025 13 44.5C13 39.0864 14.8703 34.1097 18 30.1808V22.5ZM27 23.3275C29.7643 22.151 32.8061 21.5 36 21.5C39.1939 21.5 42.2357 22.151 45 23.3275V22.5C45 17.5294 40.9706 13.5 36 13.5C31.0294 13.5 27 17.5294 27 22.5V23.3275ZM40.2001 48.1004C41.9003 46.8233 43 44.7901 43 42.5C43 38.634 39.866 35.5 36 35.5C32.134 35.5 29 38.634 29 42.5C29 44.7901 30.0997 46.8233 31.7999 48.1004L30 53.5H42L40.2001 48.1004Z" fill="#AEABFF"/>
<path d="M54 30.1808H53.5V30.3556L53.6089 30.4923L54 30.1808ZM18 30.1808L18.3911 30.4923L18.5 30.3556V30.1808H18ZM27 23.3275H26.5V24.0838L27.1958 23.7876L27 23.3275ZM45 23.3275L44.8042 23.7876L45.5 24.0838V23.3275H45ZM40.2001 48.1004L39.8998 47.7006L39.6119 47.9169L39.7258 48.2585L40.2001 48.1004ZM31.7999 48.1004L32.2742 48.2585L32.3881 47.9169L32.1002 47.7006L31.7999 48.1004ZM30 53.5L29.5257 53.3419L29.3063 54H30V53.5ZM42 53.5V54H42.6937L42.4743 53.3419L42 53.5ZM36 4C25.7827 4 17.5 12.2827 17.5 22.5H18.5C18.5 12.835 26.335 5 36 5V4ZM54.5 22.5C54.5 12.2827 46.2173 4 36 4V5C45.665 5 53.5 12.835 53.5 22.5H54.5ZM54.5 30.1808V22.5H53.5V30.1808H54.5ZM59.5 44.5C59.5 38.9693 57.5888 33.8835 54.3911 29.8692L53.6089 30.4923C56.6706 34.3359 58.5 39.2036 58.5 44.5H59.5ZM36 68C48.9787 68 59.5 57.4787 59.5 44.5H58.5C58.5 56.9264 48.4264 67 36 67V68ZM12.5 44.5C12.5 57.4787 23.0213 68 36 68V67C23.5736 67 13.5 56.9264 13.5 44.5H12.5ZM17.6089 29.8692C14.4112 33.8835 12.5 38.9693 12.5 44.5H13.5C13.5 39.2036 15.3294 34.3359 18.3911 30.4923L17.6089 29.8692ZM17.5 22.5V30.1808H18.5V22.5H17.5ZM36 21C32.7376 21 29.6293 21.6651 26.8042 22.8675L27.1958 23.7876C29.8993 22.6369 32.8746 22 36 22V21ZM45.1958 22.8675C42.3707 21.6651 39.2624 21 36 21V22C39.1254 22 42.1007 22.6369 44.8042 23.7876L45.1958 22.8675ZM44.5 22.5V23.3275H45.5V22.5H44.5ZM36 14C40.6944 14 44.5 17.8056 44.5 22.5H45.5C45.5 17.2533 41.2467 13 36 13V14ZM27.5 22.5C27.5 17.8056 31.3056 14 36 14V13C30.7533 13 26.5 17.2533 26.5 22.5H27.5ZM27.5 23.3275V22.5H26.5V23.3275H27.5ZM42.5 42.5C42.5 44.6262 41.4797 46.5139 39.8998 47.7006L40.5004 48.5002C42.3209 47.1327 43.5 44.954 43.5 42.5H42.5ZM36 36C39.5899 36 42.5 38.9101 42.5 42.5H43.5C43.5 38.3579 40.1421 35 36 35V36ZM29.5 42.5C29.5 38.9101 32.4101 36 36 36V35C31.8579 35 28.5 38.3579 28.5 42.5H29.5ZM32.1002 47.7006C30.5203 46.5139 29.5 44.6262 29.5 42.5H28.5C28.5 44.954 29.6791 47.1327 31.4996 48.5002L32.1002 47.7006ZM30.4743 53.6581L32.2742 48.2585L31.3255 47.9423L29.5257 53.3419L30.4743 53.6581ZM42 53H30V54H42V53ZM39.7258 48.2585L41.5257 53.6581L42.4743 53.3419L40.6745 47.9423L39.7258 48.2585Z" fill="black" mask="url(#path-1-inside-1_31513_486864)"/>
</g>
<defs>
<filter id="filter0_d_31513_486864" x="13" y="4.5" width="46" height="66" filterUnits="userSpaceOnUse" color-interpolation-filters="sRGB">
<feFlood flood-opacity="0" result="BackgroundImageFix"/>
<feColorMatrix in="SourceAlpha" type="matrix" values="0 0 0 0 0 0 0 0 0 0 0 0 0 0 0 0 0 0 127 0" result="hardAlpha"/>
<feOffset dy="3"/>
<feComposite in2="hardAlpha" operator="out"/>
<feColorMatrix type="matrix" values="0 0 0 0 0 0 0 0 0 0 0 0 0 0 0 0 0 0 1 0"/>
<feBlend mode="normal" in2="BackgroundImageFix" result="effect1_dropShadow_31513_486864"/>
<feBlend mode="normal" in="SourceGraphic" in2="effect1_dropShadow_31513_486864" result="shape"/>
</filter>
</defs>
</svg>
