<svg width="73" height="73" viewBox="0 0 73 73" fill="none" xmlns="http://www.w3.org/2000/svg">
<ellipse opacity="0.4" cx="36.5001" cy="51.4371" rx="33.6522" ry="9.3913" fill="#4743C5"/>
<path d="M14.5869 34.0882C14.5869 33.6587 14.6753 33.2339 14.8465 32.84L21.5946 17.3194C22.0916 16.1764 23.2192 15.4371 24.4655 15.4371H48.5345C49.7808 15.4371 50.9083 16.1764 51.4053 17.3194L58.1534 32.84C58.3246 33.2339 58.413 33.6587 58.413 34.0882V49.8719C58.413 51.6008 57.0115 53.0023 55.2826 53.0023H17.7174C15.9885 53.0023 14.5869 51.6008 14.5869 49.8719V34.0882Z" fill="#5B56F4"/>
<path d="M14.5869 34.2197C14.5869 32.4908 15.9885 31.0893 17.7173 31.0893H27.1087C28.8375 31.0893 30.2391 32.4908 30.2391 34.2197C30.2391 35.9486 31.6406 37.3502 33.3695 37.3502H39.6304C41.3593 37.3502 42.7608 35.9486 42.7608 34.2197C42.7608 32.4908 44.1624 31.0893 45.8913 31.0893H55.2826C57.0115 31.0893 58.413 32.4908 58.413 34.2197V49.8719C58.413 51.6008 57.0115 53.0023 55.2826 53.0023H17.7174C15.9885 53.0023 14.5869 51.6008 14.5869 49.8719V34.2197Z" fill="#7A75FF"/>
</svg>
