<svg width="237" height="257" viewBox="0 0 237 257" fill="none" xmlns="http://www.w3.org/2000/svg">
<path fill-rule="evenodd" clip-rule="evenodd" d="M37.1756 234.228C36.252 232.571 35.4798 230.641 34.8915 228.445C31.0798 214.22 36.4319 194.245 46.8459 183.831C49.5394 181.138 52.3077 179.348 54.9979 178.42L52.5853 177.379L55.0897 174.874L63.0116 178.294C67.305 179.808 70.8097 184.037 72.6039 190.733C76.4157 204.959 71.0636 224.933 60.6496 235.347C54.9734 241.023 48.9651 242.688 44.0557 240.724L44.0344 240.745L33.1565 236.083L35.6609 233.578L37.1756 234.228Z" fill="white"/>
<path fill-rule="evenodd" clip-rule="evenodd" d="M63.1637 177.905C67.6245 179.485 71.1926 183.856 73.0064 190.625C74.9356 197.825 74.5411 206.452 72.3639 214.577C70.1866 222.703 66.2151 230.371 60.9442 235.642C55.249 241.337 49.1262 243.129 44.0309 241.162C43.9767 241.161 43.9221 241.15 43.8703 241.128L32.9924 236.466C32.8653 236.411 32.7735 236.297 32.7474 236.161C32.7213 236.026 32.7642 235.886 32.8619 235.788L35.3662 233.284C35.4867 233.163 35.6684 233.128 35.825 233.195L36.2657 233.384C35.5632 231.945 34.9659 230.333 34.4891 228.553C32.5598 221.353 32.9543 212.727 35.1316 204.601C37.3088 196.476 41.2804 188.807 46.5512 183.537C48.9603 181.128 51.4416 179.419 53.8912 178.396L52.4202 177.761C52.2934 177.706 52.202 177.592 52.1761 177.457C52.1501 177.321 52.1931 177.181 52.2907 177.084L54.795 174.58C54.9158 174.459 55.098 174.424 55.2548 174.492L63.1637 177.905ZM72.2014 190.841C70.4287 184.225 66.9927 180.14 62.8729 178.686C62.864 178.683 62.8551 178.68 62.8464 178.676L55.1842 175.369L53.3139 177.239L55.163 178.037C55.3209 178.105 55.4207 178.264 55.4142 178.436C55.4077 178.607 55.2963 178.758 55.1337 178.814C52.5157 179.717 49.7996 181.467 47.1405 184.126C41.9974 189.269 38.0859 196.795 35.9365 204.817C33.7871 212.838 33.4115 221.312 35.294 228.338C35.8746 230.504 36.6347 232.402 37.5395 234.025C37.6264 234.18 37.6045 234.374 37.4851 234.507C37.3658 234.639 37.1753 234.681 37.0115 234.611L35.756 234.072L33.8863 235.942L44.0709 240.307C44.118 240.309 44.1652 240.319 44.2105 240.337C48.9083 242.216 54.7464 240.661 60.3549 235.053C65.498 229.91 69.4095 222.383 71.5589 214.362C73.7083 206.34 74.0839 197.866 72.2014 190.841Z" fill="#1A1A1A"/>
<path d="M51.516 231.517C41.1021 241.931 29.5698 238.841 25.758 224.615C21.9462 210.39 27.2984 190.415 37.7124 180.001C48.1263 169.587 59.6586 172.677 63.4704 186.903C67.2822 201.129 61.93 221.103 51.516 231.517Z" fill="#1E4FBC"/>
<path fill-rule="evenodd" clip-rule="evenodd" d="M63.1758 187.198C59.4236 173.194 48.0715 170.152 37.8202 180.404C27.569 190.655 22.3005 210.317 26.0527 224.321C29.8049 238.324 41.157 241.366 51.4082 231.115C61.6595 220.863 66.928 201.201 63.1758 187.198ZM37.6046 179.599C48.1813 169.022 59.8937 172.16 63.7651 186.608C67.6364 201.056 62.2006 221.343 51.6239 231.92C41.0472 242.496 29.3348 239.358 25.4634 224.91C21.5921 210.462 27.0279 190.175 37.6046 179.599Z" fill="#1A1A1A"/>
<path d="M149.243 14.9029C149.504 14.6426 150.003 14.5088 150.359 14.6041L210.89 30.8234C211.246 30.9187 211.323 31.207 211.063 31.4673L166.751 75.7794C166.49 76.0397 165.991 76.1735 165.635 76.0782L105.104 59.8589C104.748 59.7636 104.671 59.4753 104.931 59.215L149.243 14.9029Z" fill="#EDEDED"/>
<path fill-rule="evenodd" clip-rule="evenodd" d="M148.599 14.7304C149.12 14.2097 150.119 13.9421 150.83 14.1327L211.362 30.352C212.073 30.5426 212.227 31.1192 211.707 31.6399L167.395 75.9519C166.874 76.4726 165.875 76.7402 165.164 76.5497L104.633 60.3303C103.921 60.1397 103.767 59.5631 104.287 59.0424L148.599 14.7304ZM149.887 15.0755L105.575 59.3875L166.107 75.6068L210.419 31.2948L149.887 15.0755Z" fill="#1A1A1A"/>
<path d="M104.633 60.3303C104.537 59.9747 104.748 59.7636 105.104 59.8589L165.635 76.0782C165.991 76.1735 166.356 76.5391 166.452 76.8947L182.671 137.426C182.766 137.782 182.555 137.993 182.2 137.897L121.668 121.678C121.313 121.583 120.947 121.217 120.852 120.862L104.633 60.3303Z" fill="#1E4FBC"/>
<path fill-rule="evenodd" clip-rule="evenodd" d="M103.989 60.1578C103.798 59.4465 104.22 59.0244 104.931 59.215L165.463 75.4343C166.174 75.6249 166.905 76.356 167.096 77.0673L183.315 137.599C183.506 138.31 183.083 138.732 182.372 138.541L121.841 122.322C121.13 122.132 120.398 121.4 120.208 120.689L103.989 60.1578ZM105.276 60.5029L121.496 121.034L182.027 137.254L165.808 76.7222L105.276 60.5029Z" fill="#1A1A1A"/>
<path d="M166.774 76.8085C166.678 76.4528 166.812 75.9535 167.073 75.6931L211.385 31.3811C211.645 31.1207 211.933 31.198 212.029 31.5536L228.248 92.085C228.343 92.4406 228.209 92.94 227.949 93.2003L183.637 137.512C183.377 137.773 183.088 137.695 182.993 137.34L166.774 76.8085Z" fill="white"/>
<path fill-rule="evenodd" clip-rule="evenodd" d="M166.302 77.2799C166.112 76.5686 166.379 75.5699 166.9 75.0492L211.212 30.7371C211.733 30.2164 212.309 30.3709 212.5 31.0822L228.719 91.6136C228.91 92.3249 228.642 93.3236 228.122 93.8443L183.81 138.156C183.289 138.677 182.712 138.523 182.522 137.811L166.302 77.2799ZM167.245 76.3371L183.464 136.868L227.776 92.5564L211.557 32.025L167.245 76.3371Z" fill="#1A1A1A"/>
<path fill-rule="evenodd" clip-rule="evenodd" d="M170.742 37.4384C170.605 37.3233 170.416 37.3562 170.248 37.5246C170.079 37.6931 169.957 37.9714 169.926 38.2549L165.785 76.3371C165.754 76.6206 165.82 76.866 165.957 76.9811C166.095 77.0961 166.283 77.0632 166.452 76.8948L211.707 31.6399C211.875 31.4715 211.998 31.1932 212.028 30.9097C212.059 30.6263 211.994 30.3808 211.856 30.2658L193.37 14.811C193.232 14.6959 193.044 14.7288 192.875 14.8972C192.707 15.0656 192.584 15.344 192.553 15.6275L188.561 52.3355L170.742 37.4384Z" fill="#1A1A1A"/>
<path fill-rule="evenodd" clip-rule="evenodd" d="M182.563 86.7265C179.699 89.5904 178.227 95.0834 179.275 98.9954C180.324 102.908 183.495 103.757 186.359 100.893L190.13 97.1222C192.994 94.2584 194.466 88.7654 193.418 84.8533C192.369 80.9412 189.198 80.0915 186.334 82.9553L182.563 86.7265ZM181.432 90.5496C181.496 90.2403 181.571 89.9338 181.658 89.631C180.169 92.0851 179.53 95.485 180.218 98.0526C180.906 100.62 182.712 101.576 184.609 100.644C184.431 100.606 184.258 100.548 184.09 100.47C182.956 99.939 182.135 98.5153 181.632 96.6384C181.13 94.7615 181.001 92.6458 181.432 90.5496ZM192.475 85.7961C193.163 88.3637 192.524 91.7636 191.035 94.2178C191.122 93.915 191.197 93.6085 191.261 93.2991C191.692 91.2029 191.563 89.0873 191.061 87.2103C190.558 85.3334 189.737 83.9098 188.603 83.3792C188.435 83.3008 188.262 83.2426 188.084 83.2052C189.981 82.2732 191.787 83.2285 192.475 85.7961Z" fill="#1A1A1A"/>
<path fill-rule="evenodd" clip-rule="evenodd" d="M200.96 77.3108C199.912 73.3987 201.384 67.9058 204.247 65.0419L208.019 61.2707C210.883 58.4068 214.054 59.2566 215.102 63.1687C216.15 67.0808 214.679 72.5738 211.815 75.4376L208.044 79.2088C205.18 82.0727 202.008 81.2229 200.96 77.3108ZM203.343 67.9463C203.256 68.2492 203.18 68.5557 203.117 68.865C202.686 70.9612 202.814 73.0769 203.317 74.9538C203.82 76.8307 204.64 78.2544 205.775 78.785C205.942 78.8633 206.115 78.9215 206.294 78.959C204.397 79.8909 202.591 78.9356 201.903 76.368C201.215 73.8004 201.854 70.4005 203.343 67.9463ZM212.719 72.5332C214.209 70.079 214.847 66.6791 214.159 64.1115C213.471 61.5439 211.666 60.5886 209.769 61.5206C209.947 61.558 210.12 61.6162 210.287 61.6945C211.422 62.2251 212.242 63.6488 212.745 65.5257C213.248 67.4026 213.376 69.5183 212.945 71.6145C212.882 71.9239 212.807 72.2304 212.719 72.5332Z" fill="#1A1A1A"/>
<path d="M201.237 91.7304C201.047 91.0191 200.47 90.8646 199.95 91.3853C199.429 91.906 199.161 92.9047 199.352 93.616L200.042 96.1918C200.995 99.7482 199.657 104.742 197.053 107.345C196.533 107.866 196.265 108.865 196.456 109.576C196.646 110.287 197.223 110.442 197.744 109.921C200.144 107.52 201.776 103.668 202.23 99.8952C204.086 101.358 206.657 101.008 209.057 98.6074C209.578 98.0867 209.846 97.088 209.655 96.3767C209.464 95.6654 208.888 95.5109 208.367 96.0316C205.764 98.6351 202.881 97.8626 201.928 94.3062L201.237 91.7304Z" fill="#1A1A1A"/>
</svg>
