<svg width="28" height="28" viewBox="0 0 28 28" fill="none" xmlns="http://www.w3.org/2000/svg">
<g clip-path="url(#clip0_27240_121627)">
<path d="M28 14C28 21.732 21.732 28 14 28C6.26801 28 0 21.732 0 14C0 6.26801 6.26801 0 14 0C21.732 0 28 6.26801 28 14Z" fill="white"/>
<path d="M28 14C28 21.732 21.732 28 14 28C6.26801 28 0 21.732 0 14C0 6.26801 6.26801 0 14 0C21.732 0 28 6.26801 28 14ZM8.44935 9.65124C8.29314 9.80745 8.29314 10.0607 8.44935 10.2169L12.2325 14.0001L8.4494 17.7831C8.29319 17.9393 8.29319 18.1926 8.4494 18.3488L9.65148 19.5509C9.80769 19.7071 10.061 19.7071 10.2172 19.5509L14.0002 15.7678L17.7832 19.5507C17.9394 19.7069 18.1926 19.7069 18.3488 19.5507L19.5509 18.3487C19.7071 18.1924 19.7071 17.9392 19.5509 17.783L15.768 14.0001L19.551 10.2171C19.7072 10.0609 19.7072 9.80761 19.551 9.6514L18.3489 8.44932C18.1927 8.29311 17.9394 8.29311 17.7832 8.44932L14.0002 12.2323L10.2171 8.44916C10.0609 8.29295 9.80764 8.29295 9.65143 8.44916L8.44935 9.65124Z" fill="#FE026B"/>
</g>
<defs>
<clipPath id="clip0_27240_121627">
<rect width="28" height="28" fill="white"/>
</clipPath>
</defs>
</svg>

