<svg width="24" height="24" viewBox="0 0 24 24" fill="#3888FF" xmlns="http://www.w3.org/2000/svg">
<path d="M12 20.625C16.7635 20.625 20.625 16.7635 20.625 12C20.625 7.23654 16.7635 3.375 12 3.375C7.23654 3.375 3.375 7.23654 3.375 12C3.375 16.7635 7.23654 20.625 12 20.625ZM12 22.5C6.20101 22.5 1.5 17.799 1.5 12C1.5 6.20101 6.20101 1.5 12 1.5C17.799 1.5 22.5 6.20101 22.5 12C22.5 17.799 17.799 22.5 12 22.5ZM11.3118 12.9354C11.3385 12.9608 11.3675 12.9845 11.3985 13.0062L15.699 16.0175C15.8348 16.1125 16.0218 16.0795 16.1168 15.9438L16.8482 14.8994C16.9432 14.7637 16.9102 14.5766 16.7745 14.4816L12.9375 11.7949V7.127C12.9375 6.96131 12.8032 6.827 12.6375 6.827H11.3625C11.1968 6.827 11.0625 6.96131 11.0625 7.127V12.377C11.0625 12.5988 11.1588 12.7981 11.3118 12.9354Z" fill="inherit"/>
</svg>
