<svg width="24" height="24" viewBox="0 0 24 24" fill="#3888FF" xmlns="http://www.w3.org/2000/svg">
<path d="M12 22.5C6.20101 22.5 1.5 17.799 1.5 12C1.5 6.20101 6.20101 1.5 12 1.5C17.799 1.5 22.5 6.20101 22.5 12C22.5 17.799 17.799 22.5 12 22.5Z" fill="inherit"/>
<path d="M11.3118 12.9355C11.3385 12.9608 11.3675 12.9845 11.3985 13.0063L15.699 16.0175C15.8348 16.1125 16.0218 16.0795 16.1168 15.9438L16.8482 14.8994C16.9432 14.7637 16.9102 14.5766 16.7745 14.4816L12.9375 11.7949V7.12703C12.9375 6.96134 12.8032 6.82703 12.6375 6.82703H11.3625C11.1968 6.82703 11.0625 6.96134 11.0625 7.12703V12.377C11.0625 12.5988 11.1588 12.7981 11.3118 12.9355Z" fill="white"/>
</svg>
