<svg width="25" height="24" viewBox="0 0 25 24" fill="#E1E1E1" xmlns="http://www.w3.org/2000/svg">
<path d="M18.0246 11.9995L11.2368 5.21177C11.1196 5.09461 11.1196 4.90466 11.2368 4.78751L12.2975 3.72685C12.4146 3.60969 12.6046 3.60969 12.7217 3.72685L20.4645 11.4697C20.7574 11.7626 20.7574 12.2374 20.4645 12.5303L12.7207 20.2733C12.6035 20.3904 12.4136 20.3904 12.2964 20.2733L11.2358 19.2126C11.1186 19.0954 11.1186 18.9055 11.2358 18.7883L18.0246 11.9995Z" fill="inherit"/>
<path d="M11.3923 11.9995L4.60453 5.21177C4.48737 5.09461 4.48737 4.90466 4.60453 4.7875L5.66519 3.72685C5.78235 3.60969 5.9723 3.60969 6.08946 3.72685L13.8323 11.4697C14.1252 11.7626 14.1252 12.2374 13.8323 12.5303L6.08842 20.2733C5.97126 20.3904 5.78131 20.3904 5.66415 20.2733L4.60349 19.2126C4.48634 19.0954 4.48634 18.9055 4.60349 18.7883L11.3923 11.9995Z" fill="inherit"/>
</svg>
