<svg width="21" height="20" viewBox="0 0 21 20" fill="none" xmlns="http://www.w3.org/2000/svg">
<path d="M16.3895 3.20313C16.7233 3.20313 17.0259 3.39961 17.1616 3.70453L19.07 7.99039C19.1485 8.16678 19.1704 8.36321 19.1326 8.55256C19.0948 8.74192 18.9991 8.91488 18.8589 9.04758L11.0856 16.4007C10.9724 16.5077 10.8225 16.5674 10.6667 16.5674C10.511 16.5674 10.3611 16.5077 10.2479 16.4007L2.47464 9.04758C2.33437 8.91488 2.23873 8.74192 2.20092 8.55256C2.16311 8.36321 2.18499 8.16678 2.26354 7.99039C2.89962 6.56175 3.53574 5.13313 4.1719 3.70453C4.23835 3.55526 4.34665 3.42845 4.48368 3.33946C4.62072 3.25047 4.78062 3.20311 4.94401 3.20313H16.3895Z" fill="#00A5FF"/>
<path d="M10.5568 16.5577C10.4408 16.5365 10.3335 16.4821 10.2479 16.4009L2.47464 9.04781C2.33437 8.91511 2.23873 8.74215 2.20092 8.5528C2.16311 8.36344 2.18499 8.16702 2.26354 7.99062L4.1719 3.70477C4.23875 3.55443 4.34807 3.42691 4.48643 3.33789L10.5568 16.5577Z" fill="#00A9FF"/>
<path d="M10.7766 16.5577L16.847 3.33789C16.9854 3.42691 17.0947 3.55443 17.1615 3.70477L19.0699 7.99062C19.1484 8.16702 19.1703 8.36344 19.1325 8.5528C19.0947 8.74215 18.9991 8.91511 18.8588 9.04781L11.0855 16.4009C11 16.4821 10.8926 16.5365 10.7766 16.5577Z" fill="#0099FF"/>
<path d="M2.21016 8.59375C2.1603 8.39229 2.17911 8.17995 2.2636 7.99039L4.17196 3.70453C4.2384 3.55526 4.3467 3.42845 4.48374 3.33946C4.62077 3.25047 4.78067 3.20311 4.94407 3.20313H16.3895C16.7234 3.20313 17.0259 3.39961 17.1616 3.70453L19.07 7.99039C19.1545 8.17995 19.1733 8.39229 19.1234 8.59375H2.21016Z" fill="#00D2FF"/>
<path d="M4.94407 3.20313H16.3895C16.5647 3.20313 16.7312 3.25719 16.8695 3.35258L10.7773 16.5573C10.7049 16.5706 10.6307 16.5708 10.5582 16.5577L4.54126 3.30523C4.66494 3.23819 4.80339 3.2031 4.94407 3.20313Z" fill="#00F2FF"/>
<path d="M10.5582 16.5577L6.94238 8.59375H14.4514L10.7772 16.5573C10.7048 16.5706 10.6306 16.5708 10.5582 16.5577Z" fill="#00B9FF"/>
<path d="M10.6668 3.20312L14.4514 8.59375H6.94238L10.6668 3.20312Z" fill="#9FFBFF"/>
</svg>
