<svg width="28" height="28" viewBox="0 0 28 28" fill="none" xmlns="http://www.w3.org/2000/svg">
<path d="M28 14C28 21.732 21.732 28 14 28C6.26801 28 0 21.732 0 14C0 6.26801 6.26801 0 14 0C21.732 0 28 6.26801 28 14Z" fill="#00B73E"/>
<path d="M12.7451 19.3799C13.0103 19.3873 13.2779 19.2898 13.4803 19.0874L21.6827 10.8849C21.8389 10.7287 21.8389 10.4754 21.6827 10.3192L20.4806 9.11716C20.3244 8.96095 20.0712 8.96095 19.915 9.11716L12.7721 16.26L8.88492 12.3728C8.72871 12.2166 8.47545 12.2166 8.31924 12.3728L7.11716 13.5748C6.96095 13.7311 6.96095 13.9843 7.11716 14.1405L12.0639 19.0873C12.2526 19.276 12.4979 19.3735 12.7451 19.3799Z" fill="white"/>
</svg>
