<svg width="20" height="20" viewBox="0 0 20 20" fill="none" xmlns="http://www.w3.org/2000/svg">
<path d="M13.6089 2.97598L10.0538 4.09185L13.972 4.09433L13.6089 2.97598ZM13.4067 1.40179C14.0771 1.19135 14.792 1.56018 15.009 2.22852L15.615 4.09486H17.1875C17.9641 4.09486 18.5938 4.72446 18.5938 5.50111V16.7511C18.5938 17.5278 17.9642 18.1574 17.1875 18.1574H2.8125C2.03585 18.1574 1.40625 17.5278 1.40625 16.7511V5.50111C1.40625 4.72446 2.03585 4.09486 2.8125 4.09486H4.82674L13.4067 1.40179ZM2.96875 5.65736V16.5949H17.0312V13.4699H15.0781C13.7769 13.4699 12.6562 12.456 12.6562 11.1261C12.6562 9.79622 13.7769 8.78236 15.0781 8.78236H17.0312V5.65736H16.1224L16.1227 5.65819L2.96875 5.65736ZM17.0312 10.3449H15.0781C14.5671 10.3449 14.2188 10.7301 14.2188 11.1261C14.2188 11.5221 14.5671 11.9074 15.0781 11.9074H17.0312V10.3449Z" fill="white"/>
</svg>
