<svg width="30" height="8" viewBox="0 0 30 8" fill="none" xmlns="http://www.w3.org/2000/svg">
<path d="M4.74 3.87C5.16667 3.97 5.49667 4.17667 5.73 4.49C5.97 4.79667 6.09 5.15333 6.09 5.56C6.09 6.18 5.88333 6.66 5.47 7C5.06333 7.33333 4.47667 7.5 3.71 7.5H7.45058e-09V0.42H3.61C4.33 0.42 4.89667 0.576667 5.31 0.89C5.72333 1.20333 5.93 1.66 5.93 2.26C5.93 2.67333 5.82 3.02333 5.6 3.31C5.38667 3.59 5.1 3.77667 4.74 3.87ZM2.22 3.18H3.08C3.28 3.18 3.42667 3.14 3.52 3.06C3.62 2.98 3.67 2.85667 3.67 2.69C3.67 2.51667 3.62 2.39 3.52 2.31C3.42667 2.22333 3.28 2.18 3.08 2.18H2.22V3.18ZM3.23 5.72C3.43 5.72 3.57667 5.68333 3.67 5.61C3.77 5.53 3.82 5.40333 3.82 5.23C3.82 4.89 3.62333 4.72 3.23 4.72H2.22V5.72H3.23ZM9.05594 2.9C9.2826 2.57333 9.55927 2.31333 9.88594 2.12C10.2126 1.92 10.5526 1.82 10.9059 1.82V4.19H10.2759C9.85594 4.19 9.54594 4.26333 9.34594 4.41C9.1526 4.55667 9.05594 4.81667 9.05594 5.19V7.5H6.83594V1.86H9.05594V2.9ZM16.9639 4.63C16.9639 4.78333 16.9539 4.93 16.9339 5.07H13.3639C13.3972 5.55667 13.6006 5.8 13.9739 5.8C14.2139 5.8 14.3872 5.69 14.4939 5.47H16.8439C16.7639 5.87 16.5939 6.23 16.3339 6.55C16.0806 6.86333 15.7572 7.11333 15.3639 7.3C14.9772 7.48 14.5506 7.57 14.0839 7.57C13.5239 7.57 13.0239 7.45333 12.5839 7.22C12.1506 6.98667 11.8106 6.65333 11.5639 6.22C11.3239 5.78 11.2039 5.26667 11.2039 4.68C11.2039 4.09333 11.3239 3.58333 11.5639 3.15C11.8106 2.71 12.1506 2.37333 12.5839 2.14C13.0239 1.90667 13.5239 1.79 14.0839 1.79C14.6439 1.79 15.1406 1.90667 15.5739 2.14C16.0139 2.36667 16.3539 2.69333 16.5939 3.12C16.8406 3.54667 16.9639 4.05 16.9639 4.63ZM14.7139 4.1C14.7139 3.91333 14.6539 3.77333 14.5339 3.68C14.4139 3.58 14.2639 3.53 14.0839 3.53C13.6906 3.53 13.4606 3.72 13.3939 4.1H14.7139ZM23.126 4.63C23.126 4.78333 23.116 4.93 23.096 5.07H19.526C19.5593 5.55667 19.7627 5.8 20.136 5.8C20.376 5.8 20.5493 5.69 20.656 5.47H23.006C22.926 5.87 22.756 6.23 22.496 6.55C22.2427 6.86333 21.9193 7.11333 21.526 7.3C21.1393 7.48 20.7127 7.57 20.246 7.57C19.686 7.57 19.186 7.45333 18.746 7.22C18.3127 6.98667 17.9727 6.65333 17.726 6.22C17.486 5.78 17.366 5.26667 17.366 4.68C17.366 4.09333 17.486 3.58333 17.726 3.15C17.9727 2.71 18.3127 2.37333 18.746 2.14C19.186 1.90667 19.686 1.79 20.246 1.79C20.806 1.79 21.3027 1.90667 21.736 2.14C22.176 2.36667 22.516 2.69333 22.756 3.12C23.0027 3.54667 23.126 4.05 23.126 4.63ZM20.876 4.1C20.876 3.91333 20.816 3.77333 20.696 3.68C20.576 3.58 20.426 3.53 20.246 3.53C19.8527 3.53 19.6227 3.72 19.556 4.1H20.876ZM23.5281 4.68C23.5281 4.08667 23.6281 3.57333 23.8281 3.14C24.0348 2.7 24.3148 2.36667 24.6681 2.14C25.0215 1.90667 25.4181 1.79 25.8581 1.79C26.2248 1.79 26.5381 1.86667 26.7981 2.02C27.0648 2.16667 27.2681 2.37 27.4081 2.63V0.0999999H29.6281V7.5H27.4081V6.73C27.2681 6.99 27.0648 7.19667 26.7981 7.35C26.5381 7.49667 26.2248 7.57 25.8581 7.57C25.4181 7.57 25.0215 7.45667 24.6681 7.23C24.3148 6.99667 24.0348 6.66333 23.8281 6.23C23.6281 5.79 23.5281 5.27333 23.5281 4.68ZM27.4181 4.68C27.4181 4.38 27.3415 4.14667 27.1881 3.98C27.0348 3.81333 26.8381 3.73 26.5981 3.73C26.3581 3.73 26.1615 3.81333 26.0081 3.98C25.8548 4.14667 25.7781 4.38 25.7781 4.68C25.7781 4.98 25.8548 5.21333 26.0081 5.38C26.1615 5.54667 26.3581 5.63 26.5981 5.63C26.8381 5.63 27.0348 5.54667 27.1881 5.38C27.3415 5.21333 27.4181 4.98 27.4181 4.68Z" fill="white"/>
</svg>
