<svg width="58" height="10" viewBox="0 0 58 10" fill="none" xmlns="http://www.w3.org/2000/svg">
<path d="M6.55 1.92V9H4.33V6.24H2.22V9H7.45058e-09V1.92H2.22V4.47H4.33V1.92H6.55ZM10.2288 9.07C9.66216 9.07 9.15216 8.95333 8.69883 8.72C8.24549 8.48667 7.88883 8.15333 7.62883 7.72C7.37549 7.28 7.24883 6.76667 7.24883 6.18C7.24883 5.59333 7.37549 5.08333 7.62883 4.65C7.88883 4.21 8.24549 3.87333 8.69883 3.64C9.15216 3.40667 9.66216 3.29 10.2288 3.29C10.7955 3.29 11.3055 3.40667 11.7588 3.64C12.2122 3.87333 12.5655 4.21 12.8188 4.65C13.0788 5.08333 13.2088 5.59333 13.2088 6.18C13.2088 6.76667 13.0788 7.28 12.8188 7.72C12.5655 8.15333 12.2122 8.48667 11.7588 8.72C11.3055 8.95333 10.7955 9.07 10.2288 9.07ZM10.2288 7.15C10.4355 7.15 10.6088 7.07 10.7488 6.91C10.8888 6.74333 10.9588 6.5 10.9588 6.18C10.9588 5.86 10.8888 5.62 10.7488 5.46C10.6088 5.29333 10.4355 5.21 10.2288 5.21C10.0222 5.21 9.84883 5.29333 9.70883 5.46C9.56883 5.62 9.49883 5.86 9.49883 6.18C9.49883 6.5 9.56549 6.74333 9.69883 6.91C9.83883 7.07 10.0155 7.15 10.2288 7.15ZM22.4663 3.36L21.1263 9H18.6263L17.9463 5.82L17.2263 9H14.7262L13.3962 3.36H15.5963L16.0663 6.79L16.7963 3.36H19.1663L19.9363 6.83L20.4163 3.36H22.4663ZM28.1487 7.11V9H27.3087C25.762 9 24.9887 8.23 24.9887 6.69V5.21H24.2887V3.36H24.9887V2H27.2087V3.36H28.1287V5.21H27.2087V6.73C27.2087 6.86333 27.2387 6.96 27.2987 7.02C27.3653 7.08 27.472 7.11 27.6187 7.11H28.1487ZM31.6741 9.07C31.1075 9.07 30.5975 8.95333 30.1441 8.72C29.6908 8.48667 29.3341 8.15333 29.0741 7.72C28.8208 7.28 28.6941 6.76667 28.6941 6.18C28.6941 5.59333 28.8208 5.08333 29.0741 4.65C29.3341 4.21 29.6908 3.87333 30.1441 3.64C30.5975 3.40667 31.1075 3.29 31.6741 3.29C32.2408 3.29 32.7508 3.40667 33.2041 3.64C33.6575 3.87333 34.0108 4.21 34.2641 4.65C34.5241 5.08333 34.6541 5.59333 34.6541 6.18C34.6541 6.76667 34.5241 7.28 34.2641 7.72C34.0108 8.15333 33.6575 8.48667 33.2041 8.72C32.7508 8.95333 32.2408 9.07 31.6741 9.07ZM31.6741 7.15C31.8808 7.15 32.0541 7.07 32.1941 6.91C32.3341 6.74333 32.4041 6.5 32.4041 6.18C32.4041 5.86 32.3341 5.62 32.1941 5.46C32.0541 5.29333 31.8808 5.21 31.6741 5.21C31.4675 5.21 31.2941 5.29333 31.1541 5.46C31.0141 5.62 30.9441 5.86 30.9441 6.18C30.9441 6.5 31.0108 6.74333 31.1441 6.91C31.2841 7.07 31.4608 7.15 31.6741 7.15ZM47.2508 1.92L45.6308 9H42.8708L42.0508 4.98L41.2308 9H38.4708L36.8508 1.92H39.2408L39.8808 6.38L40.8408 1.92H43.2608L44.2208 6.38L44.8608 1.92H47.2508ZM49.1669 2.91C48.7802 2.91 48.4702 2.80667 48.2369 2.6C48.0035 2.39333 47.8869 2.13333 47.8869 1.82C47.8869 1.5 48.0035 1.23667 48.2369 1.03C48.4702 0.816666 48.7802 0.709999 49.1669 0.709999C49.5469 0.709999 49.8535 0.816666 50.0869 1.03C50.3202 1.23667 50.4369 1.5 50.4369 1.82C50.4369 2.13333 50.3202 2.39333 50.0869 2.6C49.8535 2.80667 49.5469 2.91 49.1669 2.91ZM50.2669 3.36V9H48.0469V3.36H50.2669ZM55.2195 3.32C55.8662 3.32 56.3695 3.53667 56.7295 3.97C57.0962 4.40333 57.2795 4.99 57.2795 5.73V9H55.0695V6.01C55.0695 5.74333 54.9962 5.53333 54.8495 5.38C54.7095 5.22 54.5195 5.14 54.2795 5.14C54.0329 5.14 53.8395 5.22 53.6995 5.38C53.5595 5.53333 53.4895 5.74333 53.4895 6.01V9H51.2695V3.36H53.4895V4.22C53.6629 3.95333 53.8929 3.73667 54.1795 3.57C54.4729 3.40333 54.8195 3.32 55.2195 3.32Z" fill="white"/>
</svg>
