<svg width="57" height="12" viewBox="0 0 57 12" fill="none" xmlns="http://www.w3.org/2000/svg">
<path d="M54.0691 3.32C54.7158 3.32 55.2191 3.53667 55.5791 3.97C55.9458 4.40333 56.1291 4.99 56.1291 5.73V9H53.9191V6.01C53.9191 5.74333 53.8458 5.53333 53.6991 5.38C53.5591 5.22 53.3691 5.14 53.1291 5.14C52.8825 5.14 52.6891 5.22 52.5491 5.38C52.4091 5.53333 52.3391 5.74333 52.3391 6.01V9H50.1191V3.36H52.3391V4.22C52.5125 3.95333 52.7425 3.73667 53.0291 3.57C53.3225 3.40333 53.6691 3.32 54.0691 3.32Z" fill="white"/>
<path d="M48.0165 2.91C47.6298 2.91 47.3198 2.80667 47.0865 2.6C46.8531 2.39333 46.7365 2.13333 46.7365 1.82C46.7365 1.5 46.8531 1.23667 47.0865 1.03C47.3198 0.816666 47.6298 0.709999 48.0165 0.709999C48.3965 0.709999 48.7031 0.816666 48.9365 1.03C49.1698 1.23667 49.2865 1.5 49.2865 1.82C49.2865 2.13333 49.1698 2.39333 48.9365 2.6C48.7031 2.80667 48.3965 2.91 48.0165 2.91ZM49.1165 3.36V9H46.8965V3.36H49.1165Z" fill="white"/>
<path d="M42.3196 4.13C42.4596 3.87 42.6596 3.66667 42.9196 3.52C43.1863 3.36667 43.5029 3.29 43.8696 3.29C44.3096 3.29 44.7063 3.40667 45.0596 3.64C45.4129 3.86667 45.6896 4.2 45.8896 4.64C46.0963 5.07333 46.1996 5.58667 46.1996 6.18C46.1996 6.77333 46.0963 7.29 45.8896 7.73C45.6896 8.16333 45.4129 8.49667 45.0596 8.73C44.7063 8.95667 44.3096 9.07 43.8696 9.07C43.5029 9.07 43.1863 8.99667 42.9196 8.85C42.6596 8.69667 42.4596 8.49 42.3196 8.23V11.7H40.0996V3.36H42.3196V4.13ZM43.9496 6.18C43.9496 5.88 43.8729 5.64667 43.7196 5.48C43.5663 5.31333 43.3696 5.23 43.1296 5.23C42.8896 5.23 42.6929 5.31333 42.5396 5.48C42.3863 5.64667 42.3096 5.88 42.3096 6.18C42.3096 6.48 42.3863 6.71333 42.5396 6.88C42.6929 7.04667 42.8896 7.13 43.1296 7.13C43.3696 7.13 43.5663 7.04667 43.7196 6.88C43.8729 6.71333 43.9496 6.48 43.9496 6.18Z" fill="white"/>
<path d="M36.6196 9.07C35.7729 9.07 35.0729 8.87334 34.5196 8.48C33.9729 8.08 33.6763 7.49667 33.6296 6.73H35.9896C36.0229 7.13667 36.2029 7.34 36.5296 7.34C36.6496 7.34 36.7496 7.31334 36.8296 7.26C36.9163 7.2 36.9596 7.11 36.9596 6.99C36.9596 6.82334 36.8696 6.69 36.6896 6.59C36.5096 6.48334 36.2296 6.36334 35.8496 6.23C35.3963 6.07 35.0196 5.91334 34.7196 5.76C34.4263 5.60667 34.1729 5.38334 33.9596 5.09C33.7463 4.79667 33.6429 4.42 33.6496 3.96C33.6496 3.5 33.7663 3.11 33.9996 2.79C34.2396 2.46334 34.5629 2.21667 34.9696 2.05C35.3829 1.88334 35.8463 1.8 36.3596 1.8C37.2263 1.8 37.9129 2 38.4196 2.4C38.9329 2.8 39.2029 3.36334 39.2296 4.09H36.8396C36.8329 3.89 36.7829 3.74667 36.6896 3.66C36.5963 3.57334 36.4829 3.53 36.3496 3.53C36.2563 3.53 36.1796 3.56334 36.1196 3.63C36.0596 3.69 36.0296 3.77667 36.0296 3.89C36.0296 4.05 36.1163 4.18334 36.2896 4.29C36.4696 4.39 36.7529 4.51334 37.1396 4.66C37.5863 4.82667 37.9529 4.98667 38.2396 5.14C38.5329 5.29334 38.7863 5.50667 38.9996 5.78C39.2129 6.05334 39.3196 6.39667 39.3196 6.81C39.3196 7.24334 39.2129 7.63334 38.9996 7.98C38.7863 8.32 38.4763 8.58667 38.0696 8.78C37.6629 8.97334 37.1796 9.07 36.6196 9.07Z" fill="white"/>
<path d="M31.7528 3.36L28.1428 11.7H25.7128L27.1328 8.72L24.7828 3.36H27.2528L28.3128 6.22L29.3028 3.36H31.7528Z" fill="white"/>
<path d="M22.235 9L20.845 6.75V9H18.625V1.6H20.845V5.47L22.255 3.36H24.835L22.725 6.2L24.885 9H22.235Z" fill="white"/>
<path d="M12.2312 6.18C12.2312 5.59334 12.3512 5.08333 12.5912 4.65C12.8379 4.21 13.1779 3.87333 13.6112 3.64C14.0512 3.40667 14.5512 3.29 15.1112 3.29C15.8446 3.29 16.4612 3.49667 16.9612 3.91C17.4679 4.32333 17.7879 4.89667 17.9212 5.63H15.5712C15.4846 5.33667 15.3146 5.19 15.0612 5.19C14.8812 5.19 14.7379 5.27333 14.6312 5.44C14.5312 5.60667 14.4812 5.85333 14.4812 6.18C14.4812 6.50667 14.5312 6.75333 14.6312 6.92C14.7379 7.08667 14.8812 7.17 15.0612 7.17C15.3146 7.17 15.4846 7.02333 15.5712 6.73H17.9212C17.7879 7.46333 17.4679 8.03667 16.9612 8.45C16.4612 8.86333 15.8446 9.07 15.1112 9.07C14.5512 9.07 14.0512 8.95333 13.6112 8.72C13.1779 8.48667 12.8379 8.15334 12.5912 7.72C12.3512 7.28 12.2312 6.76667 12.2312 6.18Z" fill="white"/>
<path d="M11.5286 3.36V9H9.3086V8.14C9.13527 8.40667 8.90193 8.62333 8.6086 8.79C8.32193 8.95667 7.9786 9.04 7.5786 9.04C6.93193 9.04 6.42527 8.82333 6.0586 8.39C5.6986 7.95667 5.5186 7.37 5.5186 6.63V3.36H7.7286V6.35C7.7286 6.61667 7.7986 6.83 7.9386 6.99C8.08527 7.14333 8.2786 7.22 8.5186 7.22C8.76527 7.22 8.9586 7.14333 9.0986 6.99C9.2386 6.83 9.3086 6.61667 9.3086 6.35V3.36H11.5286Z" fill="white"/>
<path d="M2.72 7.32H4.86V9H0.5V1.92H2.72V7.32Z" fill="white"/>
</svg>
