<svg width="34" height="11" viewBox="0 0 34 11" fill="none" xmlns="http://www.w3.org/2000/svg">
<path d="M9.01 0.42V7.5H6.8V3.97L5.71 7.5H3.81L2.72 3.97V7.5H0.5V0.42H3.22L4.78 4.67L6.3 0.42H9.01ZM15.4717 4.63C15.4717 4.78333 15.4617 4.93 15.4417 5.07H11.8717C11.9051 5.55667 12.1084 5.8 12.4817 5.8C12.7217 5.8 12.8951 5.69 13.0017 5.47H15.3517C15.2717 5.87 15.1017 6.23 14.8417 6.55C14.5884 6.86333 14.2651 7.11333 13.8717 7.3C13.4851 7.48 13.0584 7.57 12.5917 7.57C12.0317 7.57 11.5317 7.45333 11.0917 7.22C10.6584 6.98667 10.3184 6.65333 10.0717 6.22C9.83172 5.78 9.71172 5.26667 9.71172 4.68C9.71172 4.09333 9.83172 3.58333 10.0717 3.15C10.3184 2.71 10.6584 2.37333 11.0917 2.14C11.5317 1.90667 12.0317 1.79 12.5917 1.79C13.1517 1.79 13.6484 1.90667 14.0817 2.14C14.5217 2.36667 14.8617 2.69333 15.1017 3.12C15.3484 3.54667 15.4717 4.05 15.4717 4.63ZM13.2217 4.1C13.2217 3.91333 13.1617 3.77333 13.0417 3.68C12.9217 3.58 12.7717 3.53 12.5917 3.53C12.1984 3.53 11.9684 3.72 11.9017 4.1H13.2217ZM18.3938 2.9C18.6205 2.57333 18.8972 2.31333 19.2238 2.12C19.5505 1.92 19.8905 1.82 20.2438 1.82V4.19H19.6138C19.1938 4.19 18.8838 4.26333 18.6838 4.41C18.4905 4.55667 18.3938 4.81667 18.3938 5.19V7.5H16.1738V1.86H18.3938V2.9ZM22.8718 1.79C23.2385 1.79 23.5551 1.86667 23.8218 2.02C24.0885 2.16667 24.2918 2.37 24.4318 2.63V1.86H26.6418V7.4C26.6418 7.92667 26.5451 8.40667 26.3518 8.84C26.1585 9.27333 25.8451 9.62 25.4118 9.88C24.9851 10.14 24.4351 10.27 23.7618 10.27C22.8551 10.27 22.1351 10.0567 21.6018 9.63C21.0751 9.21 20.7751 8.63667 20.7018 7.91H22.8818C22.9418 8.20333 23.1818 8.35 23.6018 8.35C23.8618 8.35 24.0651 8.28333 24.2118 8.15C24.3585 8.01667 24.4318 7.76667 24.4318 7.4V6.73C24.2918 6.99 24.0885 7.19667 23.8218 7.35C23.5551 7.49667 23.2385 7.57 22.8718 7.57C22.4318 7.57 22.0351 7.45667 21.6818 7.23C21.3285 6.99667 21.0485 6.66333 20.8418 6.23C20.6418 5.79 20.5418 5.27333 20.5418 4.68C20.5418 4.08667 20.6418 3.57333 20.8418 3.14C21.0485 2.7 21.3285 2.36667 21.6818 2.14C22.0351 1.90667 22.4318 1.79 22.8718 1.79ZM24.4318 4.68C24.4318 4.38 24.3551 4.14667 24.2018 3.98C24.0485 3.81333 23.8518 3.73 23.6118 3.73C23.3718 3.73 23.1751 3.81333 23.0218 3.98C22.8685 4.14667 22.7918 4.38 22.7918 4.68C22.7918 4.98 22.8685 5.21333 23.0218 5.38C23.1751 5.54667 23.3718 5.63 23.6118 5.63C23.8518 5.63 24.0485 5.54667 24.2018 5.38C24.3551 5.21333 24.4318 4.98 24.4318 4.68ZM33.0987 4.63C33.0987 4.78333 33.0887 4.93 33.0687 5.07H29.4987C29.532 5.55667 29.7353 5.8 30.1087 5.8C30.3487 5.8 30.522 5.69 30.6287 5.47H32.9787C32.8987 5.87 32.7287 6.23 32.4687 6.55C32.2153 6.86333 31.892 7.11333 31.4987 7.3C31.112 7.48 30.6853 7.57 30.2187 7.57C29.6587 7.57 29.1587 7.45333 28.7187 7.22C28.2853 6.98667 27.9453 6.65333 27.6987 6.22C27.4587 5.78 27.3387 5.26667 27.3387 4.68C27.3387 4.09333 27.4587 3.58333 27.6987 3.15C27.9453 2.71 28.2853 2.37333 28.7187 2.14C29.1587 1.90667 29.6587 1.79 30.2187 1.79C30.7787 1.79 31.2753 1.90667 31.7087 2.14C32.1487 2.36667 32.4887 2.69333 32.7287 3.12C32.9753 3.54667 33.0987 4.05 33.0987 4.63ZM30.8487 4.1C30.8487 3.91333 30.7887 3.77333 30.6687 3.68C30.5487 3.58 30.3987 3.53 30.2187 3.53C29.8253 3.53 29.5953 3.72 29.5287 4.1H30.8487Z" fill="white"/>
</svg>
