<svg width="44" height="11" viewBox="0 0 44 11" fill="none" xmlns="http://www.w3.org/2000/svg">
<path d="M41.4182 8.07C40.8849 8.07 40.4115 7.98334 39.9982 7.81C39.5915 7.63667 39.2682 7.39667 39.0282 7.09C38.7882 6.78333 38.6515 6.43667 38.6182 6.05H40.7482C40.7749 6.21667 40.8449 6.34 40.9582 6.42C41.0782 6.5 41.2282 6.54 41.4082 6.54C41.5215 6.54 41.6115 6.51667 41.6782 6.47C41.7449 6.41667 41.7782 6.35333 41.7782 6.28C41.7782 6.15333 41.7082 6.06333 41.5682 6.01C41.4282 5.95667 41.1915 5.89667 40.8582 5.83C40.4515 5.75 40.1149 5.66333 39.8482 5.57C39.5882 5.47667 39.3582 5.31667 39.1582 5.09C38.9649 4.86333 38.8682 4.55 38.8682 4.15C38.8682 3.80333 38.9582 3.49 39.1382 3.21C39.3249 2.92333 39.5982 2.7 39.9582 2.54C40.3182 2.37333 40.7549 2.29 41.2682 2.29C42.0282 2.29 42.6215 2.47667 43.0482 2.85C43.4815 3.22333 43.7415 3.71 43.8282 4.31H41.8582C41.8249 4.15667 41.7549 4.04 41.6482 3.96C41.5415 3.87333 41.3982 3.83 41.2182 3.83C41.1049 3.83 41.0182 3.85333 40.9582 3.9C40.8982 3.94 40.8682 4.00333 40.8682 4.09C40.8682 4.20334 40.9382 4.29 41.0782 4.35C41.2182 4.40334 41.4415 4.46 41.7482 4.52C42.1549 4.6 42.4982 4.69 42.7782 4.79C43.0582 4.89 43.3015 5.06333 43.5082 5.31C43.7149 5.55 43.8182 5.88333 43.8182 6.31C43.8182 6.64333 43.7215 6.94333 43.5282 7.21C43.3349 7.47667 43.0549 7.68667 42.6882 7.84C42.3282 7.99333 41.9049 8.07 41.4182 8.07Z" fill="white"/>
<path d="M34.1413 2.29C34.508 2.29 34.8247 2.36667 35.0913 2.52C35.358 2.66667 35.5613 2.87 35.7013 3.13V2.36H37.9113V7.9C37.9113 8.42667 37.8147 8.90667 37.6213 9.34C37.428 9.77333 37.1147 10.12 36.6813 10.38C36.2547 10.64 35.7047 10.77 35.0313 10.77C34.1247 10.77 33.4047 10.5567 32.8713 10.13C32.3447 9.71 32.0447 9.13667 31.9713 8.41H34.1513C34.2113 8.70333 34.4513 8.85 34.8713 8.85C35.1313 8.85 35.3347 8.78333 35.4813 8.65C35.628 8.51667 35.7013 8.26667 35.7013 7.9V7.23C35.5613 7.49 35.358 7.69667 35.0913 7.85C34.8247 7.99667 34.508 8.07 34.1413 8.07C33.7013 8.07 33.3047 7.95667 32.9513 7.73C32.598 7.49667 32.318 7.16333 32.1113 6.73C31.9113 6.29 31.8113 5.77333 31.8113 5.18C31.8113 4.58667 31.9113 4.07333 32.1113 3.64C32.318 3.2 32.598 2.86667 32.9513 2.64C33.3047 2.40667 33.7013 2.29 34.1413 2.29ZM35.7013 5.18C35.7013 4.88 35.6247 4.64667 35.4713 4.48C35.318 4.31333 35.1213 4.23 34.8813 4.23C34.6413 4.23 34.4447 4.31333 34.2913 4.48C34.138 4.64667 34.0613 4.88 34.0613 5.18C34.0613 5.48 34.138 5.71333 34.2913 5.88C34.4447 6.04667 34.6413 6.13 34.8813 6.13C35.1213 6.13 35.318 6.04667 35.4713 5.88C35.6247 5.71333 35.7013 5.48 35.7013 5.18Z" fill="white"/>
<path d="M25.0145 5.18C25.0145 4.58667 25.1144 4.07333 25.3144 3.64C25.5211 3.2 25.8011 2.86667 26.1544 2.64C26.5078 2.40667 26.9044 2.29 27.3444 2.29C27.7111 2.29 28.0278 2.36667 28.2944 2.52C28.5611 2.66667 28.7644 2.87 28.9044 3.13V2.36H31.1145V8H28.9044V7.23C28.7644 7.49 28.5611 7.69667 28.2944 7.85C28.0278 7.99667 27.7111 8.07 27.3444 8.07C26.9044 8.07 26.5078 7.95667 26.1544 7.73C25.8011 7.49667 25.5211 7.16333 25.3144 6.73C25.1144 6.29 25.0145 5.77333 25.0145 5.18ZM28.9044 5.18C28.9044 4.88 28.8278 4.64667 28.6744 4.48C28.5211 4.31333 28.3244 4.23 28.0844 4.23C27.8444 4.23 27.6478 4.31333 27.4944 4.48C27.3411 4.64667 27.2645 4.88 27.2645 5.18C27.2645 5.48 27.3411 5.71333 27.4944 5.88C27.6478 6.04667 27.8444 6.13 28.0844 6.13C28.3244 6.13 28.5211 6.04667 28.6744 5.88C28.8278 5.71333 28.9044 5.48 28.9044 5.18Z" fill="white"/>
<path d="M23.2185 4.37C23.6452 4.47 23.9752 4.67666 24.2085 4.99C24.4485 5.29666 24.5685 5.65333 24.5685 6.06C24.5685 6.68 24.3618 7.16 23.9485 7.5C23.5418 7.83333 22.9552 8 22.1885 8H18.4785V0.919998H22.0885C22.8085 0.919998 23.3752 1.07666 23.7885 1.39C24.2018 1.70333 24.4085 2.16 24.4085 2.76C24.4085 3.17333 24.2985 3.52333 24.0785 3.81C23.8652 4.09 23.5785 4.27666 23.2185 4.37ZM20.6985 3.68H21.5585C21.7585 3.68 21.9052 3.64 21.9985 3.56C22.0985 3.48 22.1485 3.35666 22.1485 3.19C22.1485 3.01666 22.0985 2.89 21.9985 2.81C21.9052 2.72333 21.7585 2.68 21.5585 2.68H20.6985V3.68ZM21.7085 6.22C21.9085 6.22 22.0552 6.18333 22.1485 6.11C22.2485 6.03 22.2985 5.90333 22.2985 5.73C22.2985 5.39 22.1018 5.22 21.7085 5.22H20.6985V6.22H21.7085Z" fill="white"/>
<path d="M16.3817 2.36L12.7717 10.7H10.3417L11.7617 7.72L9.41171 2.36H11.8817L12.9417 5.22L13.9317 2.36H16.3817Z" fill="white"/>
<path d="M9.01 0.919998V8H6.8V4.47L5.71 8H3.81L2.72 4.47V8H0.5V0.919998H3.22L4.78 5.17L6.3 0.919998H9.01Z" fill="white"/>
</svg>
