<svg width="28" height="8" viewBox="0 0 28 8" fill="none" xmlns="http://www.w3.org/2000/svg">
<path d="M25.4416 7.57C24.9083 7.57 24.435 7.48333 24.0216 7.31C23.615 7.13666 23.2916 6.89666 23.0516 6.59C22.8116 6.28333 22.675 5.93666 22.6416 5.55H24.7716C24.7983 5.71666 24.8683 5.84 24.9816 5.92C25.1016 6 25.2516 6.04 25.4316 6.04C25.545 6.04 25.635 6.01666 25.7016 5.97C25.7683 5.91666 25.8016 5.85333 25.8016 5.78C25.8016 5.65333 25.7316 5.56333 25.5916 5.51C25.4516 5.45666 25.215 5.39666 24.8816 5.33C24.475 5.25 24.1383 5.16333 23.8716 5.07C23.6116 4.97666 23.3816 4.81666 23.1816 4.59C22.9883 4.36333 22.8916 4.05 22.8916 3.65C22.8916 3.30333 22.9816 2.99 23.1616 2.71C23.3483 2.42333 23.6216 2.2 23.9816 2.04C24.3416 1.87333 24.7783 1.79 25.2916 1.79C26.0516 1.79 26.645 1.97666 27.0716 2.35C27.505 2.72333 27.765 3.21 27.8516 3.81H25.8816C25.8483 3.65666 25.7783 3.54 25.6716 3.46C25.565 3.37333 25.4216 3.33 25.2416 3.33C25.1283 3.33 25.0416 3.35333 24.9816 3.4C24.9216 3.44 24.8916 3.50333 24.8916 3.59C24.8916 3.70333 24.9616 3.79 25.1016 3.85C25.2416 3.90333 25.465 3.96 25.7716 4.02C26.1783 4.1 26.5216 4.19 26.8016 4.29C27.0816 4.39 27.325 4.56333 27.5316 4.81C27.7383 5.05 27.8416 5.38333 27.8416 5.81C27.8416 6.14333 27.745 6.44333 27.5516 6.71C27.3583 6.97666 27.0783 7.18666 26.7116 7.34C26.3516 7.49333 25.9283 7.57 25.4416 7.57Z" fill="white"/>
<path d="M21.929 0.0999985V7.5H19.709V0.0999985H21.929Z" fill="white"/>
<path d="M16.0316 7.57C15.4649 7.57 14.9549 7.45333 14.5016 7.22C14.0482 6.98666 13.6916 6.65333 13.4316 6.22C13.1782 5.78 13.0516 5.26666 13.0516 4.68C13.0516 4.09333 13.1782 3.58333 13.4316 3.15C13.6916 2.71 14.0482 2.37333 14.5016 2.14C14.9549 1.90666 15.4649 1.79 16.0316 1.79C16.5982 1.79 17.1082 1.90666 17.5616 2.14C18.0149 2.37333 18.3682 2.71 18.6216 3.15C18.8816 3.58333 19.0116 4.09333 19.0116 4.68C19.0116 5.26666 18.8816 5.78 18.6216 6.22C18.3682 6.65333 18.0149 6.98666 17.5616 7.22C17.1082 7.45333 16.5982 7.57 16.0316 7.57ZM16.0316 5.65C16.2382 5.65 16.4116 5.57 16.5516 5.41C16.6916 5.24333 16.7616 5 16.7616 4.68C16.7616 4.36 16.6916 4.12 16.5516 3.96C16.4116 3.79333 16.2382 3.71 16.0316 3.71C15.8249 3.71 15.6516 3.79333 15.5116 3.96C15.3716 4.12 15.3016 4.36 15.3016 4.68C15.3016 5 15.3682 5.24333 15.5016 5.41C15.6416 5.57 15.8182 5.65 16.0316 5.65Z" fill="white"/>
<path d="M9.67414 7.57C9.10747 7.57 8.59747 7.45333 8.14414 7.22C7.6908 6.98666 7.33414 6.65333 7.07414 6.22C6.8208 5.78 6.69414 5.26666 6.69414 4.68C6.69414 4.09333 6.8208 3.58333 7.07414 3.15C7.33414 2.71 7.6908 2.37333 8.14414 2.14C8.59747 1.90666 9.10747 1.79 9.67414 1.79C10.2408 1.79 10.7508 1.90666 11.2041 2.14C11.6575 2.37333 12.0108 2.71 12.2641 3.15C12.5241 3.58333 12.6541 4.09333 12.6541 4.68C12.6541 5.26666 12.5241 5.78 12.2641 6.22C12.0108 6.65333 11.6575 6.98666 11.2041 7.22C10.7508 7.45333 10.2408 7.57 9.67414 7.57ZM9.67414 5.65C9.8808 5.65 10.0541 5.57 10.1941 5.41C10.3341 5.24333 10.4041 5 10.4041 4.68C10.4041 4.36 10.3341 4.12 10.1941 3.96C10.0541 3.79333 9.8808 3.71 9.67414 3.71C9.46747 3.71 9.29414 3.79333 9.15414 3.96C9.01414 4.12 8.94414 4.36 8.94414 4.68C8.94414 5 9.0108 5.24333 9.14414 5.41C9.28414 5.57 9.4608 5.65 9.67414 5.65Z" fill="white"/>
<path d="M6.29 2.85C6.29 3.29666 6.18667 3.70333 5.98 4.07C5.77333 4.43 5.46667 4.71667 5.06 4.93C4.66 5.14333 4.17333 5.25 3.6 5.25H2.72V7.5H0.5V0.419998H3.6C4.46667 0.419998 5.13 0.639998 5.59 1.08C6.05667 1.52 6.29 2.11 6.29 2.85ZM3.35 3.5C3.81 3.5 4.04 3.28333 4.04 2.85C4.04 2.41666 3.81 2.2 3.35 2.2H2.72V3.5H3.35Z" fill="white"/>
</svg>
