<svg width="50" height="12" viewBox="0 0 50 12" fill="none" xmlns="http://www.w3.org/2000/svg">
<path d="M45.8991 3.29C46.2658 3.29 46.5825 3.36667 46.8491 3.52C47.1158 3.66667 47.3191 3.87 47.4591 4.13V3.36H49.6691V8.9C49.6691 9.42667 49.5725 9.90667 49.3791 10.34C49.1858 10.7733 48.8725 11.12 48.4391 11.38C48.0125 11.64 47.4625 11.77 46.7891 11.77C45.8825 11.77 45.1625 11.5567 44.6291 11.13C44.1025 10.71 43.8025 10.1367 43.7291 9.41H45.9091C45.9691 9.70333 46.2091 9.85 46.6291 9.85C46.8891 9.85 47.0925 9.78333 47.2391 9.65C47.3858 9.51667 47.4591 9.26667 47.4591 8.9V8.23C47.3191 8.49 47.1158 8.69667 46.8491 8.85C46.5825 8.99667 46.2658 9.07 45.8991 9.07C45.4591 9.07 45.0625 8.95667 44.7091 8.73C44.3558 8.49667 44.0758 8.16333 43.8691 7.73C43.6691 7.29 43.5691 6.77333 43.5691 6.18C43.5691 5.58667 43.6691 5.07333 43.8691 4.64C44.0758 4.2 44.3558 3.86667 44.7091 3.64C45.0625 3.40667 45.4591 3.29 45.8991 3.29ZM47.4591 6.18C47.4591 5.88 47.3825 5.64667 47.2291 5.48C47.0758 5.31333 46.8791 5.23 46.6391 5.23C46.3991 5.23 46.2025 5.31333 46.0491 5.48C45.8958 5.64667 45.8191 5.88 45.8191 6.18C45.8191 6.48 45.8958 6.71333 46.0491 6.88C46.2025 7.04667 46.3991 7.13 46.6391 7.13C46.8791 7.13 47.0758 7.04667 47.2291 6.88C47.3825 6.71333 47.4591 6.48 47.4591 6.18Z" fill="white"/>
<path d="M40.8465 3.32C41.4932 3.32 41.9965 3.53667 42.3565 3.97C42.7232 4.40333 42.9065 4.99 42.9065 5.73V9H40.6965V6.01C40.6965 5.74333 40.6232 5.53333 40.4765 5.38C40.3365 5.22 40.1465 5.14 39.9065 5.14C39.6598 5.14 39.4665 5.22 39.3265 5.38C39.1865 5.53333 39.1165 5.74333 39.1165 6.01V9H36.8965V3.36H39.1165V4.22C39.2898 3.95333 39.5198 3.73667 39.8065 3.57C40.0998 3.40333 40.4465 3.32 40.8465 3.32Z" fill="white"/>
<path d="M34.7938 2.91C34.4072 2.91 34.0972 2.80667 33.8638 2.6C33.6305 2.39333 33.5138 2.13333 33.5138 1.82C33.5138 1.5 33.6305 1.23667 33.8638 1.03C34.0972 0.816666 34.4072 0.709999 34.7938 0.709999C35.1738 0.709999 35.4805 0.816666 35.7138 1.03C35.9472 1.23667 36.0638 1.5 36.0638 1.82C36.0638 2.13333 35.9472 2.39333 35.7138 2.6C35.4805 2.80667 35.1738 2.91 34.7938 2.91ZM35.8938 3.36V9H33.6738V3.36H35.8938Z" fill="white"/>
<path d="M29.097 4.13C29.237 3.87 29.437 3.66667 29.697 3.52C29.9636 3.36667 30.2803 3.29 30.647 3.29C31.087 3.29 31.4836 3.40667 31.837 3.64C32.1903 3.86667 32.467 4.2 32.667 4.64C32.8736 5.07333 32.977 5.58667 32.977 6.18C32.977 6.77333 32.8736 7.29 32.667 7.73C32.467 8.16333 32.1903 8.49667 31.837 8.73C31.4836 8.95667 31.087 9.07 30.647 9.07C30.2803 9.07 29.9636 8.99667 29.697 8.85C29.437 8.69667 29.237 8.49 29.097 8.23V11.7H26.877V3.36H29.097V4.13ZM30.727 6.18C30.727 5.88 30.6503 5.64667 30.497 5.48C30.3436 5.31333 30.147 5.23 29.907 5.23C29.667 5.23 29.4703 5.31333 29.317 5.48C29.1636 5.64667 29.087 5.88 29.087 6.18C29.087 6.48 29.1636 6.71333 29.317 6.88C29.4703 7.04667 29.667 7.13 29.907 7.13C30.147 7.13 30.3436 7.04667 30.497 6.88C30.6503 6.71333 30.727 6.48 30.727 6.18Z" fill="white"/>
<path d="M22.3001 4.13C22.4401 3.87 22.6401 3.66667 22.9001 3.52C23.1667 3.36667 23.4834 3.29 23.8501 3.29C24.2901 3.29 24.6867 3.40667 25.0401 3.64C25.3934 3.86667 25.6701 4.2 25.8701 4.64C26.0767 5.07333 26.1801 5.58667 26.1801 6.18C26.1801 6.77333 26.0767 7.29 25.8701 7.73C25.6701 8.16333 25.3934 8.49667 25.0401 8.73C24.6867 8.95667 24.2901 9.07 23.8501 9.07C23.4834 9.07 23.1667 8.99667 22.9001 8.85C22.6401 8.69667 22.4401 8.49 22.3001 8.23V11.7H20.0801V3.36H22.3001V4.13ZM23.9301 6.18C23.9301 5.88 23.8534 5.64667 23.7001 5.48C23.5467 5.31333 23.3501 5.23 23.1101 5.23C22.8701 5.23 22.6734 5.31333 22.5201 5.48C22.3667 5.64667 22.2901 5.88 22.2901 6.18C22.2901 6.48 22.3667 6.71333 22.5201 6.88C22.6734 7.04667 22.8701 7.13 23.1101 7.13C23.3501 7.13 23.5467 7.04667 23.7001 6.88C23.8534 6.71333 23.9301 6.48 23.9301 6.18Z" fill="white"/>
<path d="M16.4027 9.07C15.836 9.07 15.326 8.95333 14.8727 8.72C14.4193 8.48667 14.0627 8.15334 13.8027 7.72C13.5493 7.28 13.4227 6.76667 13.4227 6.18C13.4227 5.59334 13.5493 5.08333 13.8027 4.65C14.0627 4.21 14.4193 3.87333 14.8727 3.64C15.326 3.40667 15.836 3.29 16.4027 3.29C16.9693 3.29 17.4793 3.40667 17.9327 3.64C18.386 3.87333 18.7393 4.21 18.9927 4.65C19.2527 5.08333 19.3827 5.59334 19.3827 6.18C19.3827 6.76667 19.2527 7.28 18.9927 7.72C18.7393 8.15334 18.386 8.48667 17.9327 8.72C17.4793 8.95333 16.9693 9.07 16.4027 9.07ZM16.4027 7.15C16.6093 7.15 16.7827 7.07 16.9227 6.91C17.0627 6.74333 17.1327 6.5 17.1327 6.18C17.1327 5.86 17.0627 5.62 16.9227 5.46C16.7827 5.29333 16.6093 5.21 16.4027 5.21C16.196 5.21 16.0227 5.29333 15.8827 5.46C15.7427 5.62 15.6727 5.86 15.6727 6.18C15.6727 6.5 15.7393 6.74333 15.8727 6.91C16.0127 7.07 16.1893 7.15 16.4027 7.15Z" fill="white"/>
<path d="M10.7 3.32C11.3467 3.32 11.85 3.53667 12.21 3.97C12.5767 4.40333 12.76 4.99 12.76 5.73V9H10.55V6.01C10.55 5.74333 10.4767 5.53333 10.33 5.38C10.19 5.22 10 5.14 9.76 5.14C9.51333 5.14 9.32 5.22 9.18 5.38C9.04 5.53333 8.97 5.74333 8.97 6.01V9H6.75V1.6H8.97V4.22C9.14333 3.95333 9.37333 3.73667 9.66 3.57C9.95333 3.40333 10.3 3.32 10.7 3.32Z" fill="white"/>
<path d="M3.27 9.07C2.42333 9.07 1.72333 8.87333 1.17 8.48C0.623332 8.08 0.326665 7.49667 0.279999 6.73H2.64C2.67333 7.13667 2.85333 7.34 3.18 7.34C3.3 7.34 3.4 7.31333 3.48 7.26C3.56667 7.2 3.61 7.11 3.61 6.99C3.61 6.82333 3.52 6.69 3.34 6.59C3.16 6.48333 2.88 6.36333 2.5 6.23C2.04667 6.07 1.67 5.91333 1.37 5.76C1.07667 5.60667 0.823332 5.38333 0.609999 5.09C0.396665 4.79667 0.293332 4.42 0.299999 3.96C0.299999 3.5 0.416665 3.11 0.649999 2.79C0.889999 2.46333 1.21333 2.21667 1.62 2.05C2.03333 1.88333 2.49667 1.8 3.01 1.8C3.87667 1.8 4.56333 2 5.07 2.4C5.58333 2.8 5.85333 3.36333 5.88 4.09H3.49C3.48333 3.89 3.43333 3.74667 3.34 3.66C3.24667 3.57333 3.13333 3.53 3 3.53C2.90667 3.53 2.83 3.56333 2.77 3.63C2.71 3.69 2.68 3.77667 2.68 3.89C2.68 4.05 2.76667 4.18333 2.94 4.29C3.12 4.39 3.40333 4.51333 3.79 4.66C4.23667 4.82667 4.60333 4.98667 4.89 5.14C5.18333 5.29333 5.43667 5.50667 5.65 5.78C5.86333 6.05333 5.97 6.39667 5.97 6.81C5.97 7.24333 5.86333 7.63333 5.65 7.98C5.43667 8.32 5.12667 8.58667 4.72 8.78C4.31333 8.97333 3.83 9.07 3.27 9.07Z" fill="white"/>
</svg>
