<svg width="14" height="14" viewBox="0 0 14 14" fill="none" xmlns="http://www.w3.org/2000/svg">
<g clip-path="url(#clip0_25753_732561)">
<rect width="2" height="2" fill="#9C9DA9"/>
<rect x="2" y="2" width="2" height="2" fill="#9C9DA9"/>
<rect x="4" y="4" width="2" height="2" fill="#9C9DA9"/>
<rect x="6" y="6" width="2" height="2" fill="#9C9DA9"/>
<rect x="8" y="8" width="2" height="2" fill="#9C9DA9"/>
<rect x="10" y="10" width="2" height="2" fill="#9C9DA9"/>
<rect x="12" y="12" width="2" height="2" fill="#9C9DA9"/>
<rect x="14" width="2" height="2" transform="rotate(90 14 0)" fill="#9C9DA9"/>
<rect x="12" y="2" width="2" height="2" transform="rotate(90 12 2)" fill="#9C9DA9"/>
<rect x="10" y="4" width="2" height="2" transform="rotate(90 10 4)" fill="#9C9DA9"/>
<rect x="8" y="6" width="2" height="2" transform="rotate(90 8 6)" fill="#9C9DA9"/>
<rect x="6" y="8" width="2" height="2" transform="rotate(90 6 8)" fill="#9C9DA9"/>
<rect x="4" y="10" width="2" height="2" transform="rotate(90 4 10)" fill="#9C9DA9"/>
<rect x="2" y="12" width="2" height="2" transform="rotate(90 2 12)" fill="#9C9DA9"/>
</g>
<defs>
<clipPath id="clip0_25753_732561">
<rect width="14" height="14" fill="white"/>
</clipPath>
</defs>
</svg>
