<svg width="16" height="16" viewBox="0 0 16 16" fill="none" xmlns="http://www.w3.org/2000/svg">
<rect x="4" width="2" height="2" fill="#8D62D3"/>
<rect x="4" y="2" width="2" height="2" fill="#8D62D3"/>
<rect x="4" y="4" width="2" height="2" fill="#8D62D3"/>
<rect x="4" y="6" width="2" height="2" fill="#8D62D3"/>
<rect x="4" y="8" width="2" height="2" fill="#8D62D3"/>
<rect x="4" y="10" width="2" height="2" fill="#8D62D3"/>
<rect x="4" y="12" width="2" height="2" fill="#8D62D3"/>
<rect x="6" width="2" height="2" fill="#8D62D3"/>
<rect x="6" y="2" width="2" height="2" fill="#8D62D3"/>
<rect x="6" y="4" width="2" height="2" fill="#8D62D3"/>
<rect x="6" y="6" width="2" height="2" fill="#8D62D3"/>
<rect x="6" y="8" width="2" height="2" fill="#8D62D3"/>
<rect x="6" y="10" width="2" height="2" fill="#8D62D3"/>
<rect x="6" y="12" width="2" height="2" fill="#8D62D3"/>
<rect x="8" width="2" height="2" fill="#8D62D3"/>
<rect x="8" y="2" width="2" height="2" fill="#8D62D3"/>
<rect x="8" y="4" width="2" height="2" fill="#8D62D3"/>
<rect x="8" y="6" width="2" height="2" fill="#8D62D3"/>
<rect x="8" y="8" width="2" height="2" fill="#8D62D3"/>
<rect x="8" y="10" width="2" height="2" fill="#8D62D3"/>
<rect x="8" y="12" width="2" height="2" fill="#8D62D3"/>
<rect x="10" width="2" height="2" fill="#8D62D3"/>
<rect x="10" y="2" width="2" height="2" fill="#8D62D3"/>
<rect x="10" y="4" width="2" height="2" fill="#8D62D3"/>
<rect x="10" y="6" width="2" height="2" fill="#8D62D3"/>
<rect x="10" y="8" width="2" height="2" fill="#8D62D3"/>
<rect x="10" y="10" width="2" height="2" fill="#8D62D3"/>
<rect x="10" y="12" width="2" height="2" fill="#8D62D3"/>
<rect x="14" y="4" width="2" height="2" fill="#8D62D3"/>
<rect x="12" y="4" width="2" height="2" fill="#8D62D3"/>
<rect x="2" y="4" width="2" height="2" fill="#8D62D3"/>
<rect x="14" y="6" width="2" height="2" fill="#8D62D3"/>
<rect x="12" y="6" width="2" height="2" fill="#8D62D3"/>
<rect x="2" y="6" width="2" height="2" fill="#8D62D3"/>
<rect x="14" y="8" width="2" height="2" fill="#8D62D3"/>
<rect x="12" y="8" width="2" height="2" fill="#8D62D3"/>
<rect x="2" y="8" width="2" height="2" fill="#8D62D3"/>
<rect x="14" y="10" width="2" height="2" fill="#8D62D3"/>
<rect x="12" y="10" width="2" height="2" fill="#8D62D3"/>
<rect x="2" y="10" width="2" height="2" fill="#8D62D3"/>
<rect x="10" y="14" width="2" height="2" fill="#8D62D3"/>
<rect x="8" y="14" width="2" height="2" fill="#8D62D3"/>
<rect x="6" y="14" width="2" height="2" fill="#8D62D3"/>
<rect x="4" y="14" width="2" height="2" fill="#8D62D3"/>
<rect y="10" width="2" height="2" fill="#8D62D3"/>
<rect y="8" width="2" height="2" fill="#8D62D3"/>
<rect y="6" width="2" height="2" fill="#8D62D3"/>
<rect y="4" width="2" height="2" fill="#8D62D3"/>
<rect x="2" y="2" width="2" height="2" fill="#8D62D3"/>
<rect x="12" y="2" width="2" height="2" fill="#8D62D3"/>
<rect x="12" y="12" width="2" height="2" fill="#8D62D3"/>
<rect x="2" y="12" width="2" height="2" fill="#8D62D3"/>
<rect x="7" y="3.5" width="2" height="2" fill="#16161C"/>
<rect x="7" y="6.5" width="2" height="2" fill="#16161C"/>
<rect x="7" y="8.5" width="2" height="2" fill="#16161C"/>
<rect x="7" y="10.5" width="2" height="2" fill="#16161C"/>
</svg>
