<svg width="14" height="14" viewBox="0 0 14 14" fill="none" xmlns="http://www.w3.org/2000/svg">
<rect x="3.5" width="1.75" height="1.75" fill="white"/>
<rect x="4.375" y="3.9375" width="1.75" height="1.75" fill="white"/>
<rect x="5.25" y="3.0625" width="1.75" height="1.75" fill="white"/>
<rect x="7" y="3.0625" width="1.75" height="1.75" fill="white"/>
<rect x="7.875" y="3.9375" width="1.75" height="1.75" fill="white"/>
<path d="M7.875 5.6875H9.625V6.5625H8.75V7.4375H7.875V5.6875Z" fill="white"/>
<rect x="7" y="5.6875" width="1.75" height="1.75" fill="white"/>
<rect x="6.125" y="6.5625" width="1.75" height="1.75" fill="white"/>
<rect x="6.125" y="9.1875" width="1.75" height="1.75" fill="white"/>
<rect x="5.25" width="1.75" height="1.75" fill="white"/>
<rect x="7" width="1.75" height="1.75" fill="white"/>
<rect x="8.75" width="1.75" height="1.75" fill="white"/>
<rect x="12.25" y="3.5" width="1.75" height="1.75" fill="white"/>
<rect x="12.25" y="5.25" width="1.75" height="1.75" fill="white"/>
<rect x="12.25" y="7" width="1.75" height="1.75" fill="white"/>
<rect x="12.25" y="8.75" width="1.75" height="1.75" fill="white"/>
<rect x="8.75" y="12.25" width="1.75" height="1.75" fill="white"/>
<rect x="7" y="12.25" width="1.75" height="1.75" fill="white"/>
<rect x="5.25" y="12.25" width="1.75" height="1.75" fill="white"/>
<rect x="3.5" y="12.25" width="1.75" height="1.75" fill="white"/>
<rect y="8.75" width="1.75" height="1.75" fill="white"/>
<rect y="7" width="1.75" height="1.75" fill="white"/>
<rect y="5.25" width="1.75" height="1.75" fill="white"/>
<rect y="3.5" width="1.75" height="1.75" fill="white"/>
<rect x="1.75" y="1.75" width="1.75" height="1.75" fill="white"/>
<rect x="10.5" y="1.75" width="1.75" height="1.75" fill="white"/>
<rect x="10.5" y="10.5" width="1.75" height="1.75" fill="white"/>
<rect x="1.75" y="10.5" width="1.75" height="1.75" fill="white"/>
</svg>
