<svg width="69" height="12" viewBox="0 0 69 12" fill="none" xmlns="http://www.w3.org/2000/svg">
<g filter="url(#filter0_d_32638_345534)">
<mask id="path-1-outside-1_32638_345534" maskUnits="userSpaceOnUse" x="-1" y="-2" width="70" height="14" fill="black">
<rect fill="white" x="-1" y="-2" width="70" height="14"/>
<path d="M0.801836 5.03C0.801836 4.05 0.997836 3.17733 1.38984 2.412C1.79117 1.64667 2.3605 1.054 3.09784 0.634C3.83517 0.204666 4.70317 -0.0100005 5.70184 -0.0100005C6.5605 -0.0100005 7.32584 0.153333 7.99784 0.48C8.67917 0.797333 9.22984 1.25 9.64984 1.838C10.0792 2.426 10.3638 3.112 10.5038 3.896H7.22784C7.0785 3.56933 6.86384 3.31733 6.58384 3.14C6.31317 2.95333 6.0005 2.86 5.64584 2.86C5.12317 2.86 4.70784 3.056 4.39984 3.448C4.10117 3.84 3.95184 4.36733 3.95184 5.03C3.95184 5.69267 4.10117 6.22 4.39984 6.612C4.70784 7.004 5.12317 7.2 5.64584 7.2C6.0005 7.2 6.31317 7.11133 6.58384 6.934C6.86384 6.74733 7.0785 6.49067 7.22784 6.164H10.5038C10.3638 6.948 10.0792 7.634 9.64984 8.222C9.22984 8.81 8.67917 9.26733 7.99784 9.594C7.32584 9.91133 6.5605 10.07 5.70184 10.07C4.70317 10.07 3.83517 9.86 3.09784 9.44C2.3605 9.01067 1.79117 8.41333 1.38984 7.648C0.997836 6.88267 0.801836 6.01 0.801836 5.03ZM15.3749 10.098C14.5815 10.098 13.8675 9.93467 13.2329 9.608C12.5982 9.28133 12.0989 8.81467 11.7349 8.208C11.3802 7.592 11.2029 6.87333 11.2029 6.052C11.2029 5.23067 11.3802 4.51667 11.7349 3.91C12.0989 3.294 12.5982 2.82267 13.2329 2.496C13.8675 2.16933 14.5815 2.006 15.3749 2.006C16.1682 2.006 16.8822 2.16933 17.5169 2.496C18.1515 2.82267 18.6462 3.294 19.0009 3.91C19.3649 4.51667 19.5469 5.23067 19.5469 6.052C19.5469 6.87333 19.3649 7.592 19.0009 8.208C18.6462 8.81467 18.1515 9.28133 17.5169 9.608C16.8822 9.93467 16.1682 10.098 15.3749 10.098ZM15.3749 7.41C15.6642 7.41 15.9069 7.298 16.1029 7.074C16.2989 6.84067 16.3969 6.5 16.3969 6.052C16.3969 5.604 16.2989 5.268 16.1029 5.044C15.9069 4.81067 15.6642 4.694 15.3749 4.694C15.0855 4.694 14.8429 4.81067 14.6469 5.044C14.4509 5.268 14.3529 5.604 14.3529 6.052C14.3529 6.5 14.4462 6.84067 14.6329 7.074C14.8289 7.298 15.0762 7.41 15.3749 7.41ZM31.0652 2.048C32.0732 2.048 32.8526 2.35133 33.4032 2.958C33.9632 3.56467 34.2432 4.386 34.2432 5.422V10H31.1492V5.814C31.1492 5.478 31.0466 5.21667 30.8412 5.03C30.6452 4.834 30.3792 4.736 30.0432 4.736C29.6979 4.736 29.4272 4.834 29.2312 5.03C29.0352 5.21667 28.9372 5.478 28.9372 5.814V10H25.8432V5.814C25.8432 5.478 25.7406 5.21667 25.5352 5.03C25.3392 4.834 25.0732 4.736 24.7372 4.736C24.3919 4.736 24.1212 4.834 23.9252 5.03C23.7292 5.21667 23.6312 5.478 23.6312 5.814V10H20.5232V2.104H23.6312V3.168C23.8552 2.832 24.1586 2.56133 24.5412 2.356C24.9332 2.15067 25.3906 2.048 25.9132 2.048C26.4826 2.048 26.9866 2.174 27.4252 2.426C27.8639 2.66867 28.2139 3.014 28.4752 3.462C28.7646 3.05133 29.1332 2.71533 29.5812 2.454C30.0292 2.18333 30.5239 2.048 31.0652 2.048ZM46.1316 2.048C47.1396 2.048 47.919 2.35133 48.4696 2.958C49.0296 3.56467 49.3096 4.386 49.3096 5.422V10H46.2156V5.814C46.2156 5.478 46.113 5.21667 45.9076 5.03C45.7116 4.834 45.4456 4.736 45.1096 4.736C44.7643 4.736 44.4936 4.834 44.2976 5.03C44.1016 5.21667 44.0036 5.478 44.0036 5.814V10H40.9096V5.814C40.9096 5.478 40.807 5.21667 40.6016 5.03C40.4056 4.834 40.1396 4.736 39.8036 4.736C39.4583 4.736 39.1876 4.834 38.9916 5.03C38.7956 5.21667 38.6976 5.478 38.6976 5.814V10H35.5896V2.104H38.6976V3.168C38.9216 2.832 39.225 2.56133 39.6076 2.356C39.9996 2.15067 40.457 2.048 40.9796 2.048C41.549 2.048 42.053 2.174 42.4916 2.426C42.9303 2.66867 43.2803 3.014 43.5416 3.462C43.831 3.05133 44.1996 2.71533 44.6476 2.454C45.0956 2.18333 45.5903 2.048 46.1316 2.048ZM54.4081 10.098C53.6147 10.098 52.9007 9.93467 52.2661 9.608C51.6314 9.28133 51.1321 8.81467 50.7681 8.208C50.4134 7.592 50.2361 6.87333 50.2361 6.052C50.2361 5.23067 50.4134 4.51667 50.7681 3.91C51.1321 3.294 51.6314 2.82267 52.2661 2.496C52.9007 2.16933 53.6147 2.006 54.4081 2.006C55.2014 2.006 55.9154 2.16933 56.5501 2.496C57.1847 2.82267 57.6794 3.294 58.0341 3.91C58.3981 4.51667 58.5801 5.23067 58.5801 6.052C58.5801 6.87333 58.3981 7.592 58.0341 8.208C57.6794 8.81467 57.1847 9.28133 56.5501 9.608C55.9154 9.93467 55.2014 10.098 54.4081 10.098ZM54.4081 7.41C54.6974 7.41 54.9401 7.298 55.1361 7.074C55.3321 6.84067 55.4301 6.5 55.4301 6.052C55.4301 5.604 55.3321 5.268 55.1361 5.044C54.9401 4.81067 54.6974 4.694 54.4081 4.694C54.1187 4.694 53.8761 4.81067 53.6801 5.044C53.4841 5.268 53.3861 5.604 53.3861 6.052C53.3861 6.5 53.4794 6.84067 53.6661 7.074C53.8621 7.298 54.1094 7.41 54.4081 7.41ZM65.0864 2.048C65.9918 2.048 66.6964 2.35133 67.2004 2.958C67.7138 3.56467 67.9704 4.386 67.9704 5.422V10H64.8764V5.814C64.8764 5.44067 64.7738 5.14667 64.5684 4.932C64.3724 4.708 64.1064 4.596 63.7704 4.596C63.4251 4.596 63.1544 4.708 62.9584 4.932C62.7624 5.14667 62.6644 5.44067 62.6644 5.814V10H59.5564V2.104H62.6644V3.308C62.9071 2.93467 63.2291 2.63133 63.6304 2.398C64.0411 2.16467 64.5264 2.048 65.0864 2.048Z"/>
</mask>
<path d="M0.801836 5.03C0.801836 4.05 0.997836 3.17733 1.38984 2.412C1.79117 1.64667 2.3605 1.054 3.09784 0.634C3.83517 0.204666 4.70317 -0.0100005 5.70184 -0.0100005C6.5605 -0.0100005 7.32584 0.153333 7.99784 0.48C8.67917 0.797333 9.22984 1.25 9.64984 1.838C10.0792 2.426 10.3638 3.112 10.5038 3.896H7.22784C7.0785 3.56933 6.86384 3.31733 6.58384 3.14C6.31317 2.95333 6.0005 2.86 5.64584 2.86C5.12317 2.86 4.70784 3.056 4.39984 3.448C4.10117 3.84 3.95184 4.36733 3.95184 5.03C3.95184 5.69267 4.10117 6.22 4.39984 6.612C4.70784 7.004 5.12317 7.2 5.64584 7.2C6.0005 7.2 6.31317 7.11133 6.58384 6.934C6.86384 6.74733 7.0785 6.49067 7.22784 6.164H10.5038C10.3638 6.948 10.0792 7.634 9.64984 8.222C9.22984 8.81 8.67917 9.26733 7.99784 9.594C7.32584 9.91133 6.5605 10.07 5.70184 10.07C4.70317 10.07 3.83517 9.86 3.09784 9.44C2.3605 9.01067 1.79117 8.41333 1.38984 7.648C0.997836 6.88267 0.801836 6.01 0.801836 5.03ZM15.3749 10.098C14.5815 10.098 13.8675 9.93467 13.2329 9.608C12.5982 9.28133 12.0989 8.81467 11.7349 8.208C11.3802 7.592 11.2029 6.87333 11.2029 6.052C11.2029 5.23067 11.3802 4.51667 11.7349 3.91C12.0989 3.294 12.5982 2.82267 13.2329 2.496C13.8675 2.16933 14.5815 2.006 15.3749 2.006C16.1682 2.006 16.8822 2.16933 17.5169 2.496C18.1515 2.82267 18.6462 3.294 19.0009 3.91C19.3649 4.51667 19.5469 5.23067 19.5469 6.052C19.5469 6.87333 19.3649 7.592 19.0009 8.208C18.6462 8.81467 18.1515 9.28133 17.5169 9.608C16.8822 9.93467 16.1682 10.098 15.3749 10.098ZM15.3749 7.41C15.6642 7.41 15.9069 7.298 16.1029 7.074C16.2989 6.84067 16.3969 6.5 16.3969 6.052C16.3969 5.604 16.2989 5.268 16.1029 5.044C15.9069 4.81067 15.6642 4.694 15.3749 4.694C15.0855 4.694 14.8429 4.81067 14.6469 5.044C14.4509 5.268 14.3529 5.604 14.3529 6.052C14.3529 6.5 14.4462 6.84067 14.6329 7.074C14.8289 7.298 15.0762 7.41 15.3749 7.41ZM31.0652 2.048C32.0732 2.048 32.8526 2.35133 33.4032 2.958C33.9632 3.56467 34.2432 4.386 34.2432 5.422V10H31.1492V5.814C31.1492 5.478 31.0466 5.21667 30.8412 5.03C30.6452 4.834 30.3792 4.736 30.0432 4.736C29.6979 4.736 29.4272 4.834 29.2312 5.03C29.0352 5.21667 28.9372 5.478 28.9372 5.814V10H25.8432V5.814C25.8432 5.478 25.7406 5.21667 25.5352 5.03C25.3392 4.834 25.0732 4.736 24.7372 4.736C24.3919 4.736 24.1212 4.834 23.9252 5.03C23.7292 5.21667 23.6312 5.478 23.6312 5.814V10H20.5232V2.104H23.6312V3.168C23.8552 2.832 24.1586 2.56133 24.5412 2.356C24.9332 2.15067 25.3906 2.048 25.9132 2.048C26.4826 2.048 26.9866 2.174 27.4252 2.426C27.8639 2.66867 28.2139 3.014 28.4752 3.462C28.7646 3.05133 29.1332 2.71533 29.5812 2.454C30.0292 2.18333 30.5239 2.048 31.0652 2.048ZM46.1316 2.048C47.1396 2.048 47.919 2.35133 48.4696 2.958C49.0296 3.56467 49.3096 4.386 49.3096 5.422V10H46.2156V5.814C46.2156 5.478 46.113 5.21667 45.9076 5.03C45.7116 4.834 45.4456 4.736 45.1096 4.736C44.7643 4.736 44.4936 4.834 44.2976 5.03C44.1016 5.21667 44.0036 5.478 44.0036 5.814V10H40.9096V5.814C40.9096 5.478 40.807 5.21667 40.6016 5.03C40.4056 4.834 40.1396 4.736 39.8036 4.736C39.4583 4.736 39.1876 4.834 38.9916 5.03C38.7956 5.21667 38.6976 5.478 38.6976 5.814V10H35.5896V2.104H38.6976V3.168C38.9216 2.832 39.225 2.56133 39.6076 2.356C39.9996 2.15067 40.457 2.048 40.9796 2.048C41.549 2.048 42.053 2.174 42.4916 2.426C42.9303 2.66867 43.2803 3.014 43.5416 3.462C43.831 3.05133 44.1996 2.71533 44.6476 2.454C45.0956 2.18333 45.5903 2.048 46.1316 2.048ZM54.4081 10.098C53.6147 10.098 52.9007 9.93467 52.2661 9.608C51.6314 9.28133 51.1321 8.81467 50.7681 8.208C50.4134 7.592 50.2361 6.87333 50.2361 6.052C50.2361 5.23067 50.4134 4.51667 50.7681 3.91C51.1321 3.294 51.6314 2.82267 52.2661 2.496C52.9007 2.16933 53.6147 2.006 54.4081 2.006C55.2014 2.006 55.9154 2.16933 56.5501 2.496C57.1847 2.82267 57.6794 3.294 58.0341 3.91C58.3981 4.51667 58.5801 5.23067 58.5801 6.052C58.5801 6.87333 58.3981 7.592 58.0341 8.208C57.6794 8.81467 57.1847 9.28133 56.5501 9.608C55.9154 9.93467 55.2014 10.098 54.4081 10.098ZM54.4081 7.41C54.6974 7.41 54.9401 7.298 55.1361 7.074C55.3321 6.84067 55.4301 6.5 55.4301 6.052C55.4301 5.604 55.3321 5.268 55.1361 5.044C54.9401 4.81067 54.6974 4.694 54.4081 4.694C54.1187 4.694 53.8761 4.81067 53.6801 5.044C53.4841 5.268 53.3861 5.604 53.3861 6.052C53.3861 6.5 53.4794 6.84067 53.6661 7.074C53.8621 7.298 54.1094 7.41 54.4081 7.41ZM65.0864 2.048C65.9918 2.048 66.6964 2.35133 67.2004 2.958C67.7138 3.56467 67.9704 4.386 67.9704 5.422V10H64.8764V5.814C64.8764 5.44067 64.7738 5.14667 64.5684 4.932C64.3724 4.708 64.1064 4.596 63.7704 4.596C63.4251 4.596 63.1544 4.708 62.9584 4.932C62.7624 5.14667 62.6644 5.44067 62.6644 5.814V10H59.5564V2.104H62.6644V3.308C62.9071 2.93467 63.2291 2.63133 63.6304 2.398C64.0411 2.16467 64.5264 2.048 65.0864 2.048Z" fill="white"/>
<path d="M1.38984 2.412L0.504175 1.94757L0.499793 1.95612L1.38984 2.412ZM3.09784 0.634L3.59281 1.50296L3.60103 1.49817L3.09784 0.634ZM7.99784 0.48L7.56064 1.37937L7.56811 1.383L7.57563 1.3865L7.99784 0.48ZM9.64984 1.838L8.83606 2.41927L8.84221 2.42769L9.64984 1.838ZM10.5038 3.896V4.896H11.6982L11.4883 3.72021L10.5038 3.896ZM7.22784 3.896L6.31836 4.31176L6.58544 4.896H7.22784V3.896ZM6.58384 3.14L6.0161 3.96321L6.03223 3.97434L6.04878 3.98482L6.58384 3.14ZM4.39984 3.448L3.61352 2.83018L3.60892 2.83603L3.6044 2.84196L4.39984 3.448ZM4.39984 6.612L3.6044 7.21804L3.60892 7.22397L3.61352 7.22982L4.39984 6.612ZM6.58384 6.934L7.13188 7.77049L7.13854 7.76605L6.58384 6.934ZM7.22784 6.164V5.164H6.58544L6.31836 5.74824L7.22784 6.164ZM10.5038 6.164L11.4883 6.33979L11.6982 5.164H10.5038V6.164ZM9.64984 8.222L8.84217 7.63227L8.8361 7.64076L9.64984 8.222ZM7.99784 9.594L8.42485 10.4983L8.43017 10.4957L7.99784 9.594ZM3.09784 9.44L2.59462 10.3042L2.60288 10.3089L3.09784 9.44ZM1.38984 7.648L0.499752 8.1039L0.504216 8.11241L1.38984 7.648ZM1.80184 5.03C1.80184 4.18623 1.96967 3.47352 2.27988 2.86787L0.499793 1.95612C0.0260011 2.88115 -0.198164 3.91377 -0.198164 5.03H1.80184ZM2.27546 2.87641C2.58967 2.27721 3.0249 1.8264 3.59279 1.50292L2.60288 -0.23492C1.6961 0.2816 0.992665 1.01613 0.504216 1.94759L2.27546 2.87641ZM3.60103 1.49817C4.16128 1.17195 4.84954 0.99 5.70184 0.99V-1.01C4.5568 -1.01 3.50906 -0.762618 2.59465 -0.230176L3.60103 1.49817ZM5.70184 0.99C6.43165 0.99 7.04385 1.12815 7.56064 1.37937L8.43503 -0.419368C7.60782 -0.821482 6.68936 -1.01 5.70184 -1.01V0.99ZM7.57563 1.3865C8.10712 1.63404 8.52048 1.97737 8.8361 2.41924L10.4636 1.25676C9.93919 0.522631 9.25122 -0.0393772 8.42004 -0.4265L7.57563 1.3865ZM8.84221 2.42769C9.17376 2.88177 9.40358 3.42314 9.51941 4.07179L11.4883 3.72021C11.3241 2.80086 10.9846 1.97023 10.4575 1.24831L8.84221 2.42769ZM10.5038 2.896H7.22784V4.896H10.5038V2.896ZM8.13731 3.48024C7.91443 2.99269 7.57638 2.58493 7.11889 2.29518L6.04878 3.98482C6.15129 4.04974 6.24258 4.14598 6.31836 4.31176L8.13731 3.48024ZM7.15157 2.31679C6.70067 2.00582 6.18652 1.86 5.64584 1.86V3.86C5.81448 3.86 5.92567 3.90085 6.0161 3.96321L7.15157 2.31679ZM5.64584 1.86C4.83354 1.86 4.1215 2.18365 3.61352 2.83018L5.18615 4.06582C5.29417 3.92835 5.4128 3.86 5.64584 3.86V1.86ZM3.6044 2.84196C3.13388 3.45952 2.95184 4.22323 2.95184 5.03H4.95184C4.95184 4.51143 5.06846 4.22047 5.19527 4.05404L3.6044 2.84196ZM2.95184 5.03C2.95184 5.83677 3.13388 6.60047 3.6044 7.21804L5.19527 6.00596C5.06846 5.83953 4.95184 5.54857 4.95184 5.03H2.95184ZM3.61352 7.22982C4.1215 7.87635 4.83354 8.2 5.64584 8.2V6.2C5.4128 6.2 5.29417 6.13165 5.18615 5.99418L3.61352 7.22982ZM5.64584 8.2C6.17574 8.2 6.68279 8.06468 7.13186 7.77046L6.03581 6.09754C5.94355 6.15798 5.82526 6.2 5.64584 6.2V8.2ZM7.13854 7.76605C7.58369 7.46928 7.91613 7.0636 8.13731 6.57976L6.31836 5.74824C6.24088 5.91774 6.14398 6.02539 6.02914 6.10195L7.13854 7.76605ZM7.22784 7.164H10.5038V5.164H7.22784V7.164ZM9.51941 5.98821C9.40358 6.63686 9.17376 7.17823 8.84221 7.63231L10.4575 8.81169C10.9846 8.08977 11.3241 7.25914 11.4883 6.33979L9.51941 5.98821ZM8.8361 7.64076C8.51871 8.08511 8.10191 8.4351 7.56551 8.69228L8.43017 10.4957C9.25643 10.0996 9.94096 9.53489 10.4636 8.80324L8.8361 7.64076ZM7.57083 8.68975C7.05161 8.93494 6.43573 9.07 5.70184 9.07V11.07C6.68527 11.07 7.60007 10.8877 8.42484 10.4982L7.57083 8.68975ZM5.70184 9.07C4.84585 9.07 4.15457 8.89108 3.59279 8.57108L2.60288 10.3089C3.51577 10.8289 4.56049 11.07 5.70184 11.07V9.07ZM3.60103 8.57582C3.02842 8.24241 2.59063 7.78462 2.27546 7.18359L0.504216 8.11241C0.991708 9.04205 1.69258 9.77892 2.59465 10.3042L3.60103 8.57582ZM2.27988 7.19212C1.96967 6.58648 1.80184 5.87377 1.80184 5.03H-0.198164C-0.198164 6.14623 0.0260011 7.17885 0.499793 8.10388L2.27988 7.19212ZM13.2329 9.608L13.6905 8.71886L13.2329 9.608ZM11.7349 8.208L10.8682 8.70696L10.8727 8.71477L10.8774 8.7225L11.7349 8.208ZM11.7349 3.91L10.8739 3.40126L10.8716 3.4053L11.7349 3.91ZM13.2329 2.496L13.6905 3.38514L13.6905 3.38514L13.2329 2.496ZM17.5169 2.496L17.0592 3.38514L17.0592 3.38514L17.5169 2.496ZM19.0009 3.91L18.1342 4.40896L18.1387 4.41677L18.1434 4.4245L19.0009 3.91ZM19.0009 8.208L18.1399 7.69926L18.1376 7.7033L19.0009 8.208ZM17.5169 9.608L17.0592 8.71886L17.0592 8.71886L17.5169 9.608ZM16.1029 7.074L16.8554 7.7325L16.8621 7.72491L16.8686 7.71719L16.1029 7.074ZM16.1029 5.044L15.3371 5.68719L15.3436 5.69491L15.3503 5.70251L16.1029 5.044ZM14.6469 5.044L15.3994 5.7025L15.4061 5.69491L15.4126 5.68719L14.6469 5.044ZM14.6329 7.074L13.852 7.6987L13.8658 7.71591L13.8803 7.7325L14.6329 7.074ZM15.3749 9.098C14.7227 9.098 14.1684 8.96486 13.6905 8.71886L12.7752 10.4971C13.5666 10.9045 14.4403 11.098 15.3749 11.098V9.098ZM13.6905 8.71886C13.2198 8.47661 12.8596 8.139 12.5923 7.6935L10.8774 8.7225C11.3381 9.49034 11.9765 10.0861 12.7752 10.4971L13.6905 8.71886ZM12.6015 7.70904C12.347 7.26704 12.2029 6.72577 12.2029 6.052H10.2029C10.2029 7.0209 10.4134 7.91696 10.8682 8.70696L12.6015 7.70904ZM12.2029 6.052C12.2029 5.3778 12.3471 4.84408 12.5981 4.4147L10.8716 3.4053C10.4132 4.18925 10.2029 5.08353 10.2029 6.052H12.2029ZM12.5958 4.41873C12.8641 3.96459 13.2238 3.62532 13.6905 3.38514L12.7752 1.60686C11.9725 2.02001 11.3336 2.62341 10.8739 3.40127L12.5958 4.41873ZM13.6905 3.38514C14.1684 3.13914 14.7227 3.006 15.3749 3.006V1.006C14.4403 1.006 13.5666 1.19953 12.7752 1.60686L13.6905 3.38514ZM15.3749 3.006C16.027 3.006 16.5813 3.13914 17.0592 3.38514L17.9745 1.60686C17.1831 1.19953 16.3094 1.006 15.3749 1.006V3.006ZM17.0592 3.38514C17.5236 3.62418 17.876 3.96039 18.1342 4.40896L19.8675 3.41104C19.4164 2.62761 18.7794 2.02116 17.9745 1.60686L17.0592 3.38514ZM18.1434 4.4245C18.4 4.85219 18.5469 5.38232 18.5469 6.052H20.5469C20.5469 5.07902 20.3297 4.18114 19.8583 3.3955L18.1434 4.4245ZM18.5469 6.052C18.5469 6.72128 18.4001 7.25897 18.1399 7.69927L19.8618 8.71673C20.3296 7.92503 20.5469 7.02539 20.5469 6.052H18.5469ZM18.1376 7.7033C17.8804 8.14316 17.5277 8.47774 17.0592 8.71886L17.9745 10.4971C18.7753 10.0849 19.412 9.48617 19.8641 8.7127L18.1376 7.7033ZM17.0592 8.71886C16.5813 8.96486 16.027 9.098 15.3749 9.098V11.098C16.3094 11.098 17.1831 10.9045 17.9745 10.4971L17.0592 8.71886ZM15.3749 8.41C15.9619 8.41 16.4758 8.16639 16.8554 7.7325L15.3503 6.4155C15.3415 6.42551 15.3375 6.42832 15.339 6.42712C15.3408 6.42575 15.3462 6.422 15.3548 6.41804C15.3634 6.41406 15.3714 6.41165 15.3771 6.41045C15.3825 6.40931 15.3824 6.41 15.3749 6.41V8.41ZM16.8686 7.71719C17.273 7.23569 17.3969 6.6278 17.3969 6.052H15.3969C15.3969 6.3722 15.3247 6.44564 15.3371 6.43081L16.8686 7.71719ZM17.3969 6.052C17.3969 5.48022 17.2747 4.86462 16.8554 4.38549L15.3503 5.70251C15.323 5.67138 15.3969 5.72778 15.3969 6.052H17.3969ZM16.8686 4.40081C16.4941 3.95506 15.9771 3.694 15.3749 3.694V5.694C15.3796 5.694 15.377 5.69444 15.3689 5.69266C15.3606 5.69083 15.3505 5.68755 15.3406 5.68275C15.3307 5.678 15.3249 5.67372 15.3234 5.67255C15.3222 5.6716 15.3272 5.67531 15.3371 5.68719L16.8686 4.40081ZM15.3749 3.694C14.7726 3.694 14.2556 3.95506 13.8811 4.40081L15.4126 5.68719C15.4225 5.67531 15.4275 5.6716 15.4263 5.67255C15.4248 5.67372 15.419 5.678 15.4091 5.68275C15.3992 5.68755 15.3892 5.69083 15.3808 5.69266C15.3727 5.69444 15.3701 5.694 15.3749 5.694V3.694ZM13.8943 4.3855C13.475 4.86462 13.3529 5.48022 13.3529 6.052H15.3529C15.3529 5.72778 15.4267 5.67138 15.3994 5.7025L13.8943 4.3855ZM13.3529 6.052C13.3529 6.61845 13.4679 7.21862 13.852 7.6987L15.4137 6.4493C15.4245 6.46272 15.3529 6.38155 15.3529 6.052H13.3529ZM13.8803 7.7325C14.2669 8.17438 14.789 8.41 15.3749 8.41V6.41C15.3629 6.41 15.359 6.4089 15.3614 6.4094C15.3641 6.40995 15.3702 6.41156 15.3779 6.41505C15.3856 6.41853 15.391 6.42212 15.3935 6.42403C15.3958 6.42578 15.3928 6.42397 15.3854 6.4155L13.8803 7.7325ZM33.4032 2.958L32.6628 3.63013L32.6684 3.63628L33.4032 2.958ZM34.2432 10V11H35.2432V10H34.2432ZM31.1492 10H30.1492V11H31.1492V10ZM30.8412 5.03L30.1341 5.73711L30.151 5.75393L30.1686 5.76994L30.8412 5.03ZM29.2312 5.03L29.9209 5.75414L29.9297 5.74573L29.9384 5.73711L29.2312 5.03ZM28.9372 10V11H29.9372V10H28.9372ZM25.8432 10H24.8432V11H25.8432V10ZM25.5352 5.03L24.8281 5.73711L24.845 5.75393L24.8626 5.76994L25.5352 5.03ZM23.9252 5.03L24.6149 5.75414L24.6237 5.74573L24.6323 5.73711L23.9252 5.03ZM23.6312 10V11H24.6312V10H23.6312ZM20.5232 10H19.5232V11H20.5232V10ZM20.5232 2.104V1.104H19.5232V2.104H20.5232ZM23.6312 2.104H24.6312V1.104H23.6312V2.104ZM23.6312 3.168H22.6312V6.47078L24.4633 3.7227L23.6312 3.168ZM24.5412 2.356L24.0772 1.47012L24.0684 1.47484L24.5412 2.356ZM27.4252 2.426L26.9271 3.29311L26.9341 3.29713L26.9412 3.30103L27.4252 2.426ZM28.4752 3.462L27.6115 3.96587L28.396 5.31075L29.2927 4.03795L28.4752 3.462ZM29.5812 2.454L30.0851 3.31778L30.0918 3.3139L30.0984 3.30992L29.5812 2.454ZM31.0652 3.048C31.8613 3.048 32.3441 3.27903 32.6628 3.63011L34.1437 2.28589C33.361 1.42364 32.2852 1.048 31.0652 1.048V3.048ZM32.6684 3.63628C33.0175 4.01441 33.2432 4.57063 33.2432 5.422H35.2432C35.2432 4.20137 34.909 3.11492 34.138 2.27972L32.6684 3.63628ZM33.2432 5.422V10H35.2432V5.422H33.2432ZM34.2432 9H31.1492V11H34.2432V9ZM32.1492 10V5.814H30.1492V10H32.1492ZM32.1492 5.814C32.1492 5.26063 31.971 4.70561 31.5139 4.29006L30.1686 5.76994C30.1641 5.76591 30.158 5.75928 30.152 5.75053C30.146 5.74181 30.1427 5.73478 30.1415 5.73165C30.139 5.72539 30.1492 5.74711 30.1492 5.814H32.1492ZM31.5483 4.32289C31.1262 3.90079 30.5844 3.736 30.0432 3.736V5.736C30.1146 5.736 30.1451 5.7464 30.149 5.74784C30.151 5.74856 30.1487 5.7479 30.1442 5.74504C30.1397 5.74213 30.1361 5.73906 30.1341 5.73711L31.5483 4.32289ZM30.0432 3.736C29.5016 3.736 28.9514 3.89566 28.5241 4.32289L29.9384 5.73711C29.935 5.7405 29.9303 5.74431 29.9253 5.74747C29.9204 5.75055 29.9185 5.75093 29.9217 5.74977C29.9285 5.74729 29.9641 5.736 30.0432 5.736V3.736ZM28.5416 4.30586C28.1016 4.72491 27.9372 5.2748 27.9372 5.814H29.9372C29.9372 5.74214 29.9478 5.71522 29.9471 5.71712C29.9466 5.71826 29.9442 5.7242 29.9387 5.73266C29.9331 5.74121 29.9267 5.74864 29.9209 5.75414L28.5416 4.30586ZM27.9372 5.814V10H29.9372V5.814H27.9372ZM28.9372 9H25.8432V11H28.9372V9ZM26.8432 10V5.814H24.8432V10H26.8432ZM26.8432 5.814C26.8432 5.26063 26.665 4.70561 26.2079 4.29006L24.8626 5.76994C24.8581 5.76591 24.852 5.75928 24.846 5.75053C24.84 5.74181 24.8367 5.73478 24.8355 5.73165C24.833 5.72539 24.8432 5.74711 24.8432 5.814H26.8432ZM26.2423 4.32289C25.8202 3.90079 25.2784 3.736 24.7372 3.736V5.736C24.8086 5.736 24.8391 5.7464 24.843 5.74784C24.845 5.74856 24.8427 5.7479 24.8382 5.74504C24.8337 5.74213 24.8301 5.73906 24.8281 5.73711L26.2423 4.32289ZM24.7372 3.736C24.1956 3.736 23.6454 3.89566 23.2181 4.32289L24.6323 5.73711C24.629 5.7405 24.6243 5.74431 24.6193 5.74747C24.6144 5.75055 24.6125 5.75093 24.6157 5.74977C24.6225 5.74729 24.6581 5.736 24.7372 5.736V3.736ZM23.2356 4.30586C22.7956 4.72491 22.6312 5.2748 22.6312 5.814H24.6312C24.6312 5.74214 24.6418 5.71522 24.6411 5.71712C24.6406 5.71826 24.6382 5.7242 24.6327 5.73266C24.6271 5.74121 24.6207 5.74864 24.6149 5.75414L23.2356 4.30586ZM22.6312 5.814V10H24.6312V5.814H22.6312ZM23.6312 9H20.5232V11H23.6312V9ZM21.5232 10V2.104H19.5232V10H21.5232ZM20.5232 3.104H23.6312V1.104H20.5232V3.104ZM22.6312 2.104V3.168H24.6312V2.104H22.6312ZM24.4633 3.7227C24.5894 3.53358 24.7649 3.37084 25.0141 3.23716L24.0684 1.47484C23.5522 1.75182 23.1211 2.13042 22.7992 2.6133L24.4633 3.7227ZM25.0052 3.24183C25.2303 3.12397 25.523 3.048 25.9132 3.048V1.048C25.2582 1.048 24.6362 1.17737 24.0772 1.47017L25.0052 3.24183ZM25.9132 3.048C26.3301 3.048 26.6583 3.13868 26.9271 3.29311L27.9234 1.55889C27.3149 1.20932 26.635 1.048 25.9132 1.048V3.048ZM26.9412 3.30103C27.2165 3.45335 27.4377 3.66791 27.6115 3.96587L29.339 2.95813C28.9902 2.36009 28.5113 1.88398 27.9093 1.55097L26.9412 3.30103ZM29.2927 4.03795C29.4967 3.74847 29.757 3.5092 30.0851 3.31778L29.0774 1.59022C28.5095 1.92147 28.0325 2.3542 27.6578 2.88605L29.2927 4.03795ZM30.0984 3.30992C30.3848 3.13684 30.6996 3.048 31.0652 3.048V1.048C30.3482 1.048 29.6737 1.22983 29.0641 1.59808L30.0984 3.30992ZM48.4696 2.958L47.7292 3.63013L47.7348 3.63628L48.4696 2.958ZM49.3096 10V11H50.3096V10H49.3096ZM46.2156 10H45.2156V11H46.2156V10ZM45.9076 5.03L45.2005 5.73711L45.2174 5.75393L45.235 5.76994L45.9076 5.03ZM44.2976 5.03L44.9873 5.75414L44.9961 5.74573L45.0048 5.73711L44.2976 5.03ZM44.0036 10V11H45.0036V10H44.0036ZM40.9096 10H39.9096V11H40.9096V10ZM40.6016 5.03L39.8945 5.73711L39.9114 5.75393L39.929 5.76994L40.6016 5.03ZM38.9916 5.03L39.6813 5.75414L39.6901 5.74573L39.6988 5.73711L38.9916 5.03ZM38.6976 10V11H39.6976V10H38.6976ZM35.5896 10H34.5896V11H35.5896V10ZM35.5896 2.104V1.104H34.5896V2.104H35.5896ZM38.6976 2.104H39.6976V1.104H38.6976V2.104ZM38.6976 3.168H37.6976V6.47078L39.5297 3.7227L38.6976 3.168ZM39.6076 2.356L39.1436 1.47012L39.1348 1.47484L39.6076 2.356ZM42.4916 2.426L41.9935 3.29311L42.0005 3.29713L42.0076 3.30103L42.4916 2.426ZM43.5416 3.462L42.6779 3.96587L43.4624 5.31075L44.3591 4.03795L43.5416 3.462ZM44.6476 2.454L45.1515 3.31778L45.1582 3.3139L45.1648 3.30992L44.6476 2.454ZM46.1316 3.048C46.9277 3.048 47.4105 3.27903 47.7292 3.63011L49.2101 2.28589C48.4274 1.42364 47.3516 1.048 46.1316 1.048V3.048ZM47.7348 3.63628C48.0839 4.01441 48.3096 4.57063 48.3096 5.422H50.3096C50.3096 4.20137 49.9754 3.11492 49.2045 2.27972L47.7348 3.63628ZM48.3096 5.422V10H50.3096V5.422H48.3096ZM49.3096 9H46.2156V11H49.3096V9ZM47.2156 10V5.814H45.2156V10H47.2156ZM47.2156 5.814C47.2156 5.26063 47.0374 4.70561 46.5803 4.29006L45.235 5.76994C45.2305 5.76591 45.2244 5.75928 45.2184 5.75053C45.2124 5.74181 45.2091 5.73478 45.2079 5.73165C45.2054 5.72539 45.2156 5.74711 45.2156 5.814H47.2156ZM46.6148 4.32289C46.1926 3.90079 45.6508 3.736 45.1096 3.736V5.736C45.181 5.736 45.2115 5.7464 45.2154 5.74784C45.2174 5.74856 45.2152 5.7479 45.2106 5.74504C45.2061 5.74213 45.2025 5.73906 45.2005 5.73711L46.6148 4.32289ZM45.1096 3.736C44.568 3.736 44.0178 3.89566 43.5905 4.32289L45.0048 5.73711C45.0014 5.7405 44.9967 5.74431 44.9917 5.74747C44.9868 5.75055 44.9849 5.75093 44.9881 5.74977C44.9949 5.74729 45.0305 5.736 45.1096 5.736V3.736ZM43.608 4.30586C43.168 4.72491 43.0036 5.2748 43.0036 5.814H45.0036C45.0036 5.74214 45.0142 5.71522 45.0135 5.71712C45.0131 5.71826 45.0106 5.7242 45.0051 5.73266C44.9995 5.74121 44.9931 5.74864 44.9873 5.75414L43.608 4.30586ZM43.0036 5.814V10H45.0036V5.814H43.0036ZM44.0036 9H40.9096V11H44.0036V9ZM41.9096 10V5.814H39.9096V10H41.9096ZM41.9096 5.814C41.9096 5.26063 41.7314 4.70561 41.2743 4.29006L39.929 5.76994C39.9245 5.76591 39.9184 5.75928 39.9124 5.75053C39.9064 5.74181 39.9031 5.73478 39.9019 5.73165C39.8994 5.72539 39.9096 5.74711 39.9096 5.814H41.9096ZM41.3088 4.32289C40.8866 3.90079 40.3448 3.736 39.8036 3.736V5.736C39.875 5.736 39.9055 5.7464 39.9094 5.74784C39.9114 5.74856 39.9092 5.7479 39.9046 5.74504C39.9001 5.74213 39.8965 5.73906 39.8945 5.73711L41.3088 4.32289ZM39.8036 3.736C39.262 3.736 38.7118 3.89566 38.2845 4.32289L39.6988 5.73711C39.6954 5.7405 39.6907 5.74431 39.6857 5.74747C39.6808 5.75055 39.6789 5.75093 39.6821 5.74977C39.6889 5.74729 39.7245 5.736 39.8036 5.736V3.736ZM38.302 4.30586C37.862 4.72491 37.6976 5.2748 37.6976 5.814H39.6976C39.6976 5.74214 39.7082 5.71522 39.7075 5.71712C39.7071 5.71826 39.7046 5.7242 39.6991 5.73266C39.6935 5.74121 39.6871 5.74864 39.6813 5.75414L38.302 4.30586ZM37.6976 5.814V10H39.6976V5.814H37.6976ZM38.6976 9H35.5896V11H38.6976V9ZM36.5896 10V2.104H34.5896V10H36.5896ZM35.5896 3.104H38.6976V1.104H35.5896V3.104ZM37.6976 2.104V3.168H39.6976V2.104H37.6976ZM39.5297 3.7227C39.6558 3.53358 39.8313 3.37084 40.0805 3.23716L39.1348 1.47484C38.6186 1.75182 38.1875 2.13042 37.8656 2.6133L39.5297 3.7227ZM40.0717 3.24183C40.2967 3.12397 40.5894 3.048 40.9796 3.048V1.048C40.3246 1.048 39.7026 1.17737 39.1436 1.47017L40.0717 3.24183ZM40.9796 3.048C41.3965 3.048 41.7247 3.13868 41.9935 3.29311L42.9898 1.55889C42.3813 1.20932 41.7014 1.048 40.9796 1.048V3.048ZM42.0076 3.30103C42.2829 3.45335 42.5041 3.66791 42.6779 3.96587L44.4054 2.95813C44.0566 2.36009 43.5777 1.88398 42.9757 1.55097L42.0076 3.30103ZM44.3591 4.03795C44.5631 3.74847 44.8234 3.5092 45.1515 3.31778L44.1438 1.59022C43.5759 1.92147 43.0989 2.3542 42.7242 2.88605L44.3591 4.03795ZM45.1648 3.30992C45.4512 3.13684 45.7661 3.048 46.1316 3.048V1.048C45.4146 1.048 44.7401 1.22983 44.1305 1.59808L45.1648 3.30992ZM52.2661 9.608L52.7237 8.71886L52.2661 9.608ZM50.7681 8.208L49.9014 8.70696L49.9059 8.71477L49.9106 8.7225L50.7681 8.208ZM50.7681 3.91L49.9071 3.40126L49.9048 3.4053L50.7681 3.91ZM52.2661 2.496L52.7237 3.38514L52.7237 3.38514L52.2661 2.496ZM56.5501 2.496L56.0924 3.38514L56.0924 3.38514L56.5501 2.496ZM58.0341 3.91L57.1674 4.40896L57.1719 4.41677L57.1766 4.4245L58.0341 3.91ZM58.0341 8.208L57.1731 7.69926L57.1708 7.7033L58.0341 8.208ZM56.5501 9.608L56.0924 8.71886L56.0924 8.71886L56.5501 9.608ZM55.1361 7.074L55.8886 7.7325L55.8953 7.72491L55.9018 7.71719L55.1361 7.074ZM55.1361 5.044L54.3703 5.68719L54.3768 5.69491L54.3835 5.70251L55.1361 5.044ZM53.6801 5.044L54.4326 5.7025L54.4393 5.69491L54.4458 5.68719L53.6801 5.044ZM53.6661 7.074L52.8852 7.6987L52.899 7.71591L52.9135 7.7325L53.6661 7.074ZM54.4081 9.098C53.7559 9.098 53.2016 8.96486 52.7237 8.71886L51.8084 10.4971C52.5998 10.9045 53.4735 11.098 54.4081 11.098V9.098ZM52.7237 8.71886C52.253 8.47661 51.8928 8.139 51.6255 7.6935L49.9106 8.7225C50.3713 9.49034 51.0097 10.0861 51.8084 10.4971L52.7237 8.71886ZM51.6347 7.70904C51.3802 7.26704 51.2361 6.72577 51.2361 6.052H49.2361C49.2361 7.0209 49.4466 7.91696 49.9014 8.70696L51.6347 7.70904ZM51.2361 6.052C51.2361 5.3778 51.3803 4.84408 51.6314 4.4147L49.9048 3.4053C49.4464 4.18925 49.2361 5.08353 49.2361 6.052H51.2361ZM51.629 4.41873C51.8973 3.96459 52.257 3.62532 52.7237 3.38514L51.8084 1.60686C51.0057 2.02001 50.3668 2.62341 49.9071 3.40127L51.629 4.41873ZM52.7237 3.38514C53.2016 3.13914 53.7559 3.006 54.4081 3.006V1.006C53.4735 1.006 52.5998 1.19953 51.8084 1.60686L52.7237 3.38514ZM54.4081 3.006C55.0602 3.006 55.6145 3.13914 56.0924 3.38514L57.0077 1.60686C56.2163 1.19953 55.3426 1.006 54.4081 1.006V3.006ZM56.0924 3.38514C56.5568 3.62418 56.9092 3.96039 57.1674 4.40896L58.9007 3.41104C58.4496 2.62761 57.8126 2.02116 57.0077 1.60686L56.0924 3.38514ZM57.1766 4.4245C57.4332 4.85219 57.5801 5.38232 57.5801 6.052H59.5801C59.5801 5.07902 59.3629 4.18114 58.8915 3.3955L57.1766 4.4245ZM57.5801 6.052C57.5801 6.72128 57.4333 7.25897 57.1731 7.69927L58.895 8.71673C59.3628 7.92503 59.5801 7.02539 59.5801 6.052H57.5801ZM57.1708 7.7033C56.9136 8.14316 56.5609 8.47774 56.0924 8.71886L57.0077 10.4971C57.8086 10.0849 58.4452 9.48617 58.8974 8.7127L57.1708 7.7033ZM56.0924 8.71886C55.6145 8.96486 55.0602 9.098 54.4081 9.098V11.098C55.3426 11.098 56.2163 10.9045 57.0077 10.4971L56.0924 8.71886ZM54.4081 8.41C54.9951 8.41 55.509 8.16639 55.8886 7.7325L54.3835 6.4155C54.3747 6.42551 54.3707 6.42832 54.3722 6.42712C54.374 6.42575 54.3794 6.422 54.388 6.41804C54.3966 6.41406 54.4046 6.41165 54.4103 6.41045C54.4157 6.40931 54.4156 6.41 54.4081 6.41V8.41ZM55.9018 7.71719C56.3062 7.23569 56.4301 6.6278 56.4301 6.052H54.4301C54.4301 6.3722 54.3579 6.44564 54.3704 6.43081L55.9018 7.71719ZM56.4301 6.052C56.4301 5.48022 56.3079 4.86462 55.8886 4.38549L54.3835 5.70251C54.3562 5.67138 54.4301 5.72778 54.4301 6.052H56.4301ZM55.9018 4.40081C55.5273 3.95506 55.0103 3.694 54.4081 3.694V5.694C54.4128 5.694 54.4102 5.69444 54.4021 5.69266C54.3938 5.69083 54.3837 5.68755 54.3738 5.68275C54.3639 5.678 54.3581 5.67372 54.3566 5.67255C54.3554 5.6716 54.3604 5.67531 54.3703 5.68719L55.9018 4.40081ZM54.4081 3.694C53.8058 3.694 53.2888 3.95506 52.9143 4.40081L54.4458 5.68719C54.4557 5.67531 54.4607 5.6716 54.4595 5.67255C54.458 5.67372 54.4522 5.678 54.4423 5.68275C54.4324 5.68755 54.4224 5.69083 54.414 5.69266C54.4059 5.69444 54.4033 5.694 54.4081 5.694V3.694ZM52.9275 4.3855C52.5082 4.86462 52.3861 5.48022 52.3861 6.052H54.3861C54.3861 5.72778 54.4599 5.67138 54.4326 5.7025L52.9275 4.3855ZM52.3861 6.052C52.3861 6.61845 52.5011 7.21862 52.8852 7.6987L54.4469 6.4493C54.4577 6.46272 54.3861 6.38155 54.3861 6.052H52.3861ZM52.9135 7.7325C53.3001 8.17438 53.8222 8.41 54.4081 8.41V6.41C54.3961 6.41 54.3922 6.4089 54.3946 6.4094C54.3973 6.40995 54.4034 6.41156 54.4111 6.41505C54.4188 6.41853 54.4242 6.42212 54.4267 6.42403C54.429 6.42578 54.426 6.42397 54.4186 6.4155L52.9135 7.7325ZM67.2004 2.958L66.4312 3.59705L66.4371 3.60394L67.2004 2.958ZM67.9704 10V11H68.9704V10H67.9704ZM64.8764 10H63.8764V11H64.8764V10ZM64.5684 4.932L63.8159 5.5905L63.8305 5.6072L63.8458 5.62322L64.5684 4.932ZM62.9584 4.932L63.6969 5.60627L63.7041 5.59846L63.711 5.5905L62.9584 4.932ZM62.6644 10V11H63.6644V10H62.6644ZM59.5564 10H58.5564V11H59.5564V10ZM59.5564 2.104V1.104H58.5564V2.104H59.5564ZM62.6644 2.104H63.6644V1.104H62.6644V2.104ZM62.6644 3.308H61.6644V6.68136L63.5029 3.85299L62.6644 3.308ZM63.6304 2.398L63.1364 1.5285L63.1278 1.53349L63.6304 2.398ZM65.0864 3.048C65.7437 3.048 66.1466 3.25437 66.4313 3.59702L67.9696 2.31898C67.2463 1.4483 66.2399 1.048 65.0864 1.048V3.048ZM66.4371 3.60394C66.7563 3.98122 66.9704 4.54953 66.9704 5.422H68.9704C68.9704 4.22247 68.6713 3.14811 67.9638 2.31206L66.4371 3.60394ZM66.9704 5.422V10H68.9704V5.422H66.9704ZM67.9704 9H64.8764V11H67.9704V9ZM65.8764 10V5.814H63.8764V10H65.8764ZM65.8764 5.814C65.8764 5.25239 65.7171 4.6862 65.2911 4.24078L63.8458 5.62322C63.8466 5.6241 63.8471 5.62462 63.8478 5.62583C63.8486 5.62717 63.8515 5.63225 63.8554 5.64318C63.8632 5.66551 63.8764 5.71791 63.8764 5.814H65.8764ZM65.321 4.2735C64.9095 3.80314 64.3534 3.596 63.7704 3.596V5.596C63.8268 5.596 63.8422 5.60513 63.8339 5.60164C63.8303 5.60013 63.8252 5.59741 63.8201 5.59374C63.8152 5.59013 63.8138 5.58819 63.8159 5.5905L65.321 4.2735ZM63.7704 3.596C63.1878 3.596 62.623 3.79679 62.2059 4.2735L63.711 5.5905C63.7117 5.58973 63.7093 5.59255 63.7038 5.59653C63.6982 5.60055 63.6932 5.60301 63.6908 5.60402C63.6852 5.60631 63.7059 5.596 63.7704 5.596V3.596ZM62.22 4.25773C61.8121 4.70441 61.6644 5.2644 61.6644 5.814H63.6644C63.6644 5.71352 63.6778 5.65635 63.6866 5.62973C63.6909 5.61676 63.6944 5.61032 63.6956 5.60828C63.6963 5.60714 63.6966 5.60663 63.6967 5.60654C63.6968 5.60645 63.6968 5.6064 63.6969 5.60627L62.22 4.25773ZM61.6644 5.814V10H63.6644V5.814H61.6644ZM62.6644 9H59.5564V11H62.6644V9ZM60.5564 10V2.104H58.5564V10H60.5564ZM59.5564 3.104H62.6644V1.104H59.5564V3.104ZM61.6644 2.104V3.308H63.6644V2.104H61.6644ZM63.5029 3.85299C63.6565 3.61664 63.8612 3.42056 64.1331 3.26251L63.1278 1.53349C62.597 1.8421 62.1577 2.25269 61.826 2.76301L63.5029 3.85299ZM64.1245 3.26746C64.3588 3.13432 64.6674 3.048 65.0864 3.048V1.048C64.3855 1.048 63.7235 1.19501 63.1364 1.52854L64.1245 3.26746Z" fill="black" mask="url(#path-1-outside-1_32638_345534)"/>
</g>
<defs>
<filter id="filter0_d_32638_345534" x="0.801819" y="-0.0100098" width="68.1686" height="11.108" filterUnits="userSpaceOnUse" color-interpolation-filters="sRGB">
<feFlood flood-opacity="0" result="BackgroundImageFix"/>
<feColorMatrix in="SourceAlpha" type="matrix" values="0 0 0 0 0 0 0 0 0 0 0 0 0 0 0 0 0 0 127 0" result="hardAlpha"/>
<feOffset dx="1" dy="1"/>
<feComposite in2="hardAlpha" operator="out"/>
<feColorMatrix type="matrix" values="0 0 0 0 0 0 0 0 0 0 0 0 0 0 0 0 0 0 1 0"/>
<feBlend mode="normal" in2="BackgroundImageFix" result="effect1_dropShadow_32638_345534"/>
<feBlend mode="normal" in="SourceGraphic" in2="effect1_dropShadow_32638_345534" result="shape"/>
</filter>
</defs>
</svg>
