<svg width="35" height="12" viewBox="0 0 35 12" fill="none" xmlns="http://www.w3.org/2000/svg">
<g filter="url(#filter0_d_32638_345509)">
<mask id="path-1-outside-1_32638_345509" maskUnits="userSpaceOnUse" x="-1" y="-1" width="36" height="13" fill="black">
<rect fill="white" x="-1" y="-1" width="36" height="13"/>
<path d="M5.15568 10L3.29368 6.444H3.27968V10H0.17168V0.0879999H4.79168C5.59435 0.0879999 6.28035 0.232666 6.84968 0.521999C7.41901 0.802 7.84368 1.18933 8.12368 1.684C8.41301 2.16933 8.55768 2.72 8.55768 3.336C8.55768 3.99867 8.37101 4.58667 7.99768 5.1C7.63368 5.61333 7.10635 5.982 6.41568 6.206L8.57168 10H5.15568ZM3.27968 4.372H4.51168C4.81035 4.372 5.03435 4.30667 5.18368 4.176C5.33301 4.036 5.40768 3.82133 5.40768 3.532C5.40768 3.27067 5.32835 3.06533 5.16968 2.916C5.02035 2.76667 4.80101 2.692 4.51168 2.692H3.27968V4.372ZM9.13059 6.052C9.13059 5.22133 9.27059 4.50267 9.55059 3.896C9.83992 3.28 10.2319 2.81333 10.7266 2.496C11.2213 2.16933 11.7766 2.006 12.3926 2.006C12.9059 2.006 13.3493 2.11333 13.7226 2.328C14.0959 2.53333 14.3806 2.818 14.5766 3.182V2.104H17.6706V10H14.5766V8.922C14.3806 9.286 14.0959 9.57533 13.7226 9.79C13.3493 9.99533 12.9059 10.098 12.3926 10.098C11.7766 10.098 11.2213 9.93933 10.7266 9.622C10.2319 9.29533 9.83992 8.82867 9.55059 8.222C9.27059 7.606 9.13059 6.88267 9.13059 6.052ZM14.5766 6.052C14.5766 5.632 14.4693 5.30533 14.2546 5.072C14.0399 4.83867 13.7646 4.722 13.4286 4.722C13.0926 4.722 12.8173 4.83867 12.6026 5.072C12.3879 5.30533 12.2806 5.632 12.2806 6.052C12.2806 6.472 12.3879 6.79867 12.6026 7.032C12.8173 7.26533 13.0926 7.382 13.4286 7.382C13.7646 7.382 14.0399 7.26533 14.2546 7.032C14.4693 6.79867 14.5766 6.472 14.5766 6.052ZM22.1742 3.56C22.4915 3.10267 22.8789 2.73867 23.3362 2.468C23.7935 2.188 24.2695 2.048 24.7642 2.048V5.366H23.8822C23.2942 5.366 22.8602 5.46867 22.5802 5.674C22.3095 5.87933 22.1742 6.24333 22.1742 6.766V10H19.0662V2.104H22.1742V3.56ZM33.2454 5.982C33.2454 6.19667 33.2314 6.402 33.2034 6.598H28.2054C28.252 7.27933 28.5367 7.62 29.0594 7.62C29.3954 7.62 29.638 7.466 29.7874 7.158H33.0774C32.9654 7.718 32.7274 8.222 32.3634 8.67C32.0087 9.10867 31.556 9.45867 31.0054 9.72C30.464 9.972 29.8667 10.098 29.2134 10.098C28.4294 10.098 27.7294 9.93467 27.1134 9.608C26.5067 9.28133 26.0307 8.81467 25.6854 8.208C25.3494 7.592 25.1814 6.87333 25.1814 6.052C25.1814 5.23067 25.3494 4.51667 25.6854 3.91C26.0307 3.294 26.5067 2.82267 27.1134 2.496C27.7294 2.16933 28.4294 2.006 29.2134 2.006C29.9974 2.006 30.6927 2.16933 31.2994 2.496C31.9154 2.81333 32.3914 3.27067 32.7274 3.868C33.0727 4.46533 33.2454 5.17 33.2454 5.982ZM30.0954 5.24C30.0954 4.97867 30.0114 4.78267 29.8434 4.652C29.6754 4.512 29.4654 4.442 29.2134 4.442C28.6627 4.442 28.3407 4.708 28.2474 5.24H30.0954Z"/>
</mask>
<path d="M5.15568 10L3.29368 6.444H3.27968V10H0.17168V0.0879999H4.79168C5.59435 0.0879999 6.28035 0.232666 6.84968 0.521999C7.41901 0.802 7.84368 1.18933 8.12368 1.684C8.41301 2.16933 8.55768 2.72 8.55768 3.336C8.55768 3.99867 8.37101 4.58667 7.99768 5.1C7.63368 5.61333 7.10635 5.982 6.41568 6.206L8.57168 10H5.15568ZM3.27968 4.372H4.51168C4.81035 4.372 5.03435 4.30667 5.18368 4.176C5.33301 4.036 5.40768 3.82133 5.40768 3.532C5.40768 3.27067 5.32835 3.06533 5.16968 2.916C5.02035 2.76667 4.80101 2.692 4.51168 2.692H3.27968V4.372ZM9.13059 6.052C9.13059 5.22133 9.27059 4.50267 9.55059 3.896C9.83992 3.28 10.2319 2.81333 10.7266 2.496C11.2213 2.16933 11.7766 2.006 12.3926 2.006C12.9059 2.006 13.3493 2.11333 13.7226 2.328C14.0959 2.53333 14.3806 2.818 14.5766 3.182V2.104H17.6706V10H14.5766V8.922C14.3806 9.286 14.0959 9.57533 13.7226 9.79C13.3493 9.99533 12.9059 10.098 12.3926 10.098C11.7766 10.098 11.2213 9.93933 10.7266 9.622C10.2319 9.29533 9.83992 8.82867 9.55059 8.222C9.27059 7.606 9.13059 6.88267 9.13059 6.052ZM14.5766 6.052C14.5766 5.632 14.4693 5.30533 14.2546 5.072C14.0399 4.83867 13.7646 4.722 13.4286 4.722C13.0926 4.722 12.8173 4.83867 12.6026 5.072C12.3879 5.30533 12.2806 5.632 12.2806 6.052C12.2806 6.472 12.3879 6.79867 12.6026 7.032C12.8173 7.26533 13.0926 7.382 13.4286 7.382C13.7646 7.382 14.0399 7.26533 14.2546 7.032C14.4693 6.79867 14.5766 6.472 14.5766 6.052ZM22.1742 3.56C22.4915 3.10267 22.8789 2.73867 23.3362 2.468C23.7935 2.188 24.2695 2.048 24.7642 2.048V5.366H23.8822C23.2942 5.366 22.8602 5.46867 22.5802 5.674C22.3095 5.87933 22.1742 6.24333 22.1742 6.766V10H19.0662V2.104H22.1742V3.56ZM33.2454 5.982C33.2454 6.19667 33.2314 6.402 33.2034 6.598H28.2054C28.252 7.27933 28.5367 7.62 29.0594 7.62C29.3954 7.62 29.638 7.466 29.7874 7.158H33.0774C32.9654 7.718 32.7274 8.222 32.3634 8.67C32.0087 9.10867 31.556 9.45867 31.0054 9.72C30.464 9.972 29.8667 10.098 29.2134 10.098C28.4294 10.098 27.7294 9.93467 27.1134 9.608C26.5067 9.28133 26.0307 8.81467 25.6854 8.208C25.3494 7.592 25.1814 6.87333 25.1814 6.052C25.1814 5.23067 25.3494 4.51667 25.6854 3.91C26.0307 3.294 26.5067 2.82267 27.1134 2.496C27.7294 2.16933 28.4294 2.006 29.2134 2.006C29.9974 2.006 30.6927 2.16933 31.2994 2.496C31.9154 2.81333 32.3914 3.27067 32.7274 3.868C33.0727 4.46533 33.2454 5.17 33.2454 5.982ZM30.0954 5.24C30.0954 4.97867 30.0114 4.78267 29.8434 4.652C29.6754 4.512 29.4654 4.442 29.2134 4.442C28.6627 4.442 28.3407 4.708 28.2474 5.24H30.0954Z" fill="white"/>
<path d="M5.15568 10L4.26978 10.4639L4.55051 11H5.15568V10ZM3.29368 6.444L4.17958 5.98012L3.89885 5.444H3.29368V6.444ZM3.27968 6.444V5.444H2.27968V6.444H3.27968ZM3.27968 10V11H4.27968V10H3.27968ZM0.17168 10H-0.82832V11H0.17168V10ZM0.17168 0.0879998V-0.912H-0.82832V0.0879998H0.17168ZM6.84968 0.521999L6.39659 1.41356L6.40836 1.41935L6.84968 0.521999ZM8.12368 1.684L7.25342 2.1766L7.25897 2.18639L7.26473 2.19606L8.12368 1.684ZM7.99768 5.1L7.18889 4.51179L7.18195 4.52157L7.99768 5.1ZM6.41568 6.206L6.10718 5.25478L4.94005 5.6333L5.54625 6.70006L6.41568 6.206ZM8.57168 10V11H10.2901L9.44111 9.50594L8.57168 10ZM3.27968 4.372H2.27968V5.372H3.27968V4.372ZM5.18368 4.176L5.84218 4.92858L5.8551 4.91728L5.86762 4.90554L5.18368 4.176ZM5.16968 2.916L4.46257 3.62311L4.47328 3.63382L4.48431 3.6442L5.16968 2.916ZM3.27968 2.692V1.692H2.27968V2.692H3.27968ZM6.04158 9.53612L4.17958 5.98012L2.40778 6.90788L4.26978 10.4639L6.04158 9.53612ZM3.29368 5.444H3.27968V7.444H3.29368V5.444ZM2.27968 6.444V10H4.27968V6.444H2.27968ZM3.27968 9H0.17168V11H3.27968V9ZM1.17168 10V0.0879998H-0.82832V10H1.17168ZM0.17168 1.088H4.79168V-0.912H0.17168V1.088ZM4.79168 1.088C5.47638 1.088 5.99908 1.21145 6.39663 1.41348L7.30273 -0.369486C6.56162 -0.746116 5.71231 -0.912 4.79168 -0.912V1.088ZM6.40836 1.41935C6.81907 1.62134 7.08379 1.87691 7.25342 2.1766L8.99394 1.1914C8.60357 0.501757 8.01895 -0.0173402 7.291 -0.37535L6.40836 1.41935ZM7.26473 2.19606C7.45351 2.51273 7.55768 2.88349 7.55768 3.336H9.55768C9.55768 2.55651 9.37251 1.82594 8.98263 1.17193L7.26473 2.19606ZM7.55768 3.336C7.55768 3.79725 7.43226 4.17727 7.18894 4.51183L8.80642 5.68817C9.30977 4.99607 9.55768 4.20009 9.55768 3.336H7.55768ZM7.18195 4.52157C6.96103 4.83312 6.62581 5.08657 6.10718 5.25478L6.72418 7.15722C7.58689 6.87743 8.30633 6.39355 8.81341 5.67843L7.18195 4.52157ZM5.54625 6.70006L7.70226 10.4941L9.44111 9.50594L7.28511 5.71194L5.54625 6.70006ZM8.57168 9H5.15568V11H8.57168V9ZM3.27968 5.372H4.51168V3.372H3.27968V5.372ZM4.51168 5.372C4.93413 5.372 5.43773 5.28247 5.84218 4.92858L4.52518 3.42342C4.55052 3.40124 4.57429 3.3861 4.59285 3.37635C4.61102 3.36681 4.62243 3.36336 4.62368 3.363C4.62474 3.36269 4.61682 3.36508 4.59765 3.36747C4.57848 3.36987 4.55027 3.372 4.51168 3.372V5.372ZM5.86762 4.90554C6.29036 4.50922 6.40768 3.98099 6.40768 3.532H4.40768C4.40768 3.59391 4.3993 3.60413 4.40718 3.58148C4.4115 3.56906 4.42022 3.54829 4.43619 3.52301C4.4524 3.49735 4.47362 3.47095 4.49974 3.44646L5.86762 4.90554ZM6.40768 3.532C6.40768 3.05436 6.25402 2.56331 5.85504 2.1878L4.48431 3.6442C4.4705 3.6312 4.4563 3.61489 4.44344 3.59572C4.4306 3.57658 4.42146 3.55814 4.41538 3.5424C4.40316 3.51078 4.40768 3.50201 4.40768 3.532H6.40768ZM5.87679 2.20889C5.4792 1.8113 4.96583 1.692 4.51168 1.692V3.692C4.57284 3.692 4.58715 3.70018 4.57092 3.69465C4.56199 3.69161 4.54574 3.68504 4.52529 3.67262C4.50456 3.66002 4.48294 3.64347 4.46257 3.62311L5.87679 2.20889ZM4.51168 1.692H3.27968V3.692H4.51168V1.692ZM2.27968 2.692V4.372H4.27968V2.692H2.27968ZM9.55059 3.896L8.64544 3.47085L8.64263 3.47694L9.55059 3.896ZM10.7266 2.496L11.2666 3.33777L11.2776 3.33046L10.7266 2.496ZM13.7226 2.328L13.2241 3.19491L13.2323 3.19964L13.2407 3.20422L13.7226 2.328ZM14.5766 3.182L13.6961 3.6561L15.5766 3.182H14.5766ZM14.5766 2.104V1.104H13.5766V2.104H14.5766ZM17.6706 2.104H18.6706V1.104H17.6706V2.104ZM17.6706 10V11H18.6706V10H17.6706ZM14.5766 10H13.5766V11H14.5766V10ZM14.5766 8.922H15.5766L13.6961 8.4479L14.5766 8.922ZM13.7226 9.79L14.2045 10.6662L14.2128 10.6616L14.2211 10.6569L13.7226 9.79ZM10.7266 9.622L10.1755 10.4565L10.1866 10.4637L10.7266 9.622ZM9.55059 8.222L8.64022 8.6358L8.64402 8.64417L8.64798 8.65247L9.55059 8.222ZM14.2546 5.072L14.9905 4.39494V4.39494L14.2546 5.072ZM12.6026 5.072L11.8667 4.39494V4.39494L12.6026 5.072ZM10.1306 6.052C10.1306 5.33177 10.2521 4.76243 10.4585 4.31506L8.64263 3.47694C8.28911 4.2429 8.13059 5.11089 8.13059 6.052H10.1306ZM10.4557 4.32114C10.6779 3.84813 10.9541 3.5381 11.2665 3.33769L10.1866 1.65431C9.5097 2.08856 9.00196 2.71187 8.64546 3.47086L10.4557 4.32114ZM11.2776 3.33046C11.6022 3.11615 11.9644 3.006 12.3926 3.006V1.006C11.5888 1.006 10.8403 1.22251 10.1755 1.66154L11.2776 3.33046ZM12.3926 3.006C12.7647 3.006 13.0292 3.08282 13.2241 3.19491L14.2211 1.46109C13.6693 1.14385 13.0472 1.006 12.3926 1.006V3.006ZM13.2407 3.20422C13.4507 3.31971 13.5944 3.46714 13.6961 3.6561L15.4571 2.7079C15.1668 2.16886 14.7412 1.74696 14.2045 1.45178L13.2407 3.20422ZM15.5766 3.182V2.104H13.5766V3.182H15.5766ZM14.5766 3.104H17.6706V1.104H14.5766V3.104ZM16.6706 2.104V10H18.6706V2.104H16.6706ZM17.6706 9H14.5766V11H17.6706V9ZM15.5766 10V8.922H13.5766V10H15.5766ZM13.6961 8.4479C13.5922 8.64093 13.4431 8.79718 13.2241 8.92309L14.2211 10.6569C14.7487 10.3535 15.169 9.93107 15.4571 9.3961L13.6961 8.4479ZM13.2407 8.91378C13.0424 9.02282 12.7718 9.098 12.3926 9.098V11.098C13.0401 11.098 13.6561 10.9678 14.2045 10.6662L13.2407 8.91378ZM12.3926 9.098C11.9583 9.098 11.5921 8.98917 11.2665 8.78031L10.1866 10.4637C10.8504 10.8895 11.5948 11.098 12.3926 11.098V9.098ZM11.2776 8.78754C10.9542 8.57394 10.675 8.25653 10.4532 7.79153L8.64798 8.65247C9.00488 9.40081 9.50963 10.0167 10.1755 10.4565L11.2776 8.78754ZM10.461 7.8082C10.2519 7.34823 10.1306 6.77165 10.1306 6.052H8.13059C8.13059 6.99369 8.2893 7.86377 8.64022 8.6358L10.461 7.8082ZM15.5766 6.052C15.5766 5.46446 15.424 4.86615 14.9905 4.39494L13.5187 5.74906C13.5215 5.75212 13.5331 5.76473 13.5461 5.80415C13.5602 5.84729 13.5766 5.92542 13.5766 6.052H15.5766ZM14.9905 4.39494C14.5741 3.94235 14.0255 3.722 13.4286 3.722V5.722C13.4546 5.722 13.4718 5.72425 13.4818 5.72615C13.4914 5.728 13.4959 5.72981 13.4969 5.73025C13.4979 5.73065 13.4989 5.73113 13.501 5.73261C13.5032 5.73419 13.5092 5.73882 13.5187 5.74906L14.9905 4.39494ZM13.4286 3.722C12.8317 3.722 12.283 3.94235 11.8667 4.39494L13.3385 5.74906C13.3479 5.73882 13.354 5.73419 13.3562 5.73261C13.3583 5.73113 13.3593 5.73065 13.3602 5.73025C13.3613 5.72981 13.3657 5.728 13.3754 5.72615C13.3854 5.72425 13.4025 5.722 13.4286 5.722V3.722ZM11.8667 4.39494C11.4331 4.86615 11.2806 5.46446 11.2806 6.052H13.2806C13.2806 5.92542 13.2969 5.84729 13.3111 5.80415C13.3241 5.76473 13.3357 5.75212 13.3385 5.74906L11.8667 4.39494ZM11.2806 6.052C11.2806 6.63954 11.4331 7.23785 11.8667 7.70906L13.3385 6.35494C13.3357 6.35188 13.3241 6.33927 13.3111 6.29985C13.2969 6.25671 13.2806 6.17858 13.2806 6.052H11.2806ZM11.8667 7.70906C12.283 8.16165 12.8317 8.382 13.4286 8.382V6.382C13.4025 6.382 13.3854 6.37975 13.3754 6.37785C13.3657 6.376 13.3613 6.37419 13.3602 6.37375C13.3593 6.37335 13.3583 6.37287 13.3562 6.37139C13.354 6.3698 13.3479 6.36518 13.3385 6.35494L11.8667 7.70906ZM13.4286 8.382C14.0255 8.382 14.5741 8.16165 14.9905 7.70906L13.5187 6.35494C13.5092 6.36518 13.5032 6.36981 13.501 6.37139C13.4989 6.37287 13.4979 6.37335 13.4969 6.37375C13.4959 6.37419 13.4914 6.376 13.4818 6.37785C13.4718 6.37975 13.4546 6.382 13.4286 6.382V8.382ZM14.9905 7.70906C15.424 7.23785 15.5766 6.63954 15.5766 6.052H13.5766C13.5766 6.17858 13.5602 6.25671 13.5461 6.29985C13.5331 6.33927 13.5215 6.35188 13.5187 6.35494L14.9905 7.70906ZM22.1742 3.56H21.1742V6.75531L22.9958 4.13008L22.1742 3.56ZM23.3362 2.468L23.8455 3.32858L23.852 3.32476L23.8584 3.32085L23.3362 2.468ZM24.7642 2.048H25.7642V1.048H24.7642V2.048ZM24.7642 5.366V6.366H25.7642V5.366H24.7642ZM22.5802 5.674L21.9888 4.86759L21.9823 4.8724L21.9758 4.87731L22.5802 5.674ZM22.1742 10V11H23.1742V10H22.1742ZM19.0662 10H18.0662V11H19.0662V10ZM19.0662 2.104V1.104H18.0662V2.104H19.0662ZM22.1742 2.104H23.1742V1.104H22.1742V2.104ZM22.9958 4.13008C23.2351 3.78517 23.5178 3.52252 23.8455 3.32858L22.8269 1.60742C22.2399 1.95482 21.748 2.42016 21.3526 2.98992L22.9958 4.13008ZM23.8584 3.32085C24.1722 3.12869 24.4693 3.048 24.7642 3.048V1.048C24.0698 1.048 23.4149 1.24731 22.8141 1.61515L23.8584 3.32085ZM23.7642 2.048V5.366H25.7642V2.048H23.7642ZM24.7642 4.366H23.8822V6.366H24.7642V4.366ZM23.8822 4.366C23.2145 4.366 22.5232 4.47576 21.9888 4.86759L23.1716 6.4804C23.1973 6.46158 23.3739 6.366 23.8822 6.366V4.366ZM21.9758 4.87731C21.3448 5.35599 21.1742 6.10294 21.1742 6.766H23.1742C23.1742 6.58507 23.1984 6.48879 23.213 6.44949C23.2242 6.41937 23.2213 6.44285 23.1846 6.47069L21.9758 4.87731ZM21.1742 6.766V10H23.1742V6.766H21.1742ZM22.1742 9H19.0662V11H22.1742V9ZM20.0662 10V2.104H18.0662V10H20.0662ZM19.0662 3.104H22.1742V1.104H19.0662V3.104ZM21.1742 2.104V3.56H23.1742V2.104H21.1742ZM33.2034 6.598V7.598H34.0707L34.1933 6.73942L33.2034 6.598ZM28.2054 6.598V5.598H27.1345L27.2077 6.66633L28.2054 6.598ZM29.7874 7.158V6.158H29.1609L28.8876 6.72173L29.7874 7.158ZM33.0774 7.158L34.0579 7.35412L34.2972 6.158H33.0774V7.158ZM32.3634 8.67L31.5872 8.03941L31.5857 8.04128L32.3634 8.67ZM31.0054 9.72L31.4274 10.6266L31.4341 10.6234L31.0054 9.72ZM27.1134 9.608L26.6393 10.4885L26.6449 10.4915L27.1134 9.608ZM25.6854 8.208L24.8075 8.68685L24.8118 8.69482L24.8163 8.7027L25.6854 8.208ZM25.6854 3.91L24.8131 3.42099L24.8106 3.4255L25.6854 3.91ZM27.1134 2.496L26.6449 1.61252L26.6393 1.61553L27.1134 2.496ZM31.2994 2.496L30.8253 3.37647L30.8333 3.3808L30.8414 3.38497L31.2994 2.496ZM32.7274 3.868L31.8557 4.3583L31.8616 4.3685L32.7274 3.868ZM30.0954 5.24V6.24H31.0954V5.24H30.0954ZM29.8434 4.652L29.2032 5.42022L29.2161 5.43101L29.2294 5.44135L29.8434 4.652ZM28.2474 5.24L27.2624 5.0672L27.0567 6.24H28.2474V5.24ZM32.2454 5.982C32.2454 6.15326 32.2342 6.31115 32.2134 6.45658L34.1933 6.73942C34.2285 6.49285 34.2454 6.24007 34.2454 5.982H32.2454ZM33.2034 5.598H28.2054V7.598H33.2034V5.598ZM27.2077 6.66633C27.2382 7.11126 27.3537 7.60745 27.6865 8.00572C28.0533 8.44465 28.56 8.62 29.0594 8.62V6.62C29.037 6.62 29.0573 6.61646 29.1008 6.63479C29.1222 6.64386 29.1453 6.65664 29.1678 6.67335C29.1903 6.69003 29.2081 6.70756 29.2212 6.72328C29.2473 6.75454 29.2463 6.7677 29.2362 6.73673C29.2258 6.70448 29.2105 6.63928 29.203 6.52967L27.2077 6.66633ZM29.0594 8.62C29.3845 8.62 29.7221 8.54369 30.0292 8.34883C30.3351 8.15468 30.5471 7.88323 30.6872 7.59427L28.8876 6.72173C28.8783 6.74077 28.8943 6.70033 28.9575 6.66017C28.9865 6.64177 29.0146 6.63064 29.0367 6.62476C29.0578 6.61915 29.067 6.62 29.0594 6.62V8.62ZM29.7874 8.158H33.0774V6.158H29.7874V8.158ZM32.0968 6.96188C32.017 7.36082 31.85 7.71606 31.5873 8.03941L33.1395 9.30059C33.6048 8.72794 33.9137 8.07518 34.0579 7.35412L32.0968 6.96188ZM31.5857 8.04128C31.3327 8.3542 31.003 8.61424 30.5766 8.81657L31.4341 10.6234C32.1091 10.3031 32.6847 9.86314 33.141 9.29872L31.5857 8.04128ZM30.5833 8.81342C30.1862 8.99828 29.7348 9.098 29.2134 9.098V11.098C29.9986 11.098 30.7418 10.9457 31.4274 10.6266L30.5833 8.81342ZM29.2134 9.098C28.5721 9.098 28.0364 8.96558 27.5819 8.72454L26.6449 10.4915C27.4223 10.9038 28.2866 11.098 29.2134 11.098V9.098ZM27.5875 8.72753C27.1483 8.49107 26.8082 8.15913 26.5544 7.7133L24.8163 8.7027C25.2532 9.47021 25.8651 10.0716 26.6393 10.4885L27.5875 8.72753ZM26.5633 7.72915C26.3201 7.28328 26.1814 6.73466 26.1814 6.052H24.1814C24.1814 7.01201 24.3787 7.90072 24.8075 8.68685L26.5633 7.72915ZM26.1814 6.052C26.1814 5.36888 26.3202 4.82773 26.5602 4.3945L24.8106 3.4255C24.3785 4.2056 24.1814 5.09246 24.1814 6.052H26.1814ZM26.5576 4.399C26.8126 3.94429 27.1524 3.61076 27.5875 3.37647L26.6393 1.61553C25.861 2.03457 25.2488 2.6437 24.8131 3.42099L26.5576 4.399ZM27.5819 3.37946C28.0364 3.13842 28.5721 3.006 29.2134 3.006V1.006C28.2866 1.006 27.4223 1.20024 26.6449 1.61254L27.5819 3.37946ZM29.2134 3.006C29.8549 3.006 30.3834 3.13852 30.8253 3.37647L31.7735 1.61553C31.002 1.20015 30.1398 1.006 29.2134 1.006V3.006ZM30.8414 3.38497C31.2856 3.61378 31.6168 3.93342 31.8558 4.35826L33.5989 3.37774C33.1659 2.60791 32.5452 2.01289 31.7573 1.60703L30.8414 3.38497ZM31.8616 4.3685C32.1046 4.78871 32.2454 5.31443 32.2454 5.982H34.2454C34.2454 5.02557 34.0408 4.14195 33.5931 3.3675L31.8616 4.3685ZM31.0954 5.24C31.0954 4.74803 30.9244 4.22597 30.4573 3.86265L29.2294 5.44135C29.1796 5.40261 29.1377 5.34811 29.1132 5.29092C29.0913 5.23974 29.0954 5.21502 29.0954 5.24H31.0954ZM30.4836 3.88378C30.1089 3.57158 29.6617 3.442 29.2134 3.442V5.442C29.2465 5.442 29.2536 5.44651 29.2436 5.44318C29.2389 5.4416 29.2319 5.43877 29.2239 5.43428C29.2158 5.42979 29.2087 5.42483 29.2032 5.42022L30.4836 3.88378ZM29.2134 3.442C28.7803 3.442 28.3124 3.54802 27.922 3.87054C27.5292 4.19505 27.3379 4.63689 27.2624 5.0672L29.2323 5.4128C29.2414 5.36097 29.251 5.34551 29.2473 5.35255C29.2453 5.35641 29.2402 5.36519 29.231 5.37674C29.2217 5.38843 29.2099 5.40079 29.1957 5.41246C29.1816 5.42412 29.1679 5.43295 29.156 5.4392C29.1443 5.44535 29.1366 5.44789 29.1348 5.44842C29.1322 5.44922 29.1548 5.442 29.2134 5.442V3.442ZM28.2474 6.24H30.0954V4.24H28.2474V6.24Z" fill="black" mask="url(#path-1-outside-1_32638_345509)"/>
</g>
<defs>
<filter id="filter0_d_32638_345509" x="0.171631" y="0.0880127" width="34.0737" height="11.01" filterUnits="userSpaceOnUse" color-interpolation-filters="sRGB">
<feFlood flood-opacity="0" result="BackgroundImageFix"/>
<feColorMatrix in="SourceAlpha" type="matrix" values="0 0 0 0 0 0 0 0 0 0 0 0 0 0 0 0 0 0 127 0" result="hardAlpha"/>
<feOffset dx="1" dy="1"/>
<feComposite in2="hardAlpha" operator="out"/>
<feColorMatrix type="matrix" values="0 0 0 0 0 0 0 0 0 0 0 0 0 0 0 0 0 0 1 0"/>
<feBlend mode="normal" in2="BackgroundImageFix" result="effect1_dropShadow_32638_345509"/>
<feBlend mode="normal" in="SourceGraphic" in2="effect1_dropShadow_32638_345509" result="shape"/>
</filter>
</defs>
</svg>
