<svg width="81" height="16" viewBox="0 0 81 16" fill="none" xmlns="http://www.w3.org/2000/svg">
<g filter="url(#filter0_d_32638_345164)">
<mask id="path-1-outside-1_32638_345164" maskUnits="userSpaceOnUse" x="-1" y="-1" width="82" height="17" fill="black">
<rect fill="white" x="-1" y="-1" width="82" height="17"/>
<path d="M4.7655 11.098C3.58017 11.098 2.60017 10.8227 1.8255 10.272C1.06017 9.712 0.644833 8.89533 0.5795 7.822H3.8835C3.93017 8.39133 4.18217 8.676 4.6395 8.676C4.8075 8.676 4.9475 8.63867 5.0595 8.564C5.18083 8.48 5.2415 8.354 5.2415 8.186C5.2415 7.95267 5.1155 7.766 4.8635 7.626C4.6115 7.47667 4.2195 7.30867 3.6875 7.122C3.05283 6.898 2.5255 6.67867 2.1055 6.464C1.69483 6.24933 1.34017 5.93667 1.0415 5.526C0.742833 5.11533 0.598167 4.588 0.6075 3.944C0.6075 3.3 0.770833 2.754 1.0975 2.306C1.4335 1.84867 1.88617 1.50333 2.4555 1.27C3.03417 1.03667 3.68283 0.92 4.4015 0.92C5.61483 0.92 6.57617 1.2 7.2855 1.76C8.00417 2.32 8.38217 3.10867 8.4195 4.126H5.0735C5.06417 3.846 4.99417 3.64533 4.8635 3.524C4.73283 3.40267 4.57417 3.342 4.3875 3.342C4.25683 3.342 4.1495 3.38867 4.0655 3.482C3.9815 3.566 3.9395 3.68733 3.9395 3.846C3.9395 4.07 4.06083 4.25667 4.3035 4.406C4.5555 4.546 4.95217 4.71867 5.4935 4.924C6.11883 5.15733 6.63217 5.38133 7.0335 5.596C7.44417 5.81067 7.79883 6.10933 8.0975 6.492C8.39617 6.87467 8.5455 7.35533 8.5455 7.934C8.5455 8.54067 8.39617 9.08667 8.0975 9.572C7.79883 10.048 7.36483 10.4213 6.7955 10.692C6.22617 10.9627 5.5495 11.098 4.7655 11.098ZM17.9955 3.104V11H14.8875V9.796C14.6448 10.1693 14.3182 10.4727 13.9075 10.706C13.5062 10.9393 13.0255 11.056 12.4655 11.056C11.5602 11.056 10.8508 10.7527 10.3375 10.146C9.8335 9.53933 9.5815 8.718 9.5815 7.682V3.104H12.6755V7.29C12.6755 7.66333 12.7735 7.962 12.9695 8.186C13.1748 8.40067 13.4455 8.508 13.7815 8.508C14.1268 8.508 14.3975 8.40067 14.5935 8.186C14.7895 7.962 14.8875 7.66333 14.8875 7.29V3.104H17.9955ZM22.5072 4.182C22.7032 3.818 22.9832 3.53333 23.3472 3.328C23.7206 3.11333 24.1639 3.006 24.6772 3.006C25.2932 3.006 25.8486 3.16933 26.3432 3.496C26.8379 3.81333 27.2252 4.28 27.5052 4.896C27.7946 5.50267 27.9392 6.22133 27.9392 7.052C27.9392 7.88267 27.7946 8.606 27.5052 9.222C27.2252 9.82867 26.8379 10.2953 26.3432 10.622C25.8486 10.9393 25.2932 11.098 24.6772 11.098C24.1639 11.098 23.7206 10.9953 23.3472 10.79C22.9832 10.5753 22.7032 10.286 22.5072 9.922V14.78H19.3992V3.104H22.5072V4.182ZM24.7892 7.052C24.7892 6.632 24.6819 6.30533 24.4672 6.072C24.2526 5.83867 23.9772 5.722 23.6412 5.722C23.3052 5.722 23.0299 5.83867 22.8152 6.072C22.6006 6.30533 22.4932 6.632 22.4932 7.052C22.4932 7.472 22.6006 7.79867 22.8152 8.032C23.0299 8.26533 23.3052 8.382 23.6412 8.382C23.9772 8.382 24.2526 8.26533 24.4672 8.032C24.6819 7.79867 24.7892 7.472 24.7892 7.052ZM36.5588 6.982C36.5588 7.19667 36.5448 7.402 36.5168 7.598H31.5188C31.5655 8.27933 31.8502 8.62 32.3728 8.62C32.7088 8.62 32.9515 8.466 33.1008 8.158H36.3908C36.2788 8.718 36.0408 9.222 35.6768 9.67C35.3222 10.1087 34.8695 10.4587 34.3188 10.72C33.7775 10.972 33.1802 11.098 32.5268 11.098C31.7428 11.098 31.0428 10.9347 30.4268 10.608C29.8202 10.2813 29.3442 9.81467 28.9988 9.208C28.6628 8.592 28.4948 7.87333 28.4948 7.052C28.4948 6.23067 28.6628 5.51667 28.9988 4.91C29.3442 4.294 29.8202 3.82267 30.4268 3.496C31.0428 3.16933 31.7428 3.006 32.5268 3.006C33.3108 3.006 34.0062 3.16933 34.6128 3.496C35.2288 3.81333 35.7048 4.27067 36.0408 4.868C36.3862 5.46533 36.5588 6.17 36.5588 6.982ZM33.4088 6.24C33.4088 5.97867 33.3248 5.78267 33.1568 5.652C32.9888 5.512 32.7788 5.442 32.5268 5.442C31.9762 5.442 31.6542 5.708 31.5608 6.24H33.4088ZM40.6498 4.56C40.9671 4.10267 41.3545 3.73867 41.8118 3.468C42.2691 3.188 42.7451 3.048 43.2398 3.048V6.366H42.3578C41.7698 6.366 41.3358 6.46867 41.0558 6.674C40.7851 6.87933 40.6498 7.24333 40.6498 7.766V11H37.5418V3.104H40.6498V4.56ZM51.4399 11L49.5779 7.444H49.5639V11H46.4559V1.088H51.0759C51.8785 1.088 52.5645 1.23267 53.1339 1.522C53.7032 1.802 54.1279 2.18933 54.4079 2.684C54.6972 3.16933 54.8419 3.72 54.8419 4.336C54.8419 4.99867 54.6552 5.58667 54.2819 6.1C53.9179 6.61333 53.3905 6.982 52.6999 7.206L54.8559 11H51.4399ZM49.5639 5.372H50.7959C51.0945 5.372 51.3185 5.30667 51.4679 5.176C51.6172 5.036 51.6919 4.82133 51.6919 4.532C51.6919 4.27067 51.6125 4.06533 51.4539 3.916C51.3045 3.76667 51.0852 3.692 50.7959 3.692H49.5639V5.372ZM55.4148 7.052C55.4148 6.22133 55.5548 5.50267 55.8348 4.896C56.1241 4.28 56.5161 3.81333 57.0108 3.496C57.5054 3.16933 58.0608 3.006 58.6768 3.006C59.1901 3.006 59.6334 3.11333 60.0068 3.328C60.3801 3.53333 60.6648 3.818 60.8608 4.182V3.104H63.9548V11H60.8608V9.922C60.6648 10.286 60.3801 10.5753 60.0068 10.79C59.6334 10.9953 59.1901 11.098 58.6768 11.098C58.0608 11.098 57.5054 10.9393 57.0108 10.622C56.5161 10.2953 56.1241 9.82867 55.8348 9.222C55.5548 8.606 55.4148 7.88267 55.4148 7.052ZM60.8608 7.052C60.8608 6.632 60.7534 6.30533 60.5388 6.072C60.3241 5.83867 60.0488 5.722 59.7128 5.722C59.3768 5.722 59.1014 5.83867 58.8868 6.072C58.6721 6.30533 58.5648 6.632 58.5648 7.052C58.5648 7.472 58.6721 7.79867 58.8868 8.032C59.1014 8.26533 59.3768 8.382 59.7128 8.382C60.0488 8.382 60.3241 8.26533 60.5388 8.032C60.7534 7.79867 60.8608 7.472 60.8608 7.052ZM68.4584 4.56C68.7757 4.10267 69.1631 3.73867 69.6204 3.468C70.0777 3.188 70.5537 3.048 71.0484 3.048V6.366H70.1664C69.5784 6.366 69.1444 6.46867 68.8644 6.674C68.5937 6.87933 68.4584 7.24333 68.4584 7.766V11H65.3504V3.104H68.4584V4.56ZM79.5295 6.982C79.5295 7.19667 79.5155 7.402 79.4875 7.598H74.4895C74.5362 8.27933 74.8209 8.62 75.3435 8.62C75.6795 8.62 75.9222 8.466 76.0715 8.158H79.3615C79.2495 8.718 79.0115 9.222 78.6475 9.67C78.2929 10.1087 77.8402 10.4587 77.2895 10.72C76.7482 10.972 76.1509 11.098 75.4975 11.098C74.7135 11.098 74.0135 10.9347 73.3975 10.608C72.7909 10.2813 72.3149 9.81467 71.9695 9.208C71.6335 8.592 71.4655 7.87333 71.4655 7.052C71.4655 6.23067 71.6335 5.51667 71.9695 4.91C72.3149 4.294 72.7909 3.82267 73.3975 3.496C74.0135 3.16933 74.7135 3.006 75.4975 3.006C76.2815 3.006 76.9769 3.16933 77.5835 3.496C78.1995 3.81333 78.6755 4.27067 79.0115 4.868C79.3569 5.46533 79.5295 6.17 79.5295 6.982ZM76.3795 6.24C76.3795 5.97867 76.2955 5.78267 76.1275 5.652C75.9595 5.512 75.7495 5.442 75.4975 5.442C74.9469 5.442 74.6249 5.708 74.5315 6.24H76.3795Z"/>
</mask>
<path d="M4.7655 11.098C3.58017 11.098 2.60017 10.8227 1.8255 10.272C1.06017 9.712 0.644833 8.89533 0.5795 7.822H3.8835C3.93017 8.39133 4.18217 8.676 4.6395 8.676C4.8075 8.676 4.9475 8.63867 5.0595 8.564C5.18083 8.48 5.2415 8.354 5.2415 8.186C5.2415 7.95267 5.1155 7.766 4.8635 7.626C4.6115 7.47667 4.2195 7.30867 3.6875 7.122C3.05283 6.898 2.5255 6.67867 2.1055 6.464C1.69483 6.24933 1.34017 5.93667 1.0415 5.526C0.742833 5.11533 0.598167 4.588 0.6075 3.944C0.6075 3.3 0.770833 2.754 1.0975 2.306C1.4335 1.84867 1.88617 1.50333 2.4555 1.27C3.03417 1.03667 3.68283 0.92 4.4015 0.92C5.61483 0.92 6.57617 1.2 7.2855 1.76C8.00417 2.32 8.38217 3.10867 8.4195 4.126H5.0735C5.06417 3.846 4.99417 3.64533 4.8635 3.524C4.73283 3.40267 4.57417 3.342 4.3875 3.342C4.25683 3.342 4.1495 3.38867 4.0655 3.482C3.9815 3.566 3.9395 3.68733 3.9395 3.846C3.9395 4.07 4.06083 4.25667 4.3035 4.406C4.5555 4.546 4.95217 4.71867 5.4935 4.924C6.11883 5.15733 6.63217 5.38133 7.0335 5.596C7.44417 5.81067 7.79883 6.10933 8.0975 6.492C8.39617 6.87467 8.5455 7.35533 8.5455 7.934C8.5455 8.54067 8.39617 9.08667 8.0975 9.572C7.79883 10.048 7.36483 10.4213 6.7955 10.692C6.22617 10.9627 5.5495 11.098 4.7655 11.098ZM17.9955 3.104V11H14.8875V9.796C14.6448 10.1693 14.3182 10.4727 13.9075 10.706C13.5062 10.9393 13.0255 11.056 12.4655 11.056C11.5602 11.056 10.8508 10.7527 10.3375 10.146C9.8335 9.53933 9.5815 8.718 9.5815 7.682V3.104H12.6755V7.29C12.6755 7.66333 12.7735 7.962 12.9695 8.186C13.1748 8.40067 13.4455 8.508 13.7815 8.508C14.1268 8.508 14.3975 8.40067 14.5935 8.186C14.7895 7.962 14.8875 7.66333 14.8875 7.29V3.104H17.9955ZM22.5072 4.182C22.7032 3.818 22.9832 3.53333 23.3472 3.328C23.7206 3.11333 24.1639 3.006 24.6772 3.006C25.2932 3.006 25.8486 3.16933 26.3432 3.496C26.8379 3.81333 27.2252 4.28 27.5052 4.896C27.7946 5.50267 27.9392 6.22133 27.9392 7.052C27.9392 7.88267 27.7946 8.606 27.5052 9.222C27.2252 9.82867 26.8379 10.2953 26.3432 10.622C25.8486 10.9393 25.2932 11.098 24.6772 11.098C24.1639 11.098 23.7206 10.9953 23.3472 10.79C22.9832 10.5753 22.7032 10.286 22.5072 9.922V14.78H19.3992V3.104H22.5072V4.182ZM24.7892 7.052C24.7892 6.632 24.6819 6.30533 24.4672 6.072C24.2526 5.83867 23.9772 5.722 23.6412 5.722C23.3052 5.722 23.0299 5.83867 22.8152 6.072C22.6006 6.30533 22.4932 6.632 22.4932 7.052C22.4932 7.472 22.6006 7.79867 22.8152 8.032C23.0299 8.26533 23.3052 8.382 23.6412 8.382C23.9772 8.382 24.2526 8.26533 24.4672 8.032C24.6819 7.79867 24.7892 7.472 24.7892 7.052ZM36.5588 6.982C36.5588 7.19667 36.5448 7.402 36.5168 7.598H31.5188C31.5655 8.27933 31.8502 8.62 32.3728 8.62C32.7088 8.62 32.9515 8.466 33.1008 8.158H36.3908C36.2788 8.718 36.0408 9.222 35.6768 9.67C35.3222 10.1087 34.8695 10.4587 34.3188 10.72C33.7775 10.972 33.1802 11.098 32.5268 11.098C31.7428 11.098 31.0428 10.9347 30.4268 10.608C29.8202 10.2813 29.3442 9.81467 28.9988 9.208C28.6628 8.592 28.4948 7.87333 28.4948 7.052C28.4948 6.23067 28.6628 5.51667 28.9988 4.91C29.3442 4.294 29.8202 3.82267 30.4268 3.496C31.0428 3.16933 31.7428 3.006 32.5268 3.006C33.3108 3.006 34.0062 3.16933 34.6128 3.496C35.2288 3.81333 35.7048 4.27067 36.0408 4.868C36.3862 5.46533 36.5588 6.17 36.5588 6.982ZM33.4088 6.24C33.4088 5.97867 33.3248 5.78267 33.1568 5.652C32.9888 5.512 32.7788 5.442 32.5268 5.442C31.9762 5.442 31.6542 5.708 31.5608 6.24H33.4088ZM40.6498 4.56C40.9671 4.10267 41.3545 3.73867 41.8118 3.468C42.2691 3.188 42.7451 3.048 43.2398 3.048V6.366H42.3578C41.7698 6.366 41.3358 6.46867 41.0558 6.674C40.7851 6.87933 40.6498 7.24333 40.6498 7.766V11H37.5418V3.104H40.6498V4.56ZM51.4399 11L49.5779 7.444H49.5639V11H46.4559V1.088H51.0759C51.8785 1.088 52.5645 1.23267 53.1339 1.522C53.7032 1.802 54.1279 2.18933 54.4079 2.684C54.6972 3.16933 54.8419 3.72 54.8419 4.336C54.8419 4.99867 54.6552 5.58667 54.2819 6.1C53.9179 6.61333 53.3905 6.982 52.6999 7.206L54.8559 11H51.4399ZM49.5639 5.372H50.7959C51.0945 5.372 51.3185 5.30667 51.4679 5.176C51.6172 5.036 51.6919 4.82133 51.6919 4.532C51.6919 4.27067 51.6125 4.06533 51.4539 3.916C51.3045 3.76667 51.0852 3.692 50.7959 3.692H49.5639V5.372ZM55.4148 7.052C55.4148 6.22133 55.5548 5.50267 55.8348 4.896C56.1241 4.28 56.5161 3.81333 57.0108 3.496C57.5054 3.16933 58.0608 3.006 58.6768 3.006C59.1901 3.006 59.6334 3.11333 60.0068 3.328C60.3801 3.53333 60.6648 3.818 60.8608 4.182V3.104H63.9548V11H60.8608V9.922C60.6648 10.286 60.3801 10.5753 60.0068 10.79C59.6334 10.9953 59.1901 11.098 58.6768 11.098C58.0608 11.098 57.5054 10.9393 57.0108 10.622C56.5161 10.2953 56.1241 9.82867 55.8348 9.222C55.5548 8.606 55.4148 7.88267 55.4148 7.052ZM60.8608 7.052C60.8608 6.632 60.7534 6.30533 60.5388 6.072C60.3241 5.83867 60.0488 5.722 59.7128 5.722C59.3768 5.722 59.1014 5.83867 58.8868 6.072C58.6721 6.30533 58.5648 6.632 58.5648 7.052C58.5648 7.472 58.6721 7.79867 58.8868 8.032C59.1014 8.26533 59.3768 8.382 59.7128 8.382C60.0488 8.382 60.3241 8.26533 60.5388 8.032C60.7534 7.79867 60.8608 7.472 60.8608 7.052ZM68.4584 4.56C68.7757 4.10267 69.1631 3.73867 69.6204 3.468C70.0777 3.188 70.5537 3.048 71.0484 3.048V6.366H70.1664C69.5784 6.366 69.1444 6.46867 68.8644 6.674C68.5937 6.87933 68.4584 7.24333 68.4584 7.766V11H65.3504V3.104H68.4584V4.56ZM79.5295 6.982C79.5295 7.19667 79.5155 7.402 79.4875 7.598H74.4895C74.5362 8.27933 74.8209 8.62 75.3435 8.62C75.6795 8.62 75.9222 8.466 76.0715 8.158H79.3615C79.2495 8.718 79.0115 9.222 78.6475 9.67C78.2929 10.1087 77.8402 10.4587 77.2895 10.72C76.7482 10.972 76.1509 11.098 75.4975 11.098C74.7135 11.098 74.0135 10.9347 73.3975 10.608C72.7909 10.2813 72.3149 9.81467 71.9695 9.208C71.6335 8.592 71.4655 7.87333 71.4655 7.052C71.4655 6.23067 71.6335 5.51667 71.9695 4.91C72.3149 4.294 72.7909 3.82267 73.3975 3.496C74.0135 3.16933 74.7135 3.006 75.4975 3.006C76.2815 3.006 76.9769 3.16933 77.5835 3.496C78.1995 3.81333 78.6755 4.27067 79.0115 4.868C79.3569 5.46533 79.5295 6.17 79.5295 6.982ZM76.3795 6.24C76.3795 5.97867 76.2955 5.78267 76.1275 5.652C75.9595 5.512 75.7495 5.442 75.4975 5.442C74.9469 5.442 74.6249 5.708 74.5315 6.24H76.3795Z" fill="white"/>
<path d="M1.8255 10.272L1.23493 11.0791L1.24612 11.0871L1.8255 10.272ZM0.5795 7.822V6.822H-0.48322L-0.418653 7.88276L0.5795 7.822ZM3.8835 7.822L4.88016 7.74031L4.80489 6.822H3.8835V7.822ZM5.0595 8.564L5.6142 9.39605L5.6215 9.39118L5.62871 9.38619L5.0595 8.564ZM4.8635 7.626L4.3537 8.48629L4.36568 8.49339L4.37786 8.50016L4.8635 7.626ZM3.6875 7.122L3.35468 8.06499L3.35641 8.0656L3.6875 7.122ZM2.1055 6.464L1.64223 7.35026L1.65039 7.35443L2.1055 6.464ZM1.0415 5.526L1.85024 4.93783H1.85024L1.0415 5.526ZM0.6075 3.944L1.6074 3.95849L1.6075 3.95125V3.944H0.6075ZM1.0975 2.306L0.291613 1.71392L0.289492 1.71683L1.0975 2.306ZM2.4555 1.27L2.08153 0.342543L2.07628 0.344694L2.4555 1.27ZM7.2855 1.76L6.66584 2.5449L6.67085 2.5488L7.2855 1.76ZM8.4195 4.126V5.126H9.45687L9.41883 4.08933L8.4195 4.126ZM5.0735 4.126L4.07406 4.15931L4.10628 5.126H5.0735V4.126ZM4.0655 3.482L4.77261 4.18911L4.7912 4.17051L4.8088 4.15096L4.0655 3.482ZM4.3035 4.406L3.7794 5.25766L3.79838 5.26934L3.81786 5.28016L4.3035 4.406ZM5.4935 4.924L5.13884 5.85901L5.14391 5.8609L5.4935 4.924ZM7.0335 5.596L6.56183 6.47782L6.57025 6.48223L7.0335 5.596ZM8.0975 6.492L7.30918 7.10727H7.30918L8.0975 6.492ZM8.0975 9.572L8.9446 10.1035L8.94916 10.0961L8.0975 9.572ZM6.7955 10.692L6.36614 9.78887L6.7955 10.692ZM4.7655 10.098C3.73601 10.098 2.97248 9.86042 2.40488 9.45694L1.24612 11.0871C2.22785 11.7849 3.42433 12.098 4.7655 12.098V10.098ZM2.41601 9.46497C1.92475 9.10551 1.62763 8.58224 1.57765 7.76124L-0.418653 7.88276C-0.33796 9.20843 0.19558 10.3185 1.23499 11.079L2.41601 9.46497ZM0.5795 8.822H3.8835V6.822H0.5795V8.822ZM2.88684 7.90369C2.91941 8.30097 3.03356 8.75801 3.35874 9.12534C3.71286 9.52537 4.18788 9.676 4.6395 9.676V7.676C4.62823 7.676 4.65687 7.67427 4.70744 7.69457C4.76235 7.71661 4.8156 7.75373 4.85626 7.79966C4.89398 7.84227 4.9034 7.87253 4.90094 7.8655C4.89788 7.85675 4.88661 7.819 4.88016 7.74031L2.88684 7.90369ZM4.6395 9.676C4.95584 9.676 5.30136 9.60461 5.6142 9.39605L4.5048 7.73195C4.54652 7.70414 4.58524 7.68913 4.61284 7.68176C4.639 7.67479 4.65 7.676 4.6395 7.676V9.676ZM5.62871 9.38619C6.06043 9.08731 6.2415 8.62947 6.2415 8.186H4.2415C4.2415 8.14964 4.24836 8.06956 4.295 7.97268C4.34397 7.87098 4.41677 7.79271 4.49029 7.74181L5.62871 9.38619ZM6.2415 8.186C6.2415 7.49883 5.83055 7.01929 5.34914 6.75184L4.37786 8.50016C4.40367 8.5145 4.36436 8.49893 4.31815 8.43047C4.26541 8.35234 4.2415 8.2611 4.2415 8.186H6.2415ZM5.3733 6.76571C5.03424 6.56478 4.56692 6.3708 4.01859 6.1784L3.35641 8.0656C3.87208 8.24654 4.18876 8.38855 4.3537 8.48629L5.3733 6.76571ZM4.02032 6.17901C3.41146 5.96412 2.92833 5.76151 2.56061 5.57357L1.65039 7.35443C2.12267 7.59582 2.69421 7.83188 3.35468 8.06499L4.02032 6.17901ZM2.56875 5.57778C2.30738 5.44115 2.06708 5.23598 1.85024 4.93783L0.232764 6.11417C0.613258 6.63735 1.08228 7.05752 1.64225 7.35023L2.56875 5.57778ZM1.85024 4.93783C1.70943 4.74422 1.60035 4.44485 1.6074 3.95849L-0.392395 3.92951C-0.404013 4.73115 -0.22376 5.48645 0.232764 6.11417L1.85024 4.93783ZM1.6075 3.944C1.6075 3.47635 1.72297 3.14551 1.90551 2.89517L0.289492 1.71683C-0.181301 2.36249 -0.3925 3.12365 -0.3925 3.944H1.6075ZM1.90338 2.89808C2.12138 2.60136 2.42069 2.36499 2.83472 2.1953L2.07628 0.344694C1.35165 0.641674 0.745624 1.09597 0.291618 1.71392L1.90338 2.89808ZM2.82947 2.19744C3.27265 2.01874 3.79174 1.92 4.4015 1.92V-0.0800004C3.57393 -0.0800004 2.79569 0.0545921 2.08153 0.342557L2.82947 2.19744ZM4.4015 1.92C5.46676 1.92 6.18507 2.16532 6.66586 2.54488L7.90514 0.975117C6.96726 0.234682 5.7629 -0.0800004 4.4015 -0.0800004V1.92ZM6.67085 2.5488C7.12736 2.90452 7.39224 3.40155 7.42017 4.16267L9.41883 4.08933C9.37209 2.81578 8.88098 1.73548 7.90015 0.971199L6.67085 2.5488ZM8.4195 3.126H5.0735V5.126H8.4195V3.126ZM6.07295 4.09269C6.05966 3.69402 5.95658 3.17436 5.54395 2.79121L4.18305 4.25679C4.10797 4.18708 4.07825 4.11908 4.0698 4.09487C4.0629 4.07508 4.07175 4.09011 4.07406 4.15931L6.07295 4.09269ZM5.54395 2.79121C5.21899 2.48946 4.81356 2.342 4.3875 2.342V4.342C4.37083 4.342 4.33481 4.33893 4.28936 4.32155C4.24313 4.30387 4.20686 4.2789 4.18305 4.25679L5.54395 2.79121ZM4.3875 2.342C3.98641 2.342 3.60441 2.49947 3.3222 2.81304L4.8088 4.15096C4.76212 4.20283 4.69474 4.25624 4.60773 4.29407C4.52168 4.33148 4.44335 4.342 4.3875 4.342V2.342ZM3.35839 2.77489C3.03057 3.10271 2.9395 3.51403 2.9395 3.846H4.9395C4.9395 3.85277 4.93884 3.8971 4.91599 3.96311C4.89155 4.0337 4.84611 4.1156 4.77261 4.18911L3.35839 2.77489ZM2.9395 3.846C2.9395 4.51312 3.33302 4.98296 3.7794 5.25766L4.8276 3.55434C4.79836 3.53635 4.82954 3.54839 4.86894 3.60901C4.9144 3.67894 4.9395 3.7658 4.9395 3.846H2.9395ZM3.81786 5.28016C4.1356 5.45668 4.58785 5.65 5.13885 5.859L5.84815 3.989C5.31649 3.78734 4.9754 3.63532 4.78914 3.53184L3.81786 5.28016ZM5.14391 5.8609C5.74476 6.0851 6.21347 6.29144 6.56185 6.47778L7.50515 4.71422C7.05087 4.47123 6.4929 4.22956 5.84309 3.9871L5.14391 5.8609ZM6.57025 6.48223C6.84846 6.62766 7.09403 6.83161 7.30918 7.10727L8.88582 5.87673C8.50363 5.38706 8.03987 4.99368 7.49675 4.70977L6.57025 6.48223ZM7.30918 7.10727C7.44568 7.28215 7.5455 7.53393 7.5455 7.934H9.5455C9.5455 7.17673 9.34666 6.46718 8.88582 5.87673L7.30918 7.10727ZM7.5455 7.934C7.5455 8.36806 7.44119 8.73046 7.24584 9.0479L8.94916 10.0961C9.35114 9.44287 9.5455 8.71327 9.5455 7.934H7.5455ZM7.25044 9.04051C7.06482 9.33634 6.7853 9.58959 6.36614 9.78887L7.22486 11.5951C7.94437 11.2531 8.53285 10.7597 8.94456 10.1035L7.25044 9.04051ZM6.36614 9.78887C5.95955 9.98216 5.43626 10.098 4.7655 10.098V12.098C5.66274 12.098 6.49278 11.9432 7.22486 11.5951L6.36614 9.78887ZM17.9955 3.104H18.9955V2.104H17.9955V3.104ZM17.9955 11V12H18.9955V11H17.9955ZM14.8875 11H13.8875V12H14.8875V11ZM14.8875 9.796H15.8875V6.42264L14.0491 9.25101L14.8875 9.796ZM13.9075 10.706L13.4135 9.8365L13.4049 9.84149L13.9075 10.706ZM10.3375 10.146L9.56828 10.785L9.57411 10.7919L10.3375 10.146ZM9.5815 3.104V2.104H8.5815V3.104H9.5815ZM12.6755 3.104H13.6755V2.104H12.6755V3.104ZM12.9695 8.186L12.2169 8.8445L12.2315 8.8612L12.2469 8.87722L12.9695 8.186ZM14.5935 8.186L15.332 8.86027L15.3391 8.85246L15.3461 8.8445L14.5935 8.186ZM14.8875 3.104V2.104H13.8875V3.104H14.8875ZM16.9955 3.104V11H18.9955V3.104H16.9955ZM17.9955 10H14.8875V12H17.9955V10ZM15.8875 11V9.796H13.8875V11H15.8875ZM14.0491 9.25101C13.8989 9.48205 13.6937 9.67731 13.4135 9.83654L14.4015 11.5755C14.9426 11.268 15.3908 10.8566 15.7259 10.341L14.0491 9.25101ZM13.4049 9.84149C13.1849 9.96941 12.8854 10.056 12.4655 10.056V12.056C13.1656 12.056 13.8275 11.9093 14.4101 11.5705L13.4049 9.84149ZM12.4655 10.056C11.8085 10.056 11.3965 9.84943 11.1009 9.50006L9.57411 10.7919C10.3052 11.6559 11.3118 12.056 12.4655 12.056V10.056ZM11.1067 9.50698C10.7931 9.12956 10.5815 8.55859 10.5815 7.682H8.5815C8.5815 8.87741 8.87386 9.94911 9.56831 10.785L11.1067 9.50698ZM10.5815 7.682V3.104H8.5815V7.682H10.5815ZM9.5815 4.104H12.6755V2.104H9.5815V4.104ZM11.6755 3.104V7.29H13.6755V3.104H11.6755ZM11.6755 7.29C11.6755 7.84184 11.8239 8.39538 12.2169 8.8445L13.7221 7.5275C13.7175 7.52223 13.7087 7.51116 13.6992 7.48223C13.6887 7.45037 13.6755 7.39007 13.6755 7.29H11.6755ZM12.2469 8.87722C12.6664 9.3158 13.2118 9.508 13.7815 9.508V7.508C13.7205 7.508 13.6965 7.49847 13.6951 7.49792C13.6939 7.49745 13.6947 7.49769 13.6961 7.49859C13.6973 7.49946 13.696 7.49886 13.6921 7.49478L12.2469 8.87722ZM13.7815 9.508C14.3503 9.508 14.9109 9.32145 15.332 8.86027L13.855 7.51173C13.8558 7.51092 13.859 7.50762 13.8646 7.50379C13.8701 7.49998 13.8742 7.49819 13.8749 7.49792C13.8765 7.49727 13.851 7.508 13.7815 7.508V9.508ZM15.3461 8.8445C15.7391 8.39538 15.8875 7.84184 15.8875 7.29H13.8875C13.8875 7.39007 13.8743 7.45037 13.8638 7.48223C13.8543 7.51116 13.8455 7.52223 13.8409 7.5275L15.3461 8.8445ZM15.8875 7.29V3.104H13.8875V7.29H15.8875ZM14.8875 4.104H17.9955V2.104H14.8875V4.104ZM22.5072 4.182H21.5072L23.3877 4.6561L22.5072 4.182ZM23.3472 3.328L23.8386 4.19901L23.8457 4.19491L23.3472 3.328ZM26.3432 3.496L25.7921 4.33054L25.8033 4.33769L26.3432 3.496ZM27.5052 4.896L26.5949 5.3098L26.5987 5.31817L26.6026 5.32647L27.5052 4.896ZM27.5052 9.222L26.6001 8.79685L26.5973 8.80294L27.5052 9.222ZM26.3432 10.622L26.8832 11.4638L26.8943 11.4565L26.3432 10.622ZM23.3472 10.79L22.8392 11.6514L22.8522 11.659L22.8653 11.6662L23.3472 10.79ZM22.5072 9.922L23.3877 9.4479L21.5072 9.922H22.5072ZM22.5072 14.78V15.78H23.5072V14.78H22.5072ZM19.3992 14.78H18.3992V15.78H19.3992V14.78ZM19.3992 3.104V2.104H18.3992V3.104H19.3992ZM22.5072 3.104H23.5072V2.104H22.5072V3.104ZM24.4672 6.072L25.2031 5.39494V5.39494L24.4672 6.072ZM22.8152 6.072L22.0793 5.39494L22.0793 5.39494L22.8152 6.072ZM22.8152 8.032L22.0793 8.70906H22.0793L22.8152 8.032ZM23.3877 4.6561C23.4931 4.46042 23.6373 4.31252 23.8385 4.19898L22.8559 2.45702C22.3292 2.75414 21.9134 3.17558 21.6267 3.7079L23.3877 4.6561ZM23.8457 4.19491C24.0406 4.08282 24.3051 4.006 24.6772 4.006V2.006C24.0226 2.006 23.4005 2.14385 22.8487 2.46109L23.8457 4.19491ZM24.6772 4.006C25.1054 4.006 25.4676 4.11615 25.7922 4.33046L26.8943 2.66154C26.2295 2.22251 25.4811 2.006 24.6772 2.006V4.006ZM25.8033 4.33769C26.1124 4.53601 26.3822 4.84194 26.5949 5.3098L28.4156 4.4822C28.0683 3.71806 27.5634 3.09065 26.8832 2.65431L25.8033 4.33769ZM26.6026 5.32647C26.8145 5.7708 26.9392 6.33595 26.9392 7.052H28.9392C28.9392 6.10672 28.7746 5.23453 28.4078 4.46553L26.6026 5.32647ZM26.9392 7.052C26.9392 7.76748 26.8147 8.33992 26.6001 8.79686L28.4103 9.64714C28.7744 8.87208 28.9392 7.99785 28.9392 7.052H26.9392ZM26.5973 8.80294C26.3851 9.26268 26.1124 9.57604 25.7922 9.78754L26.8943 11.4565C27.5633 11.0146 28.0654 10.3946 28.4132 9.64106L26.5973 8.80294ZM25.8033 9.78031C25.4777 9.98917 25.1115 10.098 24.6772 10.098V12.098C25.475 12.098 26.2194 11.8895 26.8832 11.4637L25.8033 9.78031ZM24.6772 10.098C24.298 10.098 24.0274 10.0228 23.8291 9.91378L22.8653 11.6662C23.4137 11.9678 24.0297 12.098 24.6772 12.098V10.098ZM23.8552 9.92863C23.6447 9.80449 23.4952 9.64754 23.3877 9.4479L21.6267 10.3961C21.9113 10.9245 22.3217 11.3462 22.8392 11.6514L23.8552 9.92863ZM21.5072 9.922V14.78H23.5072V9.922H21.5072ZM22.5072 13.78H19.3992V15.78H22.5072V13.78ZM20.3992 14.78V3.104H18.3992V14.78H20.3992ZM19.3992 4.104H22.5072V2.104H19.3992V4.104ZM21.5072 3.104V4.182H23.5072V3.104H21.5072ZM25.7892 7.052C25.7892 6.46446 25.6367 5.86615 25.2031 5.39494L23.7313 6.74906C23.7341 6.75212 23.7457 6.76473 23.7587 6.80415C23.7729 6.84729 23.7892 6.92542 23.7892 7.052H25.7892ZM25.2031 5.39494C24.7868 4.94235 24.2381 4.722 23.6412 4.722V6.722C23.6673 6.722 23.6844 6.72425 23.6944 6.72615C23.7041 6.728 23.7085 6.72981 23.7096 6.73025C23.7105 6.73065 23.7115 6.73113 23.7136 6.73261C23.7158 6.73419 23.7219 6.73882 23.7313 6.74906L25.2031 5.39494ZM23.6412 4.722C23.0443 4.722 22.4957 4.94235 22.0793 5.39494L23.5511 6.74906C23.5606 6.73882 23.5666 6.73419 23.5688 6.73261C23.5709 6.73113 23.5719 6.73065 23.5729 6.73025C23.5739 6.72981 23.5784 6.728 23.5881 6.72615C23.598 6.72425 23.6152 6.722 23.6412 6.722V4.722ZM22.0793 5.39494C21.6458 5.86615 21.4932 6.46446 21.4932 7.052H23.4932C23.4932 6.92542 23.5096 6.84729 23.5238 6.80415C23.5367 6.76473 23.5483 6.75212 23.5511 6.74906L22.0793 5.39494ZM21.4932 7.052C21.4932 7.63954 21.6458 8.23785 22.0793 8.70906L23.5511 7.35494C23.5483 7.35188 23.5367 7.33927 23.5238 7.29985C23.5096 7.25671 23.4932 7.17858 23.4932 7.052H21.4932ZM22.0793 8.70906C22.4957 9.16165 23.0443 9.382 23.6412 9.382V7.382C23.6152 7.382 23.598 7.37975 23.5881 7.37785C23.5784 7.376 23.5739 7.37419 23.5729 7.37375C23.5719 7.37335 23.5709 7.37287 23.5688 7.37139C23.5666 7.3698 23.5606 7.36518 23.5511 7.35494L22.0793 8.70906ZM23.6412 9.382C24.2381 9.382 24.7868 9.16165 25.2031 8.70906L23.7313 7.35494C23.7219 7.36518 23.7158 7.3698 23.7136 7.37139C23.7115 7.37287 23.7105 7.37335 23.7096 7.37375C23.7085 7.37419 23.7041 7.376 23.6944 7.37785C23.6844 7.37975 23.6673 7.382 23.6412 7.382V9.382ZM25.2031 8.70906C25.6367 8.23785 25.7892 7.63954 25.7892 7.052H23.7892C23.7892 7.17858 23.7729 7.25671 23.7587 7.29985C23.7457 7.33927 23.7341 7.35188 23.7313 7.35494L25.2031 8.70906ZM36.5168 7.598V8.598H37.3841L37.5068 7.73942L36.5168 7.598ZM31.5188 7.598V6.598H30.448L30.5212 7.66633L31.5188 7.598ZM33.1008 8.158V7.158H32.4743L32.201 7.72173L33.1008 8.158ZM36.3908 8.158L37.3714 8.35412L37.6106 7.158H36.3908V8.158ZM35.6768 9.67L34.9007 9.03941L34.8992 9.04128L35.6768 9.67ZM34.3188 10.72L34.7409 11.6266L34.7476 11.6234L34.3188 10.72ZM30.4268 10.608L29.9527 11.4885L29.9583 11.4915L30.4268 10.608ZM28.9988 9.208L28.1209 9.68685L28.1253 9.69482L28.1298 9.7027L28.9988 9.208ZM28.9988 4.91L28.1266 4.42099L28.1241 4.4255L28.9988 4.91ZM30.4268 3.496L29.9583 2.61252L29.9527 2.61553L30.4268 3.496ZM34.6128 3.496L34.1387 4.37647L34.1468 4.3808L34.1549 4.38497L34.6128 3.496ZM36.0408 4.868L35.1692 5.3583L35.1751 5.3685L36.0408 4.868ZM33.4088 6.24V7.24H34.4088V6.24H33.4088ZM33.1568 5.652L32.5167 6.42022L32.5296 6.43101L32.5429 6.44135L33.1568 5.652ZM31.5608 6.24L30.5759 6.0672L30.3701 7.24H31.5608V6.24ZM35.5588 6.982C35.5588 7.15326 35.5477 7.31115 35.5269 7.45658L37.5068 7.73942C37.542 7.49285 37.5588 7.24007 37.5588 6.982H35.5588ZM36.5168 6.598H31.5188V8.598H36.5168V6.598ZM30.5212 7.66633C30.5517 8.11126 30.6672 8.60745 31 9.00572C31.3668 9.44465 31.8735 9.62 32.3728 9.62V7.62C32.3504 7.62 32.3708 7.61646 32.4142 7.63479C32.4357 7.64386 32.4588 7.65664 32.4813 7.67335C32.5038 7.69003 32.5216 7.70756 32.5347 7.72328C32.5608 7.75454 32.5598 7.7677 32.5497 7.73673C32.5393 7.70448 32.524 7.63928 32.5165 7.52967L30.5212 7.66633ZM32.3728 9.62C32.6979 9.62 33.0356 9.54369 33.3427 9.34883C33.6486 9.15468 33.8606 8.88323 34.0007 8.59427L32.201 7.72173C32.1918 7.74077 32.2077 7.70033 32.271 7.66017C32.3 7.64177 32.3281 7.63064 32.3502 7.62476C32.3712 7.61915 32.3804 7.62 32.3728 7.62V9.62ZM33.1008 9.158H36.3908V7.158H33.1008V9.158ZM35.4103 7.96188C35.3305 8.36082 35.1634 8.71606 34.9007 9.03941L36.453 10.3006C36.9182 9.72794 37.2272 9.07518 37.3714 8.35412L35.4103 7.96188ZM34.8992 9.04128C34.6462 9.3542 34.3165 9.61424 33.8901 9.81657L34.7476 11.6234C35.4226 11.3031 35.9981 10.8631 36.4545 10.2987L34.8992 9.04128ZM33.8968 9.81342C33.4997 9.99828 33.0483 10.098 32.5268 10.098V12.098C33.3121 12.098 34.0553 11.9457 34.7409 11.6266L33.8968 9.81342ZM32.5268 10.098C31.8856 10.098 31.3499 9.96558 30.8953 9.72454L29.9583 11.4915C30.7358 11.9038 31.6001 12.098 32.5268 12.098V10.098ZM30.9009 9.72753C30.4618 9.49107 30.1217 9.15913 29.8679 8.7133L28.1298 9.7027C28.5667 10.4702 29.1786 11.0716 29.9527 11.4885L30.9009 9.72753ZM29.8767 8.72915C29.6335 8.28328 29.4948 7.73466 29.4948 7.052H27.4948C27.4948 8.01201 27.6921 8.90072 28.1209 9.68685L29.8767 8.72915ZM29.4948 7.052C29.4948 6.36888 29.6337 5.82773 29.8736 5.3945L28.1241 4.4255C27.692 5.2056 27.4948 6.09246 27.4948 7.052H29.4948ZM29.8711 5.399C30.126 4.94429 30.4658 4.61076 30.9009 4.37647L29.9527 2.61553C29.1745 3.03457 28.5623 3.6437 28.1266 4.42099L29.8711 5.399ZM30.8953 4.37946C31.3499 4.13842 31.8856 4.006 32.5268 4.006V2.006C31.6001 2.006 30.7358 2.20024 29.9583 2.61254L30.8953 4.37946ZM32.5268 4.006C33.1684 4.006 33.6968 4.13852 34.1387 4.37647L35.0869 2.61553C34.3155 2.20015 33.4533 2.006 32.5268 2.006V4.006ZM34.1549 4.38497C34.599 4.61378 34.9303 4.93342 35.1693 5.35826L36.9124 4.37774C36.4794 3.60791 35.8587 3.01289 35.0708 2.60703L34.1549 4.38497ZM35.1751 5.3685C35.418 5.78871 35.5588 6.31443 35.5588 6.982H37.5588C37.5588 6.02557 37.3543 5.14195 36.9066 4.3675L35.1751 5.3685ZM34.4088 6.24C34.4088 5.74803 34.2379 5.22597 33.7708 4.86265L32.5429 6.44135C32.4931 6.40261 32.4512 6.34811 32.4267 6.29092C32.4048 6.23974 32.4088 6.21502 32.4088 6.24H34.4088ZM33.797 4.88378C33.4224 4.57158 32.9752 4.442 32.5268 4.442V6.442C32.56 6.442 32.5671 6.44651 32.5571 6.44318C32.5524 6.4416 32.5454 6.43877 32.5373 6.43428C32.5292 6.42979 32.5222 6.42483 32.5167 6.42022L33.797 4.88378ZM32.5268 4.442C32.0938 4.442 31.6259 4.54802 31.2355 4.87054C30.8426 5.19505 30.6514 5.63689 30.5759 6.0672L32.5458 6.4128C32.5549 6.36097 32.5644 6.34551 32.5608 6.35255C32.5588 6.35641 32.5537 6.36519 32.5445 6.37674C32.5352 6.38843 32.5234 6.40079 32.5092 6.41246C32.4951 6.42412 32.4813 6.43295 32.4694 6.4392C32.4577 6.44535 32.45 6.44789 32.4483 6.44842C32.4457 6.44922 32.4682 6.442 32.5268 6.442V4.442ZM31.5608 7.24H33.4088V5.24H31.5608V7.24ZM40.6498 4.56H39.6498V7.75531L41.4714 5.13008L40.6498 4.56ZM41.8118 3.468L42.3211 4.32858L42.3276 4.32476L42.334 4.32085L41.8118 3.468ZM43.2398 3.048H44.2398V2.048H43.2398V3.048ZM43.2398 6.366V7.366H44.2398V6.366H43.2398ZM41.0558 6.674L40.4644 5.86759L40.4579 5.8724L40.4514 5.87731L41.0558 6.674ZM40.6498 11V12H41.6498V11H40.6498ZM37.5418 11H36.5418V12H37.5418V11ZM37.5418 3.104V2.104H36.5418V3.104H37.5418ZM40.6498 3.104H41.6498V2.104H40.6498V3.104ZM41.4714 5.13008C41.7107 4.78517 41.9934 4.52252 42.3211 4.32858L41.3025 2.60742C40.7155 2.95482 40.2235 3.42016 39.8282 3.98992L41.4714 5.13008ZM42.334 4.32085C42.6478 4.12869 42.9448 4.048 43.2398 4.048V2.048C42.5454 2.048 41.8904 2.24731 41.2896 2.61515L42.334 4.32085ZM42.2398 3.048V6.366H44.2398V3.048H42.2398ZM43.2398 5.366H42.3578V7.366H43.2398V5.366ZM42.3578 5.366C41.6901 5.366 40.9988 5.47576 40.4644 5.86759L41.6472 7.4804C41.6728 7.46158 41.8495 7.366 42.3578 7.366V5.366ZM40.4514 5.87731C39.8204 6.35599 39.6498 7.10294 39.6498 7.766H41.6498C41.6498 7.58507 41.674 7.48879 41.6886 7.44949C41.6998 7.41937 41.6969 7.44285 41.6602 7.47069L40.4514 5.87731ZM39.6498 7.766V11H41.6498V7.766H39.6498ZM40.6498 10H37.5418V12H40.6498V10ZM38.5418 11V3.104H36.5418V11H38.5418ZM37.5418 4.104H40.6498V2.104H37.5418V4.104ZM39.6498 3.104V4.56H41.6498V3.104H39.6498ZM51.4399 11L50.554 11.4639L50.8347 12H51.4399V11ZM49.5779 7.444L50.4638 6.98012L50.183 6.444H49.5779V7.444ZM49.5639 7.444V6.444H48.5639V7.444H49.5639ZM49.5639 11V12H50.5639V11H49.5639ZM46.4559 11H45.4559V12H46.4559V11ZM46.4559 1.088V0.0879998H45.4559V1.088H46.4559ZM53.1339 1.522L52.6808 2.41356L52.6925 2.41935L53.1339 1.522ZM54.4079 2.684L53.5376 3.1766L53.5431 3.18639L53.5489 3.19606L54.4079 2.684ZM54.2819 6.1L53.4731 5.51179L53.4661 5.52157L54.2819 6.1ZM52.6999 7.206L52.3914 6.25478L51.2242 6.6333L51.8304 7.70006L52.6999 7.206ZM54.8559 11V12H56.5743L55.7253 10.5059L54.8559 11ZM49.5639 5.372H48.5639V6.372H49.5639V5.372ZM51.4679 5.176L52.1264 5.92858L52.1393 5.91728L52.1518 5.90554L51.4679 5.176ZM51.4539 3.916L50.7468 4.62311L50.7575 4.63382L50.7685 4.6442L51.4539 3.916ZM49.5639 3.692V2.692H48.5639V3.692H49.5639ZM52.3258 10.5361L50.4638 6.98012L48.692 7.90788L50.554 11.4639L52.3258 10.5361ZM49.5779 6.444H49.5639V8.444H49.5779V6.444ZM48.5639 7.444V11H50.5639V7.444H48.5639ZM49.5639 10H46.4559V12H49.5639V10ZM47.4559 11V1.088H45.4559V11H47.4559ZM46.4559 2.088H51.0759V0.0879998H46.4559V2.088ZM51.0759 2.088C51.7606 2.088 52.2833 2.21145 52.6808 2.41348L53.5869 0.630514C52.8458 0.253884 51.9965 0.0879998 51.0759 0.0879998V2.088ZM52.6925 2.41935C53.1033 2.62134 53.368 2.87691 53.5376 3.1766L55.2781 2.1914C54.8878 1.50176 54.3031 0.98266 53.5752 0.62465L52.6925 2.41935ZM53.5489 3.19606C53.7377 3.51273 53.8419 3.88349 53.8419 4.336H55.8419C55.8419 3.55651 55.6567 2.82594 55.2668 2.17193L53.5489 3.19606ZM53.8419 4.336C53.8419 4.79725 53.7164 5.17727 53.4731 5.51183L55.0906 6.68817C55.5939 5.99607 55.8419 5.20009 55.8419 4.336H53.8419ZM53.4661 5.52157C53.2452 5.83312 52.91 6.08657 52.3914 6.25478L53.0084 8.15722C53.8711 7.87743 54.5905 7.39355 55.0976 6.67843L53.4661 5.52157ZM51.8304 7.70006L53.9864 11.4941L55.7253 10.5059L53.5693 6.71194L51.8304 7.70006ZM54.8559 10H51.4399V12H54.8559V10ZM49.5639 6.372H50.7959V4.372H49.5639V6.372ZM50.7959 6.372C51.2183 6.372 51.7219 6.28247 52.1264 5.92858L50.8094 4.42342C50.8347 4.40124 50.8585 4.3861 50.877 4.37635C50.8952 4.36681 50.9066 4.36336 50.9079 4.363C50.9089 4.36269 50.901 4.36508 50.8818 4.36747C50.8627 4.36987 50.8344 4.372 50.7959 4.372V6.372ZM52.1518 5.90554C52.5745 5.50922 52.6919 4.98099 52.6919 4.532H50.6919C50.6919 4.59391 50.6835 4.60413 50.6914 4.58148C50.6957 4.56906 50.7044 4.54829 50.7204 4.52301C50.7366 4.49735 50.7578 4.47095 50.7839 4.44646L52.1518 5.90554ZM52.6919 4.532C52.6919 4.05436 52.5382 3.56331 52.1392 3.1878L50.7685 4.6442C50.7547 4.6312 50.7405 4.61489 50.7276 4.59572C50.7148 4.57658 50.7056 4.55814 50.6996 4.5424C50.6873 4.51078 50.6919 4.50201 50.6919 4.532H52.6919ZM52.161 3.20889C51.7634 2.8113 51.25 2.692 50.7959 2.692V4.692C50.857 4.692 50.8713 4.70018 50.8551 4.69465C50.8462 4.69161 50.8299 4.68504 50.8095 4.67262C50.7887 4.66002 50.7671 4.64347 50.7468 4.62311L52.161 3.20889ZM50.7959 2.692H49.5639V4.692H50.7959V2.692ZM48.5639 3.692V5.372H50.5639V3.692H48.5639ZM55.8348 4.896L54.9296 4.47085L54.9268 4.47694L55.8348 4.896ZM57.0108 3.496L57.5508 4.33777L57.5618 4.33046L57.0108 3.496ZM60.0068 3.328L59.5083 4.19491L59.5165 4.19964L59.5248 4.20422L60.0068 3.328ZM60.8608 4.182L59.9803 4.6561L61.8608 4.182H60.8608ZM60.8608 3.104V2.104H59.8608V3.104H60.8608ZM63.9548 3.104H64.9548V2.104H63.9548V3.104ZM63.9548 11V12H64.9548V11H63.9548ZM60.8608 11H59.8608V12H60.8608V11ZM60.8608 9.922H61.8608L59.9803 9.4479L60.8608 9.922ZM60.0068 10.79L60.4887 11.6662L60.497 11.6616L60.5052 11.6569L60.0068 10.79ZM57.0108 10.622L56.4597 11.4565L56.4708 11.4637L57.0108 10.622ZM55.8348 9.222L54.9244 9.6358L54.9282 9.64417L54.9322 9.65247L55.8348 9.222ZM60.5388 6.072L61.2747 5.39494V5.39494L60.5388 6.072ZM58.8868 6.072L58.1508 5.39494L58.1508 5.39494L58.8868 6.072ZM56.4148 7.052C56.4148 6.33177 56.5362 5.76243 56.7427 5.31506L54.9268 4.47694C54.5733 5.2429 54.4148 6.11089 54.4148 7.052H56.4148ZM56.7399 5.32114C56.9621 4.84813 57.2383 4.5381 57.5507 4.33769L56.4708 2.65431C55.7939 3.08856 55.2861 3.71187 54.9296 4.47086L56.7399 5.32114ZM57.5618 4.33046C57.8864 4.11615 58.2486 4.006 58.6768 4.006V2.006C57.8729 2.006 57.1245 2.22251 56.4597 2.66154L57.5618 4.33046ZM58.6768 4.006C59.0488 4.006 59.3134 4.08282 59.5083 4.19491L60.5052 2.46109C59.9535 2.14385 59.3314 2.006 58.6768 2.006V4.006ZM59.5248 4.20422C59.7348 4.31971 59.8785 4.46714 59.9803 4.6561L61.7412 3.7079C61.451 3.16886 61.0254 2.74696 60.4887 2.45178L59.5248 4.20422ZM61.8608 4.182V3.104H59.8608V4.182H61.8608ZM60.8608 4.104H63.9548V2.104H60.8608V4.104ZM62.9548 3.104V11H64.9548V3.104H62.9548ZM63.9548 10H60.8608V12H63.9548V10ZM61.8608 11V9.922H59.8608V11H61.8608ZM59.9803 9.4479C59.8764 9.64093 59.7273 9.79718 59.5083 9.92309L60.5052 11.6569C61.0329 11.3535 61.4532 10.9311 61.7412 10.3961L59.9803 9.4479ZM59.5248 9.91378C59.3266 10.0228 59.056 10.098 58.6768 10.098V12.098C59.3242 12.098 59.9403 11.9678 60.4887 11.6662L59.5248 9.91378ZM58.6768 10.098C58.2425 10.098 57.8763 9.98917 57.5507 9.78031L56.4708 11.4637C57.1346 11.8895 57.879 12.098 58.6768 12.098V10.098ZM57.5618 9.78754C57.2384 9.57394 56.9591 9.25653 56.7374 8.79153L54.9322 9.65247C55.2891 10.4008 55.7938 11.0167 56.4597 11.4565L57.5618 9.78754ZM56.7451 8.8082C56.5361 8.34823 56.4148 7.77165 56.4148 7.052H54.4148C54.4148 7.99369 54.5735 8.86377 54.9244 9.6358L56.7451 8.8082ZM61.8608 7.052C61.8608 6.46446 61.7082 5.86615 61.2747 5.39494L59.8028 6.74906C59.8057 6.75212 59.8173 6.76473 59.8302 6.80415C59.8444 6.84729 59.8608 6.92542 59.8608 7.052H61.8608ZM61.2747 5.39494C60.8583 4.94235 60.3096 4.722 59.7128 4.722V6.722C59.7388 6.722 59.756 6.72425 59.7659 6.72615C59.7756 6.728 59.7801 6.72981 59.7811 6.73025C59.7821 6.73065 59.7831 6.73113 59.7852 6.73261C59.7874 6.73419 59.7934 6.73882 59.8028 6.74906L61.2747 5.39494ZM59.7128 4.722C59.1159 4.722 58.5672 4.94235 58.1508 5.39494L59.6227 6.74906C59.6321 6.73882 59.6382 6.73419 59.6404 6.73261C59.6425 6.73113 59.6435 6.73065 59.6444 6.73025C59.6455 6.72981 59.6499 6.728 59.6596 6.72615C59.6695 6.72425 59.6867 6.722 59.7128 6.722V4.722ZM58.1508 5.39494C57.7173 5.86615 57.5648 6.46446 57.5648 7.052H59.5648C59.5648 6.92542 59.5811 6.84729 59.5953 6.80415C59.6082 6.76473 59.6199 6.75212 59.6227 6.74906L58.1508 5.39494ZM57.5648 7.052C57.5648 7.63954 57.7173 8.23785 58.1508 8.70906L59.6227 7.35494C59.6199 7.35188 59.6082 7.33927 59.5953 7.29985C59.5811 7.25671 59.5648 7.17858 59.5648 7.052H57.5648ZM58.1508 8.70906C58.5672 9.16165 59.1159 9.382 59.7128 9.382V7.382C59.6867 7.382 59.6695 7.37975 59.6596 7.37785C59.6499 7.376 59.6455 7.37419 59.6444 7.37375C59.6435 7.37335 59.6425 7.37287 59.6404 7.37139C59.6382 7.3698 59.6321 7.36518 59.6227 7.35494L58.1508 8.70906ZM59.7128 9.382C60.3096 9.382 60.8583 9.16165 61.2747 8.70906L59.8028 7.35494C59.7934 7.36518 59.7874 7.36981 59.7852 7.37139C59.7831 7.37287 59.7821 7.37335 59.7811 7.37375C59.7801 7.37419 59.7756 7.376 59.7659 7.37785C59.756 7.37975 59.7388 7.382 59.7128 7.382V9.382ZM61.2747 8.70906C61.7082 8.23785 61.8608 7.63954 61.8608 7.052H59.8608C59.8608 7.17858 59.8444 7.25671 59.8302 7.29985C59.8173 7.33927 59.8057 7.35188 59.8028 7.35494L61.2747 8.70906ZM68.4584 4.56H67.4584V7.75531L69.28 5.13008L68.4584 4.56ZM69.6204 3.468L70.1297 4.32858L70.1362 4.32476L70.1425 4.32085L69.6204 3.468ZM71.0484 3.048H72.0484V2.048H71.0484V3.048ZM71.0484 6.366V7.366H72.0484V6.366H71.0484ZM68.8644 6.674L68.273 5.86759L68.2665 5.8724L68.26 5.87731L68.8644 6.674ZM68.4584 11V12H69.4584V11H68.4584ZM65.3504 11H64.3504V12H65.3504V11ZM65.3504 3.104V2.104H64.3504V3.104H65.3504ZM68.4584 3.104H69.4584V2.104H68.4584V3.104ZM69.28 5.13008C69.5193 4.78517 69.802 4.52252 70.1297 4.32858L69.1111 2.60742C68.5241 2.95482 68.0321 3.42016 67.6368 3.98992L69.28 5.13008ZM70.1425 4.32085C70.4564 4.12869 70.7534 4.048 71.0484 4.048V2.048C70.354 2.048 69.699 2.24731 69.0982 2.61515L70.1425 4.32085ZM70.0484 3.048V6.366H72.0484V3.048H70.0484ZM71.0484 5.366H70.1664V7.366H71.0484V5.366ZM70.1664 5.366C69.4987 5.366 68.8074 5.47576 68.273 5.86759L69.4558 7.4804C69.4814 7.46158 69.6581 7.366 70.1664 7.366V5.366ZM68.26 5.87731C67.629 6.35599 67.4584 7.10294 67.4584 7.766H69.4584C69.4584 7.58507 69.4826 7.48879 69.4972 7.44949C69.5084 7.41937 69.5055 7.44285 69.4688 7.47069L68.26 5.87731ZM67.4584 7.766V11H69.4584V7.766H67.4584ZM68.4584 10H65.3504V12H68.4584V10ZM66.3504 11V3.104H64.3504V11H66.3504ZM65.3504 4.104H68.4584V2.104H65.3504V4.104ZM67.4584 3.104V4.56H69.4584V3.104H67.4584ZM79.4875 7.598V8.598H80.3548L80.4775 7.73942L79.4875 7.598ZM74.4895 7.598V6.598H73.4187L73.4919 7.66633L74.4895 7.598ZM76.0715 8.158V7.158H75.4451L75.1717 7.72173L76.0715 8.158ZM79.3615 8.158L80.3421 8.35412L80.5814 7.158H79.3615V8.158ZM78.6475 9.67L77.8714 9.03941L77.8699 9.04128L78.6475 9.67ZM77.2896 10.72L77.7116 11.6266L77.7183 11.6234L77.2896 10.72ZM73.3975 10.608L72.9234 11.4885L72.929 11.4915L73.3975 10.608ZM71.9695 9.208L71.0917 9.68685L71.096 9.69482L71.1005 9.7027L71.9695 9.208ZM71.9695 4.91L71.0973 4.42099L71.0948 4.4255L71.9695 4.91ZM73.3975 3.496L72.929 2.61252L72.9234 2.61553L73.3975 3.496ZM77.5835 3.496L77.1094 4.37647L77.1175 4.3808L77.1256 4.38497L77.5835 3.496ZM79.0116 4.868L78.1399 5.3583L78.1458 5.3685L79.0116 4.868ZM76.3795 6.24V7.24H77.3795V6.24H76.3795ZM76.1275 5.652L75.4874 6.42022L75.5003 6.43101L75.5136 6.44135L76.1275 5.652ZM74.5315 6.24L73.5466 6.0672L73.3408 7.24H74.5315V6.24ZM78.5295 6.982C78.5295 7.15326 78.5184 7.31115 78.4976 7.45658L80.4775 7.73942C80.5127 7.49285 80.5295 7.24007 80.5295 6.982H78.5295ZM79.4875 6.598H74.4895V8.598H79.4875V6.598ZM73.4919 7.66633C73.5224 8.11126 73.6379 8.60745 73.9707 9.00572C74.3375 9.44465 74.8442 9.62 75.3435 9.62V7.62C75.3211 7.62 75.3415 7.61646 75.3849 7.63479C75.4064 7.64386 75.4295 7.65664 75.452 7.67335C75.4745 7.69003 75.4923 7.70756 75.5054 7.72328C75.5315 7.75454 75.5305 7.7677 75.5204 7.73673C75.51 7.70448 75.4947 7.63928 75.4872 7.52967L73.4919 7.66633ZM75.3435 9.62C75.6686 9.62 76.0063 9.54369 76.3134 9.34883C76.6193 9.15468 76.8313 8.88323 76.9714 8.59427L75.1717 7.72173C75.1625 7.74077 75.1785 7.70033 75.2417 7.66017C75.2707 7.64177 75.2988 7.63064 75.3209 7.62476C75.3419 7.61915 75.3511 7.62 75.3435 7.62V9.62ZM76.0715 9.158H79.3615V7.158H76.0715V9.158ZM78.381 7.96188C78.3012 8.36082 78.1341 8.71606 77.8714 9.03941L79.4237 10.3006C79.8889 9.72794 80.1979 9.07518 80.3421 8.35412L78.381 7.96188ZM77.8699 9.04128C77.6169 9.3542 77.2872 9.61424 76.8608 9.81657L77.7183 11.6234C78.3933 11.3031 78.9688 10.8631 79.4252 10.2987L77.8699 9.04128ZM76.8675 9.81342C76.4704 9.99828 76.019 10.098 75.4976 10.098V12.098C76.2828 12.098 77.026 11.9457 77.7116 11.6266L76.8675 9.81342ZM75.4976 10.098C74.8563 10.098 74.3206 9.96558 73.8661 9.72454L72.929 11.4915C73.7065 11.9038 74.5708 12.098 75.4976 12.098V10.098ZM73.8716 9.72753C73.4325 9.49107 73.0924 9.15913 72.8386 8.7133L71.1005 9.7027C71.5374 10.4702 72.1493 11.0716 72.9234 11.4885L73.8716 9.72753ZM72.8474 8.72915C72.6042 8.28328 72.4655 7.73466 72.4655 7.052H70.4655C70.4655 8.01201 70.6628 8.90072 71.0917 9.68685L72.8474 8.72915ZM72.4655 7.052C72.4655 6.36888 72.6044 5.82773 72.8443 5.3945L71.0948 4.4255C70.6627 5.2056 70.4655 6.09246 70.4655 7.052H72.4655ZM72.8418 5.399C73.0967 4.94429 73.4365 4.61076 73.8716 4.37647L72.9234 2.61553C72.1452 3.03457 71.533 3.6437 71.0973 4.42099L72.8418 5.399ZM73.8661 4.37946C74.3206 4.13842 74.8563 4.006 75.4976 4.006V2.006C74.5708 2.006 73.7065 2.20024 72.929 2.61254L73.8661 4.37946ZM75.4976 4.006C76.1391 4.006 76.6675 4.13852 77.1094 4.37647L78.0576 2.61553C77.2862 2.20015 76.424 2.006 75.4976 2.006V4.006ZM77.1256 4.38497C77.5697 4.61378 77.901 4.93342 78.14 5.35826L79.8831 4.37774C79.4501 3.60791 78.8294 3.01289 78.0415 2.60703L77.1256 4.38497ZM78.1458 5.3685C78.3887 5.78871 78.5295 6.31443 78.5295 6.982H80.5295C80.5295 6.02557 80.325 5.14195 79.8773 4.3675L78.1458 5.3685ZM77.3795 6.24C77.3795 5.74803 77.2086 5.22597 76.7415 4.86265L75.5136 6.44135C75.4638 6.40261 75.4219 6.34811 75.3974 6.29092C75.3755 6.23974 75.3795 6.21502 75.3795 6.24H77.3795ZM76.7677 4.88378C76.3931 4.57158 75.9459 4.442 75.4976 4.442V6.442C75.5307 6.442 75.5378 6.44651 75.5278 6.44318C75.5231 6.4416 75.5161 6.43877 75.508 6.43428C75.4999 6.42979 75.4929 6.42483 75.4874 6.42022L76.7677 4.88378ZM75.4976 4.442C75.0645 4.442 74.5966 4.54802 74.2062 4.87054C73.8133 5.19505 73.6221 5.63689 73.5466 6.0672L75.5165 6.4128C75.5256 6.36097 75.5351 6.34551 75.5315 6.35255C75.5295 6.35641 75.5244 6.36519 75.5152 6.37674C75.5059 6.38843 75.4941 6.40079 75.4799 6.41246C75.4658 6.42412 75.452 6.43295 75.4401 6.4392C75.4285 6.44535 75.4207 6.44789 75.419 6.44842C75.4164 6.44922 75.4389 6.442 75.4976 6.442V4.442ZM74.5315 7.24H76.3795V5.24H74.5315V7.24Z" fill="black" mask="url(#path-1-outside-1_32638_345164)"/>
</g>
<defs>
<filter id="filter0_d_32638_345164" x="0.579468" y="0.919983" width="79.9501" height="14.86" filterUnits="userSpaceOnUse" color-interpolation-filters="sRGB">
<feFlood flood-opacity="0" result="BackgroundImageFix"/>
<feColorMatrix in="SourceAlpha" type="matrix" values="0 0 0 0 0 0 0 0 0 0 0 0 0 0 0 0 0 0 127 0" result="hardAlpha"/>
<feOffset dx="1" dy="1"/>
<feComposite in2="hardAlpha" operator="out"/>
<feColorMatrix type="matrix" values="0 0 0 0 0 0 0 0 0 0 0 0 0 0 0 0 0 0 1 0"/>
<feBlend mode="normal" in2="BackgroundImageFix" result="effect1_dropShadow_32638_345164"/>
<feBlend mode="normal" in="SourceGraphic" in2="effect1_dropShadow_32638_345164" result="shape"/>
</filter>
</defs>
</svg>
