<svg width="74" height="13" viewBox="0 0 74 13" fill="none" xmlns="http://www.w3.org/2000/svg">
<g filter="url(#filter0_d_32638_345164)">
<mask id="path-1-outside-1_32638_345164" maskUnits="userSpaceOnUse" x="-1" y="-1" width="75" height="14" fill="black">
<rect fill="white" x="-1" y="-1" width="75" height="14"/>
<path d="M3.1589 1.088V6.674C3.1589 7.13133 3.2569 7.49533 3.4529 7.766C3.65823 8.02733 3.9849 8.158 4.4329 8.158C4.8809 8.158 5.21223 8.02733 5.4269 7.766C5.64157 7.49533 5.7489 7.13133 5.7489 6.674V1.088H8.8429V6.674C8.8429 7.61667 8.6469 8.424 8.2549 9.096C7.8629 9.75867 7.32623 10.258 6.6449 10.594C5.96357 10.93 5.2029 11.098 4.3629 11.098C3.5229 11.098 2.77623 10.93 2.1229 10.594C1.4789 10.258 0.974898 9.75867 0.610898 9.096C0.246898 8.43333 0.0648985 7.626 0.0648985 6.674V1.088H3.1589ZM13.2914 0.64V11H10.1834V0.64H13.2914ZM19.6091 8.354V11H18.4331C16.2678 11 15.1851 9.922 15.1851 7.766V5.694H14.2051V3.104H15.1851V1.2H18.2931V3.104H19.5811V5.694H18.2931V7.822C18.2931 8.00867 18.3351 8.144 18.4191 8.228C18.5125 8.312 18.6618 8.354 18.8671 8.354H19.6091ZM23.9008 4.56C24.2181 4.10267 24.6054 3.73867 25.0628 3.468C25.5201 3.188 25.9961 3.048 26.4908 3.048V6.366H25.6088C25.0208 6.366 24.5868 6.46867 24.3068 6.674C24.0361 6.87933 23.9008 7.24333 23.9008 7.766V11H20.7928V3.104H23.9008V4.56ZM26.9079 7.052C26.9079 6.22133 27.0479 5.50267 27.3279 4.896C27.6173 4.28 28.0093 3.81333 28.5039 3.496C28.9986 3.16933 29.5539 3.006 30.1699 3.006C30.6833 3.006 31.1266 3.11333 31.4999 3.328C31.8733 3.53333 32.1579 3.818 32.3539 4.182V3.104H35.4479V11H32.3539V9.922C32.1579 10.286 31.8733 10.5753 31.4999 10.79C31.1266 10.9953 30.6833 11.098 30.1699 11.098C29.5539 11.098 28.9986 10.9393 28.5039 10.622C28.0093 10.2953 27.6173 9.82867 27.3279 9.222C27.0479 8.606 26.9079 7.88267 26.9079 7.052ZM32.3539 7.052C32.3539 6.632 32.2466 6.30533 32.0319 6.072C31.8173 5.83867 31.5419 5.722 31.2059 5.722C30.8699 5.722 30.5946 5.83867 30.3799 6.072C30.1653 6.30533 30.0579 6.632 30.0579 7.052C30.0579 7.472 30.1653 7.79867 30.3799 8.032C30.5946 8.26533 30.8699 8.382 31.2059 8.382C31.5419 8.382 31.8173 8.26533 32.0319 8.032C32.2466 7.79867 32.3539 7.472 32.3539 7.052ZM44.2065 11L42.3445 7.444H42.3305V11H39.2225V1.088H43.8425C44.6451 1.088 45.3311 1.23267 45.9005 1.522C46.4698 1.802 46.8945 2.18933 47.1745 2.684C47.4638 3.16933 47.6085 3.72 47.6085 4.336C47.6085 4.99867 47.4218 5.58667 47.0485 6.1C46.6845 6.61333 46.1571 6.982 45.4665 7.206L47.6225 11H44.2065ZM42.3305 5.372H43.5625C43.8611 5.372 44.0851 5.30667 44.2345 5.176C44.3838 5.036 44.4585 4.82133 44.4585 4.532C44.4585 4.27067 44.3791 4.06533 44.2205 3.916C44.0711 3.76667 43.8518 3.692 43.5625 3.692H42.3305V5.372ZM48.1814 7.052C48.1814 6.22133 48.3214 5.50267 48.6014 4.896C48.8907 4.28 49.2827 3.81333 49.7774 3.496C50.272 3.16933 50.8274 3.006 51.4434 3.006C51.9567 3.006 52.4 3.11333 52.7734 3.328C53.1467 3.53333 53.4314 3.818 53.6274 4.182V3.104H56.7214V11H53.6274V9.922C53.4314 10.286 53.1467 10.5753 52.7734 10.79C52.4 10.9953 51.9567 11.098 51.4434 11.098C50.8274 11.098 50.272 10.9393 49.7774 10.622C49.2827 10.2953 48.8907 9.82867 48.6014 9.222C48.3214 8.606 48.1814 7.88267 48.1814 7.052ZM53.6274 7.052C53.6274 6.632 53.52 6.30533 53.3054 6.072C53.0907 5.83867 52.8154 5.722 52.4794 5.722C52.1434 5.722 51.868 5.83867 51.6534 6.072C51.4387 6.30533 51.3314 6.632 51.3314 7.052C51.3314 7.472 51.4387 7.79867 51.6534 8.032C51.868 8.26533 52.1434 8.382 52.4794 8.382C52.8154 8.382 53.0907 8.26533 53.3054 8.032C53.52 7.79867 53.6274 7.472 53.6274 7.052ZM61.225 4.56C61.5423 4.10267 61.9297 3.73867 62.387 3.468C62.8443 3.188 63.3203 3.048 63.815 3.048V6.366H62.933C62.345 6.366 61.911 6.46867 61.631 6.674C61.3603 6.87933 61.225 7.24333 61.225 7.766V11H58.117V3.104H61.225V4.56ZM72.2961 6.982C72.2961 7.19667 72.2821 7.402 72.2541 7.598H67.2561C67.3028 8.27933 67.5875 8.62 68.1101 8.62C68.4461 8.62 68.6888 8.466 68.8381 8.158H72.1281C72.0161 8.718 71.7781 9.222 71.4141 9.67C71.0595 10.1087 70.6068 10.4587 70.0561 10.72C69.5148 10.972 68.9175 11.098 68.2641 11.098C67.4801 11.098 66.7801 10.9347 66.1641 10.608C65.5575 10.2813 65.0815 9.81467 64.7361 9.208C64.4001 8.592 64.2321 7.87333 64.2321 7.052C64.2321 6.23067 64.4001 5.51667 64.7361 4.91C65.0815 4.294 65.5575 3.82267 66.1641 3.496C66.7801 3.16933 67.4801 3.006 68.2641 3.006C69.0481 3.006 69.7435 3.16933 70.3501 3.496C70.9661 3.81333 71.4421 4.27067 71.7781 4.868C72.1235 5.46533 72.2961 6.17 72.2961 6.982ZM69.1461 6.24C69.1461 5.97867 69.0621 5.78267 68.8941 5.652C68.7261 5.512 68.5161 5.442 68.2641 5.442C67.7135 5.442 67.3915 5.708 67.2981 6.24H69.1461Z"/>
</mask>
<path d="M3.1589 1.088V6.674C3.1589 7.13133 3.2569 7.49533 3.4529 7.766C3.65823 8.02733 3.9849 8.158 4.4329 8.158C4.8809 8.158 5.21223 8.02733 5.4269 7.766C5.64157 7.49533 5.7489 7.13133 5.7489 6.674V1.088H8.8429V6.674C8.8429 7.61667 8.6469 8.424 8.2549 9.096C7.8629 9.75867 7.32623 10.258 6.6449 10.594C5.96357 10.93 5.2029 11.098 4.3629 11.098C3.5229 11.098 2.77623 10.93 2.1229 10.594C1.4789 10.258 0.974898 9.75867 0.610898 9.096C0.246898 8.43333 0.0648985 7.626 0.0648985 6.674V1.088H3.1589ZM13.2914 0.64V11H10.1834V0.64H13.2914ZM19.6091 8.354V11H18.4331C16.2678 11 15.1851 9.922 15.1851 7.766V5.694H14.2051V3.104H15.1851V1.2H18.2931V3.104H19.5811V5.694H18.2931V7.822C18.2931 8.00867 18.3351 8.144 18.4191 8.228C18.5125 8.312 18.6618 8.354 18.8671 8.354H19.6091ZM23.9008 4.56C24.2181 4.10267 24.6054 3.73867 25.0628 3.468C25.5201 3.188 25.9961 3.048 26.4908 3.048V6.366H25.6088C25.0208 6.366 24.5868 6.46867 24.3068 6.674C24.0361 6.87933 23.9008 7.24333 23.9008 7.766V11H20.7928V3.104H23.9008V4.56ZM26.9079 7.052C26.9079 6.22133 27.0479 5.50267 27.3279 4.896C27.6173 4.28 28.0093 3.81333 28.5039 3.496C28.9986 3.16933 29.5539 3.006 30.1699 3.006C30.6833 3.006 31.1266 3.11333 31.4999 3.328C31.8733 3.53333 32.1579 3.818 32.3539 4.182V3.104H35.4479V11H32.3539V9.922C32.1579 10.286 31.8733 10.5753 31.4999 10.79C31.1266 10.9953 30.6833 11.098 30.1699 11.098C29.5539 11.098 28.9986 10.9393 28.5039 10.622C28.0093 10.2953 27.6173 9.82867 27.3279 9.222C27.0479 8.606 26.9079 7.88267 26.9079 7.052ZM32.3539 7.052C32.3539 6.632 32.2466 6.30533 32.0319 6.072C31.8173 5.83867 31.5419 5.722 31.2059 5.722C30.8699 5.722 30.5946 5.83867 30.3799 6.072C30.1653 6.30533 30.0579 6.632 30.0579 7.052C30.0579 7.472 30.1653 7.79867 30.3799 8.032C30.5946 8.26533 30.8699 8.382 31.2059 8.382C31.5419 8.382 31.8173 8.26533 32.0319 8.032C32.2466 7.79867 32.3539 7.472 32.3539 7.052ZM44.2065 11L42.3445 7.444H42.3305V11H39.2225V1.088H43.8425C44.6451 1.088 45.3311 1.23267 45.9005 1.522C46.4698 1.802 46.8945 2.18933 47.1745 2.684C47.4638 3.16933 47.6085 3.72 47.6085 4.336C47.6085 4.99867 47.4218 5.58667 47.0485 6.1C46.6845 6.61333 46.1571 6.982 45.4665 7.206L47.6225 11H44.2065ZM42.3305 5.372H43.5625C43.8611 5.372 44.0851 5.30667 44.2345 5.176C44.3838 5.036 44.4585 4.82133 44.4585 4.532C44.4585 4.27067 44.3791 4.06533 44.2205 3.916C44.0711 3.76667 43.8518 3.692 43.5625 3.692H42.3305V5.372ZM48.1814 7.052C48.1814 6.22133 48.3214 5.50267 48.6014 4.896C48.8907 4.28 49.2827 3.81333 49.7774 3.496C50.272 3.16933 50.8274 3.006 51.4434 3.006C51.9567 3.006 52.4 3.11333 52.7734 3.328C53.1467 3.53333 53.4314 3.818 53.6274 4.182V3.104H56.7214V11H53.6274V9.922C53.4314 10.286 53.1467 10.5753 52.7734 10.79C52.4 10.9953 51.9567 11.098 51.4434 11.098C50.8274 11.098 50.272 10.9393 49.7774 10.622C49.2827 10.2953 48.8907 9.82867 48.6014 9.222C48.3214 8.606 48.1814 7.88267 48.1814 7.052ZM53.6274 7.052C53.6274 6.632 53.52 6.30533 53.3054 6.072C53.0907 5.83867 52.8154 5.722 52.4794 5.722C52.1434 5.722 51.868 5.83867 51.6534 6.072C51.4387 6.30533 51.3314 6.632 51.3314 7.052C51.3314 7.472 51.4387 7.79867 51.6534 8.032C51.868 8.26533 52.1434 8.382 52.4794 8.382C52.8154 8.382 53.0907 8.26533 53.3054 8.032C53.52 7.79867 53.6274 7.472 53.6274 7.052ZM61.225 4.56C61.5423 4.10267 61.9297 3.73867 62.387 3.468C62.8443 3.188 63.3203 3.048 63.815 3.048V6.366H62.933C62.345 6.366 61.911 6.46867 61.631 6.674C61.3603 6.87933 61.225 7.24333 61.225 7.766V11H58.117V3.104H61.225V4.56ZM72.2961 6.982C72.2961 7.19667 72.2821 7.402 72.2541 7.598H67.2561C67.3028 8.27933 67.5875 8.62 68.1101 8.62C68.4461 8.62 68.6888 8.466 68.8381 8.158H72.1281C72.0161 8.718 71.7781 9.222 71.4141 9.67C71.0595 10.1087 70.6068 10.4587 70.0561 10.72C69.5148 10.972 68.9175 11.098 68.2641 11.098C67.4801 11.098 66.7801 10.9347 66.1641 10.608C65.5575 10.2813 65.0815 9.81467 64.7361 9.208C64.4001 8.592 64.2321 7.87333 64.2321 7.052C64.2321 6.23067 64.4001 5.51667 64.7361 4.91C65.0815 4.294 65.5575 3.82267 66.1641 3.496C66.7801 3.16933 67.4801 3.006 68.2641 3.006C69.0481 3.006 69.7435 3.16933 70.3501 3.496C70.9661 3.81333 71.4421 4.27067 71.7781 4.868C72.1235 5.46533 72.2961 6.17 72.2961 6.982ZM69.1461 6.24C69.1461 5.97867 69.0621 5.78267 68.8941 5.652C68.7261 5.512 68.5161 5.442 68.2641 5.442C67.7135 5.442 67.3915 5.708 67.2981 6.24H69.1461Z" fill="white"/>
<path d="M3.1589 1.088H4.1589V0.0879998H3.1589V1.088ZM3.4529 7.766L2.64296 8.35251L2.65446 8.3684L2.66658 8.38382L3.4529 7.766ZM5.4269 7.766L6.19963 8.40074L6.20507 8.39411L6.2104 8.38739L5.4269 7.766ZM5.7489 1.088V0.0879998H4.7489V1.088H5.7489ZM8.8429 1.088H9.8429V0.0879998H8.8429V1.088ZM8.2549 9.096L9.1156 9.60515L9.11868 9.59987L8.2549 9.096ZM6.6449 10.594L7.08719 11.4909L6.6449 10.594ZM2.1229 10.594L1.66032 11.4806L1.66555 11.4833L2.1229 10.594ZM0.610898 9.096L-0.265578 9.57745H-0.265578L0.610898 9.096ZM0.0648985 1.088V0.0879998H-0.935102V1.088H0.0648985ZM2.1589 1.088V6.674H4.1589V1.088H2.1589ZM2.1589 6.674C2.1589 7.26591 2.28524 7.85852 2.64296 8.35251L4.26284 7.17949C4.22856 7.13215 4.1589 6.99676 4.1589 6.674H2.1589ZM2.66658 8.38382C3.12243 8.964 3.79243 9.158 4.4329 9.158V7.158C4.3028 7.158 4.24107 7.13864 4.22329 7.13152C4.21541 7.12837 4.21668 7.1279 4.22285 7.13244C4.22929 7.13719 4.23523 7.14311 4.23922 7.14818L2.66658 8.38382ZM4.4329 9.158C5.07622 9.158 5.73765 8.96315 6.19963 8.40074L4.65417 7.13126C4.66058 7.12345 4.66669 7.12335 4.65053 7.12973C4.62752 7.1388 4.56245 7.158 4.4329 7.158V9.158ZM6.2104 8.38739C6.60485 7.89004 6.7489 7.28372 6.7489 6.674H4.7489C4.7489 6.97895 4.67828 7.10063 4.6434 7.14461L6.2104 8.38739ZM6.7489 6.674V1.088H4.7489V6.674H6.7489ZM5.7489 2.088H8.8429V0.0879998H5.7489V2.088ZM7.8429 1.088V6.674H9.8429V1.088H7.8429ZM7.8429 6.674C7.8429 7.47705 7.67677 8.10245 7.39112 8.59213L9.11868 9.59987C9.61703 8.74555 9.8429 7.75628 9.8429 6.674H7.8429ZM7.39421 8.58686C7.09966 9.0848 6.70731 9.44823 6.20261 9.69713L7.08719 11.4909C7.94516 11.0678 8.62614 10.4325 9.11558 9.60514L7.39421 8.58686ZM6.20261 9.69713C5.67286 9.95837 5.06594 10.098 4.3629 10.098V12.098C5.33986 12.098 6.25427 11.9016 7.08719 11.4909L6.20261 9.69713ZM4.3629 10.098C3.65903 10.098 3.07302 9.95814 2.58025 9.70471L1.66555 11.4833C2.47945 11.9019 3.38677 12.098 4.3629 12.098V10.098ZM2.58546 9.70742C2.12378 9.46654 1.76049 9.11177 1.48737 8.61456L-0.265578 9.57745C0.189304 10.4056 0.834013 11.0495 1.66033 11.4806L2.58546 9.70742ZM1.48738 8.61456C1.22279 8.13288 1.0649 7.5005 1.0649 6.674H-0.935102C-0.935102 7.7515 -0.728994 8.73379 -0.265578 9.57745L1.48738 8.61456ZM1.0649 6.674V1.088H-0.935102V6.674H1.0649ZM0.0648985 2.088H3.1589V0.0879998H0.0648985V2.088ZM13.2914 0.64H14.2914V-0.36H13.2914V0.64ZM13.2914 11V12H14.2914V11H13.2914ZM10.1834 11H9.1834V12H10.1834V11ZM10.1834 0.64V-0.36H9.1834V0.64H10.1834ZM12.2914 0.64V11H14.2914V0.64H12.2914ZM13.2914 10H10.1834V12H13.2914V10ZM11.1834 11V0.64H9.1834V11H11.1834ZM10.1834 1.64H13.2914V-0.36H10.1834V1.64ZM19.6091 8.354H20.6091V7.354H19.6091V8.354ZM19.6091 11V12H20.6091V11H19.6091ZM15.1851 5.694H16.1851V4.694H15.1851V5.694ZM14.2051 5.694H13.2051V6.694H14.2051V5.694ZM14.2051 3.104V2.104H13.2051V3.104H14.2051ZM15.1851 3.104V4.104H16.1851V3.104H15.1851ZM15.1851 1.2V0.199999H14.1851V1.2H15.1851ZM18.2931 1.2H19.2931V0.199999H18.2931V1.2ZM18.2931 3.104H17.2931V4.104H18.2931V3.104ZM19.5811 3.104H20.5811V2.104H19.5811V3.104ZM19.5811 5.694V6.694H20.5811V5.694H19.5811ZM18.2931 5.694V4.694H17.2931V5.694H18.2931ZM18.4191 8.228L17.712 8.93511L17.7306 8.9537L17.7502 8.97129L18.4191 8.228ZM18.6091 8.354V11H20.6091V8.354H18.6091ZM19.6091 10H18.4331V12H19.6091V10ZM18.4331 10C17.5035 10 16.9902 9.76913 16.7027 9.48287C16.416 9.19739 16.1851 8.68876 16.1851 7.766H14.1851C14.1851 8.99924 14.4956 10.1076 15.2915 10.9001C16.0867 11.6919 17.1974 12 18.4331 12V10ZM16.1851 7.766V5.694H14.1851V7.766H16.1851ZM15.1851 4.694H14.2051V6.694H15.1851V4.694ZM15.2051 5.694V3.104H13.2051V5.694H15.2051ZM14.2051 4.104H15.1851V2.104H14.2051V4.104ZM16.1851 3.104V1.2H14.1851V3.104H16.1851ZM15.1851 2.2H18.2931V0.199999H15.1851V2.2ZM17.2931 1.2V3.104H19.2931V1.2H17.2931ZM18.2931 4.104H19.5811V2.104H18.2931V4.104ZM18.5811 3.104V5.694H20.5811V3.104H18.5811ZM19.5811 4.694H18.2931V6.694H19.5811V4.694ZM17.2931 5.694V7.822H19.2931V5.694H17.2931ZM17.2931 7.822C17.2931 8.12695 17.3573 8.58041 17.712 8.93511L19.1262 7.52089C19.2191 7.61382 19.2618 7.70952 19.2797 7.7671C19.2962 7.82032 19.2931 7.84474 19.2931 7.822H17.2931ZM17.7502 8.97129C18.1131 9.29797 18.5621 9.354 18.8671 9.354V7.354C18.8283 7.354 18.8353 7.34955 18.8719 7.35985C18.9109 7.37083 18.9969 7.40266 19.0881 7.48471L17.7502 8.97129ZM18.8671 9.354H19.6091V7.354H18.8671V9.354ZM23.9008 4.56H22.9008V7.75531L24.7224 5.13008L23.9008 4.56ZM25.0628 3.468L25.5721 4.32858L25.5785 4.32476L25.5849 4.32085L25.0628 3.468ZM26.4908 3.048H27.4908V2.048H26.4908V3.048ZM26.4908 6.366V7.366H27.4908V6.366H26.4908ZM24.3068 6.674L23.7154 5.86759L23.7089 5.8724L23.7024 5.87731L24.3068 6.674ZM23.9008 11V12H24.9008V11H23.9008ZM20.7928 11H19.7928V12H20.7928V11ZM20.7928 3.104V2.104H19.7928V3.104H20.7928ZM23.9008 3.104H24.9008V2.104H23.9008V3.104ZM24.7224 5.13008C24.9617 4.78517 25.2444 4.52252 25.5721 4.32858L24.5535 2.60742C23.9665 2.95482 23.4745 3.42016 23.0792 3.98992L24.7224 5.13008ZM25.5849 4.32085C25.8988 4.12869 26.1958 4.048 26.4908 4.048V2.048C25.7964 2.048 25.1414 2.24731 24.5406 2.61515L25.5849 4.32085ZM25.4908 3.048V6.366H27.4908V3.048H25.4908ZM26.4908 5.366H25.6088V7.366H26.4908V5.366ZM25.6088 5.366C24.9411 5.366 24.2497 5.47576 23.7154 5.86759L24.8981 7.4804C24.9238 7.46158 25.1005 7.366 25.6088 7.366V5.366ZM23.7024 5.87731C23.0714 6.35599 22.9008 7.10294 22.9008 7.766H24.9008C24.9008 7.58507 24.925 7.48879 24.9396 7.44949C24.9508 7.41937 24.9479 7.44285 24.9112 7.47069L23.7024 5.87731ZM22.9008 7.766V11H24.9008V7.766H22.9008ZM23.9008 10H20.7928V12H23.9008V10ZM21.7928 11V3.104H19.7928V11H21.7928ZM20.7928 4.104H23.9008V2.104H20.7928V4.104ZM22.9008 3.104V4.56H24.9008V3.104H22.9008ZM27.3279 4.896L26.4228 4.47085L26.42 4.47694L27.3279 4.896ZM28.5039 3.496L29.0439 4.33777L29.055 4.33046L28.5039 3.496ZM31.4999 3.328L31.0015 4.19491L31.0097 4.19964L31.018 4.20422L31.4999 3.328ZM32.3539 4.182L31.4735 4.6561L33.3539 4.182H32.3539ZM32.3539 3.104V2.104H31.3539V3.104H32.3539ZM35.4479 3.104H36.4479V2.104H35.4479V3.104ZM35.4479 11V12H36.4479V11H35.4479ZM32.3539 11H31.3539V12H32.3539V11ZM32.3539 9.922H33.3539L31.4735 9.4479L32.3539 9.922ZM31.4999 10.79L31.9818 11.6662L31.9902 11.6616L31.9984 11.6569L31.4999 10.79ZM28.5039 10.622L27.9528 11.4565L27.964 11.4637L28.5039 10.622ZM27.3279 9.222L26.4176 9.6358L26.4214 9.64417L26.4253 9.65247L27.3279 9.222ZM32.0319 6.072L32.7679 5.39494V5.39494L32.0319 6.072ZM30.3799 6.072L29.644 5.39494V5.39494L30.3799 6.072ZM27.9079 7.052C27.9079 6.33177 28.0294 5.76243 28.2359 5.31506L26.42 4.47694C26.0665 5.2429 25.9079 6.11089 25.9079 7.052H27.9079ZM28.2331 5.32114C28.4552 4.84813 28.7315 4.5381 29.0439 4.33769L27.964 2.65431C27.287 3.08856 26.7793 3.71187 26.4228 4.47086L28.2331 5.32114ZM29.055 4.33046C29.3795 4.11615 29.7418 4.006 30.1699 4.006V2.006C29.3661 2.006 28.6177 2.22251 27.9529 2.66154L29.055 4.33046ZM30.1699 4.006C30.542 4.006 30.8065 4.08282 31.0015 4.19491L31.9984 2.46109C31.4467 2.14385 30.8245 2.006 30.1699 2.006V4.006ZM31.018 4.20422C31.228 4.31971 31.3717 4.46714 31.4735 4.6561L33.2344 3.7079C32.9441 3.16886 32.5185 2.74696 31.9818 2.45178L31.018 4.20422ZM33.3539 4.182V3.104H31.3539V4.182H33.3539ZM32.3539 4.104H35.4479V2.104H32.3539V4.104ZM34.4479 3.104V11H36.4479V3.104H34.4479ZM35.4479 10H32.3539V12H35.4479V10ZM33.3539 11V9.922H31.3539V11H33.3539ZM31.4735 9.4479C31.3695 9.64093 31.2204 9.79718 31.0015 9.92309L31.9984 11.6569C32.5261 11.3535 32.9463 10.9311 33.2344 10.3961L31.4735 9.4479ZM31.018 9.91378C30.8198 10.0228 30.5491 10.098 30.1699 10.098V12.098C30.8174 12.098 31.4334 11.9678 31.9818 11.6662L31.018 9.91378ZM30.1699 10.098C29.7357 10.098 29.3695 9.98917 29.0439 9.78031L27.964 11.4637C28.6277 11.8895 29.3722 12.098 30.1699 12.098V10.098ZM29.055 9.78754C28.7315 9.57394 28.4523 9.25653 28.2305 8.79153L26.4253 9.65247C26.7822 10.4008 27.287 11.0167 27.9529 11.4565L29.055 9.78754ZM28.2383 8.8082C28.0292 8.34823 27.9079 7.77165 27.9079 7.052H25.9079C25.9079 7.99369 26.0666 8.86377 26.4176 9.6358L28.2383 8.8082ZM33.3539 7.052C33.3539 6.46446 33.2014 5.86615 32.7679 5.39494L31.296 6.74906C31.2988 6.75212 31.3104 6.76473 31.3234 6.80415C31.3376 6.84729 31.3539 6.92542 31.3539 7.052H33.3539ZM32.7679 5.39494C32.3515 4.94235 31.8028 4.722 31.2059 4.722V6.722C31.232 6.722 31.2491 6.72425 31.2591 6.72615C31.2688 6.728 31.2732 6.72981 31.2743 6.73025C31.2752 6.73065 31.2762 6.73113 31.2783 6.73261C31.2805 6.73419 31.2866 6.73882 31.296 6.74906L32.7679 5.39494ZM31.2059 4.722C30.6091 4.722 30.0604 4.94235 29.644 5.39494L31.1159 6.74906C31.1253 6.73882 31.1313 6.73419 31.1335 6.73261C31.1356 6.73113 31.1366 6.73065 31.1376 6.73025C31.1386 6.72981 31.1431 6.728 31.1528 6.72615C31.1627 6.72425 31.1799 6.722 31.2059 6.722V4.722ZM29.644 5.39494C29.2105 5.86615 29.0579 6.46446 29.0579 7.052H31.0579C31.0579 6.92542 31.0743 6.84729 31.0885 6.80415C31.1014 6.76473 31.113 6.75212 31.1159 6.74906L29.644 5.39494ZM29.0579 7.052C29.0579 7.63954 29.2105 8.23785 29.644 8.70906L31.1159 7.35494C31.113 7.35188 31.1014 7.33927 31.0885 7.29985C31.0743 7.25671 31.0579 7.17858 31.0579 7.052H29.0579ZM29.644 8.70906C30.0604 9.16165 30.6091 9.382 31.2059 9.382V7.382C31.1799 7.382 31.1627 7.37975 31.1528 7.37785C31.1431 7.376 31.1386 7.37419 31.1376 7.37375C31.1366 7.37335 31.1356 7.37287 31.1335 7.37139C31.1313 7.3698 31.1253 7.36518 31.1159 7.35494L29.644 8.70906ZM31.2059 9.382C31.8028 9.382 32.3515 9.16165 32.7679 8.70906L31.296 7.35494C31.2866 7.36518 31.2805 7.36981 31.2783 7.37139C31.2762 7.37287 31.2752 7.37335 31.2743 7.37375C31.2732 7.37419 31.2688 7.376 31.2591 7.37785C31.2491 7.37975 31.232 7.382 31.2059 7.382V9.382ZM32.7679 8.70906C33.2014 8.23785 33.3539 7.63954 33.3539 7.052H31.3539C31.3539 7.17858 31.3376 7.25671 31.3234 7.29985C31.3104 7.33927 31.2988 7.35188 31.296 7.35494L32.7679 8.70906ZM44.2065 11L43.3206 11.4639L43.6013 12H44.2065V11ZM42.3445 7.444L43.2304 6.98012L42.9496 6.444H42.3445V7.444ZM42.3305 7.444V6.444H41.3305V7.444H42.3305ZM42.3305 11V12H43.3305V11H42.3305ZM39.2225 11H38.2225V12H39.2225V11ZM39.2225 1.088V0.0879998H38.2225V1.088H39.2225ZM45.9005 1.522L45.4474 2.41356L45.4591 2.41935L45.9005 1.522ZM47.1745 2.684L46.3042 3.1766L46.3097 3.18639L46.3155 3.19606L47.1745 2.684ZM47.0485 6.1L46.2397 5.51179L46.2327 5.52157L47.0485 6.1ZM45.4665 7.206L45.158 6.25478L43.9908 6.6333L44.597 7.70006L45.4665 7.206ZM47.6225 11V12H49.3409L48.4919 10.5059L47.6225 11ZM42.3305 5.372H41.3305V6.372H42.3305V5.372ZM44.2345 5.176L44.893 5.92858L44.9059 5.91728L44.9184 5.90554L44.2345 5.176ZM44.2205 3.916L43.5134 4.62311L43.5241 4.63382L43.5351 4.6442L44.2205 3.916ZM42.3305 3.692V2.692H41.3305V3.692H42.3305ZM45.0924 10.5361L43.2304 6.98012L41.4586 7.90788L43.3206 11.4639L45.0924 10.5361ZM42.3445 6.444H42.3305V8.444H42.3445V6.444ZM41.3305 7.444V11H43.3305V7.444H41.3305ZM42.3305 10H39.2225V12H42.3305V10ZM40.2225 11V1.088H38.2225V11H40.2225ZM39.2225 2.088H43.8425V0.0879998H39.2225V2.088ZM43.8425 2.088C44.5272 2.088 45.0499 2.21145 45.4474 2.41348L46.3535 0.630514C45.6124 0.253884 44.7631 0.0879998 43.8425 0.0879998V2.088ZM45.4591 2.41935C45.8699 2.62134 46.1346 2.87691 46.3042 3.1766L48.0447 2.1914C47.6544 1.50176 47.0697 0.98266 46.3418 0.62465L45.4591 2.41935ZM46.3155 3.19606C46.5043 3.51273 46.6085 3.88349 46.6085 4.336H48.6085C48.6085 3.55651 48.4233 2.82594 48.0334 2.17193L46.3155 3.19606ZM46.6085 4.336C46.6085 4.79725 46.483 5.17727 46.2397 5.51183L47.8572 6.68817C48.3605 5.99607 48.6085 5.20009 48.6085 4.336H46.6085ZM46.2327 5.52157C46.0118 5.83312 45.6766 6.08657 45.158 6.25478L45.775 8.15722C46.6377 7.87743 47.3571 7.39355 47.8642 6.67843L46.2327 5.52157ZM44.597 7.70006L46.753 11.4941L48.4919 10.5059L46.3359 6.71194L44.597 7.70006ZM47.6225 10H44.2065V12H47.6225V10ZM42.3305 6.372H43.5625V4.372H42.3305V6.372ZM43.5625 6.372C43.9849 6.372 44.4885 6.28247 44.893 5.92858L43.576 4.42342C43.6013 4.40124 43.6251 4.3861 43.6436 4.37635C43.6618 4.36681 43.6732 4.36336 43.6745 4.363C43.6755 4.36269 43.6676 4.36508 43.6484 4.36747C43.6293 4.36987 43.6011 4.372 43.5625 4.372V6.372ZM44.9184 5.90554C45.3411 5.50922 45.4585 4.98099 45.4585 4.532H43.4585C43.4585 4.59391 43.4501 4.60413 43.458 4.58148C43.4623 4.56906 43.471 4.54829 43.487 4.52301C43.5032 4.49735 43.5244 4.47095 43.5505 4.44646L44.9184 5.90554ZM45.4585 4.532C45.4585 4.05436 45.3048 3.56331 44.9058 3.1878L43.5351 4.6442C43.5213 4.6312 43.5071 4.61489 43.4942 4.59572C43.4814 4.57658 43.4722 4.55814 43.4662 4.5424C43.4539 4.51078 43.4585 4.50201 43.4585 4.532H45.4585ZM44.9276 3.20889C44.53 2.8113 44.0166 2.692 43.5625 2.692V4.692C43.6236 4.692 43.6379 4.70018 43.6217 4.69465C43.6128 4.69161 43.5965 4.68504 43.5761 4.67262C43.5553 4.66002 43.5337 4.64347 43.5134 4.62311L44.9276 3.20889ZM43.5625 2.692H42.3305V4.692H43.5625V2.692ZM41.3305 3.692V5.372H43.3305V3.692H41.3305ZM48.6014 4.896L47.6962 4.47085L47.6934 4.47694L48.6014 4.896ZM49.7774 3.496L50.3174 4.33777L50.3284 4.33046L49.7774 3.496ZM52.7734 3.328L52.2749 4.19491L52.2831 4.19964L52.2914 4.20422L52.7734 3.328ZM53.6274 4.182L52.7469 4.6561L54.6274 4.182H53.6274ZM53.6274 3.104V2.104H52.6274V3.104H53.6274ZM56.7214 3.104H57.7214V2.104H56.7214V3.104ZM56.7214 11V12H57.7214V11H56.7214ZM53.6274 11H52.6274V12H53.6274V11ZM53.6274 9.922H54.6274L52.7469 9.4479L53.6274 9.922ZM52.7734 10.79L53.2553 11.6662L53.2636 11.6616L53.2718 11.6569L52.7734 10.79ZM49.7774 10.622L49.2263 11.4565L49.2374 11.4637L49.7774 10.622ZM48.6014 9.222L47.691 9.6358L47.6948 9.64417L47.6988 9.65247L48.6014 9.222ZM53.3054 6.072L54.0413 5.39494V5.39494L53.3054 6.072ZM51.6534 6.072L50.9174 5.39494L50.9174 5.39494L51.6534 6.072ZM49.1814 7.052C49.1814 6.33177 49.3028 5.76243 49.5093 5.31506L47.6934 4.47694C47.3399 5.2429 47.1814 6.11089 47.1814 7.052H49.1814ZM49.5065 5.32114C49.7287 4.84813 50.0049 4.5381 50.3173 4.33769L49.2374 2.65431C48.5605 3.08856 48.0527 3.71187 47.6962 4.47086L49.5065 5.32114ZM50.3284 4.33046C50.653 4.11615 51.0152 4.006 51.4434 4.006V2.006C50.6395 2.006 49.8911 2.22251 49.2263 2.66154L50.3284 4.33046ZM51.4434 4.006C51.8154 4.006 52.08 4.08282 52.2749 4.19491L53.2718 2.46109C52.7201 2.14385 52.098 2.006 51.4434 2.006V4.006ZM52.2914 4.20422C52.5014 4.31971 52.6451 4.46714 52.7469 4.6561L54.5078 3.7079C54.2176 3.16886 53.792 2.74696 53.2553 2.45178L52.2914 4.20422ZM54.6274 4.182V3.104H52.6274V4.182H54.6274ZM53.6274 4.104H56.7214V2.104H53.6274V4.104ZM55.7214 3.104V11H57.7214V3.104H55.7214ZM56.7214 10H53.6274V12H56.7214V10ZM54.6274 11V9.922H52.6274V11H54.6274ZM52.7469 9.4479C52.643 9.64093 52.4939 9.79718 52.2749 9.92309L53.2718 11.6569C53.7995 11.3535 54.2198 10.9311 54.5078 10.3961L52.7469 9.4479ZM52.2915 9.91378C52.0932 10.0228 51.8226 10.098 51.4434 10.098V12.098C52.0908 12.098 52.7069 11.9678 53.2553 11.6662L52.2915 9.91378ZM51.4434 10.098C51.0091 10.098 50.6429 9.98917 50.3173 9.78031L49.2374 11.4637C49.9012 11.8895 50.6456 12.098 51.4434 12.098V10.098ZM50.3284 9.78754C50.005 9.57394 49.7257 9.25653 49.504 8.79153L47.6988 9.65247C48.0557 10.4008 48.5604 11.0167 49.2263 11.4565L50.3284 9.78754ZM49.5117 8.8082C49.3027 8.34823 49.1814 7.77165 49.1814 7.052H47.1814C47.1814 7.99369 47.3401 8.86377 47.691 9.6358L49.5117 8.8082ZM54.6274 7.052C54.6274 6.46446 54.4748 5.86615 54.0413 5.39494L52.5694 6.74906C52.5723 6.75212 52.5839 6.76473 52.5968 6.80415C52.611 6.84729 52.6274 6.92542 52.6274 7.052H54.6274ZM54.0413 5.39494C53.6249 4.94235 53.0762 4.722 52.4794 4.722V6.722C52.5054 6.722 52.5226 6.72425 52.5325 6.72615C52.5422 6.728 52.5467 6.72981 52.5477 6.73025C52.5487 6.73065 52.5497 6.73113 52.5518 6.73261C52.554 6.73419 52.56 6.73882 52.5694 6.74906L54.0413 5.39494ZM52.4794 4.722C51.8825 4.722 51.3338 4.94235 50.9174 5.39494L52.3893 6.74906C52.3987 6.73882 52.4048 6.73419 52.407 6.73261C52.4091 6.73113 52.4101 6.73065 52.411 6.73025C52.4121 6.72981 52.4165 6.728 52.4262 6.72615C52.4361 6.72425 52.4533 6.722 52.4794 6.722V4.722ZM50.9174 5.39494C50.4839 5.86615 50.3314 6.46446 50.3314 7.052H52.3314C52.3314 6.92542 52.3477 6.84729 52.3619 6.80415C52.3749 6.76473 52.3865 6.75212 52.3893 6.74906L50.9174 5.39494ZM50.3314 7.052C50.3314 7.63954 50.4839 8.23785 50.9174 8.70906L52.3893 7.35494C52.3865 7.35188 52.3749 7.33927 52.3619 7.29985C52.3477 7.25671 52.3314 7.17858 52.3314 7.052H50.3314ZM50.9174 8.70906C51.3338 9.16165 51.8825 9.382 52.4794 9.382V7.382C52.4533 7.382 52.4361 7.37975 52.4262 7.37785C52.4165 7.376 52.4121 7.37419 52.411 7.37375C52.4101 7.37335 52.4091 7.37287 52.407 7.37139C52.4048 7.3698 52.3987 7.36518 52.3893 7.35494L50.9174 8.70906ZM52.4794 9.382C53.0762 9.382 53.6249 9.16165 54.0413 8.70906L52.5694 7.35494C52.56 7.36518 52.554 7.36981 52.5518 7.37139C52.5497 7.37287 52.5487 7.37335 52.5477 7.37375C52.5467 7.37419 52.5422 7.376 52.5325 7.37785C52.5226 7.37975 52.5054 7.382 52.4794 7.382V9.382ZM54.0413 8.70906C54.4748 8.23785 54.6274 7.63954 54.6274 7.052H52.6274C52.6274 7.17858 52.611 7.25671 52.5968 7.29985C52.5839 7.33927 52.5723 7.35188 52.5694 7.35494L54.0413 8.70906ZM61.225 4.56H60.225V7.75531L62.0466 5.13008L61.225 4.56ZM62.387 3.468L62.8963 4.32858L62.9028 4.32476L62.9091 4.32085L62.387 3.468ZM63.815 3.048H64.815V2.048H63.815V3.048ZM63.815 6.366V7.366H64.815V6.366H63.815ZM61.631 6.674L61.0396 5.86759L61.0331 5.8724L61.0266 5.87731L61.631 6.674ZM61.225 11V12H62.225V11H61.225ZM58.117 11H57.117V12H58.117V11ZM58.117 3.104V2.104H57.117V3.104H58.117ZM61.225 3.104H62.225V2.104H61.225V3.104ZM62.0466 5.13008C62.2859 4.78517 62.5686 4.52252 62.8963 4.32858L61.8777 2.60742C61.2907 2.95482 60.7987 3.42016 60.4034 3.98992L62.0466 5.13008ZM62.9091 4.32085C63.223 4.12869 63.52 4.048 63.815 4.048V2.048C63.1206 2.048 62.4656 2.24731 61.8648 2.61515L62.9091 4.32085ZM62.815 3.048V6.366H64.815V3.048H62.815ZM63.815 5.366H62.933V7.366H63.815V5.366ZM62.933 5.366C62.2653 5.366 61.574 5.47576 61.0396 5.86759L62.2224 7.4804C62.248 7.46158 62.4247 7.366 62.933 7.366V5.366ZM61.0266 5.87731C60.3956 6.35599 60.225 7.10294 60.225 7.766H62.225C62.225 7.58507 62.2492 7.48879 62.2638 7.44949C62.275 7.41937 62.2721 7.44285 62.2354 7.47069L61.0266 5.87731ZM60.225 7.766V11H62.225V7.766H60.225ZM61.225 10H58.117V12H61.225V10ZM59.117 11V3.104H57.117V11H59.117ZM58.117 4.104H61.225V2.104H58.117V4.104ZM60.225 3.104V4.56H62.225V3.104H60.225ZM72.2542 7.598V8.598H73.1214L73.2441 7.73942L72.2542 7.598ZM67.2561 7.598V6.598H66.1853L66.2585 7.66633L67.2561 7.598ZM68.8382 8.158V7.158H68.2117L67.9383 7.72173L68.8382 8.158ZM72.1282 8.158L73.1087 8.35412L73.348 7.158H72.1282V8.158ZM71.4141 9.67L70.638 9.03941L70.6365 9.04128L71.4141 9.67ZM70.0562 10.72L70.4782 11.6266L70.4849 11.6234L70.0562 10.72ZM66.1641 10.608L65.69 11.4885L65.6956 11.4915L66.1641 10.608ZM64.7361 9.208L63.8583 9.68685L63.8626 9.69482L63.8671 9.7027L64.7361 9.208ZM64.7361 4.91L63.8639 4.42099L63.8614 4.4255L64.7361 4.91ZM66.1641 3.496L65.6956 2.61252L65.69 2.61553L66.1641 3.496ZM70.3502 3.496L69.876 4.37647L69.8841 4.3808L69.8922 4.38497L70.3502 3.496ZM71.7782 4.868L70.9065 5.3583L70.9124 5.3685L71.7782 4.868ZM69.1461 6.24V7.24H70.1461V6.24H69.1461ZM68.8941 5.652L68.254 6.42022L68.2669 6.43101L68.2802 6.44135L68.8941 5.652ZM67.2981 6.24L66.3132 6.0672L66.1074 7.24H67.2981V6.24ZM71.2962 6.982C71.2962 7.15326 71.285 7.31115 71.2642 7.45658L73.2441 7.73942C73.2793 7.49285 73.2962 7.24007 73.2962 6.982H71.2962ZM72.2542 6.598H67.2561V8.598H72.2542V6.598ZM66.2585 7.66633C66.289 8.11126 66.4045 8.60745 66.7373 9.00572C67.1041 9.44465 67.6108 9.62 68.1101 9.62V7.62C68.0877 7.62 68.1081 7.61646 68.1515 7.63479C68.173 7.64386 68.1961 7.65664 68.2186 7.67335C68.2411 7.69003 68.2589 7.70756 68.272 7.72328C68.2981 7.75454 68.2971 7.7677 68.287 7.73673C68.2766 7.70448 68.2613 7.63928 68.2538 7.52967L66.2585 7.66633ZM68.1101 9.62C68.4352 9.62 68.7729 9.54369 69.08 9.34883C69.3859 9.15468 69.5979 8.88323 69.738 8.59427L67.9383 7.72173C67.9291 7.74077 67.9451 7.70033 68.0083 7.66017C68.0373 7.64177 68.0654 7.63064 68.0875 7.62476C68.1085 7.61915 68.1177 7.62 68.1101 7.62V9.62ZM68.8382 9.158H72.1282V7.158H68.8382V9.158ZM71.1476 7.96188C71.0678 8.36082 70.9007 8.71606 70.638 9.03941L72.1903 10.3006C72.6555 9.72794 72.9645 9.07518 73.1087 8.35412L71.1476 7.96188ZM70.6365 9.04128C70.3835 9.3542 70.0538 9.61424 69.6274 9.81657L70.4849 11.6234C71.1599 11.3031 71.7354 10.8631 72.1918 10.2987L70.6365 9.04128ZM69.6341 9.81342C69.237 9.99828 68.7856 10.098 68.2642 10.098V12.098C69.0494 12.098 69.7926 11.9457 70.4782 11.6266L69.6341 9.81342ZM68.2642 10.098C67.6229 10.098 67.0872 9.96558 66.6327 9.72454L65.6956 11.4915C66.4731 11.9038 67.3374 12.098 68.2642 12.098V10.098ZM66.6382 9.72753C66.1991 9.49107 65.859 9.15913 65.6052 8.7133L63.8671 9.7027C64.304 10.4702 64.9159 11.0716 65.69 11.4885L66.6382 9.72753ZM65.614 8.72915C65.3708 8.28328 65.2321 7.73466 65.2321 7.052H63.2321C63.2321 8.01201 63.4295 8.90072 63.8583 9.68685L65.614 8.72915ZM65.2321 7.052C65.2321 6.36888 65.371 5.82773 65.6109 5.3945L63.8614 4.4255C63.4293 5.2056 63.2321 6.09246 63.2321 7.052H65.2321ZM65.6084 5.399C65.8633 4.94429 66.2031 4.61076 66.6382 4.37647L65.69 2.61553C64.9118 3.03457 64.2996 3.6437 63.8639 4.42099L65.6084 5.399ZM66.6327 4.37946C67.0872 4.13842 67.6229 4.006 68.2642 4.006V2.006C67.3374 2.006 66.4731 2.20024 65.6956 2.61254L66.6327 4.37946ZM68.2642 4.006C68.9057 4.006 69.4341 4.13852 69.876 4.37647L70.8242 2.61553C70.0528 2.20015 69.1906 2.006 68.2642 2.006V4.006ZM69.8922 4.38497C70.3363 4.61378 70.6676 4.93342 70.9066 5.35826L72.6497 4.37774C72.2167 3.60791 71.596 3.01289 70.8081 2.60703L69.8922 4.38497ZM70.9124 5.3685C71.1553 5.78871 71.2962 6.31443 71.2962 6.982H73.2962C73.2962 6.02557 73.0916 5.14195 72.6439 4.3675L70.9124 5.3685ZM70.1461 6.24C70.1461 5.74803 69.9752 5.22597 69.5081 4.86265L68.2802 6.44135C68.2304 6.40261 68.1885 6.34811 68.164 6.29092C68.1421 6.23974 68.1461 6.21502 68.1461 6.24H70.1461ZM69.5343 4.88378C69.1597 4.57158 68.7125 4.442 68.2642 4.442V6.442C68.2973 6.442 68.3044 6.44651 68.2944 6.44318C68.2897 6.4416 68.2827 6.43877 68.2746 6.43428C68.2665 6.42979 68.2595 6.42483 68.254 6.42022L69.5343 4.88378ZM68.2642 4.442C67.8311 4.442 67.3632 4.54802 66.9728 4.87054C66.5799 5.19505 66.3887 5.63689 66.3132 6.0672L68.2831 6.4128C68.2922 6.36097 68.3017 6.34551 68.2981 6.35255C68.2961 6.35641 68.291 6.36519 68.2818 6.37674C68.2725 6.38843 68.2607 6.40079 68.2465 6.41246C68.2324 6.42412 68.2186 6.43295 68.2067 6.4392C68.1951 6.44535 68.1873 6.44789 68.1856 6.44842C68.183 6.44922 68.2055 6.442 68.2642 6.442V4.442ZM67.2981 7.24H69.1461V5.24H67.2981V7.24Z" fill="black" mask="url(#path-1-outside-1_32638_345164)"/>
</g>
<defs>
<filter id="filter0_d_32638_345164" x="0.0649414" y="0.640015" width="73.2312" height="11.458" filterUnits="userSpaceOnUse" color-interpolation-filters="sRGB">
<feFlood flood-opacity="0" result="BackgroundImageFix"/>
<feColorMatrix in="SourceAlpha" type="matrix" values="0 0 0 0 0 0 0 0 0 0 0 0 0 0 0 0 0 0 127 0" result="hardAlpha"/>
<feOffset dx="1" dy="1"/>
<feComposite in2="hardAlpha" operator="out"/>
<feColorMatrix type="matrix" values="0 0 0 0 0 0 0 0 0 0 0 0 0 0 0 0 0 0 1 0"/>
<feBlend mode="normal" in2="BackgroundImageFix" result="effect1_dropShadow_32638_345164"/>
<feBlend mode="normal" in="SourceGraphic" in2="effect1_dropShadow_32638_345164" result="shape"/>
</filter>
</defs>
</svg>
