<svg width="28" height="30" viewBox="0 0 28 30" fill="none" xmlns="http://www.w3.org/2000/svg">
<g filter="url(#filter0_d_32486_83286)">
<g clip-path="url(#clip0_32486_83286)">
<rect width="28" height="28" rx="14" fill="#2F2C89"/>
<g clip-path="url(#clip1_32486_83286)">
<rect y="-1.75" width="28" height="28" rx="14" fill="#615DF4"/>
<g filter="url(#filter1_d_32486_83286)">
<path fill-rule="evenodd" clip-rule="evenodd" d="M11.9593 20.5874C11.9593 20.8153 12.144 21 12.3719 21H14.8714C15.0992 21 15.284 20.8153 15.284 20.5874V18.5667C15.284 18.3389 15.0992 18.1542 14.8714 18.1542H12.3719C12.144 18.1542 11.9593 18.3389 11.9593 18.5667V20.5874ZM13.975 5.25C9.15553 5.25 8.3667 9.51175 8.3667 10.4165V11.168C8.3667 11.3258 8.49403 11.4542 8.65195 11.4557L11.4683 11.4804C11.6281 11.4818 11.7585 11.3526 11.7585 11.1927V10.4669C11.7585 9.76148 12.2895 8.52543 14.0031 8.52543C15.7168 8.52543 16.1859 9.87018 16.1562 10.4093C16.137 10.755 16.0146 11.2903 15.736 11.6563C15.1135 12.4737 13.3285 13.3062 12.7413 13.7227C12.1542 14.1394 11.8722 14.6448 11.8722 15.1271V16.7907C11.8722 16.9495 12.001 17.0784 12.1599 17.0784H14.8606C15.0196 17.0784 15.1484 16.9495 15.1484 16.7907V15.9171C15.1484 15.8154 15.206 15.7226 15.2964 15.6762C19.0839 13.7312 19.6333 11.892 19.6333 10.3054C19.6333 6.95263 16.908 5.25 13.975 5.25Z" fill="#D5D3FB"/>
<path d="M15.2371 15.5608C15.1041 15.6291 15.0187 15.7661 15.0187 15.9171V16.7907C15.0187 16.8779 14.9479 16.9487 14.8606 16.9487H12.1599C12.0727 16.9487 12.0019 16.8779 12.0019 16.7907V15.1271C12.0019 14.6988 12.2524 14.2287 12.8163 13.8285C12.9571 13.7286 13.1731 13.6017 13.4341 13.4515C13.4793 13.4255 13.5258 13.3988 13.5733 13.3715C13.7975 13.2429 14.0448 13.1011 14.2927 12.9508C14.8882 12.5895 15.511 12.1658 15.8392 11.7349L15.8392 11.7349C16.1393 11.3408 16.2657 10.7767 16.2857 10.4165L16.2857 10.4165C16.3024 10.1138 16.1817 9.61129 15.8341 9.1834C15.4814 8.74909 14.8985 8.39569 14.0031 8.39569C13.1117 8.39569 12.5139 8.71879 12.1405 9.14629C11.7709 9.56944 11.6288 10.086 11.6288 10.4669V11.1927C11.6288 11.2805 11.5572 11.3514 11.4695 11.3506L11.4694 11.3506L8.65315 11.326C8.56635 11.3252 8.49644 11.2545 8.49644 11.168V10.4165C8.49644 9.98601 8.688 8.72069 9.47091 7.56682C10.2482 6.42127 11.6113 5.37974 13.975 5.37974C15.418 5.37974 16.8021 5.79876 17.8226 6.62142C18.8399 7.44146 19.5036 8.66813 19.5036 10.3054C19.5036 11.0812 19.3699 11.9099 18.7778 12.7836C18.1834 13.6606 17.1196 14.5941 15.2371 15.5608ZM15.2371 15.5608L15.2964 15.6762L15.2371 15.5608C15.2371 15.5608 15.2371 15.5608 15.2371 15.5608ZM12.3719 20.8703C12.2156 20.8703 12.089 20.7437 12.089 20.5874V18.5667C12.089 18.4106 12.2157 18.2839 12.3719 18.2839H14.8714C15.0275 18.2839 15.1542 18.4106 15.1542 18.5667V20.5874C15.1542 20.7437 15.0276 20.8703 14.8714 20.8703H12.3719Z" stroke="black" stroke-width="0.259472"/>
</g>
</g>
</g>
<rect x="0.145833" y="0.145833" width="27.7083" height="27.7083" rx="13.8542" stroke="black" stroke-width="0.291667" shape-rendering="crispEdges"/>
</g>
<defs>
<filter id="filter0_d_32486_83286" x="0" y="0" width="28" height="29.1667" filterUnits="userSpaceOnUse" color-interpolation-filters="sRGB">
<feFlood flood-opacity="0" result="BackgroundImageFix"/>
<feColorMatrix in="SourceAlpha" type="matrix" values="0 0 0 0 0 0 0 0 0 0 0 0 0 0 0 0 0 0 127 0" result="hardAlpha"/>
<feOffset dy="1.16667"/>
<feComposite in2="hardAlpha" operator="out"/>
<feColorMatrix type="matrix" values="0 0 0 0 0 0 0 0 0 0 0 0 0 0 0 0 0 0 0.25 0"/>
<feBlend mode="normal" in2="BackgroundImageFix" result="effect1_dropShadow_32486_83286"/>
<feBlend mode="normal" in="SourceGraphic" in2="effect1_dropShadow_32486_83286" result="shape"/>
</filter>
<filter id="filter1_d_32486_83286" x="8.3667" y="5.25" width="11.2666" height="16.5284" filterUnits="userSpaceOnUse" color-interpolation-filters="sRGB">
<feFlood flood-opacity="0" result="BackgroundImageFix"/>
<feColorMatrix in="SourceAlpha" type="matrix" values="0 0 0 0 0 0 0 0 0 0 0 0 0 0 0 0 0 0 127 0" result="hardAlpha"/>
<feOffset dy="0.778415"/>
<feComposite in2="hardAlpha" operator="out"/>
<feColorMatrix type="matrix" values="0 0 0 0 0 0 0 0 0 0 0 0 0 0 0 0 0 0 1 0"/>
<feBlend mode="normal" in2="BackgroundImageFix" result="effect1_dropShadow_32486_83286"/>
<feBlend mode="normal" in="SourceGraphic" in2="effect1_dropShadow_32486_83286" result="shape"/>
</filter>
<clipPath id="clip0_32486_83286">
<rect width="28" height="28" rx="14" fill="white"/>
</clipPath>
<clipPath id="clip1_32486_83286">
<rect width="28" height="28" rx="14" fill="white"/>
</clipPath>
</defs>
</svg>
