<svg width="32" height="32" viewBox="0 0 32 32" fill="none" xmlns="http://www.w3.org/2000/svg">
<g filter="url(#filter0_d_32257_412217)">
<g clip-path="url(#clip0_32257_412217)">
<rect x="2" y="2" width="28" height="28" rx="14" fill="#2F2C89"/>
<g clip-path="url(#clip1_32257_412217)">
<rect x="2" y="0.25" width="28" height="28" rx="14" fill="#615DF4"/>
<path d="M13.4699 13.295L13.47 13.295C13.5268 13.2955 13.5732 13.2496 13.5732 13.1927V12.4669C13.5732 12.074 13.7193 11.544 14.0986 11.1097C14.4834 10.6692 15.0969 10.3401 16.0031 10.3401C16.915 10.3401 17.5139 10.7008 17.8773 11.1483C18.2333 11.5866 18.3587 12.1026 18.3413 12.4195L18.3413 12.4196C18.3209 12.786 18.1927 13.3624 17.8834 13.7686L17.8834 13.7686C17.548 14.209 16.9163 14.6376 16.3215 14.9983C16.073 15.149 15.825 15.2913 15.6008 15.4199C15.5533 15.4471 15.5069 15.4737 15.4618 15.4997C15.2003 15.6502 14.9868 15.7758 14.8486 15.8738C14.2946 16.267 14.0575 16.7219 14.0575 17.1271V18.7907C14.0575 18.8472 14.1034 18.893 14.1599 18.893H16.8606C16.9172 18.893 16.9631 18.8471 16.9631 18.7907V17.9171C16.9631 17.7449 17.0604 17.589 17.2117 17.5113C19.0893 16.5471 20.1445 15.619 20.7317 14.7524C21.3159 13.8905 21.448 13.0737 21.448 12.3054C21.448 10.6849 20.7918 9.47416 19.7877 8.66472C18.7789 7.85153 17.4079 7.43535 15.975 7.43535C13.6311 7.43535 12.2846 8.46664 11.5169 9.59804C10.7412 10.7413 10.552 11.9954 10.552 12.4165V13.168C10.552 13.224 10.5973 13.2698 10.6536 13.2704C10.6536 13.2704 10.6536 13.2704 10.6537 13.2704M13.4699 13.295L10.652 13.4557L10.6537 13.2704M13.4699 13.295L10.6537 13.2704M13.4699 13.295L10.6537 13.2704M18.1562 12.4093C18.137 12.755 18.0146 13.2903 17.736 13.6563C17.2964 14.2335 16.277 14.8183 15.5092 15.2587C15.1897 15.442 14.9138 15.6003 14.7413 15.7227L18.1562 12.4093ZM14.3719 22.8147C14.2464 22.8147 14.1446 22.7129 14.1446 22.5874V20.5667C14.1446 20.4413 14.2464 20.3395 14.3719 20.3395H16.8714C16.9968 20.3395 17.0986 20.4413 17.0986 20.5667V22.5874C17.0986 22.713 16.9968 22.8147 16.8714 22.8147H14.3719Z" fill="white" stroke="black" stroke-width="0.3707"/>
</g>
</g>
<rect x="2.14583" y="2.14583" width="27.7083" height="27.7083" rx="13.8542" stroke="black" stroke-width="0.291667" shape-rendering="crispEdges"/>
</g>
<defs>
<filter id="filter0_d_32257_412217" x="2" y="2" width="28" height="29.1667" filterUnits="userSpaceOnUse" color-interpolation-filters="sRGB">
<feFlood flood-opacity="0" result="BackgroundImageFix"/>
<feColorMatrix in="SourceAlpha" type="matrix" values="0 0 0 0 0 0 0 0 0 0 0 0 0 0 0 0 0 0 127 0" result="hardAlpha"/>
<feOffset dy="1.16667"/>
<feComposite in2="hardAlpha" operator="out"/>
<feColorMatrix type="matrix" values="0 0 0 0 0 0 0 0 0 0 0 0 0 0 0 0 0 0 0.25 0"/>
<feBlend mode="normal" in2="BackgroundImageFix" result="effect1_dropShadow_32257_412217"/>
<feBlend mode="normal" in="SourceGraphic" in2="effect1_dropShadow_32257_412217" result="shape"/>
</filter>
<clipPath id="clip0_32257_412217">
<rect x="2" y="2" width="28" height="28" rx="14" fill="white"/>
</clipPath>
<clipPath id="clip1_32257_412217">
<rect x="2" y="2" width="28" height="28" rx="14" fill="white"/>
</clipPath>
</defs>
</svg>
