<svg width="56" height="21" viewBox="0 0 56 21" fill="none" xmlns="http://www.w3.org/2000/svg">
<g clip-path="url(#clip0_32987_1689)">
<g filter="url(#filter0_d_32987_1689)">
<mask id="path-1-outside-1_32987_1689" maskUnits="userSpaceOnUse" x="0" y="1" width="55" height="19" fill="black">
<rect fill="white" y="1" width="55" height="19"/>
<path d="M10.4312 12.288H6.65519L6.09519 14H2.36719L6.51119 2.672H10.6072L14.7352 14H10.9912L10.4312 12.288ZM9.56719 9.616L8.54319 6.464L7.51919 9.616H9.56719ZM15.0622 9.488C15.0622 8.53867 15.2222 7.71733 15.5422 7.024C15.8729 6.32 16.3209 5.78667 16.8862 5.424C17.4515 5.05067 18.0862 4.864 18.7902 4.864C19.3769 4.864 19.8782 4.98667 20.2942 5.232C20.7209 5.46667 21.0462 5.792 21.2702 6.208V2.16H24.8222V14H21.2702V12.768C21.0462 13.184 20.7209 13.5147 20.2942 13.76C19.8782 13.9947 19.3769 14.112 18.7902 14.112C18.0862 14.112 17.4515 13.9307 16.8862 13.568C16.3209 13.1947 15.8729 12.6613 15.5422 11.968C15.2222 11.264 15.0622 10.4373 15.0622 9.488ZM21.2862 9.488C21.2862 9.008 21.1635 8.63467 20.9182 8.368C20.6729 8.10133 20.3582 7.968 19.9742 7.968C19.5902 7.968 19.2755 8.10133 19.0302 8.368C18.7849 8.63467 18.6622 9.008 18.6622 9.488C18.6622 9.968 18.7849 10.3413 19.0302 10.608C19.2755 10.8747 19.5902 11.008 19.9742 11.008C20.3582 11.008 20.6729 10.8747 20.9182 10.608C21.1635 10.3413 21.2862 9.968 21.2862 9.488ZM30.7052 14.112C29.7985 14.112 28.9825 13.9253 28.2572 13.552C27.5319 13.1787 26.9612 12.6453 26.5452 11.952C26.1399 11.248 25.9372 10.4267 25.9372 9.488C25.9372 8.54933 26.1399 7.73333 26.5452 7.04C26.9612 6.336 27.5319 5.79733 28.2572 5.424C28.9825 5.05067 29.7985 4.864 30.7052 4.864C31.6119 4.864 32.4279 5.05067 33.1532 5.424C33.8785 5.79733 34.4439 6.336 34.8492 7.04C35.2652 7.73333 35.4732 8.54933 35.4732 9.488C35.4732 10.4267 35.2652 11.248 34.8492 11.952C34.4439 12.6453 33.8785 13.1787 33.1532 13.552C32.4279 13.9253 31.6119 14.112 30.7052 14.112ZM30.7052 11.04C31.0359 11.04 31.3132 10.912 31.5372 10.656C31.7612 10.3893 31.8732 10 31.8732 9.488C31.8732 8.976 31.7612 8.592 31.5372 8.336C31.3132 8.06933 31.0359 7.936 30.7052 7.936C30.3745 7.936 30.0972 8.06933 29.8732 8.336C29.6492 8.592 29.5372 8.976 29.5372 9.488C29.5372 10 29.6439 10.3893 29.8572 10.656C30.0812 10.912 30.3639 11.04 30.7052 11.04ZM40.1411 6.208C40.3651 5.792 40.6851 5.46667 41.1011 5.232C41.5277 4.98667 42.0344 4.864 42.6211 4.864C43.3251 4.864 43.9597 5.05067 44.5251 5.424C45.0904 5.78667 45.5331 6.32 45.8531 7.024C46.1837 7.71733 46.3491 8.53867 46.3491 9.488C46.3491 10.4373 46.1837 11.264 45.8531 11.968C45.5331 12.6613 45.0904 13.1947 44.5251 13.568C43.9597 13.9307 43.3251 14.112 42.6211 14.112C42.0344 14.112 41.5277 13.9947 41.1011 13.76C40.6851 13.5147 40.3651 13.184 40.1411 12.768V18.32H36.5891V4.976H40.1411V6.208ZM42.7491 9.488C42.7491 9.008 42.6264 8.63467 42.3811 8.368C42.1357 8.10133 41.8211 7.968 41.4371 7.968C41.0531 7.968 40.7384 8.10133 40.4931 8.368C40.2477 8.63467 40.1251 9.008 40.1251 9.488C40.1251 9.968 40.2477 10.3413 40.4931 10.608C40.7384 10.8747 41.0531 11.008 41.4371 11.008C41.8211 11.008 42.1357 10.8747 42.3811 10.608C42.6264 10.3413 42.7491 9.968 42.7491 9.488ZM53.0801 10.976V14H51.7361C49.2614 14 48.0241 12.768 48.0241 10.304V7.936H46.9041V4.976H48.0241V2.8H51.5761V4.976H53.0481V7.936H51.5761V10.368C51.5761 10.5813 51.6241 10.736 51.7201 10.832C51.8267 10.928 51.9974 10.976 52.2321 10.976H53.0801Z"/>
</mask>
<path d="M10.4312 12.288H6.65519L6.09519 14H2.36719L6.51119 2.672H10.6072L14.7352 14H10.9912L10.4312 12.288ZM9.56719 9.616L8.54319 6.464L7.51919 9.616H9.56719ZM15.0622 9.488C15.0622 8.53867 15.2222 7.71733 15.5422 7.024C15.8729 6.32 16.3209 5.78667 16.8862 5.424C17.4515 5.05067 18.0862 4.864 18.7902 4.864C19.3769 4.864 19.8782 4.98667 20.2942 5.232C20.7209 5.46667 21.0462 5.792 21.2702 6.208V2.16H24.8222V14H21.2702V12.768C21.0462 13.184 20.7209 13.5147 20.2942 13.76C19.8782 13.9947 19.3769 14.112 18.7902 14.112C18.0862 14.112 17.4515 13.9307 16.8862 13.568C16.3209 13.1947 15.8729 12.6613 15.5422 11.968C15.2222 11.264 15.0622 10.4373 15.0622 9.488ZM21.2862 9.488C21.2862 9.008 21.1635 8.63467 20.9182 8.368C20.6729 8.10133 20.3582 7.968 19.9742 7.968C19.5902 7.968 19.2755 8.10133 19.0302 8.368C18.7849 8.63467 18.6622 9.008 18.6622 9.488C18.6622 9.968 18.7849 10.3413 19.0302 10.608C19.2755 10.8747 19.5902 11.008 19.9742 11.008C20.3582 11.008 20.6729 10.8747 20.9182 10.608C21.1635 10.3413 21.2862 9.968 21.2862 9.488ZM30.7052 14.112C29.7985 14.112 28.9825 13.9253 28.2572 13.552C27.5319 13.1787 26.9612 12.6453 26.5452 11.952C26.1399 11.248 25.9372 10.4267 25.9372 9.488C25.9372 8.54933 26.1399 7.73333 26.5452 7.04C26.9612 6.336 27.5319 5.79733 28.2572 5.424C28.9825 5.05067 29.7985 4.864 30.7052 4.864C31.6119 4.864 32.4279 5.05067 33.1532 5.424C33.8785 5.79733 34.4439 6.336 34.8492 7.04C35.2652 7.73333 35.4732 8.54933 35.4732 9.488C35.4732 10.4267 35.2652 11.248 34.8492 11.952C34.4439 12.6453 33.8785 13.1787 33.1532 13.552C32.4279 13.9253 31.6119 14.112 30.7052 14.112ZM30.7052 11.04C31.0359 11.04 31.3132 10.912 31.5372 10.656C31.7612 10.3893 31.8732 10 31.8732 9.488C31.8732 8.976 31.7612 8.592 31.5372 8.336C31.3132 8.06933 31.0359 7.936 30.7052 7.936C30.3745 7.936 30.0972 8.06933 29.8732 8.336C29.6492 8.592 29.5372 8.976 29.5372 9.488C29.5372 10 29.6439 10.3893 29.8572 10.656C30.0812 10.912 30.3639 11.04 30.7052 11.04ZM40.1411 6.208C40.3651 5.792 40.6851 5.46667 41.1011 5.232C41.5277 4.98667 42.0344 4.864 42.6211 4.864C43.3251 4.864 43.9597 5.05067 44.5251 5.424C45.0904 5.78667 45.5331 6.32 45.8531 7.024C46.1837 7.71733 46.3491 8.53867 46.3491 9.488C46.3491 10.4373 46.1837 11.264 45.8531 11.968C45.5331 12.6613 45.0904 13.1947 44.5251 13.568C43.9597 13.9307 43.3251 14.112 42.6211 14.112C42.0344 14.112 41.5277 13.9947 41.1011 13.76C40.6851 13.5147 40.3651 13.184 40.1411 12.768V18.32H36.5891V4.976H40.1411V6.208ZM42.7491 9.488C42.7491 9.008 42.6264 8.63467 42.3811 8.368C42.1357 8.10133 41.8211 7.968 41.4371 7.968C41.0531 7.968 40.7384 8.10133 40.4931 8.368C40.2477 8.63467 40.1251 9.008 40.1251 9.488C40.1251 9.968 40.2477 10.3413 40.4931 10.608C40.7384 10.8747 41.0531 11.008 41.4371 11.008C41.8211 11.008 42.1357 10.8747 42.3811 10.608C42.6264 10.3413 42.7491 9.968 42.7491 9.488ZM53.0801 10.976V14H51.7361C49.2614 14 48.0241 12.768 48.0241 10.304V7.936H46.9041V4.976H48.0241V2.8H51.5761V4.976H53.0481V7.936H51.5761V10.368C51.5761 10.5813 51.6241 10.736 51.7201 10.832C51.8267 10.928 51.9974 10.976 52.2321 10.976H53.0801Z" fill="white"/>
<path d="M10.4312 12.288L11.3816 11.9771L11.1562 11.288H10.4312V12.288ZM6.65519 12.288V11.288H5.93015L5.70474 11.9771L6.65519 12.288ZM6.09519 14V15H6.82022L7.04563 14.3109L6.09519 14ZM2.36719 14L1.42805 13.6564L0.936557 15H2.36719V14ZM6.51119 2.672V1.672H5.8122L5.57205 2.32845L6.51119 2.672ZM10.6072 2.672L11.5467 2.32962L11.3071 1.672H10.6072V2.672ZM14.7352 14V15H16.1639L15.6747 13.6576L14.7352 14ZM10.9912 14L10.0407 14.3109L10.2662 15H10.9912V14ZM9.56719 9.616V10.616H10.9435L10.5183 9.30702L9.56719 9.616ZM8.54319 6.464L9.49426 6.15502L8.54319 3.22751L7.59212 6.15502L8.54319 6.464ZM7.51919 9.616L6.56812 9.30702L6.14287 10.616H7.51919V9.616ZM10.4312 11.288H6.65519V13.288H10.4312V11.288ZM5.70474 11.9771L5.14474 13.6891L7.04563 14.3109L7.60563 12.5989L5.70474 11.9771ZM6.09519 13H2.36719V15H6.09519V13ZM3.30632 14.3436L7.45032 3.01555L5.57205 2.32845L1.42805 13.6564L3.30632 14.3436ZM6.51119 3.672H10.6072V1.672H6.51119V3.672ZM9.66763 3.01438L13.7956 14.3424L15.6747 13.6576L11.5467 2.32962L9.66763 3.01438ZM14.7352 13H10.9912V15H14.7352V13ZM11.9416 13.6891L11.3816 11.9771L9.48074 12.5989L10.0407 14.3109L11.9416 13.6891ZM10.5183 9.30702L9.49426 6.15502L7.59212 6.77298L8.61612 9.92498L10.5183 9.30702ZM7.59212 6.15502L6.56812 9.30702L8.47026 9.92498L9.49426 6.77298L7.59212 6.15502ZM7.51919 10.616H9.56719V8.616H7.51919V10.616ZM15.5422 7.024L14.637 6.59885L14.6342 6.60494L15.5422 7.024ZM16.8862 5.424L17.4262 6.26577L17.4372 6.25846L16.8862 5.424ZM20.2942 5.232L19.7862 6.09336L19.7991 6.10099L19.8123 6.10822L20.2942 5.232ZM21.2702 6.208L20.3897 6.6821L22.2702 6.208H21.2702ZM21.2702 2.16V1.16H20.2702V2.16H21.2702ZM24.8222 2.16H25.8222V1.16H24.8222V2.16ZM24.8222 14V15H25.8222V14H24.8222ZM21.2702 14H20.2702V15H21.2702V14ZM21.2702 12.768H22.2702L20.3897 12.2939L21.2702 12.768ZM20.2942 13.76L20.7855 14.631L20.7927 14.6269L20.2942 13.76ZM16.8862 13.568L16.3351 14.4025L16.3462 14.4097L16.8862 13.568ZM15.5422 11.968L14.6318 12.3818L14.6356 12.3902L14.6396 12.3985L15.5422 11.968ZM20.9182 8.368L21.6541 7.69094H21.6541L20.9182 8.368ZM19.0302 8.368L18.2943 7.69094L19.0302 8.368ZM16.0622 9.488C16.0622 8.64911 16.2037 7.9771 16.4501 7.44306L14.6342 6.60494C14.2407 7.45756 14.0622 8.42823 14.0622 9.488H16.0622ZM16.4473 7.44914C16.7108 6.88813 17.0431 6.51143 17.4261 6.26569L16.3462 4.58231C15.5986 5.0619 15.0349 5.75187 14.6371 6.59886L16.4473 7.44914ZM17.4372 6.25846C17.8324 5.99749 18.274 5.864 18.7902 5.864V3.864C17.8984 3.864 17.0706 4.10385 16.3351 4.58954L17.4372 6.25846ZM18.7902 5.864C19.2365 5.864 19.5541 5.95647 19.7862 6.09336L20.8022 4.37063C20.2023 4.01687 19.5172 3.864 18.7902 3.864V5.864ZM19.8123 6.10822C20.0756 6.25304 20.26 6.44114 20.3897 6.6821L22.1507 5.7339C21.8324 5.14286 21.3661 4.68029 20.7761 4.35578L19.8123 6.10822ZM22.2702 6.208V2.16H20.2702V6.208H22.2702ZM21.2702 3.16H24.8222V1.16H21.2702V3.16ZM23.8222 2.16V14H25.8222V2.16H23.8222ZM24.8222 13H21.2702V15H24.8222V13ZM22.2702 14V12.768H20.2702V14H22.2702ZM20.3897 12.2939C20.2578 12.5389 20.068 12.7365 19.7957 12.8931L20.7927 14.6269C21.3737 14.2928 21.8346 13.8291 22.1507 13.2421L20.3897 12.2939ZM19.8029 12.889C19.5674 13.0218 19.2437 13.112 18.7902 13.112V15.112C19.51 15.112 20.1889 14.9675 20.7855 14.631L19.8029 12.889ZM18.7902 13.112C18.2679 13.112 17.8224 12.9805 17.4261 12.7263L16.3462 14.4097C17.0807 14.8808 17.9044 15.112 18.7902 15.112V13.112ZM17.4372 12.7335C17.0431 12.4733 16.7079 12.0892 16.4448 11.5375L14.6396 12.3985C15.0378 13.2335 15.5986 13.9161 16.3351 14.4025L17.4372 12.7335ZM16.4526 11.5542C16.2035 11.0062 16.0622 10.3263 16.0622 9.488H14.0622C14.0622 10.5484 14.2409 11.5218 14.6318 12.3818L16.4526 11.5542ZM22.2862 9.488C22.2862 8.84046 22.1183 8.19548 21.6541 7.69094L20.1823 9.04506C20.2087 9.07385 20.2862 9.17554 20.2862 9.488H22.2862ZM21.6541 7.69094C21.2071 7.20501 20.6191 6.968 19.9742 6.968V8.968C20.0973 8.968 20.1386 8.99765 20.1823 9.04506L21.6541 7.69094ZM19.9742 6.968C19.3293 6.968 18.7413 7.20501 18.2943 7.69094L19.7661 9.04506C19.8097 8.99765 19.8511 8.968 19.9742 8.968V6.968ZM18.2943 7.69094C17.8301 8.19548 17.6622 8.84046 17.6622 9.488H19.6622C19.6622 9.17554 19.7396 9.07385 19.7661 9.04506L18.2943 7.69094ZM17.6622 9.488C17.6622 10.1355 17.8301 10.7805 18.2943 11.2851L19.7661 9.93094C19.7396 9.90215 19.6622 9.80046 19.6622 9.488H17.6622ZM18.2943 11.2851C18.7413 11.771 19.3293 12.008 19.9742 12.008V10.008C19.8511 10.008 19.8097 9.97835 19.7661 9.93094L18.2943 11.2851ZM19.9742 12.008C20.6191 12.008 21.2071 11.771 21.6541 11.2851L20.1823 9.93094C20.1386 9.97835 20.0973 10.008 19.9742 10.008V12.008ZM21.6541 11.2851C22.1183 10.7805 22.2862 10.1355 22.2862 9.488H20.2862C20.2862 9.80046 20.2087 9.90215 20.1823 9.93094L21.6541 11.2851ZM28.2572 13.552L28.7148 12.6629L28.2572 13.552ZM26.5452 11.952L25.6786 12.451L25.6831 12.4588L25.6877 12.4665L26.5452 11.952ZM26.5452 7.04L25.6843 6.53126L25.6819 6.5353L26.5452 7.04ZM28.2572 5.424L28.7148 6.31314V6.31314L28.2572 5.424ZM33.1532 5.424L32.6955 6.31314L32.6955 6.31314L33.1532 5.424ZM34.8492 7.04L33.9826 7.53896L33.9871 7.54677L33.9917 7.5545L34.8492 7.04ZM34.8492 11.952L33.9883 11.4433L33.9859 11.4473L34.8492 11.952ZM33.1532 13.552L32.6955 12.6629L33.1532 13.552ZM31.5372 10.656L32.2898 11.3145L32.2964 11.3069L32.3029 11.2992L31.5372 10.656ZM31.5372 8.336L30.7715 8.97919L30.778 8.98691L30.7846 8.9945L31.5372 8.336ZM29.8732 8.336L30.6258 8.9945L30.6324 8.98691L30.6389 8.97919L29.8732 8.336ZM29.8572 10.656L29.0763 11.2807L29.0901 11.2979L29.1046 11.3145L29.8572 10.656ZM30.7052 13.112C29.9397 13.112 29.2834 12.9555 28.7148 12.6629L27.7995 14.4411C28.6816 14.8951 29.6573 15.112 30.7052 15.112V13.112ZM28.7148 12.6629C28.1535 12.3739 27.722 11.9697 27.4027 11.4375L25.6877 12.4665C26.2004 13.321 26.9102 13.9834 27.7995 14.4411L28.7148 12.6629ZM27.4118 11.453C27.1067 10.923 26.9372 10.2791 26.9372 9.488H24.9372C24.9372 10.5742 25.173 11.573 25.6786 12.451L27.4118 11.453ZM26.9372 9.488C26.9372 8.69647 27.1068 8.06075 27.4085 7.5447L25.6819 6.5353C25.1729 7.40592 24.9372 8.4022 24.9372 9.488H26.9372ZM27.4061 7.54873C27.7265 7.00659 28.1575 6.59999 28.7148 6.31314L27.7995 4.53486C26.9062 4.99468 26.1959 5.66541 25.6843 6.53127L27.4061 7.54873ZM28.7148 6.31314C29.2834 6.02047 29.9397 5.864 30.7052 5.864V3.864C29.6573 3.864 28.6816 4.08086 27.7995 4.53486L28.7148 6.31314ZM30.7052 5.864C31.4707 5.864 32.1269 6.02047 32.6955 6.31314L33.6108 4.53486C32.7288 4.08086 31.7531 3.864 30.7052 3.864V5.864ZM32.6955 6.31314C33.2506 6.59884 33.6736 7.00239 33.9826 7.53896L35.7158 6.54104C35.2141 5.66961 34.5064 4.99582 33.6108 4.53486L32.6955 6.31314ZM33.9917 7.5545C34.3003 8.06886 34.4732 8.70098 34.4732 9.488H36.4732C36.4732 8.39768 36.2301 7.39781 35.7067 6.5255L33.9917 7.5545ZM34.4732 9.488C34.4732 10.2746 34.3004 10.915 33.9883 11.4433L35.7101 12.4607C36.2299 11.581 36.4732 10.5787 36.4732 9.488H34.4732ZM33.9859 11.4473C33.6781 11.9738 33.2547 12.3751 32.6955 12.6629L33.6108 14.4411C34.5024 13.9823 35.2096 13.3168 35.7125 12.4567L33.9859 11.4473ZM32.6955 12.6629C32.1269 12.9555 31.4707 13.112 30.7052 13.112V15.112C31.7531 15.112 32.7288 14.8951 33.6108 14.4411L32.6955 12.6629ZM30.7052 12.04C31.3336 12.04 31.8821 11.7804 32.2898 11.3145L30.7846 9.9975C30.7689 10.0155 30.7574 10.0253 30.7511 10.0301C30.7451 10.0347 30.7422 10.036 30.7421 10.036C30.7421 10.0361 30.741 10.0366 30.7372 10.0374C30.7331 10.0383 30.723 10.04 30.7052 10.04V12.04ZM32.3029 11.2992C32.7354 10.7844 32.8732 10.1278 32.8732 9.488H30.8732C30.8732 9.8722 30.787 9.99431 30.7715 10.0128L32.3029 11.2992ZM32.8732 9.488C32.8732 8.85222 32.737 8.18862 32.2898 7.6775L30.7846 8.9945C30.7854 8.99538 30.8732 9.09978 30.8732 9.488H32.8732ZM32.3029 7.69281C31.9005 7.21372 31.3488 6.936 30.7052 6.936V8.936C30.7203 8.936 30.7276 8.93748 30.729 8.93779C30.7301 8.93804 30.7292 8.93789 30.7279 8.93725C30.7267 8.93667 30.7291 8.93759 30.7355 8.94268C30.7421 8.94797 30.7545 8.95898 30.7715 8.97919L32.3029 7.69281ZM30.7052 6.936C30.0616 6.936 29.5099 7.21372 29.1075 7.69281L30.6389 8.97919C30.6559 8.95898 30.6682 8.94797 30.6749 8.94268C30.6812 8.93759 30.6837 8.93667 30.6825 8.93725C30.6812 8.93789 30.6802 8.93804 30.6814 8.93779C30.6828 8.93748 30.6901 8.936 30.7052 8.936V6.936ZM29.1206 7.6775C28.6734 8.18862 28.5372 8.85222 28.5372 9.488H30.5372C30.5372 9.09978 30.625 8.99538 30.6258 8.9945L29.1206 7.6775ZM28.5372 9.488C28.5372 10.1184 28.6656 10.7673 29.0763 11.2807L30.6381 10.0313C30.6221 10.0114 30.5372 9.88155 30.5372 9.488H28.5372ZM29.1046 11.3145C29.5192 11.7884 30.0766 12.04 30.7052 12.04V10.04C30.6826 10.04 30.6685 10.0379 30.6611 10.0364C30.6541 10.0349 30.6508 10.0336 30.6497 10.033C30.6486 10.0325 30.6456 10.0311 30.6402 10.027C30.6346 10.0228 30.6242 10.014 30.6098 9.9975L29.1046 11.3145ZM40.1411 6.208H39.1411L41.0215 6.6821L40.1411 6.208ZM41.1011 5.232L41.5924 6.10301L41.5995 6.09891L41.1011 5.232ZM44.5251 5.424L43.974 6.25854L43.9851 6.26569L44.5251 5.424ZM45.8531 7.024L44.9427 7.4378L44.9465 7.44617L44.9505 7.45447L45.8531 7.024ZM45.8531 11.968L44.9479 11.5429L44.9451 11.5489L45.8531 11.968ZM44.5251 13.568L45.0651 14.4098L45.0761 14.4025L44.5251 13.568ZM41.1011 13.76L40.5931 14.6214L40.606 14.629L40.6191 14.6362L41.1011 13.76ZM40.1411 12.768L41.0215 12.2939L39.1411 12.768H40.1411ZM40.1411 18.32V19.32H41.1411V18.32H40.1411ZM36.5891 18.32H35.5891V19.32H36.5891V18.32ZM36.5891 4.976V3.976H35.5891V4.976H36.5891ZM40.1411 4.976H41.1411V3.976H40.1411V4.976ZM42.3811 8.368L43.117 7.69094L42.3811 8.368ZM40.4931 8.368L39.7571 7.69094L39.7571 7.69094L40.4931 8.368ZM40.4931 10.608L39.7571 11.2851L40.4931 10.608ZM41.0215 6.6821C41.1549 6.43442 41.3391 6.24586 41.5924 6.10298L40.6097 4.36102C40.031 4.68748 39.5752 5.14958 39.2606 5.7339L41.0215 6.6821ZM41.5995 6.09891C41.8478 5.95615 42.1757 5.864 42.6211 5.864V3.864C41.8931 3.864 41.2077 4.01718 40.6026 4.36509L41.5995 6.09891ZM42.6211 5.864C43.1372 5.864 43.5788 5.99749 43.974 6.25846L45.0761 4.58954C44.3407 4.10385 43.5129 3.864 42.6211 3.864V5.864ZM43.9851 6.26569C44.3649 6.50935 44.69 6.88194 44.9427 7.4378L46.7634 6.6102C46.3761 5.75806 45.8159 5.06399 45.065 4.5823L43.9851 6.26569ZM44.9505 7.45447C45.2037 7.98547 45.3491 8.65328 45.3491 9.488H47.3491C47.3491 8.42405 47.1638 7.4492 46.7557 6.59353L44.9505 7.45447ZM45.3491 9.488C45.3491 10.3221 45.2039 10.9979 44.9479 11.5429L46.7582 12.3931C47.1636 11.5301 47.3491 10.5525 47.3491 9.488H45.3491ZM44.9451 11.5489C44.6929 12.0954 44.3649 12.4754 43.974 12.7335L45.0761 14.4025C45.8159 13.914 46.3732 13.2273 46.761 12.3871L44.9451 11.5489ZM43.9851 12.7263C43.5889 12.9805 43.1433 13.112 42.6211 13.112V15.112C43.5068 15.112 44.3306 14.8808 45.065 14.4097L43.9851 12.7263ZM42.6211 13.112C42.1685 13.112 41.8346 13.0222 41.583 12.8838L40.6191 14.6362C41.2209 14.9672 41.9003 15.112 42.6211 15.112V13.112ZM41.609 12.8986C41.3465 12.7438 41.157 12.5455 41.0215 12.2939L39.2606 13.2421C39.5731 13.8225 40.0236 14.2855 40.5931 14.6214L41.609 12.8986ZM39.1411 12.768V18.32H41.1411V12.768H39.1411ZM40.1411 17.32H36.5891V19.32H40.1411V17.32ZM37.5891 18.32V4.976H35.5891V18.32H37.5891ZM36.5891 5.976H40.1411V3.976H36.5891V5.976ZM39.1411 4.976V6.208H41.1411V4.976H39.1411ZM43.7491 9.488C43.7491 8.84046 43.5812 8.19548 43.117 7.69094L41.6451 9.04506C41.6716 9.07385 41.7491 9.17554 41.7491 9.488H43.7491ZM43.117 7.69094C42.6699 7.20501 42.0819 6.968 41.4371 6.968V8.968C41.5602 8.968 41.6015 8.99765 41.6451 9.04506L43.117 7.69094ZM41.4371 6.968C40.7922 6.968 40.2042 7.20501 39.7571 7.69094L41.229 9.04506C41.2726 8.99765 41.3139 8.968 41.4371 8.968V6.968ZM39.7571 7.69094C39.293 8.19548 39.1251 8.84046 39.1251 9.488H41.1251C41.1251 9.17554 41.2025 9.07385 41.229 9.04506L39.7571 7.69094ZM39.1251 9.488C39.1251 10.1355 39.293 10.7805 39.7571 11.2851L41.229 9.93094C41.2025 9.90215 41.1251 9.80046 41.1251 9.488H39.1251ZM39.7571 11.2851C40.2042 11.771 40.7922 12.008 41.4371 12.008V10.008C41.3139 10.008 41.2726 9.97835 41.229 9.93094L39.7571 11.2851ZM41.4371 12.008C42.0819 12.008 42.6699 11.771 43.117 11.2851L41.6451 9.93094C41.6015 9.97835 41.5602 10.008 41.4371 10.008V12.008ZM43.117 11.2851C43.5812 10.7805 43.7491 10.1355 43.7491 9.488H41.7491C41.7491 9.80046 41.6716 9.90215 41.6451 9.93094L43.117 11.2851ZM53.0801 10.976H54.0801V9.976H53.0801V10.976ZM53.0801 14V15H54.0801V14H53.0801ZM48.0241 7.936H49.0241V6.936H48.0241V7.936ZM46.9041 7.936H45.9041V8.936H46.9041V7.936ZM46.9041 4.976V3.976H45.9041V4.976H46.9041ZM48.0241 4.976V5.976H49.0241V4.976H48.0241ZM48.0241 2.8V1.8H47.0241V2.8H48.0241ZM51.5761 2.8H52.5761V1.8H51.5761V2.8ZM51.5761 4.976H50.5761V5.976H51.5761V4.976ZM53.0481 4.976H54.0481V3.976H53.0481V4.976ZM53.0481 7.936V8.936H54.0481V7.936H53.0481ZM51.5761 7.936V6.936H50.5761V7.936H51.5761ZM51.7201 10.832L51.013 11.5391L51.0316 11.5577L51.0511 11.5753L51.7201 10.832ZM52.0801 10.976V14H54.0801V10.976H52.0801ZM53.0801 13H51.7361V15H53.0801V13ZM51.7361 13C50.6518 13 50.0225 12.7306 49.6576 12.3674C49.2936 12.0049 49.0241 11.3808 49.0241 10.304H47.0241C47.0241 11.6912 47.3732 12.9151 48.2465 13.7846C49.119 14.6534 50.3457 15 51.7361 15V13ZM49.0241 10.304V7.936H47.0241V10.304H49.0241ZM48.0241 6.936H46.9041V8.936H48.0241V6.936ZM47.9041 7.936V4.976H45.9041V7.936H47.9041ZM46.9041 5.976H48.0241V3.976H46.9041V5.976ZM49.0241 4.976V2.8H47.0241V4.976H49.0241ZM48.0241 3.8H51.5761V1.8H48.0241V3.8ZM50.5761 2.8V4.976H52.5761V2.8H50.5761ZM51.5761 5.976H53.0481V3.976H51.5761V5.976ZM52.0481 4.976V7.936H54.0481V4.976H52.0481ZM53.0481 6.936H51.5761V8.936H53.0481V6.936ZM50.5761 7.936V10.368H52.5761V7.936H50.5761ZM50.5761 10.368C50.5761 10.6996 50.6463 11.1724 51.013 11.5391L52.4272 10.1249C52.5141 10.2118 52.5523 10.2997 52.5671 10.3476C52.5806 10.3912 52.5761 10.4041 52.5761 10.368H50.5761ZM51.0511 11.5753C51.4274 11.914 51.8977 11.976 52.2321 11.976V9.976C52.1786 9.976 52.1729 9.97005 52.1988 9.97735C52.2272 9.98533 52.3045 10.0127 52.389 10.0887L51.0511 11.5753ZM52.2321 11.976H53.0801V9.976H52.2321V11.976Z" fill="black" mask="url(#path-1-outside-1_32987_1689)"/>
</g>
</g>
<defs>
<filter id="filter0_d_32987_1689" x="2.36719" y="2.15997" width="51.7129" height="17.16" filterUnits="userSpaceOnUse" color-interpolation-filters="sRGB">
<feFlood flood-opacity="0" result="BackgroundImageFix"/>
<feColorMatrix in="SourceAlpha" type="matrix" values="0 0 0 0 0 0 0 0 0 0 0 0 0 0 0 0 0 0 127 0" result="hardAlpha"/>
<feOffset dx="1" dy="1"/>
<feComposite in2="hardAlpha" operator="out"/>
<feColorMatrix type="matrix" values="0 0 0 0 0 0 0 0 0 0 0 0 0 0 0 0 0 0 1 0"/>
<feBlend mode="normal" in2="BackgroundImageFix" result="effect1_dropShadow_32987_1689"/>
<feBlend mode="normal" in="SourceGraphic" in2="effect1_dropShadow_32987_1689" result="shape"/>
</filter>
<clipPath id="clip0_32987_1689">
<rect width="56" height="21" fill="white"/>
</clipPath>
</defs>
</svg>
