<svg width="53" height="18" viewBox="0 0 53 18" fill="none" xmlns="http://www.w3.org/2000/svg">
<g filter="url(#filter0_d_32648_348394)">
<mask id="path-1-outside-1_32648_348394" maskUnits="userSpaceOnUse" x="-2" y="-1" width="55" height="19" fill="black">
<rect fill="white" x="-2" y="-1" width="55" height="19"/>
<path d="M8.43119 10.288H4.65519L4.09519 12H0.367188L4.51119 0.672H8.60719L12.7352 12H8.99119L8.43119 10.288ZM7.56719 7.616L6.54319 4.464L5.51919 7.616H7.56719ZM13.0622 7.488C13.0622 6.53867 13.2222 5.71733 13.5422 5.024C13.8729 4.32 14.3209 3.78667 14.8862 3.424C15.4515 3.05067 16.0862 2.864 16.7902 2.864C17.3769 2.864 17.8782 2.98667 18.2942 3.232C18.7209 3.46667 19.0462 3.792 19.2702 4.208V0.16H22.8222V12H19.2702V10.768C19.0462 11.184 18.7209 11.5147 18.2942 11.76C17.8782 11.9947 17.3769 12.112 16.7902 12.112C16.0862 12.112 15.4515 11.9307 14.8862 11.568C14.3209 11.1947 13.8729 10.6613 13.5422 9.968C13.2222 9.264 13.0622 8.43733 13.0622 7.488ZM19.2862 7.488C19.2862 7.008 19.1635 6.63467 18.9182 6.368C18.6729 6.10133 18.3582 5.968 17.9742 5.968C17.5902 5.968 17.2755 6.10133 17.0302 6.368C16.7849 6.63467 16.6622 7.008 16.6622 7.488C16.6622 7.968 16.7849 8.34133 17.0302 8.608C17.2755 8.87467 17.5902 9.008 17.9742 9.008C18.3582 9.008 18.6729 8.87467 18.9182 8.608C19.1635 8.34133 19.2862 7.968 19.2862 7.488ZM28.7052 12.112C27.7985 12.112 26.9825 11.9253 26.2572 11.552C25.5319 11.1787 24.9612 10.6453 24.5452 9.952C24.1399 9.248 23.9372 8.42667 23.9372 7.488C23.9372 6.54933 24.1399 5.73333 24.5452 5.04C24.9612 4.336 25.5319 3.79733 26.2572 3.424C26.9825 3.05067 27.7985 2.864 28.7052 2.864C29.6119 2.864 30.4279 3.05067 31.1532 3.424C31.8785 3.79733 32.4439 4.336 32.8492 5.04C33.2652 5.73333 33.4732 6.54933 33.4732 7.488C33.4732 8.42667 33.2652 9.248 32.8492 9.952C32.4439 10.6453 31.8785 11.1787 31.1532 11.552C30.4279 11.9253 29.6119 12.112 28.7052 12.112ZM28.7052 9.04C29.0359 9.04 29.3132 8.912 29.5372 8.656C29.7612 8.38933 29.8732 8 29.8732 7.488C29.8732 6.976 29.7612 6.592 29.5372 6.336C29.3132 6.06933 29.0359 5.936 28.7052 5.936C28.3745 5.936 28.0972 6.06933 27.8732 6.336C27.6492 6.592 27.5372 6.976 27.5372 7.488C27.5372 8 27.6439 8.38933 27.8572 8.656C28.0812 8.912 28.3639 9.04 28.7052 9.04ZM38.1411 4.208C38.3651 3.792 38.6851 3.46667 39.1011 3.232C39.5277 2.98667 40.0344 2.864 40.6211 2.864C41.3251 2.864 41.9597 3.05067 42.5251 3.424C43.0904 3.78667 43.5331 4.32 43.8531 5.024C44.1837 5.71733 44.3491 6.53867 44.3491 7.488C44.3491 8.43733 44.1837 9.264 43.8531 9.968C43.5331 10.6613 43.0904 11.1947 42.5251 11.568C41.9597 11.9307 41.3251 12.112 40.6211 12.112C40.0344 12.112 39.5277 11.9947 39.1011 11.76C38.6851 11.5147 38.3651 11.184 38.1411 10.768V16.32H34.5891V2.976H38.1411V4.208ZM40.7491 7.488C40.7491 7.008 40.6264 6.63467 40.3811 6.368C40.1357 6.10133 39.8211 5.968 39.4371 5.968C39.0531 5.968 38.7384 6.10133 38.4931 6.368C38.2477 6.63467 38.1251 7.008 38.1251 7.488C38.1251 7.968 38.2477 8.34133 38.4931 8.608C38.7384 8.87467 39.0531 9.008 39.4371 9.008C39.8211 9.008 40.1357 8.87467 40.3811 8.608C40.6264 8.34133 40.7491 7.968 40.7491 7.488ZM51.0801 8.976V12H49.7361C47.2614 12 46.0241 10.768 46.0241 8.304V5.936H44.9041V2.976H46.0241V0.799999H49.5761V2.976H51.0481V5.936H49.5761V8.368C49.5761 8.58133 49.6241 8.736 49.7201 8.832C49.8267 8.928 49.9974 8.976 50.2321 8.976H51.0801Z"/>
</mask>
<path d="M8.43119 10.288H4.65519L4.09519 12H0.367188L4.51119 0.672H8.60719L12.7352 12H8.99119L8.43119 10.288ZM7.56719 7.616L6.54319 4.464L5.51919 7.616H7.56719ZM13.0622 7.488C13.0622 6.53867 13.2222 5.71733 13.5422 5.024C13.8729 4.32 14.3209 3.78667 14.8862 3.424C15.4515 3.05067 16.0862 2.864 16.7902 2.864C17.3769 2.864 17.8782 2.98667 18.2942 3.232C18.7209 3.46667 19.0462 3.792 19.2702 4.208V0.16H22.8222V12H19.2702V10.768C19.0462 11.184 18.7209 11.5147 18.2942 11.76C17.8782 11.9947 17.3769 12.112 16.7902 12.112C16.0862 12.112 15.4515 11.9307 14.8862 11.568C14.3209 11.1947 13.8729 10.6613 13.5422 9.968C13.2222 9.264 13.0622 8.43733 13.0622 7.488ZM19.2862 7.488C19.2862 7.008 19.1635 6.63467 18.9182 6.368C18.6729 6.10133 18.3582 5.968 17.9742 5.968C17.5902 5.968 17.2755 6.10133 17.0302 6.368C16.7849 6.63467 16.6622 7.008 16.6622 7.488C16.6622 7.968 16.7849 8.34133 17.0302 8.608C17.2755 8.87467 17.5902 9.008 17.9742 9.008C18.3582 9.008 18.6729 8.87467 18.9182 8.608C19.1635 8.34133 19.2862 7.968 19.2862 7.488ZM28.7052 12.112C27.7985 12.112 26.9825 11.9253 26.2572 11.552C25.5319 11.1787 24.9612 10.6453 24.5452 9.952C24.1399 9.248 23.9372 8.42667 23.9372 7.488C23.9372 6.54933 24.1399 5.73333 24.5452 5.04C24.9612 4.336 25.5319 3.79733 26.2572 3.424C26.9825 3.05067 27.7985 2.864 28.7052 2.864C29.6119 2.864 30.4279 3.05067 31.1532 3.424C31.8785 3.79733 32.4439 4.336 32.8492 5.04C33.2652 5.73333 33.4732 6.54933 33.4732 7.488C33.4732 8.42667 33.2652 9.248 32.8492 9.952C32.4439 10.6453 31.8785 11.1787 31.1532 11.552C30.4279 11.9253 29.6119 12.112 28.7052 12.112ZM28.7052 9.04C29.0359 9.04 29.3132 8.912 29.5372 8.656C29.7612 8.38933 29.8732 8 29.8732 7.488C29.8732 6.976 29.7612 6.592 29.5372 6.336C29.3132 6.06933 29.0359 5.936 28.7052 5.936C28.3745 5.936 28.0972 6.06933 27.8732 6.336C27.6492 6.592 27.5372 6.976 27.5372 7.488C27.5372 8 27.6439 8.38933 27.8572 8.656C28.0812 8.912 28.3639 9.04 28.7052 9.04ZM38.1411 4.208C38.3651 3.792 38.6851 3.46667 39.1011 3.232C39.5277 2.98667 40.0344 2.864 40.6211 2.864C41.3251 2.864 41.9597 3.05067 42.5251 3.424C43.0904 3.78667 43.5331 4.32 43.8531 5.024C44.1837 5.71733 44.3491 6.53867 44.3491 7.488C44.3491 8.43733 44.1837 9.264 43.8531 9.968C43.5331 10.6613 43.0904 11.1947 42.5251 11.568C41.9597 11.9307 41.3251 12.112 40.6211 12.112C40.0344 12.112 39.5277 11.9947 39.1011 11.76C38.6851 11.5147 38.3651 11.184 38.1411 10.768V16.32H34.5891V2.976H38.1411V4.208ZM40.7491 7.488C40.7491 7.008 40.6264 6.63467 40.3811 6.368C40.1357 6.10133 39.8211 5.968 39.4371 5.968C39.0531 5.968 38.7384 6.10133 38.4931 6.368C38.2477 6.63467 38.1251 7.008 38.1251 7.488C38.1251 7.968 38.2477 8.34133 38.4931 8.608C38.7384 8.87467 39.0531 9.008 39.4371 9.008C39.8211 9.008 40.1357 8.87467 40.3811 8.608C40.6264 8.34133 40.7491 7.968 40.7491 7.488ZM51.0801 8.976V12H49.7361C47.2614 12 46.0241 10.768 46.0241 8.304V5.936H44.9041V2.976H46.0241V0.799999H49.5761V2.976H51.0481V5.936H49.5761V8.368C49.5761 8.58133 49.6241 8.736 49.7201 8.832C49.8267 8.928 49.9974 8.976 50.2321 8.976H51.0801Z" fill="white"/>
<path d="M8.43119 10.288L9.38163 9.97711L9.15622 9.288H8.43119V10.288ZM4.65519 10.288V9.288H3.93015L3.70474 9.97711L4.65519 10.288ZM4.09519 12V13H4.82022L5.04563 12.3109L4.09519 12ZM0.367188 12L-0.571946 11.6564L-1.06344 13H0.367188V12ZM4.51119 0.672V-0.328H3.8122L3.57205 0.328447L4.51119 0.672ZM8.60719 0.672L9.54675 0.329618L9.30711 -0.328H8.60719V0.672ZM12.7352 12V13H14.1639L13.6747 11.6576L12.7352 12ZM8.99119 12L8.04074 12.3109L8.26615 13H8.99119V12ZM7.56719 7.616V8.616H8.94351L8.51826 7.30702L7.56719 7.616ZM6.54319 4.464L7.49426 4.15502L6.54319 1.22751L5.59212 4.15502L6.54319 4.464ZM5.51919 7.616L4.56812 7.30702L4.14287 8.616H5.51919V7.616ZM8.43119 9.288H4.65519V11.288H8.43119V9.288ZM3.70474 9.97711L3.14474 11.6891L5.04563 12.3109L5.60563 10.5989L3.70474 9.97711ZM4.09519 11H0.367188V13H4.09519V11ZM1.30632 12.3436L5.45032 1.01555L3.57205 0.328447L-0.571946 11.6564L1.30632 12.3436ZM4.51119 1.672H8.60719V-0.328H4.51119V1.672ZM7.66763 1.01438L11.7956 12.3424L13.6747 11.6576L9.54675 0.329618L7.66763 1.01438ZM12.7352 11H8.99119V13H12.7352V11ZM9.94163 11.6891L9.38163 9.97711L7.48074 10.5989L8.04074 12.3109L9.94163 11.6891ZM8.51826 7.30702L7.49426 4.15502L5.59212 4.77298L6.61612 7.92498L8.51826 7.30702ZM5.59212 4.15502L4.56812 7.30702L6.47026 7.92498L7.49426 4.77298L5.59212 4.15502ZM5.51919 8.616H7.56719V6.616H5.51919V8.616ZM13.5422 5.024L12.637 4.59885L12.6342 4.60494L13.5422 5.024ZM14.8862 3.424L15.4262 4.26577L15.4372 4.25846L14.8862 3.424ZM18.2942 3.232L17.7862 4.09336L17.7991 4.10099L17.8123 4.10822L18.2942 3.232ZM19.2702 4.208L18.3897 4.6821L20.2702 4.208H19.2702ZM19.2702 0.16V-0.84H18.2702V0.16H19.2702ZM22.8222 0.16H23.8222V-0.84H22.8222V0.16ZM22.8222 12V13H23.8222V12H22.8222ZM19.2702 12H18.2702V13H19.2702V12ZM19.2702 10.768H20.2702L18.3897 10.2939L19.2702 10.768ZM18.2942 11.76L18.7855 12.631L18.7927 12.6269L18.2942 11.76ZM14.8862 11.568L14.3351 12.4025L14.3462 12.4097L14.8862 11.568ZM13.5422 9.968L12.6318 10.3818L12.6356 10.3902L12.6396 10.3985L13.5422 9.968ZM18.9182 6.368L19.6541 5.69094H19.6541L18.9182 6.368ZM17.0302 6.368L16.2943 5.69094L17.0302 6.368ZM14.0622 7.488C14.0622 6.64911 14.2037 5.9771 14.4501 5.44306L12.6342 4.60494C12.2407 5.45756 12.0622 6.42823 12.0622 7.488H14.0622ZM14.4473 5.44914C14.7108 4.88813 15.0431 4.51143 15.4261 4.26569L14.3462 2.58231C13.5986 3.0619 13.0349 3.75187 12.6371 4.59886L14.4473 5.44914ZM15.4372 4.25846C15.8324 3.99749 16.274 3.864 16.7902 3.864V1.864C15.8984 1.864 15.0706 2.10385 14.3351 2.58954L15.4372 4.25846ZM16.7902 3.864C17.2365 3.864 17.5541 3.95647 17.7862 4.09336L18.8022 2.37063C18.2023 2.01687 17.5172 1.864 16.7902 1.864V3.864ZM17.8123 4.10822C18.0756 4.25304 18.26 4.44114 18.3897 4.6821L20.1507 3.7339C19.8324 3.14286 19.3661 2.68029 18.7761 2.35578L17.8123 4.10822ZM20.2702 4.208V0.16H18.2702V4.208H20.2702ZM19.2702 1.16H22.8222V-0.84H19.2702V1.16ZM21.8222 0.16V12H23.8222V0.16H21.8222ZM22.8222 11H19.2702V13H22.8222V11ZM20.2702 12V10.768H18.2702V12H20.2702ZM18.3897 10.2939C18.2578 10.5389 18.068 10.7365 17.7957 10.8931L18.7927 12.6269C19.3737 12.2928 19.8346 11.8291 20.1507 11.2421L18.3897 10.2939ZM17.8029 10.889C17.5674 11.0218 17.2437 11.112 16.7902 11.112V13.112C17.51 13.112 18.1889 12.9675 18.7855 12.631L17.8029 10.889ZM16.7902 11.112C16.2679 11.112 15.8224 10.9805 15.4261 10.7263L14.3462 12.4097C15.0807 12.8808 15.9044 13.112 16.7902 13.112V11.112ZM15.4372 10.7335C15.0431 10.4733 14.7079 10.0892 14.4448 9.53753L12.6396 10.3985C13.0378 11.2335 13.5986 11.9161 14.3351 12.4025L15.4372 10.7335ZM14.4526 9.5542C14.2035 9.00623 14.0622 8.32631 14.0622 7.488H12.0622C12.0622 8.54835 12.2409 9.52177 12.6318 10.3818L14.4526 9.5542ZM20.2862 7.488C20.2862 6.84046 20.1183 6.19548 19.6541 5.69094L18.1823 7.04506C18.2087 7.07385 18.2862 7.17554 18.2862 7.488H20.2862ZM19.6541 5.69094C19.2071 5.20501 18.6191 4.968 17.9742 4.968V6.968C18.0973 6.968 18.1386 6.99765 18.1823 7.04506L19.6541 5.69094ZM17.9742 4.968C17.3293 4.968 16.7413 5.20501 16.2943 5.69094L17.7661 7.04506C17.8097 6.99765 17.8511 6.968 17.9742 6.968V4.968ZM16.2943 5.69094C15.8301 6.19548 15.6622 6.84046 15.6622 7.488H17.6622C17.6622 7.17554 17.7396 7.07385 17.7661 7.04506L16.2943 5.69094ZM15.6622 7.488C15.6622 8.13554 15.8301 8.78052 16.2943 9.28506L17.7661 7.93094C17.7396 7.90215 17.6622 7.80046 17.6622 7.488H15.6622ZM16.2943 9.28506C16.7413 9.77099 17.3293 10.008 17.9742 10.008V8.008C17.8511 8.008 17.8097 7.97835 17.7661 7.93094L16.2943 9.28506ZM17.9742 10.008C18.6191 10.008 19.2071 9.77099 19.6541 9.28506L18.1823 7.93094C18.1386 7.97835 18.0973 8.008 17.9742 8.008V10.008ZM19.6541 9.28506C20.1183 8.78052 20.2862 8.13554 20.2862 7.488H18.2862C18.2862 7.80046 18.2087 7.90215 18.1823 7.93094L19.6541 9.28506ZM26.2572 11.552L26.7148 10.6629L26.2572 11.552ZM24.5452 9.952L23.6786 10.451L23.6831 10.4588L23.6877 10.4665L24.5452 9.952ZM24.5452 5.04L23.6843 4.53126L23.6819 4.5353L24.5452 5.04ZM26.2572 3.424L26.7148 4.31314V4.31314L26.2572 3.424ZM31.1532 3.424L30.6955 4.31314L30.6955 4.31314L31.1532 3.424ZM32.8492 5.04L31.9826 5.53896L31.9871 5.54677L31.9917 5.5545L32.8492 5.04ZM32.8492 9.952L31.9883 9.44326L31.9859 9.4473L32.8492 9.952ZM31.1532 11.552L30.6955 10.6629L31.1532 11.552ZM29.5372 8.656L30.2898 9.3145L30.2964 9.30691L30.3029 9.29919L29.5372 8.656ZM29.5372 6.336L28.7715 6.97919L28.778 6.98691L28.7846 6.9945L29.5372 6.336ZM27.8732 6.336L28.6258 6.9945L28.6324 6.98691L28.6389 6.97919L27.8732 6.336ZM27.8572 8.656L27.0763 9.28069L27.0901 9.29791L27.1046 9.3145L27.8572 8.656ZM28.7052 11.112C27.9397 11.112 27.2834 10.9555 26.7148 10.6629L25.7995 12.4411C26.6816 12.8951 27.6573 13.112 28.7052 13.112V11.112ZM26.7148 10.6629C26.1535 10.3739 25.722 9.96966 25.4027 9.4375L23.6877 10.4665C24.2004 11.321 24.9102 11.9834 25.7995 12.4411L26.7148 10.6629ZM25.4118 9.45304C25.1067 8.92304 24.9372 8.2791 24.9372 7.488H22.9372C22.9372 8.57423 23.173 9.57296 23.6786 10.451L25.4118 9.45304ZM24.9372 7.488C24.9372 6.69647 25.1068 6.06075 25.4085 5.5447L23.6819 4.5353C23.1729 5.40592 22.9372 6.4022 22.9372 7.488H24.9372ZM25.4061 5.54873C25.7265 5.00659 26.1575 4.59999 26.7148 4.31314L25.7995 2.53486C24.9062 2.99468 24.1959 3.66541 23.6843 4.53127L25.4061 5.54873ZM26.7148 4.31314C27.2834 4.02047 27.9397 3.864 28.7052 3.864V1.864C27.6573 1.864 26.6816 2.08086 25.7995 2.53486L26.7148 4.31314ZM28.7052 3.864C29.4707 3.864 30.1269 4.02047 30.6955 4.31314L31.6108 2.53486C30.7288 2.08086 29.7531 1.864 28.7052 1.864V3.864ZM30.6955 4.31314C31.2506 4.59884 31.6736 5.00239 31.9826 5.53896L33.7158 4.54104C33.2141 3.66961 32.5064 2.99582 31.6108 2.53486L30.6955 4.31314ZM31.9917 5.5545C32.3003 6.06886 32.4732 6.70098 32.4732 7.488H34.4732C34.4732 6.39768 34.2301 5.39781 33.7067 4.5255L31.9917 5.5545ZM32.4732 7.488C32.4732 8.27461 32.3004 8.91497 31.9883 9.44327L33.7101 10.4607C34.2299 9.58103 34.4732 8.57872 34.4732 7.488H32.4732ZM31.9859 9.4473C31.6781 9.97383 31.2547 10.3751 30.6955 10.6629L31.6108 12.4411C32.5024 11.9823 33.2096 11.3168 33.7125 10.4567L31.9859 9.4473ZM30.6955 10.6629C30.1269 10.9555 29.4707 11.112 28.7052 11.112V13.112C29.7531 13.112 30.7288 12.8951 31.6108 12.4411L30.6955 10.6629ZM28.7052 10.04C29.3336 10.04 29.8821 9.78039 30.2898 9.3145L28.7846 7.9975C28.7689 8.01551 28.7574 8.02532 28.7511 8.03012C28.7451 8.03475 28.7422 8.036 28.7421 8.03604C28.7421 8.03605 28.741 8.03665 28.7372 8.03745C28.7331 8.03831 28.723 8.04 28.7052 8.04V10.04ZM30.3029 9.29919C30.7354 8.78436 30.8732 8.1278 30.8732 7.488H28.8732C28.8732 7.8722 28.787 7.99431 28.7715 8.01281L30.3029 9.29919ZM30.8732 7.488C30.8732 6.85222 30.737 6.18862 30.2898 5.6775L28.7846 6.9945C28.7854 6.99538 28.8732 7.09978 28.8732 7.488H30.8732ZM30.3029 5.69281C29.9005 5.21372 29.3488 4.936 28.7052 4.936V6.936C28.7203 6.936 28.7276 6.93748 28.729 6.93779C28.7301 6.93804 28.7292 6.93789 28.7279 6.93725C28.7267 6.93667 28.7291 6.93759 28.7355 6.94268C28.7421 6.94797 28.7545 6.95898 28.7715 6.97919L30.3029 5.69281ZM28.7052 4.936C28.0616 4.936 27.5099 5.21372 27.1075 5.69281L28.6389 6.97919C28.6559 6.95898 28.6682 6.94797 28.6749 6.94268C28.6812 6.93759 28.6837 6.93667 28.6825 6.93725C28.6812 6.93789 28.6802 6.93804 28.6814 6.93779C28.6828 6.93748 28.6901 6.936 28.7052 6.936V4.936ZM27.1206 5.6775C26.6734 6.18862 26.5372 6.85222 26.5372 7.488H28.5372C28.5372 7.09978 28.625 6.99538 28.6258 6.9945L27.1206 5.6775ZM26.5372 7.488C26.5372 8.11845 26.6656 8.76728 27.0763 9.28069L28.6381 8.0313C28.6221 8.01138 28.5372 7.88155 28.5372 7.488H26.5372ZM27.1046 9.3145C27.5192 9.78838 28.0766 10.04 28.7052 10.04V8.04C28.6826 8.04 28.6685 8.0379 28.6611 8.0364C28.6541 8.03495 28.6508 8.03356 28.6497 8.03305C28.6486 8.03253 28.6456 8.03112 28.6402 8.02703C28.6346 8.02278 28.6242 8.01397 28.6098 7.9975L27.1046 9.3145ZM38.1411 4.208H37.1411L39.0215 4.6821L38.1411 4.208ZM39.1011 3.232L39.5924 4.10301L39.5995 4.09891L39.1011 3.232ZM42.5251 3.424L41.974 4.25854L41.9851 4.26569L42.5251 3.424ZM43.8531 5.024L42.9427 5.4378L42.9465 5.44617L42.9505 5.45447L43.8531 5.024ZM43.8531 9.968L42.9479 9.54285L42.9451 9.54894L43.8531 9.968ZM42.5251 11.568L43.0651 12.4098L43.0761 12.4025L42.5251 11.568ZM39.1011 11.76L38.5931 12.6214L38.606 12.629L38.6191 12.6362L39.1011 11.76ZM38.1411 10.768L39.0215 10.2939L37.1411 10.768H38.1411ZM38.1411 16.32V17.32H39.1411V16.32H38.1411ZM34.5891 16.32H33.5891V17.32H34.5891V16.32ZM34.5891 2.976V1.976H33.5891V2.976H34.5891ZM38.1411 2.976H39.1411V1.976H38.1411V2.976ZM40.3811 6.368L41.117 5.69094L40.3811 6.368ZM38.4931 6.368L37.7571 5.69094L37.7571 5.69094L38.4931 6.368ZM38.4931 8.608L37.7571 9.28506L38.4931 8.608ZM39.0215 4.6821C39.1549 4.43442 39.3391 4.24586 39.5924 4.10298L38.6097 2.36102C38.031 2.68748 37.5752 3.14958 37.2606 3.7339L39.0215 4.6821ZM39.5995 4.09891C39.8478 3.95615 40.1757 3.864 40.6211 3.864V1.864C39.8931 1.864 39.2077 2.01718 38.6026 2.36509L39.5995 4.09891ZM40.6211 3.864C41.1372 3.864 41.5788 3.99749 41.974 4.25846L43.0761 2.58954C42.3407 2.10385 41.5129 1.864 40.6211 1.864V3.864ZM41.9851 4.26569C42.3649 4.50935 42.69 4.88194 42.9427 5.4378L44.7634 4.6102C44.3761 3.75806 43.8159 3.06399 43.065 2.5823L41.9851 4.26569ZM42.9505 5.45447C43.2037 5.98547 43.3491 6.65328 43.3491 7.488H45.3491C45.3491 6.42405 45.1638 5.4492 44.7557 4.59353L42.9505 5.45447ZM43.3491 7.488C43.3491 8.32215 43.2039 8.99792 42.9479 9.54286L44.7582 10.3931C45.1636 9.53008 45.3491 8.55252 45.3491 7.488H43.3491ZM42.9451 9.54894C42.6929 10.0954 42.3649 10.4754 41.974 10.7335L43.0761 12.4025C43.8159 11.914 44.3732 11.2273 44.761 10.3871L42.9451 9.54894ZM41.9851 10.7263C41.5889 10.9805 41.1433 11.112 40.6211 11.112V13.112C41.5068 13.112 42.3306 12.8808 43.065 12.4097L41.9851 10.7263ZM40.6211 11.112C40.1685 11.112 39.8346 11.0222 39.583 10.8838L38.6191 12.6362C39.2209 12.9672 39.9003 13.112 40.6211 13.112V11.112ZM39.609 10.8986C39.3465 10.7438 39.157 10.5455 39.0215 10.2939L37.2606 11.2421C37.5731 11.8225 38.0236 12.2855 38.5931 12.6214L39.609 10.8986ZM37.1411 10.768V16.32H39.1411V10.768H37.1411ZM38.1411 15.32H34.5891V17.32H38.1411V15.32ZM35.5891 16.32V2.976H33.5891V16.32H35.5891ZM34.5891 3.976H38.1411V1.976H34.5891V3.976ZM37.1411 2.976V4.208H39.1411V2.976H37.1411ZM41.7491 7.488C41.7491 6.84046 41.5812 6.19548 41.117 5.69094L39.6451 7.04506C39.6716 7.07385 39.7491 7.17554 39.7491 7.488H41.7491ZM41.117 5.69094C40.6699 5.20501 40.0819 4.968 39.4371 4.968V6.968C39.5602 6.968 39.6015 6.99765 39.6451 7.04506L41.117 5.69094ZM39.4371 4.968C38.7922 4.968 38.2042 5.20501 37.7571 5.69094L39.229 7.04506C39.2726 6.99765 39.3139 6.968 39.4371 6.968V4.968ZM37.7571 5.69094C37.293 6.19548 37.1251 6.84046 37.1251 7.488H39.1251C39.1251 7.17554 39.2025 7.07385 39.229 7.04506L37.7571 5.69094ZM37.1251 7.488C37.1251 8.13554 37.293 8.78052 37.7571 9.28506L39.229 7.93094C39.2025 7.90215 39.1251 7.80046 39.1251 7.488H37.1251ZM37.7571 9.28506C38.2042 9.77099 38.7922 10.008 39.4371 10.008V8.008C39.3139 8.008 39.2726 7.97835 39.229 7.93094L37.7571 9.28506ZM39.4371 10.008C40.0819 10.008 40.6699 9.77099 41.117 9.28506L39.6451 7.93094C39.6015 7.97835 39.5602 8.008 39.4371 8.008V10.008ZM41.117 9.28506C41.5812 8.78052 41.7491 8.13554 41.7491 7.488H39.7491C39.7491 7.80046 39.6716 7.90215 39.6451 7.93094L41.117 9.28506ZM51.0801 8.976H52.0801V7.976H51.0801V8.976ZM51.0801 12V13H52.0801V12H51.0801ZM46.0241 5.936H47.0241V4.936H46.0241V5.936ZM44.9041 5.936H43.9041V6.936H44.9041V5.936ZM44.9041 2.976V1.976H43.9041V2.976H44.9041ZM46.0241 2.976V3.976H47.0241V2.976H46.0241ZM46.0241 0.799999V-0.200001H45.0241V0.799999H46.0241ZM49.5761 0.799999H50.5761V-0.200001H49.5761V0.799999ZM49.5761 2.976H48.5761V3.976H49.5761V2.976ZM51.0481 2.976H52.0481V1.976H51.0481V2.976ZM51.0481 5.936V6.936H52.0481V5.936H51.0481ZM49.5761 5.936V4.936H48.5761V5.936H49.5761ZM49.7201 8.832L49.013 9.53911L49.0316 9.5577L49.0511 9.57529L49.7201 8.832ZM50.0801 8.976V12H52.0801V8.976H50.0801ZM51.0801 11H49.7361V13H51.0801V11ZM49.7361 11C48.6518 11 48.0225 10.7306 47.6576 10.3674C47.2936 10.0049 47.0241 9.38076 47.0241 8.304H45.0241C45.0241 9.69124 45.3732 10.9151 46.2465 11.7846C47.119 12.6534 48.3457 13 49.7361 13V11ZM47.0241 8.304V5.936H45.0241V8.304H47.0241ZM46.0241 4.936H44.9041V6.936H46.0241V4.936ZM45.9041 5.936V2.976H43.9041V5.936H45.9041ZM44.9041 3.976H46.0241V1.976H44.9041V3.976ZM47.0241 2.976V0.799999H45.0241V2.976H47.0241ZM46.0241 1.8H49.5761V-0.200001H46.0241V1.8ZM48.5761 0.799999V2.976H50.5761V0.799999H48.5761ZM49.5761 3.976H51.0481V1.976H49.5761V3.976ZM50.0481 2.976V5.936H52.0481V2.976H50.0481ZM51.0481 4.936H49.5761V6.936H51.0481V4.936ZM48.5761 5.936V8.368H50.5761V5.936H48.5761ZM48.5761 8.368C48.5761 8.69962 48.6463 9.17241 49.013 9.53911L50.4272 8.12489C50.5141 8.21182 50.5523 8.29969 50.5671 8.3476C50.5806 8.39115 50.5761 8.40408 50.5761 8.368H48.5761ZM49.0511 9.57529C49.4274 9.91397 49.8977 9.976 50.2321 9.976V7.976C50.1786 7.976 50.1729 7.97005 50.1988 7.97735C50.2272 7.98533 50.3045 8.01266 50.389 8.08871L49.0511 9.57529ZM50.2321 9.976H51.0801V7.976H50.2321V9.976Z" fill="black" mask="url(#path-1-outside-1_32648_348394)"/>
</g>
<defs>
<filter id="filter0_d_32648_348394" x="0.367188" y="0.159973" width="51.7129" height="17.16" filterUnits="userSpaceOnUse" color-interpolation-filters="sRGB">
<feFlood flood-opacity="0" result="BackgroundImageFix"/>
<feColorMatrix in="SourceAlpha" type="matrix" values="0 0 0 0 0 0 0 0 0 0 0 0 0 0 0 0 0 0 127 0" result="hardAlpha"/>
<feOffset dx="1" dy="1"/>
<feComposite in2="hardAlpha" operator="out"/>
<feColorMatrix type="matrix" values="0 0 0 0 0 0 0 0 0 0 0 0 0 0 0 0 0 0 1 0"/>
<feBlend mode="normal" in2="BackgroundImageFix" result="effect1_dropShadow_32648_348394"/>
<feBlend mode="normal" in="SourceGraphic" in2="effect1_dropShadow_32648_348394" result="shape"/>
</filter>
</defs>
</svg>
