<svg width="70" height="16" viewBox="0 0 70 16" fill="none" xmlns="http://www.w3.org/2000/svg">
<g filter="url(#filter0_d_32638_341384)">
<mask id="path-1-outside-1_32638_341384" maskUnits="userSpaceOnUse" x="-1" y="-1" width="71" height="17" fill="black">
<rect fill="white" x="-1" y="-1" width="71" height="17"/>
<path d="M0.7925 8.32C0.7925 7.2 1.0165 6.20267 1.4645 5.328C1.92317 4.45333 2.57383 3.776 3.4165 3.296C4.25917 2.80533 5.25117 2.56 6.3925 2.56C7.37383 2.56 8.2485 2.74667 9.0165 3.12C9.79517 3.48267 10.4245 4 10.9045 4.672C11.3952 5.344 11.7205 6.128 11.8805 7.024H8.1365C7.96583 6.65067 7.7205 6.36267 7.4005 6.16C7.09117 5.94667 6.73383 5.84 6.3285 5.84C5.73117 5.84 5.2565 6.064 4.9045 6.512C4.56317 6.96 4.3925 7.56267 4.3925 8.32C4.3925 9.07733 4.56317 9.68 4.9045 10.128C5.2565 10.576 5.73117 10.8 6.3285 10.8C6.73383 10.8 7.09117 10.6987 7.4005 10.496C7.7205 10.2827 7.96583 9.98933 8.1365 9.616H11.8805C11.7205 10.512 11.3952 11.296 10.9045 11.968C10.4245 12.64 9.79517 13.1627 9.0165 13.536C8.2485 13.8987 7.37383 14.08 6.3925 14.08C5.25117 14.08 4.25917 13.84 3.4165 13.36C2.57383 12.8693 1.92317 12.1867 1.4645 11.312C1.0165 10.4373 0.7925 9.44 0.7925 8.32ZM17.4474 14.112C16.5407 14.112 15.7247 13.9253 14.9994 13.552C14.274 13.1787 13.7034 12.6453 13.2874 11.952C12.882 11.248 12.6794 10.4267 12.6794 9.488C12.6794 8.54933 12.882 7.73333 13.2874 7.04C13.7034 6.336 14.274 5.79733 14.9994 5.424C15.7247 5.05067 16.5407 4.864 17.4474 4.864C18.354 4.864 19.17 5.05067 19.8954 5.424C20.6207 5.79733 21.186 6.336 21.5914 7.04C22.0074 7.73333 22.2154 8.54933 22.2154 9.488C22.2154 10.4267 22.0074 11.248 21.5914 11.952C21.186 12.6453 20.6207 13.1787 19.8954 13.552C19.17 13.9253 18.354 14.112 17.4474 14.112ZM17.4474 11.04C17.778 11.04 18.0554 10.912 18.2794 10.656C18.5034 10.3893 18.6154 10 18.6154 9.488C18.6154 8.976 18.5034 8.592 18.2794 8.336C18.0554 8.06933 17.778 7.936 17.4474 7.936C17.1167 7.936 16.8394 8.06933 16.6154 8.336C16.3914 8.592 16.2794 8.976 16.2794 9.488C16.2794 10 16.386 10.3893 16.5994 10.656C16.8234 10.912 17.106 11.04 17.4474 11.04ZM29.6513 4.912C30.6859 4.912 31.4913 5.25867 32.0673 5.952C32.6539 6.64533 32.9473 7.584 32.9473 8.768V14H29.4113V9.216C29.4113 8.78933 29.2939 8.45333 29.0593 8.208C28.8353 7.952 28.5313 7.824 28.1473 7.824C27.7526 7.824 27.4433 7.952 27.2193 8.208C26.9953 8.45333 26.8833 8.78933 26.8833 9.216V14H23.3313V4.976H26.8833V6.352C27.1606 5.92533 27.5286 5.57867 27.9873 5.312C28.4566 5.04533 29.0113 4.912 29.6513 4.912ZM39.6875 4.336C39.4955 4.31467 39.3622 4.304 39.2875 4.304C39.0208 4.304 38.8182 4.35733 38.6795 4.464C38.5408 4.56 38.4448 4.73067 38.3915 4.976H39.6875V7.936H38.3595V14H34.8075V7.936H33.8475V4.976H34.8075C34.8288 3.80267 35.1968 2.896 35.9115 2.256C36.6368 1.60533 37.6502 1.28 38.9515 1.28C39.1008 1.28 39.3462 1.29067 39.6875 1.312V4.336ZM42.4358 4.256C41.8171 4.256 41.3211 4.09067 40.9478 3.76C40.5744 3.42933 40.3878 3.01333 40.3878 2.512C40.3878 2 40.5744 1.57867 40.9478 1.248C41.3211 0.906666 41.8171 0.735999 42.4358 0.735999C43.0438 0.735999 43.5344 0.906666 43.9078 1.248C44.2811 1.57867 44.4678 2 44.4678 2.512C44.4678 3.01333 44.2811 3.42933 43.9078 3.76C43.5344 4.09067 43.0438 4.256 42.4358 4.256ZM44.1958 4.976V14H40.6438V4.976H44.1958ZM49.352 6.64C49.7147 6.11733 50.1573 5.70133 50.68 5.392C51.2027 5.072 51.7467 4.912 52.312 4.912V8.704H51.304C50.632 8.704 50.136 8.82133 49.816 9.056C49.5067 9.29067 49.352 9.70667 49.352 10.304V14H45.8V4.976H49.352V6.64ZM65.3168 4.912C66.4688 4.912 67.3594 5.25867 67.9888 5.952C68.6288 6.64533 68.9488 7.584 68.9488 8.768V14H65.4128V9.216C65.4128 8.832 65.2954 8.53333 65.0608 8.32C64.8368 8.096 64.5328 7.984 64.1488 7.984C63.7541 7.984 63.4448 8.096 63.2208 8.32C62.9968 8.53333 62.8848 8.832 62.8848 9.216V14H59.3488V9.216C59.3488 8.832 59.2314 8.53333 58.9968 8.32C58.7728 8.096 58.4688 7.984 58.0848 7.984C57.6901 7.984 57.3808 8.096 57.1568 8.32C56.9328 8.53333 56.8208 8.832 56.8208 9.216V14H53.2688V4.976H56.8208V6.192C57.0768 5.808 57.4234 5.49867 57.8608 5.264C58.3088 5.02933 58.8314 4.912 59.4288 4.912C60.0794 4.912 60.6554 5.056 61.1568 5.344C61.6581 5.62133 62.0581 6.016 62.3568 6.528C62.6874 6.05867 63.1088 5.67467 63.6208 5.376C64.1328 5.06667 64.6981 4.912 65.3168 4.912Z"/>
</mask>
<path d="M0.7925 8.32C0.7925 7.2 1.0165 6.20267 1.4645 5.328C1.92317 4.45333 2.57383 3.776 3.4165 3.296C4.25917 2.80533 5.25117 2.56 6.3925 2.56C7.37383 2.56 8.2485 2.74667 9.0165 3.12C9.79517 3.48267 10.4245 4 10.9045 4.672C11.3952 5.344 11.7205 6.128 11.8805 7.024H8.1365C7.96583 6.65067 7.7205 6.36267 7.4005 6.16C7.09117 5.94667 6.73383 5.84 6.3285 5.84C5.73117 5.84 5.2565 6.064 4.9045 6.512C4.56317 6.96 4.3925 7.56267 4.3925 8.32C4.3925 9.07733 4.56317 9.68 4.9045 10.128C5.2565 10.576 5.73117 10.8 6.3285 10.8C6.73383 10.8 7.09117 10.6987 7.4005 10.496C7.7205 10.2827 7.96583 9.98933 8.1365 9.616H11.8805C11.7205 10.512 11.3952 11.296 10.9045 11.968C10.4245 12.64 9.79517 13.1627 9.0165 13.536C8.2485 13.8987 7.37383 14.08 6.3925 14.08C5.25117 14.08 4.25917 13.84 3.4165 13.36C2.57383 12.8693 1.92317 12.1867 1.4645 11.312C1.0165 10.4373 0.7925 9.44 0.7925 8.32ZM17.4474 14.112C16.5407 14.112 15.7247 13.9253 14.9994 13.552C14.274 13.1787 13.7034 12.6453 13.2874 11.952C12.882 11.248 12.6794 10.4267 12.6794 9.488C12.6794 8.54933 12.882 7.73333 13.2874 7.04C13.7034 6.336 14.274 5.79733 14.9994 5.424C15.7247 5.05067 16.5407 4.864 17.4474 4.864C18.354 4.864 19.17 5.05067 19.8954 5.424C20.6207 5.79733 21.186 6.336 21.5914 7.04C22.0074 7.73333 22.2154 8.54933 22.2154 9.488C22.2154 10.4267 22.0074 11.248 21.5914 11.952C21.186 12.6453 20.6207 13.1787 19.8954 13.552C19.17 13.9253 18.354 14.112 17.4474 14.112ZM17.4474 11.04C17.778 11.04 18.0554 10.912 18.2794 10.656C18.5034 10.3893 18.6154 10 18.6154 9.488C18.6154 8.976 18.5034 8.592 18.2794 8.336C18.0554 8.06933 17.778 7.936 17.4474 7.936C17.1167 7.936 16.8394 8.06933 16.6154 8.336C16.3914 8.592 16.2794 8.976 16.2794 9.488C16.2794 10 16.386 10.3893 16.5994 10.656C16.8234 10.912 17.106 11.04 17.4474 11.04ZM29.6513 4.912C30.6859 4.912 31.4913 5.25867 32.0673 5.952C32.6539 6.64533 32.9473 7.584 32.9473 8.768V14H29.4113V9.216C29.4113 8.78933 29.2939 8.45333 29.0593 8.208C28.8353 7.952 28.5313 7.824 28.1473 7.824C27.7526 7.824 27.4433 7.952 27.2193 8.208C26.9953 8.45333 26.8833 8.78933 26.8833 9.216V14H23.3313V4.976H26.8833V6.352C27.1606 5.92533 27.5286 5.57867 27.9873 5.312C28.4566 5.04533 29.0113 4.912 29.6513 4.912ZM39.6875 4.336C39.4955 4.31467 39.3622 4.304 39.2875 4.304C39.0208 4.304 38.8182 4.35733 38.6795 4.464C38.5408 4.56 38.4448 4.73067 38.3915 4.976H39.6875V7.936H38.3595V14H34.8075V7.936H33.8475V4.976H34.8075C34.8288 3.80267 35.1968 2.896 35.9115 2.256C36.6368 1.60533 37.6502 1.28 38.9515 1.28C39.1008 1.28 39.3462 1.29067 39.6875 1.312V4.336ZM42.4358 4.256C41.8171 4.256 41.3211 4.09067 40.9478 3.76C40.5744 3.42933 40.3878 3.01333 40.3878 2.512C40.3878 2 40.5744 1.57867 40.9478 1.248C41.3211 0.906666 41.8171 0.735999 42.4358 0.735999C43.0438 0.735999 43.5344 0.906666 43.9078 1.248C44.2811 1.57867 44.4678 2 44.4678 2.512C44.4678 3.01333 44.2811 3.42933 43.9078 3.76C43.5344 4.09067 43.0438 4.256 42.4358 4.256ZM44.1958 4.976V14H40.6438V4.976H44.1958ZM49.352 6.64C49.7147 6.11733 50.1573 5.70133 50.68 5.392C51.2027 5.072 51.7467 4.912 52.312 4.912V8.704H51.304C50.632 8.704 50.136 8.82133 49.816 9.056C49.5067 9.29067 49.352 9.70667 49.352 10.304V14H45.8V4.976H49.352V6.64ZM65.3168 4.912C66.4688 4.912 67.3594 5.25867 67.9888 5.952C68.6288 6.64533 68.9488 7.584 68.9488 8.768V14H65.4128V9.216C65.4128 8.832 65.2954 8.53333 65.0608 8.32C64.8368 8.096 64.5328 7.984 64.1488 7.984C63.7541 7.984 63.4448 8.096 63.2208 8.32C62.9968 8.53333 62.8848 8.832 62.8848 9.216V14H59.3488V9.216C59.3488 8.832 59.2314 8.53333 58.9968 8.32C58.7728 8.096 58.4688 7.984 58.0848 7.984C57.6901 7.984 57.3808 8.096 57.1568 8.32C56.9328 8.53333 56.8208 8.832 56.8208 9.216V14H53.2688V4.976H56.8208V6.192C57.0768 5.808 57.4234 5.49867 57.8608 5.264C58.3088 5.02933 58.8314 4.912 59.4288 4.912C60.0794 4.912 60.6554 5.056 61.1568 5.344C61.6581 5.62133 62.0581 6.016 62.3568 6.528C62.6874 6.05867 63.1088 5.67467 63.6208 5.376C64.1328 5.06667 64.6981 4.912 65.3168 4.912Z" fill="white"/>
<path d="M1.4645 5.328L0.578839 4.86357L0.574457 4.87212L1.4645 5.328ZM3.4165 3.296L3.91148 4.16496L3.91969 4.16018L3.4165 3.296ZM9.0165 3.12L8.57931 4.01937L8.58677 4.023L8.5943 4.0265L9.0165 3.12ZM10.9045 4.672L10.0907 5.25327L10.0969 5.26169L10.9045 4.672ZM11.8805 7.024V8.024H13.0749L12.8649 6.84821L11.8805 7.024ZM8.1365 7.024L7.22703 7.43976L7.49411 8.024H8.1365V7.024ZM7.4005 6.16L6.83277 6.98321L6.8489 6.99434L6.86545 7.00482L7.4005 6.16ZM4.9045 6.512L4.11818 5.89418L4.11358 5.90003L4.10907 5.90596L4.9045 6.512ZM4.9045 10.128L4.10907 10.734L4.11358 10.74L4.11818 10.7458L4.9045 10.128ZM7.4005 10.496L7.94854 11.3325L7.9552 11.3281L7.4005 10.496ZM8.1365 9.616V8.616H7.49411L7.22703 9.20024L8.1365 9.616ZM11.8805 9.616L12.8649 9.79179L13.0749 8.616H11.8805V9.616ZM10.9045 11.968L10.0968 11.3783L10.0908 11.3868L10.9045 11.968ZM9.0165 13.536L9.44351 14.4403L9.44883 14.4377L9.0165 13.536ZM3.4165 13.36L2.91329 14.2242L2.92155 14.2289L3.4165 13.36ZM1.4645 11.312L0.574416 11.7679L0.57888 11.7764L1.4645 11.312ZM1.7925 8.32C1.7925 7.33623 1.98833 6.49885 2.35454 5.78387L0.574457 4.87212C0.0446652 5.90648 -0.2075 7.06377 -0.2075 8.32H1.7925ZM2.35012 5.79241C2.72167 5.08387 3.23823 4.5484 3.91145 4.16492L2.92155 2.42708C1.90943 3.0036 1.12466 3.82279 0.57888 4.86359L2.35012 5.79241ZM3.91969 4.16018C4.58528 3.77262 5.39753 3.56 6.3925 3.56V1.56C5.1048 1.56 3.93305 1.83805 2.91331 2.43182L3.91969 4.16018ZM6.3925 3.56C7.24498 3.56 7.96651 3.72148 8.57931 4.01937L9.45369 2.22063C8.53049 1.77185 7.50269 1.56 6.3925 1.56V3.56ZM8.5943 4.0265C9.22312 4.31938 9.71515 4.72737 10.0908 5.25324L11.7182 4.09076C11.1339 3.27263 10.3672 2.64596 9.43871 2.2135L8.5943 4.0265ZM10.0969 5.26169C10.4898 5.79977 10.7602 6.43914 10.8961 7.19979L12.8649 6.84821C12.6808 5.81686 12.3006 4.88823 11.7121 4.0823L10.0969 5.26169ZM11.8805 6.024H8.1365V8.024H11.8805V6.024ZM9.04597 6.60824C8.80176 6.07402 8.43305 5.63026 7.93555 5.31518L6.86545 7.00482C7.00795 7.09507 7.12991 7.22731 7.22703 7.43976L9.04597 6.60824ZM7.96823 5.33679C7.47867 4.99915 6.91985 4.84 6.3285 4.84V6.84C6.54781 6.84 6.70367 6.89418 6.83277 6.98321L7.96823 5.33679ZM6.3285 4.84C5.44154 4.84 4.67017 5.19165 4.11818 5.89418L5.69082 7.12982C5.84283 6.93635 6.02079 6.84 6.3285 6.84V4.84ZM4.10907 5.90596C3.59587 6.57952 3.3925 7.41857 3.3925 8.32H5.3925C5.3925 7.70677 5.53046 7.34047 5.69993 7.11804L4.10907 5.90596ZM3.3925 8.32C3.3925 9.22143 3.59587 10.0605 4.10907 10.734L5.69993 9.52196C5.53046 9.29953 5.3925 8.93323 5.3925 8.32H3.3925ZM4.11818 10.7458C4.67017 11.4483 5.44154 11.8 6.3285 11.8V9.8C6.02079 9.8 5.84283 9.70365 5.69082 9.51018L4.11818 10.7458ZM6.3285 11.8C6.90907 11.8 7.46078 11.652 7.94853 11.3325L6.85247 9.65954C6.72155 9.74532 6.5586 9.8 6.3285 9.8V11.8ZM7.9552 11.3281C8.44036 11.0046 8.80346 10.5623 9.04597 10.0318L7.22703 9.20024C7.12821 9.4164 7.00065 9.56072 6.8458 9.66395L7.9552 11.3281ZM8.1365 10.616H11.8805V8.616H8.1365V10.616ZM10.8961 9.44021C10.7602 10.2009 10.4898 10.8402 10.0969 11.3783L11.7121 12.5577C12.3006 11.7518 12.6808 10.8231 12.8649 9.79179L10.8961 9.44021ZM10.0908 11.3868C9.71338 11.9151 9.21791 12.3304 8.58417 12.6343L9.44883 14.4377C10.3724 13.9949 11.1356 13.3649 11.7182 12.5492L10.0908 11.3868ZM8.58949 12.6318C7.97427 12.9223 7.24906 13.08 6.3925 13.08V15.08C7.4986 15.08 8.52273 14.8751 9.44351 14.4402L8.58949 12.6318ZM6.3925 13.08C5.39385 13.08 4.57857 12.8711 3.91145 12.4911L2.92155 14.2289C3.93976 14.8089 5.10848 15.08 6.3925 15.08V13.08ZM3.91969 12.4958C3.24175 12.1011 2.72263 11.558 2.35012 10.8476L0.57888 11.7764C1.12371 12.8154 1.90591 13.6376 2.91331 14.2242L3.91969 12.4958ZM2.35454 10.8561C1.98833 10.1411 1.7925 9.30377 1.7925 8.32H-0.2075C-0.2075 9.57623 0.0446652 10.7335 0.574457 11.7679L2.35454 10.8561ZM14.9994 13.552L15.457 12.6629L14.9994 13.552ZM13.2874 11.952L12.4208 12.451L12.4252 12.4588L12.4299 12.4665L13.2874 11.952ZM13.2874 7.04L12.4264 6.53126L12.4241 6.5353L13.2874 7.04ZM14.9994 5.424L15.457 6.31314L15.457 6.31314L14.9994 5.424ZM19.8954 5.424L19.4377 6.31314L19.4377 6.31314L19.8954 5.424ZM21.5914 7.04L20.7248 7.53896L20.7292 7.54677L20.7339 7.5545L21.5914 7.04ZM21.5914 11.952L20.7304 11.4433L20.7281 11.4473L21.5914 11.952ZM19.8954 13.552L19.4377 12.6629L19.8954 13.552ZM18.2794 10.656L19.032 11.3145L19.0386 11.3069L19.0451 11.2992L18.2794 10.656ZM18.2794 8.336L17.5137 8.97919L17.5202 8.98691L17.5268 8.9945L18.2794 8.336ZM16.6154 8.336L17.368 8.9945L17.3746 8.98691L17.3811 8.97919L16.6154 8.336ZM16.5994 10.656L15.8185 11.2807L15.8323 11.2979L15.8468 11.3145L16.5994 10.656ZM17.4474 13.112C16.6819 13.112 16.0256 12.9555 15.457 12.6629L14.5417 14.4411C15.4238 14.8951 16.3995 15.112 17.4474 15.112V13.112ZM15.457 12.6629C14.8957 12.3739 14.4642 11.9697 14.1449 11.4375L12.4299 12.4665C12.9426 13.321 13.6524 13.9834 14.5417 14.4411L15.457 12.6629ZM14.154 11.453C13.8488 10.923 13.6794 10.2791 13.6794 9.488H11.6794C11.6794 10.5742 11.9152 11.573 12.4208 12.451L14.154 11.453ZM13.6794 9.488C13.6794 8.69647 13.849 8.06075 14.1507 7.5447L12.4241 6.5353C11.9151 7.40592 11.6794 8.4022 11.6794 9.488H13.6794ZM14.1483 7.54873C14.4687 7.00659 14.8997 6.59999 15.457 6.31314L14.5417 4.53486C13.6484 4.99468 12.9381 5.66541 12.4264 6.53127L14.1483 7.54873ZM15.457 6.31314C16.0256 6.02047 16.6819 5.864 17.4474 5.864V3.864C16.3995 3.864 15.4238 4.08086 14.5417 4.53486L15.457 6.31314ZM17.4474 5.864C18.2128 5.864 18.8691 6.02047 19.4377 6.31314L20.353 4.53486C19.471 4.08086 18.4952 3.864 17.4474 3.864V5.864ZM19.4377 6.31314C19.9928 6.59884 20.4158 7.00239 20.7248 7.53896L22.458 6.54104C21.9563 5.66961 21.2486 4.99582 20.353 4.53486L19.4377 6.31314ZM20.7339 7.5545C21.0425 8.06886 21.2154 8.70098 21.2154 9.488H23.2154C23.2154 8.39768 22.9722 7.39781 22.4489 6.5255L20.7339 7.5545ZM21.2154 9.488C21.2154 10.2746 21.0426 10.915 20.7304 11.4433L22.4523 12.4607C22.9721 11.581 23.2154 10.5787 23.2154 9.488H21.2154ZM20.7281 11.4473C20.4203 11.9738 19.9969 12.3751 19.4377 12.6629L20.353 14.4411C21.2445 13.9823 21.9518 13.3168 22.4547 12.4567L20.7281 11.4473ZM19.4377 12.6629C18.8691 12.9555 18.2128 13.112 17.4474 13.112V15.112C18.4952 15.112 19.471 14.8951 20.353 14.4411L19.4377 12.6629ZM17.4474 12.04C18.0757 12.04 18.6243 11.7804 19.032 11.3145L17.5268 9.9975C17.511 10.0155 17.4996 10.0253 17.4933 10.0301C17.4873 10.0347 17.4844 10.036 17.4843 10.036C17.4843 10.0361 17.4832 10.0366 17.4794 10.0374C17.4753 10.0383 17.4652 10.04 17.4474 10.04V12.04ZM19.0451 11.2992C19.4775 10.7844 19.6154 10.1278 19.6154 9.488H17.6154C17.6154 9.8722 17.5292 9.99431 17.5137 10.0128L19.0451 11.2992ZM19.6154 9.488C19.6154 8.85222 19.4792 8.18862 19.032 7.6775L17.5268 8.9945C17.5276 8.99538 17.6154 9.09978 17.6154 9.488H19.6154ZM19.0451 7.69281C18.6427 7.21372 18.091 6.936 17.4474 6.936V8.936C17.4625 8.936 17.4698 8.93748 17.4712 8.93779C17.4723 8.93804 17.4714 8.93789 17.4701 8.93725C17.4689 8.93667 17.4713 8.93759 17.4777 8.94268C17.4843 8.94797 17.4967 8.95898 17.5137 8.97919L19.0451 7.69281ZM17.4474 6.936C16.8038 6.936 16.2521 7.21372 15.8497 7.69281L17.3811 8.97919C17.3981 8.95898 17.4104 8.94797 17.4171 8.94268C17.4234 8.93759 17.4259 8.93667 17.4247 8.93725C17.4234 8.93789 17.4224 8.93804 17.4236 8.93779C17.425 8.93748 17.4323 8.936 17.4474 8.936V6.936ZM15.8628 7.6775C15.4156 8.18862 15.2794 8.85222 15.2794 9.488H17.2794C17.2794 9.09978 17.3672 8.99538 17.368 8.9945L15.8628 7.6775ZM15.2794 9.488C15.2794 10.1184 15.4078 10.7673 15.8185 11.2807L17.3802 10.0313C17.3643 10.0114 17.2794 9.88155 17.2794 9.488H15.2794ZM15.8468 11.3145C16.2614 11.7884 16.8188 12.04 17.4474 12.04V10.04C17.4247 10.04 17.4107 10.0379 17.4033 10.0364C17.3962 10.0349 17.393 10.0336 17.3919 10.033C17.3907 10.0325 17.3878 10.0311 17.3824 10.027C17.3768 10.0228 17.3664 10.014 17.352 9.9975L15.8468 11.3145ZM32.0672 5.952L31.298 6.59105L31.3039 6.59794L32.0672 5.952ZM32.9473 14V15H33.9473V14H32.9473ZM29.4113 14H28.4113V15H29.4113V14ZM29.0592 8.208L28.3067 8.8665L28.3213 8.88319L28.3366 8.89922L29.0592 8.208ZM27.2192 8.208L27.9577 8.88227L27.9649 8.87446L27.9718 8.8665L27.2192 8.208ZM26.8833 14V15H27.8833V14H26.8833ZM23.3312 14H22.3312V15H23.3312V14ZM23.3312 4.976V3.976H22.3312V4.976H23.3312ZM26.8833 4.976H27.8833V3.976H26.8833V4.976ZM26.8833 6.352H25.8833V9.72536L27.7217 6.89699L26.8833 6.352ZM27.9873 5.312L27.4932 4.4425L27.4846 4.44749L27.9873 5.312ZM29.6513 5.912C30.4378 5.912 30.9414 6.1617 31.2981 6.59102L32.8364 5.31298C32.0411 4.35563 30.934 3.912 29.6513 3.912V5.912ZM31.3039 6.59794C31.6964 7.06189 31.9473 7.74753 31.9473 8.768H33.9473C33.9473 7.42047 33.6114 6.22878 32.8306 5.30606L31.3039 6.59794ZM31.9473 8.768V14H33.9473V8.768H31.9473ZM32.9473 13H29.4113V15H32.9473V13ZM30.4113 14V9.216H28.4113V14H30.4113ZM30.4113 9.216C30.4113 8.60105 30.2373 7.99287 29.7819 7.51678L28.3366 8.89922C28.3506 8.9138 28.4113 8.97761 28.4113 9.216H30.4113ZM29.8118 7.54949C29.3723 7.04714 28.7782 6.824 28.1473 6.824V8.824C28.2276 8.824 28.2645 8.83714 28.2752 8.84164C28.2828 8.84486 28.2914 8.84906 28.3067 8.8665L29.8118 7.54949ZM28.1473 6.824C27.5153 6.824 26.9118 7.04079 26.4667 7.54949L27.9718 8.8665C27.9842 8.85238 27.9915 8.8482 28.0016 8.84402C28.0154 8.83831 28.058 8.824 28.1473 8.824V6.824ZM26.4808 7.53373C26.0449 8.01108 25.8833 8.61307 25.8833 9.216H27.8833C27.8833 8.9656 27.9456 8.89559 27.9577 8.88227L26.4808 7.53373ZM25.8833 9.216V14H27.8833V9.216H25.8833ZM26.8833 13H23.3312V15H26.8833V13ZM24.3312 14V4.976H22.3312V14H24.3312ZM23.3312 5.976H26.8833V3.976H23.3312V5.976ZM25.8833 4.976V6.352H27.8833V4.976H25.8833ZM27.7217 6.89699C27.91 6.60731 28.1607 6.3679 28.4899 6.17651L27.4846 4.44749C26.8965 4.78943 26.4112 5.24336 26.0448 5.80701L27.7217 6.89699ZM28.4813 6.18146C28.7742 6.01499 29.1522 5.912 29.6513 5.912V3.912C28.8703 3.912 28.1389 4.07568 27.4932 4.44254L28.4813 6.18146ZM39.6875 4.336L39.5771 5.32988L40.6875 5.45326V4.336H39.6875ZM38.6795 4.464L39.2487 5.28619L39.2693 5.27192L39.2892 5.25662L38.6795 4.464ZM38.3915 4.976L37.4143 4.76357L37.1507 5.976H38.3915V4.976ZM39.6875 4.976H40.6875V3.976H39.6875V4.976ZM39.6875 7.936V8.936H40.6875V7.936H39.6875ZM38.3595 7.936V6.936H37.3595V7.936H38.3595ZM38.3595 14V15H39.3595V14H38.3595ZM34.8075 14H33.8075V15H34.8075V14ZM34.8075 7.936H35.8075V6.936H34.8075V7.936ZM33.8475 7.936H32.8475V8.936H33.8475V7.936ZM33.8475 4.976V3.976H32.8475V4.976H33.8475ZM34.8075 4.976V5.976H35.7895L35.8073 4.99418L34.8075 4.976ZM35.9115 2.256L36.5786 3.00095L36.5793 3.00038L35.9115 2.256ZM39.6875 1.312H40.6875V0.372547L39.7499 0.313947L39.6875 1.312ZM39.7979 3.34212C39.609 3.32112 39.4245 3.304 39.2875 3.304V5.304C39.2853 5.304 39.3064 5.30423 39.3638 5.30882C39.4168 5.31306 39.4872 5.3199 39.5771 5.32988L39.7979 3.34212ZM39.2875 3.304C38.9098 3.304 38.4538 3.37601 38.0698 3.67138L39.2892 5.25662C39.2342 5.29892 39.1925 5.31041 39.19 5.31107C39.1888 5.3114 39.1956 5.30951 39.2124 5.3076C39.2292 5.3057 39.2538 5.304 39.2875 5.304V3.304ZM38.1103 3.64181C37.6813 3.93884 37.4957 4.38934 37.4143 4.76357L39.3687 5.18843C39.3798 5.13713 39.3874 5.13228 39.3751 5.15426C39.3607 5.17983 39.3226 5.23503 39.2487 5.28619L38.1103 3.64181ZM38.3915 5.976H39.6875V3.976H38.3915V5.976ZM38.6875 4.976V7.936H40.6875V4.976H38.6875ZM39.6875 6.936H38.3595V8.936H39.6875V6.936ZM37.3595 7.936V14H39.3595V7.936H37.3595ZM38.3595 13H34.8075V15H38.3595V13ZM35.8075 14V7.936H33.8075V14H35.8075ZM34.8075 6.936H33.8475V8.936H34.8075V6.936ZM34.8475 7.936V4.976H32.8475V7.936H34.8475ZM33.8475 5.976H34.8075V3.976H33.8475V5.976ZM35.8073 4.99418C35.8248 4.03202 36.1161 3.41516 36.5786 3.00095L35.2444 1.51105C34.2776 2.37683 33.8328 3.57332 33.8077 4.95782L35.8073 4.99418ZM36.5793 3.00038C37.0669 2.56289 37.8126 2.28 38.9515 2.28V0.28C37.4877 0.28 36.2067 0.647773 35.2437 1.51162L36.5793 3.00038ZM38.9515 2.28C39.0669 2.28 39.2851 2.2888 39.6251 2.31005L39.7499 0.313947C39.4073 0.292534 39.1348 0.28 38.9515 0.28V2.28ZM38.6875 1.312V4.336H40.6875V1.312H38.6875ZM40.9478 3.76L41.6108 3.01141V3.01141L40.9478 3.76ZM40.9478 1.248L41.6108 1.99659L41.6167 1.99135L41.6225 1.98603L40.9478 1.248ZM43.9077 1.248L43.233 1.98603L43.2388 1.99135L43.2447 1.99659L43.9077 1.248ZM43.9077 3.76L43.2447 3.01141L43.2447 3.01141L43.9077 3.76ZM44.1958 4.976H45.1958V3.976H44.1958V4.976ZM44.1958 14V15H45.1958V14H44.1958ZM40.6437 14H39.6437V15H40.6437V14ZM40.6437 4.976V3.976H39.6437V4.976H40.6437ZM42.4357 3.256C42.0003 3.256 41.7602 3.14371 41.6108 3.01141L40.2847 4.50859C40.882 5.03763 41.6339 5.256 42.4357 5.256V3.256ZM41.6108 3.01141C41.453 2.87168 41.3877 2.7288 41.3877 2.512H39.3877C39.3877 3.29787 39.6958 3.98698 40.2847 4.50859L41.6108 3.01141ZM41.3877 2.512C41.3877 2.27755 41.4582 2.13176 41.6108 1.99659L40.2847 0.499411C39.6907 1.02557 39.3877 1.72245 39.3877 2.512H41.3877ZM41.6225 1.98603C41.7725 1.84889 42.0084 1.736 42.4357 1.736V-0.264001C41.6258 -0.264001 40.8697 -0.0355616 40.273 0.509971L41.6225 1.98603ZM42.4357 1.736C42.8472 1.736 43.0798 1.84598 43.233 1.98603L44.5825 0.509971C43.989 -0.0326493 43.2403 -0.264001 42.4357 -0.264001V1.736ZM43.2447 1.99659C43.3973 2.13176 43.4678 2.27755 43.4678 2.512H45.4678C45.4678 1.72245 45.1648 1.02557 44.5708 0.499411L43.2447 1.99659ZM43.4678 2.512C43.4678 2.7288 43.4025 2.87168 43.2447 3.01141L44.5708 4.50859C45.1597 3.98698 45.4678 3.29787 45.4678 2.512H43.4678ZM43.2447 3.01141C43.0922 3.14647 42.8554 3.256 42.4357 3.256V5.256C43.2321 5.256 43.9766 5.03487 44.5708 4.50859L43.2447 3.01141ZM43.1958 4.976V14H45.1958V4.976H43.1958ZM44.1958 13H40.6437V15H44.1958V13ZM41.6437 14V4.976H39.6437V14H41.6437ZM40.6437 5.976H44.1958V3.976H40.6437V5.976ZM49.352 6.64H48.352V9.83531L50.1736 7.21008L49.352 6.64ZM50.68 5.392L51.1893 6.25258L51.1958 6.24876L51.2022 6.24485L50.68 5.392ZM52.312 4.912H53.312V3.912H52.312V4.912ZM52.312 8.704V9.704H53.312V8.704H52.312ZM49.816 9.056L49.2246 8.24959L49.2181 8.2544L49.2116 8.25931L49.816 9.056ZM49.352 14V15H50.352V14H49.352ZM45.8 14H44.8V15H45.8V14ZM45.8 4.976V3.976H44.8V4.976H45.8ZM49.352 4.976H50.352V3.976H49.352V4.976ZM50.1736 7.21008C50.4582 6.79984 50.7963 6.48518 51.1893 6.25258L50.1707 4.53142C49.5184 4.91748 48.9711 5.43483 48.5304 6.06992L50.1736 7.21008ZM51.2022 6.24485C51.5813 6.01269 51.9464 5.912 52.312 5.912V3.912C51.547 3.912 50.824 4.13131 50.1578 4.53915L51.2022 6.24485ZM51.312 4.912V8.704H53.312V4.912H51.312ZM52.312 7.704H51.304V9.704H52.312V7.704ZM51.304 7.704C50.5523 7.704 49.799 7.82842 49.2246 8.24959L50.4074 9.8624C50.473 9.81424 50.7117 9.704 51.304 9.704V7.704ZM49.2116 8.25931C48.542 8.76732 48.352 9.56627 48.352 10.304H50.352C50.352 10.0857 50.381 9.95779 50.4053 9.89249C50.4262 9.83637 50.4377 9.83952 50.4204 9.85269L49.2116 8.25931ZM48.352 10.304V14H50.352V10.304H48.352ZM49.352 13H45.8V15H49.352V13ZM46.8 14V4.976H44.8V14H46.8ZM45.8 5.976H49.352V3.976H45.8V5.976ZM48.352 4.976V6.64H50.352V4.976H48.352ZM67.9888 5.952L67.2483 6.62413L67.2539 6.63028L67.9888 5.952ZM68.9488 14V15H69.9488V14H68.9488ZM65.4128 14H64.4128V15H65.4128V14ZM65.0608 8.32L64.3536 9.02711L64.3705 9.04393L64.3881 9.05994L65.0608 8.32ZM63.2207 8.32L63.9104 9.04414L63.9192 9.03573L63.9279 9.02711L63.2207 8.32ZM62.8848 14V15H63.8848V14H62.8848ZM59.3488 14H58.3488V15H59.3488V14ZM58.9967 8.32L58.2896 9.02711L58.3065 9.04393L58.3241 9.05994L58.9967 8.32ZM57.1567 8.32L57.8464 9.04414L57.8552 9.03573L57.8639 9.02711L57.1567 8.32ZM56.8208 14V15H57.8208V14H56.8208ZM53.2687 14H52.2687V15H53.2687V14ZM53.2687 4.976V3.976H52.2687V4.976H53.2687ZM56.8208 4.976H57.8208V3.976H56.8208V4.976ZM56.8208 6.192H55.8208V9.49478L57.6528 6.7467L56.8208 6.192ZM57.8607 5.264L57.3967 4.37812L57.3879 4.38284L57.8607 5.264ZM61.1567 5.344L60.6586 6.21111L60.6656 6.21513L60.6727 6.21903L61.1567 5.344ZM62.3568 6.528L61.493 7.03187L62.2775 8.37675L63.1742 7.10395L62.3568 6.528ZM63.6208 5.376L64.1246 6.23978L64.1313 6.2359L64.1379 6.23192L63.6208 5.376ZM65.3167 5.912C66.2568 5.912 66.851 6.18636 67.2483 6.62411L68.7292 5.27989C67.8679 4.33097 66.6807 3.912 65.3167 3.912V5.912ZM67.2539 6.63028C67.683 7.09508 67.9488 7.76863 67.9488 8.768H69.9488C69.9488 7.39937 69.5745 6.19559 68.7236 5.27372L67.2539 6.63028ZM67.9488 8.768V14H69.9488V8.768H67.9488ZM68.9488 13H65.4128V15H68.9488V13ZM66.4128 14V9.216H64.4128V14H66.4128ZM66.4128 9.216C66.4128 8.61463 66.2199 8.02228 65.7334 7.58006L64.3881 9.05994C64.3904 9.06205 64.3908 9.06149 64.394 9.06965C64.3989 9.08205 64.4128 9.12511 64.4128 9.216H66.4128ZM65.7679 7.61289C65.3177 7.16279 64.7379 6.984 64.1488 6.984V8.984C64.2441 8.984 64.2961 8.9979 64.319 9.00634C64.3384 9.01349 64.3463 9.01979 64.3536 9.02711L65.7679 7.61289ZM64.1488 6.984C63.5578 6.984 62.9689 7.15766 62.5136 7.61289L63.9279 9.02711C63.9322 9.02279 63.9389 9.01633 63.9612 9.00827C63.9874 8.99879 64.045 8.984 64.1488 8.984V6.984ZM62.5311 7.59586C62.0631 8.04158 61.8848 8.6288 61.8848 9.216H63.8848C63.8848 9.12014 63.8988 9.07189 63.9051 9.05512C63.9067 9.05083 63.908 9.0481 63.9087 9.04664C63.9091 9.04589 63.9094 9.04539 63.9095 9.0451C63.9097 9.0448 63.9098 9.04467 63.9098 9.04466C63.9098 9.04465 63.9098 9.0447 63.9097 9.0448C63.9096 9.0449 63.9096 9.04499 63.9095 9.04504C63.9094 9.0452 63.9096 9.04491 63.9104 9.04414L62.5311 7.59586ZM61.8848 9.216V14H63.8848V9.216H61.8848ZM62.8848 13H59.3488V15H62.8848V13ZM60.3488 14V9.216H58.3488V14H60.3488ZM60.3488 9.216C60.3488 8.61463 60.1559 8.02228 59.6694 7.58006L58.3241 9.05994C58.3264 9.06205 58.3268 9.06149 58.33 9.06965C58.3349 9.08205 58.3488 9.12511 58.3488 9.216H60.3488ZM59.7039 7.61289C59.2537 7.16279 58.6739 6.984 58.0848 6.984V8.984C58.1801 8.984 58.2321 8.9979 58.255 9.00634C58.2744 9.01349 58.2823 9.01979 58.2896 9.02711L59.7039 7.61289ZM58.0848 6.984C57.4938 6.984 56.9049 7.15766 56.4496 7.61289L57.8639 9.02711C57.8682 9.02279 57.8749 9.01633 57.8972 9.00827C57.9234 8.99879 57.981 8.984 58.0848 8.984V6.984ZM56.4671 7.59586C55.9991 8.04158 55.8208 8.6288 55.8208 9.216H57.8208C57.8208 9.12014 57.8348 9.07189 57.8411 9.05512C57.8427 9.05083 57.844 9.0481 57.8447 9.04664C57.8451 9.04589 57.8454 9.04539 57.8455 9.0451C57.8457 9.0448 57.8458 9.04467 57.8458 9.04466C57.8458 9.04465 57.8458 9.0447 57.8457 9.0448C57.8456 9.0449 57.8456 9.04499 57.8455 9.04504C57.8454 9.0452 57.8456 9.04491 57.8464 9.04414L56.4671 7.59586ZM55.8208 9.216V14H57.8208V9.216H55.8208ZM56.8208 13H53.2687V15H56.8208V13ZM54.2687 14V4.976H52.2687V14H54.2687ZM53.2687 5.976H56.8208V3.976H53.2687V5.976ZM55.8208 4.976V6.192H57.8208V4.976H55.8208ZM57.6528 6.7467C57.8109 6.50958 58.0298 6.30818 58.3336 6.14516L57.3879 4.38284C56.8171 4.68916 56.3426 5.10642 55.9887 5.6373L57.6528 6.7467ZM58.3248 6.14983C58.6058 6.00263 58.9638 5.912 59.4287 5.912V3.912C58.699 3.912 58.0117 4.05603 57.3967 4.37817L58.3248 6.14983ZM59.4287 5.912C59.927 5.912 60.3271 6.02068 60.6586 6.21111L61.6549 4.47689C60.9837 4.09132 60.2319 3.912 59.4287 3.912V5.912ZM60.6727 6.21903C61.0107 6.40602 61.2818 6.66991 61.493 7.03187L63.2205 6.02413C62.8343 5.36209 62.3055 4.83665 61.6408 4.46897L60.6727 6.21903ZM63.1742 7.10395C63.4195 6.7558 63.7325 6.46853 64.1246 6.23978L63.1169 4.51222C62.485 4.8808 61.9553 5.36153 61.5393 5.95205L63.1742 7.10395ZM64.1379 6.23192C64.4883 6.02017 64.8738 5.912 65.3167 5.912V3.912C64.5223 3.912 63.7772 4.11316 63.1036 4.52008L64.1379 6.23192Z" fill="black" mask="url(#path-1-outside-1_32638_341384)"/>
</g>
<defs>
<filter id="filter0_d_32638_341384" x="0.792511" y="0.736023" width="69.1562" height="14.376" filterUnits="userSpaceOnUse" color-interpolation-filters="sRGB">
<feFlood flood-opacity="0" result="BackgroundImageFix"/>
<feColorMatrix in="SourceAlpha" type="matrix" values="0 0 0 0 0 0 0 0 0 0 0 0 0 0 0 0 0 0 127 0" result="hardAlpha"/>
<feOffset dx="1" dy="1"/>
<feComposite in2="hardAlpha" operator="out"/>
<feColorMatrix type="matrix" values="0 0 0 0 0 0 0 0 0 0 0 0 0 0 0 0 0 0 1 0"/>
<feBlend mode="normal" in2="BackgroundImageFix" result="effect1_dropShadow_32638_341384"/>
<feBlend mode="normal" in="SourceGraphic" in2="effect1_dropShadow_32638_341384" result="shape"/>
</filter>
</defs>
</svg>
