<svg width="24" height="14" viewBox="0 0 24 14" fill="none" xmlns="http://www.w3.org/2000/svg">
<g filter="url(#filter0_d_32638_339608)">
<mask id="path-1-outside-1_32638_339608" maskUnits="userSpaceOnUse" x="-1" y="-1" width="25" height="15" fill="black">
<rect fill="white" x="-1" y="-1" width="25" height="15"/>
<path d="M8.14244 4.544C8.00377 4.32 7.80644 4.14933 7.55044 4.032C7.29444 3.904 6.9851 3.84 6.62244 3.84C5.93977 3.84 5.41177 4.064 5.03844 4.512C4.6651 4.94933 4.47844 5.552 4.47844 6.32C4.47844 7.20533 4.68644 7.86667 5.10244 8.304C5.51844 8.74133 6.15844 8.96 7.02244 8.96C7.84377 8.96 8.5051 8.62933 9.00644 7.968H6.17444V5.456H11.9504V9.008C11.4598 9.85067 10.7824 10.576 9.91844 11.184C9.05444 11.7813 7.9611 12.08 6.63844 12.08C5.4651 12.08 4.4411 11.84 3.56644 11.36C2.70244 10.8693 2.03577 10.1867 1.56644 9.312C1.10777 8.43733 0.878438 7.44 0.878438 6.32C0.878438 5.2 1.10777 4.20267 1.56644 3.328C2.03577 2.45333 2.70244 1.776 3.56644 1.296C4.43044 0.805333 5.44377 0.559999 6.60644 0.559999C8.0891 0.559999 9.29444 0.917333 10.2224 1.632C11.1611 2.34667 11.7158 3.31733 11.8864 4.544H8.14244ZM17.5177 12.112C16.611 12.112 15.795 11.9253 15.0697 11.552C14.3444 11.1787 13.7737 10.6453 13.3577 9.952C12.9524 9.248 12.7497 8.42667 12.7497 7.488C12.7497 6.54933 12.9524 5.73333 13.3577 5.04C13.7737 4.336 14.3444 3.79733 15.0697 3.424C15.795 3.05067 16.611 2.864 17.5177 2.864C18.4244 2.864 19.2404 3.05067 19.9657 3.424C20.691 3.79733 21.2564 4.336 21.6617 5.04C22.0777 5.73333 22.2857 6.54933 22.2857 7.488C22.2857 8.42667 22.0777 9.248 21.6617 9.952C21.2564 10.6453 20.691 11.1787 19.9657 11.552C19.2404 11.9253 18.4244 12.112 17.5177 12.112ZM17.5177 9.04C17.8484 9.04 18.1257 8.912 18.3497 8.656C18.5737 8.38933 18.6857 8 18.6857 7.488C18.6857 6.976 18.5737 6.592 18.3497 6.336C18.1257 6.06933 17.8484 5.936 17.5177 5.936C17.187 5.936 16.9097 6.06933 16.6857 6.336C16.4617 6.592 16.3497 6.976 16.3497 7.488C16.3497 8 16.4564 8.38933 16.6697 8.656C16.8937 8.912 17.1764 9.04 17.5177 9.04Z"/>
</mask>
<path d="M8.14244 4.544C8.00377 4.32 7.80644 4.14933 7.55044 4.032C7.29444 3.904 6.9851 3.84 6.62244 3.84C5.93977 3.84 5.41177 4.064 5.03844 4.512C4.6651 4.94933 4.47844 5.552 4.47844 6.32C4.47844 7.20533 4.68644 7.86667 5.10244 8.304C5.51844 8.74133 6.15844 8.96 7.02244 8.96C7.84377 8.96 8.5051 8.62933 9.00644 7.968H6.17444V5.456H11.9504V9.008C11.4598 9.85067 10.7824 10.576 9.91844 11.184C9.05444 11.7813 7.9611 12.08 6.63844 12.08C5.4651 12.08 4.4411 11.84 3.56644 11.36C2.70244 10.8693 2.03577 10.1867 1.56644 9.312C1.10777 8.43733 0.878438 7.44 0.878438 6.32C0.878438 5.2 1.10777 4.20267 1.56644 3.328C2.03577 2.45333 2.70244 1.776 3.56644 1.296C4.43044 0.805333 5.44377 0.559999 6.60644 0.559999C8.0891 0.559999 9.29444 0.917333 10.2224 1.632C11.1611 2.34667 11.7158 3.31733 11.8864 4.544H8.14244ZM17.5177 12.112C16.611 12.112 15.795 11.9253 15.0697 11.552C14.3444 11.1787 13.7737 10.6453 13.3577 9.952C12.9524 9.248 12.7497 8.42667 12.7497 7.488C12.7497 6.54933 12.9524 5.73333 13.3577 5.04C13.7737 4.336 14.3444 3.79733 15.0697 3.424C15.795 3.05067 16.611 2.864 17.5177 2.864C18.4244 2.864 19.2404 3.05067 19.9657 3.424C20.691 3.79733 21.2564 4.336 21.6617 5.04C22.0777 5.73333 22.2857 6.54933 22.2857 7.488C22.2857 8.42667 22.0777 9.248 21.6617 9.952C21.2564 10.6453 20.691 11.1787 19.9657 11.552C19.2404 11.9253 18.4244 12.112 17.5177 12.112ZM17.5177 9.04C17.8484 9.04 18.1257 8.912 18.3497 8.656C18.5737 8.38933 18.6857 8 18.6857 7.488C18.6857 6.976 18.5737 6.592 18.3497 6.336C18.1257 6.06933 17.8484 5.936 17.5177 5.936C17.187 5.936 16.9097 6.06933 16.6857 6.336C16.4617 6.592 16.3497 6.976 16.3497 7.488C16.3497 8 16.4564 8.38933 16.6697 8.656C16.8937 8.912 17.1764 9.04 17.5177 9.04Z" fill="white"/>
<path d="M8.14244 4.544L7.29217 5.07035L7.58538 5.544H8.14244V4.544ZM7.55044 4.032L7.10322 4.92643L7.11838 4.934L7.13378 4.94106L7.55044 4.032ZM5.03844 4.512L5.79906 5.16131L5.80666 5.15218L5.03844 4.512ZM5.10244 8.304L4.37788 8.99321H4.37788L5.10244 8.304ZM9.00644 7.968L9.80334 8.57211L11.0194 6.968H9.00644V7.968ZM6.17444 7.968H5.17444V8.968H6.17444V7.968ZM6.17444 5.456V4.456H5.17444V5.456H6.17444ZM11.9504 5.456H12.9504V4.456H11.9504V5.456ZM11.9504 9.008L12.8146 9.51119L12.9504 9.27793V9.008H11.9504ZM9.91844 11.184L10.4871 12.0066L10.4939 12.0018L9.91844 11.184ZM3.56644 11.36L3.07261 12.2296L3.07895 12.2332L3.08534 12.2367L3.56644 11.36ZM1.56644 9.312L0.680777 9.77643L0.685277 9.78482L1.56644 9.312ZM1.56644 3.328L0.685238 2.85516L0.680817 2.86359L1.56644 3.328ZM3.56644 1.296L4.0521 2.1702L4.06026 2.16556L3.56644 1.296ZM10.2224 1.632L9.61228 2.4243L9.61667 2.42764L10.2224 1.632ZM11.8864 4.544V5.544H13.0352L12.8769 4.4062L11.8864 4.544ZM8.9927 4.01764C8.74309 3.61443 8.38921 3.31641 7.96709 3.12294L7.13378 4.94106C7.22366 4.98226 7.26445 5.02557 7.29217 5.07035L8.9927 4.01764ZM7.99765 3.13757C7.57074 2.92411 7.10002 2.84 6.62244 2.84V4.84C6.87019 4.84 7.01814 4.88388 7.10322 4.92643L7.99765 3.13757ZM6.62244 2.84C5.69929 2.84 4.86686 3.15584 4.27022 3.87182L5.80666 5.15218C5.95668 4.97216 6.18025 4.84 6.62244 4.84V2.84ZM4.27787 3.86274C3.70468 4.53419 3.47844 5.39458 3.47844 6.32H5.47844C5.47844 5.70942 5.62553 5.36448 5.799 5.16126L4.27787 3.86274ZM3.47844 6.32C3.47844 7.34339 3.71747 8.29894 4.37788 8.99321L5.827 7.61479C5.6554 7.43439 5.47844 7.06728 5.47844 6.32H3.47844ZM4.37788 8.99321C5.05181 9.7017 6.00441 9.96 7.02244 9.96V7.96C6.31247 7.96 5.98506 7.78096 5.827 7.61479L4.37788 8.99321ZM7.02244 9.96C8.16054 9.96 9.11527 9.47977 9.80334 8.57211L8.20953 7.36389C7.89494 7.7789 7.52701 7.96 7.02244 7.96V9.96ZM9.00644 6.968H6.17444V8.968H9.00644V6.968ZM7.17444 7.968V5.456H5.17444V7.968H7.17444ZM6.17444 6.456H11.9504V4.456H6.17444V6.456ZM10.9504 5.456V9.008H12.9504V5.456H10.9504ZM11.0863 8.50481C10.6739 9.21293 10.0992 9.83405 9.34295 10.3662L10.4939 12.0018C11.4657 11.318 12.2456 10.4884 12.8146 9.51119L11.0863 8.50481ZM9.34976 10.3614C8.69164 10.8164 7.81076 11.08 6.63844 11.08V13.08C8.11145 13.08 9.41724 12.7462 10.4871 12.0066L9.34976 10.3614ZM6.63844 11.08C5.6036 11.08 4.75075 10.8692 4.04754 10.4833L3.08534 12.2367C4.13145 12.8108 5.32661 13.08 6.63844 13.08V11.08ZM4.06026 10.4904C3.36002 10.0928 2.8277 9.54756 2.4476 8.83918L0.685277 9.78482C1.24384 10.8258 2.04486 11.6459 3.07261 12.2296L4.06026 10.4904ZM2.45206 8.84759C2.07808 8.13441 1.87844 7.30013 1.87844 6.32H-0.121562C-0.121562 7.57987 0.137467 8.74025 0.680818 9.77641L2.45206 8.84759ZM1.87844 6.32C1.87844 5.33987 2.07807 4.50559 2.45206 3.79241L0.680817 2.86359C0.137467 3.89975 -0.121562 5.06013 -0.121562 6.32H1.87844ZM2.4476 3.80082C2.8267 3.09431 3.35643 2.55663 4.05208 2.17016L3.08079 0.421842C2.04845 0.995369 1.24484 1.81236 0.685277 2.85518L2.4476 3.80082ZM4.06026 2.16556C4.74986 1.77394 5.58722 1.56 6.60644 1.56V-0.440001C5.30032 -0.440001 4.11101 -0.16327 3.07261 0.426438L4.06026 2.16556ZM6.60644 1.56C7.92788 1.56 8.90109 1.87659 9.61229 2.42428L10.8326 0.839715C9.68778 -0.0419192 8.25033 -0.440001 6.60644 -0.440001V1.56ZM9.61667 2.42764C10.334 2.97376 10.7597 3.70213 10.896 4.6818L12.8769 4.4062C12.6719 2.93254 11.9882 1.71957 10.8282 0.83636L9.61667 2.42764ZM11.8864 3.544H8.14244V5.544H11.8864V3.544ZM15.0697 11.552L15.5273 10.6629L15.0697 11.552ZM13.3577 9.952L12.4911 10.451L12.4956 10.4588L12.5002 10.4665L13.3577 9.952ZM13.3577 5.04L12.4968 4.53126L12.4944 4.5353L13.3577 5.04ZM15.0697 3.424L15.5273 4.31314L15.5273 4.31314L15.0697 3.424ZM19.9657 3.424L19.508 4.31314L19.508 4.31314L19.9657 3.424ZM21.6617 5.04L20.7951 5.53896L20.7996 5.54677L20.8042 5.5545L21.6617 5.04ZM21.6617 9.952L20.8008 9.44326L20.7984 9.4473L21.6617 9.952ZM19.9657 11.552L19.508 10.6629L19.9657 11.552ZM18.3497 8.656L19.1023 9.3145L19.1089 9.30691L19.1154 9.29919L18.3497 8.656ZM18.3497 6.336L17.584 6.97919L17.5905 6.98691L17.5971 6.9945L18.3497 6.336ZM16.6857 6.336L17.4383 6.9945L17.4449 6.98691L17.4514 6.97919L16.6857 6.336ZM16.6697 8.656L15.8888 9.28069L15.9026 9.29791L15.9171 9.3145L16.6697 8.656ZM17.5177 11.112C16.7522 11.112 16.0959 10.9555 15.5273 10.6629L14.612 12.4411C15.4941 12.8951 16.4698 13.112 17.5177 13.112V11.112ZM15.5273 10.6629C14.966 10.3739 14.5345 9.96966 14.2152 9.4375L12.5002 10.4665C13.0129 11.321 13.7227 11.9834 14.612 12.4411L15.5273 10.6629ZM14.2243 9.45304C13.9192 8.92304 13.7497 8.2791 13.7497 7.488H11.7497C11.7497 8.57423 11.9855 9.57296 12.4911 10.451L14.2243 9.45304ZM13.7497 7.488C13.7497 6.69647 13.9193 6.06075 14.221 5.5447L12.4944 4.5353C11.9854 5.40592 11.7497 6.4022 11.7497 7.488H13.7497ZM14.2186 5.54873C14.539 5.00659 14.97 4.59999 15.5273 4.31314L14.612 2.53486C13.7187 2.99468 13.0084 3.66541 12.4968 4.53127L14.2186 5.54873ZM15.5273 4.31314C16.0959 4.02047 16.7522 3.864 17.5177 3.864V1.864C16.4698 1.864 15.4941 2.08086 14.612 2.53486L15.5273 4.31314ZM17.5177 3.864C18.2832 3.864 18.9394 4.02047 19.508 4.31314L20.4233 2.53486C19.5413 2.08086 18.5656 1.864 17.5177 1.864V3.864ZM19.508 4.31314C20.0631 4.59884 20.4861 5.00239 20.7951 5.53896L22.5283 4.54104C22.0266 3.66961 21.3189 2.99582 20.4233 2.53486L19.508 4.31314ZM20.8042 5.5545C21.1128 6.06886 21.2857 6.70098 21.2857 7.488H23.2857C23.2857 6.39768 23.0426 5.39781 22.5192 4.5255L20.8042 5.5545ZM21.2857 7.488C21.2857 8.27461 21.1129 8.91497 20.8008 9.44327L22.5226 10.4607C23.0424 9.58103 23.2857 8.57872 23.2857 7.488H21.2857ZM20.7984 9.4473C20.4906 9.97383 20.0672 10.3751 19.508 10.6629L20.4233 12.4411C21.3149 11.9823 22.0221 11.3168 22.525 10.4567L20.7984 9.4473ZM19.508 10.6629C18.9394 10.9555 18.2832 11.112 17.5177 11.112V13.112C18.5656 13.112 19.5413 12.8951 20.4233 12.4411L19.508 10.6629ZM17.5177 10.04C18.1461 10.04 18.6946 9.78039 19.1023 9.3145L17.5971 7.9975C17.5814 8.01551 17.5699 8.02532 17.5636 8.03012C17.5576 8.03475 17.5547 8.036 17.5546 8.03604C17.5546 8.03605 17.5535 8.03665 17.5497 8.03745C17.5456 8.03831 17.5355 8.04 17.5177 8.04V10.04ZM19.1154 9.29919C19.5479 8.78436 19.6857 8.1278 19.6857 7.488H17.6857C17.6857 7.8722 17.5995 7.99431 17.584 8.01281L19.1154 9.29919ZM19.6857 7.488C19.6857 6.85222 19.5495 6.18862 19.1023 5.6775L17.5971 6.9945C17.5979 6.99538 17.6857 7.09978 17.6857 7.488H19.6857ZM19.1154 5.69281C18.713 5.21372 18.1613 4.936 17.5177 4.936V6.936C17.5328 6.936 17.5401 6.93748 17.5415 6.93779C17.5426 6.93804 17.5417 6.93789 17.5404 6.93725C17.5392 6.93667 17.5416 6.93759 17.548 6.94268C17.5546 6.94797 17.567 6.95898 17.584 6.97919L19.1154 5.69281ZM17.5177 4.936C16.8741 4.936 16.3224 5.21372 15.92 5.69281L17.4514 6.97919C17.4684 6.95898 17.4807 6.94797 17.4874 6.94268C17.4937 6.93759 17.4962 6.93667 17.495 6.93725C17.4937 6.93789 17.4927 6.93804 17.4939 6.93779C17.4953 6.93748 17.5026 6.936 17.5177 6.936V4.936ZM15.9331 5.6775C15.4859 6.18862 15.3497 6.85222 15.3497 7.488H17.3497C17.3497 7.09978 17.4375 6.99538 17.4383 6.9945L15.9331 5.6775ZM15.3497 7.488C15.3497 8.11845 15.4781 8.76728 15.8888 9.28069L17.4506 8.0313C17.4346 8.01138 17.3497 7.88155 17.3497 7.488H15.3497ZM15.9171 9.3145C16.3317 9.78838 16.8891 10.04 17.5177 10.04V8.04C17.4951 8.04 17.481 8.0379 17.4736 8.0364C17.4666 8.03495 17.4633 8.03356 17.4622 8.03305C17.4611 8.03253 17.4581 8.03112 17.4527 8.02703C17.4471 8.02278 17.4367 8.01397 17.4223 7.9975L15.9171 9.3145Z" fill="black" mask="url(#path-1-outside-1_32638_339608)"/>
</g>
<defs>
<filter id="filter0_d_32638_339608" x="0.878448" y="0.560059" width="22.4072" height="12.552" filterUnits="userSpaceOnUse" color-interpolation-filters="sRGB">
<feFlood flood-opacity="0" result="BackgroundImageFix"/>
<feColorMatrix in="SourceAlpha" type="matrix" values="0 0 0 0 0 0 0 0 0 0 0 0 0 0 0 0 0 0 127 0" result="hardAlpha"/>
<feOffset dx="1" dy="1"/>
<feComposite in2="hardAlpha" operator="out"/>
<feColorMatrix type="matrix" values="0 0 0 0 0 0 0 0 0 0 0 0 0 0 0 0 0 0 1 0"/>
<feBlend mode="normal" in2="BackgroundImageFix" result="effect1_dropShadow_32638_339608"/>
<feBlend mode="normal" in="SourceGraphic" in2="effect1_dropShadow_32638_339608" result="shape"/>
</filter>
</defs>
</svg>
