<svg width="20" height="20" viewBox="0 0 20 20" fill="none" xmlns="http://www.w3.org/2000/svg">
<g filter="url(#filter0_d_32638_341214)">
<path fill-rule="evenodd" clip-rule="evenodd" d="M9.97532 18.75C5.17859 18.75 1.25 14.8325 1.25 10C1.25 5.1675 5.17859 1.25 9.97532 1.25C14.8708 1.25 18.75 5.1675 18.75 10C18.75 14.8325 14.8708 18.75 9.97532 18.75ZM8.76604 15.1534C8.76604 15.4756 9.07727 15.7367 9.40034 15.7367H10.8477C11.1707 15.7367 11.4326 15.4756 11.4326 15.1534V13.7917C11.4326 13.4695 11.1707 13.2083 10.8477 13.2083H9.40034C9.07727 13.2083 8.76604 13.4695 8.76604 13.7917V15.1534ZM11.4162 4.36762H8.58695C8.26322 4.36762 8.00684 4.63552 8.02779 4.95193L8.76604 11.2587C8.78003 11.4703 8.95931 11.6349 9.17571 11.6349H10.8477C11.0641 11.6349 11.2434 11.4703 11.2574 11.2587L11.9754 4.95193C11.9963 4.63552 11.7399 4.36762 11.4162 4.36762Z" fill="#AEABFF"/>
<path d="M7.84855 4.9638L7.84832 4.96382L7.84937 4.97282L8.58715 11.2755C8.61001 11.5822 8.86949 11.8146 9.17571 11.8146H10.8477C11.154 11.8146 11.4136 11.5821 11.4363 11.2752L12.1539 4.97225L12.1541 4.97228L12.1546 4.96377C12.1826 4.5399 11.8399 4.18799 11.4162 4.18799H8.58695C8.16325 4.18799 7.82048 4.53989 7.84855 4.9638ZM9.97532 18.5704C5.27798 18.5704 1.42963 14.7335 1.42963 10C1.42963 5.26653 5.27798 1.42963 9.97532 1.42963C14.7714 1.42963 18.5704 5.26653 18.5704 10C18.5704 14.7335 14.7714 18.5704 9.97532 18.5704ZM8.58641 15.1534C8.58641 15.5933 8.99771 15.9163 9.40034 15.9163H10.8477C11.2695 15.9163 11.6122 15.5753 11.6122 15.1534V13.7917C11.6122 13.3698 11.2695 13.0287 10.8477 13.0287H9.40034C8.99768 13.0287 8.58641 13.3518 8.58641 13.7917V15.1534Z" stroke="black" stroke-width="0.359268"/>
</g>
<defs>
<filter id="filter0_d_32638_341214" x="1.25" y="1.25" width="17.5" height="18.5778" filterUnits="userSpaceOnUse" color-interpolation-filters="sRGB">
<feFlood flood-opacity="0" result="BackgroundImageFix"/>
<feColorMatrix in="SourceAlpha" type="matrix" values="0 0 0 0 0 0 0 0 0 0 0 0 0 0 0 0 0 0 127 0" result="hardAlpha"/>
<feOffset dy="1.0778"/>
<feComposite in2="hardAlpha" operator="out"/>
<feColorMatrix type="matrix" values="0 0 0 0 0 0 0 0 0 0 0 0 0 0 0 0 0 0 1 0"/>
<feBlend mode="normal" in2="BackgroundImageFix" result="effect1_dropShadow_32638_341214"/>
<feBlend mode="normal" in="SourceGraphic" in2="effect1_dropShadow_32638_341214" result="shape"/>
</filter>
</defs>
</svg>
