<svg width="38" height="20" viewBox="0 0 38 20" fill="none" xmlns="http://www.w3.org/2000/svg">
<g filter="url(#filter0_d_32651_349910)">
<mask id="path-1-outside-1_32651_349910" maskUnits="userSpaceOnUse" x="-1" y="-1" width="39" height="21" fill="black">
<rect fill="white" x="-1" y="-1" width="39" height="21"/>
<path d="M5.63825 14.112C4.28358 14.112 3.16358 13.7973 2.27825 13.168C1.40358 12.528 0.928917 11.5947 0.85425 10.368H4.63025C4.68358 11.0187 4.97158 11.344 5.49425 11.344C5.68625 11.344 5.84625 11.3013 5.97425 11.216C6.11292 11.12 6.18225 10.976 6.18225 10.784C6.18225 10.5173 6.03825 10.304 5.75025 10.144C5.46225 9.97333 5.01425 9.78133 4.40625 9.568C3.68092 9.312 3.07825 9.06133 2.59825 8.816C2.12892 8.57067 1.72358 8.21333 1.38225 7.744C1.04092 7.27467 0.875583 6.672 0.88625 5.936C0.88625 5.2 1.07292 4.576 1.44625 4.064C1.83025 3.54133 2.34758 3.14667 2.99825 2.88C3.65958 2.61333 4.40092 2.48 5.22225 2.48C6.60892 2.48 7.70758 2.8 8.51825 3.44C9.33958 4.08 9.77158 4.98133 9.81425 6.144H5.99025C5.97958 5.824 5.89958 5.59467 5.75025 5.456C5.60092 5.31733 5.41958 5.248 5.20625 5.248C5.05692 5.248 4.93425 5.30133 4.83825 5.408C4.74225 5.504 4.69425 5.64267 4.69425 5.824C4.69425 6.08 4.83292 6.29333 5.11025 6.464C5.39825 6.624 5.85158 6.82133 6.47025 7.056C7.18492 7.32267 7.77158 7.57867 8.23025 7.824C8.69958 8.06933 9.10492 8.41067 9.44625 8.848C9.78758 9.28533 9.95825 9.83467 9.95825 10.496C9.95825 11.1893 9.78758 11.8133 9.44625 12.368C9.10492 12.912 8.60892 13.3387 7.95825 13.648C7.30758 13.9573 6.53425 14.112 5.63825 14.112ZM14.7583 6.208C14.9823 5.792 15.3023 5.46667 15.7183 5.232C16.1449 4.98667 16.6516 4.864 17.2383 4.864C17.9423 4.864 18.5769 5.05067 19.1423 5.424C19.7076 5.78667 20.1503 6.32 20.4703 7.024C20.8009 7.71733 20.9663 8.53867 20.9663 9.488C20.9663 10.4373 20.8009 11.264 20.4703 11.968C20.1503 12.6613 19.7076 13.1947 19.1423 13.568C18.5769 13.9307 17.9423 14.112 17.2383 14.112C16.6516 14.112 16.1449 13.9947 15.7183 13.76C15.3023 13.5147 14.9823 13.184 14.7583 12.768V18.32H11.2063V4.976H14.7583V6.208ZM17.3663 9.488C17.3663 9.008 17.2436 8.63467 16.9983 8.368C16.7529 8.10133 16.4383 7.968 16.0543 7.968C15.6703 7.968 15.3556 8.10133 15.1102 8.368C14.8649 8.63467 14.7423 9.008 14.7423 9.488C14.7423 9.968 14.8649 10.3413 15.1102 10.608C15.3556 10.8747 15.6703 11.008 16.0543 11.008C16.4383 11.008 16.7529 10.8747 16.9983 10.608C17.2436 10.3413 17.3663 9.968 17.3663 9.488ZM23.8733 4.256C23.2546 4.256 22.7586 4.09067 22.3853 3.76C22.0119 3.42933 21.8253 3.01333 21.8253 2.512C21.8253 2 22.0119 1.57867 22.3853 1.248C22.7586 0.906666 23.2546 0.735999 23.8733 0.735999C24.4813 0.735999 24.9719 0.906666 25.3453 1.248C25.7186 1.57867 25.9053 2 25.9053 2.512C25.9053 3.01333 25.7186 3.42933 25.3453 3.76C24.9719 4.09067 24.4813 4.256 23.8733 4.256ZM25.6333 4.976V14H22.0813V4.976H25.6333ZM33.5575 4.912C34.5922 4.912 35.3975 5.25867 35.9735 5.952C36.5602 6.64533 36.8535 7.584 36.8535 8.768V14H33.3175V9.216C33.3175 8.78933 33.2002 8.45333 32.9655 8.208C32.7415 7.952 32.4375 7.824 32.0535 7.824C31.6588 7.824 31.3495 7.952 31.1255 8.208C30.9015 8.45333 30.7895 8.78933 30.7895 9.216V14H27.2375V4.976H30.7895V6.352C31.0668 5.92533 31.4348 5.57867 31.8935 5.312C32.3628 5.04533 32.9175 4.912 33.5575 4.912Z"/>
</mask>
<path d="M5.63825 14.112C4.28358 14.112 3.16358 13.7973 2.27825 13.168C1.40358 12.528 0.928917 11.5947 0.85425 10.368H4.63025C4.68358 11.0187 4.97158 11.344 5.49425 11.344C5.68625 11.344 5.84625 11.3013 5.97425 11.216C6.11292 11.12 6.18225 10.976 6.18225 10.784C6.18225 10.5173 6.03825 10.304 5.75025 10.144C5.46225 9.97333 5.01425 9.78133 4.40625 9.568C3.68092 9.312 3.07825 9.06133 2.59825 8.816C2.12892 8.57067 1.72358 8.21333 1.38225 7.744C1.04092 7.27467 0.875583 6.672 0.88625 5.936C0.88625 5.2 1.07292 4.576 1.44625 4.064C1.83025 3.54133 2.34758 3.14667 2.99825 2.88C3.65958 2.61333 4.40092 2.48 5.22225 2.48C6.60892 2.48 7.70758 2.8 8.51825 3.44C9.33958 4.08 9.77158 4.98133 9.81425 6.144H5.99025C5.97958 5.824 5.89958 5.59467 5.75025 5.456C5.60092 5.31733 5.41958 5.248 5.20625 5.248C5.05692 5.248 4.93425 5.30133 4.83825 5.408C4.74225 5.504 4.69425 5.64267 4.69425 5.824C4.69425 6.08 4.83292 6.29333 5.11025 6.464C5.39825 6.624 5.85158 6.82133 6.47025 7.056C7.18492 7.32267 7.77158 7.57867 8.23025 7.824C8.69958 8.06933 9.10492 8.41067 9.44625 8.848C9.78758 9.28533 9.95825 9.83467 9.95825 10.496C9.95825 11.1893 9.78758 11.8133 9.44625 12.368C9.10492 12.912 8.60892 13.3387 7.95825 13.648C7.30758 13.9573 6.53425 14.112 5.63825 14.112ZM14.7583 6.208C14.9823 5.792 15.3023 5.46667 15.7183 5.232C16.1449 4.98667 16.6516 4.864 17.2383 4.864C17.9423 4.864 18.5769 5.05067 19.1423 5.424C19.7076 5.78667 20.1503 6.32 20.4703 7.024C20.8009 7.71733 20.9663 8.53867 20.9663 9.488C20.9663 10.4373 20.8009 11.264 20.4703 11.968C20.1503 12.6613 19.7076 13.1947 19.1423 13.568C18.5769 13.9307 17.9423 14.112 17.2383 14.112C16.6516 14.112 16.1449 13.9947 15.7183 13.76C15.3023 13.5147 14.9823 13.184 14.7583 12.768V18.32H11.2063V4.976H14.7583V6.208ZM17.3663 9.488C17.3663 9.008 17.2436 8.63467 16.9983 8.368C16.7529 8.10133 16.4383 7.968 16.0543 7.968C15.6703 7.968 15.3556 8.10133 15.1102 8.368C14.8649 8.63467 14.7423 9.008 14.7423 9.488C14.7423 9.968 14.8649 10.3413 15.1102 10.608C15.3556 10.8747 15.6703 11.008 16.0543 11.008C16.4383 11.008 16.7529 10.8747 16.9983 10.608C17.2436 10.3413 17.3663 9.968 17.3663 9.488ZM23.8733 4.256C23.2546 4.256 22.7586 4.09067 22.3853 3.76C22.0119 3.42933 21.8253 3.01333 21.8253 2.512C21.8253 2 22.0119 1.57867 22.3853 1.248C22.7586 0.906666 23.2546 0.735999 23.8733 0.735999C24.4813 0.735999 24.9719 0.906666 25.3453 1.248C25.7186 1.57867 25.9053 2 25.9053 2.512C25.9053 3.01333 25.7186 3.42933 25.3453 3.76C24.9719 4.09067 24.4813 4.256 23.8733 4.256ZM25.6333 4.976V14H22.0813V4.976H25.6333ZM33.5575 4.912C34.5922 4.912 35.3975 5.25867 35.9735 5.952C36.5602 6.64533 36.8535 7.584 36.8535 8.768V14H33.3175V9.216C33.3175 8.78933 33.2002 8.45333 32.9655 8.208C32.7415 7.952 32.4375 7.824 32.0535 7.824C31.6588 7.824 31.3495 7.952 31.1255 8.208C30.9015 8.45333 30.7895 8.78933 30.7895 9.216V14H27.2375V4.976H30.7895V6.352C31.0668 5.92533 31.4348 5.57867 31.8935 5.312C32.3628 5.04533 32.9175 4.912 33.5575 4.912Z" fill="white"/>
<path d="M2.27825 13.168L1.68768 13.9751L1.69887 13.9831L2.27825 13.168ZM0.85425 10.368V9.368H-0.20847L-0.143903 10.4288L0.85425 10.368ZM4.63025 10.368L5.62691 10.2863L5.55164 9.368H4.63025V10.368ZM5.97425 11.216L6.52895 12.048L6.53625 12.0432L6.54346 12.0382L5.97425 11.216ZM5.75025 10.144L5.24045 11.0043L5.25243 11.0114L5.26461 11.0182L5.75025 10.144ZM4.40625 9.568L4.07343 10.511L4.07516 10.5116L4.40625 9.568ZM2.59825 8.816L2.13498 9.70226L2.14314 9.70644L2.59825 8.816ZM1.38225 7.744L2.19099 7.15583L2.19099 7.15583L1.38225 7.744ZM0.88625 5.936L1.88614 5.95049L1.88625 5.94325V5.936H0.88625ZM1.44625 4.064L0.640363 3.47192L0.638242 3.47483L1.44625 4.064ZM2.99825 2.88L2.62428 1.95254L2.61903 1.95469L2.99825 2.88ZM8.51825 3.44L7.89859 4.2249L7.9036 4.2288L8.51825 3.44ZM9.81425 6.144V7.144H10.8516L10.8136 6.10733L9.81425 6.144ZM5.99025 6.144L4.99081 6.17731L5.02303 7.144H5.99025V6.144ZM4.83825 5.408L5.54536 6.11511L5.56395 6.09651L5.58155 6.07696L4.83825 5.408ZM5.11025 6.464L4.58615 7.31566L4.60513 7.32734L4.62461 7.33816L5.11025 6.464ZM6.47025 7.056L6.11559 7.99101L6.12066 7.9929L6.47025 7.056ZM8.23025 7.824L7.75858 8.70582L7.767 8.71023L8.23025 7.824ZM9.44625 8.848L8.65793 9.46327L9.44625 8.848ZM9.44625 12.368L10.2933 12.8995L10.2979 12.8921L9.44625 12.368ZM7.95825 13.648L7.52889 12.7449L7.95825 13.648ZM5.63825 13.112C4.43942 13.112 3.5359 12.8351 2.85763 12.3529L1.69887 13.9831C2.79127 14.7596 4.12774 15.112 5.63825 15.112V13.112ZM2.86876 12.361C2.26817 11.9215 1.91171 11.2816 1.8524 10.3072L-0.143903 10.4288C-0.0538764 11.9078 0.538997 13.1345 1.68774 13.975L2.86876 12.361ZM0.85425 11.368H4.63025V9.368H0.85425V11.368ZM3.63359 10.4497C3.66949 10.8876 3.79431 11.3752 4.13749 11.7628C4.50961 12.1832 5.00996 12.344 5.49425 12.344V10.344C5.46665 10.344 5.48079 10.3397 5.51869 10.3549C5.5376 10.3625 5.55905 10.3737 5.58082 10.389C5.60261 10.4043 5.62079 10.4211 5.63501 10.4372C5.66373 10.4696 5.66598 10.4872 5.65819 10.4649C5.6498 10.4409 5.63502 10.3853 5.62691 10.2863L3.63359 10.4497ZM5.49425 12.344C5.83459 12.344 6.20011 12.2673 6.52895 12.048L5.41955 10.3839C5.45327 10.3615 5.48299 10.3505 5.50059 10.3458C5.51675 10.3415 5.51675 10.344 5.49425 10.344V12.344ZM6.54346 12.0382C6.99252 11.7273 7.18225 11.2515 7.18225 10.784H5.18225C5.18225 10.7596 5.18694 10.6901 5.22925 10.6022C5.27389 10.5095 5.34018 10.4387 5.40504 10.3938L6.54346 12.0382ZM7.18225 10.784C7.18225 10.0635 6.7533 9.55729 6.23589 9.26984L5.26461 11.0182C5.30842 11.0425 5.28261 11.0386 5.2454 10.9835C5.22647 10.9554 5.20922 10.9207 5.19742 10.8813C5.18572 10.8423 5.18225 10.8084 5.18225 10.784H7.18225ZM6.26005 9.28371C5.88499 9.06145 5.36167 8.84346 4.73734 8.6244L4.07516 10.5116C4.66683 10.7192 5.03951 10.8852 5.24045 11.0043L6.26005 9.28371ZM4.73907 8.62501C4.03954 8.37812 3.48108 8.14418 3.05336 7.92556L2.14314 9.70644C2.67542 9.97849 3.32229 10.2459 4.07343 10.511L4.73907 8.62501ZM3.0615 7.92977C2.74147 7.76248 2.45049 7.51265 2.19099 7.15583L0.573514 8.33217C0.996675 8.91402 1.51637 9.37885 2.135 9.70223L3.0615 7.92977ZM2.19099 7.15583C2.00751 6.90355 1.87776 6.52885 1.88614 5.95049L-0.113645 5.92151C-0.126596 6.81515 0.0743232 7.64578 0.573514 8.33217L2.19099 7.15583ZM1.88625 5.936C1.88625 5.37635 2.02505 4.96751 2.25426 4.65317L0.638242 3.47483C0.120782 4.18449 -0.11375 5.02365 -0.11375 5.936H1.88625ZM2.25213 4.65608C2.51813 4.29403 2.8821 4.00832 3.37747 3.8053L2.61903 1.95469C1.81306 2.28501 1.14237 2.78864 0.640368 3.47192L2.25213 4.65608ZM3.37222 3.80744C3.89806 3.59541 4.50982 3.48 5.22225 3.48V1.48C4.29201 1.48 3.4211 1.63126 2.62428 1.95256L3.37222 3.80744ZM5.22225 3.48C6.46085 3.48 7.31649 3.76532 7.89861 4.22488L9.13789 2.65512C8.09868 1.83468 6.75699 1.48 5.22225 1.48V3.48ZM7.9036 4.2288C8.46277 4.66452 8.78166 5.27422 8.81492 6.18067L10.8136 6.10733C10.7615 4.68845 10.2164 3.49548 9.1329 2.6512L7.9036 4.2288ZM9.81425 5.144H5.99025V7.144H9.81425V5.144ZM6.9897 6.11069C6.97507 5.67202 6.862 5.12369 6.4307 4.72321L5.0698 6.18879C5.03827 6.15952 5.01572 6.13022 5.00056 6.10589C4.98576 6.08214 4.97954 6.06565 4.97805 6.06137C4.97665 6.05735 4.97929 6.06378 4.9826 6.08384C4.9859 6.10386 4.98938 6.13443 4.99081 6.17731L6.9897 6.11069ZM6.4307 4.72321C6.08708 4.40413 5.65897 4.248 5.20625 4.248V6.248C5.20292 6.248 5.17923 6.24709 5.14511 6.23405C5.11022 6.22071 5.08428 6.20224 5.0698 6.18879L6.4307 4.72321ZM5.20625 4.248C4.78649 4.248 4.38916 4.41214 4.09495 4.73904L5.58155 6.07696C5.54087 6.12216 5.48032 6.17057 5.40098 6.20507C5.3226 6.23915 5.25276 6.248 5.20625 6.248V4.248ZM4.13114 4.70089C3.79132 5.04071 3.69425 5.46936 3.69425 5.824H5.69425C5.69425 5.81944 5.69509 5.85377 5.67524 5.91111C5.6538 5.97304 5.61286 6.0476 5.54536 6.11511L4.13114 4.70089ZM3.69425 5.824C3.69425 6.52312 4.1051 7.01962 4.58615 7.31566L5.63435 5.61234C5.58778 5.58368 5.60596 5.58372 5.63669 5.63101C5.65253 5.65537 5.66817 5.68711 5.67927 5.72465C5.69035 5.76215 5.69425 5.79652 5.69425 5.824H3.69425ZM4.62461 7.33816C4.97835 7.53468 5.48726 7.75266 6.1156 7.991L6.8249 6.121C6.2159 5.89 5.81815 5.71332 5.59589 5.58984L4.62461 7.33816ZM6.12066 7.9929C6.81085 8.25043 7.35288 8.48877 7.7586 8.70578L8.7019 6.94221C8.19028 6.66856 7.55899 6.3949 6.81984 6.1191L6.12066 7.9929ZM7.767 8.71023C8.10388 8.88632 8.40012 9.13294 8.65793 9.46327L10.2346 8.23273C9.80972 7.68839 9.29529 7.25234 8.6935 6.93777L7.767 8.71023ZM8.65793 9.46327C8.83709 9.69282 8.95825 10.0133 8.95825 10.496H10.9583C10.9583 9.65606 10.7381 8.87785 10.2346 8.23273L8.65793 9.46327ZM8.95825 10.496C8.95825 11.0167 8.83261 11.4571 8.59459 11.8439L10.2979 12.8921C10.7426 12.1695 10.9583 11.3619 10.9583 10.496H8.95825ZM8.59919 11.8365C8.3709 12.2003 8.02938 12.5069 7.52889 12.7449L8.38761 14.5511C9.18845 14.1704 9.83893 13.6237 10.2933 12.8995L8.59919 11.8365ZM7.52889 12.7449C7.04097 12.9768 6.42101 13.112 5.63825 13.112V15.112C6.64749 15.112 7.5742 14.9378 8.38761 14.5511L7.52889 12.7449ZM14.7583 6.208H13.7583L15.6387 6.6821L14.7583 6.208ZM15.7183 5.232L16.2096 6.10301L16.2167 6.09891L15.7183 5.232ZM19.1423 5.424L18.5911 6.25854L18.6023 6.26569L19.1423 5.424ZM20.4702 7.024L19.5599 7.4378L19.5637 7.44617L19.5676 7.45447L20.4702 7.024ZM20.4702 11.968L19.5651 11.5429L19.5623 11.5489L20.4702 11.968ZM19.1423 13.568L19.6823 14.4098L19.6933 14.4025L19.1423 13.568ZM15.7183 13.76L15.2103 14.6214L15.2232 14.629L15.2363 14.6362L15.7183 13.76ZM14.7583 12.768L15.6387 12.2939L13.7583 12.768H14.7583ZM14.7583 18.32V19.32H15.7583V18.32H14.7583ZM11.2063 18.32H10.2063V19.32H11.2063V18.32ZM11.2063 4.976V3.976H10.2063V4.976H11.2063ZM14.7583 4.976H15.7583V3.976H14.7583V4.976ZM16.9983 8.368L17.7342 7.69094H17.7342L16.9983 8.368ZM15.1103 8.368L14.3743 7.69094L14.3743 7.69094L15.1103 8.368ZM15.1103 10.608L14.3743 11.2851H14.3743L15.1103 10.608ZM15.6387 6.6821C15.7721 6.43442 15.9563 6.24586 16.2096 6.10298L15.2269 4.36102C14.6482 4.68748 14.1924 5.14958 13.8778 5.7339L15.6387 6.6821ZM16.2167 6.09891C16.465 5.95615 16.7928 5.864 17.2383 5.864V3.864C16.5103 3.864 15.8248 4.01718 15.2198 4.36509L16.2167 6.09891ZM17.2383 5.864C17.7544 5.864 18.196 5.99749 18.5912 6.25846L19.6933 4.58954C18.9578 4.10385 18.1301 3.864 17.2383 3.864V5.864ZM18.6023 6.26569C18.9821 6.50935 19.3072 6.88194 19.5599 7.4378L21.3806 6.6102C20.9933 5.75806 20.4331 5.06399 19.6822 4.5823L18.6023 6.26569ZM19.5676 7.45447C19.8209 7.98547 19.9663 8.65328 19.9663 9.488H21.9663C21.9663 8.42405 21.7809 7.4492 21.3729 6.59353L19.5676 7.45447ZM19.9663 9.488C19.9663 10.3221 19.8211 10.9979 19.5651 11.5429L21.3754 12.3931C21.7808 11.5301 21.9663 10.5525 21.9663 9.488H19.9663ZM19.5623 11.5489C19.3101 12.0954 18.9821 12.4754 18.5912 12.7335L19.6933 14.4025C20.433 13.914 20.9904 13.2273 21.3782 12.3871L19.5623 11.5489ZM18.6023 12.7263C18.2061 12.9805 17.7605 13.112 17.2383 13.112V15.112C18.124 15.112 18.9478 14.8808 19.6822 14.4097L18.6023 12.7263ZM17.2383 13.112C16.7857 13.112 16.4518 13.0222 16.2002 12.8838L15.2363 14.6362C15.8381 14.9672 16.5174 15.112 17.2383 15.112V13.112ZM16.2262 12.8986C15.9637 12.7438 15.7742 12.5455 15.6387 12.2939L13.8778 13.2421C14.1903 13.8225 14.6408 14.2855 15.2103 14.6214L16.2262 12.8986ZM13.7583 12.768V18.32H15.7583V12.768H13.7583ZM14.7583 17.32H11.2063V19.32H14.7583V17.32ZM12.2063 18.32V4.976H10.2063V18.32H12.2063ZM11.2063 5.976H14.7583V3.976H11.2063V5.976ZM13.7583 4.976V6.208H15.7583V4.976H13.7583ZM18.3663 9.488C18.3663 8.84046 18.1984 8.19548 17.7342 7.69094L16.2623 9.04506C16.2888 9.07385 16.3663 9.17554 16.3663 9.488H18.3663ZM17.7342 7.69094C17.2871 7.20501 16.6991 6.968 16.0543 6.968V8.968C16.1774 8.968 16.2187 8.99765 16.2623 9.04506L17.7342 7.69094ZM16.0543 6.968C15.4094 6.968 14.8214 7.20501 14.3743 7.69094L15.8462 9.04506C15.8898 8.99765 15.9311 8.968 16.0543 8.968V6.968ZM14.3743 7.69094C13.9101 8.19548 13.7423 8.84046 13.7423 9.488H15.7423C15.7423 9.17554 15.8197 9.07385 15.8462 9.04506L14.3743 7.69094ZM13.7423 9.488C13.7423 10.1355 13.9101 10.7805 14.3743 11.2851L15.8462 9.93094C15.8197 9.90215 15.7423 9.80046 15.7423 9.488H13.7423ZM14.3743 11.2851C14.8214 11.771 15.4094 12.008 16.0543 12.008V10.008C15.9311 10.008 15.8898 9.97835 15.8462 9.93094L14.3743 11.2851ZM16.0543 12.008C16.6991 12.008 17.2871 11.771 17.7342 11.2851L16.2623 9.93094C16.2187 9.97835 16.1774 10.008 16.0543 10.008V12.008ZM17.7342 11.2851C18.1984 10.7805 18.3663 10.1355 18.3663 9.488H16.3663C16.3663 9.80046 16.2888 9.90215 16.2623 9.93094L17.7342 11.2851ZM22.3853 3.76L23.0483 3.01141L23.0483 3.01141L22.3853 3.76ZM22.3853 1.248L23.0483 1.99659L23.0542 1.99135L23.06 1.98603L22.3853 1.248ZM25.3452 1.248L24.6705 1.98603L24.6763 1.99135L24.6822 1.99659L25.3452 1.248ZM25.3452 3.76L24.6822 3.01141V3.01141L25.3452 3.76ZM25.6333 4.976H26.6333V3.976H25.6333V4.976ZM25.6333 14V15H26.6333V14H25.6333ZM22.0812 14H21.0812V15H22.0812V14ZM22.0812 4.976V3.976H21.0812V4.976H22.0812ZM23.8732 3.256C23.4378 3.256 23.1977 3.14371 23.0483 3.01141L21.7222 4.50859C22.3195 5.03763 23.0714 5.256 23.8732 5.256V3.256ZM23.0483 3.01141C22.8905 2.87168 22.8253 2.7288 22.8253 2.512H20.8253C20.8253 3.29787 21.1333 3.98698 21.7222 4.50859L23.0483 3.01141ZM22.8253 2.512C22.8253 2.27755 22.8957 2.13176 23.0483 1.99659L21.7222 0.499411C21.1282 1.02557 20.8253 1.72245 20.8253 2.512H22.8253ZM23.06 1.98603C23.21 1.84889 23.4459 1.736 23.8732 1.736V-0.264001C23.0633 -0.264001 22.3072 -0.0355616 21.7105 0.509971L23.06 1.98603ZM23.8732 1.736C24.2847 1.736 24.5173 1.84598 24.6705 1.98603L26.02 0.509971C25.4265 -0.0326493 24.6778 -0.264001 23.8732 -0.264001V1.736ZM24.6822 1.99659C24.8348 2.13176 24.9053 2.27755 24.9053 2.512H26.9053C26.9053 1.72245 26.6023 1.02557 26.0083 0.499411L24.6822 1.99659ZM24.9053 2.512C24.9053 2.7288 24.84 2.87168 24.6822 3.01141L26.0083 4.50859C26.5972 3.98698 26.9053 3.29787 26.9053 2.512H24.9053ZM24.6822 3.01141C24.5297 3.14647 24.2929 3.256 23.8732 3.256V5.256C24.6696 5.256 25.4141 5.03487 26.0083 4.50859L24.6822 3.01141ZM24.6333 4.976V14H26.6333V4.976H24.6333ZM25.6333 13H22.0812V15H25.6333V13ZM23.0812 14V4.976H21.0812V14H23.0812ZM22.0812 5.976H25.6333V3.976H22.0812V5.976ZM35.9735 5.952L35.2043 6.59105L35.2101 6.59794L35.9735 5.952ZM36.8535 14V15H37.8535V14H36.8535ZM33.3175 14H32.3175V15H33.3175V14ZM32.9655 8.208L32.2129 8.8665L32.2275 8.88319L32.2429 8.89922L32.9655 8.208ZM31.1255 8.208L31.864 8.88227L31.8711 8.87446L31.8781 8.8665L31.1255 8.208ZM30.7895 14V15H31.7895V14H30.7895ZM27.2375 14H26.2375V15H27.2375V14ZM27.2375 4.976V3.976H26.2375V4.976H27.2375ZM30.7895 4.976H31.7895V3.976H30.7895V4.976ZM30.7895 6.352H29.7895V9.72536L31.6279 6.89699L30.7895 6.352ZM31.8935 5.312L31.3995 4.4425L31.3909 4.44749L31.8935 5.312ZM33.5575 5.912C34.3441 5.912 34.8476 6.1617 35.2043 6.59102L36.7427 5.31298C35.9474 4.35563 34.8403 3.912 33.5575 3.912V5.912ZM35.2101 6.59794C35.6027 7.06189 35.8535 7.74753 35.8535 8.768H37.8535C37.8535 7.42047 37.5177 6.22878 36.7369 5.30606L35.2101 6.59794ZM35.8535 8.768V14H37.8535V8.768H35.8535ZM36.8535 13H33.3175V15H36.8535V13ZM34.3175 14V9.216H32.3175V14H34.3175ZM34.3175 9.216C34.3175 8.60105 34.1435 7.99287 33.6881 7.51678L32.2429 8.89922C32.2568 8.9138 32.3175 8.97761 32.3175 9.216H34.3175ZM33.7181 7.54949C33.2785 7.04714 32.6844 6.824 32.0535 6.824V8.824C32.1338 8.824 32.1708 8.83714 32.1814 8.84164C32.1891 8.84486 32.1977 8.84906 32.2129 8.8665L33.7181 7.54949ZM32.0535 6.824C31.4215 6.824 30.818 7.04079 30.3729 7.54949L31.8781 8.8665C31.8904 8.85238 31.8977 8.8482 31.9079 8.84402C31.9216 8.83831 31.9643 8.824 32.0535 8.824V6.824ZM30.387 7.53373C29.9512 8.01108 29.7895 8.61307 29.7895 9.216H31.7895C31.7895 8.9656 31.8518 8.89559 31.864 8.88227L30.387 7.53373ZM29.7895 9.216V14H31.7895V9.216H29.7895ZM30.7895 13H27.2375V15H30.7895V13ZM28.2375 14V4.976H26.2375V14H28.2375ZM27.2375 5.976H30.7895V3.976H27.2375V5.976ZM29.7895 4.976V6.352H31.7895V4.976H29.7895ZM31.6279 6.89699C31.8162 6.60731 32.0669 6.3679 32.3961 6.17651L31.3909 4.44749C30.8027 4.78943 30.3174 5.24336 29.9511 5.80701L31.6279 6.89699ZM32.3875 6.18146C32.6805 6.01499 33.0584 5.912 33.5575 5.912V3.912C32.7766 3.912 32.0452 4.07568 31.3995 4.44254L32.3875 6.18146Z" fill="black" mask="url(#path-1-outside-1_32651_349910)"/>
</g>
<defs>
<filter id="filter0_d_32651_349910" x="0.854248" y="0.736023" width="36.9992" height="18.584" filterUnits="userSpaceOnUse" color-interpolation-filters="sRGB">
<feFlood flood-opacity="0" result="BackgroundImageFix"/>
<feColorMatrix in="SourceAlpha" type="matrix" values="0 0 0 0 0 0 0 0 0 0 0 0 0 0 0 0 0 0 127 0" result="hardAlpha"/>
<feOffset dx="1" dy="1"/>
<feComposite in2="hardAlpha" operator="out"/>
<feColorMatrix type="matrix" values="0 0 0 0 0 0 0 0 0 0 0 0 0 0 0 0 0 0 1 0"/>
<feBlend mode="normal" in2="BackgroundImageFix" result="effect1_dropShadow_32651_349910"/>
<feBlend mode="normal" in="SourceGraphic" in2="effect1_dropShadow_32651_349910" result="shape"/>
</filter>
</defs>
</svg>
