<svg width="55" height="14" viewBox="0 0 55 14" fill="none" xmlns="http://www.w3.org/2000/svg">
<g filter="url(#filter0_d_32638_341378)">
<mask id="path-1-outside-1_32638_341378" maskUnits="userSpaceOnUse" x="-1" y="-1" width="57" height="15" fill="black">
<rect fill="white" x="-1" y="-1" width="57" height="15"/>
<path d="M3.57669 0.672V7.056C3.57669 7.57867 3.68869 7.99467 3.91269 8.304C4.14735 8.60267 4.52069 8.752 5.03269 8.752C5.54469 8.752 5.92335 8.60267 6.16869 8.304C6.41402 7.99467 6.53669 7.57867 6.53669 7.056V0.672H10.0727V7.056C10.0727 8.13333 9.84869 9.056 9.40069 9.824C8.95269 10.5813 8.33935 11.152 7.56069 11.536C6.78202 11.92 5.91269 12.112 4.95269 12.112C3.99269 12.112 3.13935 11.92 2.39269 11.536C1.65669 11.152 1.08069 10.5813 0.664688 9.824C0.248688 9.06667 0.0406876 8.144 0.0406876 7.056V0.672H3.57669ZM17.9247 2.912C18.9594 2.912 19.7647 3.25867 20.3407 3.952C20.9274 4.64533 21.2207 5.584 21.2207 6.768V12H17.6847V7.216C17.6847 6.78933 17.5674 6.45333 17.3327 6.208C17.1087 5.952 16.8047 5.824 16.4207 5.824C16.026 5.824 15.7167 5.952 15.4927 6.208C15.2687 6.45333 15.1567 6.78933 15.1567 7.216V12H11.6047V2.976H15.1567V4.352C15.434 3.92533 15.802 3.57867 16.2607 3.312C16.73 3.04533 17.2847 2.912 17.9247 2.912ZM26.3129 4.208C26.5369 3.792 26.8569 3.46667 27.2729 3.232C27.6996 2.98667 28.2063 2.864 28.7929 2.864C29.4969 2.864 30.1316 3.05067 30.6969 3.424C31.2623 3.78667 31.7049 4.32 32.0249 5.024C32.3556 5.71733 32.5209 6.53867 32.5209 7.488C32.5209 8.43733 32.3556 9.264 32.0249 9.968C31.7049 10.6613 31.2623 11.1947 30.6969 11.568C30.1316 11.9307 29.4969 12.112 28.7929 12.112C28.2063 12.112 27.6996 11.9947 27.2729 11.76C26.8569 11.5147 26.5369 11.184 26.3129 10.768V12H22.7609V0.16H26.3129V4.208ZM28.9209 7.488C28.9209 7.008 28.7983 6.63467 28.5529 6.368C28.3076 6.10133 27.9929 5.968 27.6089 5.968C27.2249 5.968 26.9103 6.10133 26.6649 6.368C26.4196 6.63467 26.2969 7.008 26.2969 7.488C26.2969 7.968 26.4196 8.34133 26.6649 8.608C26.9103 8.87467 27.2249 9.008 27.6089 9.008C27.9929 9.008 28.3076 8.87467 28.5529 8.608C28.7983 8.34133 28.9209 7.968 28.9209 7.488ZM37.9239 12.112C37.0173 12.112 36.2013 11.9253 35.4759 11.552C34.7506 11.1787 34.1799 10.6453 33.7639 9.952C33.3586 9.248 33.1559 8.42667 33.1559 7.488C33.1559 6.54933 33.3586 5.73333 33.7639 5.04C34.1799 4.336 34.7506 3.79733 35.4759 3.424C36.2013 3.05067 37.0173 2.864 37.9239 2.864C38.8306 2.864 39.6466 3.05067 40.3719 3.424C41.0973 3.79733 41.6626 4.336 42.0679 5.04C42.4839 5.73333 42.6919 6.54933 42.6919 7.488C42.6919 8.42667 42.4839 9.248 42.0679 9.952C41.6626 10.6453 41.0973 11.1787 40.3719 11.552C39.6466 11.9253 38.8306 12.112 37.9239 12.112ZM37.9239 9.04C38.2546 9.04 38.5319 8.912 38.7559 8.656C38.9799 8.38933 39.0919 8 39.0919 7.488C39.0919 6.976 38.9799 6.592 38.7559 6.336C38.5319 6.06933 38.2546 5.936 37.9239 5.936C37.5933 5.936 37.3159 6.06933 37.0919 6.336C36.8679 6.592 36.7559 6.976 36.7559 7.488C36.7559 8 36.8626 8.38933 37.0759 8.656C37.2999 8.912 37.5826 9.04 37.9239 9.04ZM49.7278 12L48.2078 9.968L47.0718 12H43.1678L46.1918 7.248L43.0078 2.976H46.9758L48.4958 5.024L49.6478 2.976H53.5518L50.4318 7.616L53.6958 12H49.7278Z"/>
</mask>
<path d="M3.57669 0.672V7.056C3.57669 7.57867 3.68869 7.99467 3.91269 8.304C4.14735 8.60267 4.52069 8.752 5.03269 8.752C5.54469 8.752 5.92335 8.60267 6.16869 8.304C6.41402 7.99467 6.53669 7.57867 6.53669 7.056V0.672H10.0727V7.056C10.0727 8.13333 9.84869 9.056 9.40069 9.824C8.95269 10.5813 8.33935 11.152 7.56069 11.536C6.78202 11.92 5.91269 12.112 4.95269 12.112C3.99269 12.112 3.13935 11.92 2.39269 11.536C1.65669 11.152 1.08069 10.5813 0.664688 9.824C0.248688 9.06667 0.0406876 8.144 0.0406876 7.056V0.672H3.57669ZM17.9247 2.912C18.9594 2.912 19.7647 3.25867 20.3407 3.952C20.9274 4.64533 21.2207 5.584 21.2207 6.768V12H17.6847V7.216C17.6847 6.78933 17.5674 6.45333 17.3327 6.208C17.1087 5.952 16.8047 5.824 16.4207 5.824C16.026 5.824 15.7167 5.952 15.4927 6.208C15.2687 6.45333 15.1567 6.78933 15.1567 7.216V12H11.6047V2.976H15.1567V4.352C15.434 3.92533 15.802 3.57867 16.2607 3.312C16.73 3.04533 17.2847 2.912 17.9247 2.912ZM26.3129 4.208C26.5369 3.792 26.8569 3.46667 27.2729 3.232C27.6996 2.98667 28.2063 2.864 28.7929 2.864C29.4969 2.864 30.1316 3.05067 30.6969 3.424C31.2623 3.78667 31.7049 4.32 32.0249 5.024C32.3556 5.71733 32.5209 6.53867 32.5209 7.488C32.5209 8.43733 32.3556 9.264 32.0249 9.968C31.7049 10.6613 31.2623 11.1947 30.6969 11.568C30.1316 11.9307 29.4969 12.112 28.7929 12.112C28.2063 12.112 27.6996 11.9947 27.2729 11.76C26.8569 11.5147 26.5369 11.184 26.3129 10.768V12H22.7609V0.16H26.3129V4.208ZM28.9209 7.488C28.9209 7.008 28.7983 6.63467 28.5529 6.368C28.3076 6.10133 27.9929 5.968 27.6089 5.968C27.2249 5.968 26.9103 6.10133 26.6649 6.368C26.4196 6.63467 26.2969 7.008 26.2969 7.488C26.2969 7.968 26.4196 8.34133 26.6649 8.608C26.9103 8.87467 27.2249 9.008 27.6089 9.008C27.9929 9.008 28.3076 8.87467 28.5529 8.608C28.7983 8.34133 28.9209 7.968 28.9209 7.488ZM37.9239 12.112C37.0173 12.112 36.2013 11.9253 35.4759 11.552C34.7506 11.1787 34.1799 10.6453 33.7639 9.952C33.3586 9.248 33.1559 8.42667 33.1559 7.488C33.1559 6.54933 33.3586 5.73333 33.7639 5.04C34.1799 4.336 34.7506 3.79733 35.4759 3.424C36.2013 3.05067 37.0173 2.864 37.9239 2.864C38.8306 2.864 39.6466 3.05067 40.3719 3.424C41.0973 3.79733 41.6626 4.336 42.0679 5.04C42.4839 5.73333 42.6919 6.54933 42.6919 7.488C42.6919 8.42667 42.4839 9.248 42.0679 9.952C41.6626 10.6453 41.0973 11.1787 40.3719 11.552C39.6466 11.9253 38.8306 12.112 37.9239 12.112ZM37.9239 9.04C38.2546 9.04 38.5319 8.912 38.7559 8.656C38.9799 8.38933 39.0919 8 39.0919 7.488C39.0919 6.976 38.9799 6.592 38.7559 6.336C38.5319 6.06933 38.2546 5.936 37.9239 5.936C37.5933 5.936 37.3159 6.06933 37.0919 6.336C36.8679 6.592 36.7559 6.976 36.7559 7.488C36.7559 8 36.8626 8.38933 37.0759 8.656C37.2999 8.912 37.5826 9.04 37.9239 9.04ZM49.7278 12L48.2078 9.968L47.0718 12H43.1678L46.1918 7.248L43.0078 2.976H46.9758L48.4958 5.024L49.6478 2.976H53.5518L50.4318 7.616L53.6958 12H49.7278Z" fill="white"/>
<path d="M3.57669 0.672H4.57669V-0.328H3.57669V0.672ZM3.91269 8.304L3.10275 8.89051L3.11425 8.9064L3.12637 8.92182L3.91269 8.304ZM6.16869 8.304L6.94141 8.93874L6.94686 8.93211L6.95219 8.92539L6.16869 8.304ZM6.53669 0.672V-0.328H5.53669V0.672H6.53669ZM10.0727 0.672H11.0727V-0.328H10.0727V0.672ZM9.40069 9.824L10.2614 10.3331L10.2645 10.3279L9.40069 9.824ZM7.56069 11.536L8.00298 12.4329L7.56069 11.536ZM2.39269 11.536L1.93011 12.4226L1.93534 12.4253L2.39269 11.536ZM0.664688 9.824L-0.211789 10.3054H-0.211789L0.664688 9.824ZM0.0406876 0.672V-0.328H-0.959312V0.672H0.0406876ZM2.57669 0.672V7.056H4.57669V0.672H2.57669ZM2.57669 7.056C2.57669 7.71324 2.71703 8.35785 3.10275 8.89051L4.72263 7.71749C4.66035 7.63148 4.57669 7.44409 4.57669 7.056H2.57669ZM3.12637 8.92182C3.61156 9.53933 4.32822 9.752 5.03269 9.752V7.752C4.87058 7.752 4.78119 7.72797 4.74008 7.71152C4.70669 7.69817 4.70131 7.68912 4.69901 7.68618L3.12637 8.92182ZM5.03269 9.752C5.74001 9.752 6.44877 9.53848 6.94141 8.93874L5.39596 7.66926C5.38704 7.68012 5.37365 7.69402 5.33382 7.70973C5.28714 7.72813 5.19424 7.752 5.03269 7.752V9.752ZM6.95219 8.92539C7.37731 8.38937 7.53669 7.73105 7.53669 7.056H5.53669C5.53669 7.42628 5.45074 7.59996 5.38519 7.68261L6.95219 8.92539ZM7.53669 7.056V0.672H5.53669V7.056H7.53669ZM6.53669 1.672H10.0727V-0.328H6.53669V1.672ZM9.07269 0.672V7.056H11.0727V0.672H9.07269ZM9.07269 7.056C9.07269 7.99372 8.87856 8.73445 8.53691 9.32013L10.2645 10.3279C10.8188 9.37755 11.0727 8.27295 11.0727 7.056H9.07269ZM8.54 9.31486C8.18945 9.90747 7.72043 10.3422 7.1184 10.6391L8.00298 12.4329C8.95828 11.9618 9.71593 11.2552 10.2614 10.3331L8.54 9.31486ZM7.1184 10.6391C6.49131 10.9484 5.77573 11.112 4.95269 11.112V13.112C6.04965 13.112 7.07273 12.8916 8.00298 12.4329L7.1184 10.6391ZM4.95269 11.112C4.12882 11.112 3.43614 10.9481 2.85004 10.6467L1.93534 12.4253C2.84257 12.8919 3.85656 13.112 4.95269 13.112V11.112ZM2.85525 10.6494C2.30157 10.3605 1.86628 9.93444 1.54116 9.34256L-0.211789 10.3054C0.295093 11.2282 1.0118 11.9435 1.93012 12.4226L2.85525 10.6494ZM1.54116 9.34256C1.22458 8.76621 1.04069 8.0185 1.04069 7.056H-0.959312C-0.959312 8.2695 -0.727205 9.36712 -0.211789 10.3054L1.54116 9.34256ZM1.04069 7.056V0.672H-0.959312V7.056H1.04069ZM0.0406876 1.672H3.57669V-0.328H0.0406876V1.672ZM20.3407 3.952L19.5715 4.59105L19.5773 4.59794L20.3407 3.952ZM21.2207 12V13H22.2207V12H21.2207ZM17.6847 12H16.6847V13H17.6847V12ZM17.3327 6.208L16.5801 6.8665L16.5947 6.88319L16.61 6.89922L17.3327 6.208ZM15.4927 6.208L16.2312 6.88227L16.2383 6.87446L16.2453 6.8665L15.4927 6.208ZM15.1567 12V13H16.1567V12H15.1567ZM11.6047 12H10.6047V13H11.6047V12ZM11.6047 2.976V1.976H10.6047V2.976H11.6047ZM15.1567 2.976H16.1567V1.976H15.1567V2.976ZM15.1567 4.352H14.1567V7.72536L15.9951 4.89699L15.1567 4.352ZM16.2607 3.312L15.7667 2.4425L15.7581 2.44749L16.2607 3.312ZM17.9247 3.912C18.7112 3.912 19.2148 4.1617 19.5715 4.59102L21.1099 3.31298C20.3145 2.35563 19.2075 1.912 17.9247 1.912V3.912ZM19.5773 4.59794C19.9699 5.06189 20.2207 5.74753 20.2207 6.768H22.2207C22.2207 5.42047 21.8848 4.22878 21.1041 3.30606L19.5773 4.59794ZM20.2207 6.768V12H22.2207V6.768H20.2207ZM21.2207 11H17.6847V13H21.2207V11ZM18.6847 12V7.216H16.6847V12H18.6847ZM18.6847 7.216C18.6847 6.60105 18.5107 5.99287 18.0553 5.51678L16.61 6.89922C16.624 6.9138 16.6847 6.97761 16.6847 7.216H18.6847ZM18.0853 5.54949C17.6457 5.04714 17.0516 4.824 16.4207 4.824V6.824C16.501 6.824 16.5379 6.83714 16.5486 6.84164C16.5563 6.84486 16.5648 6.84906 16.5801 6.8665L18.0853 5.54949ZM16.4207 4.824C15.7887 4.824 15.1852 5.04079 14.7401 5.54949L16.2453 6.8665C16.2576 6.85238 16.2649 6.8482 16.275 6.84402C16.2888 6.83831 16.3315 6.824 16.4207 6.824V4.824ZM14.7542 5.53373C14.3184 6.01108 14.1567 6.61307 14.1567 7.216H16.1567C16.1567 6.9656 16.219 6.89559 16.2312 6.88227L14.7542 5.53373ZM14.1567 7.216V12H16.1567V7.216H14.1567ZM15.1567 11H11.6047V13H15.1567V11ZM12.6047 12V2.976H10.6047V12H12.6047ZM11.6047 3.976H15.1567V1.976H11.6047V3.976ZM14.1567 2.976V4.352H16.1567V2.976H14.1567ZM15.9951 4.89699C16.1834 4.60731 16.4341 4.3679 16.7633 4.17651L15.7581 2.44749C15.1699 2.78943 14.6846 3.24336 14.3182 3.80701L15.9951 4.89699ZM16.7547 4.18146C17.0477 4.01499 17.4256 3.912 17.9247 3.912V1.912C17.1437 1.912 16.4124 2.07568 15.7667 2.44254L16.7547 4.18146ZM26.3129 4.208H25.3129L27.1934 4.6821L26.3129 4.208ZM27.2729 3.232L27.7643 4.10301L27.7714 4.09891L27.2729 3.232ZM30.6969 3.424L30.1458 4.25854L30.157 4.26569L30.6969 3.424ZM32.0249 5.024L31.1146 5.4378L31.1184 5.44617L31.1223 5.45447L32.0249 5.024ZM32.0249 9.968L31.1198 9.54285L31.117 9.54894L32.0249 9.968ZM30.6969 11.568L31.2369 12.4098L31.248 12.4025L30.6969 11.568ZM27.2729 11.76L26.765 12.6214L26.7779 12.629L26.791 12.6362L27.2729 11.76ZM26.3129 10.768L27.1934 10.2939L25.3129 10.768H26.3129ZM26.3129 12V13H27.3129V12H26.3129ZM22.7609 12H21.7609V13H22.7609V12ZM22.7609 0.16V-0.84H21.7609V0.16H22.7609ZM26.3129 0.16H27.3129V-0.84H26.3129V0.16ZM28.5529 6.368L29.2889 5.69094H29.2889L28.5529 6.368ZM26.6649 6.368L25.929 5.69094V5.69094L26.6649 6.368ZM26.6649 8.608L25.929 9.28506L26.6649 8.608ZM27.1934 4.6821C27.3268 4.43442 27.511 4.24586 27.7643 4.10298L26.7816 2.36102C26.2029 2.68748 25.7471 3.14958 25.4325 3.7339L27.1934 4.6821ZM27.7714 4.09891C28.0197 3.95615 28.3475 3.864 28.7929 3.864V1.864C28.065 1.864 27.3795 2.01718 26.7745 2.36509L27.7714 4.09891ZM28.7929 3.864C29.3091 3.864 29.7507 3.99749 30.1459 4.25846L31.248 2.58954C30.5125 2.10385 29.6848 1.864 28.7929 1.864V3.864ZM30.157 4.26569C30.5368 4.50935 30.8619 4.88194 31.1146 5.4378L32.9353 4.6102C32.548 3.75806 31.9878 3.06399 31.2369 2.5823L30.157 4.26569ZM31.1223 5.45447C31.3756 5.98547 31.5209 6.65328 31.5209 7.488H33.5209C33.5209 6.42405 33.3356 5.4492 32.9275 4.59353L31.1223 5.45447ZM31.5209 7.488C31.5209 8.32215 31.3758 8.99792 31.1198 9.54286L32.9301 10.3931C33.3354 9.53008 33.5209 8.55252 33.5209 7.488H31.5209ZM31.117 9.54894C30.8648 10.0954 30.5368 10.4754 30.1459 10.7335L31.248 12.4025C31.9877 11.914 32.5451 11.2273 32.9329 10.3871L31.117 9.54894ZM30.157 10.7263C29.7607 10.9805 29.3152 11.112 28.7929 11.112V13.112C29.6787 13.112 30.5025 12.8808 31.2369 12.4097L30.157 10.7263ZM28.7929 11.112C28.3404 11.112 28.0064 11.0222 27.7549 10.8838L26.791 12.6362C27.3928 12.9672 28.0721 13.112 28.7929 13.112V11.112ZM27.7809 10.8986C27.5184 10.7438 27.3289 10.5455 27.1934 10.2939L25.4325 11.2421C25.745 11.8225 26.1955 12.2855 26.765 12.6214L27.7809 10.8986ZM25.3129 10.768V12H27.3129V10.768H25.3129ZM26.3129 11H22.7609V13H26.3129V11ZM23.7609 12V0.16H21.7609V12H23.7609ZM22.7609 1.16H26.3129V-0.84H22.7609V1.16ZM25.3129 0.16V4.208H27.3129V0.16H25.3129ZM29.9209 7.488C29.9209 6.84046 29.753 6.19548 29.2889 5.69094L27.817 7.04506C27.8435 7.07385 27.9209 7.17554 27.9209 7.488H29.9209ZM29.2889 5.69094C28.8418 5.20501 28.2538 4.968 27.6089 4.968V6.968C27.7321 6.968 27.7734 6.99765 27.817 7.04506L29.2889 5.69094ZM27.6089 4.968C26.9641 4.968 26.3761 5.20501 25.929 5.69094L27.4009 7.04506C27.4445 6.99765 27.4858 6.968 27.6089 6.968V4.968ZM25.929 5.69094C25.4648 6.19548 25.2969 6.84046 25.2969 7.488H27.2969C27.2969 7.17554 27.3744 7.07385 27.4009 7.04506L25.929 5.69094ZM25.2969 7.488C25.2969 8.13554 25.4648 8.78052 25.929 9.28506L27.4009 7.93094C27.3744 7.90215 27.2969 7.80046 27.2969 7.488H25.2969ZM25.929 9.28506C26.3761 9.77099 26.9641 10.008 27.6089 10.008V8.008C27.4858 8.008 27.4445 7.97835 27.4009 7.93094L25.929 9.28506ZM27.6089 10.008C28.2538 10.008 28.8418 9.77099 29.2889 9.28506L27.817 7.93094C27.7734 7.97835 27.7321 8.008 27.6089 8.008V10.008ZM29.2889 9.28506C29.753 8.78052 29.9209 8.13554 29.9209 7.488H27.9209C27.9209 7.80046 27.8435 7.90215 27.817 7.93094L29.2889 9.28506ZM35.4759 11.552L35.9336 10.6629L35.4759 11.552ZM33.7639 9.952L32.8973 10.451L32.9018 10.4588L32.9064 10.4665L33.7639 9.952ZM33.7639 5.04L32.903 4.53126L32.9006 4.5353L33.7639 5.04ZM35.4759 3.424L35.9336 4.31314V4.31314L35.4759 3.424ZM40.3719 3.424L39.9143 4.31314V4.31314L40.3719 3.424ZM42.0679 5.04L41.2013 5.53896L41.2058 5.54677L41.2104 5.5545L42.0679 5.04ZM42.0679 9.952L41.207 9.44326L41.2046 9.4473L42.0679 9.952ZM40.3719 11.552L39.9143 10.6629L40.3719 11.552ZM38.7559 8.656L39.5085 9.3145L39.5152 9.30691L39.5216 9.29919L38.7559 8.656ZM38.7559 6.336L37.9902 6.97919L37.9967 6.98691L38.0034 6.9945L38.7559 6.336ZM37.0919 6.336L37.8445 6.9945L37.8512 6.98691L37.8576 6.97919L37.0919 6.336ZM37.0759 8.656L36.2951 9.28069L36.3088 9.29791L36.3234 9.3145L37.0759 8.656ZM37.9239 11.112C37.1585 11.112 36.5022 10.9555 35.9336 10.6629L35.0183 12.4411C35.9004 12.8951 36.8761 13.112 37.9239 13.112V11.112ZM35.9336 10.6629C35.3722 10.3739 34.9407 9.96966 34.6214 9.4375L32.9064 10.4665C33.4191 11.321 34.129 11.9834 35.0183 12.4411L35.9336 10.6629ZM34.6306 9.45304C34.3254 8.92304 34.1559 8.2791 34.1559 7.488H32.1559C32.1559 8.57423 32.3918 9.57296 32.8973 10.451L34.6306 9.45304ZM34.1559 7.488C34.1559 6.69647 34.3255 6.06075 34.6272 5.5447L32.9006 4.5353C32.3917 5.40592 32.1559 6.4022 32.1559 7.488H34.1559ZM34.6249 5.54873C34.9452 5.00659 35.3763 4.59999 35.9336 4.31314L35.0183 2.53486C34.1249 2.99468 33.4147 3.66541 32.903 4.53127L34.6249 5.54873ZM35.9336 4.31314C36.5022 4.02047 37.1585 3.864 37.9239 3.864V1.864C36.8761 1.864 35.9004 2.08086 35.0183 2.53486L35.9336 4.31314ZM37.9239 3.864C38.6894 3.864 39.3457 4.02047 39.9143 4.31314L40.8296 2.53486C39.9475 2.08086 38.9718 1.864 37.9239 1.864V3.864ZM39.9143 4.31314C40.4694 4.59884 40.8924 5.00239 41.2013 5.53896L42.9346 4.54104C42.4328 3.66961 41.7252 2.99582 40.8296 2.53486L39.9143 4.31314ZM41.2104 5.5545C41.5191 6.06886 41.6919 6.70098 41.6919 7.488H43.6919C43.6919 6.39768 43.4488 5.39781 42.9254 4.5255L41.2104 5.5545ZM41.6919 7.488C41.6919 8.27461 41.5192 8.91497 41.207 9.44327L42.9289 10.4607C43.4487 9.58103 43.6919 8.57872 43.6919 7.488H41.6919ZM41.2046 9.4473C40.8968 9.97383 40.4734 10.3751 39.9143 10.6629L40.8296 12.4411C41.7211 11.9823 42.4284 11.3168 42.9312 10.4567L41.2046 9.4473ZM39.9143 10.6629C39.3457 10.9555 38.6894 11.112 37.9239 11.112V13.112C38.9718 13.112 39.9475 12.8951 40.8296 12.4411L39.9143 10.6629ZM37.9239 10.04C38.5523 10.04 39.1009 9.78039 39.5085 9.3145L38.0034 7.9975C37.9876 8.01551 37.9761 8.02532 37.9699 8.03012C37.9638 8.03475 37.961 8.036 37.9609 8.03604C37.9608 8.03605 37.9597 8.03665 37.9559 8.03745C37.9519 8.03831 37.9418 8.04 37.9239 8.04V10.04ZM39.5216 9.29919C39.9541 8.78436 40.0919 8.1278 40.0919 7.488H38.0919C38.0919 7.8722 38.0058 7.99431 37.9902 8.01281L39.5216 9.29919ZM40.0919 7.488C40.0919 6.85222 39.9557 6.18862 39.5085 5.6775L38.0034 6.9945C38.0041 6.99538 38.0919 7.09978 38.0919 7.488H40.0919ZM39.5216 5.69281C39.1192 5.21372 38.5675 4.936 37.9239 4.936V6.936C37.939 6.936 37.9463 6.93748 37.9477 6.93779C37.9489 6.93804 37.948 6.93789 37.9466 6.93725C37.9454 6.93667 37.9479 6.93759 37.9543 6.94268C37.9609 6.94797 37.9733 6.95898 37.9902 6.97919L39.5216 5.69281ZM37.9239 4.936C37.2803 4.936 36.7287 5.21372 36.3262 5.69281L37.8576 6.97919C37.8746 6.95898 37.887 6.94797 37.8936 6.94268C37.9 6.93759 37.9024 6.93667 37.9012 6.93725C37.8999 6.93789 37.899 6.93804 37.9001 6.93779C37.9016 6.93748 37.9088 6.936 37.9239 6.936V4.936ZM36.3394 5.6775C35.8921 6.18862 35.7559 6.85222 35.7559 7.488H37.7559C37.7559 7.09978 37.8437 6.99538 37.8445 6.9945L36.3394 5.6775ZM35.7559 7.488C35.7559 8.11845 35.8843 8.76728 36.2951 9.28069L37.8568 8.0313C37.8409 8.01138 37.7559 7.88155 37.7559 7.488H35.7559ZM36.3234 9.3145C36.738 9.78838 37.2954 10.04 37.9239 10.04V8.04C37.9013 8.04 37.8872 8.0379 37.8799 8.0364C37.8728 8.03495 37.8696 8.03356 37.8684 8.03305C37.8673 8.03253 37.8644 8.03112 37.859 8.02703C37.8533 8.02278 37.8429 8.01397 37.8285 7.9975L36.3234 9.3145ZM49.7278 12L48.9271 12.599L49.227 13H49.7278V12ZM48.2078 9.968L49.0086 9.36901L48.0863 8.13608L47.335 9.48002L48.2078 9.968ZM47.0718 12V13H47.6584L47.9447 12.488L47.0718 12ZM43.1678 12L42.3242 11.4631L41.3461 13H43.1678V12ZM46.1918 7.248L47.0355 7.78487L47.4056 7.20321L46.9936 6.6504L46.1918 7.248ZM43.0078 2.976V1.976H41.0153L42.206 3.5736L43.0078 2.976ZM46.9758 2.976L47.7788 2.38002L47.479 1.976H46.9758V2.976ZM48.4958 5.024L47.6928 5.61998L48.6116 6.85791L49.3674 5.51426L48.4958 5.024ZM49.6478 2.976V1.976H49.063L48.7762 2.48574L49.6478 2.976ZM53.5518 2.976L54.3817 3.534L55.4293 1.976H53.5518V2.976ZM50.4318 7.616L49.602 7.058L49.207 7.64541L49.6297 8.21319L50.4318 7.616ZM53.6958 12V13H55.6871L54.4979 11.4028L53.6958 12ZM50.5286 11.401L49.0086 9.36901L47.4071 10.567L48.9271 12.599L50.5286 11.401ZM47.335 9.48002L46.199 11.512L47.9447 12.488L49.0807 10.456L47.335 9.48002ZM47.0718 11H43.1678V13H47.0718V11ZM44.0115 12.5369L47.0355 7.78487L45.3482 6.71112L42.3242 11.4631L44.0115 12.5369ZM46.9936 6.6504L43.8096 2.3784L42.206 3.5736L45.39 7.84559L46.9936 6.6504ZM43.0078 3.976H46.9758V1.976H43.0078V3.976ZM46.1728 3.57198L47.6928 5.61998L49.2988 4.42802L47.7788 2.38002L46.1728 3.57198ZM49.3674 5.51426L50.5194 3.46626L48.7762 2.48574L47.6242 4.53374L49.3674 5.51426ZM49.6478 3.976H53.5518V1.976H49.6478V3.976ZM52.722 2.418L49.602 7.058L51.2617 8.174L54.3817 3.534L52.722 2.418ZM49.6297 8.21319L52.8937 12.5972L54.4979 11.4028L51.2339 7.01881L49.6297 8.21319ZM53.6958 11H49.7278V13H53.6958V11Z" fill="black" mask="url(#path-1-outside-1_32638_341378)"/>
</g>
<defs>
<filter id="filter0_d_32638_341378" x="0.0407104" y="0.159973" width="54.6551" height="12.952" filterUnits="userSpaceOnUse" color-interpolation-filters="sRGB">
<feFlood flood-opacity="0" result="BackgroundImageFix"/>
<feColorMatrix in="SourceAlpha" type="matrix" values="0 0 0 0 0 0 0 0 0 0 0 0 0 0 0 0 0 0 127 0" result="hardAlpha"/>
<feOffset dx="1" dy="1"/>
<feComposite in2="hardAlpha" operator="out"/>
<feColorMatrix type="matrix" values="0 0 0 0 0 0 0 0 0 0 0 0 0 0 0 0 0 0 1 0"/>
<feBlend mode="normal" in2="BackgroundImageFix" result="effect1_dropShadow_32638_341378"/>
<feBlend mode="normal" in="SourceGraphic" in2="effect1_dropShadow_32638_341378" result="shape"/>
</filter>
</defs>
</svg>
