<svg width="130" height="14" viewBox="0 0 130 14" fill="none" xmlns="http://www.w3.org/2000/svg">
<g filter="url(#filter0_d_32638_340725)">
<mask id="path-1-outside-1_32638_340725" maskUnits="userSpaceOnUse" x="-1" y="-1" width="131" height="15" fill="black">
<rect fill="white" x="-1" y="-1" width="131" height="15"/>
<path d="M5.73981 12.112C4.38515 12.112 3.26515 11.7973 2.37981 11.168C1.50515 10.528 1.03048 9.59467 0.955813 8.368H4.73181C4.78515 9.01867 5.07315 9.344 5.59581 9.344C5.78781 9.344 5.94781 9.30133 6.07581 9.216C6.21448 9.12 6.28381 8.976 6.28381 8.784C6.28381 8.51733 6.13981 8.304 5.85181 8.144C5.56381 7.97333 5.11581 7.78133 4.50781 7.568C3.78248 7.312 3.17981 7.06133 2.69981 6.816C2.23048 6.57067 1.82515 6.21333 1.48381 5.744C1.14248 5.27467 0.977146 4.672 0.987813 3.936C0.987813 3.2 1.17448 2.576 1.54781 2.064C1.93181 1.54133 2.44915 1.14667 3.09981 0.879999C3.76115 0.613333 4.50248 0.48 5.32381 0.48C6.71048 0.48 7.80915 0.8 8.61981 1.44C9.44115 2.08 9.87315 2.98133 9.91581 4.144H6.09181C6.08115 3.824 6.00115 3.59467 5.85181 3.456C5.70248 3.31733 5.52115 3.248 5.30781 3.248C5.15848 3.248 5.03581 3.30133 4.93981 3.408C4.84381 3.504 4.79581 3.64267 4.79581 3.824C4.79581 4.08 4.93448 4.29333 5.21181 4.464C5.49981 4.624 5.95315 4.82133 6.57181 5.056C7.28648 5.32267 7.87315 5.57867 8.33181 5.824C8.80115 6.06933 9.20648 6.41067 9.54781 6.848C9.88915 7.28533 10.0598 7.83467 10.0598 8.496C10.0598 9.18933 9.88915 9.81333 9.54781 10.368C9.20648 10.912 8.71048 11.3387 8.05981 11.648C7.40915 11.9573 6.63581 12.112 5.73981 12.112ZM18.2838 5.072V8H10.8278V5.072H18.2838ZM20.2066 6.32C20.2066 5.2 20.4306 4.20267 20.8786 3.328C21.3372 2.45333 21.9879 1.776 22.8306 1.296C23.6732 0.805333 24.6652 0.559999 25.8066 0.559999C26.7879 0.559999 27.6626 0.746666 28.4306 1.12C29.2092 1.48267 29.8386 2 30.3186 2.672C30.8092 3.344 31.1346 4.128 31.2946 5.024H27.5506C27.3799 4.65067 27.1346 4.36267 26.8146 4.16C26.5052 3.94667 26.1479 3.84 25.7426 3.84C25.1452 3.84 24.6706 4.064 24.3186 4.512C23.9772 4.96 23.8066 5.56267 23.8066 6.32C23.8066 7.07733 23.9772 7.68 24.3186 8.128C24.6706 8.576 25.1452 8.8 25.7426 8.8C26.1479 8.8 26.5052 8.69867 26.8146 8.496C27.1346 8.28267 27.3799 7.98933 27.5506 7.616H31.2946C31.1346 8.512 30.8092 9.296 30.3186 9.968C29.8386 10.64 29.2092 11.1627 28.4306 11.536C27.6626 11.8987 26.7879 12.08 25.8066 12.08C24.6652 12.08 23.6732 11.84 22.8306 11.36C21.9879 10.8693 21.3372 10.1867 20.8786 9.312C20.4306 8.43733 20.2066 7.44 20.2066 6.32ZM39.8374 10.288H36.0614L35.5014 12H31.7734L35.9174 0.672H40.0134L44.1414 12H40.3974L39.8374 10.288ZM38.9734 7.616L37.9494 4.464L36.9254 7.616H38.9734ZM53.8444 0.672V3.488H50.8364V12H47.2844V3.488H44.3084V0.672H53.8444ZM68.9346 0.672L65.1266 12H60.5346L56.7266 0.672H60.5026L62.8386 8.464L65.1586 0.672H68.9346ZM74.0177 12.112C73.111 12.112 72.295 11.9253 71.5697 11.552C70.8444 11.1787 70.2737 10.6453 69.8577 9.952C69.4524 9.248 69.2497 8.42667 69.2497 7.488C69.2497 6.54933 69.4524 5.73333 69.8577 5.04C70.2737 4.336 70.8444 3.79733 71.5697 3.424C72.295 3.05067 73.111 2.864 74.0177 2.864C74.9244 2.864 75.7404 3.05067 76.4657 3.424C77.191 3.79733 77.7564 4.336 78.1617 5.04C78.5777 5.73333 78.7857 6.54933 78.7857 7.488C78.7857 8.42667 78.5777 9.248 78.1617 9.952C77.7564 10.6453 77.191 11.1787 76.4657 11.552C75.7404 11.9253 74.9244 12.112 74.0177 12.112ZM74.0177 9.04C74.3484 9.04 74.6257 8.912 74.8497 8.656C75.0737 8.38933 75.1857 8 75.1857 7.488C75.1857 6.976 75.0737 6.592 74.8497 6.336C74.6257 6.06933 74.3484 5.936 74.0177 5.936C73.687 5.936 73.4097 6.06933 73.1857 6.336C72.9617 6.592 72.8497 6.976 72.8497 7.488C72.8497 8 72.9564 8.38933 73.1697 8.656C73.3937 8.912 73.6764 9.04 74.0177 9.04ZM89.4536 2.976V12H85.9016V10.624C85.6242 11.0507 85.2509 11.3973 84.7816 11.664C84.3229 11.9307 83.7736 12.064 83.1336 12.064C82.0989 12.064 81.2882 11.7173 80.7016 11.024C80.1256 10.3307 79.8376 9.392 79.8376 8.208V2.976H83.3736V7.76C83.3736 8.18667 83.4856 8.528 83.7096 8.784C83.9442 9.02933 84.2536 9.152 84.6376 9.152C85.0322 9.152 85.3416 9.02933 85.5656 8.784C85.7896 8.528 85.9016 8.18667 85.9016 7.76V2.976H89.4536ZM90.5778 7.488C90.5778 6.54933 90.7698 5.73333 91.1538 5.04C91.5485 4.336 92.0925 3.79733 92.7858 3.424C93.4898 3.05067 94.2898 2.864 95.1858 2.864C96.3591 2.864 97.3458 3.19467 98.1458 3.856C98.9565 4.51733 99.4685 5.43467 99.6818 6.608H95.9218C95.7831 6.13867 95.5111 5.904 95.1058 5.904C94.8178 5.904 94.5885 6.03733 94.4178 6.304C94.2578 6.57067 94.1778 6.96533 94.1778 7.488C94.1778 8.01067 94.2578 8.40533 94.4178 8.672C94.5885 8.93867 94.8178 9.072 95.1058 9.072C95.5111 9.072 95.7831 8.83733 95.9218 8.368H99.6818C99.4685 9.54133 98.9565 10.4587 98.1458 11.12C97.3458 11.7813 96.3591 12.112 95.1858 12.112C94.2898 12.112 93.4898 11.9253 92.7858 11.552C92.0925 11.1787 91.5485 10.6453 91.1538 9.952C90.7698 9.248 90.5778 8.42667 90.5778 7.488ZM107.128 2.912C108.162 2.912 108.968 3.25867 109.544 3.952C110.13 4.64533 110.424 5.584 110.424 6.768V12H106.888V7.216C106.888 6.78933 106.77 6.45333 106.536 6.208C106.312 5.952 106.008 5.824 105.624 5.824C105.229 5.824 104.92 5.952 104.696 6.208C104.472 6.45333 104.36 6.78933 104.36 7.216V12H100.808V0.16H104.36V4.352C104.637 3.92533 105.005 3.57867 105.464 3.312C105.933 3.04533 106.488 2.912 107.128 2.912ZM120.7 7.408C120.7 7.65333 120.684 7.888 120.652 8.112H114.94C114.993 8.89067 115.319 9.28 115.916 9.28C116.3 9.28 116.577 9.104 116.748 8.752H120.508C120.38 9.392 120.108 9.968 119.692 10.48C119.287 10.9813 118.769 11.3813 118.14 11.68C117.521 11.968 116.839 12.112 116.092 12.112C115.196 12.112 114.396 11.9253 113.692 11.552C112.999 11.1787 112.455 10.6453 112.06 9.952C111.676 9.248 111.484 8.42667 111.484 7.488C111.484 6.54933 111.676 5.73333 112.06 5.04C112.455 4.336 112.999 3.79733 113.692 3.424C114.396 3.05067 115.196 2.864 116.092 2.864C116.988 2.864 117.783 3.05067 118.476 3.424C119.18 3.78667 119.724 4.30933 120.108 4.992C120.503 5.67467 120.7 6.48 120.7 7.408ZM117.1 6.56C117.1 6.26133 117.004 6.03733 116.812 5.888C116.62 5.728 116.38 5.648 116.092 5.648C115.463 5.648 115.095 5.952 114.988 6.56H117.1ZM125.375 4.64C125.738 4.11733 126.181 3.70133 126.703 3.392C127.226 3.072 127.77 2.912 128.335 2.912V6.704H127.327C126.655 6.704 126.159 6.82133 125.839 7.056C125.53 7.29067 125.375 7.70667 125.375 8.304V12H121.823V2.976H125.375V4.64Z"/>
</mask>
<path d="M5.73981 12.112C4.38515 12.112 3.26515 11.7973 2.37981 11.168C1.50515 10.528 1.03048 9.59467 0.955813 8.368H4.73181C4.78515 9.01867 5.07315 9.344 5.59581 9.344C5.78781 9.344 5.94781 9.30133 6.07581 9.216C6.21448 9.12 6.28381 8.976 6.28381 8.784C6.28381 8.51733 6.13981 8.304 5.85181 8.144C5.56381 7.97333 5.11581 7.78133 4.50781 7.568C3.78248 7.312 3.17981 7.06133 2.69981 6.816C2.23048 6.57067 1.82515 6.21333 1.48381 5.744C1.14248 5.27467 0.977146 4.672 0.987813 3.936C0.987813 3.2 1.17448 2.576 1.54781 2.064C1.93181 1.54133 2.44915 1.14667 3.09981 0.879999C3.76115 0.613333 4.50248 0.48 5.32381 0.48C6.71048 0.48 7.80915 0.8 8.61981 1.44C9.44115 2.08 9.87315 2.98133 9.91581 4.144H6.09181C6.08115 3.824 6.00115 3.59467 5.85181 3.456C5.70248 3.31733 5.52115 3.248 5.30781 3.248C5.15848 3.248 5.03581 3.30133 4.93981 3.408C4.84381 3.504 4.79581 3.64267 4.79581 3.824C4.79581 4.08 4.93448 4.29333 5.21181 4.464C5.49981 4.624 5.95315 4.82133 6.57181 5.056C7.28648 5.32267 7.87315 5.57867 8.33181 5.824C8.80115 6.06933 9.20648 6.41067 9.54781 6.848C9.88915 7.28533 10.0598 7.83467 10.0598 8.496C10.0598 9.18933 9.88915 9.81333 9.54781 10.368C9.20648 10.912 8.71048 11.3387 8.05981 11.648C7.40915 11.9573 6.63581 12.112 5.73981 12.112ZM18.2838 5.072V8H10.8278V5.072H18.2838ZM20.2066 6.32C20.2066 5.2 20.4306 4.20267 20.8786 3.328C21.3372 2.45333 21.9879 1.776 22.8306 1.296C23.6732 0.805333 24.6652 0.559999 25.8066 0.559999C26.7879 0.559999 27.6626 0.746666 28.4306 1.12C29.2092 1.48267 29.8386 2 30.3186 2.672C30.8092 3.344 31.1346 4.128 31.2946 5.024H27.5506C27.3799 4.65067 27.1346 4.36267 26.8146 4.16C26.5052 3.94667 26.1479 3.84 25.7426 3.84C25.1452 3.84 24.6706 4.064 24.3186 4.512C23.9772 4.96 23.8066 5.56267 23.8066 6.32C23.8066 7.07733 23.9772 7.68 24.3186 8.128C24.6706 8.576 25.1452 8.8 25.7426 8.8C26.1479 8.8 26.5052 8.69867 26.8146 8.496C27.1346 8.28267 27.3799 7.98933 27.5506 7.616H31.2946C31.1346 8.512 30.8092 9.296 30.3186 9.968C29.8386 10.64 29.2092 11.1627 28.4306 11.536C27.6626 11.8987 26.7879 12.08 25.8066 12.08C24.6652 12.08 23.6732 11.84 22.8306 11.36C21.9879 10.8693 21.3372 10.1867 20.8786 9.312C20.4306 8.43733 20.2066 7.44 20.2066 6.32ZM39.8374 10.288H36.0614L35.5014 12H31.7734L35.9174 0.672H40.0134L44.1414 12H40.3974L39.8374 10.288ZM38.9734 7.616L37.9494 4.464L36.9254 7.616H38.9734ZM53.8444 0.672V3.488H50.8364V12H47.2844V3.488H44.3084V0.672H53.8444ZM68.9346 0.672L65.1266 12H60.5346L56.7266 0.672H60.5026L62.8386 8.464L65.1586 0.672H68.9346ZM74.0177 12.112C73.111 12.112 72.295 11.9253 71.5697 11.552C70.8444 11.1787 70.2737 10.6453 69.8577 9.952C69.4524 9.248 69.2497 8.42667 69.2497 7.488C69.2497 6.54933 69.4524 5.73333 69.8577 5.04C70.2737 4.336 70.8444 3.79733 71.5697 3.424C72.295 3.05067 73.111 2.864 74.0177 2.864C74.9244 2.864 75.7404 3.05067 76.4657 3.424C77.191 3.79733 77.7564 4.336 78.1617 5.04C78.5777 5.73333 78.7857 6.54933 78.7857 7.488C78.7857 8.42667 78.5777 9.248 78.1617 9.952C77.7564 10.6453 77.191 11.1787 76.4657 11.552C75.7404 11.9253 74.9244 12.112 74.0177 12.112ZM74.0177 9.04C74.3484 9.04 74.6257 8.912 74.8497 8.656C75.0737 8.38933 75.1857 8 75.1857 7.488C75.1857 6.976 75.0737 6.592 74.8497 6.336C74.6257 6.06933 74.3484 5.936 74.0177 5.936C73.687 5.936 73.4097 6.06933 73.1857 6.336C72.9617 6.592 72.8497 6.976 72.8497 7.488C72.8497 8 72.9564 8.38933 73.1697 8.656C73.3937 8.912 73.6764 9.04 74.0177 9.04ZM89.4536 2.976V12H85.9016V10.624C85.6242 11.0507 85.2509 11.3973 84.7816 11.664C84.3229 11.9307 83.7736 12.064 83.1336 12.064C82.0989 12.064 81.2882 11.7173 80.7016 11.024C80.1256 10.3307 79.8376 9.392 79.8376 8.208V2.976H83.3736V7.76C83.3736 8.18667 83.4856 8.528 83.7096 8.784C83.9442 9.02933 84.2536 9.152 84.6376 9.152C85.0322 9.152 85.3416 9.02933 85.5656 8.784C85.7896 8.528 85.9016 8.18667 85.9016 7.76V2.976H89.4536ZM90.5778 7.488C90.5778 6.54933 90.7698 5.73333 91.1538 5.04C91.5485 4.336 92.0925 3.79733 92.7858 3.424C93.4898 3.05067 94.2898 2.864 95.1858 2.864C96.3591 2.864 97.3458 3.19467 98.1458 3.856C98.9565 4.51733 99.4685 5.43467 99.6818 6.608H95.9218C95.7831 6.13867 95.5111 5.904 95.1058 5.904C94.8178 5.904 94.5885 6.03733 94.4178 6.304C94.2578 6.57067 94.1778 6.96533 94.1778 7.488C94.1778 8.01067 94.2578 8.40533 94.4178 8.672C94.5885 8.93867 94.8178 9.072 95.1058 9.072C95.5111 9.072 95.7831 8.83733 95.9218 8.368H99.6818C99.4685 9.54133 98.9565 10.4587 98.1458 11.12C97.3458 11.7813 96.3591 12.112 95.1858 12.112C94.2898 12.112 93.4898 11.9253 92.7858 11.552C92.0925 11.1787 91.5485 10.6453 91.1538 9.952C90.7698 9.248 90.5778 8.42667 90.5778 7.488ZM107.128 2.912C108.162 2.912 108.968 3.25867 109.544 3.952C110.13 4.64533 110.424 5.584 110.424 6.768V12H106.888V7.216C106.888 6.78933 106.77 6.45333 106.536 6.208C106.312 5.952 106.008 5.824 105.624 5.824C105.229 5.824 104.92 5.952 104.696 6.208C104.472 6.45333 104.36 6.78933 104.36 7.216V12H100.808V0.16H104.36V4.352C104.637 3.92533 105.005 3.57867 105.464 3.312C105.933 3.04533 106.488 2.912 107.128 2.912ZM120.7 7.408C120.7 7.65333 120.684 7.888 120.652 8.112H114.94C114.993 8.89067 115.319 9.28 115.916 9.28C116.3 9.28 116.577 9.104 116.748 8.752H120.508C120.38 9.392 120.108 9.968 119.692 10.48C119.287 10.9813 118.769 11.3813 118.14 11.68C117.521 11.968 116.839 12.112 116.092 12.112C115.196 12.112 114.396 11.9253 113.692 11.552C112.999 11.1787 112.455 10.6453 112.06 9.952C111.676 9.248 111.484 8.42667 111.484 7.488C111.484 6.54933 111.676 5.73333 112.06 5.04C112.455 4.336 112.999 3.79733 113.692 3.424C114.396 3.05067 115.196 2.864 116.092 2.864C116.988 2.864 117.783 3.05067 118.476 3.424C119.18 3.78667 119.724 4.30933 120.108 4.992C120.503 5.67467 120.7 6.48 120.7 7.408ZM117.1 6.56C117.1 6.26133 117.004 6.03733 116.812 5.888C116.62 5.728 116.38 5.648 116.092 5.648C115.463 5.648 115.095 5.952 114.988 6.56H117.1ZM125.375 4.64C125.738 4.11733 126.181 3.70133 126.703 3.392C127.226 3.072 127.77 2.912 128.335 2.912V6.704H127.327C126.655 6.704 126.159 6.82133 125.839 7.056C125.53 7.29067 125.375 7.70667 125.375 8.304V12H121.823V2.976H125.375V4.64Z" fill="white"/>
<path d="M2.37981 11.168L1.78925 11.9751L1.80043 11.9831L2.37981 11.168ZM0.955811 8.368V7.368H-0.106911L-0.0423431 8.42876L0.955811 8.368ZM4.73181 8.368L5.72847 8.28631L5.6532 7.368H4.73181V8.368ZM6.07581 9.216L6.63052 10.048L6.63781 10.0432L6.64502 10.0382L6.07581 9.216ZM5.85181 8.144L5.34201 9.00429L5.354 9.01139L5.36617 9.01816L5.85181 8.144ZM4.50781 7.568L4.17499 8.51099L4.17673 8.5116L4.50781 7.568ZM2.69981 6.816L2.23654 7.70226L2.24471 7.70644L2.69981 6.816ZM1.48381 5.744L2.29255 5.15583V5.15583L1.48381 5.744ZM0.987816 3.936L1.98771 3.95049L1.98782 3.94325V3.936H0.987816ZM1.54781 2.064L0.741928 1.47192L0.739807 1.47483L1.54781 2.064ZM3.09982 0.879999L2.72584 -0.0474572L2.72059 -0.0453057L3.09982 0.879999ZM8.61981 1.44L8.00015 2.2249L8.00517 2.2288L8.61981 1.44ZM9.91581 4.144V5.144H10.9532L10.9151 4.10733L9.91581 4.144ZM6.09181 4.144L5.09237 4.17731L5.12459 5.144H6.09181V4.144ZM4.93981 3.408L5.64692 4.11511L5.66551 4.09651L5.68311 4.07696L4.93981 3.408ZM5.21181 4.464L4.68771 5.31566L4.7067 5.32734L4.72617 5.33816L5.21181 4.464ZM6.57182 5.056L6.21716 5.99101L6.22222 5.9929L6.57182 5.056ZM8.33181 5.824L7.86014 6.70582L7.86856 6.71023L8.33181 5.824ZM9.54781 6.848L8.7595 7.46327L9.54781 6.848ZM9.54781 10.368L10.3949 10.8995L10.3995 10.8921L9.54781 10.368ZM8.05981 11.648L7.63046 10.7449L8.05981 11.648ZM5.73981 11.112C4.54099 11.112 3.63746 10.8351 2.95919 10.3529L1.80043 11.9831C2.89283 12.7596 4.22931 13.112 5.73981 13.112V11.112ZM2.97032 10.361C2.36974 9.92151 2.01328 9.28157 1.95396 8.30724L-0.0423431 8.42876C0.0476837 9.90776 0.640556 11.1345 1.7893 11.975L2.97032 10.361ZM0.955811 9.368H4.73181V7.368H0.955811V9.368ZM3.73515 8.44969C3.77105 8.88763 3.89587 9.37518 4.23905 9.76284C4.61118 10.1832 5.11153 10.344 5.59581 10.344V8.344C5.56821 8.344 5.58235 8.33973 5.62025 8.35495C5.63916 8.36253 5.66061 8.37367 5.68238 8.389C5.70418 8.40434 5.72235 8.42109 5.73657 8.43716C5.76529 8.4696 5.76754 8.48716 5.75975 8.46488C5.75136 8.44088 5.73659 8.38533 5.72847 8.28631L3.73515 8.44969ZM5.59581 10.344C5.93615 10.344 6.30167 10.2673 6.63052 10.048L5.52111 8.38395C5.55483 8.36147 5.58455 8.35046 5.60215 8.34577C5.61832 8.34145 5.61832 8.344 5.59581 8.344V10.344ZM6.64502 10.0382C7.09408 9.72731 7.28381 9.25147 7.28381 8.784H5.28381C5.28381 8.75964 5.28851 8.69006 5.33081 8.60218C5.37545 8.50948 5.44174 8.43871 5.5066 8.39381L6.64502 10.0382ZM7.28381 8.784C7.28381 8.0635 6.85486 7.55729 6.33746 7.26984L5.36617 9.01816C5.40999 9.0425 5.38417 9.03859 5.34696 8.98347C5.32803 8.95543 5.31078 8.92067 5.29899 8.88135C5.28728 8.84232 5.28381 8.80841 5.28381 8.784H7.28381ZM6.36162 7.28371C5.98655 7.06145 5.46323 6.84346 4.8389 6.6244L4.17673 8.5116C4.76839 8.7192 5.14108 8.88522 5.34201 9.00429L6.36162 7.28371ZM4.84063 6.62501C4.1411 6.37812 3.58264 6.14418 3.15492 5.92556L2.24471 7.70644C2.77699 7.97849 3.42386 8.24588 4.175 8.51099L4.84063 6.62501ZM3.16306 5.92977C2.84303 5.76248 2.55206 5.51265 2.29255 5.15583L0.675079 6.33217C1.09824 6.91402 1.61793 7.37885 2.23656 7.70223L3.16306 5.92977ZM2.29255 5.15583C2.10907 4.90355 1.97932 4.52885 1.98771 3.95049L-0.012085 3.92151C-0.025032 4.81515 0.175888 5.64578 0.675079 6.33217L2.29255 5.15583ZM1.98782 3.936C1.98782 3.37635 2.12662 2.96751 2.35582 2.65317L0.739807 1.47483C0.222343 2.18449 -0.0121841 3.02365 -0.0121841 3.936H1.98782ZM2.35369 2.65608C2.61969 2.29403 2.98367 2.00832 3.47903 1.8053L2.72059 -0.0453057C1.91463 0.285007 1.24393 0.788638 0.741928 1.47192L2.35369 2.65608ZM3.47378 1.80744C3.99963 1.59541 4.61139 1.48 5.32381 1.48V-0.52C4.39357 -0.52 3.52267 -0.368742 2.72585 -0.0474424L3.47378 1.80744ZM5.32381 1.48C6.56241 1.48 7.41805 1.76532 8.00017 2.22488L9.23946 0.655117C8.20024 -0.165318 6.85855 -0.52 5.32381 -0.52V1.48ZM8.00517 2.2288C8.56434 2.66452 8.88322 3.27422 8.91649 4.18067L10.9151 4.10733C10.8631 2.68845 10.318 1.49548 9.23446 0.651199L8.00517 2.2288ZM9.91581 3.144H6.09181V5.144H9.91581V3.144ZM7.09126 4.11069C7.07664 3.67202 6.96356 3.12369 6.53226 2.72321L5.17136 4.18879C5.13983 4.15952 5.11729 4.13022 5.10213 4.10589C5.08732 4.08214 5.0811 4.06565 5.07961 4.06137C5.07821 4.05735 5.08085 4.06378 5.08416 4.08384C5.08746 4.10386 5.09093 4.13443 5.09237 4.17731L7.09126 4.11069ZM6.53226 2.72321C6.18864 2.40413 5.76054 2.248 5.30782 2.248V4.248C5.30448 4.248 5.28079 4.24709 5.24667 4.23405C5.21178 4.22071 5.18584 4.20224 5.17136 4.18879L6.53226 2.72321ZM5.30782 2.248C4.88805 2.248 4.49073 2.41214 4.19652 2.73904L5.68311 4.07696C5.64243 4.12216 5.58189 4.17057 5.50254 4.20507C5.42416 4.23915 5.35432 4.248 5.30782 4.248V2.248ZM4.2327 2.70089C3.89288 3.04071 3.79581 3.46936 3.79581 3.824H5.79581C5.79581 3.81944 5.79665 3.85377 5.7768 3.91111C5.75536 3.97304 5.71442 4.0476 5.64692 4.11511L4.2327 2.70089ZM3.79581 3.824C3.79581 4.52312 4.20667 5.01962 4.68771 5.31566L5.73591 3.61234C5.68934 3.58368 5.70752 3.58372 5.73826 3.63101C5.75409 3.65537 5.76974 3.68711 5.78083 3.72465C5.79191 3.76215 5.79581 3.79652 5.79581 3.824H3.79581ZM4.72617 5.33816C5.07991 5.53468 5.58883 5.75266 6.21716 5.991L6.92647 4.121C6.31747 3.89 5.91972 3.71332 5.69746 3.58984L4.72617 5.33816ZM6.22222 5.9929C6.91241 6.25043 7.45444 6.48877 7.86016 6.70578L8.80347 4.94221C8.29185 4.66856 7.66055 4.3949 6.9214 4.1191L6.22222 5.9929ZM7.86856 6.71023C8.20544 6.88632 8.50168 7.13294 8.7595 7.46327L10.3361 6.23273C9.91128 5.68839 9.39685 5.25234 8.79507 4.93777L7.86856 6.71023ZM8.7595 7.46327C8.93865 7.69282 9.05981 8.01327 9.05981 8.496H11.0598C11.0598 7.65606 10.8396 6.87785 10.3361 6.23273L8.7595 7.46327ZM9.05981 8.496C9.05981 9.01673 8.93417 9.45713 8.69615 9.8439L10.3995 10.8921C10.8441 10.1695 11.0598 9.36193 11.0598 8.496H9.05981ZM8.70074 9.83651C8.47247 10.2003 8.13094 10.5069 7.63046 10.7449L8.48917 12.5511C9.29002 12.1704 9.94049 11.6237 10.3949 10.8995L8.70074 9.83651ZM7.63046 10.7449C7.14253 10.9768 6.52257 11.112 5.73981 11.112V13.112C6.74905 13.112 7.67576 12.9378 8.48917 12.5511L7.63046 10.7449ZM18.2838 5.072H19.2838V4.072H18.2838V5.072ZM18.2838 8V9H19.2838V8H18.2838ZM10.8278 8H9.82781V9H10.8278V8ZM10.8278 5.072V4.072H9.82781V5.072H10.8278ZM17.2838 5.072V8H19.2838V5.072H17.2838ZM18.2838 7H10.8278V9H18.2838V7ZM11.8278 8V5.072H9.82781V8H11.8278ZM10.8278 6.072H18.2838V4.072H10.8278V6.072ZM20.8786 3.328L19.9929 2.86357L19.9885 2.87212L20.8786 3.328ZM22.8306 1.296L23.3255 2.16496L23.3338 2.16018L22.8306 1.296ZM28.4306 1.12L27.9934 2.01937L28.0008 2.023L28.0084 2.0265L28.4306 1.12ZM30.3186 2.672L29.5048 3.25327L29.5109 3.26169L30.3186 2.672ZM31.2946 5.024V6.024H32.489L32.279 4.84821L31.2946 5.024ZM27.5506 5.024L26.6411 5.43976L26.9082 6.024H27.5506V5.024ZM26.8146 4.16L26.2468 4.98321L26.263 4.99434L26.2795 5.00482L26.8146 4.16ZM24.3186 4.512L23.5322 3.89418L23.5276 3.90003L23.5231 3.90596L24.3186 4.512ZM24.3186 8.128L23.5231 8.73404L23.5276 8.73997L23.5322 8.74582L24.3186 8.128ZM26.8146 8.496L27.3626 9.33249L27.3693 9.32805L26.8146 8.496ZM27.5506 7.616V6.616H26.9082L26.6411 7.20024L27.5506 7.616ZM31.2946 7.616L32.279 7.79179L32.489 6.616H31.2946V7.616ZM30.3186 9.968L29.5109 9.37827L29.5048 9.38676L30.3186 9.968ZM28.4306 11.536L28.8576 12.4403L28.8629 12.4377L28.4306 11.536ZM22.8306 11.36L22.3273 12.2242L22.3356 12.2289L22.8306 11.36ZM20.8786 9.312L19.9885 9.7679L19.9929 9.77641L20.8786 9.312ZM21.2066 6.32C21.2066 5.33623 21.4024 4.49885 21.7686 3.78387L19.9885 2.87212C19.4587 3.90648 19.2066 5.06377 19.2066 6.32H21.2066ZM21.7642 3.79241C22.1357 3.08387 22.6523 2.5484 23.3255 2.16492L22.3356 0.427081C21.3235 1.0036 20.5387 1.82279 19.9929 2.86359L21.7642 3.79241ZM23.3338 2.16018C23.9993 1.77262 24.8116 1.56 25.8066 1.56V-0.440001C24.5189 -0.440001 23.3471 -0.161951 22.3274 0.431824L23.3338 2.16018ZM25.8066 1.56C26.659 1.56 27.3806 1.72148 27.9934 2.01937L28.8678 0.220632C27.9445 -0.228148 26.9167 -0.440001 25.8066 -0.440001V1.56ZM28.0084 2.0265C28.6372 2.31938 29.1292 2.72737 29.5048 3.25324L31.1323 2.09076C30.5479 1.27263 29.7813 0.645956 28.8528 0.2135L28.0084 2.0265ZM29.5109 3.26169C29.9038 3.79977 30.1743 4.43914 30.3101 5.19979L32.279 4.84821C32.0948 3.81686 31.7146 2.88823 31.1262 2.0823L29.5109 3.26169ZM31.2946 4.024H27.5506V6.024H31.2946V4.024ZM28.46 4.60824C28.2158 4.07402 27.8471 3.63026 27.3496 3.31518L26.2795 5.00482C26.422 5.09507 26.544 5.22731 26.6411 5.43976L28.46 4.60824ZM27.3823 3.33679C26.8927 2.99915 26.3339 2.84 25.7426 2.84V4.84C25.9619 4.84 26.1177 4.89418 26.2468 4.98321L27.3823 3.33679ZM25.7426 2.84C24.8556 2.84 24.0842 3.19165 23.5322 3.89418L25.1049 5.12982C25.2569 4.93635 25.4349 4.84 25.7426 4.84V2.84ZM23.5231 3.90596C23.0099 4.57952 22.8066 5.41857 22.8066 6.32H24.8066C24.8066 5.70677 24.9445 5.34047 25.114 5.11804L23.5231 3.90596ZM22.8066 6.32C22.8066 7.22143 23.0099 8.06047 23.5231 8.73404L25.114 7.52196C24.9445 7.29953 24.8066 6.93323 24.8066 6.32H22.8066ZM23.5322 8.74582C24.0842 9.44835 24.8556 9.8 25.7426 9.8V7.8C25.4349 7.8 25.2569 7.70365 25.1049 7.51018L23.5322 8.74582ZM25.7426 9.8C26.3231 9.8 26.8748 9.65202 27.3626 9.33246L26.2665 7.65954C26.1356 7.74532 25.9727 7.8 25.7426 7.8V9.8ZM27.3693 9.32805C27.8544 9.00461 28.2175 8.56226 28.46 8.03176L26.6411 7.20024C26.5423 7.4164 26.4147 7.56072 26.2599 7.66395L27.3693 9.32805ZM27.5506 8.616H31.2946V6.616H27.5506V8.616ZM30.3101 7.44021C30.1743 8.20086 29.9038 8.84023 29.5109 9.37831L31.1262 10.5577C31.7146 9.75177 32.0948 8.82314 32.279 7.79179L30.3101 7.44021ZM29.5048 9.38676C29.1274 9.91511 28.632 10.3304 27.9982 10.6343L28.8629 12.4377C29.7865 11.9949 30.5497 11.3649 31.1323 10.5492L29.5048 9.38676ZM28.0036 10.6318C27.3883 10.9223 26.6631 11.08 25.8066 11.08V13.08C26.9127 13.08 27.9368 12.8751 28.8576 12.4402L28.0036 10.6318ZM25.8066 11.08C24.8079 11.08 23.9926 10.8711 23.3255 10.4911L22.3356 12.2289C23.3538 12.8089 24.5225 13.08 25.8066 13.08V11.08ZM23.3338 10.4958C22.6558 10.1011 22.1367 9.55795 21.7642 8.84759L19.9929 9.77641C20.5378 10.8154 21.32 11.6376 22.3274 12.2242L23.3338 10.4958ZM21.7686 8.85612C21.4024 8.14115 21.2066 7.30377 21.2066 6.32H19.2066C19.2066 7.57623 19.4587 8.73352 19.9885 9.76788L21.7686 8.85612ZM39.8374 10.288L40.7879 9.97711L40.5625 9.288H39.8374V10.288ZM36.0614 10.288V9.288H35.3364L35.111 9.97711L36.0614 10.288ZM35.5014 12V13H36.2265L36.4519 12.3109L35.5014 12ZM31.7734 12L30.8343 11.6564L30.3428 13H31.7734V12ZM35.9174 0.672V-0.328H35.2184L34.9783 0.328447L35.9174 0.672ZM40.0134 0.672L40.953 0.329618L40.7134 -0.328H40.0134V0.672ZM44.1414 12V13H45.5702L45.081 11.6576L44.1414 12ZM40.3974 12L39.447 12.3109L39.6724 13H40.3974V12ZM38.9734 7.616V8.616H40.3498L39.9245 7.30702L38.9734 7.616ZM37.9494 4.464L38.9005 4.15502L37.9494 1.22751L36.9984 4.15502L37.9494 4.464ZM36.9254 7.616L35.9744 7.30702L35.5491 8.616H36.9254V7.616ZM39.8374 9.288H36.0614V11.288H39.8374V9.288ZM35.111 9.97711L34.551 11.6891L36.4519 12.3109L37.0119 10.5989L35.111 9.97711ZM35.5014 11H31.7734V13H35.5014V11ZM32.7126 12.3436L36.8566 1.01555L34.9783 0.328447L30.8343 11.6564L32.7126 12.3436ZM35.9174 1.672H40.0134V-0.328H35.9174V1.672ZM39.0739 1.01438L43.2019 12.3424L45.081 11.6576L40.953 0.329618L39.0739 1.01438ZM44.1414 11H40.3974V13H44.1414V11ZM41.3479 11.6891L40.7879 9.97711L38.887 10.5989L39.447 12.3109L41.3479 11.6891ZM39.9245 7.30702L38.9005 4.15502L36.9984 4.77298L38.0224 7.92498L39.9245 7.30702ZM36.9984 4.15502L35.9744 7.30702L37.8765 7.92498L38.9005 4.77298L36.9984 4.15502ZM36.9254 8.616H38.9734V6.616H36.9254V8.616ZM53.8444 0.672H54.8444V-0.328H53.8444V0.672ZM53.8444 3.488V4.488H54.8444V3.488H53.8444ZM50.8364 3.488V2.488H49.8364V3.488H50.8364ZM50.8364 12V13H51.8364V12H50.8364ZM47.2844 12H46.2844V13H47.2844V12ZM47.2844 3.488H48.2844V2.488H47.2844V3.488ZM44.3084 3.488H43.3084V4.488H44.3084V3.488ZM44.3084 0.672V-0.328H43.3084V0.672H44.3084ZM52.8444 0.672V3.488H54.8444V0.672H52.8444ZM53.8444 2.488H50.8364V4.488H53.8444V2.488ZM49.8364 3.488V12H51.8364V3.488H49.8364ZM50.8364 11H47.2844V13H50.8364V11ZM48.2844 12V3.488H46.2844V12H48.2844ZM47.2844 2.488H44.3084V4.488H47.2844V2.488ZM45.3084 3.488V0.672H43.3084V3.488H45.3084ZM44.3084 1.672H53.8444V-0.328H44.3084V1.672ZM68.9346 0.672L69.8824 0.990636L70.3257 -0.328H68.9346V0.672ZM65.1266 12V13H65.8454L66.0744 12.3186L65.1266 12ZM60.5346 12L59.5867 12.3186L59.8157 13H60.5346V12ZM56.7266 0.672V-0.328H55.3354L55.7787 0.990636L56.7266 0.672ZM60.5026 0.672L61.4604 0.384832L61.2467 -0.328H60.5026V0.672ZM62.8386 8.464L61.8807 8.75117L62.8419 11.9573L63.797 8.74936L62.8386 8.464ZM65.1586 0.672V-0.328H64.4129L64.2001 0.386639L65.1586 0.672ZM67.9867 0.353364L64.1787 11.6814L66.0744 12.3186L69.8824 0.990636L67.9867 0.353364ZM65.1266 11H60.5346V13H65.1266V11ZM61.4824 11.6814L57.6744 0.353364L55.7787 0.990636L59.5867 12.3186L61.4824 11.6814ZM56.7266 1.672H60.5026V-0.328H56.7266V1.672ZM59.5447 0.959167L61.8807 8.75117L63.7964 8.17683L61.4604 0.384832L59.5447 0.959167ZM63.797 8.74936L66.117 0.957361L64.2001 0.386639L61.8801 8.17864L63.797 8.74936ZM65.1586 1.672H68.9346V-0.328H65.1586V1.672ZM71.5697 11.552L72.0273 10.6629L71.5697 11.552ZM69.8577 9.952L68.9911 10.451L68.9956 10.4588L69.0002 10.4665L69.8577 9.952ZM69.8577 5.04L68.9967 4.53126L68.9944 4.5353L69.8577 5.04ZM71.5697 3.424L72.0273 4.31314V4.31314L71.5697 3.424ZM76.4657 3.424L76.008 4.31314V4.31314L76.4657 3.424ZM78.1617 5.04L77.2951 5.53896L77.2996 5.54677L77.3042 5.5545L78.1617 5.04ZM78.1617 9.952L77.3008 9.44326L77.2984 9.4473L78.1617 9.952ZM76.4657 11.552L76.008 10.6629L76.4657 11.552ZM74.8497 8.656L75.6023 9.3145L75.6089 9.30691L75.6154 9.29919L74.8497 8.656ZM74.8497 6.336L74.084 6.97919L74.0905 6.98691L74.0971 6.9945L74.8497 6.336ZM73.1857 6.336L73.9383 6.9945L73.9449 6.98691L73.9514 6.97919L73.1857 6.336ZM73.1697 8.656L72.3888 9.28069L72.4026 9.29791L72.4171 9.3145L73.1697 8.656ZM74.0177 11.112C73.2522 11.112 72.5959 10.9555 72.0273 10.6629L71.112 12.4411C71.9941 12.8951 72.9698 13.112 74.0177 13.112V11.112ZM72.0273 10.6629C71.466 10.3739 71.0345 9.96966 70.7152 9.4375L69.0002 10.4665C69.5129 11.321 70.2227 11.9834 71.112 12.4411L72.0273 10.6629ZM70.7243 9.45304C70.4192 8.92304 70.2497 8.2791 70.2497 7.488H68.2497C68.2497 8.57423 68.4855 9.57296 68.9911 10.451L70.7243 9.45304ZM70.2497 7.488C70.2497 6.69647 70.4193 6.06075 70.721 5.5447L68.9944 4.5353C68.4854 5.40592 68.2497 6.4022 68.2497 7.488H70.2497ZM70.7186 5.54873C71.039 5.00659 71.47 4.59999 72.0273 4.31314L71.112 2.53486C70.2187 2.99468 69.5084 3.66541 68.9968 4.53127L70.7186 5.54873ZM72.0273 4.31314C72.5959 4.02047 73.2522 3.864 74.0177 3.864V1.864C72.9698 1.864 71.9941 2.08086 71.112 2.53486L72.0273 4.31314ZM74.0177 3.864C74.7832 3.864 75.4394 4.02047 76.008 4.31314L76.9233 2.53486C76.0413 2.08086 75.0656 1.864 74.0177 1.864V3.864ZM76.008 4.31314C76.5631 4.59884 76.9861 5.00239 77.2951 5.53896L79.0283 4.54104C78.5266 3.66961 77.8189 2.99582 76.9233 2.53486L76.008 4.31314ZM77.3042 5.5545C77.6128 6.06886 77.7857 6.70098 77.7857 7.488H79.7857C79.7857 6.39768 79.5426 5.39781 79.0192 4.5255L77.3042 5.5545ZM77.7857 7.488C77.7857 8.27461 77.6129 8.91497 77.3008 9.44327L79.0226 10.4607C79.5424 9.58103 79.7857 8.57872 79.7857 7.488H77.7857ZM77.2984 9.4473C76.9906 9.97383 76.5672 10.3751 76.008 10.6629L76.9233 12.4411C77.8148 11.9823 78.5221 11.3168 79.025 10.4567L77.2984 9.4473ZM76.008 10.6629C75.4394 10.9555 74.7832 11.112 74.0177 11.112V13.112C75.0656 13.112 76.0413 12.8951 76.9233 12.4411L76.008 10.6629ZM74.0177 10.04C74.6461 10.04 75.1946 9.78039 75.6023 9.3145L74.0971 7.9975C74.0813 8.01551 74.0699 8.02532 74.0636 8.03012C74.0576 8.03475 74.0547 8.036 74.0546 8.03604C74.0546 8.03605 74.0535 8.03665 74.0497 8.03745C74.0456 8.03831 74.0356 8.04 74.0177 8.04V10.04ZM75.6154 9.29919C76.0479 8.78436 76.1857 8.1278 76.1857 7.488H74.1857C74.1857 7.8722 74.0995 7.99431 74.084 8.01281L75.6154 9.29919ZM76.1857 7.488C76.1857 6.85222 76.0495 6.18862 75.6023 5.6775L74.0971 6.9945C74.0979 6.99538 74.1857 7.09978 74.1857 7.488H76.1857ZM75.6154 5.69281C75.213 5.21372 74.6613 4.936 74.0177 4.936V6.936C74.0328 6.936 74.0401 6.93748 74.0415 6.93779C74.0426 6.93804 74.0417 6.93789 74.0404 6.93725C74.0392 6.93667 74.0416 6.93759 74.048 6.94268C74.0546 6.94797 74.067 6.95898 74.084 6.97919L75.6154 5.69281ZM74.0177 4.936C73.3741 4.936 72.8224 5.21372 72.42 5.69281L73.9514 6.97919C73.9684 6.95898 73.9807 6.94797 73.9874 6.94268C73.9937 6.93759 73.9962 6.93667 73.995 6.93725C73.9937 6.93789 73.9927 6.93804 73.9939 6.93779C73.9953 6.93748 74.0026 6.936 74.0177 6.936V4.936ZM72.4331 5.6775C71.9859 6.18862 71.8497 6.85222 71.8497 7.488H73.8497C73.8497 7.09978 73.9375 6.99538 73.9383 6.9945L72.4331 5.6775ZM71.8497 7.488C71.8497 8.11845 71.9781 8.76728 72.3888 9.28069L73.9506 8.0313C73.9346 8.01138 73.8497 7.88155 73.8497 7.488H71.8497ZM72.4171 9.3145C72.8317 9.78838 73.3891 10.04 74.0177 10.04V8.04C73.9951 8.04 73.981 8.0379 73.9736 8.0364C73.9666 8.03495 73.9633 8.03356 73.9622 8.03305C73.9611 8.03253 73.9581 8.03112 73.9527 8.02703C73.9471 8.02278 73.9367 8.01397 73.9223 7.9975L72.4171 9.3145ZM89.4536 2.976H90.4536V1.976H89.4536V2.976ZM89.4536 12V13H90.4536V12H89.4536ZM85.9016 12H84.9016V13H85.9016V12ZM85.9016 10.624H86.9016V7.25064L85.0631 10.079L85.9016 10.624ZM84.7816 11.664L84.2875 10.7945L84.2789 10.7995L84.7816 11.664ZM80.7016 11.024L79.9323 11.663L79.9382 11.6699L80.7016 11.024ZM79.8376 2.976V1.976H78.8376V2.976H79.8376ZM83.3736 2.976H84.3736V1.976H83.3736V2.976ZM83.7096 8.784L82.957 9.4425L82.9716 9.4592L82.9869 9.47522L83.7096 8.784ZM85.5656 8.784L86.304 9.45827L86.3112 9.45046L86.3181 9.4425L85.5656 8.784ZM85.9016 2.976V1.976H84.9016V2.976H85.9016ZM88.4536 2.976V12H90.4536V2.976H88.4536ZM89.4536 11H85.9016V13H89.4536V11ZM86.9016 12V10.624H84.9016V12H86.9016ZM85.0631 10.079C84.8783 10.3634 84.6265 10.602 84.2876 10.7945L85.2756 12.5335C85.8753 12.1927 86.3702 11.7379 86.74 11.169L85.0631 10.079ZM84.2789 10.7995C84.0016 10.9607 83.6334 11.064 83.1336 11.064V13.064C83.9137 13.064 84.6442 12.9006 85.2842 12.5285L84.2789 10.7995ZM83.1336 11.064C82.3473 11.064 81.8339 10.8141 81.465 10.3781L79.9382 11.6699C80.7426 12.6206 81.8505 13.064 83.1336 13.064V11.064ZM81.4707 10.385C81.0852 9.92089 80.8376 9.23259 80.8376 8.208H78.8376C78.8376 9.55141 79.1659 10.7404 79.9324 11.663L81.4707 10.385ZM80.8376 8.208V2.976H78.8376V8.208H80.8376ZM79.8376 3.976H83.3736V1.976H79.8376V3.976ZM82.3736 2.976V7.76H84.3736V2.976H82.3736ZM82.3736 7.76C82.3736 8.36517 82.536 8.96138 82.957 9.4425L84.4621 8.12549C84.4351 8.09462 84.3736 8.00816 84.3736 7.76H82.3736ZM82.9869 9.47522C83.4358 9.94447 84.0199 10.152 84.6376 10.152V8.152C84.4872 8.152 84.4527 8.1142 84.4322 8.09278L82.9869 9.47522ZM84.6376 10.152C85.2557 10.152 85.855 9.95012 86.304 9.45827L84.8271 8.10973C84.8176 8.12014 84.8108 8.12493 84.7969 8.13042C84.7792 8.13744 84.7317 8.152 84.6376 8.152V10.152ZM86.3181 9.4425C86.7391 8.96138 86.9016 8.36517 86.9016 7.76H84.9016C84.9016 8.00816 84.84 8.09462 84.813 8.12549L86.3181 9.4425ZM86.9016 7.76V2.976H84.9016V7.76H86.9016ZM85.9016 3.976H89.4536V1.976H85.9016V3.976ZM91.1538 5.04L90.2815 4.55099L90.279 4.5555L91.1538 5.04ZM92.7858 3.424L92.3173 2.54052L92.3117 2.54353L92.7858 3.424ZM98.1458 3.856L97.5087 4.62676L97.5137 4.63087L98.1458 3.856ZM99.6818 6.608V7.608H100.88L100.666 6.42911L99.6818 6.608ZM95.9218 6.608L94.9628 6.89135L95.1745 7.608H95.9218V6.608ZM94.4178 6.304L93.5755 5.76495L93.5677 5.77711L93.5603 5.7895L94.4178 6.304ZM94.4178 8.672L93.5603 9.1865L93.5677 9.19888L93.5755 9.21105L94.4178 8.672ZM95.9218 8.368V7.368H95.1745L94.9628 8.08465L95.9218 8.368ZM99.6818 8.368L100.666 8.54689L100.88 7.368H99.6818V8.368ZM98.1458 11.12L97.5137 10.3451L97.5087 10.3493L98.1458 11.12ZM92.7858 11.552L92.3117 12.4325L92.3173 12.4355L92.7858 11.552ZM91.1538 9.952L90.2759 10.4309L90.2803 10.4388L90.2847 10.4467L91.1538 9.952ZM91.5778 7.488C91.5778 6.68754 91.7407 6.0444 92.0286 5.5245L90.279 4.5555C89.799 5.42227 89.5778 6.41112 89.5778 7.488H91.5778ZM92.0261 5.52901C92.3303 4.98629 92.7381 4.58543 93.2599 4.30447L92.3117 2.54353C91.4468 3.00924 90.7666 3.6857 90.2815 4.55099L92.0261 5.52901ZM93.2543 4.30746C93.7968 4.01976 94.4326 3.864 95.1858 3.864V1.864C94.1471 1.864 93.1828 2.08158 92.3173 2.54054L93.2543 4.30746ZM95.1858 3.864C96.1587 3.864 96.9112 4.13287 97.5087 4.62674L98.783 3.08526C97.7804 2.25646 96.5596 1.864 95.1858 1.864V3.864ZM97.5137 4.63087C98.1142 5.12079 98.5209 5.81294 98.6979 6.78689L100.666 6.42911C100.416 5.05639 99.7987 3.91388 98.7779 3.08113L97.5137 4.63087ZM99.6818 5.608H95.9218V7.608H99.6818V5.608ZM96.8808 6.32465C96.7762 5.97059 96.5921 5.60325 96.267 5.32284C95.9261 5.02866 95.5155 4.904 95.1058 4.904V6.904C95.1101 6.904 95.0909 6.90448 95.0574 6.8929C95.0223 6.88072 94.9881 6.86092 94.9606 6.83716C94.9076 6.79142 94.9287 6.77607 94.9628 6.89135L96.8808 6.32465ZM95.1058 4.904C94.4384 4.904 93.9083 5.245 93.5755 5.76495L95.2601 6.84305C95.2762 6.81792 95.2674 6.84117 95.2204 6.86851C95.198 6.88154 95.1738 6.89132 95.1504 6.89736C95.1274 6.90327 95.1115 6.904 95.1058 6.904V4.904ZM93.5603 5.7895C93.2635 6.28427 93.1778 6.89347 93.1778 7.488H95.1778C95.1778 7.0372 95.2522 6.85707 95.2753 6.8185L93.5603 5.7895ZM93.1778 7.488C93.1778 8.08253 93.2635 8.69173 93.5603 9.1865L95.2753 8.1575C95.2522 8.11893 95.1778 7.9388 95.1778 7.488H93.1778ZM93.5755 9.21105C93.9083 9.731 94.4384 10.072 95.1058 10.072V8.072C95.1115 8.072 95.1274 8.07273 95.1504 8.07864C95.1738 8.08468 95.198 8.09446 95.2204 8.10749C95.2674 8.13483 95.2762 8.15808 95.2601 8.13295L93.5755 9.21105ZM95.1058 10.072C95.5155 10.072 95.9261 9.94734 96.267 9.65316C96.5921 9.37275 96.7762 9.00541 96.8808 8.65135L94.9628 8.08465C94.9287 8.19993 94.9076 8.18458 94.9606 8.13884C94.9881 8.11508 95.0223 8.09527 95.0574 8.0831C95.0909 8.07152 95.1101 8.072 95.1058 8.072V10.072ZM95.9218 9.368H99.6818V7.368H95.9218V9.368ZM98.6979 8.18911C98.5209 9.16306 98.1142 9.85521 97.5137 10.3451L98.7779 11.8949C99.7987 11.0621 100.416 9.91961 100.666 8.54689L98.6979 8.18911ZM97.5087 10.3493C96.9112 10.8431 96.1587 11.112 95.1858 11.112V13.112C96.5596 13.112 97.7804 12.7195 98.783 11.8907L97.5087 10.3493ZM95.1858 11.112C94.4326 11.112 93.7968 10.9562 93.2543 10.6685L92.3173 12.4355C93.1828 12.8944 94.1471 13.112 95.1858 13.112V11.112ZM93.2599 10.6715C92.7341 10.3884 92.326 9.98979 92.0229 9.4573L90.2847 10.4467C90.771 11.3009 91.4509 11.9689 92.3117 12.4325L93.2599 10.6715ZM92.0317 9.47315C91.7405 8.93928 91.5778 8.28799 91.5778 7.488H89.5778C89.5778 8.56534 89.7991 9.55672 90.2759 10.4309L92.0317 9.47315ZM109.544 3.952L108.775 4.59105L108.78 4.59794L109.544 3.952ZM110.424 12V13H111.424V12H110.424ZM106.888 12H105.888V13H106.888V12ZM106.536 6.208L105.783 6.8665L105.798 6.88319L105.813 6.89922L106.536 6.208ZM104.696 6.208L105.434 6.88227L105.441 6.87446L105.448 6.8665L104.696 6.208ZM104.36 12V13H105.36V12H104.36ZM100.808 12H99.8078V13H100.808V12ZM100.808 0.16V-0.84H99.8078V0.16H100.808ZM104.36 0.16H105.36V-0.84H104.36V0.16ZM104.36 4.352H103.36V7.72536L105.198 4.89699L104.36 4.352ZM105.464 3.312L104.97 2.4425L104.961 2.44749L105.464 3.312ZM107.128 3.912C107.914 3.912 108.418 4.1617 108.775 4.59102L110.313 3.31298C109.518 2.35563 108.411 1.912 107.128 1.912V3.912ZM108.78 4.59794C109.173 5.06189 109.424 5.74753 109.424 6.768H111.424C111.424 5.42047 111.088 4.22878 110.307 3.30606L108.78 4.59794ZM109.424 6.768V12H111.424V6.768H109.424ZM110.424 11H106.888V13H110.424V11ZM107.888 12V7.216H105.888V12H107.888ZM107.888 7.216C107.888 6.60105 107.714 5.99287 107.258 5.51678L105.813 6.89922C105.827 6.9138 105.888 6.97761 105.888 7.216H107.888ZM107.288 5.54949C106.849 5.04714 106.255 4.824 105.624 4.824V6.824C105.704 6.824 105.741 6.83714 105.752 6.84164C105.759 6.84486 105.768 6.84906 105.783 6.8665L107.288 5.54949ZM105.624 4.824C104.992 4.824 104.388 5.04079 103.943 5.54949L105.448 6.8665C105.461 6.85238 105.468 6.8482 105.478 6.84402C105.492 6.83831 105.535 6.824 105.624 6.824V4.824ZM103.957 5.53373C103.521 6.01108 103.36 6.61307 103.36 7.216H105.36C105.36 6.9656 105.422 6.89559 105.434 6.88227L103.957 5.53373ZM103.36 7.216V12H105.36V7.216H103.36ZM104.36 11H100.808V13H104.36V11ZM101.808 12V0.16H99.8078V12H101.808ZM100.808 1.16H104.36V-0.84H100.808V1.16ZM103.36 0.16V4.352H105.36V0.16H103.36ZM105.198 4.89699C105.387 4.60731 105.637 4.3679 105.966 4.17651L104.961 2.44749C104.373 2.78943 103.888 3.24336 103.521 3.80701L105.198 4.89699ZM105.958 4.18146C106.251 4.01499 106.629 3.912 107.128 3.912V1.912C106.347 1.912 105.615 2.07568 104.97 2.44254L105.958 4.18146ZM120.652 8.112V9.112H121.519L121.642 8.25342L120.652 8.112ZM114.94 8.112V7.112H113.869L113.942 8.18033L114.94 8.112ZM116.748 8.752V7.752H116.122L115.848 8.31573L116.748 8.752ZM120.508 8.752L121.489 8.94812L121.728 7.752H120.508V8.752ZM119.692 10.48L118.916 9.84941L118.914 9.85128L119.692 10.48ZM118.14 11.68L118.562 12.5866L118.569 12.5834L118.14 11.68ZM113.692 11.552L113.218 12.4325L113.224 12.4355L113.692 11.552ZM112.06 9.952L111.182 10.4309L111.187 10.4388L111.191 10.4467L112.06 9.952ZM112.06 5.04L111.188 4.55099L111.185 4.5555L112.06 5.04ZM113.692 3.424L113.224 2.54052L113.218 2.54353L113.692 3.424ZM118.476 3.424L118.002 4.30447L118.01 4.3088L118.018 4.31297L118.476 3.424ZM120.108 4.992L119.236 5.4823L119.242 5.4925L120.108 4.992ZM117.1 6.56V7.56H118.1V6.56H117.1ZM116.812 5.888L116.172 6.65622L116.185 6.66701L116.198 6.67735L116.812 5.888ZM114.988 6.56L114.003 6.3872L113.797 7.56H114.988V6.56ZM119.7 7.408C119.7 7.60993 119.687 7.79715 119.662 7.97058L121.642 8.25342C121.681 7.97885 121.7 7.69674 121.7 7.408H119.7ZM120.652 7.112H114.94V9.112H120.652V7.112ZM113.942 8.18033C113.976 8.67393 114.104 9.20662 114.457 9.62922C114.844 10.0925 115.379 10.28 115.916 10.28V8.28C115.875 8.28 115.879 8.27341 115.908 8.28567C115.941 8.29975 115.972 8.32362 115.991 8.34678C116.007 8.36587 115.998 8.36382 115.982 8.3146C115.966 8.2641 115.947 8.17761 115.938 8.04367L113.942 8.18033ZM115.916 10.28C116.265 10.28 116.623 10.1982 116.948 9.99233C117.271 9.78718 117.497 9.49923 117.648 9.18827L115.848 8.31573C115.838 8.33763 115.833 8.34188 115.838 8.33602C115.843 8.32936 115.856 8.31651 115.876 8.30367C115.897 8.29077 115.915 8.28376 115.927 8.28064C115.938 8.27778 115.936 8.28 115.916 8.28V10.28ZM116.748 9.752H120.508V7.752H116.748V9.752ZM119.527 8.55588C119.432 9.03482 119.231 9.46206 118.916 9.84941L120.468 11.1106C120.985 10.4739 121.328 9.74918 121.489 8.94812L119.527 8.55588ZM118.914 9.85128C118.611 10.2269 118.216 10.5369 117.711 10.7766L118.569 12.5834C119.322 12.2258 119.963 11.7358 120.47 11.1087L118.914 9.85128ZM117.718 10.7734C117.244 10.9943 116.707 11.112 116.092 11.112V13.112C116.971 13.112 117.799 12.9417 118.562 12.5866L117.718 10.7734ZM116.092 11.112C115.339 11.112 114.703 10.9562 114.161 10.6685L113.224 12.4355C114.089 12.8944 115.053 13.112 116.092 13.112V11.112ZM114.166 10.6715C113.64 10.3884 113.232 9.98979 112.929 9.4573L111.191 10.4467C111.677 11.3009 112.357 11.9689 113.218 12.4325L114.166 10.6715ZM112.938 9.47315C112.647 8.93928 112.484 8.28799 112.484 7.488H110.484C110.484 8.56534 110.705 9.55672 111.182 10.4309L112.938 9.47315ZM112.484 7.488C112.484 6.68754 112.647 6.0444 112.935 5.5245L111.185 4.5555C110.705 5.42227 110.484 6.41112 110.484 7.488H112.484ZM112.932 5.52901C113.237 4.98629 113.644 4.58543 114.166 4.30447L113.218 2.54353C112.353 3.00924 111.673 3.6857 111.188 4.55099L112.932 5.52901ZM114.161 4.30746C114.703 4.01976 115.339 3.864 116.092 3.864V1.864C115.053 1.864 114.089 2.08158 113.224 2.54054L114.161 4.30746ZM116.092 3.864C116.846 3.864 117.473 4.01985 118.002 4.30447L118.95 2.54353C118.092 2.08148 117.13 1.864 116.092 1.864V3.864ZM118.018 4.31297C118.55 4.58711 118.95 4.97209 119.236 5.48226L120.98 4.50174C120.499 3.64657 119.81 2.98622 118.934 2.53503L118.018 4.31297ZM119.242 5.4925C119.535 5.99805 119.7 6.62443 119.7 7.408H121.7C121.7 6.33557 121.471 5.35129 120.974 4.4915L119.242 5.4925ZM118.1 6.56C118.1 6.03069 117.917 5.48064 117.426 5.09865L116.198 6.67735C116.182 6.66456 116.163 6.64701 116.146 6.6248C116.129 6.6026 116.117 6.58067 116.109 6.56192C116.093 6.52474 116.1 6.51635 116.1 6.56H118.1ZM117.452 5.11978C117.054 4.78758 116.576 4.648 116.092 4.648V6.648C116.143 6.648 116.167 6.65501 116.172 6.65668C116.175 6.6576 116.175 6.65789 116.173 6.65716C116.172 6.65641 116.171 6.65583 116.172 6.65622L117.452 5.11978ZM116.092 4.648C115.62 4.648 115.121 4.76352 114.707 5.10504C114.291 5.44855 114.085 5.91889 114.003 6.3872L115.973 6.7328C115.985 6.66197 116 6.62988 116.004 6.62268C116.006 6.61824 116 6.63126 115.981 6.64696C115.962 6.66246 115.95 6.66464 115.961 6.66155C115.974 6.6576 116.014 6.648 116.092 6.648V4.648ZM114.988 7.56H117.1V5.56H114.988V7.56ZM125.375 4.64H124.375V7.83531L126.197 5.21008L125.375 4.64ZM126.703 3.392L127.213 4.25258L127.219 4.24876L127.226 4.24485L126.703 3.392ZM128.335 2.912H129.335V1.912H128.335V2.912ZM128.335 6.704V7.704H129.335V6.704H128.335ZM125.839 7.056L125.248 6.24959L125.242 6.2544L125.235 6.25931L125.839 7.056ZM125.375 12V13H126.375V12H125.375ZM121.823 12H120.823V13H121.823V12ZM121.823 2.976V1.976H120.823V2.976H121.823ZM125.375 2.976H126.375V1.976H125.375V2.976ZM126.197 5.21008C126.482 4.79984 126.82 4.48518 127.213 4.25258L126.194 2.53142C125.542 2.91748 124.995 3.43483 124.554 4.06992L126.197 5.21008ZM127.226 4.24485C127.605 4.01269 127.97 3.912 128.335 3.912V1.912C127.57 1.912 126.847 2.13131 126.181 2.53915L127.226 4.24485ZM127.335 2.912V6.704H129.335V2.912H127.335ZM128.335 5.704H127.327V7.704H128.335V5.704ZM127.327 5.704C126.576 5.704 125.822 5.82842 125.248 6.24959L126.431 7.8624C126.496 7.81424 126.735 7.704 127.327 7.704V5.704ZM125.235 6.25931C124.565 6.76732 124.375 7.56627 124.375 8.304H126.375C126.375 8.08573 126.404 7.95779 126.429 7.89249C126.45 7.83637 126.461 7.83952 126.444 7.85269L125.235 6.25931ZM124.375 8.304V12H126.375V8.304H124.375ZM125.375 11H121.823V13H125.375V11ZM122.823 12V2.976H120.823V12H122.823ZM121.823 3.976H125.375V1.976H121.823V3.976ZM124.375 2.976V4.64H126.375V2.976H124.375Z" fill="black" mask="url(#path-1-outside-1_32638_340725)"/>
</g>
<defs>
<filter id="filter0_d_32638_340725" x="0.955811" y="0.160004" width="128.38" height="12.952" filterUnits="userSpaceOnUse" color-interpolation-filters="sRGB">
<feFlood flood-opacity="0" result="BackgroundImageFix"/>
<feColorMatrix in="SourceAlpha" type="matrix" values="0 0 0 0 0 0 0 0 0 0 0 0 0 0 0 0 0 0 127 0" result="hardAlpha"/>
<feOffset dx="1" dy="1"/>
<feComposite in2="hardAlpha" operator="out"/>
<feColorMatrix type="matrix" values="0 0 0 0 0 0 0 0 0 0 0 0 0 0 0 0 0 0 1 0"/>
<feBlend mode="normal" in2="BackgroundImageFix" result="effect1_dropShadow_32638_340725"/>
<feBlend mode="normal" in="SourceGraphic" in2="effect1_dropShadow_32638_340725" result="shape"/>
</filter>
</defs>
</svg>
