<svg width="116" height="22" viewBox="0 0 116 22" fill="none" xmlns="http://www.w3.org/2000/svg">
<g filter="url(#filter0_d_32638_340688)">
<mask id="path-1-outside-1_32638_340688" maskUnits="userSpaceOnUse" x="-1" y="4" width="117" height="14" fill="black">
<rect fill="white" x="-1" y="4" width="117" height="14"/>
<path d="M4.89538 16.098C3.71005 16.098 2.73005 15.8227 1.95538 15.272C1.19005 14.712 0.774716 13.8953 0.709383 12.822H4.01338C4.06005 13.3913 4.31205 13.676 4.76938 13.676C4.93738 13.676 5.07738 13.6387 5.18938 13.564C5.31072 13.48 5.37138 13.354 5.37138 13.186C5.37138 12.9527 5.24538 12.766 4.99338 12.626C4.74138 12.4767 4.34938 12.3087 3.81738 12.122C3.18272 11.898 2.65538 11.6787 2.23538 11.464C1.82472 11.2493 1.47005 10.9367 1.17138 10.526C0.872716 10.1153 0.728049 9.588 0.737383 8.944C0.737383 8.3 0.900716 7.754 1.22738 7.306C1.56338 6.84867 2.01605 6.50333 2.58538 6.27C3.16405 6.03667 3.81272 5.92 4.53138 5.92C5.74472 5.92 6.70605 6.2 7.41538 6.76C8.13405 7.32 8.51205 8.10867 8.54938 9.126H5.20338C5.19405 8.846 5.12405 8.64533 4.99338 8.524C4.86272 8.40267 4.70405 8.342 4.51738 8.342C4.38672 8.342 4.27938 8.38867 4.19538 8.482C4.11138 8.566 4.06938 8.68733 4.06938 8.846C4.06938 9.07 4.19072 9.25667 4.43338 9.406C4.68538 9.546 5.08205 9.71867 5.62338 9.924C6.24872 10.1573 6.76205 10.3813 7.16338 10.596C7.57405 10.8107 7.92872 11.1093 8.22738 11.492C8.52605 11.8747 8.67538 12.3553 8.67538 12.934C8.67538 13.5407 8.52605 14.0867 8.22738 14.572C7.92872 15.048 7.49472 15.4213 6.92538 15.692C6.35605 15.9627 5.67938 16.098 4.89538 16.098ZM15.8714 9.938V12.5H9.34738V9.938H15.8714ZM17.5538 11.03C17.5538 10.05 17.7498 9.17733 18.1418 8.412C18.5431 7.64667 19.1125 7.054 19.8498 6.634C20.5871 6.20467 21.4551 5.99 22.4538 5.99C23.3125 5.99 24.0778 6.15333 24.7498 6.48C25.4311 6.79733 25.9818 7.25 26.4018 7.838C26.8311 8.426 27.1158 9.112 27.2558 9.896H23.9798C23.8305 9.56933 23.6158 9.31733 23.3358 9.14C23.0651 8.95333 22.7525 8.86 22.3978 8.86C21.8751 8.86 21.4598 9.056 21.1518 9.448C20.8531 9.84 20.7038 10.3673 20.7038 11.03C20.7038 11.6927 20.8531 12.22 21.1518 12.612C21.4598 13.004 21.8751 13.2 22.3978 13.2C22.7525 13.2 23.0651 13.1113 23.3358 12.934C23.6158 12.7473 23.8305 12.4907 23.9798 12.164H27.2558C27.1158 12.948 26.8311 13.634 26.4018 14.222C25.9818 14.81 25.4311 15.2673 24.7498 15.594C24.0778 15.9113 23.3125 16.07 22.4538 16.07C21.4551 16.07 20.5871 15.86 19.8498 15.44C19.1125 15.0107 18.5431 14.4133 18.1418 13.648C17.7498 12.8827 17.5538 12.01 17.5538 11.03ZM34.7308 14.502H31.4268L30.9368 16H27.6748L31.3008 6.088H34.8848L38.4968 16H35.2208L34.7308 14.502ZM33.9748 12.164L33.0788 9.406L32.1828 12.164H33.9748ZM46.9869 6.088V8.552H44.3549V16H41.2469V8.552H38.6429V6.088H46.9869ZM62.5697 6.088L59.2377 16H55.2197L51.8877 6.088H55.1917L57.2357 12.906L59.2657 6.088H62.5697ZM67.0174 16.098C66.2241 16.098 65.5101 15.9347 64.8754 15.608C64.2408 15.2813 63.7414 14.8147 63.3774 14.208C63.0228 13.592 62.8454 12.8733 62.8454 12.052C62.8454 11.2307 63.0228 10.5167 63.3774 9.91C63.7414 9.294 64.2408 8.82267 64.8754 8.496C65.5101 8.16933 66.2241 8.006 67.0174 8.006C67.8108 8.006 68.5248 8.16933 69.1594 8.496C69.7941 8.82267 70.2888 9.294 70.6434 9.91C71.0074 10.5167 71.1894 11.2307 71.1894 12.052C71.1894 12.8733 71.0074 13.592 70.6434 14.208C70.2888 14.8147 69.7941 15.2813 69.1594 15.608C68.5248 15.9347 67.8108 16.098 67.0174 16.098ZM67.0174 13.41C67.3068 13.41 67.5494 13.298 67.7454 13.074C67.9414 12.8407 68.0394 12.5 68.0394 12.052C68.0394 11.604 67.9414 11.268 67.7454 11.044C67.5494 10.8107 67.3068 10.694 67.0174 10.694C66.7281 10.694 66.4854 10.8107 66.2894 11.044C66.0934 11.268 65.9954 11.604 65.9954 12.052C65.9954 12.5 66.0888 12.8407 66.2754 13.074C66.4714 13.298 66.7188 13.41 67.0174 13.41ZM80.5238 8.104V16H77.4158V14.796C77.1732 15.1693 76.8465 15.4727 76.4358 15.706C76.0345 15.9393 75.5538 16.056 74.9938 16.056C74.0885 16.056 73.3792 15.7527 72.8658 15.146C72.3618 14.5393 72.1098 13.718 72.1098 12.682V8.104H75.2038V12.29C75.2038 12.6633 75.3018 12.962 75.4978 13.186C75.7032 13.4007 75.9738 13.508 76.3098 13.508C76.6552 13.508 76.9258 13.4007 77.1218 13.186C77.3178 12.962 77.4158 12.6633 77.4158 12.29V8.104H80.5238ZM81.5075 12.052C81.5075 11.2307 81.6755 10.5167 82.0115 9.91C82.3569 9.294 82.8329 8.82267 83.4395 8.496C84.0555 8.16933 84.7555 8.006 85.5395 8.006C86.5662 8.006 87.4295 8.29533 88.1295 8.874C88.8389 9.45267 89.2869 10.2553 89.4735 11.282H86.1835C86.0622 10.8713 85.8242 10.666 85.4695 10.666C85.2175 10.666 85.0169 10.7827 84.8675 11.016C84.7275 11.2493 84.6575 11.5947 84.6575 12.052C84.6575 12.5093 84.7275 12.8547 84.8675 13.088C85.0169 13.3213 85.2175 13.438 85.4695 13.438C85.8242 13.438 86.0622 13.2327 86.1835 12.822H89.4735C89.2869 13.8487 88.8389 14.6513 88.1295 15.23C87.4295 15.8087 86.5662 16.098 85.5395 16.098C84.7555 16.098 84.0555 15.9347 83.4395 15.608C82.8329 15.2813 82.3569 14.8147 82.0115 14.208C81.6755 13.592 81.5075 12.8733 81.5075 12.052ZM95.9888 8.048C96.8941 8.048 97.5988 8.35133 98.1028 8.958C98.6161 9.56467 98.8728 10.386 98.8728 11.422V16H95.7788V11.814C95.7788 11.4407 95.6761 11.1467 95.4708 10.932C95.2748 10.708 95.0088 10.596 94.6728 10.596C94.3275 10.596 94.0568 10.708 93.8608 10.932C93.6648 11.1467 93.5668 11.4407 93.5668 11.814V16H90.4588V5.64H93.5668V9.308C93.8095 8.93467 94.1315 8.63133 94.5328 8.398C94.9435 8.16467 95.4288 8.048 95.9888 8.048ZM107.865 11.982C107.865 12.1967 107.851 12.402 107.823 12.598H102.825C102.871 13.2793 103.156 13.62 103.679 13.62C104.015 13.62 104.257 13.466 104.407 13.158H107.697C107.585 13.718 107.347 14.222 106.983 14.67C106.628 15.1087 106.175 15.4587 105.625 15.72C105.083 15.972 104.486 16.098 103.833 16.098C103.049 16.098 102.349 15.9347 101.733 15.608C101.126 15.2813 100.65 14.8147 100.305 14.208C99.9685 13.592 99.8005 12.8733 99.8005 12.052C99.8005 11.2307 99.9685 10.5167 100.305 9.91C100.65 9.294 101.126 8.82267 101.733 8.496C102.349 8.16933 103.049 8.006 103.833 8.006C104.617 8.006 105.312 8.16933 105.919 8.496C106.535 8.81333 107.011 9.27067 107.347 9.868C107.692 10.4653 107.865 11.17 107.865 11.982ZM104.715 11.24C104.715 10.9787 104.631 10.7827 104.463 10.652C104.295 10.512 104.085 10.442 103.833 10.442C103.282 10.442 102.96 10.708 102.867 11.24H104.715ZM111.955 9.56C112.273 9.10267 112.66 8.73867 113.117 8.468C113.575 8.188 114.051 8.048 114.545 8.048V11.366H113.663C113.075 11.366 112.641 11.4687 112.361 11.674C112.091 11.8793 111.955 12.2433 111.955 12.766V16H108.847V8.104H111.955V9.56Z"/>
</mask>
<path d="M4.89538 16.098C3.71005 16.098 2.73005 15.8227 1.95538 15.272C1.19005 14.712 0.774716 13.8953 0.709383 12.822H4.01338C4.06005 13.3913 4.31205 13.676 4.76938 13.676C4.93738 13.676 5.07738 13.6387 5.18938 13.564C5.31072 13.48 5.37138 13.354 5.37138 13.186C5.37138 12.9527 5.24538 12.766 4.99338 12.626C4.74138 12.4767 4.34938 12.3087 3.81738 12.122C3.18272 11.898 2.65538 11.6787 2.23538 11.464C1.82472 11.2493 1.47005 10.9367 1.17138 10.526C0.872716 10.1153 0.728049 9.588 0.737383 8.944C0.737383 8.3 0.900716 7.754 1.22738 7.306C1.56338 6.84867 2.01605 6.50333 2.58538 6.27C3.16405 6.03667 3.81272 5.92 4.53138 5.92C5.74472 5.92 6.70605 6.2 7.41538 6.76C8.13405 7.32 8.51205 8.10867 8.54938 9.126H5.20338C5.19405 8.846 5.12405 8.64533 4.99338 8.524C4.86272 8.40267 4.70405 8.342 4.51738 8.342C4.38672 8.342 4.27938 8.38867 4.19538 8.482C4.11138 8.566 4.06938 8.68733 4.06938 8.846C4.06938 9.07 4.19072 9.25667 4.43338 9.406C4.68538 9.546 5.08205 9.71867 5.62338 9.924C6.24872 10.1573 6.76205 10.3813 7.16338 10.596C7.57405 10.8107 7.92872 11.1093 8.22738 11.492C8.52605 11.8747 8.67538 12.3553 8.67538 12.934C8.67538 13.5407 8.52605 14.0867 8.22738 14.572C7.92872 15.048 7.49472 15.4213 6.92538 15.692C6.35605 15.9627 5.67938 16.098 4.89538 16.098ZM15.8714 9.938V12.5H9.34738V9.938H15.8714ZM17.5538 11.03C17.5538 10.05 17.7498 9.17733 18.1418 8.412C18.5431 7.64667 19.1125 7.054 19.8498 6.634C20.5871 6.20467 21.4551 5.99 22.4538 5.99C23.3125 5.99 24.0778 6.15333 24.7498 6.48C25.4311 6.79733 25.9818 7.25 26.4018 7.838C26.8311 8.426 27.1158 9.112 27.2558 9.896H23.9798C23.8305 9.56933 23.6158 9.31733 23.3358 9.14C23.0651 8.95333 22.7525 8.86 22.3978 8.86C21.8751 8.86 21.4598 9.056 21.1518 9.448C20.8531 9.84 20.7038 10.3673 20.7038 11.03C20.7038 11.6927 20.8531 12.22 21.1518 12.612C21.4598 13.004 21.8751 13.2 22.3978 13.2C22.7525 13.2 23.0651 13.1113 23.3358 12.934C23.6158 12.7473 23.8305 12.4907 23.9798 12.164H27.2558C27.1158 12.948 26.8311 13.634 26.4018 14.222C25.9818 14.81 25.4311 15.2673 24.7498 15.594C24.0778 15.9113 23.3125 16.07 22.4538 16.07C21.4551 16.07 20.5871 15.86 19.8498 15.44C19.1125 15.0107 18.5431 14.4133 18.1418 13.648C17.7498 12.8827 17.5538 12.01 17.5538 11.03ZM34.7308 14.502H31.4268L30.9368 16H27.6748L31.3008 6.088H34.8848L38.4968 16H35.2208L34.7308 14.502ZM33.9748 12.164L33.0788 9.406L32.1828 12.164H33.9748ZM46.9869 6.088V8.552H44.3549V16H41.2469V8.552H38.6429V6.088H46.9869ZM62.5697 6.088L59.2377 16H55.2197L51.8877 6.088H55.1917L57.2357 12.906L59.2657 6.088H62.5697ZM67.0174 16.098C66.2241 16.098 65.5101 15.9347 64.8754 15.608C64.2408 15.2813 63.7414 14.8147 63.3774 14.208C63.0228 13.592 62.8454 12.8733 62.8454 12.052C62.8454 11.2307 63.0228 10.5167 63.3774 9.91C63.7414 9.294 64.2408 8.82267 64.8754 8.496C65.5101 8.16933 66.2241 8.006 67.0174 8.006C67.8108 8.006 68.5248 8.16933 69.1594 8.496C69.7941 8.82267 70.2888 9.294 70.6434 9.91C71.0074 10.5167 71.1894 11.2307 71.1894 12.052C71.1894 12.8733 71.0074 13.592 70.6434 14.208C70.2888 14.8147 69.7941 15.2813 69.1594 15.608C68.5248 15.9347 67.8108 16.098 67.0174 16.098ZM67.0174 13.41C67.3068 13.41 67.5494 13.298 67.7454 13.074C67.9414 12.8407 68.0394 12.5 68.0394 12.052C68.0394 11.604 67.9414 11.268 67.7454 11.044C67.5494 10.8107 67.3068 10.694 67.0174 10.694C66.7281 10.694 66.4854 10.8107 66.2894 11.044C66.0934 11.268 65.9954 11.604 65.9954 12.052C65.9954 12.5 66.0888 12.8407 66.2754 13.074C66.4714 13.298 66.7188 13.41 67.0174 13.41ZM80.5238 8.104V16H77.4158V14.796C77.1732 15.1693 76.8465 15.4727 76.4358 15.706C76.0345 15.9393 75.5538 16.056 74.9938 16.056C74.0885 16.056 73.3792 15.7527 72.8658 15.146C72.3618 14.5393 72.1098 13.718 72.1098 12.682V8.104H75.2038V12.29C75.2038 12.6633 75.3018 12.962 75.4978 13.186C75.7032 13.4007 75.9738 13.508 76.3098 13.508C76.6552 13.508 76.9258 13.4007 77.1218 13.186C77.3178 12.962 77.4158 12.6633 77.4158 12.29V8.104H80.5238ZM81.5075 12.052C81.5075 11.2307 81.6755 10.5167 82.0115 9.91C82.3569 9.294 82.8329 8.82267 83.4395 8.496C84.0555 8.16933 84.7555 8.006 85.5395 8.006C86.5662 8.006 87.4295 8.29533 88.1295 8.874C88.8389 9.45267 89.2869 10.2553 89.4735 11.282H86.1835C86.0622 10.8713 85.8242 10.666 85.4695 10.666C85.2175 10.666 85.0169 10.7827 84.8675 11.016C84.7275 11.2493 84.6575 11.5947 84.6575 12.052C84.6575 12.5093 84.7275 12.8547 84.8675 13.088C85.0169 13.3213 85.2175 13.438 85.4695 13.438C85.8242 13.438 86.0622 13.2327 86.1835 12.822H89.4735C89.2869 13.8487 88.8389 14.6513 88.1295 15.23C87.4295 15.8087 86.5662 16.098 85.5395 16.098C84.7555 16.098 84.0555 15.9347 83.4395 15.608C82.8329 15.2813 82.3569 14.8147 82.0115 14.208C81.6755 13.592 81.5075 12.8733 81.5075 12.052ZM95.9888 8.048C96.8941 8.048 97.5988 8.35133 98.1028 8.958C98.6161 9.56467 98.8728 10.386 98.8728 11.422V16H95.7788V11.814C95.7788 11.4407 95.6761 11.1467 95.4708 10.932C95.2748 10.708 95.0088 10.596 94.6728 10.596C94.3275 10.596 94.0568 10.708 93.8608 10.932C93.6648 11.1467 93.5668 11.4407 93.5668 11.814V16H90.4588V5.64H93.5668V9.308C93.8095 8.93467 94.1315 8.63133 94.5328 8.398C94.9435 8.16467 95.4288 8.048 95.9888 8.048ZM107.865 11.982C107.865 12.1967 107.851 12.402 107.823 12.598H102.825C102.871 13.2793 103.156 13.62 103.679 13.62C104.015 13.62 104.257 13.466 104.407 13.158H107.697C107.585 13.718 107.347 14.222 106.983 14.67C106.628 15.1087 106.175 15.4587 105.625 15.72C105.083 15.972 104.486 16.098 103.833 16.098C103.049 16.098 102.349 15.9347 101.733 15.608C101.126 15.2813 100.65 14.8147 100.305 14.208C99.9685 13.592 99.8005 12.8733 99.8005 12.052C99.8005 11.2307 99.9685 10.5167 100.305 9.91C100.65 9.294 101.126 8.82267 101.733 8.496C102.349 8.16933 103.049 8.006 103.833 8.006C104.617 8.006 105.312 8.16933 105.919 8.496C106.535 8.81333 107.011 9.27067 107.347 9.868C107.692 10.4653 107.865 11.17 107.865 11.982ZM104.715 11.24C104.715 10.9787 104.631 10.7827 104.463 10.652C104.295 10.512 104.085 10.442 103.833 10.442C103.282 10.442 102.96 10.708 102.867 11.24H104.715ZM111.955 9.56C112.273 9.10267 112.66 8.73867 113.117 8.468C113.575 8.188 114.051 8.048 114.545 8.048V11.366H113.663C113.075 11.366 112.641 11.4687 112.361 11.674C112.091 11.8793 111.955 12.2433 111.955 12.766V16H108.847V8.104H111.955V9.56Z" fill="white"/>
<path d="M1.95538 15.272L1.36482 16.0791L1.376 16.0871L1.95538 15.272ZM0.709383 12.822V11.822H-0.353338L-0.28877 12.8828L0.709383 12.822ZM4.01338 12.822L5.01004 12.7403L4.93477 11.822H4.01338V12.822ZM5.18938 13.564L5.74408 14.3961L5.75138 14.3912L5.75859 14.3862L5.18938 13.564ZM4.99338 12.626L4.48358 13.4863L4.49556 13.4934L4.50774 13.5002L4.99338 12.626ZM3.81738 12.122L3.48456 13.065L3.48629 13.0656L3.81738 12.122ZM2.23538 11.464L1.77211 12.3503L1.78027 12.3544L2.23538 11.464ZM1.17138 10.526L1.98012 9.93783H1.98012L1.17138 10.526ZM0.737383 8.944L1.73728 8.95849L1.73738 8.95125V8.944H0.737383ZM1.22738 7.306L0.421496 6.71392L0.419375 6.71683L1.22738 7.306ZM2.58538 6.27L2.21141 5.34254L2.20616 5.34469L2.58538 6.27ZM7.41538 6.76L6.79573 7.5449L6.80073 7.5488L7.41538 6.76ZM8.54938 9.126V10.126H9.58675L9.54871 9.08933L8.54938 9.126ZM5.20338 9.126L4.20394 9.15931L4.23616 10.126H5.20338V9.126ZM4.19538 8.482L4.90249 9.18911L4.92109 9.17051L4.93868 9.15096L4.19538 8.482ZM4.43338 9.406L3.90929 10.2577L3.92826 10.2693L3.94774 10.2802L4.43338 9.406ZM5.62338 9.924L5.26872 10.859L5.27379 10.8609L5.62338 9.924ZM7.16338 10.596L6.69171 11.4778L6.70013 11.4822L7.16338 10.596ZM8.22738 11.492L7.43907 12.1073H7.43907L8.22738 11.492ZM8.22738 14.572L9.07448 15.1035L9.07904 15.0961L8.22738 14.572ZM6.92538 15.692L6.49602 14.7889L6.92538 15.692ZM4.89538 15.098C3.86589 15.098 3.10236 14.8604 2.53476 14.4569L1.376 16.0871C2.35774 16.7849 3.55421 17.098 4.89538 17.098V15.098ZM2.54589 14.465C2.05464 14.1055 1.75751 13.5822 1.70754 12.7612L-0.28877 12.8828C-0.208077 14.2084 0.325463 15.3185 1.36487 16.079L2.54589 14.465ZM0.709383 13.822H4.01338V11.822H0.709383V13.822ZM3.01673 12.9037C3.04929 13.301 3.16345 13.758 3.48862 14.1253C3.84274 14.5254 4.31776 14.676 4.76938 14.676V12.676C4.75811 12.676 4.78675 12.6743 4.83733 12.6946C4.89224 12.7166 4.94548 12.7537 4.98615 12.7997C5.02386 12.8423 5.03328 12.8725 5.03082 12.8655C5.02776 12.8568 5.01649 12.819 5.01004 12.7403L3.01673 12.9037ZM4.76938 14.676C5.08572 14.676 5.43124 14.6046 5.74408 14.3961L4.63468 12.7319C4.6764 12.7041 4.71512 12.6891 4.74272 12.6818C4.76888 12.6748 4.77989 12.676 4.76938 12.676V14.676ZM5.75859 14.3862C6.19032 14.0873 6.37138 13.6295 6.37138 13.186H4.37138C4.37138 13.1496 4.37824 13.0696 4.42488 12.9727C4.47385 12.871 4.54665 12.7927 4.62017 12.7418L5.75859 14.3862ZM6.37138 13.186C6.37138 12.4988 5.96043 12.0193 5.47903 11.7518L4.50774 13.5002C4.53356 13.5145 4.49424 13.4989 4.44803 13.4305C4.3953 13.3523 4.37138 13.2611 4.37138 13.186H6.37138ZM5.50319 11.7657C5.16412 11.5648 4.6968 11.3708 4.14847 11.1784L3.48629 13.0656C4.00196 13.2465 4.31865 13.3886 4.48358 13.4863L5.50319 11.7657ZM4.1502 11.179C3.54134 10.9641 3.05821 10.7615 2.69049 10.5736L1.78027 12.3544C2.25256 12.5958 2.82409 12.8319 3.48456 13.065L4.1502 11.179ZM2.69864 10.5778C2.43726 10.4411 2.19696 10.236 1.98012 9.93783L0.362647 11.1142C0.743141 11.6374 1.21217 12.0575 1.77213 12.3502L2.69864 10.5778ZM1.98012 9.93783C1.83931 9.74422 1.73023 9.44485 1.73728 8.95849L-0.262512 8.92951C-0.27413 9.73115 -0.0938773 10.4865 0.362647 11.1142L1.98012 9.93783ZM1.73738 8.944C1.73738 8.47635 1.85285 8.14551 2.03539 7.89517L0.419375 6.71683C-0.0514183 7.36249 -0.262617 8.12365 -0.262617 8.944H1.73738ZM2.03326 7.89808C2.25126 7.60136 2.55057 7.36499 2.96461 7.1953L2.20616 5.34469C1.48153 5.64167 0.875506 6.09597 0.421501 6.71392L2.03326 7.89808ZM2.95935 7.19744C3.40253 7.01874 3.92162 6.92 4.53138 6.92V4.92C3.70381 4.92 2.92557 5.05459 2.21141 5.34256L2.95935 7.19744ZM4.53138 6.92C5.59665 6.92 6.31496 7.16532 6.79574 7.54488L8.03503 5.97512C7.09714 5.23468 5.89279 4.92 4.53138 4.92V6.92ZM6.80073 7.5488C7.25724 7.90452 7.52212 8.40155 7.55006 9.16267L9.54871 9.08933C9.50198 7.81578 9.01086 6.73548 8.03003 5.9712L6.80073 7.5488ZM8.54938 8.126H5.20338V10.126H8.54938V8.126ZM6.20283 9.09269C6.18954 8.69402 6.08646 8.17436 5.67383 7.79121L4.31293 9.25679C4.23785 9.18708 4.20813 9.11908 4.19968 9.09487C4.19278 9.07508 4.20163 9.09011 4.20394 9.15931L6.20283 9.09269ZM5.67383 7.79121C5.34888 7.48946 4.94344 7.342 4.51738 7.342V9.342C4.50072 9.342 4.46469 9.33893 4.41925 9.32155C4.37301 9.30387 4.33674 9.2789 4.31293 9.25679L5.67383 7.79121ZM4.51738 7.342C4.11629 7.342 3.7343 7.49947 3.45209 7.81304L4.93868 9.15096C4.892 9.20283 4.82462 9.25624 4.73761 9.29407C4.65157 9.33148 4.57323 9.342 4.51738 9.342V7.342ZM3.48828 7.77489C3.16046 8.10271 3.06938 8.51403 3.06938 8.846H5.06938C5.06938 8.85277 5.06872 8.8971 5.04587 8.96311C5.02143 9.0337 4.976 9.1156 4.90249 9.18911L3.48828 7.77489ZM3.06938 8.846C3.06938 9.51312 3.4629 9.98296 3.90929 10.2577L4.95748 8.55434C4.92824 8.53635 4.95942 8.54839 4.99883 8.60901C5.04428 8.67894 5.06938 8.7658 5.06938 8.846H3.06938ZM3.94774 10.2802C4.26548 10.4567 4.71773 10.65 5.26873 10.859L5.97804 8.989C5.44637 8.78734 5.10529 8.63532 4.91903 8.53184L3.94774 10.2802ZM5.27379 10.8609C5.87465 11.0851 6.34335 11.2914 6.69173 11.4778L7.63504 9.71422C7.18075 9.47123 6.62279 9.22956 5.97297 8.9871L5.27379 10.8609ZM6.70013 11.4822C6.97835 11.6277 7.22392 11.8316 7.43907 12.1073L9.0157 10.8767C8.63352 10.3871 8.16975 9.99368 7.62664 9.70977L6.70013 11.4822ZM7.43907 12.1073C7.57556 12.2822 7.67538 12.5339 7.67538 12.934H9.67538C9.67538 12.1767 9.47654 11.4672 9.0157 10.8767L7.43907 12.1073ZM7.67538 12.934C7.67538 13.3681 7.57107 13.7305 7.37572 14.0479L9.07904 15.0961C9.48103 14.4429 9.67538 13.7133 9.67538 12.934H7.67538ZM7.38032 14.0405C7.1947 14.3363 6.91518 14.5896 6.49602 14.7889L7.35474 16.5951C8.07425 16.2531 8.66273 15.7597 9.07445 15.1035L7.38032 14.0405ZM6.49602 14.7889C6.08943 14.9822 5.56614 15.098 4.89538 15.098V17.098C5.79262 17.098 6.62267 16.9432 7.35474 16.5951L6.49602 14.7889ZM15.8714 9.938H16.8714V8.938H15.8714V9.938ZM15.8714 12.5V13.5H16.8714V12.5H15.8714ZM9.34738 12.5H8.34738V13.5H9.34738V12.5ZM9.34738 9.938V8.938H8.34738V9.938H9.34738ZM14.8714 9.938V12.5H16.8714V9.938H14.8714ZM15.8714 11.5H9.34738V13.5H15.8714V11.5ZM10.3474 12.5V9.938H8.34738V12.5H10.3474ZM9.34738 10.938H15.8714V8.938H9.34738V10.938ZM18.1418 8.412L17.2561 7.94757L17.2517 7.95612L18.1418 8.412ZM19.8498 6.634L20.3448 7.50296L20.353 7.49818L19.8498 6.634ZM24.7498 6.48L24.3126 7.37937L24.3201 7.383L24.3276 7.3865L24.7498 6.48ZM26.4018 7.838L25.588 8.41927L25.5942 8.4277L26.4018 7.838ZM27.2558 9.896V10.896H28.4502L28.2402 9.72021L27.2558 9.896ZM23.9798 9.896L23.0703 10.3118L23.3374 10.896H23.9798V9.896ZM23.3358 9.14L22.7681 9.96321L22.7842 9.97434L22.8007 9.98482L23.3358 9.14ZM21.1518 9.448L20.3655 8.83018L20.3609 8.83603L20.3564 8.84196L21.1518 9.448ZM21.1518 12.612L20.3564 13.218L20.3609 13.224L20.3655 13.2298L21.1518 12.612ZM23.3358 12.934L23.8838 13.7705L23.8905 13.7661L23.3358 12.934ZM23.9798 12.164V11.164H23.3374L23.0703 11.7482L23.9798 12.164ZM27.2558 12.164L28.2402 12.3398L28.4502 11.164H27.2558V12.164ZM26.4018 14.222L25.5941 13.6323L25.5881 13.6408L26.4018 14.222ZM24.7498 15.594L25.1768 16.4983L25.1821 16.4957L24.7498 15.594ZM19.8498 15.44L19.3466 16.3042L19.3548 16.3089L19.8498 15.44ZM18.1418 13.648L17.2517 14.1039L17.2562 14.1124L18.1418 13.648ZM18.5538 11.03C18.5538 10.1862 18.7216 9.47352 19.0318 8.86788L17.2517 7.95612C16.778 8.88115 16.5538 9.91377 16.5538 11.03H18.5538ZM19.0274 8.87641C19.3416 8.27721 19.7769 7.8264 20.3447 7.50292L19.3548 5.76508C18.4481 6.2816 17.7446 7.01613 17.2562 7.94759L19.0274 8.87641ZM20.353 7.49818C20.9132 7.17195 21.6015 6.99 22.4538 6.99V4.99C21.3088 4.99 20.261 5.23738 19.3466 5.76982L20.353 7.49818ZM22.4538 6.99C23.1836 6.99 23.7958 7.12815 24.3126 7.37937L25.187 5.58063C24.3598 5.17852 23.4413 4.99 22.4538 4.99V6.99ZM24.3276 7.3865C24.8591 7.63404 25.2724 7.97737 25.5881 8.41924L27.2155 7.25676C26.6911 6.52263 26.0032 5.96062 25.172 5.5735L24.3276 7.3865ZM25.5942 8.4277C25.9257 8.88177 26.1555 9.42314 26.2714 10.0718L28.2402 9.72021C28.076 8.80086 27.7365 7.97023 27.2094 7.2483L25.5942 8.4277ZM27.2558 8.896H23.9798V10.896H27.2558V8.896ZM24.8893 9.48024C24.6664 8.99269 24.3283 8.58493 23.8708 8.29518L22.8007 9.98482C22.9032 10.0497 22.9945 10.146 23.0703 10.3118L24.8893 9.48024ZM23.9035 8.31679C23.4526 8.00582 22.9385 7.86 22.3978 7.86V9.86C22.5664 9.86 22.6776 9.90085 22.7681 9.96321L23.9035 8.31679ZM22.3978 7.86C21.5855 7.86 20.8735 8.18365 20.3655 8.83018L21.9381 10.0658C22.0461 9.92835 22.1648 9.86 22.3978 9.86V7.86ZM20.3564 8.84196C19.8858 9.45953 19.7038 10.2232 19.7038 11.03H21.7038C21.7038 10.5114 21.8204 10.2205 21.9472 10.054L20.3564 8.84196ZM19.7038 11.03C19.7038 11.8368 19.8858 12.6005 20.3564 13.218L21.9472 12.006C21.8204 11.8395 21.7038 11.5486 21.7038 11.03H19.7038ZM20.3655 13.2298C20.8735 13.8763 21.5855 14.2 22.3978 14.2V12.2C22.1648 12.2 22.0461 12.1317 21.9381 11.9942L20.3655 13.2298ZM22.3978 14.2C22.9277 14.2 23.4347 14.0647 23.8838 13.7705L22.7878 12.0975C22.6955 12.158 22.5772 12.2 22.3978 12.2V14.2ZM23.8905 13.7661C24.3356 13.4693 24.6681 13.0636 24.8893 12.5798L23.0703 11.7482C22.9928 11.9177 22.8959 12.0254 22.7811 12.1019L23.8905 13.7661ZM23.9798 13.164H27.2558V11.164H23.9798V13.164ZM26.2714 11.9882C26.1555 12.6369 25.9257 13.1782 25.5942 13.6323L27.2094 14.8117C27.7365 14.0898 28.076 13.2591 28.2402 12.3398L26.2714 11.9882ZM25.5881 13.6408C25.2707 14.0851 24.8539 14.4351 24.3175 14.6923L25.1821 16.4957C26.0084 16.0996 26.6929 15.5349 27.2155 14.8032L25.5881 13.6408ZM24.3228 14.6898C23.8036 14.9349 23.1877 15.07 22.4538 15.07V17.07C23.4372 17.07 24.352 16.8877 25.1768 16.4982L24.3228 14.6898ZM22.4538 15.07C21.5978 15.07 20.9065 14.8911 20.3447 14.5711L19.3548 16.3089C20.2677 16.8289 21.3124 17.07 22.4538 17.07V15.07ZM20.353 14.5758C19.7804 14.2424 19.3426 13.7846 19.0274 13.1836L17.2562 14.1124C17.7437 15.042 18.4445 15.7789 19.3466 16.3042L20.353 14.5758ZM19.0318 13.1921C18.7216 12.5865 18.5538 11.8738 18.5538 11.03H16.5538C16.5538 12.1462 16.778 13.1789 17.2517 14.1039L19.0318 13.1921ZM34.7308 14.502L35.6812 14.1911L35.4558 13.502H34.7308V14.502ZM31.4268 14.502V13.502H30.7018L30.4764 14.1911L31.4268 14.502ZM30.9368 16V17H31.6618L31.8872 16.3109L30.9368 16ZM27.6748 16L26.7357 15.6564L26.2442 17H27.6748V16ZM31.3008 6.088V5.088H30.6018L30.3617 5.74445L31.3008 6.088ZM34.8848 6.088L35.8244 5.74562L35.5847 5.088H34.8848V6.088ZM38.4968 16V17H39.9255L39.4364 15.6576L38.4968 16ZM35.2208 16L34.2704 16.3109L34.4958 17H35.2208V16ZM33.9748 12.164V13.164H35.3511L34.9259 11.855L33.9748 12.164ZM33.0788 9.406L34.0299 9.09702L33.0788 6.16951L32.1277 9.09702L33.0788 9.406ZM32.1828 12.164L31.2317 11.855L30.8065 13.164H32.1828V12.164ZM34.7308 13.502H31.4268V15.502H34.7308V13.502ZM30.4764 14.1911L29.9864 15.6891L31.8872 16.3109L32.3773 14.8129L30.4764 14.1911ZM30.9368 15H27.6748V17H30.9368V15ZM28.6139 16.3436L32.2399 6.43155L30.3617 5.74445L26.7357 15.6564L28.6139 16.3436ZM31.3008 7.088H34.8848V5.088H31.3008V7.088ZM33.9452 6.43038L37.5572 16.3424L39.4364 15.6576L35.8244 5.74562L33.9452 6.43038ZM38.4968 15H35.2208V17H38.4968V15ZM36.1712 15.6891L35.6812 14.1911L33.7804 14.8129L34.2704 16.3109L36.1712 15.6891ZM34.9259 11.855L34.0299 9.09702L32.1277 9.71498L33.0237 12.473L34.9259 11.855ZM32.1277 9.09702L31.2317 11.855L33.1339 12.473L34.0299 9.71498L32.1277 9.09702ZM32.1828 13.164H33.9748V11.164H32.1828V13.164ZM46.9869 6.088H47.9869V5.088H46.9869V6.088ZM46.9869 8.552V9.552H47.9869V8.552H46.9869ZM44.3549 8.552V7.552H43.3549V8.552H44.3549ZM44.3549 16V17H45.3549V16H44.3549ZM41.2469 16H40.2469V17H41.2469V16ZM41.2469 8.552H42.2469V7.552H41.2469V8.552ZM38.6429 8.552H37.6429V9.552H38.6429V8.552ZM38.6429 6.088V5.088H37.6429V6.088H38.6429ZM45.9869 6.088V8.552H47.9869V6.088H45.9869ZM46.9869 7.552H44.3549V9.552H46.9869V7.552ZM43.3549 8.552V16H45.3549V8.552H43.3549ZM44.3549 15H41.2469V17H44.3549V15ZM42.2469 16V8.552H40.2469V16H42.2469ZM41.2469 7.552H38.6429V9.552H41.2469V7.552ZM39.6429 8.552V6.088H37.6429V8.552H39.6429ZM38.6429 7.088H46.9869V5.088H38.6429V7.088ZM62.5697 6.088L63.5176 6.40664L63.9608 5.088H62.5697V6.088ZM59.2377 16V17H59.9565L60.1856 16.3186L59.2377 16ZM55.2197 16L54.2718 16.3186L54.5009 17H55.2197V16ZM51.8877 6.088V5.088H50.4965L50.9398 6.40664L51.8877 6.088ZM55.1917 6.088L56.1496 5.80083L55.9359 5.088H55.1917V6.088ZM57.2357 12.906L56.2778 13.1932L57.239 16.3993L58.1941 13.1914L57.2357 12.906ZM59.2657 6.088V5.088H58.5201L58.3073 5.80264L59.2657 6.088ZM61.6218 5.76936L58.2898 15.6814L60.1856 16.3186L63.5176 6.40664L61.6218 5.76936ZM59.2377 15H55.2197V17H59.2377V15ZM56.1676 15.6814L52.8356 5.76936L50.9398 6.40664L54.2718 16.3186L56.1676 15.6814ZM51.8877 7.088H55.1917V5.088H51.8877V7.088ZM54.2338 6.37517L56.2778 13.1932L58.1936 12.6188L56.1496 5.80083L54.2338 6.37517ZM58.1941 13.1914L60.2241 6.37336L58.3073 5.80264L56.2773 12.6206L58.1941 13.1914ZM59.2657 7.088H62.5697V5.088H59.2657V7.088ZM64.8754 15.608L65.3331 14.7189L64.8754 15.608ZM63.3774 14.208L62.5108 14.707L62.5153 14.7148L62.5199 14.7225L63.3774 14.208ZM63.3774 9.91L62.5165 9.40127L62.5141 9.4053L63.3774 9.91ZM64.8754 8.496L65.3331 9.38514L64.8754 8.496ZM69.1594 8.496L68.7018 9.38514L69.1594 8.496ZM70.6434 9.91L69.7768 10.409L69.7813 10.4168L69.7859 10.4245L70.6434 9.91ZM70.6434 14.208L69.7825 13.6993L69.7801 13.7033L70.6434 14.208ZM69.1594 15.608L68.7018 14.7189L69.1594 15.608ZM67.7454 13.074L68.498 13.7325L68.5046 13.7249L68.5111 13.7172L67.7454 13.074ZM67.7454 11.044L66.9797 11.6872L66.9862 11.6949L66.9929 11.7025L67.7454 11.044ZM66.2894 11.044L67.042 11.7025L67.0486 11.6949L67.0551 11.6872L66.2894 11.044ZM66.2754 13.074L65.4946 13.6987L65.5083 13.7159L65.5229 13.7325L66.2754 13.074ZM67.0174 15.098C66.3653 15.098 65.811 14.9649 65.3331 14.7189L64.4178 16.4971C65.2092 16.9045 66.0829 17.098 67.0174 17.098V15.098ZM65.3331 14.7189C64.8624 14.4766 64.5022 14.139 64.2349 13.6935L62.5199 14.7225C62.9806 15.4903 63.6191 16.0861 64.4178 16.4971L65.3331 14.7189ZM64.244 13.709C63.9896 13.267 63.8454 12.7258 63.8454 12.052H61.8454C61.8454 13.0209 62.056 13.917 62.5108 14.707L64.244 13.709ZM63.8454 12.052C63.8454 11.3778 63.9897 10.8441 64.2407 10.4147L62.5141 9.4053C62.0558 10.1893 61.8454 11.0835 61.8454 12.052H63.8454ZM64.2384 10.4187C64.5067 9.96459 64.8664 9.62532 65.3331 9.38514L64.4178 7.60686C63.6151 8.02001 62.9762 8.62341 62.5165 9.40127L64.2384 10.4187ZM65.3331 9.38514C65.811 9.13914 66.3653 9.006 67.0174 9.006V7.006C66.0829 7.006 65.2092 7.19953 64.4178 7.60686L65.3331 9.38514ZM67.0174 9.006C67.6696 9.006 68.2238 9.13914 68.7018 9.38514L69.6171 7.60686C68.8257 7.19953 67.952 7.006 67.0174 7.006V9.006ZM68.7018 9.38514C69.1662 9.62418 69.5185 9.96039 69.7768 10.409L71.5101 9.41104C71.059 8.62761 70.422 8.02116 69.6171 7.60686L68.7018 9.38514ZM69.7859 10.4245C70.0426 10.8522 70.1894 11.3823 70.1894 12.052H72.1894C72.1894 11.079 71.9723 10.1811 71.5009 9.3955L69.7859 10.4245ZM70.1894 12.052C70.1894 12.7213 70.0427 13.259 69.7825 13.6993L71.5044 14.7167C71.9722 13.925 72.1894 13.0254 72.1894 12.052H70.1894ZM69.7801 13.7033C69.523 14.1432 69.1703 14.4777 68.7018 14.7189L69.6171 16.4971C70.4179 16.0849 71.0545 15.4862 71.5067 14.7127L69.7801 13.7033ZM68.7018 14.7189C68.2238 14.9649 67.6696 15.098 67.0174 15.098V17.098C67.952 17.098 68.8257 16.9045 69.6171 16.4971L68.7018 14.7189ZM67.0174 14.41C67.6045 14.41 68.1184 14.1664 68.498 13.7325L66.9929 12.4155C66.9841 12.4255 66.98 12.4283 66.9816 12.4271C66.9834 12.4257 66.9888 12.422 66.9974 12.418C67.006 12.4141 67.014 12.4116 67.0197 12.4104C67.0251 12.4093 67.025 12.41 67.0174 12.41V14.41ZM68.5111 13.7172C68.9156 13.2357 69.0394 12.6278 69.0394 12.052H67.0394C67.0394 12.3722 66.9673 12.4456 66.9797 12.4308L68.5111 13.7172ZM69.0394 12.052C69.0394 11.4802 68.9172 10.8646 68.498 10.3855L66.9929 11.7025C66.9656 11.6714 67.0394 11.7278 67.0394 12.052H69.0394ZM68.5111 10.4008C68.1367 9.95506 67.6197 9.694 67.0174 9.694V11.694C67.0222 11.694 67.0196 11.6944 67.0115 11.6927C67.0031 11.6908 66.9931 11.6876 66.9831 11.6828C66.9733 11.678 66.9675 11.6737 66.966 11.6726C66.9648 11.6716 66.9697 11.6753 66.9797 11.6872L68.5111 10.4008ZM67.0174 9.694C66.4152 9.694 65.8982 9.95506 65.5237 10.4008L67.0551 11.6872C67.0651 11.6753 67.0701 11.6716 67.0689 11.6726C67.0674 11.6737 67.0616 11.678 67.0517 11.6828C67.0417 11.6876 67.0317 11.6908 67.0234 11.6927C67.0153 11.6944 67.0127 11.694 67.0174 11.694V9.694ZM65.5368 10.3855C65.1176 10.8646 64.9954 11.4802 64.9954 12.052H66.9954C66.9954 11.7278 67.0692 11.6714 67.042 11.7025L65.5368 10.3855ZM64.9954 12.052C64.9954 12.6184 65.1105 13.2186 65.4946 13.6987L67.0563 12.4493C67.067 12.4627 66.9954 12.3816 66.9954 12.052H64.9954ZM65.5229 13.7325C65.9095 14.1744 66.4315 14.41 67.0174 14.41V12.41C67.0055 12.41 67.0016 12.4089 67.004 12.4094C67.0067 12.4099 67.0127 12.4116 67.0204 12.415C67.0281 12.4185 67.0336 12.4221 67.0361 12.424C67.0384 12.4258 67.0354 12.424 67.028 12.4155L65.5229 13.7325ZM80.5238 8.104H81.5238V7.104H80.5238V8.104ZM80.5238 16V17H81.5238V16H80.5238ZM77.4158 16H76.4158V17H77.4158V16ZM77.4158 14.796H78.4158V11.4226L76.5774 14.251L77.4158 14.796ZM76.4358 15.706L75.9418 14.8365L75.9332 14.8415L76.4358 15.706ZM72.8658 15.146L72.0966 15.785L72.1024 15.7919L72.8658 15.146ZM72.1098 8.104V7.104H71.1098V8.104H72.1098ZM75.2038 8.104H76.2038V7.104H75.2038V8.104ZM75.4978 13.186L74.7452 13.8445L74.7598 13.8612L74.7752 13.8772L75.4978 13.186ZM77.1218 13.186L77.8603 13.8603L77.8674 13.8525L77.8744 13.8445L77.1218 13.186ZM77.4158 8.104V7.104H76.4158V8.104H77.4158ZM79.5238 8.104V16H81.5238V8.104H79.5238ZM80.5238 15H77.4158V17H80.5238V15ZM78.4158 16V14.796H76.4158V16H78.4158ZM76.5774 14.251C76.4272 14.4821 76.2221 14.6773 75.9418 14.8365L76.9298 16.5755C77.4709 16.268 77.9191 15.8566 78.2543 15.341L76.5774 14.251ZM75.9332 14.8415C75.7132 14.9694 75.4137 15.056 74.9938 15.056V17.056C75.694 17.056 76.3558 16.9093 76.9384 16.5705L75.9332 14.8415ZM74.9938 15.056C74.3369 15.056 73.9248 14.8494 73.6292 14.5001L72.1024 15.7919C72.8335 16.6559 73.8401 17.056 74.9938 17.056V15.056ZM73.635 14.507C73.3215 14.1296 73.1098 13.5586 73.1098 12.682H71.1098C71.1098 13.8774 71.4022 14.9491 72.0966 15.785L73.635 14.507ZM73.1098 12.682V8.104H71.1098V12.682H73.1098ZM72.1098 9.104H75.2038V7.104H72.1098V9.104ZM74.2038 8.104V12.29H76.2038V8.104H74.2038ZM74.2038 12.29C74.2038 12.8418 74.3523 13.3954 74.7452 13.8445L76.2504 12.5275C76.2458 12.5222 76.237 12.5112 76.2275 12.4822C76.217 12.4504 76.2038 12.3901 76.2038 12.29H74.2038ZM74.7752 13.8772C75.1947 14.3158 75.7402 14.508 76.3098 14.508V12.508C76.2488 12.508 76.2248 12.4985 76.2234 12.4979C76.2223 12.4974 76.223 12.4977 76.2244 12.4986C76.2257 12.4995 76.2244 12.4989 76.2205 12.4948L74.7752 13.8772ZM76.3098 14.508C76.8786 14.508 77.4392 14.3215 77.8603 13.8603L76.3833 12.5117C76.3841 12.5109 76.3874 12.5076 76.3929 12.5038C76.3984 12.5 76.4025 12.4982 76.4032 12.4979C76.4048 12.4973 76.3793 12.508 76.3098 12.508V14.508ZM77.8744 13.8445C78.2674 13.3954 78.4158 12.8418 78.4158 12.29H76.4158C76.4158 12.3901 76.4026 12.4504 76.3922 12.4822C76.3827 12.5112 76.3738 12.5222 76.3692 12.5275L77.8744 13.8445ZM78.4158 12.29V8.104H76.4158V12.29H78.4158ZM77.4158 9.104H80.5238V7.104H77.4158V9.104ZM82.0115 9.91L81.1392 9.42099L81.1367 9.4255L82.0115 9.91ZM83.4395 8.496L82.971 7.61252L82.9654 7.61553L83.4395 8.496ZM88.1295 8.874L87.4924 9.64476L87.4974 9.64886L88.1295 8.874ZM89.4735 11.282V12.282H90.6718L90.4574 11.1031L89.4735 11.282ZM86.1835 11.282L85.2245 11.5653L85.4363 12.282H86.1835V11.282ZM84.8675 11.016L84.0253 10.4769L84.0175 10.4891L84.01 10.5015L84.8675 11.016ZM84.8675 13.088L84.01 13.6025L84.0175 13.6149L84.0253 13.6271L84.8675 13.088ZM86.1835 12.822V11.822H85.4363L85.2245 12.5387L86.1835 12.822ZM89.4735 12.822L90.4574 13.0009L90.6718 11.822H89.4735V12.822ZM88.1295 15.23L87.4974 14.4551L87.4924 14.4593L88.1295 15.23ZM83.4395 15.608L82.9654 16.4885L82.971 16.4915L83.4395 15.608ZM82.0115 14.208L81.1336 14.6869L81.138 14.6948L81.1425 14.7027L82.0115 14.208ZM82.5075 12.052C82.5075 11.3689 82.6464 10.8277 82.8863 10.3945L81.1367 9.4255C80.7047 10.2056 80.5075 11.0925 80.5075 12.052H82.5075ZM82.8838 10.399C83.1387 9.94429 83.4785 9.61076 83.9136 9.37647L82.9654 7.61553C82.1872 8.03457 81.575 8.6437 81.1393 9.42099L82.8838 10.399ZM83.908 9.37946C84.3626 9.13842 84.8983 9.006 85.5395 9.006V7.006C84.6128 7.006 83.7485 7.20024 82.971 7.61254L83.908 9.37946ZM85.5395 9.006C86.3658 9.006 86.995 9.23354 87.4924 9.64474L88.7667 8.10326C87.8641 7.35713 86.7666 7.006 85.5395 7.006V9.006ZM87.4974 9.64886C87.9966 10.0561 88.3393 10.6336 88.4897 11.4609L90.4574 11.1031C90.2345 9.87706 89.6811 8.84921 88.7617 8.09913L87.4974 9.64886ZM89.4735 10.282H86.1835V12.282H89.4735V10.282ZM87.1426 10.9987C87.0466 10.6739 86.8753 10.3286 86.5673 10.0628C86.2433 9.78333 85.8539 9.666 85.4695 9.666V11.666C85.4612 11.666 85.4303 11.6646 85.3863 11.6494C85.3406 11.6336 85.2969 11.6083 85.2608 11.5772C85.1908 11.5167 85.1991 11.4794 85.2245 11.5653L87.1426 10.9987ZM85.4695 9.666C84.8382 9.666 84.3367 9.99033 84.0253 10.4769L85.7098 11.5551C85.7152 11.5466 85.694 11.5823 85.6327 11.618C85.5674 11.6559 85.5045 11.666 85.4695 11.666V9.666ZM84.01 10.5015C83.7332 10.9629 83.6575 11.5228 83.6575 12.052H85.6575C85.6575 11.8715 85.6716 11.74 85.6901 11.6487C85.7088 11.5563 85.7279 11.5257 85.725 11.5305L84.01 10.5015ZM83.6575 12.052C83.6575 12.5812 83.7332 13.1411 84.01 13.6025L85.725 12.5735C85.7279 12.5783 85.7088 12.5477 85.6901 12.4553C85.6716 12.364 85.6575 12.2325 85.6575 12.052H83.6575ZM84.0253 13.6271C84.3367 14.1137 84.8382 14.438 85.4695 14.438V12.438C85.5045 12.438 85.5674 12.4481 85.6327 12.486C85.694 12.5217 85.7152 12.5574 85.7098 12.5489L84.0253 13.6271ZM85.4695 14.438C85.8539 14.438 86.2433 14.3207 86.5673 14.0412C86.8753 13.7754 87.0466 13.4301 87.1426 13.1053L85.2245 12.5387C85.1991 12.6246 85.1908 12.5873 85.2608 12.5268C85.2969 12.4957 85.3406 12.4704 85.3863 12.4546C85.4303 12.4394 85.4612 12.438 85.4695 12.438V14.438ZM86.1835 13.822H89.4735V11.822H86.1835V13.822ZM88.4897 12.6431C88.3393 13.4704 87.9966 14.0479 87.4974 14.4551L88.7617 16.0049C89.6811 15.2548 90.2345 14.2269 90.4574 13.0009L88.4897 12.6431ZM87.4924 14.4593C86.995 14.8705 86.3658 15.098 85.5395 15.098V17.098C86.7666 17.098 87.8641 16.7469 88.7667 16.0007L87.4924 14.4593ZM85.5395 15.098C84.8983 15.098 84.3626 14.9656 83.908 14.7245L82.971 16.4915C83.7485 16.9038 84.6128 17.098 85.5395 17.098V15.098ZM83.9136 14.7275C83.4745 14.4911 83.1344 14.1591 82.8806 13.7133L81.1425 14.7027C81.5794 15.4702 82.1912 16.0716 82.9654 16.4885L83.9136 14.7275ZM82.8894 13.7291C82.6462 13.2833 82.5075 12.7347 82.5075 12.052H80.5075C80.5075 13.012 80.7048 13.9007 81.1336 14.6869L82.8894 13.7291ZM98.1028 8.958L97.3336 9.59704L97.3394 9.60394L98.1028 8.958ZM98.8728 16V17H99.8728V16H98.8728ZM95.7788 16H94.7788V17H95.7788V16ZM95.4708 10.932L94.7182 11.5905L94.7328 11.6072L94.7481 11.6232L95.4708 10.932ZM93.8608 10.932L94.5993 11.6063L94.6064 11.5985L94.6134 11.5905L93.8608 10.932ZM93.5668 16V17H94.5668V16H93.5668ZM90.4588 16H89.4588V17H90.4588V16ZM90.4588 5.64V4.64H89.4588V5.64H90.4588ZM93.5668 5.64H94.5668V4.64H93.5668V5.64ZM93.5668 9.308H92.5668V12.6814L94.4052 9.85299L93.5668 9.308ZM94.5328 8.398L94.0388 7.5285L94.0302 7.53349L94.5328 8.398ZM95.9888 9.048C96.646 9.048 97.0489 9.25437 97.3336 9.59702L98.872 8.31898C98.1486 7.4483 97.1422 7.048 95.9888 7.048V9.048ZM97.3394 9.60394C97.6586 9.98122 97.8728 10.5495 97.8728 11.422H99.8728C99.8728 10.2225 99.5736 9.14811 98.8662 8.31206L97.3394 9.60394ZM97.8728 11.422V16H99.8728V11.422H97.8728ZM98.8728 15H95.7788V17H98.8728V15ZM96.7788 16V11.814H94.7788V16H96.7788ZM96.7788 11.814C96.7788 11.2524 96.6195 10.6862 96.1934 10.2408L94.7481 11.6232C94.749 11.6241 94.7494 11.6246 94.7501 11.6258C94.7509 11.6272 94.7539 11.6323 94.7577 11.6432C94.7655 11.6655 94.7788 11.7179 94.7788 11.814H96.7788ZM96.2234 10.2735C95.8118 9.80314 95.2557 9.596 94.6728 9.596V11.596C94.7291 11.596 94.7445 11.6051 94.7362 11.6016C94.7327 11.6001 94.7275 11.5974 94.7225 11.5937C94.7175 11.5901 94.7162 11.5882 94.7182 11.5905L96.2234 10.2735ZM94.6728 9.596C94.0902 9.596 93.5253 9.79679 93.1082 10.2735L94.6134 11.5905C94.614 11.5897 94.6116 11.5926 94.6061 11.5965C94.6005 11.6006 94.5956 11.603 94.5931 11.604C94.5876 11.6063 94.6082 11.596 94.6728 11.596V9.596ZM93.1223 10.2577C92.7145 10.7044 92.5668 11.2644 92.5668 11.814H94.5668C94.5668 11.7135 94.5801 11.6564 94.589 11.6297C94.5933 11.6168 94.5968 11.6103 94.598 11.6083C94.5986 11.6071 94.599 11.6066 94.5991 11.6065C94.5991 11.6064 94.5992 11.6064 94.5993 11.6063L93.1223 10.2577ZM92.5668 11.814V16H94.5668V11.814H92.5668ZM93.5668 15H90.4588V17H93.5668V15ZM91.4588 16V5.64H89.4588V16H91.4588ZM90.4588 6.64H93.5668V4.64H90.4588V6.64ZM92.5668 5.64V9.308H94.5668V5.64H92.5668ZM94.4052 9.85299C94.5589 9.61664 94.7635 9.42056 95.0354 9.26251L94.0302 7.53349C93.4994 7.8421 93.0601 8.25269 92.7283 8.76301L94.4052 9.85299ZM95.0268 9.26746C95.2611 9.13432 95.5697 9.048 95.9888 9.048V7.048C95.2878 7.048 94.6258 7.19501 94.0388 7.52854L95.0268 9.26746ZM107.823 12.598V13.598H108.69L108.812 12.7394L107.823 12.598ZM102.825 12.598V11.598H101.754L101.827 12.6663L102.825 12.598ZM104.407 13.158V12.158H103.78L103.507 12.7217L104.407 13.158ZM107.697 13.158L108.677 13.3541L108.916 12.158H107.697V13.158ZM106.983 14.67L106.206 14.0394L106.205 14.0413L106.983 14.67ZM105.625 15.72L106.047 16.6266L106.053 16.6234L105.625 15.72ZM101.733 15.608L101.258 16.4885L101.264 16.4915L101.733 15.608ZM100.305 14.208L99.4266 14.6869L99.431 14.6948L99.4354 14.7027L100.305 14.208ZM100.305 9.91L99.4322 9.42099L99.4297 9.4255L100.305 9.91ZM101.733 8.496L101.264 7.61252L101.258 7.61553L101.733 8.496ZM105.919 8.496L105.444 9.37647L105.452 9.3808L105.461 9.38497L105.919 8.496ZM107.347 9.868L106.475 10.3583L106.481 10.3685L107.347 9.868ZM104.715 11.24V12.24H105.715V11.24H104.715ZM104.463 10.652L103.822 11.4202L103.835 11.431L103.849 11.4414L104.463 10.652ZM102.867 11.24L101.882 11.0672L101.676 12.24H102.867V11.24ZM106.865 11.982C106.865 12.1533 106.853 12.3111 106.833 12.4566L108.812 12.7394C108.848 12.4929 108.865 12.2401 108.865 11.982H106.865ZM107.823 11.598H102.825V13.598H107.823V11.598ZM101.827 12.6663C101.857 13.1113 101.973 13.6075 102.306 14.0057C102.672 14.4447 103.179 14.62 103.679 14.62V12.62C103.656 12.62 103.676 12.6165 103.72 12.6348C103.741 12.6439 103.764 12.6566 103.787 12.6734C103.809 12.69 103.827 12.7076 103.84 12.7233C103.866 12.7545 103.865 12.7677 103.855 12.7367C103.845 12.7045 103.83 12.6393 103.822 12.5297L101.827 12.6663ZM103.679 14.62C104.004 14.62 104.341 14.5437 104.648 14.3488C104.954 14.1547 105.166 13.8832 105.306 13.5943L103.507 12.7217C103.497 12.7408 103.513 12.7003 103.577 12.6602C103.606 12.6418 103.634 12.6306 103.656 12.6248C103.677 12.6192 103.686 12.62 103.679 12.62V14.62ZM104.407 14.158H107.697V12.158H104.407V14.158ZM106.716 12.9619C106.636 13.3608 106.469 13.7161 106.206 14.0394L107.759 15.3006C108.224 14.7279 108.533 14.0752 108.677 13.3541L106.716 12.9619ZM106.205 14.0413C105.952 14.3542 105.622 14.6142 105.196 14.8166L106.053 16.6234C106.728 16.3031 107.304 15.8631 107.76 15.2987L106.205 14.0413ZM105.202 14.8134C104.805 14.9983 104.354 15.098 103.833 15.098V17.098C104.618 17.098 105.361 16.9457 106.047 16.6266L105.202 14.8134ZM103.833 15.098C103.191 15.098 102.656 14.9656 102.201 14.7245L101.264 16.4915C102.041 16.9038 102.906 17.098 103.833 17.098V15.098ZM102.207 14.7275C101.767 14.4911 101.427 14.1591 101.174 13.7133L99.4354 14.7027C99.8723 15.4702 100.484 16.0716 101.258 16.4885L102.207 14.7275ZM101.182 13.7291C100.939 13.2833 100.801 12.7347 100.801 12.052H98.8005C98.8005 13.012 98.9978 13.9007 99.4266 14.6869L101.182 13.7291ZM100.801 12.052C100.801 11.3689 100.939 10.8277 101.179 10.3945L99.4297 9.4255C98.9977 10.2056 98.8005 11.0925 98.8005 12.052H100.801ZM101.177 10.399C101.432 9.94429 101.771 9.61076 102.207 9.37647L101.258 7.61553C100.48 8.03457 99.868 8.6437 99.4322 9.42099L101.177 10.399ZM102.201 9.37946C102.656 9.13842 103.191 9.006 103.833 9.006V7.006C102.906 7.006 102.041 7.20024 101.264 7.61254L102.201 9.37946ZM103.833 9.006C104.474 9.006 105.002 9.13852 105.444 9.37647L106.393 7.61553C105.621 7.20015 104.759 7.006 103.833 7.006V9.006ZM105.461 9.38497C105.905 9.61378 106.236 9.93342 106.475 10.3583L108.218 9.37774C107.785 8.60791 107.164 8.01289 106.376 7.60703L105.461 9.38497ZM106.481 10.3685C106.724 10.7887 106.865 11.3144 106.865 11.982H108.865C108.865 11.0256 108.66 10.142 108.212 9.3675L106.481 10.3685ZM105.715 11.24C105.715 10.748 105.544 10.226 105.076 9.86265L103.849 11.4414C103.799 11.4026 103.757 11.3481 103.732 11.2909C103.71 11.2397 103.715 11.215 103.715 11.24H105.715ZM105.103 9.88378C104.728 9.57158 104.281 9.442 103.833 9.442V11.442C103.866 11.442 103.873 11.4465 103.863 11.4432C103.858 11.4416 103.851 11.4388 103.843 11.4343C103.835 11.4298 103.828 11.4248 103.822 11.4202L105.103 9.88378ZM103.833 9.442C103.399 9.442 102.932 9.54802 102.541 9.87054C102.148 10.1951 101.957 10.6369 101.882 11.0672L103.851 11.4128C103.861 11.361 103.87 11.3455 103.866 11.3526C103.864 11.3564 103.859 11.3652 103.85 11.3767C103.841 11.3884 103.829 11.4008 103.815 11.4125C103.801 11.4241 103.787 11.4329 103.775 11.4392C103.763 11.4454 103.756 11.4479 103.754 11.4484C103.751 11.4492 103.774 11.442 103.833 11.442V9.442ZM102.867 12.24H104.715V10.24H102.867V12.24ZM111.955 9.56H110.955V12.7553L112.777 10.1301L111.955 9.56ZM113.117 8.468L113.627 9.32858L113.633 9.32476L113.64 9.32085L113.117 8.468ZM114.545 8.048H115.545V7.048H114.545V8.048ZM114.545 11.366V12.366H115.545V11.366H114.545ZM112.361 11.674L111.77 10.8676L111.764 10.8724L111.757 10.8773L112.361 11.674ZM111.955 16V17H112.955V16H111.955ZM108.847 16H107.847V17H108.847V16ZM108.847 8.104V7.104H107.847V8.104H108.847ZM111.955 8.104H112.955V7.104H111.955V8.104ZM112.777 10.1301C113.016 9.78517 113.299 9.52252 113.627 9.32858L112.608 7.60742C112.021 7.95482 111.529 8.42016 111.134 8.98992L112.777 10.1301ZM113.64 9.32085C113.953 9.12869 114.251 9.048 114.545 9.048V7.048C113.851 7.048 113.196 7.24731 112.595 7.61515L113.64 9.32085ZM113.545 8.048V11.366H115.545V8.048H113.545ZM114.545 10.366H113.663V12.366H114.545V10.366ZM113.663 10.366C112.996 10.366 112.304 10.4758 111.77 10.8676L112.953 12.4804C112.979 12.4616 113.155 12.366 113.663 12.366V10.366ZM111.757 10.8773C111.126 11.356 110.955 12.1029 110.955 12.766H112.955C112.955 12.5851 112.98 12.4888 112.994 12.4495C113.005 12.4194 113.003 12.4429 112.966 12.4707L111.757 10.8773ZM110.955 12.766V16H112.955V12.766H110.955ZM111.955 15H108.847V17H111.955V15ZM109.847 16V8.104H107.847V16H109.847ZM108.847 9.104H111.955V7.104H108.847V9.104ZM110.955 8.104V9.56H112.955V8.104H110.955Z" fill="black" mask="url(#path-1-outside-1_32638_340688)"/>
</g>
<defs>
<filter id="filter0_d_32638_340688" x="0.709351" y="5.64" width="114.836" height="11.458" filterUnits="userSpaceOnUse" color-interpolation-filters="sRGB">
<feFlood flood-opacity="0" result="BackgroundImageFix"/>
<feColorMatrix in="SourceAlpha" type="matrix" values="0 0 0 0 0 0 0 0 0 0 0 0 0 0 0 0 0 0 127 0" result="hardAlpha"/>
<feOffset dx="1" dy="1"/>
<feComposite in2="hardAlpha" operator="out"/>
<feColorMatrix type="matrix" values="0 0 0 0 0 0 0 0 0 0 0 0 0 0 0 0 0 0 1 0"/>
<feBlend mode="normal" in2="BackgroundImageFix" result="effect1_dropShadow_32638_340688"/>
<feBlend mode="normal" in="SourceGraphic" in2="effect1_dropShadow_32638_340688" result="shape"/>
</filter>
</defs>
</svg>
