<svg width="100" height="100" viewBox="0 0 100 100" fill="none" xmlns="http://www.w3.org/2000/svg">
<g clip-path="url(#clip0_28523_248395)">
<path fill-rule="evenodd" clip-rule="evenodd" d="M68.2268 48.3156L66.9694 46.9132L66.97 46.9139C66.91 46.8538 66.8513 46.7927 66.7942 46.7299L66.7716 46.7046C66.7793 46.7131 66.7866 46.7216 66.7942 46.7299L68.0285 48.1064C68.0929 48.1792 68.1595 48.2482 68.2268 48.3156ZM76.2338 46.5382C79.5942 43.8981 80.6703 39.5285 78.6389 36.7771L78.6383 36.7763C78.5461 36.6522 78.4505 36.5335 78.3493 36.4204L79.5951 37.8097C79.7004 37.9267 79.7999 38.0498 79.8958 38.1788C81.9272 40.9303 80.8508 45.3 77.4907 47.94C77.4209 47.9953 77.3507 48.0487 77.2803 48.1013C76.4343 48.7301 75.5306 49.1894 74.6188 49.4811C72.2213 50.2487 69.7774 49.8544 68.2271 48.3154L66.9697 46.913C68.5194 48.4512 70.963 48.8468 73.3619 48.0794C74.2728 47.7883 75.1775 47.3284 76.0234 46.6994C76.0938 46.647 76.1637 46.5937 76.2338 46.5382Z" fill="#FFB506"/>
<mask id="mask0_28523_248395" style="mask-type:alpha" maskUnits="userSpaceOnUse" x="66" y="36" width="15" height="14">
<path fill-rule="evenodd" clip-rule="evenodd" d="M68.2283 48.315L66.9707 46.9119L66.9713 46.9127C66.911 46.8526 66.8523 46.7917 66.7955 46.7287L66.7725 46.7035C66.7802 46.7119 66.7879 46.7203 66.7955 46.7287L68.0299 48.1056C68.0943 48.1783 68.1606 48.2476 68.2283 48.315ZM76.2339 46.539C79.5934 43.8992 80.6688 39.529 78.6367 36.7767L78.6361 36.7759C78.5442 36.6517 78.4483 36.533 78.3474 36.4198L79.5933 37.8096C79.6987 37.9267 79.7982 38.0499 79.8937 38.1789C81.9259 40.9312 80.8504 45.3013 77.4912 47.9412C77.4212 47.9966 77.3513 48.0499 77.2805 48.1024C76.4351 48.7312 75.5312 49.1904 74.6196 49.4821C72.2225 50.2493 69.7787 49.8544 68.2283 48.315L66.9707 46.9119C68.5206 48.4506 70.9643 48.8469 73.3626 48.0799C74.2736 47.7888 75.1777 47.3291 76.0235 46.7002C76.0942 46.6475 76.1641 46.5943 76.2339 46.539Z" fill="#85FA4D"/>
</mask>
<g mask="url(#mask0_28523_248395)">
<path d="M70.6869 35.7018L79.3271 49.1693L87.513 43.9737L78.8727 30.5061L70.6869 35.7018Z" fill="#040809"/>
<path d="M71.318 35.5915L79.9571 49.0582L80.3646 48.7994L71.7256 35.3328L71.318 35.5915Z" fill="#FFB506"/>
</g>
<path d="M78.3979 36.3634C76.0801 33.7782 71.5907 34.0384 68.3758 36.8951C65.161 39.7518 64.3933 44.1632 66.711 46.7485C69.0288 49.3336 73.5183 49.0734 76.7331 46.2168C79.9479 43.3599 80.7157 38.9485 78.3979 36.3634Z" fill="#FFE34F" stroke="#040809" stroke-width="0.208333"/>
<path d="M78.3984 36.3641L78.4062 36.373L78.4066 36.373L79.6506 37.7608C79.7578 37.8798 79.8587 38.0048 79.9557 38.1354C82.0195 40.9304 80.9167 45.3439 77.537 47.9992C77.4667 48.0551 77.3959 48.1089 77.3248 48.1617C76.4726 48.7955 75.5614 49.2586 74.6417 49.5528C72.2247 50.3268 69.7493 49.9323 68.1742 48.369C68.106 48.301 68.0384 48.2307 67.9726 48.1566C67.9726 48.1565 67.9726 48.1564 67.9722 48.1565L66.7385 46.7806C66.7308 46.7722 66.7231 46.7634 66.7154 46.7548L66.716 46.7544C66.7145 46.7526 66.713 46.7509 66.7115 46.7491C64.3938 44.1639 65.1615 39.7526 68.3764 36.8958C71.5912 34.0391 76.0807 33.779 78.3984 36.3641ZM78.3984 36.3641L78.3428 36.4136" stroke="black" stroke-width="0.208333"/>
<path d="M51.934 33.8335L81.3789 50.7496L49.6112 69.1248L19.9294 51.9834L51.934 33.8335Z" fill="#5A3E87" stroke="#BB99EB" stroke-width="0.625"/>
<path fill-rule="evenodd" clip-rule="evenodd" d="M51.9894 33.505V68.1102L49.6113 69.4858L19.3003 51.9809L51.935 33.4737L51.9894 33.505Z" fill="#461C88"/>
<path d="M49.6113 69.4858L51.9894 68.1102V67.3829L51.3644 67.7497L49.6111 68.7639L20.5585 51.9859L51.3644 34.5158L51.935 34.1908L51.9894 34.2279V33.505L51.935 33.4737L19.3003 51.9809L49.6113 69.4858Z" fill="#D3B5FF"/>
<path d="M81.8178 50.6525L81.8575 50.7135L49.6113 69.3655L19.4377 51.9368L19.4831 51.8834L51.9347 33.5935L81.8178 50.6525Z" stroke="#273340" stroke-width="0.208333"/>
<mask id="mask1_28523_248395" style="mask-type:alpha" maskUnits="userSpaceOnUse" x="3" y="4" width="94" height="65">
<path d="M80.6976 50.7293L49.7248 68.8047L20.5407 51.9836L3.32786 4.17428L49.7248 4.17428L96.8986 4.17429L80.6976 50.7293Z" fill="#5A3E87"/>
</mask>
<g mask="url(#mask1_28523_248395)">
<path d="M63.125 71.4583L86.0417 8.12498H13.9583L36.875 71.4583L50 71.4583L63.125 71.4583Z" fill="url(#paint0_linear_28523_248395)"/>
</g>
<g clip-path="url(#clip1_28523_248395)">
<g clip-path="url(#clip2_28523_248395)">
<path d="M60.9731 14.7205L64.1402 16.2917L60.7044 19.3499L60.9731 14.7205ZM62.0299 13.5176L64.4265 14.7463L64.3858 15.8901L61.2717 14.3014L62.0299 13.5176ZM60.8882 14.0743L59.3844 12.3238L60.788 12.0773L61.6926 13.3221L60.8882 14.0743ZM59.1525 12.7859L60.5539 14.4934L60.5897 19.2576L59.1525 12.7859ZM64.5981 16.513L66.7261 16.4869L60.8351 19.3534L64.5981 16.513ZM64.798 16.0265L64.814 14.8082L66.203 14.75L66.7453 16.0086L64.798 16.0265ZM62.2294 13.0319L61.8713 12.7186L61.315 11.8969L62.388 12.0261L65.3564 13.5155L66.0691 14.3442L64.9925 14.3288L64.6651 14.254L62.2294 13.0319Z" fill="#D3B5FF"/>
</g>
<path d="M61.7413 9.34357L62.0104 10.2914" stroke="#D3B5FF" stroke-width="0.625" stroke-linecap="round"/>
<path d="M65.0342 9.94843L64.6169 10.8822" stroke="#D3B5FF" stroke-width="0.625" stroke-linecap="round"/>
<path d="M67.6416 12.0146L66.8286 12.494" stroke="#D3B5FF" stroke-width="0.625" stroke-linecap="round"/>
</g>
<path d="M19.5071 51.9809L49.6107 69.4809V96.5149L19.5071 79.0149V51.9809Z" fill="#7936E5"/>
<mask id="mask2_28523_248395" style="mask-type:alpha" maskUnits="userSpaceOnUse" x="19" y="51" width="31" height="46">
<path d="M19.5071 51.9809L49.6095 69.4809V96.5149L19.5071 79.0149V51.9809Z" fill="#D9D9D9"/>
</mask>
<g mask="url(#mask2_28523_248395)">
<rect x="29.6619" y="49.7055" width="6.40448" height="47.8529" fill="#D3B5FF"/>
</g>
<path d="M82.0056 50.749L49.6113 69.4809V96.5149L82.0056 77.7649V50.749Z" fill="#8D62D3"/>
<mask id="mask3_28523_248395" style="mask-type:alpha" maskUnits="userSpaceOnUse" x="49" y="50" width="34" height="47">
<path d="M82.0056 50.7474L49.6113 69.4809V96.5149L82.0056 77.7649V50.7474Z" fill="#5860EA"/>
</mask>
<g mask="url(#mask3_28523_248395)">
<rect x="63.6137" y="54.9018" width="6.40448" height="47.8529" fill="#D3B5FF"/>
</g>
<mask id="mask4_28523_248395" style="mask-type:alpha" maskUnits="userSpaceOnUse" x="20" y="34" width="61" height="35">
<path d="M51.9291 34.5539L80.1282 50.7509L49.603 68.403L21.1959 51.982L51.9291 34.5539Z" fill="#5A3E87" stroke="#BB99EB" stroke-width="0.625"/>
</mask>
<g mask="url(#mask4_28523_248395)">
<g filter="url(#filter0_f_28523_248395)">
<ellipse cx="50.6512" cy="58.5437" rx="29.375" ry="8.75" fill="#FFE600"/>
</g>
</g>
<path d="M40.9345 82.0973L9.87367 63.0467L19.437 51.9368L49.5814 69.3466L40.9345 82.0973Z" fill="#9050ED" stroke="#273340" stroke-width="0.208333"/>
<path d="M89.6744 62.8361L58.2669 81.7899L49.649 69.346L81.8571 50.7156L89.6744 62.8361Z" fill="#B481FE" stroke="#273340" stroke-width="0.208333"/>
<path d="M61.2969 52.0355C51.4212 55.602 50.1401 64.1467 50.794 68.089L54.6981 65.8207C54.0784 59.9434 56.6984 55.1552 61.2969 52.0355Z" fill="#F2FEFE"/>
<path d="M78.2934 61.6051C80.7682 70.2255 85.7432 76.0355 90.787 73.6669C83.0457 79.5236 77.5671 75.6262 74.4418 64.1295C71.6048 55.2 67.5586 51.4794 60.2632 52.4406C69.0877 46.9846 75.6043 52.238 78.2934 61.6051Z" fill="#FCE502"/>
<path d="M96.076 50.9025L91.95 53.1948C94.2964 56.3955 96.076 67.4121 89.302 74.4515C100.945 68.881 98.0818 55.5443 96.076 50.9025Z" fill="#F2FEFE"/>
<path fill-rule="evenodd" clip-rule="evenodd" d="M53.1373 52.0924L56.0667 50.0101L56.0654 50.0113C56.2021 49.9249 56.337 49.836 56.4694 49.7428L56.5221 49.7048C56.5049 49.7177 56.4872 49.7306 56.4694 49.7428L53.5946 51.7865C53.4438 51.895 53.2911 51.9955 53.1373 52.0924ZM38.9808 45.4233C33.835 39.0987 33.6658 30.5135 38.602 26.2454L38.6038 26.2441C38.827 26.0517 39.055 25.8708 39.2904 25.7029L36.3886 27.7661C36.1434 27.9396 35.9068 28.1272 35.6745 28.327C30.7376 32.5951 30.9068 41.1803 36.0533 47.5043C36.1593 47.6367 36.2672 47.7654 36.3769 47.8929C37.6868 49.4186 39.1763 50.6531 40.7511 51.5787C44.891 54.014 49.6054 54.3058 53.1373 52.0924L56.0667 50.0101C52.5366 52.2223 47.8216 51.9324 43.6792 49.4977C42.1057 48.5727 40.615 47.3369 39.3051 45.8113C39.1953 45.6844 39.0875 45.5557 38.9808 45.4233Z" fill="#FFB506"/>
<mask id="mask5_28523_248395" style="mask-type:alpha" maskUnits="userSpaceOnUse" x="32" y="25" width="25" height="29">
<path fill-rule="evenodd" clip-rule="evenodd" d="M53.1378 52.0924L56.0672 50.0101L56.066 50.0107C56.2026 49.9243 56.3375 49.8354 56.4699 49.7422L56.5226 49.7048C56.5055 49.7177 56.4877 49.73 56.4699 49.7422L53.5951 51.7859C53.4443 51.8944 53.2917 51.9955 53.1378 52.0924ZM38.9813 45.4226C33.8355 39.0987 33.6663 30.5135 38.6025 26.2454L38.6044 26.2441C38.8275 26.0517 39.0555 25.8708 39.2909 25.7029L36.3891 27.7655C36.1439 27.939 35.9073 28.1266 35.675 28.3264C30.7381 32.5945 30.9073 41.1797 36.0532 47.5043C36.1598 47.6367 36.2677 47.7654 36.3774 47.8923C37.6874 49.418 39.1775 50.6525 40.7516 51.5787C44.8916 54.0134 49.6059 54.3052 53.1378 52.0924L56.0666 50.0095C52.5365 52.2217 47.8222 51.9324 43.6797 49.497C42.1062 48.5727 40.6155 47.3369 39.3056 45.8113C39.1959 45.6838 39.088 45.555 38.9813 45.4226Z" fill="#85FA4D"/>
</mask>
<g mask="url(#mask5_28523_248395)">
<path d="M53.855 27.5871L32.1228 49.0208L19.0642 35.9106L40.7957 14.4764L53.855 27.5871Z" fill="#040809"/>
<path d="M52.7261 27.1145L30.9939 48.5482L30.3442 47.8954L52.0757 26.4617L52.7261 27.1145Z" fill="#FFB506"/>
</g>
<path d="M39.2242 25.5765C44.6238 21.7381 52.8707 24.1072 57.6549 30.7739C62.439 37.4405 62.0159 45.9736 56.6165 49.812C51.2175 53.6504 42.9707 51.2819 38.1864 44.6153C33.4022 37.9481 33.8252 29.4149 39.2242 25.5765Z" fill="#FFE34F" stroke="#040809" stroke-width="0.318402"/>
<path d="M39.2235 25.5779L39.2045 25.5914L36.3058 27.6522C36.057 27.8281 35.8161 28.0188 35.5813 28.2211C30.5666 32.5572 30.7664 41.2344 35.9417 47.5951C36.0496 47.7287 36.1587 47.8587 36.2684 47.9868C37.5888 49.5241 39.0899 50.7691 40.6787 51.7026C44.8524 54.1575 49.6256 54.4628 53.2133 52.2144M39.2235 25.5779C44.6226 21.7395 52.8694 24.1087 57.6536 30.7753C62.4377 37.4419 62.0146 45.975 56.6153 49.8134C56.6122 49.8159 56.6085 49.8183 56.6048 49.8214L56.6055 49.8226C56.5877 49.8349 56.5699 49.8478 56.5521 49.8606L53.6773 51.9037C53.5241 52.014 53.369 52.1164 53.2133 52.2144M39.2235 25.5779L39.3063 25.6938M53.2133 52.2144V52.2138" stroke="black" stroke-width="0.318402"/>
<path d="M41.7572 36.825C41.6662 37.33 41.9166 37.9226 42.4551 38.2181C42.7242 38.3705 42.7025 38.3654 42.9492 38.4994C43.3816 38.7344 43.4067 38.4256 43.6547 37.9061C44.266 36.6292 46.0719 35.5307 46.445 35.4969C47.4271 35.4078 46.2445 35.1652 46.5865 33.2738C46.6747 32.7883 46.8837 32.2344 47.1342 31.9249C47.3303 31.6823 47.4976 31.4502 46.9676 31.1692C45.9136 30.6091 44.9 31.0304 44.6893 32.1922C44.5576 32.9214 44.7751 33.7535 45.2137 34.4207C45.1101 34.3897 45.0047 34.3592 44.8871 34.3289C43.4116 33.9898 42.0399 35.2635 41.7572 36.825ZM44.3471 39.4399C44.2638 39.9251 44.3623 40.5111 45.0917 40.9264C46.735 41.8612 51.3412 44.4957 52.1383 44.9423C53.0302 45.443 53.1475 44.9661 53.2312 44.5034C53.6349 42.2746 52.6424 39.5052 50.9285 37.8946C51.8158 37.87 52.3778 37.2052 52.565 36.1715C52.838 34.6626 51.9528 32.8037 50.5908 32.0273C49.229 31.2516 47.8993 31.8476 47.6258 33.3562C47.4388 34.3907 47.7164 35.5338 48.4296 36.4707C46.5062 36.0081 44.7275 37.2196 44.3471 39.4399Z" fill="#040809"/>
<path d="M38.7052 52.4855C48.5809 56.052 49.8621 64.5967 49.2081 68.539L45.304 66.2707C45.9237 60.3935 43.3037 55.6052 38.7052 52.4855Z" fill="#F2FEFE"/>
<path d="M21.7087 62.0551C19.2339 70.6755 14.259 76.4855 9.2151 74.1169C16.9564 79.9736 22.435 76.0762 25.5604 64.5795C28.3973 55.6501 32.4435 51.9294 39.739 52.8906C30.9145 47.4346 24.3979 52.6881 21.7087 62.0551Z" fill="#FCE502"/>
<path d="M3.92612 51.3525L8.05215 53.6447C5.70576 56.8455 3.92612 67.8621 10.7001 74.9015C-0.94285 69.3309 1.92038 55.9943 3.92612 51.3525Z" fill="#F2FEFE"/>
<path d="M15.8371 34.3717L15.7921 34.4251L15.0365 35.4199L23.2972 41.7358L24.0267 40.7637C24.1002 40.655 24.1113 40.4894 24.0347 40.2571C23.9584 40.0255 23.7996 39.7432 23.5598 39.4193C23.0806 38.7722 22.2894 37.9741 21.2323 37.1059C20.1204 36.1927 18.9667 35.4224 18.0014 34.9151C17.5186 34.6614 17.085 34.4746 16.7286 34.3684C16.5504 34.3152 16.3934 34.2828 16.2603 34.2716C16.1265 34.2604 16.0218 34.2711 15.9452 34.2999L15.945 34.3C15.8961 34.3182 15.8614 34.3429 15.8371 34.3717Z" fill="#8D62D3" stroke="#273340" stroke-width="0.15625"/>
<path d="M20.4022 38.1917L20.4021 38.1917C19.2903 37.2785 18.1367 36.5081 17.1714 36.0008C16.6886 35.7471 16.255 35.5604 15.8986 35.4541C15.7204 35.401 15.5633 35.3685 15.4302 35.3573C15.2964 35.3461 15.1916 35.3569 15.115 35.3857C15.0408 35.4136 14.9975 35.4565 14.9745 35.5108C14.9503 35.5679 14.9446 35.6469 14.9657 35.7518C15.0082 35.9627 15.1533 36.2484 15.3971 36.5912C15.8827 37.2739 16.7384 38.154 17.8508 39.0676C18.9627 39.9808 20.1164 40.7512 21.0817 41.2584C21.5645 41.5121 21.9981 41.6989 22.3545 41.8052C22.5326 41.8583 22.6897 41.8908 22.8228 41.9019C22.9566 41.9132 23.0613 41.9024 23.1379 41.8736C23.2121 41.8457 23.2554 41.8029 23.2785 41.7485C23.3026 41.6914 23.3084 41.6124 23.2872 41.5075C23.2447 41.2965 23.0997 41.0109 22.8559 40.6681C22.3703 39.9854 21.5146 39.1053 20.4022 38.1917Z" fill="#F3EBFF" stroke="#273340" stroke-width="0.15625"/>
<path fill-rule="evenodd" clip-rule="evenodd" d="M33.7074 9.09306L34.123 8.7012L34.1227 8.70136C34.1405 8.68273 34.1586 8.66446 34.1772 8.64668L34.1847 8.63962C34.1822 8.64202 34.1796 8.64431 34.1772 8.64668L33.7693 9.03134C33.7477 9.0514 33.7273 9.07213 33.7074 9.09306ZM34.3071 11.5069C35.1331 12.5055 36.466 12.7985 37.2846 12.1617L37.2849 12.1615C37.3218 12.1326 37.357 12.1028 37.3906 12.0712L36.9789 12.4595C36.9442 12.4923 36.9076 12.5234 36.8692 12.5534C36.0506 13.1902 34.7177 12.8971 33.8917 11.8986C33.8745 11.8779 33.8577 11.857 33.8413 11.836C33.6442 11.5844 33.4981 11.3139 33.4027 11.0397C33.1517 10.3187 33.2527 9.57483 33.7074 9.09315L34.123 8.70129C33.6685 9.18279 33.5672 9.92659 33.8181 10.648C33.9133 10.9219 34.0596 11.1927 34.2567 11.4443C34.2731 11.4653 34.2898 11.4861 34.3071 11.5069Z" fill="#FFB506"/>
<mask id="mask6_28523_248395" style="mask-type:alpha" maskUnits="userSpaceOnUse" x="33" y="8" width="5" height="5">
<path fill-rule="evenodd" clip-rule="evenodd" d="M33.7075 9.09341L34.1233 8.70148L34.1231 8.70165C34.1408 8.68292 34.1588 8.66465 34.1775 8.64697L34.185 8.63981C34.1825 8.6422 34.18 8.64458 34.1775 8.64697L33.7695 9.03167C33.7479 9.05174 33.7274 9.07238 33.7075 9.09341ZM34.3068 11.5068C35.1327 12.5052 36.4657 12.798 37.2846 12.1609L37.2849 12.1608C37.3218 12.132 37.3571 12.102 37.3906 12.0705L36.9788 12.4588C36.9441 12.4917 36.9075 12.5227 36.8691 12.5527C36.0502 13.1897 34.7172 12.8969 33.8913 11.8987C33.874 11.8779 33.8573 11.8571 33.8408 11.836C33.6438 11.5845 33.4977 11.314 33.4023 11.0399C33.1515 10.319 33.2526 9.57513 33.7075 9.09341L34.1233 8.70148C33.6686 9.18304 33.5671 9.9269 33.8178 10.6481C33.913 10.9221 34.0593 11.1927 34.2564 11.4443C34.2729 11.4653 34.2895 11.4861 34.3068 11.5068Z" fill="#85FA4D"/>
</mask>
<g mask="url(#mask6_28523_248395)">
<path d="M37.5501 9.74277L33.5331 12.4646L35.1705 14.9067L39.1875 12.1848L37.5501 9.74277Z" fill="#040809"/>
<path d="M37.5883 9.93327L33.5715 12.6548L33.6531 12.7763L37.6698 10.0548L37.5883 9.93327Z" fill="#FFB506"/>
</g>
<path d="M37.4082 12.0855C38.1743 11.3631 38.0612 10.0041 37.1707 9.05125C36.2802 8.09839 34.937 7.89922 34.1709 8.62156C33.4049 9.34388 33.5179 10.7029 34.4084 11.6558C35.2989 12.6086 36.6421 12.8078 37.4082 12.0855Z" fill="#FFE34F" stroke="#040809" stroke-width="0.0631776"/>
<path d="M37.408 12.0856L37.4054 12.0881L37.4054 12.0882L36.9941 12.4759C36.9588 12.5093 36.9217 12.5408 36.8829 12.5712C36.0513 13.2181 34.7049 12.9174 33.8742 11.9131C33.8567 11.8922 33.8399 11.8711 33.8233 11.85C33.6247 11.5964 33.4773 11.3237 33.3812 11.0472C33.1281 10.3203 33.2289 9.56687 33.6908 9.07747C33.7109 9.05628 33.7317 9.03523 33.7536 9.01474C33.7537 9.01472 33.7537 9.01472 33.7537 9.01462L34.1614 8.63013C34.1639 8.62774 34.1665 8.62532 34.169 8.62292L34.1692 8.6231C34.1697 8.62264 34.1702 8.62218 34.1707 8.62172C34.9368 7.89939 36.28 8.09857 37.1705 9.05142C38.061 10.0043 38.1741 11.3633 37.408 12.0856ZM37.408 12.0856L37.3926 12.0691" stroke="black" stroke-width="0.0631776"/>
<path d="M15.1615 8.829C15.233 8.51014 15.6874 8.51014 15.759 8.829L16.0494 10.1241C16.0729 10.2291 16.1498 10.314 16.2519 10.3478L17.1043 10.6297C17.3842 10.7224 17.3842 11.1184 17.1043 11.211L16.2491 11.4939C16.1485 11.5272 16.0723 11.6102 16.0476 11.7132L15.7579 12.9216C15.6829 13.2347 15.2376 13.2347 15.1625 12.9216L14.8729 11.7132C14.8482 11.6102 14.7719 11.5272 14.6713 11.4939L13.8162 11.211C13.5362 11.1184 13.5362 10.7224 13.8162 10.6297L14.6685 10.3478C14.7707 10.314 14.8476 10.2291 14.8711 10.1241L15.1615 8.829Z" fill="#8D62D3"/>
<path d="M95.0955 26.7939C95.167 26.475 95.6214 26.475 95.6929 26.7939L95.9833 28.089C96.0068 28.194 96.0837 28.2789 96.1859 28.3127L97.0382 28.5946C97.3182 28.6873 97.3182 29.0833 97.0382 29.1759L96.1831 29.4588C96.0825 29.4921 96.0062 29.5751 95.9815 29.6781L95.6919 30.8865C95.6168 31.1996 95.1715 31.1996 95.0965 30.8865L94.8068 29.6781C94.7821 29.5751 94.7059 29.4921 94.6053 29.4588L93.7501 29.1759C93.4702 29.0833 93.4702 28.6873 93.7501 28.5946L94.6025 28.3127C94.7046 28.2789 94.7815 28.194 94.805 28.089L95.0955 26.7939Z" fill="#8D62D3"/>
<path d="M4.43427 27.5951C4.4879 27.356 4.82872 27.356 4.88235 27.5951L5.10017 28.5664C5.11782 28.6452 5.17549 28.7088 5.25209 28.7342L5.89133 28.9457C6.10131 29.0151 6.10131 29.3121 5.89133 29.3816L5.24999 29.5938C5.17453 29.6188 5.11735 29.681 5.09883 29.7583L4.88159 30.6646C4.82531 30.8994 4.49131 30.8993 4.43503 30.6646L4.21779 29.7583C4.19927 29.681 4.14209 29.6188 4.06663 29.5938L3.42529 29.3816C3.21531 29.3121 3.21531 29.0151 3.42529 28.9457L4.06453 28.7342C4.14113 28.7088 4.1988 28.6452 4.21645 28.5664L4.43427 27.5951Z" fill="#D3B5FF"/>
<path d="M81.7843 4.74904C81.838 4.50989 82.1788 4.50989 82.2324 4.74904L82.4502 5.72036C82.4679 5.79908 82.5256 5.86276 82.6022 5.8881L83.2414 6.09959C83.4514 6.16906 83.4514 6.46608 83.2414 6.53555L82.6001 6.74773C82.5246 6.77269 82.4674 6.8349 82.4489 6.91219L82.2317 7.81851C82.1754 8.05328 81.8414 8.05328 81.7851 7.8185L81.5679 6.91219C81.5493 6.8349 81.4922 6.77269 81.4167 6.74773L80.7754 6.53555C80.5654 6.46608 80.5654 6.16906 80.7754 6.09959L81.4146 5.8881C81.4912 5.86276 81.5489 5.79908 81.5665 5.72036L81.7843 4.74904Z" fill="#D3B5FF"/>
</g>
<defs>
<filter id="filter0_f_28523_248395" x="-3.72376" y="24.7937" width="108.75" height="67.5" filterUnits="userSpaceOnUse" color-interpolation-filters="sRGB">
<feFlood flood-opacity="0" result="BackgroundImageFix"/>
<feBlend mode="normal" in="SourceGraphic" in2="BackgroundImageFix" result="shape"/>
<feGaussianBlur stdDeviation="12.5" result="effect1_foregroundBlur_28523_248395"/>
</filter>
<linearGradient id="paint0_linear_28523_248395" x1="50.2083" y1="71.0417" x2="50.2083" y2="16.842" gradientUnits="userSpaceOnUse">
<stop stop-color="#FFC700" stop-opacity="0.4"/>
<stop offset="1" stop-color="#FFC700" stop-opacity="0"/>
</linearGradient>
<clipPath id="clip0_28523_248395">
<rect width="95.8333" height="92.5" fill="white" transform="translate(2.08334 3.75)"/>
</clipPath>
<clipPath id="clip1_28523_248395">
<rect width="11.6667" height="11.6667" fill="white" transform="translate(57.6674 8.54169)"/>
</clipPath>
<clipPath id="clip2_28523_248395">
<rect width="9.62567" height="9.62567" fill="white" transform="translate(60.0944 9.5755) rotate(26.644)"/>
</clipPath>
</defs>
</svg>
