<svg width="224" height="77" viewBox="0 0 224 77" fill="none" xmlns="http://www.w3.org/2000/svg">
<g filter="url(#filter0_d_28523_248391)">
<path d="M9.792 4.536L5.824 27H0.352L4.32 4.536H9.792ZM23.8375 8.952C25.6295 8.952 27.0375 9.45333 28.0615 10.456C29.0855 11.4587 29.5975 12.856 29.5975 14.648C29.5975 15.2453 29.5335 15.8853 29.4055 16.568L27.5495 27H22.1095L23.8375 17.304C23.9015 16.9413 23.9335 16.6213 23.9335 16.344C23.9335 15.448 23.6775 14.7547 23.1655 14.264C22.6748 13.7733 21.9815 13.528 21.0855 13.528C20.0188 13.528 19.1228 13.8587 18.3975 14.52C17.6722 15.1813 17.2028 16.1093 16.9895 17.304V17.144L15.2615 27H9.7895L12.9255 9.144H18.3975L17.9815 11.544C18.6855 10.7547 19.5388 10.1253 20.5415 9.656C21.5655 9.18667 22.6642 8.952 23.8375 8.952ZM40.28 21.88L46.424 9.144H52.28L42.776 27H35.992L32.824 9.144H38.648L40.28 21.88ZM57.6233 7.288C56.7699 7.288 56.0873 7.064 55.5753 6.616C55.0846 6.14667 54.8393 5.56 54.8393 4.856C54.8393 3.896 55.2126 3.07467 55.9593 2.392C56.7059 1.70933 57.6126 1.368 58.6793 1.368C59.5326 1.368 60.2046 1.60266 60.6953 2.072C61.1859 2.52 61.4313 3.10667 61.4313 3.832C61.4313 4.77067 61.0579 5.58133 60.3113 6.264C59.5646 6.94667 58.6686 7.288 57.6233 7.288ZM59.9913 9.144L56.8553 27H51.3833L54.5193 9.144H59.9913ZM68.2448 20.856C68.2234 20.9627 68.2128 21.1013 68.2128 21.272C68.2128 21.656 68.3194 21.9333 68.5328 22.104C68.7674 22.2747 69.1408 22.36 69.6528 22.36H71.6048L70.7728 27H67.9888C64.4048 27 62.6128 25.496 62.6128 22.488C62.6128 22.04 62.6661 21.4747 62.7728 20.792L64.0528 13.688H61.8768L62.6768 9.144H64.8528L65.6208 4.792H71.0928L70.3248 9.144H73.9088L73.1088 13.688H69.5248L68.2448 20.856ZM84.9568 8.888C87.2608 8.888 89.0848 9.51733 90.4288 10.776C91.7941 12.0133 92.4768 13.7093 92.4768 15.864C92.4768 16.568 92.4234 17.1973 92.3168 17.752C92.2314 18.2427 92.1034 18.7653 91.9328 19.32H79.5488C79.5274 19.448 79.5168 19.6507 79.5168 19.928C79.5168 20.8667 79.7728 21.5813 80.2848 22.072C80.7968 22.5627 81.4794 22.808 82.3328 22.808C83.6981 22.808 84.7434 22.232 85.4688 21.08H91.2928C90.5248 22.8933 89.2768 24.376 87.5488 25.528C85.8208 26.68 83.8794 27.256 81.7248 27.256C79.4208 27.256 77.5754 26.616 76.1888 25.336C74.8234 24.056 74.1408 22.3173 74.1408 20.12C74.1408 19.4587 74.2048 18.776 74.3328 18.072C74.6528 16.216 75.3141 14.5947 76.3168 13.208C77.3194 11.8213 78.5674 10.7547 80.0608 10.008C81.5541 9.26133 83.1861 8.888 84.9568 8.888ZM86.9408 16.536C86.9834 16.2373 87.0048 16.0347 87.0048 15.928C87.0048 15.0747 86.7381 14.424 86.2048 13.976C85.6714 13.5067 84.9674 13.272 84.0928 13.272C83.1541 13.272 82.3221 13.56 81.5968 14.136C80.8928 14.6907 80.3808 15.4907 80.0608 16.536H86.9408ZM119.538 4.536L118.77 8.856H109.618L108.786 13.688H115.634L114.866 17.848H108.018L106.418 27H100.946L104.914 4.536H119.538ZM126.478 12.376C127.31 11.3093 128.259 10.4773 129.326 9.88C130.414 9.26133 131.544 8.952 132.718 8.952L131.694 14.744H130.19C128.824 14.744 127.747 15.0427 126.958 15.64C126.168 16.216 125.646 17.24 125.39 18.712L123.918 27H118.446L121.582 9.144H127.054L126.478 12.376ZM138.373 7.288C137.52 7.288 136.837 7.064 136.325 6.616C135.835 6.14667 135.589 5.56 135.589 4.856C135.589 3.896 135.963 3.07467 136.709 2.392C137.456 1.70933 138.363 1.368 139.429 1.368C140.283 1.368 140.955 1.60266 141.445 2.072C141.936 2.52 142.181 3.10667 142.181 3.832C142.181 4.77067 141.808 5.58133 141.061 6.264C140.315 6.94667 139.419 7.288 138.373 7.288ZM140.741 9.144L137.605 27H132.133L135.269 9.144H140.741ZM152.707 8.888C155.011 8.888 156.835 9.51733 158.179 10.776C159.544 12.0133 160.227 13.7093 160.227 15.864C160.227 16.568 160.173 17.1973 160.067 17.752C159.981 18.2427 159.853 18.7653 159.683 19.32H147.299C147.277 19.448 147.267 19.6507 147.267 19.928C147.267 20.8667 147.523 21.5813 148.035 22.072C148.547 22.5627 149.229 22.808 150.083 22.808C151.448 22.808 152.493 22.232 153.219 21.08H159.043C158.275 22.8933 157.027 24.376 155.299 25.528C153.571 26.68 151.629 27.256 149.475 27.256C147.171 27.256 145.325 26.616 143.939 25.336C142.573 24.056 141.891 22.3173 141.891 20.12C141.891 19.4587 141.955 18.776 142.083 18.072C142.403 16.216 143.064 14.5947 144.067 13.208C145.069 11.8213 146.317 10.7547 147.811 10.008C149.304 9.26133 150.936 8.888 152.707 8.888ZM154.691 16.536C154.733 16.2373 154.755 16.0347 154.755 15.928C154.755 15.0747 154.488 14.424 153.955 13.976C153.421 13.5067 152.717 13.272 151.843 13.272C150.904 13.272 150.072 13.56 149.347 14.136C148.643 14.6907 148.131 15.4907 147.811 16.536H154.691ZM175.338 8.952C177.13 8.952 178.538 9.45333 179.562 10.456C180.586 11.4587 181.098 12.856 181.098 14.648C181.098 15.2453 181.034 15.8853 180.906 16.568L179.05 27H173.61L175.338 17.304C175.402 16.9413 175.434 16.6213 175.434 16.344C175.434 15.448 175.178 14.7547 174.666 14.264C174.175 13.7733 173.482 13.528 172.586 13.528C171.519 13.528 170.623 13.8587 169.898 14.52C169.172 15.1813 168.703 16.1093 168.49 17.304V17.144L166.762 27H161.29L164.426 9.144H169.898L169.482 11.544C170.186 10.7547 171.039 10.1253 172.042 9.656C173.066 9.18667 174.164 8.952 175.338 8.952ZM183.364 18.04C183.684 16.2053 184.313 14.5947 185.252 13.208C186.191 11.8213 187.321 10.7547 188.644 10.008C189.967 9.26133 191.364 8.888 192.836 8.888C194.009 8.888 195.033 9.13333 195.908 9.624C196.804 10.1147 197.455 10.776 197.86 11.608L199.332 3.32H204.804L200.612 27H195.14L195.588 24.44C194.905 25.2933 194.052 25.976 193.028 26.488C192.004 27 190.863 27.256 189.604 27.256C188.345 27.256 187.225 26.968 186.244 26.392C185.284 25.816 184.527 24.9947 183.972 23.928C183.439 22.8613 183.172 21.6133 183.172 20.184C183.172 19.5227 183.236 18.808 183.364 18.04ZM196.74 18.072C196.804 17.688 196.836 17.336 196.836 17.016C196.836 15.9707 196.527 15.1493 195.908 14.552C195.311 13.9547 194.543 13.656 193.604 13.656C192.516 13.656 191.524 14.0507 190.628 14.84C189.732 15.608 189.167 16.6747 188.932 18.04C188.868 18.424 188.836 18.776 188.836 19.096C188.836 20.1413 189.135 20.9733 189.732 21.592C190.351 22.1893 191.119 22.488 192.036 22.488C193.124 22.488 194.116 22.0933 195.012 21.304C195.908 20.5147 196.484 19.4373 196.74 18.072ZM211.995 27.256C210.587 27.256 209.317 27.032 208.187 26.584C207.077 26.136 206.203 25.5173 205.563 24.728C204.923 23.9173 204.603 22.9893 204.603 21.944C204.603 21.7947 204.624 21.528 204.667 21.144H209.947C209.904 21.8053 210.096 22.3387 210.523 22.744C210.971 23.128 211.6 23.32 212.411 23.32C213.093 23.32 213.659 23.192 214.107 22.936C214.555 22.68 214.779 22.3173 214.779 21.848C214.779 21.4 214.533 21.048 214.043 20.792C213.573 20.5147 212.784 20.184 211.675 19.8C210.523 19.416 209.552 19.0427 208.763 18.68C207.995 18.296 207.333 17.752 206.779 17.048C206.224 16.344 205.947 15.4587 205.947 14.392C205.947 13.3467 206.256 12.408 206.875 11.576C207.493 10.7227 208.357 10.0613 209.467 9.592C210.597 9.12267 211.899 8.888 213.371 8.888C214.843 8.888 216.123 9.13333 217.211 9.624C218.299 10.0933 219.141 10.7547 219.739 11.608C220.336 12.4613 220.635 13.4213 220.635 14.488L220.603 14.968H215.643C215.685 14.328 215.493 13.816 215.067 13.432C214.64 13.048 214.032 12.856 213.243 12.856C212.624 12.856 212.112 12.984 211.707 13.24C211.323 13.496 211.131 13.848 211.131 14.296C211.131 14.7653 211.387 15.16 211.899 15.48C212.432 15.7787 213.253 16.12 214.363 16.504C215.515 16.888 216.464 17.272 217.211 17.656C217.979 18.0187 218.629 18.5413 219.163 19.224C219.717 19.8853 219.995 20.7173 219.995 21.72C219.995 22.872 219.643 23.864 218.939 24.696C218.256 25.528 217.307 26.168 216.091 26.616C214.896 27.0427 213.531 27.256 211.995 27.256Z" fill="white"/>
</g>
<g filter="url(#filter1_d_28523_248391)">
<path d="M4.22 65.58C4.20667 65.66 4.2 65.7667 4.2 65.9C4.2 66.1667 4.27333 66.36 4.42 66.48C4.58 66.5867 4.84 66.64 5.2 66.64H6.52L6.1 69H4.32C2.32 69 1.32 68.1667 1.32 66.5C1.32 66.18 1.34667 65.8667 1.4 65.56L2.34 60.22H1.02L1.42 57.92H2.76L3.24 55.18H6.06L5.58 57.92H8.04L7.64 60.22H5.16L4.22 65.58ZM13.0539 69.18C12.1072 69.18 11.2672 68.9867 10.5339 68.6C9.81391 68.2133 9.25391 67.6667 8.85391 66.96C8.45391 66.2533 8.25391 65.44 8.25391 64.52C8.25391 63.2667 8.54724 62.1267 9.13391 61.1C9.73391 60.06 10.5472 59.24 11.5739 58.64C12.6139 58.04 13.7672 57.74 15.0339 57.74C15.9806 57.74 16.8206 57.94 17.5539 58.34C18.3006 58.7267 18.8739 59.2733 19.2739 59.98C19.6872 60.6867 19.8939 61.5 19.8939 62.42C19.8939 63.6867 19.5939 64.8333 18.9939 65.86C18.3939 66.8867 17.5672 67.7 16.5139 68.3C15.4739 68.8867 14.3206 69.18 13.0539 69.18ZM13.4339 66.78C14.1006 66.78 14.7072 66.5867 15.2539 66.2C15.8006 65.8133 16.2272 65.3 16.5339 64.66C16.8406 64.02 16.9939 63.3467 16.9939 62.64C16.9939 61.84 16.7672 61.2267 16.3139 60.8C15.8739 60.36 15.3139 60.14 14.6339 60.14C13.9539 60.14 13.3472 60.3333 12.8139 60.72C12.2939 61.1067 11.8872 61.6267 11.5939 62.28C11.3006 62.92 11.1539 63.6 11.1539 64.32C11.1539 65.1067 11.3606 65.7133 11.7739 66.14C12.2006 66.5667 12.7539 66.78 13.4339 66.78ZM31.4994 69.14C30.0994 69.14 28.946 68.8267 28.0394 68.2C27.146 67.56 26.6994 66.6667 26.6994 65.52C26.6994 65.4 26.7127 65.22 26.7394 64.98H29.5994C29.546 65.54 29.6927 66 30.0394 66.36C30.3994 66.72 30.9194 66.9 31.5994 66.9C32.2794 66.9 32.8127 66.76 33.1994 66.48C33.5994 66.1867 33.7994 65.7733 33.7994 65.24C33.7994 64.7467 33.5927 64.3533 33.1794 64.06C32.7794 63.7667 32.146 63.44 31.2794 63.08C30.4794 62.7467 29.826 62.44 29.3194 62.16C28.826 61.88 28.3994 61.4933 28.0394 61C27.6927 60.4933 27.5194 59.86 27.5194 59.1C27.5194 58.2333 27.7394 57.48 28.1794 56.84C28.6327 56.2 29.246 55.7067 30.0194 55.36C30.806 55.0133 31.6994 54.84 32.6994 54.84C33.686 54.84 34.5394 55.0067 35.2594 55.34C35.9927 55.66 36.5394 56.12 36.8994 56.72C37.2727 57.32 37.4327 58.02 37.3794 58.82H34.3994L34.4194 58.6C34.4194 58.16 34.2527 57.8 33.9194 57.52C33.5994 57.24 33.146 57.1 32.5594 57.1C31.9327 57.1 31.426 57.2467 31.0394 57.54C30.6527 57.8333 30.4594 58.2333 30.4594 58.74C30.4594 59.0733 30.566 59.3667 30.7794 59.62C31.006 59.86 31.2794 60.0733 31.5994 60.26C31.9194 60.4333 32.3794 60.66 32.9794 60.94C33.766 61.2867 34.4127 61.6133 34.9194 61.92C35.426 62.2267 35.8594 62.6333 36.2194 63.14C36.5794 63.6467 36.7594 64.2667 36.7594 65C36.7594 65.8 36.5394 66.5133 36.0994 67.14C35.6727 67.7667 35.0594 68.26 34.2594 68.62C33.4727 68.9667 32.5527 69.14 31.4994 69.14ZM38.6864 63.46C38.8864 62.3133 39.2931 61.3133 39.9064 60.46C40.5197 59.5933 41.2797 58.9267 42.1864 58.46C43.1064 57.98 44.0997 57.74 45.1664 57.74C46.5397 57.74 47.6131 58.08 48.3864 58.76C49.1731 59.44 49.6131 60.4067 49.7064 61.66H46.6864C46.6064 61.18 46.3997 60.8067 46.0664 60.54C45.7331 60.26 45.2864 60.12 44.7264 60.12C43.9264 60.12 43.2397 60.4133 42.6664 61C42.1064 61.5733 41.7331 62.3933 41.5464 63.46C41.4797 63.8333 41.4464 64.1533 41.4464 64.42C41.4464 65.18 41.6331 65.7667 42.0064 66.18C42.3797 66.58 42.8997 66.78 43.5664 66.78C44.6864 66.78 45.5131 66.2733 46.0464 65.26H49.0664C48.5464 66.46 47.7664 67.4133 46.7264 68.12C45.6997 68.8267 44.5131 69.18 43.1664 69.18C41.7664 69.18 40.6464 68.7867 39.8064 68C38.9797 67.2 38.5664 66.12 38.5664 64.76C38.5664 64.3467 38.6064 63.9133 38.6864 63.46ZM58.6777 57.76C59.771 57.76 60.6377 58.0733 61.2777 58.7C61.931 59.3267 62.2577 60.2067 62.2577 61.34C62.2577 61.7667 62.2243 62.1533 62.1577 62.5L60.9977 69H58.2177L59.2977 62.88C59.3377 62.64 59.3577 62.4067 59.3577 62.18C59.3577 61.5133 59.1777 61.0067 58.8177 60.66C58.471 60.3133 57.971 60.14 57.3177 60.14C56.571 60.14 55.9377 60.3667 55.4177 60.82C54.8977 61.26 54.551 61.8933 54.3777 62.72L53.2577 69H50.4377L53.0577 54.2H55.8777L54.9777 59.28C55.431 58.8133 55.9777 58.4467 56.6177 58.18C57.271 57.9 57.9577 57.76 58.6777 57.76ZM68.1003 59.88C68.5803 59.2133 69.1403 58.6933 69.7803 58.32C70.4203 57.9467 71.1136 57.76 71.8603 57.76L71.3403 60.7H70.6003C69.7736 60.7 69.107 60.88 68.6003 61.24C68.107 61.6 67.747 62.2133 67.5203 63.08L66.4803 69H63.6603L65.6203 57.92H68.4403L68.1003 59.88ZM76.7063 69.18C75.7596 69.18 74.9196 68.9867 74.1863 68.6C73.4663 68.2133 72.9063 67.6667 72.5063 66.96C72.1063 66.2533 71.9063 65.44 71.9063 64.52C71.9063 63.2667 72.1996 62.1267 72.7863 61.1C73.3863 60.06 74.1996 59.24 75.2263 58.64C76.2663 58.04 77.4196 57.74 78.6863 57.74C79.6329 57.74 80.4729 57.94 81.2063 58.34C81.9529 58.7267 82.5263 59.2733 82.9263 59.98C83.3396 60.6867 83.5463 61.5 83.5463 62.42C83.5463 63.6867 83.2463 64.8333 82.6463 65.86C82.0463 66.8867 81.2196 67.7 80.1663 68.3C79.1263 68.8867 77.9729 69.18 76.7063 69.18ZM77.0863 66.78C77.7529 66.78 78.3596 66.5867 78.9063 66.2C79.4529 65.8133 79.8796 65.3 80.1863 64.66C80.4929 64.02 80.6463 63.3467 80.6463 62.64C80.6463 61.84 80.4196 61.2267 79.9663 60.8C79.5263 60.36 78.9663 60.14 78.2863 60.14C77.6063 60.14 76.9996 60.3333 76.4663 60.72C75.9463 61.1067 75.5396 61.6267 75.2463 62.28C74.9529 62.92 74.8063 63.6 74.8063 64.32C74.8063 65.1067 75.0129 65.7133 75.4263 66.14C75.8529 66.5667 76.4063 66.78 77.0863 66.78ZM77.0863 56.42C76.7529 56.42 76.4796 56.32 76.2663 56.12C76.0529 55.9067 75.9463 55.6467 75.9463 55.34C75.9463 54.9133 76.1063 54.5467 76.4263 54.24C76.7463 53.92 77.1196 53.76 77.5463 53.76C77.8796 53.76 78.1463 53.8667 78.3463 54.08C78.5463 54.28 78.6463 54.54 78.6463 54.86C78.6463 55.2867 78.4863 55.6533 78.1663 55.96C77.8596 56.2667 77.4996 56.42 77.0863 56.42ZM80.7863 56.42C80.4529 56.42 80.1796 56.32 79.9663 56.12C79.7529 55.9067 79.6463 55.6467 79.6463 55.34C79.6463 54.9133 79.8063 54.5467 80.1263 54.24C80.4463 53.92 80.8196 53.76 81.2463 53.76C81.5796 53.76 81.8463 53.8667 82.0463 54.08C82.2463 54.28 82.3463 54.54 82.3463 54.86C82.3463 55.2867 82.1863 55.6533 81.8663 55.96C81.5596 56.2667 81.1996 56.42 80.7863 56.42ZM84.7802 63.42C84.9802 62.3 85.3735 61.3067 85.9602 60.44C86.5602 59.5733 87.2868 58.9067 88.1402 58.44C89.0068 57.9733 89.9135 57.74 90.8602 57.74C91.5802 57.74 92.2402 57.9 92.8402 58.22C93.4402 58.5267 93.8868 58.94 94.1802 59.46L95.1202 54.2H97.9402L95.3202 69H92.5002L92.8002 67.36C92.3602 67.9067 91.7935 68.3467 91.1002 68.68C90.4202 69.0133 89.6668 69.18 88.8402 69.18C88.0268 69.18 87.3002 69 86.6602 68.64C86.0335 68.2667 85.5402 67.7467 85.1802 67.08C84.8335 66.4 84.6602 65.6133 84.6602 64.72C84.6602 64.3067 84.7002 63.8733 84.7802 63.42ZM93.4802 63.46C93.5335 63.1133 93.5602 62.86 93.5602 62.7C93.5602 61.9133 93.3268 61.3 92.8602 60.86C92.4068 60.42 91.8335 60.2 91.1402 60.2C90.6202 60.2 90.1135 60.3267 89.6202 60.58C89.1402 60.8333 88.7202 61.2067 88.3602 61.7C88.0002 62.18 87.7602 62.7533 87.6402 63.42C87.6002 63.6733 87.5802 63.9133 87.5802 64.14C87.5802 64.94 87.8068 65.5733 88.2602 66.04C88.7135 66.4933 89.2868 66.72 89.9802 66.72C90.5002 66.72 91.0068 66.5933 91.5002 66.34C91.9935 66.0733 92.4135 65.6933 92.7602 65.2C93.1202 64.7067 93.3602 64.1267 93.4802 63.46ZM101.675 56.6C101.235 56.6 100.882 56.4733 100.615 56.22C100.348 55.9667 100.215 55.6467 100.215 55.26C100.215 54.7267 100.415 54.2733 100.815 53.9C101.228 53.5133 101.708 53.32 102.255 53.32C102.682 53.32 103.028 53.4467 103.295 53.7C103.562 53.9533 103.695 54.2733 103.695 54.66C103.695 55.1933 103.495 55.6533 103.095 56.04C102.695 56.4133 102.222 56.6 101.675 56.6ZM102.835 57.92L100.875 69H98.0548L100.015 57.92H102.835ZM111.741 57.76C112.888 57.76 113.788 58.0733 114.441 58.7C115.108 59.3133 115.441 60.1933 115.441 61.34C115.441 61.7667 115.408 62.1533 115.341 62.5L114.181 69H111.401L112.481 62.88C112.521 62.64 112.541 62.4067 112.541 62.18C112.541 61.5133 112.361 61.0067 112.001 60.66C111.655 60.3133 111.155 60.14 110.501 60.14C109.755 60.14 109.115 60.3667 108.581 60.82C108.061 61.26 107.715 61.9 107.541 62.74L106.441 69H103.621L105.581 57.92H108.401L108.161 59.28C108.615 58.8133 109.155 58.4467 109.781 58.18C110.408 57.9 111.061 57.76 111.741 57.76ZM123.184 57.74C124.011 57.74 124.711 57.9067 125.284 58.24C125.871 58.56 126.284 58.98 126.524 59.5L126.804 57.92H129.624L127.664 69.08C127.477 70.1067 127.104 71.02 126.544 71.82C125.984 72.6333 125.251 73.2733 124.344 73.74C123.437 74.22 122.397 74.46 121.224 74.46C119.664 74.46 118.444 74.0933 117.564 73.36C116.697 72.6267 116.304 71.6267 116.384 70.36H119.164C119.217 70.8667 119.457 71.2667 119.884 71.56C120.324 71.8667 120.891 72.02 121.584 72.02C122.411 72.02 123.111 71.7733 123.684 71.28C124.271 70.8 124.657 70.0667 124.844 69.08L125.144 67.36C124.691 67.88 124.117 68.3133 123.424 68.66C122.744 69.0067 121.997 69.18 121.184 69.18C120.371 69.18 119.644 69 119.004 68.64C118.377 68.2667 117.884 67.7467 117.524 67.08C117.177 66.4 117.004 65.6133 117.004 64.72C117.004 64.3067 117.044 63.8733 117.124 63.42C117.324 62.3 117.717 61.3067 118.304 60.44C118.904 59.5733 119.631 58.9067 120.484 58.44C121.337 57.9733 122.237 57.74 123.184 57.74ZM125.824 63.46C125.877 63.1133 125.904 62.86 125.904 62.7C125.904 61.9133 125.671 61.3 125.204 60.86C124.751 60.42 124.177 60.2 123.484 60.2C122.964 60.2 122.457 60.3267 121.964 60.58C121.484 60.8333 121.064 61.2067 120.704 61.7C120.344 62.18 120.104 62.7533 119.984 63.42C119.944 63.6733 119.924 63.9133 119.924 64.14C119.924 64.94 120.151 65.5733 120.604 66.04C121.057 66.4933 121.631 66.72 122.324 66.72C122.844 66.72 123.351 66.5933 123.844 66.34C124.337 66.0733 124.757 65.6933 125.104 65.2C125.464 64.7067 125.704 64.1267 125.824 63.46ZM137.239 57.74C138.652 57.74 139.772 58.1333 140.599 58.92C141.425 59.6933 141.839 60.74 141.839 62.06C141.839 62.4867 141.805 62.8667 141.739 63.2C141.659 63.6 141.572 63.9467 141.479 64.24H133.379C133.365 64.3333 133.359 64.4667 133.359 64.64C133.359 65.3333 133.559 65.88 133.959 66.28C134.372 66.6667 134.912 66.86 135.579 66.86C136.139 66.86 136.619 66.74 137.019 66.5C137.432 66.2467 137.765 65.92 138.019 65.52H141.039C140.545 66.5867 139.779 67.4667 138.739 68.16C137.712 68.84 136.545 69.18 135.239 69.18C133.825 69.18 132.692 68.78 131.839 67.98C130.985 67.18 130.559 66.0933 130.559 64.72C130.559 64.32 130.599 63.9 130.679 63.46C130.879 62.3133 131.285 61.3067 131.899 60.44C132.525 59.5733 133.299 58.9067 134.219 58.44C135.139 57.9733 136.145 57.74 137.239 57.74ZM138.959 62.54C138.985 62.3267 138.999 62.1733 138.999 62.08C138.999 61.44 138.792 60.94 138.379 60.58C137.965 60.22 137.425 60.04 136.759 60.04C136.052 60.04 135.419 60.2667 134.859 60.72C134.299 61.16 133.905 61.7667 133.679 62.54H138.959ZM147.182 59.88C147.662 59.2133 148.222 58.6933 148.862 58.32C149.502 57.9467 150.196 57.76 150.942 57.76L150.422 60.7H149.682C148.856 60.7 148.189 60.88 147.682 61.24C147.189 61.6 146.829 62.2133 146.602 63.08L145.562 69H142.742L144.702 57.92H147.522L147.182 59.88Z" fill="white"/>
</g>
<defs>
<filter id="filter0_d_28523_248391" x="0.351997" y="1.36798" width="223.283" height="28.888" filterUnits="userSpaceOnUse" color-interpolation-filters="sRGB">
<feFlood flood-opacity="0" result="BackgroundImageFix"/>
<feColorMatrix in="SourceAlpha" type="matrix" values="0 0 0 0 0 0 0 0 0 0 0 0 0 0 0 0 0 0 127 0" result="hardAlpha"/>
<feOffset dx="3" dy="3"/>
<feComposite in2="hardAlpha" operator="out"/>
<feColorMatrix type="matrix" values="0 0 0 0 0.996078 0 0 0 0 0.00784314 0 0 0 0 0.419608 0 0 0 1 0"/>
<feBlend mode="normal" in2="BackgroundImageFix" result="effect1_dropShadow_28523_248391"/>
<feBlend mode="normal" in="SourceGraphic" in2="effect1_dropShadow_28523_248391" result="shape"/>
</filter>
<filter id="filter1_d_28523_248391" x="1.02" y="53.32" width="151.922" height="23.14" filterUnits="userSpaceOnUse" color-interpolation-filters="sRGB">
<feFlood flood-opacity="0" result="BackgroundImageFix"/>
<feColorMatrix in="SourceAlpha" type="matrix" values="0 0 0 0 0 0 0 0 0 0 0 0 0 0 0 0 0 0 127 0" result="hardAlpha"/>
<feOffset dx="2" dy="2"/>
<feComposite in2="hardAlpha" operator="out"/>
<feColorMatrix type="matrix" values="0 0 0 0 0.278431 0 0 0 0 0.262745 0 0 0 0 0.772549 0 0 0 1 0"/>
<feBlend mode="normal" in2="BackgroundImageFix" result="effect1_dropShadow_28523_248391"/>
<feBlend mode="normal" in="SourceGraphic" in2="effect1_dropShadow_28523_248391" result="shape"/>
</filter>
</defs>
</svg>
