<svg width="30" height="30" viewBox="0 0 30 30" fill="none" xmlns="http://www.w3.org/2000/svg">
<g clip-path="url(#clip0_28548_163485)">
<g clip-path="url(#clip1_28548_163485)">
<path d="M15.1482 26.8027L15 26.7533L14.8518 26.8027L7.64812 29.2036C7.6481 29.2037 7.64807 29.2037 7.64804 29.2037C7.57763 29.2271 7.50267 29.2335 7.42931 29.2223C7.35593 29.2111 7.28625 29.1826 7.22602 29.1393C7.16578 29.0959 7.11672 29.0388 7.08285 28.9727C7.04902 28.9067 7.03133 28.8336 7.03125 28.7594V20.2162H22.9688V28.7593C22.9687 28.8335 22.951 28.9067 22.9171 28.9727C22.8833 29.0388 22.8342 29.0959 22.774 29.1393C22.7138 29.1826 22.6441 29.2111 22.5707 29.2223C22.4973 29.2335 22.4224 29.2271 22.352 29.2037C22.3519 29.2037 22.3519 29.2037 22.3519 29.2036L15.1482 26.8027Z" fill="#8788A6" stroke="#040406" stroke-width="0.9375"/>
<path d="M16.6533 1.2034L24.1533 5.5784C25.1614 6.16644 25.7812 7.24565 25.7812 8.41268V17.2299C25.7812 18.3969 25.1614 19.4761 24.1533 20.0642L16.6533 24.4392C15.6317 25.0351 14.3683 25.0351 13.3467 24.4392L5.84667 20.0642C4.83861 19.4761 4.21875 18.3969 4.21875 17.2299V8.41268C4.21875 7.24565 4.83862 6.16644 5.84667 5.5784L13.3467 1.2034C14.3683 0.607436 15.6317 0.607436 16.6533 1.2034Z" fill="url(#paint0_linear_28548_163485)" stroke="#040406" stroke-width="0.9375"/>
<path d="M16.3892 5.21941L21.0767 7.96316C21.9195 8.45651 22.4375 9.35986 22.4375 10.3365V15.9136C22.4375 16.8903 21.9195 17.7936 21.0767 18.287L16.3892 21.0307C15.5312 21.5329 14.4688 21.5329 13.6108 21.0307L8.92332 18.287C8.08047 17.7936 7.5625 16.8903 7.5625 15.9136V10.3365C7.5625 9.35986 8.08046 8.45651 8.92331 7.96316L13.6108 5.21941C14.4688 4.71717 15.5312 4.71717 16.3892 5.21941Z" fill="url(#paint1_linear_28548_163485)" stroke="url(#paint2_linear_28548_163485)" stroke-width="2"/>
<g filter="url(#filter0_d_28548_163485)">
<path d="M12.1875 15.8362C12.4425 15.6337 12.5588 15.54 12.5363 15.555C13.2713 14.9475 13.8488 14.4487 14.2688 14.0587C14.6963 13.6687 15.0563 13.26 15.3488 12.8325C15.6413 12.405 15.7875 11.9887 15.7875 11.5837C15.7875 11.2762 15.7163 11.0362 15.5738 10.8637C15.4313 10.6912 15.2175 10.605 14.9325 10.605C14.6475 10.605 14.4225 10.7137 14.2575 10.9312C14.1 11.1412 14.0213 11.4412 14.0213 11.8312H12.165C12.18 11.1937 12.315 10.6612 12.57 10.2337C12.8325 9.80624 13.1738 9.49124 13.5938 9.28874C14.0213 9.08624 14.4938 8.98499 15.0113 8.98499C15.9038 8.98499 16.575 9.21374 17.025 9.67124C17.4825 10.1287 17.7113 10.725 17.7113 11.46C17.7113 12.2625 17.4375 13.0087 16.89 13.6987C16.3425 14.3812 15.645 15.0487 14.7975 15.7012H17.835V17.265H12.1875V15.8362Z" fill="white"/>
</g>
</g>
</g>
<defs>
<filter id="filter0_d_28548_163485" x="12.165" y="8.98499" width="6.60751" height="8.74878" filterUnits="userSpaceOnUse" color-interpolation-filters="sRGB">
<feFlood flood-opacity="0" result="BackgroundImageFix"/>
<feColorMatrix in="SourceAlpha" type="matrix" values="0 0 0 0 0 0 0 0 0 0 0 0 0 0 0 0 0 0 127 0" result="hardAlpha"/>
<feOffset dx="0.9375" dy="0.46875"/>
<feComposite in2="hardAlpha" operator="out"/>
<feColorMatrix type="matrix" values="0 0 0 0 0.428959 0 0 0 0 0.432575 0 0 0 0 0.541064 0 0 0 1 0"/>
<feBlend mode="normal" in2="BackgroundImageFix" result="effect1_dropShadow_28548_163485"/>
<feBlend mode="normal" in="SourceGraphic" in2="effect1_dropShadow_28548_163485" result="shape"/>
</filter>
<linearGradient id="paint0_linear_28548_163485" x1="21.3371" y1="3.50403" x2="10.129" y2="20.7473" gradientUnits="userSpaceOnUse">
<stop stop-color="#D6D8FF"/>
<stop offset="1" stop-color="#BBBDE2"/>
</linearGradient>
<linearGradient id="paint1_linear_28548_163485" x1="21.0977" y1="3.24741" x2="10.9806" y2="21.4916" gradientUnits="userSpaceOnUse">
<stop stop-color="#D6D8FF"/>
<stop offset="1" stop-color="#9496B8"/>
</linearGradient>
<linearGradient id="paint2_linear_28548_163485" x1="15" y1="3.24756" x2="15" y2="23.0026" gradientUnits="userSpaceOnUse">
<stop stop-color="#B9BADD"/>
<stop offset="1" stop-color="#80819F"/>
</linearGradient>
<clipPath id="clip0_28548_163485">
<rect width="30" height="30" fill="white"/>
</clipPath>
<clipPath id="clip1_28548_163485">
<rect width="22.5" height="30" fill="white" transform="translate(3.75)"/>
</clipPath>
</defs>
</svg>
