<svg width="30" height="30" viewBox="0 0 30 30" fill="none" xmlns="http://www.w3.org/2000/svg">
<g clip-path="url(#clip0_28548_163477)">
<g clip-path="url(#clip1_28548_163477)">
<path d="M15.1482 26.8027L15 26.7533L14.8518 26.8027L7.64812 29.2036C7.6481 29.2037 7.64807 29.2037 7.64804 29.2037C7.57763 29.2271 7.50267 29.2335 7.42931 29.2223C7.35593 29.2111 7.28625 29.1826 7.22602 29.1393C7.16578 29.0959 7.11672 29.0388 7.08285 28.9727C7.04902 28.9067 7.03133 28.8336 7.03125 28.7594V20.2162H22.9688V28.7593C22.9687 28.8335 22.951 28.9067 22.9171 28.9727C22.8833 29.0388 22.8342 29.0959 22.774 29.1393C22.7138 29.1826 22.6441 29.2111 22.5707 29.2223C22.4973 29.2335 22.4224 29.2271 22.352 29.2037C22.3519 29.2037 22.3519 29.2037 22.3519 29.2036L15.1482 26.8027Z" fill="#C99122" stroke="#040406" stroke-width="0.9375"/>
<path d="M16.6533 1.2034L24.1533 5.5784C25.1614 6.16644 25.7812 7.24565 25.7812 8.41268V17.2299C25.7812 18.3969 25.1614 19.4761 24.1533 20.0642L16.6533 24.4392C15.6317 25.0351 14.3683 25.0351 13.3467 24.4392L5.84667 20.0642C4.83861 19.4761 4.21875 18.3969 4.21875 17.2299V8.41268C4.21875 7.24565 4.83862 6.16644 5.84667 5.5784L13.3467 1.2034C14.3683 0.607436 15.6317 0.607436 16.6533 1.2034Z" fill="url(#paint0_linear_28548_163477)" stroke="#040406" stroke-width="0.9375"/>
<path d="M16.4208 5.16547L21.1083 7.90922C21.9703 8.41378 22.5 9.33767 22.5 10.3365V15.9136C22.5 16.9125 21.9703 17.8363 21.1083 18.3409L16.4208 21.0846C15.5432 21.5983 14.4568 21.5983 13.5792 21.0846L8.89174 18.3409C8.02974 17.8363 7.5 16.9125 7.5 15.9136V10.3365C7.5 9.33766 8.02974 8.41378 8.89174 7.90922L13.5792 5.16547C14.4568 4.65182 15.5432 4.65182 16.4208 5.16547Z" fill="url(#paint1_linear_28548_163477)" stroke="url(#paint2_linear_28548_163477)" stroke-width="1.875"/>
<g filter="url(#filter0_d_28548_163477)">
<path d="M12.9731 10.8075V9.0188H16.0894V17.2313H14.0869V10.8075H12.9731Z" fill="white"/>
</g>
</g>
</g>
<defs>
<filter id="filter0_d_28548_163477" x="12.9731" y="9.0188" width="4.05374" height="8.68127" filterUnits="userSpaceOnUse" color-interpolation-filters="sRGB">
<feFlood flood-opacity="0" result="BackgroundImageFix"/>
<feColorMatrix in="SourceAlpha" type="matrix" values="0 0 0 0 0 0 0 0 0 0 0 0 0 0 0 0 0 0 127 0" result="hardAlpha"/>
<feOffset dx="0.9375" dy="0.46875"/>
<feComposite in2="hardAlpha" operator="out"/>
<feColorMatrix type="matrix" values="0 0 0 0 0.699772 0 0 0 0 0.495147 0 0 0 0 0.0964806 0 0 0 1 0"/>
<feBlend mode="normal" in2="BackgroundImageFix" result="effect1_dropShadow_28548_163477"/>
<feBlend mode="normal" in="SourceGraphic" in2="effect1_dropShadow_28548_163477" result="shape"/>
</filter>
<linearGradient id="paint0_linear_28548_163477" x1="21.3371" y1="3.50403" x2="10.129" y2="20.7473" gradientUnits="userSpaceOnUse">
<stop stop-color="#FFE07A"/>
<stop offset="1" stop-color="#FFCD6C"/>
</linearGradient>
<linearGradient id="paint1_linear_28548_163477" x1="18.774" y1="-5.90052" x2="4.23649" y2="15.48" gradientUnits="userSpaceOnUse">
<stop stop-color="#E4C876"/>
<stop offset="1" stop-color="#F5B12F"/>
</linearGradient>
<linearGradient id="paint2_linear_28548_163477" x1="15" y1="3.24756" x2="15" y2="23.0026" gradientUnits="userSpaceOnUse">
<stop stop-color="#F1B032"/>
<stop offset="1" stop-color="#C58E20"/>
</linearGradient>
<clipPath id="clip0_28548_163477">
<rect width="30" height="30" fill="white"/>
</clipPath>
<clipPath id="clip1_28548_163477">
<rect width="22.5" height="30" fill="white" transform="translate(3.75)"/>
</clipPath>
</defs>
</svg>
