<svg width="30" height="30" viewBox="0 0 30 30" fill="none" xmlns="http://www.w3.org/2000/svg">
<g clip-path="url(#clip0_28548_163493)">
<g clip-path="url(#clip1_28548_163493)">
<path d="M15.1482 26.8027L15 26.7533L14.8518 26.8027L7.64812 29.2036C7.6481 29.2037 7.64807 29.2037 7.64804 29.2037C7.57763 29.2271 7.50267 29.2335 7.42931 29.2223C7.35593 29.2111 7.28625 29.1826 7.22602 29.1393C7.16578 29.0959 7.11672 29.0388 7.08285 28.9727C7.04902 28.9067 7.03133 28.8336 7.03125 28.7594V20.2162H22.9688V28.7593C22.9687 28.8335 22.951 28.9067 22.9171 28.9727C22.8833 29.0388 22.8342 29.0959 22.774 29.1393C22.7138 29.1826 22.6441 29.2111 22.5707 29.2223C22.4973 29.2335 22.4224 29.2271 22.352 29.2037C22.3519 29.2037 22.3519 29.2037 22.3519 29.2036L15.1482 26.8027Z" fill="#99512A" stroke="#040406" stroke-width="0.9375"/>
<path d="M16.6533 1.2034L24.1533 5.5784C25.1614 6.16644 25.7812 7.24565 25.7812 8.41268V17.2299C25.7812 18.3969 25.1614 19.4761 24.1533 20.0642L16.6533 24.4392C15.6317 25.0351 14.3683 25.0351 13.3467 24.4392L5.84667 20.0642C4.83861 19.4761 4.21875 18.3969 4.21875 17.2299V8.41268C4.21875 7.24565 4.83862 6.16644 5.84667 5.5784L13.3467 1.2034C14.3683 0.607436 15.6317 0.607436 16.6533 1.2034Z" fill="url(#paint0_linear_28548_163493)" stroke="#040406" stroke-width="0.9375"/>
<path d="M16.4208 5.16547L21.1083 7.90922C21.9703 8.41378 22.5 9.33767 22.5 10.3365V15.9136C22.5 16.9125 21.9703 17.8363 21.1083 18.3409L16.4208 21.0846C15.5432 21.5983 14.4568 21.5983 13.5792 21.0846L8.89174 18.3409C8.02974 17.8363 7.5 16.9125 7.5 15.9136V10.3365C7.5 9.33766 8.02974 8.41378 8.89174 7.90922L13.5792 5.16547C14.4568 4.65182 15.5432 4.65182 16.4208 5.16547Z" fill="url(#paint1_linear_28548_163493)" stroke="url(#paint2_linear_28548_163493)" stroke-width="1.875"/>
<g filter="url(#filter0_d_28548_163493)">
<path d="M12.2437 11.398C12.2737 10.5955 12.5362 9.97678 13.0312 9.54178C13.5262 9.10678 14.1975 8.88928 15.045 8.88928C15.6075 8.88928 16.0875 8.98678 16.485 9.18178C16.89 9.37678 17.1937 9.64303 17.3962 9.98053C17.6062 10.318 17.7112 10.6968 17.7112 11.1168C17.7112 11.6118 17.5875 12.0168 17.34 12.3318C17.0925 12.6393 16.8037 12.8493 16.4737 12.9618V13.0068C16.9012 13.1493 17.2387 13.3855 17.4862 13.7155C17.7337 14.0455 17.8575 14.4693 17.8575 14.9868C17.8575 15.4518 17.7487 15.8643 17.5312 16.2243C17.3212 16.5768 17.01 16.8543 16.5975 17.0568C16.1925 17.2593 15.7087 17.3605 15.1462 17.3605C14.2462 17.3605 13.5262 17.1393 12.9862 16.6968C12.4537 16.2543 12.1725 15.5868 12.1425 14.6943H14.01C14.0175 15.0243 14.1112 15.2868 14.2912 15.4818C14.4712 15.6693 14.7337 15.763 15.0787 15.763C15.3712 15.763 15.5962 15.6805 15.7537 15.5155C15.9187 15.343 16.0012 15.118 16.0012 14.8405C16.0012 14.4805 15.885 14.2218 15.6525 14.0643C15.4275 13.8993 15.0637 13.8168 14.5612 13.8168H14.2012V12.253H14.5612C14.9437 12.253 15.2512 12.1893 15.4837 12.0618C15.7237 11.9268 15.8437 11.6905 15.8437 11.353C15.8437 11.083 15.7687 10.873 15.6187 10.723C15.4687 10.573 15.2625 10.498 15 10.498C14.715 10.498 14.5012 10.5843 14.3587 10.7568C14.2237 10.9293 14.145 11.143 14.1225 11.398H12.2437Z" fill="white"/>
</g>
</g>
</g>
<defs>
<filter id="filter0_d_28548_163493" x="12.1425" y="8.88928" width="6.6525" height="8.93994" filterUnits="userSpaceOnUse" color-interpolation-filters="sRGB">
<feFlood flood-opacity="0" result="BackgroundImageFix"/>
<feColorMatrix in="SourceAlpha" type="matrix" values="0 0 0 0 0 0 0 0 0 0 0 0 0 0 0 0 0 0 127 0" result="hardAlpha"/>
<feOffset dx="0.9375" dy="0.46875"/>
<feComposite in2="hardAlpha" operator="out"/>
<feColorMatrix type="matrix" values="0 0 0 0 0.546126 0 0 0 0 0.287195 0 0 0 0 0.14694 0 0 0 1 0"/>
<feBlend mode="normal" in2="BackgroundImageFix" result="effect1_dropShadow_28548_163493"/>
<feBlend mode="normal" in="SourceGraphic" in2="effect1_dropShadow_28548_163493" result="shape"/>
</filter>
<linearGradient id="paint0_linear_28548_163493" x1="21.3371" y1="3.50403" x2="10.129" y2="20.7473" gradientUnits="userSpaceOnUse">
<stop stop-color="#FFAF8E"/>
<stop offset="1" stop-color="#D7845B"/>
</linearGradient>
<linearGradient id="paint1_linear_28548_163493" x1="20.1017" y1="3.24741" x2="12.1617" y2="21.594" gradientUnits="userSpaceOnUse">
<stop stop-color="#F0A180"/>
<stop offset="1" stop-color="#B05725"/>
</linearGradient>
<linearGradient id="paint2_linear_28548_163493" x1="15" y1="3.24756" x2="15" y2="23.0026" gradientUnits="userSpaceOnUse">
<stop stop-color="#D58864"/>
<stop offset="1" stop-color="#934B24"/>
</linearGradient>
<clipPath id="clip0_28548_163493">
<rect width="30" height="30" fill="white"/>
</clipPath>
<clipPath id="clip1_28548_163493">
<rect width="22.5" height="30" fill="white" transform="translate(3.75)"/>
</clipPath>
</defs>
</svg>
