<svg width="63" height="22" viewBox="0 0 63 22" fill="none" xmlns="http://www.w3.org/2000/svg">
<g clip-path="url(#clip0_27740_14712)">
<path d="M9.88556 5.70565C5.50004 5.70565 1.94452 9.13006 1.94452 13.3534C1.94452 17.5767 5.50004 21 9.88556 21C14.2711 21 17.8266 17.5761 17.8266 13.3528C17.8266 9.12949 14.2711 5.70565 9.88556 5.70565ZM13.9833 12.46L12.4117 13.955L12.7828 16.0661C12.9078 16.7745 12.4928 17.0845 11.8272 16.7433L9.88556 15.7467L7.9428 16.7433C7.29114 17.0778 6.86115 16.7889 6.98781 16.0656L7.35892 13.955L5.78725 12.46C5.2595 11.9584 5.40893 11.4695 6.15226 11.3639L8.32393 11.0562L9.29502 9.13562C9.62113 8.49118 10.1433 8.47786 10.4756 9.13562L11.4472 11.0562L13.6183 11.3639C14.3478 11.4673 14.5211 11.9484 13.9833 12.46ZM17.2505 1.00013H12.265C11.9955 1.00013 11.78 1.18013 11.7167 1.41845L10.18 4.31566C10.18 4.31566 13.4705 4.50454 15.415 6.29396L17.7105 1.86624C17.7831 1.77681 17.8242 1.66587 17.8272 1.5507C17.8272 1.24679 17.5688 1.00013 17.2505 1.00013ZM9.59167 4.31566L8.05448 1.41845C8.02237 1.29791 7.95116 1.19144 7.85202 1.11573C7.75287 1.04003 7.63141 0.999367 7.50667 1.00013H2.52063C2.20229 1.00011 1.94452 1.24679 1.94452 1.55068C1.94452 1.67067 1.99284 1.77567 2.06118 1.86622L4.35671 6.29398C6.3006 4.50509 9.59167 4.31566 9.59167 4.31566Z" fill="url(#paint0_linear_27740_14712)"/>
<path d="M2.57007 13.3673C2.57007 9.51117 5.8234 6.34463 9.88611 6.34463C13.9489 6.34463 17.2022 9.51066 17.2022 13.3668C17.2022 17.2229 13.9489 20.389 9.88611 20.389C5.82328 20.389 2.57007 17.2234 2.57007 13.3673Z" fill="url(#paint1_linear_27740_14712)" stroke="url(#paint2_linear_27740_14712)" stroke-width="1.25"/>
<g filter="url(#filter0_d_27740_14712)">
<path d="M13.9837 12.46L12.412 13.955L12.7831 16.0661C12.9081 16.7744 12.4931 17.0844 11.8276 16.7433L9.88592 15.7466L7.94316 16.7433C7.29151 17.0777 6.86151 16.7888 6.98817 16.0655L7.35928 13.955L5.78761 12.46C5.25986 11.9583 5.40929 11.4694 6.15263 11.3639L8.32429 11.0561L9.29538 9.13556C9.62149 8.49111 10.1437 8.47779 10.4759 9.13556L11.4476 11.0561L13.6187 11.3639C14.3481 11.4672 14.5215 11.9483 13.9837 12.46Z" fill="white"/>
</g>
</g>
<path d="M35.616 6.228V7.81H33.012V16H31.052V7.81H28.448V6.228H35.616ZM40.4901 16.126C39.7434 16.126 39.0714 15.9627 38.4741 15.636C37.8767 15.3 37.4054 14.8287 37.0601 14.222C36.7241 13.6153 36.5561 12.9153 36.5561 12.122C36.5561 11.3287 36.7287 10.6287 37.0741 10.022C37.4287 9.41533 37.9094 8.94867 38.5161 8.622C39.1227 8.286 39.7994 8.118 40.5461 8.118C41.2927 8.118 41.9694 8.286 42.5761 8.622C43.1827 8.94867 43.6587 9.41533 44.0041 10.022C44.3587 10.6287 44.5361 11.3287 44.5361 12.122C44.5361 12.9153 44.3541 13.6153 43.9901 14.222C43.6354 14.8287 43.1501 15.3 42.5341 15.636C41.9274 15.9627 41.2461 16.126 40.4901 16.126ZM40.4901 14.418C40.8447 14.418 41.1761 14.334 41.4841 14.166C41.8014 13.9887 42.0534 13.7273 42.2401 13.382C42.4267 13.0367 42.5201 12.6167 42.5201 12.122C42.5201 11.3847 42.3241 10.82 41.9321 10.428C41.5494 10.0267 41.0781 9.826 40.5181 9.826C39.9581 9.826 39.4867 10.0267 39.1041 10.428C38.7307 10.82 38.5441 11.3847 38.5441 12.122C38.5441 12.8593 38.7261 13.4287 39.0901 13.83C39.4634 14.222 39.9301 14.418 40.4901 14.418ZM47.9338 9.364C48.1858 9.00933 48.5311 8.71533 48.9698 8.482C49.4178 8.23933 49.9265 8.118 50.4958 8.118C51.1585 8.118 51.7558 8.28133 52.2878 8.608C52.8291 8.93467 53.2538 9.40133 53.5618 10.008C53.8791 10.6053 54.0378 11.3007 54.0378 12.094C54.0378 12.8873 53.8791 13.592 53.5618 14.208C53.2538 14.8147 52.8291 15.286 52.2878 15.622C51.7558 15.958 51.1585 16.126 50.4958 16.126C49.9265 16.126 49.4225 16.0093 48.9838 15.776C48.5545 15.5427 48.2045 15.2487 47.9338 14.894V19.696H45.9738V8.244H47.9338V9.364ZM52.0358 12.094C52.0358 11.6273 51.9378 11.226 51.7418 10.89C51.5551 10.5447 51.3031 10.2833 50.9858 10.106C50.6778 9.92867 50.3418 9.84 49.9778 9.84C49.6231 9.84 49.2871 9.93333 48.9698 10.12C48.6618 10.2973 48.4098 10.5587 48.2138 10.904C48.0271 11.2493 47.9338 11.6553 47.9338 12.122C47.9338 12.5887 48.0271 12.9947 48.2138 13.34C48.4098 13.6853 48.6618 13.9513 48.9698 14.138C49.2871 14.3153 49.6231 14.404 49.9778 14.404C50.3418 14.404 50.6778 14.3107 50.9858 14.124C51.3031 13.9373 51.5551 13.6713 51.7418 13.326C51.9378 12.9807 52.0358 12.57 52.0358 12.094ZM58.336 7.6V5.794H61.71V16H59.694V7.6H58.336Z" fill="url(#paint3_linear_27740_14712)"/>
<defs>
<filter id="filter0_d_27740_14712" x="4.22403" y="8.02222" width="11.3236" height="10.735" filterUnits="userSpaceOnUse" color-interpolation-filters="sRGB">
<feFlood flood-opacity="0" result="BackgroundImageFix"/>
<feColorMatrix in="SourceAlpha" type="matrix" values="0 0 0 0 0 0 0 0 0 0 0 0 0 0 0 0 0 0 127 0" result="hardAlpha"/>
<feOffset dy="0.625"/>
<feGaussianBlur stdDeviation="0.625"/>
<feComposite in2="hardAlpha" operator="out"/>
<feColorMatrix type="matrix" values="0 0 0 0 0.746794 0 0 0 0 0.540771 0 0 0 0 0.13583 0 0 0 1 0"/>
<feBlend mode="normal" in2="BackgroundImageFix" result="effect1_dropShadow_27740_14712"/>
<feBlend mode="normal" in="SourceGraphic" in2="effect1_dropShadow_27740_14712" result="shape"/>
</filter>
<linearGradient id="paint0_linear_27740_14712" x1="15.625" y1="0.999969" x2="5.31251" y2="19.4375" gradientUnits="userSpaceOnUse">
<stop stop-color="#F8CC5B"/>
<stop offset="1" stop-color="#F5B12F"/>
</linearGradient>
<linearGradient id="paint1_linear_27740_14712" x1="13.4381" y1="-1.36284" x2="3.12556" y2="17.0747" gradientUnits="userSpaceOnUse">
<stop stop-color="#E4C876"/>
<stop offset="1" stop-color="#F5B12F"/>
</linearGradient>
<linearGradient id="paint2_linear_27740_14712" x1="9.88612" y1="5.7196" x2="9.88612" y2="21.0139" gradientUnits="userSpaceOnUse">
<stop stop-color="#F1B032"/>
<stop offset="1" stop-color="#C58E20"/>
</linearGradient>
<linearGradient id="paint3_linear_27740_14712" x1="58.1472" y1="-0.000168721" x2="51.2507" y2="24.7006" gradientUnits="userSpaceOnUse">
<stop stop-color="#FFDE6B"/>
<stop offset="1" stop-color="#FFB82E"/>
</linearGradient>
<clipPath id="clip0_27740_14712">
<rect width="20" height="20" fill="white" transform="translate(0 1)"/>
</clipPath>
</defs>
</svg>
