<svg width="67" height="22" viewBox="0 0 67 22" fill="none" xmlns="http://www.w3.org/2000/svg">
<g clip-path="url(#clip0_27740_14747)">
<path d="M9.88556 5.70565C5.50004 5.70565 1.94452 9.13006 1.94452 13.3534C1.94452 17.5767 5.50004 21 9.88556 21C14.2711 21 17.8266 17.5761 17.8266 13.3528C17.8266 9.12949 14.2711 5.70565 9.88556 5.70565ZM13.9833 12.46L12.4117 13.955L12.7828 16.0661C12.9078 16.7745 12.4928 17.0845 11.8272 16.7433L9.88556 15.7467L7.9428 16.7433C7.29114 17.0778 6.86115 16.7889 6.98781 16.0656L7.35892 13.955L5.78725 12.46C5.2595 11.9584 5.40893 11.4695 6.15226 11.3639L8.32393 11.0562L9.29502 9.13562C9.62113 8.49118 10.1433 8.47786 10.4756 9.13562L11.4472 11.0562L13.6183 11.3639C14.3478 11.4673 14.5211 11.9484 13.9833 12.46ZM17.2505 1.00013H12.265C11.9955 1.00013 11.78 1.18013 11.7167 1.41845L10.18 4.31566C10.18 4.31566 13.4705 4.50454 15.415 6.29396L17.7105 1.86624C17.7831 1.77681 17.8242 1.66587 17.8272 1.5507C17.8272 1.24679 17.5688 1.00013 17.2505 1.00013ZM9.59167 4.31566L8.05448 1.41845C8.02237 1.29791 7.95116 1.19144 7.85202 1.11573C7.75287 1.04003 7.63141 0.999367 7.50667 1.00013H2.52063C2.20229 1.00011 1.94452 1.24679 1.94452 1.55068C1.94452 1.67067 1.99284 1.77567 2.06118 1.86622L4.35671 6.29398C6.3006 4.50509 9.59167 4.31566 9.59167 4.31566Z" fill="url(#paint0_linear_27740_14747)"/>
<path d="M2.57007 13.3534C2.57007 9.49725 5.8234 6.33071 9.88611 6.33071C13.9489 6.33071 17.2022 9.49674 17.2022 13.3529C17.2022 17.209 13.9489 20.375 9.88611 20.375C5.82328 20.375 2.57007 17.2095 2.57007 13.3534Z" fill="url(#paint1_linear_27740_14747)" stroke="url(#paint2_linear_27740_14747)" stroke-width="1.25"/>
<g filter="url(#filter0_d_27740_14747)">
<path d="M13.9837 12.46L12.412 13.955L12.7831 16.0661C12.9081 16.7744 12.4931 17.0844 11.8276 16.7433L9.88589 15.7466L7.94313 16.7433C7.29148 17.0777 6.86148 16.7888 6.98814 16.0655L7.35925 13.955L5.78758 12.46C5.25983 11.9583 5.40926 11.4694 6.1526 11.3639L8.32426 11.0561L9.29535 9.13556C9.62146 8.49111 10.1437 8.47779 10.4759 9.13556L11.4476 11.0561L13.6186 11.3639C14.3481 11.4672 14.5214 11.9483 13.9837 12.46Z" fill="white"/>
</g>
</g>
<mask id="path-4-inside-1_27740_14747" fill="white">
<path d="M35.616 6.228V7.81H33.012V16H31.052V7.81H28.448V6.228H35.616ZM40.4901 16.126C39.7434 16.126 39.0714 15.9627 38.4741 15.636C37.8767 15.3 37.4054 14.8287 37.0601 14.222C36.7241 13.6153 36.5561 12.9153 36.5561 12.122C36.5561 11.3287 36.7287 10.6287 37.0741 10.022C37.4287 9.41533 37.9094 8.94867 38.5161 8.622C39.1227 8.286 39.7994 8.118 40.5461 8.118C41.2927 8.118 41.9694 8.286 42.5761 8.622C43.1827 8.94867 43.6587 9.41533 44.0041 10.022C44.3587 10.6287 44.5361 11.3287 44.5361 12.122C44.5361 12.9153 44.3541 13.6153 43.9901 14.222C43.6354 14.8287 43.1501 15.3 42.5341 15.636C41.9274 15.9627 41.2461 16.126 40.4901 16.126ZM40.4901 14.418C40.8447 14.418 41.1761 14.334 41.4841 14.166C41.8014 13.9887 42.0534 13.7273 42.2401 13.382C42.4267 13.0367 42.5201 12.6167 42.5201 12.122C42.5201 11.3847 42.3241 10.82 41.9321 10.428C41.5494 10.0267 41.0781 9.826 40.5181 9.826C39.9581 9.826 39.4867 10.0267 39.1041 10.428C38.7307 10.82 38.5441 11.3847 38.5441 12.122C38.5441 12.8593 38.7261 13.4287 39.0901 13.83C39.4634 14.222 39.9301 14.418 40.4901 14.418ZM47.9338 9.364C48.1858 9.00933 48.5311 8.71533 48.9698 8.482C49.4178 8.23933 49.9265 8.118 50.4958 8.118C51.1585 8.118 51.7558 8.28133 52.2878 8.608C52.8291 8.93467 53.2538 9.40133 53.5618 10.008C53.8791 10.6053 54.0378 11.3007 54.0378 12.094C54.0378 12.8873 53.8791 13.592 53.5618 14.208C53.2538 14.8147 52.8291 15.286 52.2878 15.622C51.7558 15.958 51.1585 16.126 50.4958 16.126C49.9265 16.126 49.4225 16.0093 48.9838 15.776C48.5545 15.5427 48.2045 15.2487 47.9338 14.894V19.696H45.9738V8.244H47.9338V9.364ZM52.0358 12.094C52.0358 11.6273 51.9378 11.226 51.7418 10.89C51.5551 10.5447 51.3031 10.2833 50.9858 10.106C50.6778 9.92867 50.3418 9.84 49.9778 9.84C49.6231 9.84 49.2871 9.93333 48.9698 10.12C48.6618 10.2973 48.4098 10.5587 48.2138 10.904C48.0271 11.2493 47.9338 11.6553 47.9338 12.122C47.9338 12.5887 48.0271 12.9947 48.2138 13.34C48.4098 13.6853 48.6618 13.9513 48.9698 14.138C49.2871 14.3153 49.6231 14.404 49.9778 14.404C50.3418 14.404 50.6778 14.3107 50.9858 14.124C51.3031 13.9373 51.5551 13.6713 51.7418 13.326C51.9378 12.9807 52.0358 12.57 52.0358 12.094ZM58.602 8.482C58.6487 7.54867 58.9754 6.83 59.582 6.326C60.198 5.81267 61.0054 5.556 62.004 5.556C62.6854 5.556 63.2687 5.67733 63.754 5.92C64.2394 6.15333 64.6034 6.47533 64.846 6.886C65.098 7.28733 65.224 7.74467 65.224 8.258C65.224 8.846 65.07 9.34533 64.762 9.756C64.4634 10.1573 64.104 10.428 63.684 10.568V10.624C64.2254 10.792 64.6454 11.0907 64.944 11.52C65.252 11.9493 65.406 12.5 65.406 13.172C65.406 13.732 65.2754 14.2313 65.014 14.67C64.762 15.1087 64.384 15.454 63.88 15.706C63.3854 15.9487 62.788 16.07 62.088 16.07C61.0334 16.07 60.1747 15.804 59.512 15.272C58.8494 14.74 58.4994 13.956 58.462 12.92H60.366C60.3847 13.3773 60.5387 13.746 60.828 14.026C61.1267 14.2967 61.5327 14.432 62.046 14.432C62.522 14.432 62.886 14.3013 63.138 14.04C63.3994 13.7693 63.53 13.424 63.53 13.004C63.53 12.444 63.3527 12.0427 62.998 11.8C62.6434 11.5573 62.0927 11.436 61.346 11.436H60.94V9.826H61.346C62.6714 9.826 63.334 9.38267 63.334 8.496C63.334 8.09467 63.2127 7.782 62.97 7.558C62.7367 7.334 62.396 7.222 61.948 7.222C61.5094 7.222 61.1687 7.34333 60.926 7.586C60.6927 7.81933 60.5574 8.118 60.52 8.482H58.602Z"/>
</mask>
<path d="M35.616 6.228V7.81H33.012V16H31.052V7.81H28.448V6.228H35.616ZM40.4901 16.126C39.7434 16.126 39.0714 15.9627 38.4741 15.636C37.8767 15.3 37.4054 14.8287 37.0601 14.222C36.7241 13.6153 36.5561 12.9153 36.5561 12.122C36.5561 11.3287 36.7287 10.6287 37.0741 10.022C37.4287 9.41533 37.9094 8.94867 38.5161 8.622C39.1227 8.286 39.7994 8.118 40.5461 8.118C41.2927 8.118 41.9694 8.286 42.5761 8.622C43.1827 8.94867 43.6587 9.41533 44.0041 10.022C44.3587 10.6287 44.5361 11.3287 44.5361 12.122C44.5361 12.9153 44.3541 13.6153 43.9901 14.222C43.6354 14.8287 43.1501 15.3 42.5341 15.636C41.9274 15.9627 41.2461 16.126 40.4901 16.126ZM40.4901 14.418C40.8447 14.418 41.1761 14.334 41.4841 14.166C41.8014 13.9887 42.0534 13.7273 42.2401 13.382C42.4267 13.0367 42.5201 12.6167 42.5201 12.122C42.5201 11.3847 42.3241 10.82 41.9321 10.428C41.5494 10.0267 41.0781 9.826 40.5181 9.826C39.9581 9.826 39.4867 10.0267 39.1041 10.428C38.7307 10.82 38.5441 11.3847 38.5441 12.122C38.5441 12.8593 38.7261 13.4287 39.0901 13.83C39.4634 14.222 39.9301 14.418 40.4901 14.418ZM47.9338 9.364C48.1858 9.00933 48.5311 8.71533 48.9698 8.482C49.4178 8.23933 49.9265 8.118 50.4958 8.118C51.1585 8.118 51.7558 8.28133 52.2878 8.608C52.8291 8.93467 53.2538 9.40133 53.5618 10.008C53.8791 10.6053 54.0378 11.3007 54.0378 12.094C54.0378 12.8873 53.8791 13.592 53.5618 14.208C53.2538 14.8147 52.8291 15.286 52.2878 15.622C51.7558 15.958 51.1585 16.126 50.4958 16.126C49.9265 16.126 49.4225 16.0093 48.9838 15.776C48.5545 15.5427 48.2045 15.2487 47.9338 14.894V19.696H45.9738V8.244H47.9338V9.364ZM52.0358 12.094C52.0358 11.6273 51.9378 11.226 51.7418 10.89C51.5551 10.5447 51.3031 10.2833 50.9858 10.106C50.6778 9.92867 50.3418 9.84 49.9778 9.84C49.6231 9.84 49.2871 9.93333 48.9698 10.12C48.6618 10.2973 48.4098 10.5587 48.2138 10.904C48.0271 11.2493 47.9338 11.6553 47.9338 12.122C47.9338 12.5887 48.0271 12.9947 48.2138 13.34C48.4098 13.6853 48.6618 13.9513 48.9698 14.138C49.2871 14.3153 49.6231 14.404 49.9778 14.404C50.3418 14.404 50.6778 14.3107 50.9858 14.124C51.3031 13.9373 51.5551 13.6713 51.7418 13.326C51.9378 12.9807 52.0358 12.57 52.0358 12.094ZM58.602 8.482C58.6487 7.54867 58.9754 6.83 59.582 6.326C60.198 5.81267 61.0054 5.556 62.004 5.556C62.6854 5.556 63.2687 5.67733 63.754 5.92C64.2394 6.15333 64.6034 6.47533 64.846 6.886C65.098 7.28733 65.224 7.74467 65.224 8.258C65.224 8.846 65.07 9.34533 64.762 9.756C64.4634 10.1573 64.104 10.428 63.684 10.568V10.624C64.2254 10.792 64.6454 11.0907 64.944 11.52C65.252 11.9493 65.406 12.5 65.406 13.172C65.406 13.732 65.2754 14.2313 65.014 14.67C64.762 15.1087 64.384 15.454 63.88 15.706C63.3854 15.9487 62.788 16.07 62.088 16.07C61.0334 16.07 60.1747 15.804 59.512 15.272C58.8494 14.74 58.4994 13.956 58.462 12.92H60.366C60.3847 13.3773 60.5387 13.746 60.828 14.026C61.1267 14.2967 61.5327 14.432 62.046 14.432C62.522 14.432 62.886 14.3013 63.138 14.04C63.3994 13.7693 63.53 13.424 63.53 13.004C63.53 12.444 63.3527 12.0427 62.998 11.8C62.6434 11.5573 62.0927 11.436 61.346 11.436H60.94V9.826H61.346C62.6714 9.826 63.334 9.38267 63.334 8.496C63.334 8.09467 63.2127 7.782 62.97 7.558C62.7367 7.334 62.396 7.222 61.948 7.222C61.5094 7.222 61.1687 7.34333 60.926 7.586C60.6927 7.81933 60.5574 8.118 60.52 8.482H58.602Z" fill="url(#paint3_linear_27740_14747)"/>
<path d="M35.616 6.228H36.866V4.978H35.616V6.228ZM35.616 7.81V9.06H36.866V7.81H35.616ZM33.012 7.81V6.56H31.762V7.81H33.012ZM33.012 16V17.25H34.262V16H33.012ZM31.052 16H29.802V17.25H31.052V16ZM31.052 7.81H32.302V6.56H31.052V7.81ZM28.448 7.81H27.198V9.06H28.448V7.81ZM28.448 6.228V4.978H27.198V6.228H28.448ZM34.366 6.228V7.81H36.866V6.228H34.366ZM35.616 6.56H33.012V9.06H35.616V6.56ZM31.762 7.81V16H34.262V7.81H31.762ZM33.012 14.75H31.052V17.25H33.012V14.75ZM32.302 16V7.81H29.802V16H32.302ZM31.052 6.56H28.448V9.06H31.052V6.56ZM29.698 7.81V6.228H27.198V7.81H29.698ZM28.448 7.478H35.616V4.978H28.448V7.478ZM38.4741 15.636L37.8613 16.7255L37.8678 16.7291L37.8743 16.7327L38.4741 15.636ZM37.0601 14.222L35.9666 14.8276L35.9701 14.834L35.9737 14.8404L37.0601 14.222ZM37.0741 10.022L35.995 9.39113L35.9913 9.39736L35.9877 9.40363L37.0741 10.022ZM38.5161 8.622L39.1087 9.72259L39.1152 9.71908L39.1217 9.71549L38.5161 8.622ZM42.5761 8.622L41.9705 9.71549L41.9769 9.71908L41.9835 9.72259L42.5761 8.622ZM44.0041 10.022L42.9177 10.6404L42.9213 10.6466L42.925 10.6529L44.0041 10.022ZM43.9901 14.222L42.9182 13.5789L42.9145 13.585L42.911 13.5911L43.9901 14.222ZM42.5341 15.636L43.1267 16.7366L43.1326 16.7334L42.5341 15.636ZM41.4841 14.166L42.0827 15.2634L42.0939 15.2572L41.4841 14.166ZM42.2401 13.382L43.3397 13.9764L43.3397 13.9764L42.2401 13.382ZM41.9321 10.428L41.0274 11.2906L41.0377 11.3014L41.0482 11.3119L41.9321 10.428ZM39.1041 10.428L38.1994 9.5654L38.1989 9.56593L39.1041 10.428ZM39.0901 13.83L38.1642 14.6698L38.1744 14.681L38.1849 14.6921L39.0901 13.83ZM40.4901 14.876C39.9323 14.876 39.4699 14.7559 39.0738 14.5393L37.8743 16.7327C38.6729 17.1695 39.5545 17.376 40.4901 17.376V14.876ZM39.0869 14.5465C38.691 14.3239 38.3818 14.0171 38.1464 13.6036L35.9737 14.8404C36.4291 15.6403 37.0624 16.2761 37.8613 16.7255L39.0869 14.5465ZM38.1536 13.6164C37.9342 13.2203 37.8061 12.7343 37.8061 12.122H35.3061C35.3061 13.0963 35.514 14.0104 35.9666 14.8276L38.1536 13.6164ZM37.8061 12.122C37.8061 11.5154 37.9363 11.0341 38.1604 10.6404L35.9877 9.40363C35.5212 10.2233 35.3061 11.1419 35.3061 12.122H37.8061ZM38.1532 10.6529C38.3944 10.2403 38.7085 9.9381 39.1087 9.72259L37.9235 7.52141C37.1103 7.95924 36.4631 8.59032 35.995 9.39113L38.1532 10.6529ZM39.1217 9.71549C39.5289 9.48995 39.9946 9.368 40.5461 9.368V6.868C39.6043 6.868 38.7166 7.08205 37.9105 7.52851L39.1217 9.71549ZM40.5461 9.368C41.0976 9.368 41.5632 9.48995 41.9705 9.71549L43.1817 7.52851C42.3756 7.08205 41.4879 6.868 40.5461 6.868V9.368ZM41.9835 9.72259C42.3807 9.9365 42.6869 10.2348 42.9177 10.6404L45.0904 9.40363C44.6306 8.59591 43.9848 7.96084 43.1687 7.52141L41.9835 9.72259ZM42.925 10.6529C43.1539 11.0444 43.2861 11.5212 43.2861 12.122H45.7861C45.7861 11.1361 45.5636 10.2129 45.0832 9.39113L42.925 10.6529ZM43.2861 12.122C43.2861 12.717 43.152 13.1893 42.9182 13.5789L45.0619 14.8651C45.5562 14.0414 45.7861 13.1137 45.7861 12.122H43.2861ZM42.911 13.5911C42.6709 14.0018 42.3516 14.3117 41.9355 14.5386L43.1326 16.7334C43.9486 16.2883 44.5999 15.6555 45.0692 14.8529L42.911 13.5911ZM41.9415 14.5354C41.5342 14.7547 41.0598 14.876 40.4901 14.876V17.376C41.4324 17.376 42.3206 17.1706 43.1267 16.7366L41.9415 14.5354ZM40.4901 15.668C41.0515 15.668 41.5889 15.5327 42.0826 15.2634L40.8855 13.0686C40.7632 13.1353 40.638 13.168 40.4901 13.168V15.668ZM42.0939 15.2572C42.6349 14.9548 43.0496 14.5131 43.3397 13.9764L41.1404 12.7876C41.0572 12.9416 40.9679 13.0225 40.8743 13.0748L42.0939 15.2572ZM43.3397 13.9764C43.6475 13.407 43.7701 12.7713 43.7701 12.122H41.2701C41.2701 12.462 41.206 12.6663 41.1404 12.7876L43.3397 13.9764ZM43.7701 12.122C43.7701 11.1663 43.5118 10.24 42.816 9.54412L41.0482 11.3119C41.1363 11.4 41.2701 11.6031 41.2701 12.122H43.7701ZM42.8368 9.5654C42.2156 8.91391 41.4161 8.576 40.5181 8.576V11.076C40.7401 11.076 40.8833 11.1394 41.0274 11.2906L42.8368 9.5654ZM40.5181 8.576C39.6201 8.576 38.8206 8.91391 38.1994 9.5654L40.0087 11.2906C40.1529 11.1394 40.2961 11.076 40.5181 11.076V8.576ZM38.1989 9.56593C37.5343 10.2638 37.2941 11.182 37.2941 12.122H39.7941C39.7941 11.5874 39.9272 11.3762 40.0093 11.2901L38.1989 9.56593ZM37.2941 12.122C37.2941 13.0566 37.5263 13.9665 38.1642 14.6698L40.016 12.9902C39.9258 12.8908 39.7941 12.6621 39.7941 12.122H37.2941ZM38.1849 14.6921C38.8032 15.3413 39.6013 15.668 40.4901 15.668V13.168C40.2589 13.168 40.1236 13.1027 39.9953 12.9679L38.1849 14.6921ZM47.9338 9.364H46.6838V13.2814L48.9528 10.088L47.9338 9.364ZM48.9698 8.482L49.5568 9.58562L49.5652 9.58111L48.9698 8.482ZM52.2878 8.608L51.6337 9.67325L51.642 9.67824L52.2878 8.608ZM53.5618 10.008L52.4472 10.5739L52.4525 10.5842L52.4579 10.5944L53.5618 10.008ZM53.5618 14.208L52.4506 13.6355L52.4472 13.6421L53.5618 14.208ZM52.2878 15.622L51.6286 14.5599L51.6203 14.5651L52.2878 15.622ZM48.9838 15.776L48.3869 16.8743L48.3968 16.8796L48.9838 15.776ZM47.9338 14.894L48.9275 14.1357L46.6838 11.1957V14.894H47.9338ZM47.9338 19.696V20.946H49.1838V19.696H47.9338ZM45.9738 19.696H44.7238V20.946H45.9738V19.696ZM45.9738 8.244V6.994H44.7238V8.244H45.9738ZM47.9338 8.244H49.1838V6.994H47.9338V8.244ZM51.7418 10.89L50.6422 11.4844L50.6518 11.5023L50.6621 11.5198L51.7418 10.89ZM50.9858 10.106L50.3621 11.1893L50.369 11.1933L50.376 11.1972L50.9858 10.106ZM48.9698 10.12L49.5935 11.2033L49.6036 11.1974L48.9698 10.12ZM48.2138 10.904L47.1267 10.287L47.1203 10.2982L47.1142 10.3096L48.2138 10.904ZM48.2138 13.34L47.1142 13.9344L47.1203 13.9458L47.1267 13.957L48.2138 13.34ZM48.9698 14.138L48.3219 15.207L48.3408 15.2184L48.36 15.2292L48.9698 14.138ZM50.9858 14.124L50.352 13.0466L50.345 13.0507L50.3379 13.055L50.9858 14.124ZM51.7418 13.326L50.6547 12.709L50.6483 12.7202L50.6422 12.7316L51.7418 13.326ZM48.9528 10.088C49.0772 9.91287 49.2652 9.7407 49.5568 9.58559L48.3828 7.37841C47.7971 7.68996 47.2944 8.1058 46.9148 8.63999L48.9528 10.088ZM49.5652 9.58111C49.8097 9.44866 50.1096 9.368 50.4958 9.368V6.868C49.7434 6.868 49.0259 7.03 48.3745 7.38288L49.5652 9.58111ZM50.4958 9.368C50.9424 9.368 51.3108 9.47489 51.6337 9.67321L52.9419 7.54279C52.2009 7.08777 51.3746 6.868 50.4958 6.868V9.368ZM51.642 9.67824C51.9676 9.87474 52.2368 10.1594 52.4472 10.5739L54.6764 9.44213C54.2708 8.64331 53.6907 7.99459 52.9336 7.53777L51.642 9.67824ZM52.4579 10.5944C52.664 10.9823 52.7878 11.4698 52.7878 12.094H55.2878C55.2878 11.1316 55.0943 10.2283 54.6657 9.42156L52.4579 10.5944ZM52.7878 12.094C52.7878 12.7172 52.6643 13.2207 52.4506 13.6356L54.673 14.7804C55.094 13.9633 55.2878 13.0574 55.2878 12.094H52.7878ZM52.4472 13.6421C52.2355 14.0593 51.9623 14.3528 51.6286 14.5599L52.947 16.684C53.696 16.2192 54.2722 15.5701 54.6764 14.7739L52.4472 13.6421ZM51.6203 14.5651C51.2989 14.7681 50.9354 14.876 50.4958 14.876V17.376C51.3816 17.376 52.2127 17.1479 52.9553 16.6789L51.6203 14.5651ZM50.4958 14.876C50.1011 14.876 49.8039 14.7964 49.5708 14.6724L48.3968 16.8796C49.041 17.2223 49.7519 17.376 50.4958 17.376V14.876ZM49.5807 14.6777C49.2912 14.5204 49.0815 14.3375 48.9275 14.1357L46.9401 15.6523C47.3274 16.1599 47.8177 16.5649 48.3869 16.8743L49.5807 14.6777ZM46.6838 14.894V19.696H49.1838V14.894H46.6838ZM47.9338 18.446H45.9738V20.946H47.9338V18.446ZM47.2238 19.696V8.244H44.7238V19.696H47.2238ZM45.9738 9.494H47.9338V6.994H45.9738V9.494ZM46.6838 8.244V9.364H49.1838V8.244H46.6838ZM53.2858 12.094C53.2858 11.4503 53.1494 10.8223 52.8215 10.2602L50.6621 11.5198C50.7262 11.6297 50.7858 11.8044 50.7858 12.094H53.2858ZM52.8414 10.2956C52.5513 9.75891 52.1366 9.31717 51.5956 9.01482L50.376 11.1972C50.4697 11.2495 50.559 11.3304 50.6422 11.4844L52.8414 10.2956ZM51.6095 9.02272C51.1071 8.73342 50.5552 8.59 49.9778 8.59V11.09C50.1284 11.09 50.2486 11.1239 50.3621 11.1893L51.6095 9.02272ZM49.9778 8.59C49.3916 8.59 48.8378 8.74741 48.336 9.04258L49.6036 11.1974C49.7365 11.1193 49.8547 11.09 49.9778 11.09V8.59ZM48.3461 9.03672C47.8228 9.338 47.4196 9.77098 47.1267 10.287L49.3009 11.521C49.4 11.3464 49.5008 11.2567 49.5935 11.2033L48.3461 9.03672ZM47.1142 10.3096C46.8118 10.8691 46.6838 11.4869 46.6838 12.122H49.1838C49.1838 11.8238 49.2425 11.6296 49.3134 11.4984L47.1142 10.3096ZM46.6838 12.122C46.6838 12.7571 46.8118 13.3749 47.1142 13.9344L49.3134 12.7456C49.2425 12.6144 49.1838 12.4202 49.1838 12.122H46.6838ZM47.1267 13.957C47.417 14.4686 47.8131 14.8986 48.3219 15.207L49.6177 13.069C49.5106 13.0041 49.4026 12.9021 49.3009 12.723L47.1267 13.957ZM48.36 15.2292C48.8589 15.5079 49.4042 15.654 49.9778 15.654V13.154C49.8421 13.154 49.7154 13.1227 49.5796 13.0468L48.36 15.2292ZM49.9778 15.654C50.5677 15.654 51.1281 15.4994 51.6337 15.193L50.3379 13.055C50.2275 13.1219 50.1159 13.154 49.9778 13.154V15.654ZM51.6196 15.2014C52.1464 14.8915 52.5539 14.4524 52.8414 13.9204L50.6422 12.7316C50.5564 12.8903 50.4599 12.9832 50.352 13.0466L51.6196 15.2014ZM52.8289 13.943C53.1511 13.3754 53.2858 12.7433 53.2858 12.094H50.7858C50.7858 12.3967 50.7246 12.5859 50.6547 12.709L52.8289 13.943ZM58.602 8.482L57.3536 8.41958L57.288 9.732H58.602V8.482ZM59.582 6.326L60.3808 7.28749L60.3823 7.28628L59.582 6.326ZM63.754 5.92L63.195 7.03803L63.2037 7.04237L63.2124 7.04657L63.754 5.92ZM64.846 6.886L63.7699 7.52191L63.7785 7.53643L63.7874 7.55071L64.846 6.886ZM64.762 9.756L63.762 9.00599L63.7592 9.00974L64.762 9.756ZM63.684 10.568L63.2887 9.38215L62.434 9.66705V10.568H63.684ZM63.684 10.624H62.434V11.5449L63.3135 11.8178L63.684 10.624ZM64.944 11.52L63.9179 12.2338L63.9231 12.2413L63.9284 12.2486L64.944 11.52ZM65.014 14.67L63.9402 14.0302L63.9351 14.0388L63.9301 14.0473L65.014 14.67ZM63.88 15.706L64.4306 16.8283L64.439 16.824L63.88 15.706ZM59.512 15.272L58.7295 16.2467L59.512 15.272ZM58.462 12.92V11.67H57.1662L57.2128 12.965L58.462 12.92ZM60.366 12.92L61.615 12.869L61.5661 11.67H60.366V12.92ZM60.828 14.026L59.9588 14.9243L59.9735 14.9385L59.9886 14.9522L60.828 14.026ZM63.138 14.04L62.2388 13.1718L62.2382 13.1723L63.138 14.04ZM60.94 11.436H59.69V12.686H60.94V11.436ZM60.94 9.826V8.576H59.69V9.826H60.94ZM62.97 7.558L62.1044 8.45973L62.1132 8.46821L62.1222 8.4765L62.97 7.558ZM60.926 7.586L61.8099 8.46988V8.46988L60.926 7.586ZM60.52 8.482V9.732H61.6484L61.7635 8.60954L60.52 8.482ZM59.8505 8.54442C59.8832 7.89014 60.093 7.52657 60.3808 7.28749L58.7833 5.36451C57.8577 6.13343 57.4142 7.20719 57.3536 8.41958L59.8505 8.54442ZM60.3823 7.28628C60.7227 7.00257 61.2239 6.806 62.004 6.806V4.306C60.7869 4.306 59.6734 4.62276 58.7818 5.36572L60.3823 7.28628ZM62.004 6.806C62.5397 6.806 62.9219 6.90147 63.195 7.03803L64.313 4.80197C63.6155 4.45319 62.831 4.306 62.004 4.306V6.806ZM63.2124 7.04657C63.5047 7.18708 63.6687 7.35075 63.7699 7.52191L65.9222 6.25009C65.538 5.59991 64.9741 5.11959 64.2957 4.79343L63.2124 7.04657ZM63.7874 7.55071C63.904 7.73633 63.974 7.95948 63.974 8.258H66.474C66.474 7.52985 66.2921 6.83834 65.9046 6.22129L63.7874 7.55071ZM63.974 8.258C63.974 8.61658 63.8847 8.84238 63.762 9.006L65.762 10.506C66.2553 9.84828 66.474 9.07543 66.474 8.258H63.974ZM63.7592 9.00974C63.5927 9.23353 63.4352 9.33333 63.2887 9.38215L64.0793 11.7539C64.7729 11.5227 65.334 11.0811 65.7648 10.5023L63.7592 9.00974ZM62.434 10.568V10.624H64.934V10.568H62.434ZM63.3135 11.8178C63.6127 11.9107 63.7918 12.0526 63.9179 12.2338L65.9702 10.8062C65.4989 10.1287 64.838 9.67333 64.0545 9.43017L63.3135 11.8178ZM63.9284 12.2486C64.0471 12.4141 64.156 12.6901 64.156 13.172H66.656C66.656 12.3099 66.457 11.4845 65.9597 10.7914L63.9284 12.2486ZM64.156 13.172C64.156 13.5292 64.0752 13.8035 63.9402 14.0302L66.0879 15.3098C66.4755 14.6592 66.656 13.9348 66.656 13.172H64.156ZM63.9301 14.0473C63.8143 14.249 63.6311 14.4329 63.321 14.588L64.439 16.824C65.1369 16.4751 65.7098 15.9683 66.0979 15.2927L63.9301 14.0473ZM63.3295 14.5838C63.0461 14.7228 62.6473 14.82 62.088 14.82V17.32C62.9288 17.32 63.7246 17.1745 64.4306 16.8282L63.3295 14.5838ZM62.088 14.82C61.2475 14.82 60.686 14.6115 60.2946 14.2973L58.7295 16.2467C59.6634 16.9965 60.8192 17.32 62.088 17.32V14.82ZM60.2946 14.2973C59.9767 14.042 59.7386 13.635 59.7112 12.875L57.2128 12.965C57.2601 14.277 57.7221 15.438 58.7295 16.2467L60.2946 14.2973ZM58.462 14.17H60.366V11.67H58.462V14.17ZM59.1171 12.971C59.1469 13.7016 59.4068 14.3901 59.9588 14.9243L61.6973 13.1277C61.6706 13.1019 61.6225 13.053 61.615 12.869L59.1171 12.971ZM59.9886 14.9522C60.5749 15.4835 61.3102 15.682 62.046 15.682V13.182C61.7552 13.182 61.6785 13.1098 61.6674 13.0998L59.9886 14.9522ZM62.046 15.682C62.7511 15.682 63.4833 15.4828 64.0378 14.9077L62.2382 13.1723C62.2542 13.1558 62.267 13.1527 62.2537 13.1575C62.2344 13.1644 62.1721 13.182 62.046 13.182V15.682ZM64.0373 14.9082C64.5506 14.3766 64.78 13.7069 64.78 13.004H62.28C62.28 13.0834 62.2679 13.1224 62.2629 13.1356C62.2588 13.1464 62.2538 13.1562 62.2388 13.1718L64.0373 14.9082ZM64.78 13.004C64.78 12.1705 64.4997 11.3129 63.7039 10.7684L62.2922 12.8316C62.2871 12.8282 62.2772 12.8201 62.2671 12.8079C62.2571 12.7957 62.2533 12.7873 62.2537 12.7882C62.2555 12.7922 62.28 12.8517 62.28 13.004H64.78ZM63.7039 10.7684C63.0378 10.3126 62.1802 10.186 61.346 10.186V12.686C62.0052 12.686 62.2489 12.802 62.2922 12.8316L63.7039 10.7684ZM61.346 10.186H60.94V12.686H61.346V10.186ZM62.19 11.436V9.826H59.69V11.436H62.19ZM60.94 11.076H61.346V8.576H60.94V11.076ZM61.346 11.076C62.1087 11.076 62.8996 10.9556 63.5321 10.5324C64.2535 10.0498 64.584 9.30159 64.584 8.496H62.084C62.084 8.56129 62.0724 8.55773 62.091 8.52043C62.0997 8.50295 62.1113 8.48597 62.1239 8.47189C62.1362 8.45817 62.1442 8.45307 62.142 8.45456C62.1351 8.45919 62.0812 8.49217 61.9437 8.52284C61.8066 8.55342 61.6116 8.576 61.346 8.576V11.076ZM64.584 8.496C64.584 7.82688 64.371 7.15004 63.8179 6.63949L62.1222 8.4765C62.1138 8.46881 62.104 8.45785 62.0948 8.44428C62.0856 8.43077 62.0803 8.41934 62.0777 8.41272C62.0726 8.39954 62.084 8.42033 62.084 8.496H64.584ZM63.8357 6.65626C63.2924 6.13466 62.5929 5.972 61.948 5.972V8.472C62.071 8.472 62.1317 8.48773 62.1491 8.49347C62.1612 8.49743 62.1368 8.49088 62.1044 8.45973L63.8357 6.65626ZM61.948 5.972C61.2745 5.972 60.5797 6.16452 60.0421 6.70212L61.8099 8.46988C61.8034 8.47644 61.7956 8.48257 61.7881 8.48722C61.7809 8.49175 61.7781 8.49225 61.7829 8.49054C61.7934 8.48681 61.8421 8.472 61.948 8.472V5.972ZM60.0421 6.70212C59.5832 7.16108 59.3398 7.73763 59.2766 8.35446L61.7635 8.60954C61.7749 8.49837 61.8022 8.47759 61.8099 8.46988L60.0421 6.70212ZM60.52 7.232H58.602V9.732H60.52V7.232Z" fill="url(#paint4_linear_27740_14747)" mask="url(#path-4-inside-1_27740_14747)"/>
<defs>
<filter id="filter0_d_27740_14747" x="4.224" y="8.02222" width="11.3236" height="10.735" filterUnits="userSpaceOnUse" color-interpolation-filters="sRGB">
<feFlood flood-opacity="0" result="BackgroundImageFix"/>
<feColorMatrix in="SourceAlpha" type="matrix" values="0 0 0 0 0 0 0 0 0 0 0 0 0 0 0 0 0 0 127 0" result="hardAlpha"/>
<feOffset dy="0.625"/>
<feGaussianBlur stdDeviation="0.625"/>
<feComposite in2="hardAlpha" operator="out"/>
<feColorMatrix type="matrix" values="0 0 0 0 0.510563 0 0 0 0 0.284915 0 0 0 0 0.169041 0 0 0 1 0"/>
<feBlend mode="normal" in2="BackgroundImageFix" result="effect1_dropShadow_27740_14747"/>
<feBlend mode="normal" in="SourceGraphic" in2="effect1_dropShadow_27740_14747" result="shape"/>
</filter>
<linearGradient id="paint0_linear_27740_14747" x1="14.6875" y1="0.99997" x2="6.25001" y2="19.125" gradientUnits="userSpaceOnUse">
<stop stop-color="#F0A180"/>
<stop offset="1" stop-color="#B05725"/>
</linearGradient>
<linearGradient id="paint1_linear_27740_14747" x1="14.6876" y1="5.70557" x2="9.35918" y2="20.6729" gradientUnits="userSpaceOnUse">
<stop stop-color="#F0A180"/>
<stop offset="1" stop-color="#B05725"/>
</linearGradient>
<linearGradient id="paint2_linear_27740_14747" x1="9.88612" y1="5.70569" x2="9.88612" y2="21" gradientUnits="userSpaceOnUse">
<stop stop-color="#D58864"/>
<stop offset="1" stop-color="#934B24"/>
</linearGradient>
<linearGradient id="paint3_linear_27740_14747" x1="59.2905" y1="-0.000167712" x2="54.4425" y2="23.2471" gradientUnits="userSpaceOnUse">
<stop stop-color="#F0A180"/>
<stop offset="1" stop-color="#B05725"/>
</linearGradient>
<linearGradient id="paint4_linear_27740_14747" x1="47.5" y1="0" x2="47.5" y2="22" gradientUnits="userSpaceOnUse">
<stop stop-color="#D58864"/>
<stop offset="1" stop-color="#934B24"/>
</linearGradient>
<clipPath id="clip0_27740_14747">
<rect width="20" height="20" fill="white" transform="translate(0 1)"/>
</clipPath>
</defs>
</svg>
