<svg width="72" height="72" viewBox="0 0 72 72" fill="none" xmlns="http://www.w3.org/2000/svg">
<ellipse opacity="0.4" cx="36" cy="50.8696" rx="33.6522" ry="9.3913" fill="#4743C5"/>
<path d="M14.0869 33.5207C14.0869 33.0913 14.1753 32.6664 14.3465 32.2725L21.0946 16.7519C21.5916 15.6089 22.7192 14.8696 23.9655 14.8696H48.0345C49.2808 14.8696 50.4083 15.6089 50.9053 16.7519L57.6534 32.2725C57.8246 32.6664 57.913 33.0913 57.913 33.5207V49.3044C57.913 51.0333 56.5115 52.4348 54.7826 52.4348H17.2174C15.4885 52.4348 14.0869 51.0333 14.0869 49.3044V33.5207Z" fill="#5B56F4"/>
<path d="M14.0869 33.6522C14.0869 31.9233 15.4885 30.5217 17.2173 30.5217H26.6087C28.3375 30.5217 29.7391 31.9233 29.7391 33.6522C29.7391 35.3811 31.1406 36.7826 32.8695 36.7826H39.1304C40.8593 36.7826 42.2608 35.3811 42.2608 33.6522C42.2608 31.9233 43.6624 30.5217 45.3913 30.5217H54.7826C56.5115 30.5217 57.913 31.9233 57.913 33.6522V49.3043C57.913 51.0332 56.5115 52.4348 54.7826 52.4348H17.2174C15.4885 52.4348 14.0869 51.0332 14.0869 49.3043V33.6522Z" fill="#7A75FF"/>
</svg>
