<svg width="17" height="16" viewBox="0 0 17 16" fill="none" xmlns="http://www.w3.org/2000/svg">
<path d="M8.5 13.75C11.6756 13.75 14.25 11.1756 14.25 8C14.25 4.82436 11.6756 2.25 8.5 2.25C5.32436 2.25 2.75 4.82436 2.75 8C2.75 11.1756 5.32436 13.75 8.5 13.75ZM8.5 15C4.63401 15 1.5 11.866 1.5 8C1.5 4.13401 4.63401 1 8.5 1C12.366 1 15.5 4.13401 15.5 8C15.5 11.866 12.366 15 8.5 15ZM9.4814 11.1C9.4814 11.5971 9.07845 12 8.5814 12C8.08434 12 7.6814 11.5971 7.6814 11.1C7.6814 10.603 8.08434 10.2 8.5814 10.2C9.07845 10.2 9.4814 10.603 9.4814 11.1ZM7.42183 6.57518C7.53228 6.57518 7.61947 6.48445 7.64432 6.37682C7.73424 5.98733 8.08323 5.69696 8.50005 5.69696C8.98507 5.69696 9.37827 6.09015 9.37827 6.57518C9.37827 6.85532 9.2478 7.10465 9.04181 7.26647C8.82292 7.43842 8.54182 7.66733 8.31626 7.94462C8.08797 8.22527 7.87505 8.60588 7.87505 9.0784V9.25001C7.87505 9.36046 7.96459 9.45001 8.07505 9.45001H8.92505C9.0355 9.45001 9.12505 9.36046 9.12505 9.25001V9.0784C9.12505 8.99864 9.1589 8.88961 9.28596 8.7334C9.41576 8.57384 9.59859 8.41866 9.814 8.24944C10.3087 7.86084 10.6283 7.25516 10.6283 6.57518C10.6283 5.3998 9.67543 4.44696 8.50005 4.44696C7.39204 4.44696 6.4818 5.29368 6.38108 6.37537C6.37084 6.48535 6.46137 6.57518 6.57183 6.57518H7.42183Z" fill="#9F9F9F"/>
</svg>
