<svg width="16" height="16" viewBox="0 0 16 16" fill="none" xmlns="http://www.w3.org/2000/svg">
<g clip-path="url(#clip0_31727_1072)">
<path d="M7.99896 0.00774034C6.4186 0.00934749 4.87419 0.479447 3.56095 1.35862C2.24771 2.23779 1.2246 3.48656 0.620935 4.94708C0.0172713 6.4076 -0.139842 8.01431 0.169456 9.56411C0.478754 11.1139 1.24058 12.5372 2.35863 13.6541C3.47668 14.771 4.90076 15.5314 6.45088 15.8391C8.00099 16.1469 9.60753 15.9881 11.0674 15.383C12.5274 14.7778 13.7751 13.7534 14.6529 12.4393C15.5308 11.1252 15.9993 9.58029 15.9993 7.99993C15.9993 6.9497 15.7923 5.90976 15.3901 4.93957C14.988 3.96939 14.3986 3.08797 13.6555 2.34572C12.9125 1.60347 12.0305 1.01494 11.0599 0.613775C10.0893 0.212608 9.04919 0.0066723 7.99896 0.00774034ZM12.3743 6.10348L7.1591 11.3133C7.10046 11.3717 7.02107 11.4045 6.9383 11.4045C6.85554 11.4045 6.77615 11.3717 6.7175 11.3133L3.62493 8.22344C3.56653 8.1648 3.53374 8.08541 3.53374 8.00264C3.53374 7.91988 3.56653 7.84049 3.62493 7.78184L4.59754 6.81059C4.65618 6.75219 4.73558 6.7194 4.81834 6.7194C4.9011 6.7194 4.9805 6.75219 5.03914 6.81059L6.93559 8.70704L10.9601 4.69198C11.0188 4.63358 11.0982 4.60079 11.1809 4.60079C11.2637 4.60079 11.3431 4.63358 11.4017 4.69198L12.3743 5.66323C12.4327 5.72188 12.4655 5.80127 12.4655 5.88403C12.4655 5.9668 12.4327 6.04619 12.3743 6.10484V6.10348Z" fill="#9C9DA9"/>
</g>
<defs>
<clipPath id="clip0_31727_1072">
<rect width="16" height="16" fill="white"/>
</clipPath>
</defs>
</svg>
